# MagicaVoxel @ Ephtracy

# group
o 

# material
mtllib Map-7.mtl
usemtl palette

# normals
vn -1 0 0
vn 1 0 0
vn 0 0 -1
vn 0 0 1
vn 0 -1 0
vn 0 1 0

# texcoords
vt 0.00195312 0.5
vt 0.0292969 0.5
vt 0.0605469 0.5
vt 0.0644531 0.5
vt 0.158203 0.5

# verts
v 0 0 25.6
v 0 0 36
v 0 0.2 25.6
v 0 0.2 25.8
v 0 0.2 26.6
v 0 0.2 26.8
v 0 0.2 28.1
v 0 0.2 36
v 0 0.3 25.8
v 0 0.3 25.9
v 0 0.3 26.5
v 0 0.3 26.6
v 0 0.5 26.8
v 0 0.5 26.9
v 0 0.5 28
v 0 0.5 28.1
v 0 1.2 25.9
v 0 1.2 26.5
v 0 2.7 26.7
v 0 2.7 26.8
v 0 2.7 28.1
v 0 2.7 28.2
v 0 2.8 26.8
v 0 2.8 26.9
v 0 2.8 28
v 0 2.8 28.1
v 0 2.9 26.7
v 0 2.9 26.8
v 0 2.9 28.1
v 0 2.9 28.2
v 0 3 26.8
v 0 3 26.9
v 0 3 28
v 0 3 28.1
v 0 3.1 26.9
v 0 3.1 27
v 0 3.1 27.9
v 0 3.1 28
v 0 3.2 27
v 0 3.2 27.1
v 0 3.2 27.8
v 0 3.2 27.9
v 0 3.3 27.1
v 0 3.3 27.8
v 1.9 0.2 25.8
v 1.9 0.2 26.6
v 1.9 0.3 25.8
v 1.9 0.3 26.6
v 2 0.3 25.9
v 2 0.3 26.5
v 2 1.2 25.9
v 2 1.2 26.5
v 3.8 0.2 25.8
v 3.8 0.2 26.6
v 3.8 0.3 25.8
v 3.8 0.3 26.6
v 3.9 0.3 25.9
v 3.9 0.3 26.5
v 3.9 1.2 25.9
v 3.9 1.2 26.5
v 5.7 0.2 25.8
v 5.7 0.2 26.6
v 5.7 0.3 25.8
v 5.7 0.3 26.6
v 5.8 0.3 25.9
v 5.8 0.3 26.5
v 5.8 1.2 25.9
v 5.8 1.2 26.5
v 7.6 0.2 25.8
v 7.6 0.2 26.6
v 7.6 0.3 25.8
v 7.6 0.3 26.6
v 7.7 0.3 25.9
v 7.7 0.3 26.5
v 7.7 1.2 25.9
v 7.7 1.2 26.5
v 9.5 0.2 25.8
v 9.5 0.2 26.6
v 9.5 0.3 25.8
v 9.5 0.3 26.6
v 9.6 0.3 25.9
v 9.6 0.3 26.5
v 9.6 1.2 25.9
v 9.6 1.2 26.5
v 11.4 0.2 25.8
v 11.4 0.2 26.6
v 11.4 0.3 25.8
v 11.4 0.3 26.6
v 11.5 0.3 25.9
v 11.5 0.3 26.5
v 11.5 1.2 25.9
v 11.5 1.2 26.5
v 12 0 24
v 12 0 25.6
v 12 0.2 24
v 12 0.2 25.6
v 12.2 0.2 24.1
v 12.2 0.2 25.8
v 12.2 0.3 24.1
v 12.2 0.3 25.8
v 12.3 0.3 24.2
v 12.3 0.3 25.9
v 12.3 1.2 24.2
v 12.3 1.2 25.9
v 13.1 2.7 24
v 13.1 2.7 26.7
v 13.1 2.7 26.8
v 13.1 2.7 26.9
v 13.1 2.8 26.8
v 13.1 2.8 26.9
v 13.1 2.9 24
v 13.1 2.9 26.7
v 13.2 0.2 24
v 13.2 0.2 26.8
v 13.2 0.5 24
v 13.2 0.5 26.8
v 13.2 2.9 24
v 13.2 2.9 26.8
v 13.2 3 24
v 13.2 3 26.8
v 13.3 0.5 24
v 13.3 0.5 26.9
v 13.3 2.7 26.7
v 13.3 2.7 26.8
v 13.3 2.8 24
v 13.3 2.8 26.7
v 13.3 2.8 26.8
v 13.3 2.8 26.9
v 13.3 3 24
v 13.3 3 26.9
v 13.3 3.1 24
v 13.3 3.1 26.9
v 13.4 3.1 24
v 13.4 3.1 27
v 13.4 3.2 24
v 13.4 3.2 27
v 13.5 3.2 24
v 13.5 3.2 27.1
v 13.5 3.3 24
v 13.5 3.3 27.1
v 14.5 2.7 24
v 14.5 2.7 28.1
v 14.5 2.8 24
v 14.5 2.8 28.1
v 1.5 0.3 25.9
v 1.5 0.3 26.5
v 1.5 1.2 25.9
v 1.5 1.2 26.5
v 1.6 0.2 25.8
v 1.6 0.2 26.6
v 1.6 0.3 25.8
v 1.6 0.3 26.6
v 3.4 0.3 25.9
v 3.4 0.3 26.5
v 3.4 1.2 25.9
v 3.4 1.2 26.5
v 3.5 0.2 25.8
v 3.5 0.2 26.6
v 3.5 0.3 25.8
v 3.5 0.3 26.6
v 5.3 0.3 25.9
v 5.3 0.3 26.5
v 5.3 1.2 25.9
v 5.3 1.2 26.5
v 5.4 0.2 25.8
v 5.4 0.2 26.6
v 5.4 0.3 25.8
v 5.4 0.3 26.6
v 7.2 0.3 25.9
v 7.2 0.3 26.5
v 7.2 1.2 25.9
v 7.2 1.2 26.5
v 7.3 0.2 25.8
v 7.3 0.2 26.6
v 7.3 0.3 25.8
v 7.3 0.3 26.6
v 9.1 0.3 25.9
v 9.1 0.3 26.5
v 9.1 1.2 25.9
v 9.1 1.2 26.5
v 9.2 0.2 25.8
v 9.2 0.2 26.6
v 9.2 0.3 25.8
v 9.2 0.3 26.6
v 11 0.3 25.9
v 11 0.3 26.5
v 11 1.2 25.9
v 11 1.2 26.5
v 11.1 0.2 25.8
v 11.1 0.2 26.6
v 11.1 0.3 25.8
v 11.1 0.3 26.6
v 12.9 0.3 24.2
v 12.9 0.3 26.5
v 12.9 1.2 24.2
v 12.9 1.2 26.5
v 13 0.2 24.1
v 13 0.2 26.6
v 13 0.3 24.1
v 13 0.3 26.6
v 13.2 2.7 24
v 13.2 2.7 26.7
v 13.2 2.7 26.8
v 13.2 2.7 26.9
v 13.2 2.8 24
v 13.2 2.8 26.7
v 13.2 2.8 26.8
v 13.2 2.8 26.9
v 14.2 3.2 24
v 14.2 3.2 27.8
v 14.2 3.3 24
v 14.2 3.3 27.8
v 14.3 3.1 24
v 14.3 3.1 27.9
v 14.3 3.2 24
v 14.3 3.2 27.9
v 14.4 0.5 24
v 14.4 0.5 28
v 14.4 2.8 24
v 14.4 2.8 28
v 14.4 3 24
v 14.4 3 28
v 14.4 3.1 24
v 14.4 3.1 28
v 14.5 0.2 24
v 14.5 0.2 28.1
v 14.5 0.5 24
v 14.5 0.5 28.1
v 14.5 2.9 24
v 14.5 2.9 28.1
v 14.5 3 24
v 14.5 3 28.1
v 14.6 2.7 24
v 14.6 2.7 28.2
v 14.6 2.9 24
v 14.6 2.9 28.2
v 24 0 24
v 24 0 36
v 24 0.2 24
v 24 0.2 36
v 12 0 24
v 12 0.2 24
v 13.1 2.7 24
v 13.1 2.9 24
v 13.2 0.2 24
v 13.2 0.5 24
v 13.2 2.7 24
v 13.2 2.8 24
v 13.2 2.9 24
v 13.2 3 24
v 13.3 0.5 24
v 13.3 2.8 24
v 13.3 3 24
v 13.3 3.1 24
v 13.4 3.1 24
v 13.4 3.2 24
v 13.5 3.2 24
v 13.5 3.3 24
v 14.2 3.2 24
v 14.2 3.3 24
v 14.3 3.1 24
v 14.3 3.2 24
v 14.4 0.5 24
v 14.4 2.8 24
v 14.4 3 24
v 14.4 3.1 24
v 14.5 0.2 24
v 14.5 0.5 24
v 14.5 2.7 24
v 14.5 2.8 24
v 14.5 2.9 24
v 14.5 3 24
v 14.6 2.7 24
v 14.6 2.9 24
v 24 0 24
v 24 0.2 24
v 12.2 0.2 24.1
v 12.2 0.3 24.1
v 13 0.2 24.1
v 13 0.3 24.1
v 12.3 0.3 24.2
v 12.3 1.2 24.2
v 12.9 0.3 24.2
v 12.9 1.2 24.2
v 0 0 25.6
v 0 0.2 25.6
v 12 0 25.6
v 12 0.2 25.6
v 0 0.2 25.8
v 0 0.3 25.8
v 1.6 0.2 25.8
v 1.6 0.3 25.8
v 1.9 0.2 25.8
v 1.9 0.3 25.8
v 3.5 0.2 25.8
v 3.5 0.3 25.8
v 3.8 0.2 25.8
v 3.8 0.3 25.8
v 5.4 0.2 25.8
v 5.4 0.3 25.8
v 5.7 0.2 25.8
v 5.7 0.3 25.8
v 7.3 0.2 25.8
v 7.3 0.3 25.8
v 7.6 0.2 25.8
v 7.6 0.3 25.8
v 9.2 0.2 25.8
v 9.2 0.3 25.8
v 9.5 0.2 25.8
v 9.5 0.3 25.8
v 11.1 0.2 25.8
v 11.1 0.3 25.8
v 11.4 0.2 25.8
v 11.4 0.3 25.8
v 12.2 0.2 25.8
v 12.2 0.3 25.8
v 0 0.3 25.9
v 0 1.2 25.9
v 1.5 0.3 25.9
v 1.5 1.2 25.9
v 2 0.3 25.9
v 2 1.2 25.9
v 3.4 0.3 25.9
v 3.4 1.2 25.9
v 3.9 0.3 25.9
v 3.9 1.2 25.9
v 5.3 0.3 25.9
v 5.3 1.2 25.9
v 5.8 0.3 25.9
v 5.8 1.2 25.9
v 7.2 0.3 25.9
v 7.2 1.2 25.9
v 7.7 0.3 25.9
v 7.7 1.2 25.9
v 9.1 0.3 25.9
v 9.1 1.2 25.9
v 9.6 0.3 25.9
v 9.6 1.2 25.9
v 11 0.3 25.9
v 11 1.2 25.9
v 11.5 0.3 25.9
v 11.5 1.2 25.9
v 12.3 0.3 25.9
v 12.3 1.2 25.9
v 0 2.7 26.7
v 0 2.9 26.7
v 13.1 2.7 26.7
v 13.1 2.9 26.7
v 13.2 2.7 26.7
v 13.2 2.8 26.7
v 13.3 2.7 26.7
v 13.3 2.8 26.7
v 0 0.2 26.8
v 0 0.5 26.8
v 0 2.9 26.8
v 0 3 26.8
v 13.2 0.2 26.8
v 13.2 0.5 26.8
v 13.2 2.9 26.8
v 13.2 3 26.8
v 0 0.5 26.9
v 0 2.8 26.9
v 0 3 26.9
v 0 3.1 26.9
v 13.1 2.7 26.9
v 13.1 2.8 26.9
v 13.2 2.7 26.9
v 13.2 2.8 26.9
v 13.3 0.5 26.9
v 13.3 2.8 26.9
v 13.3 3 26.9
v 13.3 3.1 26.9
v 0 3.1 27
v 0 3.2 27
v 13.4 3.1 27
v 13.4 3.2 27
v 0 3.2 27.1
v 0 3.3 27.1
v 13.5 3.2 27.1
v 13.5 3.3 27.1
v 0 2.7 28.1
v 0 2.8 28.1
v 14.5 2.7 28.1
v 14.5 2.8 28.1
v 0 0.3 26.5
v 0 1.2 26.5
v 1.5 0.3 26.5
v 1.5 1.2 26.5
v 2 0.3 26.5
v 2 1.2 26.5
v 3.4 0.3 26.5
v 3.4 1.2 26.5
v 3.9 0.3 26.5
v 3.9 1.2 26.5
v 5.3 0.3 26.5
v 5.3 1.2 26.5
v 5.8 0.3 26.5
v 5.8 1.2 26.5
v 7.2 0.3 26.5
v 7.2 1.2 26.5
v 7.7 0.3 26.5
v 7.7 1.2 26.5
v 9.1 0.3 26.5
v 9.1 1.2 26.5
v 9.6 0.3 26.5
v 9.6 1.2 26.5
v 11 0.3 26.5
v 11 1.2 26.5
v 11.5 0.3 26.5
v 11.5 1.2 26.5
v 12.9 0.3 26.5
v 12.9 1.2 26.5
v 0 0.2 26.6
v 0 0.3 26.6
v 1.6 0.2 26.6
v 1.6 0.3 26.6
v 1.9 0.2 26.6
v 1.9 0.3 26.6
v 3.5 0.2 26.6
v 3.5 0.3 26.6
v 3.8 0.2 26.6
v 3.8 0.3 26.6
v 5.4 0.2 26.6
v 5.4 0.3 26.6
v 5.7 0.2 26.6
v 5.7 0.3 26.6
v 7.3 0.2 26.6
v 7.3 0.3 26.6
v 7.6 0.2 26.6
v 7.6 0.3 26.6
v 9.2 0.2 26.6
v 9.2 0.3 26.6
v 9.5 0.2 26.6
v 9.5 0.3 26.6
v 11.1 0.2 26.6
v 11.1 0.3 26.6
v 11.4 0.2 26.6
v 11.4 0.3 26.6
v 13 0.2 26.6
v 13 0.3 26.6
v 0 2.7 26.8
v 0 2.8 26.8
v 13.1 2.7 26.8
v 13.1 2.8 26.8
v 13.2 2.7 26.8
v 13.2 2.8 26.8
v 13.3 2.7 26.8
v 13.3 2.8 26.8
v 0 3.2 27.8
v 0 3.3 27.8
v 14.2 3.2 27.8
v 14.2 3.3 27.8
v 0 3.1 27.9
v 0 3.2 27.9
v 14.3 3.1 27.9
v 14.3 3.2 27.9
v 0 0.5 28
v 0 2.8 28
v 0 3 28
v 0 3.1 28
v 14.4 0.5 28
v 14.4 2.8 28
v 14.4 3 28
v 14.4 3.1 28
v 0 0.2 28.1
v 0 0.5 28.1
v 0 2.9 28.1
v 0 3 28.1
v 14.5 0.2 28.1
v 14.5 0.5 28.1
v 14.5 2.9 28.1
v 14.5 3 28.1
v 0 2.7 28.2
v 0 2.9 28.2
v 14.6 2.7 28.2
v 14.6 2.9 28.2
v 0 0 36
v 0 0.2 36
v 24 0 36
v 24 0.2 36
v 12 0 24
v 24 0 24
v 0 0 25.6
v 12 0 25.6
v 0 0 36
v 24 0 36
v 13.1 2.7 24
v 13.2 2.7 24
v 14.5 2.7 24
v 14.6 2.7 24
v 0 2.7 26.7
v 13.1 2.7 26.7
v 13.2 2.7 26.7
v 13.3 2.7 26.7
v 0 2.7 26.8
v 13.1 2.7 26.8
v 13.2 2.7 26.8
v 13.3 2.7 26.8
v 13.1 2.7 26.9
v 13.2 2.7 26.9
v 0 2.7 28.1
v 14.5 2.7 28.1
v 0 2.7 28.2
v 14.6 2.7 28.2
v 13.2 2.8 24
v 13.3 2.8 24
v 14.4 2.8 24
v 14.5 2.8 24
v 13.2 2.8 26.7
v 13.3 2.8 26.7
v 0 2.8 26.8
v 13.1 2.8 26.8
v 13.2 2.8 26.8
v 13.3 2.8 26.8
v 0 2.8 26.9
v 13.1 2.8 26.9
v 13.2 2.8 26.9
v 13.3 2.8 26.9
v 0 2.8 28
v 14.4 2.8 28
v 0 2.8 28.1
v 14.5 2.8 28.1
v 12 0.2 24
v 13.2 0.2 24
v 14.5 0.2 24
v 24 0.2 24
v 12.2 0.2 24.1
v 13 0.2 24.1
v 0 0.2 25.6
v 12 0.2 25.6
v 0 0.2 25.8
v 1.6 0.2 25.8
v 1.9 0.2 25.8
v 3.5 0.2 25.8
v 3.8 0.2 25.8
v 5.4 0.2 25.8
v 5.7 0.2 25.8
v 7.3 0.2 25.8
v 7.6 0.2 25.8
v 9.2 0.2 25.8
v 9.5 0.2 25.8
v 11.1 0.2 25.8
v 11.4 0.2 25.8
v 12.2 0.2 25.8
v 0 0.2 26.6
v 1.6 0.2 26.6
v 1.9 0.2 26.6
v 3.5 0.2 26.6
v 3.8 0.2 26.6
v 5.4 0.2 26.6
v 5.7 0.2 26.6
v 7.3 0.2 26.6
v 7.6 0.2 26.6
v 9.2 0.2 26.6
v 9.5 0.2 26.6
v 11.1 0.2 26.6
v 11.4 0.2 26.6
v 13 0.2 26.6
v 0 0.2 26.8
v 13.2 0.2 26.8
v 0 0.2 28.1
v 14.5 0.2 28.1
v 0 0.2 36
v 24 0.2 36
v 12.2 0.3 24.1
v 13 0.3 24.1
v 12.3 0.3 24.2
v 12.9 0.3 24.2
v 0 0.3 25.8
v 1.6 0.3 25.8
v 1.9 0.3 25.8
v 3.5 0.3 25.8
v 3.8 0.3 25.8
v 5.4 0.3 25.8
v 5.7 0.3 25.8
v 7.3 0.3 25.8
v 7.6 0.3 25.8
v 9.2 0.3 25.8
v 9.5 0.3 25.8
v 11.1 0.3 25.8
v 11.4 0.3 25.8
v 12.2 0.3 25.8
v 0 0.3 25.9
v 1.5 0.3 25.9
v 2 0.3 25.9
v 3.4 0.3 25.9
v 3.9 0.3 25.9
v 5.3 0.3 25.9
v 5.8 0.3 25.9
v 7.2 0.3 25.9
v 7.7 0.3 25.9
v 9.1 0.3 25.9
v 9.6 0.3 25.9
v 11 0.3 25.9
v 11.5 0.3 25.9
v 12.3 0.3 25.9
v 0 0.3 26.5
v 1.5 0.3 26.5
v 2 0.3 26.5
v 3.4 0.3 26.5
v 3.9 0.3 26.5
v 5.3 0.3 26.5
v 5.8 0.3 26.5
v 7.2 0.3 26.5
v 7.7 0.3 26.5
v 9.1 0.3 26.5
v 9.6 0.3 26.5
v 11 0.3 26.5
v 11.5 0.3 26.5
v 12.9 0.3 26.5
v 0 0.3 26.6
v 1.6 0.3 26.6
v 1.9 0.3 26.6
v 3.5 0.3 26.6
v 3.8 0.3 26.6
v 5.4 0.3 26.6
v 5.7 0.3 26.6
v 7.3 0.3 26.6
v 7.6 0.3 26.6
v 9.2 0.3 26.6
v 9.5 0.3 26.6
v 11.1 0.3 26.6
v 11.4 0.3 26.6
v 13 0.3 26.6
v 13.2 0.5 24
v 13.3 0.5 24
v 14.4 0.5 24
v 14.5 0.5 24
v 0 0.5 26.8
v 13.2 0.5 26.8
v 0 0.5 26.9
v 13.3 0.5 26.9
v 0 0.5 28
v 14.4 0.5 28
v 0 0.5 28.1
v 14.5 0.5 28.1
v 12.3 1.2 24.2
v 12.9 1.2 24.2
v 0 1.2 25.9
v 1.5 1.2 25.9
v 2 1.2 25.9
v 3.4 1.2 25.9
v 3.9 1.2 25.9
v 5.3 1.2 25.9
v 5.8 1.2 25.9
v 7.2 1.2 25.9
v 7.7 1.2 25.9
v 9.1 1.2 25.9
v 9.6 1.2 25.9
v 11 1.2 25.9
v 11.5 1.2 25.9
v 12.3 1.2 25.9
v 0 1.2 26.5
v 1.5 1.2 26.5
v 2 1.2 26.5
v 3.4 1.2 26.5
v 3.9 1.2 26.5
v 5.3 1.2 26.5
v 5.8 1.2 26.5
v 7.2 1.2 26.5
v 7.7 1.2 26.5
v 9.1 1.2 26.5
v 9.6 1.2 26.5
v 11 1.2 26.5
v 11.5 1.2 26.5
v 12.9 1.2 26.5
v 13.1 2.9 24
v 13.2 2.9 24
v 14.5 2.9 24
v 14.6 2.9 24
v 0 2.9 26.7
v 13.1 2.9 26.7
v 0 2.9 26.8
v 13.2 2.9 26.8
v 0 2.9 28.1
v 14.5 2.9 28.1
v 0 2.9 28.2
v 14.6 2.9 28.2
v 13.2 3 24
v 13.3 3 24
v 14.4 3 24
v 14.5 3 24
v 0 3 26.8
v 13.2 3 26.8
v 0 3 26.9
v 13.3 3 26.9
v 0 3 28
v 14.4 3 28
v 0 3 28.1
v 14.5 3 28.1
v 13.3 3.1 24
v 13.4 3.1 24
v 14.3 3.1 24
v 14.4 3.1 24
v 0 3.1 26.9
v 13.3 3.1 26.9
v 0 3.1 27
v 13.4 3.1 27
v 0 3.1 27.9
v 14.3 3.1 27.9
v 0 3.1 28
v 14.4 3.1 28
v 13.4 3.2 24
v 13.5 3.2 24
v 14.2 3.2 24
v 14.3 3.2 24
v 0 3.2 27
v 13.4 3.2 27
v 0 3.2 27.1
v 13.5 3.2 27.1
v 0 3.2 27.8
v 14.2 3.2 27.8
v 0 3.2 27.9
v 14.3 3.2 27.9
v 13.5 3.3 24
v 14.2 3.3 24
v 0 3.3 27.1
v 13.5 3.3 27.1
v 0 3.3 27.8
v 14.2 3.3 27.8

# faces
f 1/2/1 2/2/1 3/2/1
f 3/2/1 2/2/1 4/2/1
f 4/2/1 2/2/1 5/2/1
f 5/2/1 2/2/1 6/2/1
f 6/2/1 2/2/1 7/2/1
f 7/2/1 2/2/1 8/2/1
f 4/3/1 5/3/1 9/3/1
f 9/3/1 5/3/1 10/3/1
f 10/3/1 5/3/1 11/3/1
f 11/3/1 5/3/1 12/3/1
f 6/5/1 7/5/1 13/5/1
f 13/5/1 7/5/1 14/5/1
f 14/5/1 7/5/1 15/5/1
f 15/5/1 7/5/1 16/5/1
f 10/4/1 11/4/1 17/4/1
f 17/4/1 11/4/1 18/4/1
f 19/5/1 20/5/1 23/5/1
f 14/1/1 15/1/1 24/1/1
f 24/1/1 15/1/1 25/1/1
f 21/5/1 22/5/1 26/5/1
f 24/5/1 25/5/1 27/5/1
f 25/5/1 26/5/1 27/5/1
f 19/5/1 23/5/1 27/5/1
f 23/5/1 24/5/1 27/5/1
f 27/5/1 26/5/1 28/5/1
f 26/5/1 22/5/1 29/5/1
f 28/5/1 26/5/1 29/5/1
f 29/5/1 22/5/1 30/5/1
f 28/5/1 29/5/1 31/5/1
f 31/5/1 29/5/1 32/5/1
f 32/5/1 29/5/1 33/5/1
f 33/5/1 29/5/1 34/5/1
f 32/5/1 33/5/1 35/5/1
f 35/5/1 33/5/1 36/5/1
f 36/5/1 33/5/1 37/5/1
f 37/5/1 33/5/1 38/5/1
f 36/5/1 37/5/1 39/5/1
f 39/5/1 37/5/1 40/5/1
f 40/5/1 37/5/1 41/5/1
f 41/5/1 37/5/1 42/5/1
f 40/5/1 41/5/1 43/5/1
f 43/5/1 41/5/1 44/5/1
f 45/3/1 46/3/1 47/3/1
f 47/3/1 46/3/1 48/3/1
f 49/4/1 50/4/1 51/4/1
f 51/4/1 50/4/1 52/4/1
f 53/3/1 54/3/1 55/3/1
f 55/3/1 54/3/1 56/3/1
f 57/4/1 58/4/1 59/4/1
f 59/4/1 58/4/1 60/4/1
f 61/3/1 62/3/1 63/3/1
f 63/3/1 62/3/1 64/3/1
f 65/4/1 66/4/1 67/4/1
f 67/4/1 66/4/1 68/4/1
f 69/3/1 70/3/1 71/3/1
f 71/3/1 70/3/1 72/3/1
f 73/4/1 74/4/1 75/4/1
f 75/4/1 74/4/1 76/4/1
f 77/3/1 78/3/1 79/3/1
f 79/3/1 78/3/1 80/3/1
f 81/4/1 82/4/1 83/4/1
f 83/4/1 82/4/1 84/4/1
f 85/3/1 86/3/1 87/3/1
f 87/3/1 86/3/1 88/3/1
f 89/4/1 90/4/1 91/4/1
f 91/4/1 90/4/1 92/4/1
f 93/2/1 94/2/1 95/2/1
f 95/2/1 94/2/1 96/2/1
f 97/3/1 98/3/1 99/3/1
f 99/3/1 98/3/1 100/3/1
f 101/4/1 102/4/1 103/4/1
f 103/4/1 102/4/1 104/4/1
f 107/5/1 108/5/1 109/5/1
f 109/5/1 108/5/1 110/5/1
f 105/5/1 106/5/1 111/5/1
f 111/5/1 106/5/1 112/5/1
f 113/5/1 114/5/1 115/5/1
f 115/5/1 114/5/1 116/5/1
f 117/5/1 118/5/1 119/5/1
f 119/5/1 118/5/1 120/5/1
f 121/1/1 122/1/1 123/1/1
f 123/1/1 122/1/1 124/1/1
f 121/1/1 123/1/1 125/1/1
f 125/1/1 123/1/1 126/1/1
f 124/1/1 122/1/1 127/1/1
f 127/1/1 122/1/1 128/1/1
f 129/5/1 130/5/1 131/5/1
f 131/5/1 130/5/1 132/5/1
f 133/5/1 134/5/1 135/5/1
f 135/5/1 134/5/1 136/5/1
f 137/5/1 138/5/1 139/5/1
f 139/5/1 138/5/1 140/5/1
f 141/5/1 142/5/1 143/5/1
f 143/5/1 142/5/1 144/5/1
f 147/4/2 146/4/2 145/4/2
f 148/4/2 146/4/2 147/4/2
f 151/3/2 150/3/2 149/3/2
f 152/3/2 150/3/2 151/3/2
f 155/4/2 154/4/2 153/4/2
f 156/4/2 154/4/2 155/4/2
f 159/3/2 158/3/2 157/3/2
f 160/3/2 158/3/2 159/3/2
f 163/4/2 162/4/2 161/4/2
f 164/4/2 162/4/2 163/4/2
f 167/3/2 166/3/2 165/3/2
f 168/3/2 166/3/2 167/3/2
f 171/4/2 170/4/2 169/4/2
f 172/4/2 170/4/2 171/4/2
f 175/3/2 174/3/2 173/3/2
f 176/3/2 174/3/2 175/3/2
f 179/4/2 178/4/2 177/4/2
f 180/4/2 178/4/2 179/4/2
f 183/3/2 182/3/2 181/3/2
f 184/3/2 182/3/2 183/3/2
f 187/4/2 186/4/2 185/4/2
f 188/4/2 186/4/2 187/4/2
f 191/3/2 190/3/2 189/3/2
f 192/3/2 190/3/2 191/3/2
f 195/4/2 194/4/2 193/4/2
f 196/4/2 194/4/2 195/4/2
f 199/3/2 198/3/2 197/3/2
f 200/3/2 198/3/2 199/3/2
f 205/5/2 202/5/2 201/5/2
f 206/5/2 202/5/2 205/5/2
f 207/5/2 204/5/2 203/5/2
f 208/5/2 204/5/2 207/5/2
f 211/5/2 210/5/2 209/5/2
f 212/5/2 210/5/2 211/5/2
f 215/5/2 214/5/2 213/5/2
f 216/5/2 214/5/2 215/5/2
f 219/1/2 218/1/2 217/1/2
f 220/1/2 218/1/2 219/1/2
f 223/5/2 222/5/2 221/5/2
f 224/5/2 222/5/2 223/5/2
f 227/5/2 226/5/2 225/5/2
f 228/5/2 226/5/2 227/5/2
f 231/5/2 230/5/2 229/5/2
f 232/5/2 230/5/2 231/5/2
f 235/5/2 234/5/2 233/5/2
f 236/5/2 234/5/2 235/5/2
f 239/2/2 238/2/2 237/2/2
f 240/2/2 238/2/2 239/2/2
f 241/2/3 242/2/3 245/2/3
f 243/5/3 244/5/3 247/5/3
f 247/5/3 244/5/3 248/5/3
f 248/5/3 244/5/3 249/5/3
f 245/5/3 246/5/3 251/5/3
f 249/5/3 250/5/3 252/5/3
f 248/5/3 249/5/3 252/5/3
f 252/5/3 250/5/3 253/5/3
f 252/5/3 253/5/3 255/5/3
f 253/5/3 254/5/3 255/5/3
f 255/5/3 256/5/3 257/5/3
f 255/5/3 257/5/3 259/5/3
f 257/5/3 258/5/3 259/5/3
f 259/5/3 258/5/3 260/5/3
f 252/5/3 255/5/3 261/5/3
f 255/5/3 259/5/3 261/5/3
f 261/5/3 259/5/3 262/5/3
f 245/5/3 251/5/3 263/5/3
f 251/1/3 252/1/3 263/1/3
f 252/5/3 261/5/3 264/5/3
f 263/1/3 252/1/3 264/1/3
f 264/5/3 261/5/3 265/5/3
f 265/5/3 261/5/3 266/5/3
f 241/2/3 245/2/3 267/2/3
f 245/5/3 263/5/3 267/5/3
f 267/5/3 263/5/3 268/5/3
f 264/5/3 265/5/3 270/5/3
f 270/5/3 265/5/3 271/5/3
f 271/5/3 265/5/3 272/5/3
f 269/5/3 270/5/3 273/5/3
f 270/5/3 271/5/3 273/5/3
f 273/5/3 271/5/3 274/5/3
f 241/2/3 267/2/3 275/2/3
f 275/2/3 267/2/3 276/2/3
f 277/3/3 278/3/3 279/3/3
f 279/3/3 278/3/3 280/3/3
f 281/4/3 282/4/3 283/4/3
f 283/4/3 282/4/3 284/4/3
f 285/2/3 286/2/3 287/2/3
f 287/2/3 286/2/3 288/2/3
f 289/3/3 290/3/3 291/3/3
f 291/3/3 290/3/3 292/3/3
f 293/3/3 294/3/3 295/3/3
f 295/3/3 294/3/3 296/3/3
f 297/3/3 298/3/3 299/3/3
f 299/3/3 298/3/3 300/3/3
f 301/3/3 302/3/3 303/3/3
f 303/3/3 302/3/3 304/3/3
f 305/3/3 306/3/3 307/3/3
f 307/3/3 306/3/3 308/3/3
f 309/3/3 310/3/3 311/3/3
f 311/3/3 310/3/3 312/3/3
f 313/3/3 314/3/3 315/3/3
f 315/3/3 314/3/3 316/3/3
f 317/4/3 318/4/3 319/4/3
f 319/4/3 318/4/3 320/4/3
f 321/4/3 322/4/3 323/4/3
f 323/4/3 322/4/3 324/4/3
f 325/4/3 326/4/3 327/4/3
f 327/4/3 326/4/3 328/4/3
f 329/4/3 330/4/3 331/4/3
f 331/4/3 330/4/3 332/4/3
f 333/4/3 334/4/3 335/4/3
f 335/4/3 334/4/3 336/4/3
f 337/4/3 338/4/3 339/4/3
f 339/4/3 338/4/3 340/4/3
f 341/4/3 342/4/3 343/4/3
f 343/4/3 342/4/3 344/4/3
f 345/5/3 346/5/3 347/5/3
f 347/5/3 346/5/3 348/5/3
f 349/5/3 350/5/3 351/5/3
f 351/5/3 350/5/3 352/5/3
f 353/5/3 354/5/3 357/5/3
f 357/5/3 354/5/3 358/5/3
f 355/5/3 356/5/3 359/5/3
f 359/5/3 356/5/3 360/5/3
f 361/1/3 362/1/3 365/1/3
f 365/1/3 362/1/3 366/1/3
f 361/1/3 365/1/3 367/1/3
f 361/1/3 367/1/3 369/1/3
f 367/1/3 368/1/3 369/1/3
f 369/1/3 368/1/3 370/1/3
f 363/5/3 364/5/3 371/5/3
f 371/5/3 364/5/3 372/5/3
f 373/5/3 374/5/3 375/5/3
f 375/5/3 374/5/3 376/5/3
f 377/5/3 378/5/3 379/5/3
f 379/5/3 378/5/3 380/5/3
f 381/5/3 382/5/3 383/5/3
f 383/5/3 382/5/3 384/5/3
f 387/4/4 386/4/4 385/4/4
f 388/4/4 386/4/4 387/4/4
f 391/4/4 390/4/4 389/4/4
f 392/4/4 390/4/4 391/4/4
f 395/4/4 394/4/4 393/4/4
f 396/4/4 394/4/4 395/4/4
f 399/4/4 398/4/4 397/4/4
f 400/4/4 398/4/4 399/4/4
f 403/4/4 402/4/4 401/4/4
f 404/4/4 402/4/4 403/4/4
f 407/4/4 406/4/4 405/4/4
f 408/4/4 406/4/4 407/4/4
f 411/4/4 410/4/4 409/4/4
f 412/4/4 410/4/4 411/4/4
f 415/3/4 414/3/4 413/3/4
f 416/3/4 414/3/4 415/3/4
f 419/3/4 418/3/4 417/3/4
f 420/3/4 418/3/4 419/3/4
f 423/3/4 422/3/4 421/3/4
f 424/3/4 422/3/4 423/3/4
f 427/3/4 426/3/4 425/3/4
f 428/3/4 426/3/4 427/3/4
f 431/3/4 430/3/4 429/3/4
f 432/3/4 430/3/4 431/3/4
f 435/3/4 434/3/4 433/3/4
f 436/3/4 434/3/4 435/3/4
f 439/3/4 438/3/4 437/3/4
f 440/3/4 438/3/4 439/3/4
f 443/5/4 442/5/4 441/5/4
f 444/5/4 442/5/4 443/5/4
f 447/5/4 446/5/4 445/5/4
f 448/5/4 446/5/4 447/5/4
f 451/5/4 450/5/4 449/5/4
f 452/5/4 450/5/4 451/5/4
f 455/5/4 454/5/4 453/5/4
f 456/5/4 454/5/4 455/5/4
f 461/1/4 458/1/4 457/1/4
f 462/1/4 458/1/4 461/1/4
f 463/5/4 460/5/4 459/5/4
f 464/5/4 460/5/4 463/5/4
f 469/5/4 466/5/4 465/5/4
f 470/5/4 466/5/4 469/5/4
f 471/5/4 468/5/4 467/5/4
f 472/5/4 468/5/4 471/5/4
f 475/5/4 474/5/4 473/5/4
f 476/5/4 474/5/4 475/5/4
f 479/2/4 478/2/4 477/2/4
f 480/2/4 478/2/4 479/2/4
f 481/2/5 482/2/5 484/2/5
f 483/2/5 484/2/5 485/2/5
f 484/2/5 482/2/5 486/2/5
f 485/2/5 484/2/5 486/2/5
f 487/5/5 488/5/5 492/5/5
f 492/5/5 488/5/5 493/5/5
f 491/5/5 492/5/5 495/5/5
f 493/5/5 494/5/5 495/5/5
f 492/5/5 493/5/5 495/5/5
f 495/5/5 494/5/5 496/5/5
f 496/5/5 494/5/5 497/5/5
f 497/5/5 494/5/5 498/5/5
f 496/5/5 497/5/5 499/5/5
f 499/5/5 497/5/5 500/5/5
f 489/5/5 490/5/5 502/5/5
f 501/5/5 502/5/5 503/5/5
f 502/5/5 490/5/5 504/5/5
f 503/5/5 502/5/5 504/5/5
f 505/5/5 506/5/5 509/5/5
f 509/5/5 506/5/5 510/5/5
f 511/5/5 512/5/5 515/5/5
f 515/5/5 512/5/5 516/5/5
f 513/5/5 514/5/5 517/5/5
f 517/5/5 514/5/5 518/5/5
f 507/5/5 508/5/5 520/5/5
f 519/5/5 520/5/5 521/5/5
f 520/5/5 508/5/5 522/5/5
f 521/5/5 520/5/5 522/5/5
f 527/2/6 524/2/6 523/2/6
f 528/2/6 524/2/6 527/2/6
f 530/2/6 527/2/6 523/2/6
f 531/2/6 530/2/6 529/2/6
f 532/2/6 530/2/6 531/2/6
f 533/2/6 530/2/6 532/2/6
f 534/2/6 530/2/6 533/2/6
f 535/2/6 530/2/6 534/2/6
f 536/2/6 530/2/6 535/2/6
f 537/2/6 530/2/6 536/2/6
f 538/2/6 530/2/6 537/2/6
f 539/2/6 530/2/6 538/2/6
f 540/2/6 530/2/6 539/2/6
f 541/2/6 530/2/6 540/2/6
f 542/2/6 530/2/6 541/2/6
f 543/2/6 530/2/6 542/2/6
f 544/2/6 527/2/6 530/2/6
f 544/2/6 530/2/6 543/2/6
f 546/2/6 533/2/6 532/2/6
f 547/2/6 533/2/6 546/2/6
f 548/2/6 535/2/6 534/2/6
f 549/2/6 535/2/6 548/2/6
f 550/2/6 537/2/6 536/2/6
f 551/2/6 537/2/6 550/2/6
f 552/2/6 539/2/6 538/2/6
f 553/2/6 539/2/6 552/2/6
f 554/2/6 541/2/6 540/2/6
f 555/2/6 541/2/6 554/2/6
f 556/2/6 543/2/6 542/2/6
f 557/2/6 543/2/6 556/2/6
f 558/2/6 524/2/6 528/2/6
f 559/2/6 557/2/6 556/2/6
f 559/2/6 558/2/6 557/2/6
f 559/2/6 555/2/6 554/2/6
f 559/2/6 556/2/6 555/2/6
f 559/2/6 549/2/6 548/2/6
f 559/2/6 554/2/6 553/2/6
f 559/2/6 553/2/6 552/2/6
f 559/2/6 552/2/6 551/2/6
f 559/2/6 547/2/6 546/2/6
f 559/2/6 550/2/6 549/2/6
f 559/2/6 551/2/6 550/2/6
f 559/2/6 548/2/6 547/2/6
f 559/2/6 546/2/6 545/2/6
f 560/2/6 524/2/6 558/2/6
f 560/2/6 558/2/6 559/2/6
f 562/2/6 526/2/6 525/2/6
f 563/2/6 562/2/6 561/2/6
f 564/2/6 526/2/6 562/2/6
f 564/2/6 562/2/6 563/2/6
f 567/3/6 566/3/6 565/3/6
f 568/3/6 566/3/6 567/3/6
f 582/3/6 567/3/6 565/3/6
f 583/3/6 570/3/6 569/3/6
f 584/3/6 570/3/6 583/3/6
f 585/3/6 572/3/6 571/3/6
f 586/3/6 572/3/6 585/3/6
f 587/3/6 574/3/6 573/3/6
f 588/3/6 574/3/6 587/3/6
f 589/3/6 576/3/6 575/3/6
f 590/3/6 576/3/6 589/3/6
f 591/3/6 578/3/6 577/3/6
f 592/3/6 578/3/6 591/3/6
f 593/3/6 580/3/6 579/3/6
f 594/3/6 580/3/6 593/3/6
f 595/3/6 582/3/6 581/3/6
f 596/3/6 567/3/6 582/3/6
f 596/3/6 582/3/6 595/3/6
f 598/3/6 570/3/6 584/3/6
f 599/3/6 585/3/6 571/3/6
f 600/3/6 572/3/6 586/3/6
f 601/3/6 587/3/6 573/3/6
f 602/3/6 574/3/6 588/3/6
f 603/3/6 589/3/6 575/3/6
f 604/3/6 576/3/6 590/3/6
f 605/3/6 591/3/6 577/3/6
f 606/3/6 578/3/6 592/3/6
f 607/3/6 593/3/6 579/3/6
f 608/3/6 580/3/6 594/3/6
f 609/3/6 595/3/6 581/3/6
f 610/3/6 566/3/6 568/3/6
f 611/3/6 598/3/6 597/3/6
f 612/3/6 570/3/6 598/3/6
f 612/3/6 598/3/6 611/3/6
f 613/3/6 599/3/6 571/3/6
f 613/3/6 600/3/6 599/3/6
f 614/3/6 572/3/6 600/3/6
f 614/3/6 600/3/6 613/3/6
f 615/3/6 602/3/6 601/3/6
f 615/3/6 601/3/6 573/3/6
f 616/3/6 574/3/6 602/3/6
f 616/3/6 602/3/6 615/3/6
f 617/3/6 603/3/6 575/3/6
f 617/3/6 604/3/6 603/3/6
f 618/3/6 576/3/6 604/3/6
f 618/3/6 604/3/6 617/3/6
f 619/3/6 605/3/6 577/3/6
f 619/3/6 606/3/6 605/3/6
f 620/3/6 578/3/6 606/3/6
f 620/3/6 606/3/6 619/3/6
f 621/3/6 607/3/6 579/3/6
f 621/3/6 608/3/6 607/3/6
f 622/3/6 580/3/6 608/3/6
f 622/3/6 608/3/6 621/3/6
f 623/3/6 609/3/6 581/3/6
f 623/3/6 610/3/6 609/3/6
f 624/3/6 566/3/6 610/3/6
f 624/3/6 610/3/6 623/3/6
f 630/5/6 626/5/6 625/5/6
f 631/5/6 630/5/6 629/5/6
f 632/5/6 626/5/6 630/5/6
f 632/5/6 630/5/6 631/5/6
f 634/5/6 628/5/6 627/5/6
f 635/5/6 634/5/6 633/5/6
f 636/5/6 628/5/6 634/5/6
f 636/5/6 634/5/6 635/5/6
f 652/4/6 638/4/6 637/4/6
f 653/4/6 640/4/6 639/4/6
f 654/4/6 640/4/6 653/4/6
f 655/4/6 642/4/6 641/4/6
f 656/4/6 642/4/6 655/4/6
f 657/4/6 644/4/6 643/4/6
f 658/4/6 644/4/6 657/4/6
f 659/4/6 646/4/6 645/4/6
f 660/4/6 646/4/6 659/4/6
f 661/4/6 648/4/6 647/4/6
f 662/4/6 648/4/6 661/4/6
f 663/4/6 650/4/6 649/4/6
f 664/4/6 650/4/6 663/4/6
f 665/4/6 652/4/6 651/4/6
f 666/4/6 638/4/6 652/4/6
f 666/4/6 652/4/6 665/4/6
f 672/5/6 668/5/6 667/5/6
f 673/5/6 672/5/6 671/5/6
f 674/5/6 668/5/6 672/5/6
f 674/5/6 672/5/6 673/5/6
f 676/5/6 670/5/6 669/5/6
f 677/5/6 676/5/6 675/5/6
f 678/5/6 670/5/6 676/5/6
f 678/5/6 676/5/6 677/5/6
f 684/5/6 680/5/6 679/5/6
f 685/5/6 684/5/6 683/5/6
f 686/5/6 680/5/6 684/5/6
f 686/5/6 684/5/6 685/5/6
f 688/5/6 682/5/6 681/5/6
f 689/5/6 688/5/6 687/5/6
f 690/5/6 682/5/6 688/5/6
f 690/5/6 688/5/6 689/5/6
f 696/5/6 692/5/6 691/5/6
f 697/5/6 696/5/6 695/5/6
f 698/5/6 692/5/6 696/5/6
f 698/5/6 696/5/6 697/5/6
f 700/5/6 694/5/6 693/5/6
f 701/5/6 700/5/6 699/5/6
f 702/5/6 694/5/6 700/5/6
f 702/5/6 700/5/6 701/5/6
f 708/5/6 704/5/6 703/5/6
f 709/5/6 708/5/6 707/5/6
f 710/5/6 704/5/6 708/5/6
f 710/5/6 708/5/6 709/5/6
f 712/5/6 706/5/6 705/5/6
f 713/5/6 712/5/6 711/5/6
f 714/5/6 706/5/6 712/5/6
f 714/5/6 712/5/6 713/5/6
f 718/5/6 716/5/6 715/5/6
f 719/5/6 718/5/6 717/5/6
f 720/5/6 716/5/6 718/5/6
f 720/5/6 718/5/6 719/5/6
