# MagicaVoxel @ Ephtracy

# group
o 

# material
mtllib Map-13.mtl
usemtl palette

# normals
vn 1 0 0
vn -1 0 0
vn 0 0 1
vn 0 0 -1
vn 0 -1 0
vn 0 1 0

# texcoords
vt 0.00195312 0.5
vt 0.0605469 0.5
vt 0.0957031 0.5
vt 0.158203 0.5
vt 0.162109 0.5
vt 0.166016 0.5
vt 0.201172 0.5
vt 0.205078 0.5
vt 0.208984 0.5

# verts
v -12 0 -3.4
v -12 0 -10
v -12 0 -12.5
v -12 0 -24
v -12 0.1 -3.4
v -12 0.1 -3.6
v -12 0.2 -3.6
v -12 0.2 -9.8
v -12 0.2 -10
v -12 0.2 -12.5
v -12 0.2 -12.7
v -12 0.2 -24
v -12 0.3 -9.8
v -12 0.3 -10
v -12 0.3 -12.5
v -12 0.3 -12.7
v -12.2 0.2 -4.4
v -12.2 0.2 -6
v -12.2 0.2 -6.3
v -12.2 0.2 -7.9
v -12.2 0.2 -8.2
v -12.2 0.2 -9.3
v -12.2 0.2 -13.2
v -12.2 0.2 -14.3
v -12.2 0.2 -14.6
v -12.2 0.2 -16.2
v -12.2 0.2 -16.5
v -12.2 0.2 -18.1
v -12.2 0.2 -18.4
v -12.2 0.2 -20
v -12.2 0.2 -20.3
v -12.2 0.2 -21.9
v -12.2 0.2 -22.2
v -12.2 0.2 -23.8
v -12.2 0.3 -4.4
v -12.2 0.3 -6
v -12.2 0.3 -6.3
v -12.2 0.3 -7.9
v -12.2 0.3 -8.2
v -12.2 0.3 -9.3
v -12.2 0.3 -13.2
v -12.2 0.3 -14.3
v -12.2 0.3 -14.6
v -12.2 0.3 -16.2
v -12.2 0.3 -16.5
v -12.2 0.3 -18.1
v -12.2 0.3 -18.4
v -12.2 0.3 -20
v -12.2 0.3 -20.3
v -12.2 0.3 -21.9
v -12.2 0.3 -22.2
v -12.2 0.3 -23.8
v -12.3 0.3 -4.5
v -12.3 0.3 -5.9
v -12.3 0.3 -6.4
v -12.3 0.3 -7.8
v -12.3 0.3 -8.3
v -12.3 0.3 -9.2
v -12.3 0.3 -13.3
v -12.3 0.3 -14.2
v -12.3 0.3 -14.7
v -12.3 0.3 -16.1
v -12.3 0.3 -16.6
v -12.3 0.3 -18
v -12.3 0.3 -18.5
v -12.3 0.3 -19.9
v -12.3 0.3 -20.4
v -12.3 0.3 -21.8
v -12.3 0.3 -22.3
v -12.3 0.3 -23.7
v -12.3 1.2 -4.5
v -12.3 1.2 -5.9
v -12.3 1.2 -6.4
v -12.3 1.2 -7.8
v -12.3 1.2 -8.3
v -12.3 1.2 -9.2
v -12.3 1.2 -13.3
v -12.3 1.2 -14.2
v -12.3 1.2 -14.7
v -12.3 1.2 -16.1
v -12.3 1.2 -16.6
v -12.3 1.2 -18
v -12.3 1.2 -18.5
v -12.3 1.2 -19.9
v -12.3 1.2 -20.4
v -12.3 1.2 -21.8
v -12.3 1.2 -22.3
v -12.3 1.2 -23.7
v -13.1 2.7 -4
v -13.1 2.7 -9.7
v -13.1 2.7 -12.8
v -13.1 2.7 -24
v -13.1 2.9 -4
v -13.1 2.9 -9.7
v -13.1 2.9 -12.8
v -13.1 2.9 -24
v -13.2 0.2 -4.1
v -13.2 0.2 -9.6
v -13.2 0.2 -12.9
v -13.2 0.2 -24
v -13.2 0.5 -4.1
v -13.2 0.5 -9.6
v -13.2 0.5 -12.9
v -13.2 0.5 -24
v -13.2 2.9 -4.1
v -13.2 2.9 -9.6
v -13.2 2.9 -12.9
v -13.2 2.9 -24
v -13.2 3 -4.1
v -13.2 3 -9.6
v -13.2 3 -12.9
v -13.2 3 -24
v -13.3 0.5 -4.2
v -13.3 0.5 -9.5
v -13.3 0.5 -13
v -13.3 0.5 -24
v -13.3 2.8 -4.2
v -13.3 2.8 -9.5
v -13.3 2.8 -13
v -13.3 2.8 -24
v -13.3 3 -4.2
v -13.3 3 -9.5
v -13.3 3 -13
v -13.3 3 -24
v -13.3 3.1 -4.2
v -13.3 3.1 -9.5
v -13.3 3.1 -13
v -13.3 3.1 -24
v -13.4 3.1 -4.3
v -13.4 3.1 -9.4
v -13.4 3.1 -13.1
v -13.4 3.1 -24
v -13.4 3.2 -4.3
v -13.4 3.2 -9.4
v -13.4 3.2 -13.1
v -13.4 3.2 -24
v -13.5 3.2 -4.4
v -13.5 3.2 -9.3
v -13.5 3.2 -13.2
v -13.5 3.2 -24
v -13.5 3.3 -4.4
v -13.5 3.3 -9.3
v -13.5 3.3 -13.2
v -13.5 3.3 -24
v -14.5 2.7 -5.3
v -14.5 2.7 -5.4
v -14.5 2.7 -5.5
v -14.5 2.7 -9.6
v -14.5 2.7 -12.9
v -14.5 2.7 -24
v -14.5 2.8 -5.3
v -14.5 2.8 -5.4
v -14.5 2.8 -5.5
v -14.5 2.8 -9.6
v -14.5 2.8 -12.9
v -14.5 2.8 -24
v -12.9 0.3 -4.5
v -12.9 0.3 -5.9
v -12.9 0.3 -6.4
v -12.9 0.3 -7.8
v -12.9 0.3 -8.3
v -12.9 0.3 -9.2
v -12.9 0.3 -13.3
v -12.9 0.3 -14.2
v -12.9 0.3 -14.7
v -12.9 0.3 -16.1
v -12.9 0.3 -16.6
v -12.9 0.3 -18
v -12.9 0.3 -18.5
v -12.9 0.3 -19.9
v -12.9 0.3 -20.4
v -12.9 0.3 -21.8
v -12.9 0.3 -22.3
v -12.9 0.3 -23.7
v -12.9 1.2 -4.5
v -12.9 1.2 -5.9
v -12.9 1.2 -6.4
v -12.9 1.2 -7.8
v -12.9 1.2 -8.3
v -12.9 1.2 -9.2
v -12.9 1.2 -13.3
v -12.9 1.2 -14.2
v -12.9 1.2 -14.7
v -12.9 1.2 -16.1
v -12.9 1.2 -16.6
v -12.9 1.2 -18
v -12.9 1.2 -18.5
v -12.9 1.2 -19.9
v -12.9 1.2 -20.4
v -12.9 1.2 -21.8
v -12.9 1.2 -22.3
v -12.9 1.2 -23.7
v -13 0.2 -4.4
v -13 0.2 -6
v -13 0.2 -6.3
v -13 0.2 -7.9
v -13 0.2 -8.2
v -13 0.2 -9.3
v -13 0.2 -13.2
v -13 0.2 -14.3
v -13 0.2 -14.6
v -13 0.2 -16.2
v -13 0.2 -16.5
v -13 0.2 -18.1
v -13 0.2 -18.4
v -13 0.2 -20
v -13 0.2 -20.3
v -13 0.2 -21.9
v -13 0.2 -22.2
v -13 0.2 -23.8
v -13 0.3 -4.4
v -13 0.3 -6
v -13 0.3 -6.3
v -13 0.3 -7.9
v -13 0.3 -8.2
v -13 0.3 -9.3
v -13 0.3 -13.2
v -13 0.3 -14.3
v -13 0.3 -14.6
v -13 0.3 -16.2
v -13 0.3 -16.5
v -13 0.3 -18.1
v -13 0.3 -18.4
v -13 0.3 -20
v -13 0.3 -20.3
v -13 0.3 -21.9
v -13 0.3 -22.2
v -13 0.3 -23.8
v -13.2 2.7 -4.1
v -13.2 2.7 -9.6
v -13.2 2.7 -12.9
v -13.2 2.7 -24
v -13.2 2.8 -4.1
v -13.2 2.8 -9.6
v -13.2 2.8 -12.9
v -13.2 2.8 -24
v -14.2 3.2 -5.1
v -14.2 3.2 -9.3
v -14.2 3.2 -13.2
v -14.2 3.2 -24
v -14.2 3.3 -5.1
v -14.2 3.3 -9.3
v -14.2 3.3 -13.2
v -14.2 3.3 -24
v -14.3 3.1 -5.2
v -14.3 3.1 -9.4
v -14.3 3.1 -13.1
v -14.3 3.1 -24
v -14.3 3.2 -5.2
v -14.3 3.2 -9.4
v -14.3 3.2 -13.1
v -14.3 3.2 -24
v -14.4 0.5 -5.3
v -14.4 0.5 -9.5
v -14.4 0.5 -13
v -14.4 0.5 -24
v -14.4 2.7 -5.4
v -14.4 2.7 -5.5
v -14.4 2.8 -5.3
v -14.4 2.8 -5.4
v -14.4 2.8 -5.5
v -14.4 2.8 -9.5
v -14.4 2.8 -13
v -14.4 2.8 -24
v -14.4 3 -5.3
v -14.4 3 -9.5
v -14.4 3 -13
v -14.4 3 -24
v -14.4 3.1 -5.3
v -14.4 3.1 -9.5
v -14.4 3.1 -13
v -14.4 3.1 -24
v -14.5 0.2 -5.4
v -14.5 0.2 -9.6
v -14.5 0.2 -12.9
v -14.5 0.2 -24
v -14.5 0.5 -5.4
v -14.5 0.5 -9.6
v -14.5 0.5 -12.9
v -14.5 0.5 -24
v -14.5 2.9 -5.4
v -14.5 2.9 -9.6
v -14.5 2.9 -12.9
v -14.5 2.9 -24
v -14.5 3 -5.4
v -14.5 3 -9.6
v -14.5 3 -12.9
v -14.5 3 -24
v -14.6 2.7 -5.3
v -14.6 2.7 -5.4
v -14.6 2.7 -5.5
v -14.6 2.7 -9.7
v -14.6 2.7 -12.8
v -14.6 2.7 -24
v -14.6 2.8 -5.3
v -14.6 2.8 -5.4
v -14.6 2.9 -5.5
v -14.6 2.9 -9.7
v -14.6 2.9 -12.8
v -14.6 2.9 -24
v -24 0 -3.4
v -24 0 -24
v -24 0.1 -3.4
v -24 0.1 -3.6
v -24 0.1 -10
v -24 0.1 -12.5
v -24 0.2 -3.6
v -24 0.2 -4.1
v -24 0.2 -5.4
v -24 0.2 -9.8
v -24 0.2 -10
v -24 0.2 -12.5
v -24 0.2 -12.7
v -24 0.2 -24
v -24 0.3 -9.8
v -24 0.3 -10
v -24 0.3 -12.5
v -24 0.3 -12.7
v -24 0.5 -4.1
v -24 0.5 -4.2
v -24 0.5 -5.3
v -24 0.5 -5.4
v -24 2.7 -4
v -24 2.7 -4.1
v -24 2.7 -5.4
v -24 2.7 -5.5
v -24 2.8 -4.1
v -24 2.8 -4.2
v -24 2.8 -5.3
v -24 2.8 -5.4
v -24 2.9 -4
v -24 2.9 -4.1
v -24 2.9 -5.4
v -24 2.9 -5.5
v -24 3 -4.1
v -24 3 -4.2
v -24 3 -5.3
v -24 3 -5.4
v -24 3.1 -4.2
v -24 3.1 -4.3
v -24 3.1 -5.2
v -24 3.1 -5.3
v -24 3.2 -4.3
v -24 3.2 -4.4
v -24 3.2 -5.1
v -24 3.2 -5.2
v -24 3.3 -4.4
v -24 3.3 -5.1
v -12 0 -3.4
v -12 0.1 -3.4
v -24 0 -3.4
v -24 0.1 -3.4
v -12 0.1 -3.6
v -12 0.2 -3.6
v -24 0.1 -3.6
v -24 0.2 -3.6
v -13.1 2.7 -4
v -13.1 2.9 -4
v -24 2.7 -4
v -24 2.9 -4
v -13.2 0.2 -4.1
v -13.2 0.5 -4.1
v -13.2 2.9 -4.1
v -13.2 3 -4.1
v -24 0.2 -4.1
v -24 0.5 -4.1
v -24 2.9 -4.1
v -24 3 -4.1
v -13.3 0.5 -4.2
v -13.3 2.8 -4.2
v -13.3 3 -4.2
v -13.3 3.1 -4.2
v -24 0.5 -4.2
v -24 2.8 -4.2
v -24 3 -4.2
v -24 3.1 -4.2
v -13.4 3.1 -4.3
v -13.4 3.2 -4.3
v -24 3.1 -4.3
v -24 3.2 -4.3
v -12.2 0.2 -4.4
v -12.2 0.3 -4.4
v -13 0.2 -4.4
v -13 0.3 -4.4
v -13.5 3.2 -4.4
v -13.5 3.3 -4.4
v -24 3.2 -4.4
v -24 3.3 -4.4
v -12.3 0.3 -4.5
v -12.3 1.2 -4.5
v -12.9 0.3 -4.5
v -12.9 1.2 -4.5
v -14.4 2.7 -5.4
v -14.4 2.8 -5.4
v -14.5 2.7 -5.4
v -14.5 2.8 -5.4
v -14.6 2.7 -5.4
v -14.6 2.8 -5.4
v -24 2.7 -5.4
v -24 2.8 -5.4
v -12.2 0.2 -6.3
v -12.2 0.3 -6.3
v -13 0.2 -6.3
v -13 0.3 -6.3
v -12.3 0.3 -6.4
v -12.3 1.2 -6.4
v -12.9 0.3 -6.4
v -12.9 1.2 -6.4
v -12.2 0.2 -8.2
v -12.2 0.3 -8.2
v -13 0.2 -8.2
v -13 0.3 -8.2
v -12.3 0.3 -8.3
v -12.3 1.2 -8.3
v -12.9 0.3 -8.3
v -12.9 1.2 -8.3
v -13.2 2.7 -9.6
v -13.2 2.8 -9.6
v -14.5 2.7 -9.6
v -14.5 2.8 -9.6
v -12 0.2 -9.8
v -12 0.3 -9.8
v -24 0.2 -9.8
v -24 0.3 -9.8
v -12 0.2 -12.5
v -12 0.3 -12.5
v -15 0.2 -12.5
v -18.8 0.2 -12.5
v -24 0.2 -12.5
v -24 0.3 -12.5
v -13.1 2.7 -12.8
v -13.1 2.9 -12.8
v -14.6 2.7 -12.8
v -14.6 2.9 -12.8
v -13.2 0.2 -12.9
v -13.2 0.5 -12.9
v -13.2 2.9 -12.9
v -13.2 3 -12.9
v -14.5 0.2 -12.9
v -14.5 0.5 -12.9
v -14.5 2.9 -12.9
v -14.5 3 -12.9
v -13.3 0.5 -13
v -13.3 2.8 -13
v -13.3 3 -13
v -13.3 3.1 -13
v -14.4 0.5 -13
v -14.4 2.8 -13
v -14.4 3 -13
v -14.4 3.1 -13
v -13.4 3.1 -13.1
v -13.4 3.2 -13.1
v -14.3 3.1 -13.1
v -14.3 3.2 -13.1
v -12.2 0.2 -13.2
v -12.2 0.3 -13.2
v -13 0.2 -13.2
v -13 0.3 -13.2
v -13.5 3.2 -13.2
v -13.5 3.3 -13.2
v -14.2 3.2 -13.2
v -14.2 3.3 -13.2
v -12.3 0.3 -13.3
v -12.3 1.2 -13.3
v -12.9 0.3 -13.3
v -12.9 1.2 -13.3
v -12.2 0.2 -14.6
v -12.2 0.3 -14.6
v -13 0.2 -14.6
v -13 0.3 -14.6
v -12.3 0.3 -14.7
v -12.3 1.2 -14.7
v -12.9 0.3 -14.7
v -12.9 1.2 -14.7
v -12.2 0.2 -16.5
v -12.2 0.3 -16.5
v -13 0.2 -16.5
v -13 0.3 -16.5
v -12.3 0.3 -16.6
v -12.3 1.2 -16.6
v -12.9 0.3 -16.6
v -12.9 1.2 -16.6
v -12.2 0.2 -18.4
v -12.2 0.3 -18.4
v -13 0.2 -18.4
v -13 0.3 -18.4
v -12.3 0.3 -18.5
v -12.3 1.2 -18.5
v -12.9 0.3 -18.5
v -12.9 1.2 -18.5
v -12.2 0.2 -20.3
v -12.2 0.3 -20.3
v -13 0.2 -20.3
v -13 0.3 -20.3
v -12.3 0.3 -20.4
v -12.3 1.2 -20.4
v -12.9 0.3 -20.4
v -12.9 1.2 -20.4
v -12.2 0.2 -22.2
v -12.2 0.3 -22.2
v -13 0.2 -22.2
v -13 0.3 -22.2
v -12.3 0.3 -22.3
v -12.3 1.2 -22.3
v -12.9 0.3 -22.3
v -12.9 1.2 -22.3
v -13.2 2.7 -4.1
v -13.2 2.8 -4.1
v -24 2.7 -4.1
v -24 2.8 -4.1
v -14.2 3.2 -5.1
v -14.2 3.3 -5.1
v -24 3.2 -5.1
v -24 3.3 -5.1
v -14.3 3.1 -5.2
v -14.3 3.2 -5.2
v -24 3.1 -5.2
v -24 3.2 -5.2
v -14.4 0.5 -5.3
v -14.4 2.8 -5.3
v -14.4 3 -5.3
v -14.4 3.1 -5.3
v -14.5 2.7 -5.3
v -14.5 2.8 -5.3
v -14.6 2.7 -5.3
v -14.6 2.8 -5.3
v -24 0.5 -5.3
v -24 2.8 -5.3
v -24 3 -5.3
v -24 3.1 -5.3
v -14.5 0.2 -5.4
v -14.5 0.5 -5.4
v -14.5 2.9 -5.4
v -14.5 3 -5.4
v -17.1 0.2 -5.4
v -17.2 0.2 -5.4
v -24 0.2 -5.4
v -24 0.5 -5.4
v -24 2.9 -5.4
v -24 3 -5.4
v -14.4 2.7 -5.5
v -14.4 2.8 -5.5
v -14.5 2.7 -5.5
v -14.5 2.8 -5.5
v -14.6 2.7 -5.5
v -14.6 2.9 -5.5
v -24 2.7 -5.5
v -24 2.9 -5.5
v -12.3 0.3 -5.9
v -12.3 1.2 -5.9
v -12.9 0.3 -5.9
v -12.9 1.2 -5.9
v -12.2 0.2 -6
v -12.2 0.3 -6
v -13 0.2 -6
v -13 0.3 -6
v -12.3 0.3 -7.8
v -12.3 1.2 -7.8
v -12.9 0.3 -7.8
v -12.9 1.2 -7.8
v -12.2 0.2 -7.9
v -12.2 0.3 -7.9
v -13 0.2 -7.9
v -13 0.3 -7.9
v -12.3 0.3 -9.2
v -12.3 1.2 -9.2
v -12.9 0.3 -9.2
v -12.9 1.2 -9.2
v -12.2 0.2 -9.3
v -12.2 0.3 -9.3
v -13 0.2 -9.3
v -13 0.3 -9.3
v -13.5 3.2 -9.3
v -13.5 3.3 -9.3
v -14.2 3.2 -9.3
v -14.2 3.3 -9.3
v -13.4 3.1 -9.4
v -13.4 3.2 -9.4
v -14.3 3.1 -9.4
v -14.3 3.2 -9.4
v -13.3 0.5 -9.5
v -13.3 2.8 -9.5
v -13.3 3 -9.5
v -13.3 3.1 -9.5
v -14.4 0.5 -9.5
v -14.4 2.8 -9.5
v -14.4 3 -9.5
v -14.4 3.1 -9.5
v -13.2 0.2 -9.6
v -13.2 0.5 -9.6
v -13.2 2.9 -9.6
v -13.2 3 -9.6
v -14.5 0.2 -9.6
v -14.5 0.5 -9.6
v -14.5 2.9 -9.6
v -14.5 3 -9.6
v -13.1 2.7 -9.7
v -13.1 2.9 -9.7
v -14.6 2.7 -9.7
v -14.6 2.9 -9.7
v -12 0.2 -10
v -12 0.3 -10
v -20.7 0.2 -10
v -20.7 0.3 -10
v -20.8 0.2 -10
v -20.8 0.3 -10
v -24 0.2 -10
v -24 0.3 -10
v -12 0.2 -12.7
v -12 0.3 -12.7
v -24 0.2 -12.7
v -24 0.3 -12.7
v -13.2 2.7 -12.9
v -13.2 2.8 -12.9
v -14.5 2.7 -12.9
v -14.5 2.8 -12.9
v -12.3 0.3 -14.2
v -12.3 1.2 -14.2
v -12.9 0.3 -14.2
v -12.9 1.2 -14.2
v -12.2 0.2 -14.3
v -12.2 0.3 -14.3
v -13 0.2 -14.3
v -13 0.3 -14.3
v -12.3 0.3 -16.1
v -12.3 1.2 -16.1
v -12.9 0.3 -16.1
v -12.9 1.2 -16.1
v -12.2 0.2 -16.2
v -12.2 0.3 -16.2
v -13 0.2 -16.2
v -13 0.3 -16.2
v -12.3 0.3 -18
v -12.3 1.2 -18
v -12.9 0.3 -18
v -12.9 1.2 -18
v -12.2 0.2 -18.1
v -12.2 0.3 -18.1
v -13 0.2 -18.1
v -13 0.3 -18.1
v -12.3 0.3 -19.9
v -12.3 1.2 -19.9
v -12.9 0.3 -19.9
v -12.9 1.2 -19.9
v -12.2 0.2 -20
v -12.2 0.3 -20
v -13 0.2 -20
v -13 0.3 -20
v -12.3 0.3 -21.8
v -12.3 1.2 -21.8
v -12.9 0.3 -21.8
v -12.9 1.2 -21.8
v -12.2 0.2 -21.9
v -12.2 0.3 -21.9
v -13 0.2 -21.9
v -13 0.3 -21.9
v -12.3 0.3 -23.7
v -12.3 1.2 -23.7
v -12.9 0.3 -23.7
v -12.9 1.2 -23.7
v -12.2 0.2 -23.8
v -12.2 0.3 -23.8
v -13 0.2 -23.8
v -13 0.3 -23.8
v -12 0 -24
v -12 0.2 -24
v -13.1 2.7 -24
v -13.1 2.9 -24
v -13.2 0.1 -24
v -13.2 0.2 -24
v -13.2 0.5 -24
v -13.2 2.7 -24
v -13.2 2.8 -24
v -13.2 2.9 -24
v -13.2 3 -24
v -13.3 0.1 -24
v -13.3 0.2 -24
v -13.3 0.5 -24
v -13.3 2.8 -24
v -13.3 3 -24
v -13.3 3.1 -24
v -13.4 3.1 -24
v -13.4 3.2 -24
v -13.5 3.2 -24
v -13.5 3.3 -24
v -14.2 3.2 -24
v -14.2 3.3 -24
v -14.3 3.1 -24
v -14.3 3.2 -24
v -14.4 0.5 -24
v -14.4 2.8 -24
v -14.4 3 -24
v -14.4 3.1 -24
v -14.5 0.2 -24
v -14.5 0.5 -24
v -14.5 2.7 -24
v -14.5 2.8 -24
v -14.5 2.9 -24
v -14.5 3 -24
v -14.6 2.7 -24
v -14.6 2.9 -24
v -15.9 0.1 -24
v -15.9 0.2 -24
v -16 0.1 -24
v -16 0.2 -24
v -24 0 -24
v -24 0.2 -24
v -12 0 -3.4
v -24 0 -3.4
v -12 0 -10
v -13.3 0 -10
v -12 0 -12.5
v -13.3 0 -12.5
v -12 0 -24
v -24 0 -24
v -13.1 2.7 -4
v -24 2.7 -4
v -13.2 2.7 -4.1
v -24 2.7 -4.1
v -14.5 2.7 -5.3
v -14.6 2.7 -5.3
v -14.4 2.7 -5.4
v -14.5 2.7 -5.4
v -14.6 2.7 -5.4
v -24 2.7 -5.4
v -14.4 2.7 -5.5
v -14.5 2.7 -5.5
v -14.6 2.7 -5.5
v -24 2.7 -5.5
v -13.2 2.7 -9.6
v -14.5 2.7 -9.6
v -13.1 2.7 -9.7
v -14.6 2.7 -9.7
v -13.1 2.7 -12.8
v -14.6 2.7 -12.8
v -13.2 2.7 -12.9
v -14.5 2.7 -12.9
v -13.1 2.7 -24
v -13.2 2.7 -24
v -14.5 2.7 -24
v -14.6 2.7 -24
v -13.2 2.8 -4.1
v -24 2.8 -4.1
v -13.3 2.8 -4.2
v -24 2.8 -4.2
v -14.4 2.8 -5.3
v -14.5 2.8 -5.3
v -14.6 2.8 -5.3
v -24 2.8 -5.3
v -14.4 2.8 -5.4
v -14.5 2.8 -5.4
v -14.6 2.8 -5.4
v -24 2.8 -5.4
v -14.4 2.8 -5.5
v -14.5 2.8 -5.5
v -13.3 2.8 -9.5
v -14.4 2.8 -9.5
v -13.2 2.8 -9.6
v -14.5 2.8 -9.6
v -13.2 2.8 -12.9
v -14.5 2.8 -12.9
v -13.3 2.8 -13
v -14.4 2.8 -13
v -13.2 2.8 -24
v -13.3 2.8 -24
v -14.4 2.8 -24
v -14.5 2.8 -24
v -12 0.1 -3.4
v -24 0.1 -3.4
v -12 0.1 -3.6
v -24 0.1 -3.6
v -12 0.2 -3.6
v -24 0.2 -3.6
v -13.2 0.2 -4.1
v -24 0.2 -4.1
v -12.2 0.2 -4.4
v -13 0.2 -4.4
v -14.5 0.2 -5.4
v -17.1 0.2 -5.4
v -17.2 0.2 -5.4
v -24 0.2 -5.4
v -17.1 0.2 -5.5
v -17.2 0.2 -5.5
v -23.3 0.2 -5.8
v -23.4 0.2 -5.8
v -16.8 0.2 -5.9
v -16.9 0.2 -5.9
v -17.7 0.2 -5.9
v -17.8 0.2 -5.9
v -20.7 0.2 -5.9
v -20.8 0.2 -5.9
v -22.2 0.2 -5.9
v -22.3 0.2 -5.9
v -23.3 0.2 -5.9
v -23.4 0.2 -5.9
v -12.2 0.2 -6
v -13 0.2 -6
v -16.8 0.2 -6
v -16.9 0.2 -6
v -17.7 0.2 -6
v -17.8 0.2 -6
v -20.7 0.2 -6
v -20.8 0.2 -6
v -22.2 0.2 -6
v -22.3 0.2 -6
v -23.5 0.2 -6
v -23.6 0.2 -6
v -23.5 0.2 -6.1
v -23.6 0.2 -6.1
v -19.8 0.2 -6.2
v -19.9 0.2 -6.2
v -12.2 0.2 -6.3
v -13 0.2 -6.3
v -19.3 0.2 -6.3
v -19.4 0.2 -6.3
v -19.8 0.2 -6.3
v -19.9 0.2 -6.3
v -16.2 0.2 -6.4
v -16.3 0.2 -6.4
v -18.3 0.2 -6.4
v -18.4 0.2 -6.4
v -19.3 0.2 -6.4
v -19.4 0.2 -6.4
v -16.2 0.2 -6.5
v -16.3 0.2 -6.5
v -18.3 0.2 -6.5
v -18.4 0.2 -6.5
v -19.6 0.2 -6.5
v -19.7 0.2 -6.5
v -19.6 0.2 -6.6
v -19.7 0.2 -6.6
v -21 0.2 -6.6
v -21.1 0.2 -6.6
v -15.5 0.2 -6.7
v -15.6 0.2 -6.7
v -16.4 0.2 -6.7
v -16.5 0.2 -6.7
v -16.7 0.2 -6.7
v -16.8 0.2 -6.7
v -17.6 0.2 -6.7
v -17.7 0.2 -6.7
v -21 0.2 -6.7
v -21.1 0.2 -6.7
v -15.5 0.2 -6.8
v -15.6 0.2 -6.8
v -16.3 0.2 -6.8
v -16.4 0.2 -6.8
v -16.5 0.2 -6.8
v -16.7 0.2 -6.8
v -16.8 0.2 -6.8
v -17.6 0.2 -6.8
v -17.7 0.2 -6.8
v -20.6 0.2 -6.8
v -20.7 0.2 -6.8
v -23 0.2 -6.8
v -23.1 0.2 -6.8
v -16.3 0.2 -6.9
v -16.4 0.2 -6.9
v -20.6 0.2 -6.9
v -20.7 0.2 -6.9
v -23 0.2 -6.9
v -23.1 0.2 -6.9
v -15.2 0.2 -7
v -15.3 0.2 -7
v -19.5 0.2 -7
v -19.6 0.2 -7
v -22.7 0.2 -7
v -22.8 0.2 -7
v -15.2 0.2 -7.1
v -15.3 0.2 -7.1
v -17 0.2 -7.1
v -17.1 0.2 -7.1
v -19.5 0.2 -7.1
v -19.6 0.2 -7.1
v -19.7 0.2 -7.1
v -19.8 0.2 -7.1
v -21.6 0.2 -7.1
v -21.7 0.2 -7.1
v -22.7 0.2 -7.1
v -22.8 0.2 -7.1
v -17 0.2 -7.2
v -17.1 0.2 -7.2
v -19.7 0.2 -7.2
v -19.8 0.2 -7.2
v -21.6 0.2 -7.2
v -21.7 0.2 -7.2
v -23 0.2 -7.2
v -23.1 0.2 -7.2
v -23.5 0.2 -7.2
v -23.6 0.2 -7.2
v -16.8 0.2 -7.3
v -16.9 0.2 -7.3
v -23 0.2 -7.3
v -23.1 0.2 -7.3
v -23.5 0.2 -7.3
v -23.6 0.2 -7.3
v -15.4 0.2 -7.4
v -15.5 0.2 -7.4
v -16.8 0.2 -7.4
v -16.9 0.2 -7.4
v -15.4 0.2 -7.5
v -15.5 0.2 -7.5
v -18.2 0.2 -7.5
v -18.3 0.2 -7.5
v -15.2 0.2 -7.6
v -15.3 0.2 -7.6
v -15.9 0.2 -7.6
v -16 0.2 -7.6
v -16.3 0.2 -7.6
v -16.4 0.2 -7.6
v -17.1 0.2 -7.6
v -17.3 0.2 -7.6
v -17.5 0.2 -7.6
v -17.6 0.2 -7.6
v -18.2 0.2 -7.6
v -18.3 0.2 -7.6
v -18.4 0.2 -7.6
v -18.5 0.2 -7.6
v -15.2 0.2 -7.7
v -15.3 0.2 -7.7
v -15.9 0.2 -7.7
v -16 0.2 -7.7
v -16.3 0.2 -7.7
v -16.4 0.2 -7.7
v -17.1 0.2 -7.7
v -17.3 0.2 -7.7
v -17.5 0.2 -7.7
v -17.6 0.2 -7.7
v -18.4 0.2 -7.7
v -18.5 0.2 -7.7
v -21 0.2 -7.7
v -21.1 0.2 -7.7
v -21.4 0.2 -7.7
v -21.5 0.2 -7.7
v -20.4 0.2 -7.8
v -20.5 0.2 -7.8
v -21 0.2 -7.8
v -21.1 0.2 -7.8
v -21.4 0.2 -7.8
v -21.5 0.2 -7.8
v -23.3 0.2 -7.8
v -23.4 0.2 -7.8
v -12.2 0.2 -7.9
v -13 0.2 -7.9
v -22.1 0.2 -7.9
v -22.2 0.2 -7.9
v -23.3 0.2 -7.9
v -23.4 0.2 -7.9
v -18.5 0.2 -8
v -18.6 0.2 -8
v -18.7 0.2 -8
v -18.8 0.2 -8
v -20.2 0.2 -8
v -20.3 0.2 -8
v -20.4 0.2 -8
v -20.5 0.2 -8
v -21.5 0.2 -8
v -21.6 0.2 -8
v -22.1 0.2 -8
v -22.2 0.2 -8
v -18.5 0.2 -8.1
v -18.6 0.2 -8.1
v -18.7 0.2 -8.1
v -18.8 0.2 -8.1
v -19.1 0.2 -8.1
v -19.2 0.2 -8.1
v -20.2 0.2 -8.1
v -20.3 0.2 -8.1
v -21.5 0.2 -8.1
v -21.6 0.2 -8.1
v -12.2 0.2 -8.2
v -13 0.2 -8.2
v -19.1 0.2 -8.2
v -19.2 0.2 -8.2
v -23.3 0.2 -8.3
v -23.4 0.2 -8.3
v -16.4 0.2 -8.4
v -16.5 0.2 -8.4
v -16.4 0.2 -8.5
v -16.5 0.2 -8.5
v -19.3 0.2 -8.5
v -19.4 0.2 -8.5
v -20.4 0.2 -8.5
v -20.5 0.2 -8.5
v -21.4 0.2 -8.5
v -21.5 0.2 -8.5
v -22.4 0.2 -8.5
v -22.5 0.2 -8.5
v -23.3 0.2 -8.5
v -23.4 0.2 -8.5
v -15.8 0.2 -8.6
v -15.9 0.2 -8.6
v -19.3 0.2 -8.6
v -19.4 0.2 -8.6
v -20.4 0.2 -8.6
v -20.5 0.2 -8.6
v -21.4 0.2 -8.6
v -21.5 0.2 -8.6
v -22.3 0.2 -8.6
v -22.4 0.2 -8.6
v -22.5 0.2 -8.6
v -22.6 0.2 -8.6
v -22.7 0.2 -8.6
v -15.2 0.2 -8.7
v -15.3 0.2 -8.7
v -22.3 0.2 -8.7
v -22.4 0.2 -8.7
v -22.6 0.2 -8.7
v -22.7 0.2 -8.7
v -15.2 0.2 -8.8
v -15.3 0.2 -8.8
v -15.8 0.2 -8.8
v -15.9 0.2 -8.8
v -18 0.2 -8.8
v -18.1 0.2 -8.8
v -18.6 0.2 -8.8
v -18.7 0.2 -8.8
v -18 0.2 -8.9
v -18.1 0.2 -8.9
v -18.6 0.2 -8.9
v -18.7 0.2 -8.9
v -16.7 0.2 -9.1
v -16.8 0.2 -9.1
v -16.7 0.2 -9.2
v -16.8 0.2 -9.2
v -12.2 0.2 -9.3
v -13 0.2 -9.3
v -13.2 0.2 -9.6
v -14.5 0.2 -9.6
v -17.2 0.2 -9.6
v -17.3 0.2 -9.6
v -17.2 0.2 -9.7
v -17.3 0.2 -9.7
v -12 0.2 -9.8
v -24 0.2 -9.8
v -12 0.2 -10
v -20.7 0.2 -10
v -20.8 0.2 -10
v -24 0.2 -10
v -18.5 0.2 -10.1
v -19.4 0.2 -10.1
v -12.9 0.2 -10.2
v -14.8 0.2 -10.2
v -18.1 0.2 -10.3
v -18.5 0.2 -10.3
v -19.4 0.2 -10.3
v -19.8 0.2 -10.3
v -21.8 0.2 -10.3
v -23 0.2 -10.3
v -12.6 0.2 -10.4
v -12.9 0.2 -10.4
v -14.8 0.2 -10.4
v -15.6 0.2 -10.4
v -23 0.2 -10.4
v -23.9 0.2 -10.4
v -12.5 0.2 -10.5
v -12.6 0.2 -10.5
v -18 0.2 -10.5
v -18.1 0.2 -10.5
v -19.8 0.2 -10.5
v -20 0.2 -10.5
v -12.7 0.2 -10.6
v -15.2 0.2 -10.6
v -18 0.2 -10.7
v -18.7 0.2 -10.7
v -19.1 0.2 -10.7
v -19.6 0.2 -10.7
v -21.5 0.2 -10.7
v -21.7 0.2 -10.7
v -21.8 0.2 -10.7
v -22.8 0.2 -10.7
v -23.8 0.2 -10.7
v -23.9 0.2 -10.7
v -12.4 0.2 -10.8
v -12.5 0.2 -10.8
v -15.2 0.2 -10.8
v -15.4 0.2 -10.8
v -15.6 0.2 -10.8
v -18.7 0.2 -10.8
v -19.1 0.2 -10.8
v -19.6 0.2 -10.8
v -19.7 0.2 -10.8
v -23.3 0.2 -10.8
v -23.8 0.2 -10.8
v -20 0.2 -10.9
v -20.5 0.2 -10.9
v -22.9 0.2 -10.9
v -23.3 0.2 -10.9
v -17.3 0.2 -11
v -18 0.2 -11
v -20.5 0.2 -11
v -21.3 0.2 -11
v -21.5 0.2 -11
v -21.7 0.2 -11
v -21.9 0.2 -11
v -22.7 0.2 -11
v -22.8 0.2 -11
v -22.9 0.2 -11
v -23 0.2 -11
v -23.3 0.2 -11
v -23.8 0.2 -11
v -12.7 0.2 -11.1
v -12.9 0.2 -11.1
v -15.1 0.2 -11.1
v -15.4 0.2 -11.1
v -21.8 0.2 -11.1
v -21.9 0.2 -11.1
v -12.8 0.2 -11.2
v -12.9 0.2 -11.2
v -17.3 0.2 -11.2
v -17.5 0.2 -11.2
v -19.7 0.2 -11.2
v -21.2 0.2 -11.2
v -22.7 0.2 -11.2
v -22.8 0.2 -11.2
v -23 0.2 -11.2
v -23.2 0.2 -11.2
v -23.4 0.2 -11.2
v -23.8 0.2 -11.2
v -15.1 0.2 -11.3
v -15.4 0.2 -11.3
v -15.5 0.2 -11.3
v -16.8 0.2 -11.3
v -21.2 0.2 -11.3
v -21.3 0.2 -11.3
v -21.7 0.2 -11.3
v -21.8 0.2 -11.3
v -16.8 0.2 -11.4
v -16.9 0.2 -11.4
v -20.2 0.2 -11.4
v -20.3 0.2 -11.4
v -14.6 0.2 -11.5
v -15.1 0.2 -11.5
v -15.5 0.2 -11.5
v -16.9 0.2 -11.5
v -17.5 0.2 -11.5
v -19.1 0.2 -11.5
v -20.2 0.2 -11.5
v -20.3 0.2 -11.5
v -21.2 0.2 -11.5
v -12.6 0.2 -11.6
v -12.7 0.2 -11.6
v -14.6 0.2 -11.6
v -14.8 0.2 -11.6
v -15.7 0.2 -11.6
v -16.9 0.2 -11.6
v -17.8 0.2 -11.6
v -18 0.2 -11.6
v -20.2 0.2 -11.6
v -20.5 0.2 -11.6
v -23.2 0.2 -11.6
v -23.3 0.2 -11.6
v -23.4 0.2 -11.6
v -23.7 0.2 -11.6
v -13.8 0.2 -11.7
v -14 0.2 -11.7
v -14.5 0.2 -11.7
v -14.8 0.2 -11.7
v -15.1 0.2 -11.7
v -15.7 0.2 -11.7
v -16.9 0.2 -11.7
v -17.8 0.2 -11.7
v -23.2 0.2 -11.7
v -23.3 0.2 -11.7
v -14.7 0.2 -11.8
v -15.1 0.2 -11.8
v -19.6 0.2 -11.8
v -20.2 0.2 -11.8
v -12.8 0.2 -11.9
v -12.9 0.2 -11.9
v -13.8 0.2 -11.9
v -14 0.2 -11.9
v -14.2 0.2 -11.9
v -14.5 0.2 -11.9
v -19.5 0.2 -11.9
v -19.6 0.2 -11.9
v -22.7 0.2 -11.9
v -23.2 0.2 -11.9
v -12.4 0.2 -12
v -12.6 0.2 -12
v -12.9 0.2 -12
v -13 0.2 -12
v -19.5 0.2 -12
v -19.6 0.2 -12
v -20.5 0.2 -12
v -20.8 0.2 -12
v -13 0.2 -12.1
v -14.2 0.2 -12.1
v -14.7 0.2 -12.1
v -16 0.2 -12.1
v -21.2 0.2 -12.1
v -22.7 0.2 -12.1
v -23.7 0.2 -12.1
v -12.7 0.2 -12.2
v -14.7 0.2 -12.2
v -18.4 0.2 -12.2
v -19.1 0.2 -12.2
v -16 0.2 -12.3
v -18.4 0.2 -12.3
v -18.8 0.2 -12.3
v -19.3 0.2 -12.3
v -20.8 0.2 -12.3
v -22.7 0.2 -12.3
v -14.7 0.2 -12.4
v -15 0.2 -12.4
v -19.3 0.2 -12.4
v -19.6 0.2 -12.4
v -12 0.2 -12.5
v -15 0.2 -12.5
v -18.8 0.2 -12.5
v -24 0.2 -12.5
v -12 0.2 -12.7
v -24 0.2 -12.7
v -13.2 0.2 -12.9
v -14.5 0.2 -12.9
v -12.2 0.2 -13.2
v -13 0.2 -13.2
v -17.7 0.2 -13.2
v -17.8 0.2 -13.2
v -17.7 0.2 -13.3
v -17.8 0.2 -13.3
v -20.3 0.2 -13.4
v -20.4 0.2 -13.4
v -20.3 0.2 -13.5
v -20.4 0.2 -13.5
v -19.5 0.2 -13.6
v -19.7 0.2 -13.6
v -19.5 0.2 -13.7
v -19.7 0.2 -13.7
v -21.8 0.2 -13.7
v -21.9 0.2 -13.7
v -15.9 0.2 -13.8
v -16 0.2 -13.8
v -20 0.2 -13.8
v -20.1 0.2 -13.8
v -21.4 0.2 -13.8
v -21.5 0.2 -13.8
v -21.8 0.2 -13.8
v -21.9 0.2 -13.8
v -22 0.2 -13.8
v -22.1 0.2 -13.8
v -15.9 0.2 -13.9
v -16 0.2 -13.9
v -20 0.2 -13.9
v -20.1 0.2 -13.9
v -21.4 0.2 -13.9
v -21.5 0.2 -13.9
v -22 0.2 -13.9
v -22.1 0.2 -13.9
v -18.2 0.2 -14
v -18.3 0.2 -14
v -19 0.2 -14
v -19.1 0.2 -14
v -20.6 0.2 -14
v -20.7 0.2 -14
v -16.9 0.2 -14.1
v -17 0.2 -14.1
v -18.2 0.2 -14.1
v -18.3 0.2 -14.1
v -19 0.2 -14.1
v -19.1 0.2 -14.1
v -20.6 0.2 -14.1
v -20.7 0.2 -14.1
v -23 0.2 -14.1
v -23.1 0.2 -14.1
v -15.2 0.2 -14.2
v -15.3 0.2 -14.2
v -16.9 0.2 -14.2
v -17 0.2 -14.2
v -23 0.2 -14.2
v -23.1 0.2 -14.2
v -12.2 0.2 -14.3
v -13 0.2 -14.3
v -15.2 0.2 -14.3
v -15.3 0.2 -14.3
v -15.4 0.2 -14.4
v -15.5 0.2 -14.4
v -18.3 0.2 -14.4
v -18.4 0.2 -14.4
v -22.3 0.2 -14.4
v -22.4 0.2 -14.4
v -15.4 0.2 -14.5
v -15.5 0.2 -14.5
v -17.5 0.2 -14.5
v -17.6 0.2 -14.5
v -22.3 0.2 -14.5
v -22.4 0.2 -14.5
v -12.2 0.2 -14.6
v -13 0.2 -14.6
v -17.5 0.2 -14.6
v -17.6 0.2 -14.6
v -18.3 0.2 -14.6
v -18.4 0.2 -14.6
v -19.4 0.2 -14.7
v -19.6 0.2 -14.7
v -19.9 0.2 -14.7
v -20 0.2 -14.7
v -15.7 0.2 -14.8
v -15.8 0.2 -14.8
v -16.8 0.2 -14.8
v -17 0.2 -14.8
v -19.4 0.2 -14.8
v -19.6 0.2 -14.8
v -19.9 0.2 -14.8
v -20 0.2 -14.8
v -22.9 0.2 -14.8
v -23 0.2 -14.8
v -15.7 0.2 -14.9
v -15.8 0.2 -14.9
v -16.8 0.2 -14.9
v -16.9 0.2 -14.9
v -21 0.2 -14.9
v -21.1 0.2 -14.9
v -22.9 0.2 -14.9
v -23 0.2 -14.9
v -16.9 0.2 -15
v -17 0.2 -15
v -21 0.2 -15
v -21.1 0.2 -15
v -18.1 0.2 -15.3
v -18.2 0.2 -15.3
v -18.3 0.2 -15.3
v -18.4 0.2 -15.3
v -22.9 0.2 -15.3
v -23 0.2 -15.3
v -16.4 0.2 -15.4
v -16.5 0.2 -15.4
v -16.6 0.2 -15.4
v -16.7 0.2 -15.4
v -18.1 0.2 -15.4
v -18.2 0.2 -15.4
v -18.3 0.2 -15.4
v -18.4 0.2 -15.4
v -22.9 0.2 -15.4
v -23 0.2 -15.4
v -15.5 0.2 -15.5
v -15.8 0.2 -15.5
v -16.4 0.2 -15.5
v -16.5 0.2 -15.5
v -16.6 0.2 -15.5
v -16.7 0.2 -15.5
v -21.4 0.2 -15.5
v -21.6 0.2 -15.5
v -21.4 0.2 -15.6
v -21.6 0.2 -15.6
v -18.6 0.2 -15.7
v -18.7 0.2 -15.7
v -22.5 0.2 -15.7
v -22.6 0.2 -15.7
v -15.5 0.2 -15.8
v -15.8 0.2 -15.8
v -16.6 0.2 -15.8
v -16.7 0.2 -15.8
v -18.6 0.2 -15.8
v -18.7 0.2 -15.8
v -22 0.2 -15.8
v -22.1 0.2 -15.8
v -22.5 0.2 -15.8
v -22.6 0.2 -15.8
v -16.6 0.2 -15.9
v -16.7 0.2 -15.9
v -20.6 0.2 -15.9
v -20.7 0.2 -15.9
v -22 0.2 -15.9
v -22.1 0.2 -15.9
v -19.7 0.2 -16
v -19.8 0.2 -16
v -20.6 0.2 -16
v -20.7 0.2 -16
v -22.8 0.2 -16
v -22.9 0.2 -16
v -17.2 0.2 -16.1
v -17.3 0.2 -16.1
v -20.4 0.2 -16.1
v -20.5 0.2 -16.1
v -22.8 0.2 -16.1
v -22.9 0.2 -16.1
v -12.2 0.2 -16.2
v -13 0.2 -16.2
v -17.2 0.2 -16.2
v -17.3 0.2 -16.2
v -18.3 0.2 -16.2
v -18.4 0.2 -16.2
v -19.7 0.2 -16.2
v -19.8 0.2 -16.2
v -20.4 0.2 -16.2
v -20.5 0.2 -16.2
v -15.7 0.2 -16.3
v -15.9 0.2 -16.3
v -18.3 0.2 -16.3
v -18.4 0.2 -16.3
v -19.6 0.2 -16.3
v -19.7 0.2 -16.3
v -19.6 0.2 -16.4
v -19.7 0.2 -16.4
v -12.2 0.2 -16.5
v -13 0.2 -16.5
v -15.7 0.2 -16.6
v -15.9 0.2 -16.6
v -18.3 0.2 -17
v -18.4 0.2 -17
v -19.4 0.2 -17.1
v -19.5 0.2 -17.1
v -18.3 0.2 -17.2
v -18.4 0.2 -17.2
v -19.4 0.2 -17.2
v -19.5 0.2 -17.2
v -21.9 0.2 -17.3
v -22 0.2 -17.3
v -23 0.2 -17.3
v -23.1 0.2 -17.3
v -17.1 0.2 -17.4
v -17.3 0.2 -17.4
v -20.1 0.2 -17.4
v -20.2 0.2 -17.4
v -21.9 0.2 -17.4
v -22 0.2 -17.4
v -23 0.2 -17.4
v -23.1 0.2 -17.4
v -15.7 0.2 -17.5
v -15.8 0.2 -17.5
v -17.1 0.2 -17.5
v -17.3 0.2 -17.5
v -20.1 0.2 -17.5
v -20.2 0.2 -17.5
v -15.7 0.2 -17.7
v -15.8 0.2 -17.7
v -15.3 0.2 -17.8
v -15.4 0.2 -17.8
v -16.5 0.2 -17.8
v -16.6 0.2 -17.8
v -15.3 0.2 -17.9
v -15.4 0.2 -17.9
v -16.5 0.2 -17.9
v -16.6 0.2 -17.9
v -18.6 0.2 -18
v -18.8 0.2 -18
v -12.2 0.2 -18.1
v -13 0.2 -18.1
v -18.6 0.2 -18.2
v -18.8 0.2 -18.2
v -19.1 0.2 -18.2
v -19.2 0.2 -18.2
v -15.6 0.2 -18.3
v -15.7 0.2 -18.3
v -19.1 0.2 -18.3
v -19.2 0.2 -18.3
v -21.6 0.2 -18.3
v -21.7 0.2 -18.3
v -22.8 0.2 -18.3
v -22.9 0.2 -18.3
v -12.2 0.2 -18.4
v -13 0.2 -18.4
v -15.6 0.2 -18.4
v -15.7 0.2 -18.4
v -21.6 0.2 -18.4
v -21.7 0.2 -18.4
v -22.8 0.2 -18.4
v -22.9 0.2 -18.4
v -17.2 0.2 -18.5
v -17.3 0.2 -18.5
v -17.2 0.2 -18.6
v -17.3 0.2 -18.6
v -18.5 0.2 -18.8
v -18.7 0.2 -18.8
v -18.5 0.2 -18.9
v -18.7 0.2 -18.9
v -19.8 0.2 -18.9
v -20 0.2 -18.9
v -19.8 0.2 -19
v -20 0.2 -19
v -15.5 0.2 -19.1
v -15.6 0.2 -19.1
v -19.1 0.2 -19.1
v -19.6 0.2 -19.1
v -15.5 0.2 -19.2
v -15.6 0.2 -19.2
v -15.8 0.2 -19.2
v -15.9 0.2 -19.2
v -15.8 0.2 -19.3
v -15.9 0.2 -19.3
v -19.1 0.2 -19.3
v -19.6 0.2 -19.3
v -21 0.2 -19.3
v -21.1 0.2 -19.3
v -21 0.2 -19.4
v -21.1 0.2 -19.4
v -22.9 0.2 -19.5
v -23 0.2 -19.5
v -15.7 0.2 -19.6
v -15.8 0.2 -19.6
v -18.1 0.2 -19.6
v -18.3 0.2 -19.6
v -22.9 0.2 -19.6
v -23 0.2 -19.6
v -15.7 0.2 -19.7
v -15.8 0.2 -19.7
v -20.3 0.2 -19.7
v -20.4 0.2 -19.7
v -17.3 0.2 -19.8
v -17.4 0.2 -19.8
v -17.5 0.2 -19.8
v -17.7 0.2 -19.8
v -18.1 0.2 -19.8
v -18.3 0.2 -19.8
v -20.3 0.2 -19.8
v -20.4 0.2 -19.8
v -21.5 0.2 -19.8
v -21.6 0.2 -19.8
v -17.3 0.2 -19.9
v -17.4 0.2 -19.9
v -17.5 0.2 -19.9
v -17.7 0.2 -19.9
v -21.5 0.2 -19.9
v -21.6 0.2 -19.9
v -12.2 0.2 -20
v -13 0.2 -20
v -16.5 0.2 -20
v -16.6 0.2 -20
v -18.2 0.2 -20
v -18.3 0.2 -20
v -16.5 0.2 -20.1
v -16.6 0.2 -20.1
v -16.7 0.2 -20.1
v -16.9 0.2 -20.1
v -19.1 0.2 -20.1
v -19.2 0.2 -20.1
v -18.2 0.2 -20.2
v -18.3 0.2 -20.2
v -19.1 0.2 -20.2
v -19.2 0.2 -20.2
v -12.2 0.2 -20.3
v -13 0.2 -20.3
v -17.4 0.2 -20.3
v -17.5 0.2 -20.3
v -18.9 0.2 -20.3
v -19 0.2 -20.3
v -16.7 0.2 -20.4
v -16.9 0.2 -20.4
v -17.4 0.2 -20.4
v -17.5 0.2 -20.4
v -18.9 0.2 -20.4
v -19 0.2 -20.4
v -22.3 0.2 -20.4
v -22.4 0.2 -20.4
v -15.2 0.2 -20.5
v -15.3 0.2 -20.5
v -20.8 0.2 -20.5
v -20.9 0.2 -20.5
v -22.3 0.2 -20.5
v -22.4 0.2 -20.5
v -15.2 0.2 -20.6
v -15.3 0.2 -20.6
v -16 0.2 -20.6
v -16.1 0.2 -20.6
v -20.8 0.2 -20.6
v -20.9 0.2 -20.6
v -16 0.2 -20.7
v -16.1 0.2 -20.7
v -15.3 0.2 -21
v -15.4 0.2 -21
v -15.3 0.2 -21.1
v -15.4 0.2 -21.1
v -17.3 0.2 -21.1
v -17.4 0.2 -21.1
v -17.3 0.2 -21.2
v -17.4 0.2 -21.2
v -22.3 0.2 -21.3
v -22.4 0.2 -21.3
v -22.3 0.2 -21.4
v -22.4 0.2 -21.4
v -17.6 0.2 -21.5
v -17.7 0.2 -21.5
v -22.7 0.2 -21.5
v -22.8 0.2 -21.5
v -16.1 0.2 -21.6
v -16.2 0.2 -21.6
v -17.6 0.2 -21.6
v -17.7 0.2 -21.6
v -22.7 0.2 -21.6
v -22.8 0.2 -21.6
v -19.1 0.2 -21.7
v -19.2 0.2 -21.7
v -20.4 0.2 -21.7
v -20.5 0.2 -21.7
v -15 0.2 -21.8
v -15.1 0.2 -21.8
v -16.1 0.2 -21.8
v -16.2 0.2 -21.8
v -17.2 0.2 -21.8
v -17.3 0.2 -21.8
v -19.1 0.2 -21.8
v -19.2 0.2 -21.8
v -20.4 0.2 -21.8
v -20.5 0.2 -21.8
v -12.2 0.2 -21.9
v -13 0.2 -21.9
v -15 0.2 -21.9
v -15.1 0.2 -21.9
v -17.2 0.2 -21.9
v -17.3 0.2 -21.9
v -19.7 0.2 -21.9
v -19.8 0.2 -21.9
v -21 0.2 -21.9
v -21.1 0.2 -21.9
v -19.7 0.2 -22
v -19.8 0.2 -22
v -21 0.2 -22
v -21.1 0.2 -22
v -15.8 0.2 -22.1
v -15.9 0.2 -22.1
v -16.1 0.2 -22.1
v -16.2 0.2 -22.1
v -12.2 0.2 -22.2
v -13 0.2 -22.2
v -16.1 0.2 -22.2
v -16.2 0.2 -22.2
v -15.8 0.2 -22.3
v -15.9 0.2 -22.3
v -21.8 0.2 -22.4
v -21.9 0.2 -22.4
v -16.7 0.2 -22.5
v -16.8 0.2 -22.5
v -21.8 0.2 -22.5
v -21.9 0.2 -22.5
v -16.7 0.2 -22.6
v -16.8 0.2 -22.6
v -15.6 0.2 -22.7
v -15.7 0.2 -22.7
v -18.5 0.2 -22.7
v -18.6 0.2 -22.7
v -15.6 0.2 -22.8
v -15.7 0.2 -22.8
v -18.4 0.2 -22.8
v -18.5 0.2 -22.8
v -20.4 0.2 -22.8
v -20.5 0.2 -22.8
v -17.8 0.2 -22.9
v -17.9 0.2 -22.9
v -18.4 0.2 -22.9
v -18.6 0.2 -22.9
v -20.4 0.2 -22.9
v -20.5 0.2 -22.9
v -14.9 0.2 -23
v -15 0.2 -23
v -17.8 0.2 -23
v -17.9 0.2 -23
v -14.9 0.2 -23.1
v -15 0.2 -23.1
v -15.2 0.2 -23.1
v -15.3 0.2 -23.1
v -15.2 0.2 -23.3
v -15.3 0.2 -23.3
v -12.2 0.2 -23.8
v -13 0.2 -23.8
v -15.9 0.2 -23.9
v -16 0.2 -23.9
v -12 0.2 -24
v -13.2 0.2 -24
v -14.5 0.2 -24
v -15.9 0.2 -24
v -16 0.2 -24
v -24 0.2 -24
v -12.2 0.3 -4.4
v -13 0.3 -4.4
v -12.3 0.3 -4.5
v -12.9 0.3 -4.5
v -12.3 0.3 -5.9
v -12.9 0.3 -5.9
v -12.2 0.3 -6
v -13 0.3 -6
v -12.2 0.3 -6.3
v -13 0.3 -6.3
v -12.3 0.3 -6.4
v -12.9 0.3 -6.4
v -12.3 0.3 -7.8
v -12.9 0.3 -7.8
v -12.2 0.3 -7.9
v -13 0.3 -7.9
v -12.2 0.3 -8.2
v -13 0.3 -8.2
v -12.3 0.3 -8.3
v -12.9 0.3 -8.3
v -12.3 0.3 -9.2
v -12.9 0.3 -9.2
v -12.2 0.3 -9.3
v -13 0.3 -9.3
v -12 0.3 -9.8
v -24 0.3 -9.8
v -20.7 0.3 -9.9
v -20.8 0.3 -9.9
v -12 0.3 -10
v -20.7 0.3 -10
v -20.8 0.3 -10
v -24 0.3 -10
v -12 0.3 -12.5
v -24 0.3 -12.5
v -12 0.3 -12.7
v -24 0.3 -12.7
v -12.2 0.3 -13.2
v -13 0.3 -13.2
v -12.3 0.3 -13.3
v -12.9 0.3 -13.3
v -12.3 0.3 -14.2
v -12.9 0.3 -14.2
v -12.2 0.3 -14.3
v -13 0.3 -14.3
v -12.2 0.3 -14.6
v -13 0.3 -14.6
v -12.3 0.3 -14.7
v -12.9 0.3 -14.7
v -12.3 0.3 -16.1
v -12.9 0.3 -16.1
v -12.2 0.3 -16.2
v -13 0.3 -16.2
v -12.2 0.3 -16.5
v -13 0.3 -16.5
v -12.3 0.3 -16.6
v -12.9 0.3 -16.6
v -12.3 0.3 -18
v -12.9 0.3 -18
v -12.2 0.3 -18.1
v -13 0.3 -18.1
v -12.2 0.3 -18.4
v -13 0.3 -18.4
v -12.3 0.3 -18.5
v -12.9 0.3 -18.5
v -12.3 0.3 -19.9
v -12.9 0.3 -19.9
v -12.2 0.3 -20
v -13 0.3 -20
v -12.2 0.3 -20.3
v -13 0.3 -20.3
v -12.3 0.3 -20.4
v -12.9 0.3 -20.4
v -12.3 0.3 -21.8
v -12.9 0.3 -21.8
v -12.2 0.3 -21.9
v -13 0.3 -21.9
v -12.2 0.3 -22.2
v -13 0.3 -22.2
v -12.3 0.3 -22.3
v -12.9 0.3 -22.3
v -12.3 0.3 -23.7
v -12.9 0.3 -23.7
v -12.2 0.3 -23.8
v -13 0.3 -23.8
v -13.2 0.5 -4.1
v -24 0.5 -4.1
v -13.3 0.5 -4.2
v -24 0.5 -4.2
v -14.4 0.5 -5.3
v -24 0.5 -5.3
v -14.5 0.5 -5.4
v -24 0.5 -5.4
v -13.3 0.5 -9.5
v -14.4 0.5 -9.5
v -13.2 0.5 -9.6
v -14.5 0.5 -9.6
v -13.2 0.5 -12.9
v -14.5 0.5 -12.9
v -13.3 0.5 -13
v -14.4 0.5 -13
v -13.2 0.5 -24
v -13.3 0.5 -24
v -14.4 0.5 -24
v -14.5 0.5 -24
v -12.3 1.2 -4.5
v -12.9 1.2 -4.5
v -12.3 1.2 -5.9
v -12.9 1.2 -5.9
v -12.3 1.2 -6.4
v -12.9 1.2 -6.4
v -12.3 1.2 -7.8
v -12.9 1.2 -7.8
v -12.3 1.2 -8.3
v -12.9 1.2 -8.3
v -12.3 1.2 -9.2
v -12.9 1.2 -9.2
v -12.3 1.2 -13.3
v -12.9 1.2 -13.3
v -12.3 1.2 -14.2
v -12.9 1.2 -14.2
v -12.3 1.2 -14.7
v -12.9 1.2 -14.7
v -12.3 1.2 -16.1
v -12.9 1.2 -16.1
v -12.3 1.2 -16.6
v -12.9 1.2 -16.6
v -12.3 1.2 -18
v -12.9 1.2 -18
v -12.3 1.2 -18.5
v -12.9 1.2 -18.5
v -12.3 1.2 -19.9
v -12.9 1.2 -19.9
v -12.3 1.2 -20.4
v -12.9 1.2 -20.4
v -12.3 1.2 -21.8
v -12.9 1.2 -21.8
v -12.3 1.2 -22.3
v -12.9 1.2 -22.3
v -12.3 1.2 -23.7
v -12.9 1.2 -23.7
v -13.1 2.9 -4
v -24 2.9 -4
v -13.2 2.9 -4.1
v -24 2.9 -4.1
v -14.5 2.9 -5.4
v -24 2.9 -5.4
v -14.6 2.9 -5.5
v -24 2.9 -5.5
v -13.2 2.9 -9.6
v -14.5 2.9 -9.6
v -13.1 2.9 -9.7
v -14.6 2.9 -9.7
v -13.1 2.9 -12.8
v -14.6 2.9 -12.8
v -13.2 2.9 -12.9
v -14.5 2.9 -12.9
v -13.1 2.9 -24
v -13.2 2.9 -24
v -14.5 2.9 -24
v -14.6 2.9 -24
v -13.2 3 -4.1
v -24 3 -4.1
v -13.3 3 -4.2
v -24 3 -4.2
v -14.4 3 -5.3
v -24 3 -5.3
v -14.5 3 -5.4
v -24 3 -5.4
v -13.3 3 -9.5
v -14.4 3 -9.5
v -13.2 3 -9.6
v -14.5 3 -9.6
v -13.2 3 -12.9
v -14.5 3 -12.9
v -13.3 3 -13
v -14.4 3 -13
v -13.2 3 -24
v -13.3 3 -24
v -14.4 3 -24
v -14.5 3 -24
v -13.3 3.1 -4.2
v -24 3.1 -4.2
v -13.4 3.1 -4.3
v -24 3.1 -4.3
v -14.3 3.1 -5.2
v -24 3.1 -5.2
v -14.4 3.1 -5.3
v -24 3.1 -5.3
v -13.4 3.1 -9.4
v -14.3 3.1 -9.4
v -13.3 3.1 -9.5
v -14.4 3.1 -9.5
v -13.3 3.1 -13
v -14.4 3.1 -13
v -13.4 3.1 -13.1
v -14.3 3.1 -13.1
v -13.3 3.1 -24
v -13.4 3.1 -24
v -14.3 3.1 -24
v -14.4 3.1 -24
v -13.4 3.2 -4.3
v -24 3.2 -4.3
v -13.5 3.2 -4.4
v -24 3.2 -4.4
v -14.2 3.2 -5.1
v -24 3.2 -5.1
v -14.3 3.2 -5.2
v -24 3.2 -5.2
v -13.5 3.2 -9.3
v -14.2 3.2 -9.3
v -13.4 3.2 -9.4
v -14.3 3.2 -9.4
v -13.4 3.2 -13.1
v -14.3 3.2 -13.1
v -13.5 3.2 -13.2
v -14.2 3.2 -13.2
v -13.4 3.2 -24
v -13.5 3.2 -24
v -14.2 3.2 -24
v -14.3 3.2 -24
v -13.5 3.3 -4.4
v -24 3.3 -4.4
v -14.2 3.3 -5.1
v -24 3.3 -5.1
v -13.5 3.3 -9.3
v -14.2 3.3 -9.3
v -13.5 3.3 -13.2
v -14.2 3.3 -13.2
v -13.5 3.3 -24
v -14.2 3.3 -24

# faces
f 1/8/1 2/8/1 5/8/1
f 5/8/1 2/8/1 6/8/1
f 6/8/1 2/8/1 7/8/1
f 7/8/1 2/8/1 8/8/1
f 2/4/1 3/4/1 9/4/1
f 8/8/1 2/8/1 9/8/1
f 3/8/1 4/8/1 10/8/1
f 9/4/1 3/4/1 10/4/1
f 10/8/1 4/8/1 11/8/1
f 11/8/1 4/8/1 12/8/1
f 8/3/1 9/3/1 13/3/1
f 13/3/1 9/3/1 14/3/1
f 10/3/1 11/3/1 15/3/1
f 15/3/1 11/3/1 16/3/1
f 17/2/1 18/2/1 35/2/1
f 35/2/1 18/2/1 36/2/1
f 19/2/1 20/2/1 37/2/1
f 37/2/1 20/2/1 38/2/1
f 21/2/1 22/2/1 39/2/1
f 39/2/1 22/2/1 40/2/1
f 23/2/1 24/2/1 41/2/1
f 41/2/1 24/2/1 42/2/1
f 25/2/1 26/2/1 43/2/1
f 43/2/1 26/2/1 44/2/1
f 27/2/1 28/2/1 45/2/1
f 45/2/1 28/2/1 46/2/1
f 29/2/1 30/2/1 47/2/1
f 47/2/1 30/2/1 48/2/1
f 31/2/1 32/2/1 49/2/1
f 49/2/1 32/2/1 50/2/1
f 33/2/1 34/2/1 51/2/1
f 51/2/1 34/2/1 52/2/1
f 53/7/1 54/7/1 71/7/1
f 71/7/1 54/7/1 72/7/1
f 55/7/1 56/7/1 73/7/1
f 73/7/1 56/7/1 74/7/1
f 57/7/1 58/7/1 75/7/1
f 75/7/1 58/7/1 76/7/1
f 59/7/1 60/7/1 77/7/1
f 77/7/1 60/7/1 78/7/1
f 61/7/1 62/7/1 79/7/1
f 79/7/1 62/7/1 80/7/1
f 63/7/1 64/7/1 81/7/1
f 81/7/1 64/7/1 82/7/1
f 65/7/1 66/7/1 83/7/1
f 83/7/1 66/7/1 84/7/1
f 67/7/1 68/7/1 85/7/1
f 85/7/1 68/7/1 86/7/1
f 69/7/1 70/7/1 87/7/1
f 87/7/1 70/7/1 88/7/1
f 89/4/1 90/4/1 93/4/1
f 93/4/1 90/4/1 94/4/1
f 91/4/1 92/4/1 95/4/1
f 95/4/1 92/4/1 96/4/1
f 97/4/1 98/4/1 101/4/1
f 101/4/1 98/4/1 102/4/1
f 99/4/1 100/4/1 103/4/1
f 103/4/1 100/4/1 104/4/1
f 105/4/1 106/4/1 109/4/1
f 109/4/1 106/4/1 110/4/1
f 107/4/1 108/4/1 111/4/1
f 111/4/1 108/4/1 112/4/1
f 113/1/1 114/1/1 117/1/1
f 117/1/1 114/1/1 118/1/1
f 115/1/1 116/1/1 119/1/1
f 119/1/1 116/1/1 120/1/1
f 121/4/1 122/4/1 125/4/1
f 125/4/1 122/4/1 126/4/1
f 123/4/1 124/4/1 127/4/1
f 127/4/1 124/4/1 128/4/1
f 129/4/1 130/4/1 133/4/1
f 133/4/1 130/4/1 134/4/1
f 131/4/1 132/4/1 135/4/1
f 135/4/1 132/4/1 136/4/1
f 137/4/1 138/4/1 141/4/1
f 141/4/1 138/4/1 142/4/1
f 139/4/1 140/4/1 143/4/1
f 143/4/1 140/4/1 144/4/1
f 145/4/1 146/4/1 151/4/1
f 151/4/1 146/4/1 152/4/1
f 147/4/1 148/4/1 153/4/1
f 153/4/1 148/4/1 154/4/1
f 149/4/1 150/4/1 155/4/1
f 155/4/1 150/4/1 156/4/1
f 175/7/2 158/7/2 157/7/2
f 176/7/2 158/7/2 175/7/2
f 177/7/2 160/7/2 159/7/2
f 178/7/2 160/7/2 177/7/2
f 179/7/2 162/7/2 161/7/2
f 180/7/2 162/7/2 179/7/2
f 181/7/2 164/7/2 163/7/2
f 182/7/2 164/7/2 181/7/2
f 183/7/2 166/7/2 165/7/2
f 184/7/2 166/7/2 183/7/2
f 185/7/2 168/7/2 167/7/2
f 186/7/2 168/7/2 185/7/2
f 187/7/2 170/7/2 169/7/2
f 188/7/2 170/7/2 187/7/2
f 189/7/2 172/7/2 171/7/2
f 190/7/2 172/7/2 189/7/2
f 191/7/2 174/7/2 173/7/2
f 192/7/2 174/7/2 191/7/2
f 211/2/2 194/2/2 193/2/2
f 212/2/2 194/2/2 211/2/2
f 213/2/2 196/2/2 195/2/2
f 214/2/2 196/2/2 213/2/2
f 215/2/2 198/2/2 197/2/2
f 216/2/2 198/2/2 215/2/2
f 217/2/2 200/2/2 199/2/2
f 218/2/2 200/2/2 217/2/2
f 219/2/2 202/2/2 201/2/2
f 220/2/2 202/2/2 219/2/2
f 221/2/2 204/2/2 203/2/2
f 222/2/2 204/2/2 221/2/2
f 223/2/2 206/2/2 205/2/2
f 224/2/2 206/2/2 223/2/2
f 225/2/2 208/2/2 207/2/2
f 226/2/2 208/2/2 225/2/2
f 227/2/2 210/2/2 209/2/2
f 228/2/2 210/2/2 227/2/2
f 233/4/2 230/4/2 229/4/2
f 234/4/2 230/4/2 233/4/2
f 235/4/2 232/4/2 231/4/2
f 236/4/2 232/4/2 235/4/2
f 241/4/2 238/4/2 237/4/2
f 242/4/2 238/4/2 241/4/2
f 243/4/2 240/4/2 239/4/2
f 244/4/2 240/4/2 243/4/2
f 249/4/2 246/4/2 245/4/2
f 250/4/2 246/4/2 249/4/2
f 251/4/2 248/4/2 247/4/2
f 252/4/2 248/4/2 251/4/2
f 257/1/2 254/1/2 253/1/2
f 258/1/2 254/1/2 257/1/2
f 259/1/2 257/1/2 253/1/2
f 260/1/2 257/1/2 259/1/2
f 261/1/2 254/1/2 258/1/2
f 262/1/2 254/1/2 261/1/2
f 263/1/2 256/1/2 255/1/2
f 264/1/2 256/1/2 263/1/2
f 269/4/2 266/4/2 265/4/2
f 270/4/2 266/4/2 269/4/2
f 271/4/2 268/4/2 267/4/2
f 272/4/2 268/4/2 271/4/2
f 277/4/2 274/4/2 273/4/2
f 278/4/2 274/4/2 277/4/2
f 279/4/2 276/4/2 275/4/2
f 280/4/2 276/4/2 279/4/2
f 285/4/2 282/4/2 281/4/2
f 286/4/2 282/4/2 285/4/2
f 287/4/2 284/4/2 283/4/2
f 288/4/2 284/4/2 287/4/2
f 295/4/2 290/4/2 289/4/2
f 296/4/2 290/4/2 295/4/2
f 297/4/2 292/4/2 291/4/2
f 298/4/2 292/4/2 297/4/2
f 299/4/2 294/4/2 293/4/2
f 300/4/2 294/4/2 299/4/2
f 303/8/2 302/8/2 301/8/2
f 304/8/2 302/8/2 303/8/2
f 305/8/2 302/8/2 304/8/2
f 306/8/2 302/8/2 305/8/2
f 307/8/2 305/8/2 304/8/2
f 308/8/2 305/8/2 307/8/2
f 309/8/2 305/8/2 308/8/2
f 310/8/2 305/8/2 309/8/2
f 311/4/2 306/4/2 305/4/2
f 311/8/2 305/8/2 310/8/2
f 312/8/2 302/8/2 306/8/2
f 312/4/2 306/4/2 311/4/2
f 313/8/2 302/8/2 312/8/2
f 314/8/2 302/8/2 313/8/2
f 315/3/2 311/3/2 310/3/2
f 316/3/2 311/3/2 315/3/2
f 317/3/2 313/3/2 312/3/2
f 318/3/2 313/3/2 317/3/2
f 319/4/2 309/4/2 308/4/2
f 320/4/2 309/4/2 319/4/2
f 321/4/2 309/4/2 320/4/2
f 322/4/2 309/4/2 321/4/2
f 327/4/2 324/4/2 323/4/2
f 328/1/2 321/1/2 320/1/2
f 329/1/2 321/1/2 328/1/2
f 330/4/2 326/4/2 325/4/2
f 331/4/2 329/4/2 328/4/2
f 331/4/2 330/4/2 329/4/2
f 331/4/2 327/4/2 323/4/2
f 331/4/2 328/4/2 327/4/2
f 332/4/2 330/4/2 331/4/2
f 333/4/2 326/4/2 330/4/2
f 333/4/2 330/4/2 332/4/2
f 334/4/2 326/4/2 333/4/2
f 335/4/2 333/4/2 332/4/2
f 336/4/2 333/4/2 335/4/2
f 337/4/2 333/4/2 336/4/2
f 338/4/2 333/4/2 337/4/2
f 339/4/2 337/4/2 336/4/2
f 340/4/2 337/4/2 339/4/2
f 341/4/2 337/4/2 340/4/2
f 342/4/2 337/4/2 341/4/2
f 343/4/2 341/4/2 340/4/2
f 344/4/2 341/4/2 343/4/2
f 345/4/2 341/4/2 344/4/2
f 346/4/2 341/4/2 345/4/2
f 347/4/2 345/4/2 344/4/2
f 348/4/2 345/4/2 347/4/2
f 349/8/3 350/8/3 351/8/3
f 351/8/3 350/8/3 352/8/3
f 353/8/3 354/8/3 355/8/3
f 355/8/3 354/8/3 356/8/3
f 357/4/3 358/4/3 359/4/3
f 359/4/3 358/4/3 360/4/3
f 361/4/3 362/4/3 365/4/3
f 365/4/3 362/4/3 366/4/3
f 363/4/3 364/4/3 367/4/3
f 367/4/3 364/4/3 368/4/3
f 369/1/3 370/1/3 373/1/3
f 373/1/3 370/1/3 374/1/3
f 371/4/3 372/4/3 375/4/3
f 375/4/3 372/4/3 376/4/3
f 377/4/3 378/4/3 379/4/3
f 379/4/3 378/4/3 380/4/3
f 381/2/3 382/2/3 383/2/3
f 383/2/3 382/2/3 384/2/3
f 385/4/3 386/4/3 387/4/3
f 387/4/3 386/4/3 388/4/3
f 389/7/3 390/7/3 391/7/3
f 391/7/3 390/7/3 392/7/3
f 393/4/3 394/4/3 395/4/3
f 395/4/3 394/4/3 396/4/3
f 397/4/3 398/4/3 399/4/3
f 399/4/3 398/4/3 400/4/3
f 401/2/3 402/2/3 403/2/3
f 403/2/3 402/2/3 404/2/3
f 405/7/3 406/7/3 407/7/3
f 407/7/3 406/7/3 408/7/3
f 409/2/3 410/2/3 411/2/3
f 411/2/3 410/2/3 412/2/3
f 413/7/3 414/7/3 415/7/3
f 415/7/3 414/7/3 416/7/3
f 417/4/3 418/4/3 419/4/3
f 419/4/3 418/4/3 420/4/3
f 421/3/3 422/3/3 423/3/3
f 423/3/3 422/3/3 424/3/3
f 425/3/3 426/3/3 427/3/3
f 427/3/3 426/3/3 428/3/3
f 428/3/3 426/3/3 429/3/3
f 429/3/3 426/3/3 430/3/3
f 431/4/3 432/4/3 433/4/3
f 433/4/3 432/4/3 434/4/3
f 435/4/3 436/4/3 439/4/3
f 439/4/3 436/4/3 440/4/3
f 437/4/3 438/4/3 441/4/3
f 441/4/3 438/4/3 442/4/3
f 443/1/3 444/1/3 447/1/3
f 447/1/3 444/1/3 448/1/3
f 445/4/3 446/4/3 449/4/3
f 449/4/3 446/4/3 450/4/3
f 451/4/3 452/4/3 453/4/3
f 453/4/3 452/4/3 454/4/3
f 455/2/3 456/2/3 457/2/3
f 457/2/3 456/2/3 458/2/3
f 459/4/3 460/4/3 461/4/3
f 461/4/3 460/4/3 462/4/3
f 463/7/3 464/7/3 465/7/3
f 465/7/3 464/7/3 466/7/3
f 467/2/3 468/2/3 469/2/3
f 469/2/3 468/2/3 470/2/3
f 471/7/3 472/7/3 473/7/3
f 473/7/3 472/7/3 474/7/3
f 475/2/3 476/2/3 477/2/3
f 477/2/3 476/2/3 478/2/3
f 479/7/3 480/7/3 481/7/3
f 481/7/3 480/7/3 482/7/3
f 483/2/3 484/2/3 485/2/3
f 485/2/3 484/2/3 486/2/3
f 487/7/3 488/7/3 489/7/3
f 489/7/3 488/7/3 490/7/3
f 491/2/3 492/2/3 493/2/3
f 493/2/3 492/2/3 494/2/3
f 495/7/3 496/7/3 497/7/3
f 497/7/3 496/7/3 498/7/3
f 499/2/3 500/2/3 501/2/3
f 501/2/3 500/2/3 502/2/3
f 503/7/3 504/7/3 505/7/3
f 505/7/3 504/7/3 506/7/3
f 509/4/4 508/4/4 507/4/4
f 510/4/4 508/4/4 509/4/4
f 513/4/4 512/4/4 511/4/4
f 514/4/4 512/4/4 513/4/4
f 517/4/4 516/4/4 515/4/4
f 518/4/4 516/4/4 517/4/4
f 523/1/4 520/1/4 519/1/4
f 524/1/4 520/1/4 523/1/4
f 525/1/4 523/1/4 519/1/4
f 527/1/4 525/1/4 519/1/4
f 527/1/4 526/1/4 525/1/4
f 528/1/4 526/1/4 527/1/4
f 529/4/4 522/4/4 521/4/4
f 530/4/4 522/4/4 529/4/4
f 535/4/4 532/4/4 531/4/4
f 536/4/4 532/4/4 535/4/4
f 537/4/4 532/4/4 536/4/4
f 538/4/4 532/4/4 537/4/4
f 539/4/4 534/4/4 533/4/4
f 540/4/4 534/4/4 539/4/4
f 543/4/4 542/4/4 541/4/4
f 544/4/4 542/4/4 543/4/4
f 547/4/4 546/4/4 545/4/4
f 548/4/4 546/4/4 547/4/4
f 551/7/4 550/7/4 549/7/4
f 552/7/4 550/7/4 551/7/4
f 555/2/4 554/2/4 553/2/4
f 556/2/4 554/2/4 555/2/4
f 559/7/4 558/7/4 557/7/4
f 560/7/4 558/7/4 559/7/4
f 563/2/4 562/2/4 561/2/4
f 564/2/4 562/2/4 563/2/4
f 567/7/4 566/7/4 565/7/4
f 568/7/4 566/7/4 567/7/4
f 571/2/4 570/2/4 569/2/4
f 572/2/4 570/2/4 571/2/4
f 575/4/4 574/4/4 573/4/4
f 576/4/4 574/4/4 575/4/4
f 579/4/4 578/4/4 577/4/4
f 580/4/4 578/4/4 579/4/4
f 585/1/4 582/1/4 581/1/4
f 586/1/4 582/1/4 585/1/4
f 587/4/4 584/4/4 583/4/4
f 588/4/4 584/4/4 587/4/4
f 593/4/4 590/4/4 589/4/4
f 594/4/4 590/4/4 593/4/4
f 595/4/4 592/4/4 591/4/4
f 596/4/4 592/4/4 595/4/4
f 599/4/4 598/4/4 597/4/4
f 600/4/4 598/4/4 599/4/4
f 603/3/4 602/3/4 601/3/4
f 604/3/4 602/3/4 603/3/4
f 605/9/4 604/9/4 603/9/4
f 606/9/4 604/9/4 605/9/4
f 607/3/4 606/3/4 605/3/4
f 608/3/4 606/3/4 607/3/4
f 611/3/4 610/3/4 609/3/4
f 612/3/4 610/3/4 611/3/4
f 615/4/4 614/4/4 613/4/4
f 616/4/4 614/4/4 615/4/4
f 619/7/4 618/7/4 617/7/4
f 620/7/4 618/7/4 619/7/4
f 623/2/4 622/2/4 621/2/4
f 624/2/4 622/2/4 623/2/4
f 627/7/4 626/7/4 625/7/4
f 628/7/4 626/7/4 627/7/4
f 631/2/4 630/2/4 629/2/4
f 632/2/4 630/2/4 631/2/4
f 635/7/4 634/7/4 633/7/4
f 636/7/4 634/7/4 635/7/4
f 639/2/4 638/2/4 637/2/4
f 640/2/4 638/2/4 639/2/4
f 643/7/4 642/7/4 641/7/4
f 644/7/4 642/7/4 643/7/4
f 647/2/4 646/2/4 645/2/4
f 648/2/4 646/2/4 647/2/4
f 651/7/4 650/7/4 649/7/4
f 652/7/4 650/7/4 651/7/4
f 655/2/4 654/2/4 653/2/4
f 656/2/4 654/2/4 655/2/4
f 659/7/4 658/7/4 657/7/4
f 660/7/4 658/7/4 659/7/4
f 663/2/4 662/2/4 661/2/4
f 664/2/4 662/2/4 663/2/4
f 669/8/4 666/8/4 665/8/4
f 670/8/4 666/8/4 669/8/4
f 672/4/4 668/4/4 667/4/4
f 673/4/4 668/4/4 672/4/4
f 674/4/4 668/4/4 673/4/4
f 676/8/4 669/8/4 665/8/4
f 676/1/4 670/1/4 669/1/4
f 677/4/4 671/4/4 670/4/4
f 677/1/4 670/1/4 676/1/4
f 678/4/4 671/4/4 677/4/4
f 679/4/4 675/4/4 674/4/4
f 679/4/4 674/4/4 673/4/4
f 680/4/4 675/4/4 679/4/4
f 682/4/4 680/4/4 679/4/4
f 682/4/4 681/4/4 680/4/4
f 684/4/4 683/4/4 682/4/4
f 686/4/4 684/4/4 682/4/4
f 686/4/4 685/4/4 684/4/4
f 687/4/4 685/4/4 686/4/4
f 688/4/4 682/4/4 679/4/4
f 688/4/4 686/4/4 682/4/4
f 689/4/4 686/4/4 688/4/4
f 690/4/4 678/4/4 677/4/4
f 690/1/4 679/1/4 678/1/4
f 691/4/4 688/4/4 679/4/4
f 691/1/4 679/1/4 690/1/4
f 692/4/4 688/4/4 691/4/4
f 693/4/4 688/4/4 692/4/4
f 694/8/4 677/8/4 676/8/4
f 694/4/4 690/4/4 677/4/4
f 695/4/4 690/4/4 694/4/4
f 697/4/4 692/4/4 691/4/4
f 698/4/4 692/4/4 697/4/4
f 699/4/4 692/4/4 698/4/4
f 700/4/4 697/4/4 696/4/4
f 700/4/4 698/4/4 697/4/4
f 701/4/4 698/4/4 700/4/4
f 702/8/4 676/8/4 665/8/4
f 702/8/4 694/8/4 676/8/4
f 703/8/4 694/8/4 702/8/4
f 704/8/4 702/8/4 665/8/4
f 704/9/4 703/9/4 702/9/4
f 705/9/4 703/9/4 704/9/4
f 706/8/4 704/8/4 665/8/4
f 706/8/4 705/8/4 704/8/4
f 707/8/4 705/8/4 706/8/4
f 708/8/5 709/8/5 710/8/5
f 710/8/5 709/8/5 711/8/5
f 710/4/5 711/4/5 712/4/5
f 711/8/5 709/8/5 713/8/5
f 712/4/5 711/4/5 713/4/5
f 712/8/5 713/8/5 714/8/5
f 713/8/5 709/8/5 715/8/5
f 714/8/5 713/8/5 715/8/5
f 716/4/5 717/4/5 718/4/5
f 718/4/5 717/4/5 719/4/5
f 720/4/5 721/4/5 723/4/5
f 723/4/5 721/4/5 724/4/5
f 722/4/5 723/4/5 726/4/5
f 724/4/5 725/4/5 726/4/5
f 723/4/5 724/4/5 726/4/5
f 726/4/5 725/4/5 727/4/5
f 727/4/5 725/4/5 728/4/5
f 728/4/5 725/4/5 729/4/5
f 716/4/5 718/4/5 730/4/5
f 727/4/5 728/4/5 731/4/5
f 716/4/5 730/4/5 732/4/5
f 730/4/5 731/4/5 732/4/5
f 731/4/5 728/4/5 733/4/5
f 732/4/5 731/4/5 733/4/5
f 734/4/5 735/4/5 736/4/5
f 736/4/5 735/4/5 737/4/5
f 734/4/5 736/4/5 738/4/5
f 738/4/5 736/4/5 739/4/5
f 737/4/5 735/4/5 740/4/5
f 740/4/5 735/4/5 741/4/5
f 742/4/5 743/4/5 744/4/5
f 744/4/5 743/4/5 745/4/5
f 746/4/5 747/4/5 750/4/5
f 750/4/5 747/4/5 751/4/5
f 748/4/5 749/4/5 752/4/5
f 752/4/5 749/4/5 753/4/5
f 742/4/5 744/4/5 756/4/5
f 754/4/5 755/4/5 757/4/5
f 742/4/5 756/4/5 758/4/5
f 756/4/5 757/4/5 758/4/5
f 757/4/5 755/4/5 759/4/5
f 758/4/5 757/4/5 759/4/5
f 760/4/5 761/4/5 762/4/5
f 762/4/5 761/4/5 763/4/5
f 760/4/5 762/4/5 764/4/5
f 764/4/5 762/4/5 765/4/5
f 763/4/5 761/4/5 766/4/5
f 766/4/5 761/4/5 767/4/5
f 770/8/6 769/8/6 768/8/6
f 771/8/6 769/8/6 770/8/6
f 774/8/6 773/8/6 772/8/6
f 775/8/6 773/8/6 774/8/6
f 776/8/6 774/8/6 772/8/6
f 777/8/6 774/8/6 776/8/6
f 782/8/6 779/8/6 778/8/6
f 782/9/6 780/9/6 779/9/6
f 783/8/6 781/8/6 780/8/6
f 783/9/6 780/9/6 782/9/6
f 784/8/6 783/8/6 782/8/6
f 784/8/6 781/8/6 783/8/6
f 785/8/6 781/8/6 784/8/6
f 786/8/6 782/8/6 778/8/6
f 786/8/6 784/8/6 782/8/6
f 787/8/6 784/8/6 786/8/6
f 788/8/6 784/8/6 787/8/6
f 789/8/6 784/8/6 788/8/6
f 790/8/6 784/8/6 789/8/6
f 791/8/6 784/8/6 790/8/6
f 792/8/6 784/8/6 791/8/6
f 793/8/6 784/8/6 792/8/6
f 794/9/6 785/9/6 784/9/6
f 794/8/6 784/8/6 793/8/6
f 795/8/6 781/8/6 785/8/6
f 795/9/6 785/9/6 794/9/6
f 796/8/6 776/8/6 772/8/6
f 797/8/6 774/8/6 777/8/6
f 798/8/6 786/8/6 778/8/6
f 798/9/6 787/9/6 786/9/6
f 799/8/6 788/8/6 787/8/6
f 799/9/6 787/9/6 798/9/6
f 800/9/6 789/9/6 788/9/6
f 800/8/6 788/8/6 799/8/6
f 801/8/6 790/8/6 789/8/6
f 801/9/6 789/9/6 800/9/6
f 802/9/6 791/9/6 790/9/6
f 802/8/6 790/8/6 801/8/6
f 803/8/6 792/8/6 791/8/6
f 803/9/6 791/9/6 802/9/6
f 804/9/6 793/9/6 792/9/6
f 804/8/6 792/8/6 803/8/6
f 805/8/6 794/8/6 793/8/6
f 805/9/6 793/9/6 804/9/6
f 805/8/6 795/8/6 794/8/6
f 806/8/6 781/8/6 795/8/6
f 806/8/6 795/8/6 805/8/6
f 807/8/6 781/8/6 806/8/6
f 808/8/6 805/8/6 804/8/6
f 808/8/6 804/8/6 803/8/6
f 808/9/6 807/9/6 806/9/6
f 808/8/6 806/8/6 805/8/6
f 808/8/6 803/8/6 802/8/6
f 808/8/6 802/8/6 801/8/6
f 808/8/6 801/8/6 800/8/6
f 808/8/6 800/8/6 799/8/6
f 808/8/6 799/8/6 798/8/6
f 809/8/6 781/8/6 807/8/6
f 809/9/6 807/9/6 808/9/6
f 810/8/6 808/8/6 798/8/6
f 810/8/6 809/8/6 808/8/6
f 811/8/6 809/8/6 810/8/6
f 812/8/6 796/8/6 772/8/6
f 812/8/6 797/8/6 796/8/6
f 813/8/6 774/8/6 797/8/6
f 813/8/6 797/8/6 812/8/6
f 814/8/6 810/8/6 798/8/6
f 815/8/6 810/8/6 814/8/6
f 816/9/6 811/9/6 810/9/6
f 816/8/6 810/8/6 815/8/6
f 817/8/6 809/8/6 811/8/6
f 817/9/6 811/9/6 816/9/6
f 818/8/6 798/8/6 778/8/6
f 818/8/6 814/8/6 798/8/6
f 819/8/6 814/8/6 818/8/6
f 820/8/6 814/8/6 819/8/6
f 821/8/6 814/8/6 820/8/6
f 822/9/6 815/9/6 814/9/6
f 822/8/6 814/8/6 821/8/6
f 823/8/6 816/8/6 815/8/6
f 823/9/6 815/9/6 822/9/6
f 823/8/6 817/8/6 816/8/6
f 824/8/6 818/8/6 778/8/6
f 824/9/6 819/9/6 818/9/6
f 825/8/6 820/8/6 819/8/6
f 825/9/6 819/9/6 824/9/6
f 826/9/6 821/9/6 820/9/6
f 826/8/6 820/8/6 825/8/6
f 827/8/6 822/8/6 821/8/6
f 827/9/6 821/9/6 826/9/6
f 827/8/6 823/8/6 822/8/6
f 828/8/6 817/8/6 823/8/6
f 828/8/6 823/8/6 827/8/6
f 829/8/6 817/8/6 828/8/6
f 830/8/6 826/8/6 825/8/6
f 830/8/6 825/8/6 824/8/6
f 830/9/6 829/9/6 828/9/6
f 830/8/6 828/8/6 827/8/6
f 830/8/6 827/8/6 826/8/6
f 831/8/6 817/8/6 829/8/6
f 831/9/6 829/9/6 830/9/6
f 832/8/6 809/8/6 817/8/6
f 832/8/6 817/8/6 831/8/6
f 833/8/6 809/8/6 832/8/6
f 834/8/6 830/8/6 824/8/6
f 834/8/6 831/8/6 830/8/6
f 834/8/6 824/8/6 778/8/6
f 834/8/6 832/8/6 831/8/6
f 835/8/6 832/8/6 834/8/6
f 836/8/6 832/8/6 835/8/6
f 837/8/6 832/8/6 836/8/6
f 838/8/6 832/8/6 837/8/6
f 839/8/6 832/8/6 838/8/6
f 840/8/6 832/8/6 839/8/6
f 841/8/6 832/8/6 840/8/6
f 842/9/6 833/9/6 832/9/6
f 842/8/6 832/8/6 841/8/6
f 843/8/6 809/8/6 833/8/6
f 843/9/6 833/9/6 842/9/6
f 844/8/6 834/8/6 778/8/6
f 844/9/6 835/9/6 834/9/6
f 845/8/6 836/8/6 835/8/6
f 845/9/6 835/9/6 844/9/6
f 846/8/6 836/8/6 845/8/6
f 847/9/6 837/9/6 836/9/6
f 847/8/6 836/8/6 846/8/6
f 848/8/6 838/8/6 837/8/6
f 848/9/6 837/9/6 847/9/6
f 849/9/6 839/9/6 838/9/6
f 849/8/6 838/8/6 848/8/6
f 850/8/6 840/8/6 839/8/6
f 850/9/6 839/9/6 849/9/6
f 851/9/6 841/9/6 840/9/6
f 851/8/6 840/8/6 850/8/6
f 852/8/6 842/8/6 841/8/6
f 852/9/6 841/9/6 851/9/6
f 852/8/6 843/8/6 842/8/6
f 853/8/6 843/8/6 852/8/6
f 854/8/6 843/8/6 853/8/6
f 855/8/6 809/8/6 843/8/6
f 855/8/6 843/8/6 854/8/6
f 856/8/6 809/8/6 855/8/6
f 857/8/6 845/8/6 844/8/6
f 857/8/6 846/8/6 845/8/6
f 857/9/6 847/9/6 846/9/6
f 858/8/6 851/8/6 850/8/6
f 858/9/6 847/9/6 857/9/6
f 858/8/6 850/8/6 849/8/6
f 858/8/6 853/8/6 852/8/6
f 858/8/6 852/8/6 851/8/6
f 858/8/6 849/8/6 848/8/6
f 858/8/6 848/8/6 847/8/6
f 859/9/6 854/9/6 853/9/6
f 859/8/6 853/8/6 858/8/6
f 860/8/6 855/8/6 854/8/6
f 860/9/6 854/9/6 859/9/6
f 861/9/6 856/9/6 855/9/6
f 861/8/6 855/8/6 860/8/6
f 862/8/6 809/8/6 856/8/6
f 862/9/6 856/9/6 861/9/6
f 863/8/6 857/8/6 844/8/6
f 863/8/6 859/8/6 858/8/6
f 863/8/6 862/8/6 861/8/6
f 863/8/6 860/8/6 859/8/6
f 863/8/6 844/8/6 778/8/6
f 863/8/6 861/8/6 860/8/6
f 863/8/6 858/8/6 857/8/6
f 864/8/6 862/8/6 863/8/6
f 865/8/6 862/8/6 864/8/6
f 866/8/6 862/8/6 865/8/6
f 867/8/6 862/8/6 866/8/6
f 868/8/6 862/8/6 867/8/6
f 869/8/6 863/8/6 778/8/6
f 869/9/6 864/9/6 863/9/6
f 870/8/6 865/8/6 864/8/6
f 870/9/6 864/9/6 869/9/6
f 871/8/6 865/8/6 870/8/6
f 872/8/6 865/8/6 871/8/6
f 873/9/6 866/9/6 865/9/6
f 873/8/6 865/8/6 872/8/6
f 874/8/6 867/8/6 866/8/6
f 874/9/6 866/9/6 873/9/6
f 875/8/6 867/8/6 874/8/6
f 876/8/6 867/8/6 875/8/6
f 877/8/6 867/8/6 876/8/6
f 878/8/6 867/8/6 877/8/6
f 879/9/6 868/9/6 867/9/6
f 879/8/6 867/8/6 878/8/6
f 880/8/6 862/8/6 868/8/6
f 880/9/6 868/9/6 879/9/6
f 881/9/6 872/9/6 871/9/6
f 881/8/6 870/8/6 869/8/6
f 881/8/6 871/8/6 870/8/6
f 882/8/6 873/8/6 872/8/6
f 882/9/6 872/9/6 881/9/6
f 882/8/6 874/8/6 873/8/6
f 882/8/6 875/8/6 874/8/6
f 883/9/6 876/9/6 875/9/6
f 883/8/6 875/8/6 882/8/6
f 884/8/6 877/8/6 876/8/6
f 884/9/6 876/9/6 883/9/6
f 885/9/6 878/9/6 877/9/6
f 885/8/6 877/8/6 884/8/6
f 886/8/6 879/8/6 878/8/6
f 886/9/6 878/9/6 885/9/6
f 886/8/6 880/8/6 879/8/6
f 887/8/6 862/8/6 880/8/6
f 887/8/6 880/8/6 886/8/6
f 888/8/6 809/8/6 862/8/6
f 888/8/6 862/8/6 887/8/6
f 889/8/6 809/8/6 888/8/6
f 890/8/6 781/8/6 809/8/6
f 890/8/6 809/8/6 889/8/6
f 891/8/6 887/8/6 886/8/6
f 891/8/6 885/8/6 884/8/6
f 891/8/6 884/8/6 883/8/6
f 891/8/6 886/8/6 885/8/6
f 891/8/6 883/8/6 882/8/6
f 891/8/6 882/8/6 881/8/6
f 891/8/6 881/8/6 869/8/6
f 892/8/6 887/8/6 891/8/6
f 893/9/6 888/9/6 887/9/6
f 893/8/6 887/8/6 892/8/6
f 894/8/6 889/8/6 888/8/6
f 894/9/6 888/9/6 893/9/6
f 895/9/6 890/9/6 889/9/6
f 895/8/6 889/8/6 894/8/6
f 896/8/6 781/8/6 890/8/6
f 896/9/6 890/9/6 895/9/6
f 897/8/6 891/8/6 869/8/6
f 898/8/6 891/8/6 897/8/6
f 899/9/6 892/9/6 891/9/6
f 899/8/6 891/8/6 898/8/6
f 900/8/6 893/8/6 892/8/6
f 900/9/6 892/9/6 899/9/6
f 900/8/6 895/8/6 894/8/6
f 900/8/6 894/8/6 893/8/6
f 900/8/6 896/8/6 895/8/6
f 901/8/6 897/8/6 869/8/6
f 901/9/6 898/9/6 897/9/6
f 902/8/6 899/8/6 898/8/6
f 902/9/6 898/9/6 901/9/6
f 902/8/6 900/8/6 899/8/6
f 903/8/6 896/8/6 900/8/6
f 903/8/6 900/8/6 902/8/6
f 904/8/6 896/8/6 903/8/6
f 905/8/6 901/8/6 869/8/6
f 905/8/6 902/8/6 901/8/6
f 905/8/6 869/8/6 778/8/6
f 905/8/6 903/8/6 902/8/6
f 906/8/6 903/8/6 905/8/6
f 907/8/6 903/8/6 906/8/6
f 908/8/6 903/8/6 907/8/6
f 909/8/6 903/8/6 908/8/6
f 910/8/6 903/8/6 909/8/6
f 911/8/6 903/8/6 910/8/6
f 912/8/6 903/8/6 911/8/6
f 913/8/6 903/8/6 912/8/6
f 914/8/6 903/8/6 913/8/6
f 915/9/6 904/9/6 903/9/6
f 915/8/6 903/8/6 914/8/6
f 916/8/6 896/8/6 904/8/6
f 916/9/6 904/9/6 915/9/6
f 917/8/6 896/8/6 916/8/6
f 918/8/6 896/8/6 917/8/6
f 919/8/6 905/8/6 778/8/6
f 919/9/6 906/9/6 905/9/6
f 920/8/6 907/8/6 906/8/6
f 920/9/6 906/9/6 919/9/6
f 921/9/6 908/9/6 907/9/6
f 921/8/6 907/8/6 920/8/6
f 922/8/6 909/8/6 908/8/6
f 922/9/6 908/9/6 921/9/6
f 923/9/6 910/9/6 909/9/6
f 923/8/6 909/8/6 922/8/6
f 924/8/6 911/8/6 910/8/6
f 924/9/6 910/9/6 923/9/6
f 925/9/6 912/9/6 911/9/6
f 925/8/6 911/8/6 924/8/6
f 926/8/6 913/8/6 912/8/6
f 926/9/6 912/9/6 925/9/6
f 927/9/6 914/9/6 913/9/6
f 927/8/6 913/8/6 926/8/6
f 928/8/6 915/8/6 914/8/6
f 928/9/6 914/9/6 927/9/6
f 928/8/6 916/8/6 915/8/6
f 928/8/6 917/8/6 916/8/6
f 929/9/6 918/9/6 917/9/6
f 929/8/6 917/8/6 928/8/6
f 930/8/6 896/8/6 918/8/6
f 930/9/6 918/9/6 929/9/6
f 931/8/6 896/8/6 930/8/6
f 932/8/6 896/8/6 931/8/6
f 933/8/6 896/8/6 932/8/6
f 934/8/6 896/8/6 933/8/6
f 935/8/6 927/8/6 926/8/6
f 935/8/6 926/8/6 925/8/6
f 935/8/6 929/8/6 928/8/6
f 935/8/6 928/8/6 927/8/6
f 935/8/6 920/8/6 919/8/6
f 935/8/6 931/8/6 930/8/6
f 935/8/6 930/8/6 929/8/6
f 935/8/6 925/8/6 924/8/6
f 935/8/6 924/8/6 923/8/6
f 935/8/6 923/8/6 922/8/6
f 935/8/6 922/8/6 921/8/6
f 935/8/6 921/8/6 920/8/6
f 936/8/6 931/8/6 935/8/6
f 937/9/6 932/9/6 931/9/6
f 937/8/6 931/8/6 936/8/6
f 938/8/6 933/8/6 932/8/6
f 938/9/6 932/9/6 937/9/6
f 939/9/6 934/9/6 933/9/6
f 939/8/6 933/8/6 938/8/6
f 940/8/6 896/8/6 934/8/6
f 940/9/6 934/9/6 939/9/6
f 941/8/6 896/8/6 940/8/6
f 942/8/6 896/8/6 941/8/6
f 943/8/6 812/8/6 772/8/6
f 944/8/6 774/8/6 813/8/6
f 945/8/6 939/8/6 938/8/6
f 945/8/6 938/8/6 937/8/6
f 945/8/6 937/8/6 936/8/6
f 945/8/6 940/8/6 939/8/6
f 945/8/6 941/8/6 940/8/6
f 946/8/6 941/8/6 945/8/6
f 947/9/6 942/9/6 941/9/6
f 947/8/6 941/8/6 946/8/6
f 948/8/6 896/8/6 942/8/6
f 948/9/6 942/9/6 947/9/6
f 949/8/6 935/8/6 919/8/6
f 950/8/6 935/8/6 949/8/6
f 951/8/6 935/8/6 950/8/6
f 952/8/6 935/8/6 951/8/6
f 953/8/6 935/8/6 952/8/6
f 954/8/6 935/8/6 953/8/6
f 955/9/6 936/9/6 935/9/6
f 955/8/6 935/8/6 954/8/6
f 956/8/6 945/8/6 936/8/6
f 956/9/6 936/9/6 955/9/6
f 957/8/6 945/8/6 956/8/6
f 958/8/6 945/8/6 957/8/6
f 959/9/6 946/9/6 945/9/6
f 959/8/6 945/8/6 958/8/6
f 960/8/6 947/8/6 946/8/6
f 960/9/6 946/9/6 959/9/6
f 960/8/6 948/8/6 947/8/6
f 961/8/6 949/8/6 919/8/6
f 961/9/6 950/9/6 949/9/6
f 962/8/6 951/8/6 950/8/6
f 962/9/6 950/9/6 961/9/6
f 963/9/6 952/9/6 951/9/6
f 963/8/6 951/8/6 962/8/6
f 964/8/6 953/8/6 952/8/6
f 964/9/6 952/9/6 963/9/6
f 965/8/6 953/8/6 964/8/6
f 966/8/6 953/8/6 965/8/6
f 967/9/6 954/9/6 953/9/6
f 967/8/6 953/8/6 966/8/6
f 968/8/6 955/8/6 954/8/6
f 968/9/6 954/9/6 967/9/6
f 968/8/6 957/8/6 956/8/6
f 968/8/6 956/8/6 955/8/6
f 969/9/6 958/9/6 957/9/6
f 969/8/6 957/8/6 968/8/6
f 970/8/6 959/8/6 958/8/6
f 970/9/6 958/9/6 969/9/6
f 970/8/6 960/8/6 959/8/6
f 971/8/6 944/8/6 943/8/6
f 971/8/6 943/8/6 772/8/6
f 972/8/6 774/8/6 944/8/6
f 972/8/6 944/8/6 971/8/6
f 973/9/6 966/9/6 965/9/6
f 973/8/6 965/8/6 964/8/6
f 973/8/6 964/8/6 963/8/6
f 973/8/6 963/8/6 962/8/6
f 973/8/6 962/8/6 961/8/6
f 974/8/6 969/8/6 968/8/6
f 974/9/6 966/9/6 973/9/6
f 974/8/6 970/8/6 969/8/6
f 974/8/6 968/8/6 967/8/6
f 974/8/6 967/8/6 966/8/6
f 975/8/6 960/8/6 970/8/6
f 975/8/6 970/8/6 974/8/6
f 975/8/6 974/8/6 973/8/6
f 975/8/6 948/8/6 960/8/6
f 976/8/6 896/8/6 948/8/6
f 976/8/6 948/8/6 975/8/6
f 977/8/6 975/8/6 973/8/6
f 977/8/6 973/8/6 961/8/6
f 977/8/6 961/8/6 919/8/6
f 978/8/6 975/8/6 977/8/6
f 979/8/6 977/8/6 919/8/6
f 979/9/6 978/9/6 977/9/6
f 980/8/6 975/8/6 978/8/6
f 980/9/6 978/9/6 979/9/6
f 981/8/6 975/8/6 980/8/6
f 982/8/6 975/8/6 981/8/6
f 983/8/6 975/8/6 982/8/6
f 984/8/6 975/8/6 983/8/6
f 985/8/6 975/8/6 984/8/6
f 986/8/6 975/8/6 985/8/6
f 987/8/6 975/8/6 986/8/6
f 988/8/6 975/8/6 987/8/6
f 989/9/6 976/9/6 975/9/6
f 989/8/6 975/8/6 988/8/6
f 990/8/6 896/8/6 976/8/6
f 990/9/6 976/9/6 989/9/6
f 991/8/6 979/8/6 919/8/6
f 991/8/6 980/8/6 979/8/6
f 991/8/6 981/8/6 980/8/6
f 992/8/6 981/8/6 991/8/6
f 993/9/6 982/9/6 981/9/6
f 993/8/6 981/8/6 992/8/6
f 994/8/6 983/8/6 982/8/6
f 994/9/6 982/9/6 993/9/6
f 995/9/6 984/9/6 983/9/6
f 995/8/6 983/8/6 994/8/6
f 996/8/6 985/8/6 984/8/6
f 996/9/6 984/9/6 995/9/6
f 997/9/6 986/9/6 985/9/6
f 997/8/6 985/8/6 996/8/6
f 998/8/6 987/8/6 986/8/6
f 998/9/6 986/9/6 997/9/6
f 999/8/6 987/8/6 998/8/6
f 1000/9/6 988/9/6 987/9/6
f 1000/8/6 987/8/6 999/8/6
f 1001/8/6 989/8/6 988/8/6
f 1001/9/6 988/9/6 1000/9/6
f 1001/8/6 990/8/6 989/8/6
f 1002/8/6 990/8/6 1001/8/6
f 1003/8/6 990/8/6 1002/8/6
f 1004/8/6 919/8/6 778/8/6
f 1004/8/6 991/8/6 919/8/6
f 1005/8/6 991/8/6 1004/8/6
f 1006/9/6 1000/9/6 999/9/6
f 1006/8/6 999/8/6 998/8/6
f 1006/8/6 998/8/6 997/8/6
f 1006/8/6 997/8/6 996/8/6
f 1006/8/6 993/8/6 992/8/6
f 1006/8/6 994/8/6 993/8/6
f 1006/8/6 995/8/6 994/8/6
f 1006/8/6 996/8/6 995/8/6
f 1007/8/6 1002/8/6 1001/8/6
f 1007/9/6 1000/9/6 1006/9/6
f 1007/8/6 1001/8/6 1000/8/6
f 1008/9/6 1003/9/6 1002/9/6
f 1008/8/6 1002/8/6 1007/8/6
f 1009/8/6 990/8/6 1003/8/6
f 1009/9/6 1003/9/6 1008/9/6
f 1010/9/6 1005/9/6 1004/9/6
f 1010/8/6 1004/8/6 778/8/6
f 1011/8/6 991/8/6 1005/8/6
f 1011/9/6 1005/9/6 1010/9/6
f 1012/9/6 992/9/6 991/9/6
f 1012/8/6 991/8/6 1011/8/6
f 1013/8/6 1008/8/6 1007/8/6
f 1013/9/6 992/9/6 1012/9/6
f 1013/8/6 1009/8/6 1008/8/6
f 1013/8/6 1007/8/6 1006/8/6
f 1013/8/6 1006/8/6 992/8/6
f 1014/8/6 1009/8/6 1013/8/6
f 1015/8/6 1009/8/6 1014/8/6
f 1016/8/6 1009/8/6 1015/8/6
f 1017/8/6 1009/8/6 1016/8/6
f 1018/8/6 1012/8/6 1011/8/6
f 1018/8/6 1011/8/6 1010/8/6
f 1018/8/6 1013/8/6 1012/8/6
f 1018/8/6 1014/8/6 1013/8/6
f 1018/9/6 1015/9/6 1014/9/6
f 1019/8/6 1016/8/6 1015/8/6
f 1019/9/6 1015/9/6 1018/9/6
f 1020/9/6 1017/9/6 1016/9/6
f 1020/8/6 1016/8/6 1019/8/6
f 1021/8/6 1009/8/6 1017/8/6
f 1021/9/6 1017/9/6 1020/9/6
f 1022/8/6 1020/8/6 1019/8/6
f 1022/8/6 1019/8/6 1018/8/6
f 1022/8/6 1021/8/6 1020/8/6
f 1022/8/6 1018/8/6 1010/8/6
f 1023/8/6 1021/8/6 1022/8/6
f 1024/8/6 1022/8/6 1010/8/6
f 1024/9/6 1023/9/6 1022/9/6
f 1025/8/6 1021/8/6 1023/8/6
f 1025/9/6 1023/9/6 1024/9/6
f 1026/8/6 971/8/6 772/8/6
f 1027/8/6 774/8/6 972/8/6
f 1028/8/6 774/8/6 1027/8/6
f 1028/8/6 1027/8/6 1026/8/6
f 1029/8/6 1010/8/6 778/8/6
f 1029/8/6 1024/8/6 1010/8/6
f 1029/8/6 1025/8/6 1024/8/6
f 1030/8/6 1021/8/6 1025/8/6
f 1030/8/6 1025/8/6 1029/8/6
f 1031/8/6 1021/8/6 1030/8/6
f 1032/8/6 1029/8/6 1028/8/6
f 1032/8/6 1030/8/6 1029/8/6
f 1032/9/6 1031/9/6 1030/9/6
f 1033/8/6 1021/8/6 1031/8/6
f 1033/9/6 1031/9/6 1032/9/6
f 1034/8/6 1028/8/6 1026/8/6
f 1034/8/6 1032/8/6 1028/8/6
f 1034/8/6 1033/8/6 1032/8/6
f 1034/8/6 1026/8/6 772/8/6
f 1035/8/6 1021/8/6 1033/8/6
f 1035/8/6 1033/8/6 1034/8/6
f 1035/8/6 990/8/6 1009/8/6
f 1035/8/6 896/8/6 990/8/6
f 1035/8/6 1009/8/6 1021/8/6
f 1035/8/6 781/8/6 896/8/6
f 1040/4/6 1037/4/6 1036/4/6
f 1040/4/6 1039/4/6 1038/4/6
f 1040/4/6 1038/4/6 1037/4/6
f 1041/4/6 1039/4/6 1040/4/6
f 1042/4/6 1040/4/6 1036/4/6
f 1043/4/6 1040/4/6 1042/4/6
f 1044/4/6 1040/4/6 1043/4/6
f 1045/5/6 1041/5/6 1040/5/6
f 1045/4/6 1040/4/6 1044/4/6
f 1046/4/6 1039/4/6 1041/4/6
f 1046/5/6 1041/5/6 1045/5/6
f 1047/4/6 1039/4/6 1046/4/6
f 1048/4/6 1039/4/6 1047/4/6
f 1049/4/6 1039/4/6 1048/4/6
f 1050/4/6 1042/4/6 1036/4/6
f 1051/5/6 1043/5/6 1042/5/6
f 1051/4/6 1042/4/6 1050/4/6
f 1052/4/6 1044/4/6 1043/4/6
f 1052/5/6 1043/5/6 1051/5/6
f 1053/4/6 1044/4/6 1052/4/6
f 1054/4/6 1039/4/6 1049/4/6
f 1054/5/6 1049/5/6 1048/5/6
f 1055/4/6 1039/4/6 1054/4/6
f 1056/4/6 1050/4/6 1036/4/6
f 1057/5/6 1051/5/6 1050/5/6
f 1057/4/6 1050/4/6 1056/4/6
f 1057/5/6 1053/5/6 1052/5/6
f 1057/5/6 1052/5/6 1051/5/6
f 1058/4/6 1044/4/6 1053/4/6
f 1059/5/6 1045/5/6 1044/5/6
f 1059/4/6 1044/4/6 1058/4/6
f 1059/5/6 1046/5/6 1045/5/6
f 1059/5/6 1047/5/6 1046/5/6
f 1060/4/6 1048/4/6 1047/4/6
f 1060/5/6 1047/5/6 1059/5/6
f 1061/4/6 1048/4/6 1060/4/6
f 1062/5/6 1053/5/6 1057/5/6
f 1062/5/6 1057/5/6 1056/5/6
f 1063/5/6 1053/5/6 1062/5/6
f 1064/4/6 1058/4/6 1053/4/6
f 1064/5/6 1061/5/6 1060/5/6
f 1064/5/6 1059/5/6 1058/5/6
f 1064/5/6 1060/5/6 1059/5/6
f 1065/5/6 1061/5/6 1064/5/6
f 1066/5/6 1061/5/6 1065/5/6
f 1067/5/6 1061/5/6 1066/5/6
f 1068/4/6 1048/4/6 1061/4/6
f 1069/4/6 1048/4/6 1068/4/6
f 1070/5/6 1054/5/6 1048/5/6
f 1070/4/6 1048/4/6 1069/4/6
f 1070/5/6 1055/5/6 1054/5/6
f 1071/5/6 1055/5/6 1070/5/6
f 1072/5/6 1055/5/6 1071/5/6
f 1073/4/6 1039/4/6 1055/4/6
f 1073/5/6 1055/5/6 1072/5/6
f 1074/4/6 1056/4/6 1036/4/6
f 1075/5/6 1062/5/6 1056/5/6
f 1075/4/6 1056/4/6 1074/4/6
f 1076/5/6 1053/5/6 1063/5/6
f 1076/6/6 1063/6/6 1062/6/6
f 1077/5/6 1053/5/6 1076/5/6
f 1078/4/6 1064/4/6 1053/4/6
f 1078/5/6 1053/5/6 1077/5/6
f 1079/6/6 1065/6/6 1064/6/6
f 1079/5/6 1066/5/6 1065/5/6
f 1080/6/6 1067/6/6 1066/6/6
f 1080/5/6 1066/5/6 1079/5/6
f 1081/5/6 1061/5/6 1067/5/6
f 1081/6/6 1067/6/6 1080/6/6
f 1082/5/6 1061/5/6 1081/5/6
f 1083/5/6 1072/5/6 1071/5/6
f 1084/4/6 1073/4/6 1072/4/6
f 1084/5/6 1072/5/6 1083/5/6
f 1085/5/6 1061/5/6 1082/5/6
f 1085/4/6 1068/4/6 1061/4/6
f 1086/4/6 1068/4/6 1085/4/6
f 1087/5/6 1083/5/6 1071/5/6
f 1088/4/6 1084/4/6 1083/4/6
f 1088/5/6 1083/5/6 1087/5/6
f 1089/4/6 1064/4/6 1078/4/6
f 1089/4/6 1078/4/6 1077/4/6
f 1090/6/6 1080/6/6 1079/6/6
f 1090/4/6 1064/4/6 1089/4/6
f 1090/6/6 1079/6/6 1064/6/6
f 1090/6/6 1081/6/6 1080/6/6
f 1090/6/6 1082/6/6 1081/6/6
f 1091/5/6 1086/5/6 1085/5/6
f 1091/4/6 1068/4/6 1086/4/6
f 1092/4/6 1068/4/6 1091/4/6
f 1093/5/6 1069/5/6 1068/5/6
f 1093/4/6 1068/4/6 1092/4/6
f 1094/6/6 1070/6/6 1069/6/6
f 1094/5/6 1069/5/6 1093/5/6
f 1094/6/6 1071/6/6 1070/6/6
f 1095/6/6 1071/6/6 1094/6/6
f 1096/6/6 1071/6/6 1095/6/6
f 1097/5/6 1087/5/6 1071/5/6
f 1097/6/6 1071/6/6 1096/6/6
f 1098/6/6 1088/6/6 1087/6/6
f 1098/5/6 1087/5/6 1097/5/6
f 1099/6/6 1088/6/6 1098/6/6
f 1100/4/6 1084/4/6 1088/4/6
f 1100/6/6 1088/6/6 1099/6/6
f 1101/4/6 1073/4/6 1084/4/6
f 1101/4/6 1084/4/6 1100/4/6
f 1102/5/6 1062/5/6 1075/5/6
f 1102/5/6 1075/5/6 1074/5/6
f 1102/6/6 1077/6/6 1076/6/6
f 1102/6/6 1076/6/6 1062/6/6
f 1103/6/6 1077/6/6 1102/6/6
f 1104/6/6 1077/6/6 1103/6/6
f 1105/4/6 1089/4/6 1077/4/6
f 1105/6/6 1077/6/6 1104/6/6
f 1106/5/6 1095/5/6 1094/5/6
f 1107/6/6 1096/6/6 1095/6/6
f 1107/5/6 1095/5/6 1106/5/6
f 1108/5/6 1103/5/6 1102/5/6
f 1109/6/6 1104/6/6 1103/6/6
f 1109/5/6 1103/5/6 1108/5/6
f 1110/5/6 1090/5/6 1089/5/6
f 1110/4/6 1089/4/6 1105/4/6
f 1111/5/6 1090/5/6 1110/5/6
f 1112/5/6 1092/5/6 1091/5/6
f 1112/6/6 1082/6/6 1090/6/6
f 1112/5/6 1091/5/6 1085/5/6
f 1112/5/6 1085/5/6 1082/5/6
f 1113/5/6 1092/5/6 1112/5/6
f 1114/5/6 1097/5/6 1096/5/6
f 1114/6/6 1107/6/6 1106/6/6
f 1114/6/6 1096/6/6 1107/6/6
f 1115/6/6 1098/6/6 1097/6/6
f 1115/5/6 1097/5/6 1114/5/6
f 1115/6/6 1099/6/6 1098/6/6
f 1116/5/6 1100/5/6 1099/5/6
f 1116/6/6 1099/6/6 1115/6/6
f 1116/5/6 1101/5/6 1100/5/6
f 1117/5/6 1101/5/6 1116/5/6
f 1118/5/6 1101/5/6 1117/5/6
f 1119/4/6 1073/4/6 1101/4/6
f 1119/5/6 1101/5/6 1118/5/6
f 1120/5/6 1105/5/6 1104/5/6
f 1120/6/6 1104/6/6 1109/6/6
f 1120/6/6 1109/6/6 1108/6/6
f 1121/4/6 1111/4/6 1110/4/6
f 1121/5/6 1105/5/6 1120/5/6
f 1121/4/6 1110/4/6 1105/4/6
f 1122/4/6 1111/4/6 1121/4/6
f 1123/4/6 1111/4/6 1122/4/6
f 1124/5/6 1092/5/6 1113/5/6
f 1124/6/6 1113/6/6 1112/6/6
f 1125/6/6 1093/6/6 1092/6/6
f 1125/5/6 1092/5/6 1124/5/6
f 1125/6/6 1094/6/6 1093/6/6
f 1126/5/6 1106/5/6 1094/5/6
f 1126/6/6 1094/6/6 1125/6/6
f 1127/6/6 1115/6/6 1114/6/6
f 1127/5/6 1106/5/6 1126/5/6
f 1127/6/6 1114/6/6 1106/6/6
f 1127/6/6 1116/6/6 1115/6/6
f 1127/6/6 1117/6/6 1116/6/6
f 1128/4/6 1111/4/6 1123/4/6
f 1128/5/6 1123/5/6 1122/5/6
f 1129/4/6 1111/4/6 1128/4/6
f 1130/6/6 1126/6/6 1125/6/6
f 1130/6/6 1125/6/6 1124/6/6
f 1130/6/6 1124/6/6 1112/6/6
f 1130/6/6 1127/6/6 1126/6/6
f 1131/6/6 1127/6/6 1130/6/6
f 1132/6/6 1120/6/6 1108/6/6
f 1133/4/6 1121/4/6 1120/4/6
f 1133/6/6 1120/6/6 1132/6/6
f 1133/4/6 1122/4/6 1121/4/6
f 1134/5/6 1129/5/6 1128/5/6
f 1134/4/6 1122/4/6 1133/4/6
f 1134/5/6 1128/5/6 1122/5/6
f 1135/4/6 1111/4/6 1129/4/6
f 1135/5/6 1129/5/6 1134/5/6
f 1136/5/6 1090/5/6 1111/5/6
f 1136/4/6 1111/4/6 1135/4/6
f 1137/6/6 1112/6/6 1090/6/6
f 1137/6/6 1130/6/6 1112/6/6
f 1138/5/6 1131/5/6 1130/5/6
f 1138/6/6 1130/6/6 1137/6/6
f 1139/6/6 1127/6/6 1131/6/6
f 1139/5/6 1131/5/6 1138/5/6
f 1140/6/6 1127/6/6 1139/6/6
f 1141/5/6 1108/5/6 1102/5/6
f 1141/5/6 1102/5/6 1074/5/6
f 1142/5/6 1108/5/6 1141/5/6
f 1143/5/6 1134/5/6 1133/5/6
f 1143/5/6 1135/5/6 1134/5/6
f 1143/5/6 1133/5/6 1132/5/6
f 1143/6/6 1132/6/6 1108/6/6
f 1143/5/6 1136/5/6 1135/5/6
f 1144/5/6 1136/5/6 1143/5/6
f 1145/5/6 1136/5/6 1144/5/6
f 1146/5/6 1136/5/6 1145/5/6
f 1147/5/6 1090/5/6 1136/5/6
f 1147/5/6 1136/5/6 1146/5/6
f 1148/6/6 1137/6/6 1090/6/6
f 1148/5/6 1090/5/6 1147/5/6
f 1149/5/6 1139/5/6 1138/5/6
f 1149/5/6 1138/5/6 1137/5/6
f 1149/5/6 1140/5/6 1139/5/6
f 1150/5/6 1140/5/6 1149/5/6
f 1151/5/6 1118/5/6 1117/5/6
f 1151/6/6 1127/6/6 1140/6/6
f 1151/6/6 1117/6/6 1127/6/6
f 1152/5/6 1118/5/6 1151/5/6
f 1153/4/6 1119/4/6 1118/4/6
f 1153/5/6 1118/5/6 1152/5/6
f 1154/4/6 1119/4/6 1153/4/6
f 1155/6/6 1143/6/6 1108/6/6
f 1155/6/6 1144/6/6 1143/6/6
f 1156/6/6 1144/6/6 1155/6/6
f 1157/6/6 1144/6/6 1156/6/6
f 1158/5/6 1145/5/6 1144/5/6
f 1158/6/6 1144/6/6 1157/6/6
f 1159/5/6 1145/5/6 1158/5/6
f 1160/6/6 1146/6/6 1145/6/6
f 1160/5/6 1145/5/6 1159/5/6
f 1161/5/6 1147/5/6 1146/5/6
f 1161/6/6 1146/6/6 1160/6/6
f 1162/6/6 1148/6/6 1147/6/6
f 1162/5/6 1147/5/6 1161/5/6
f 1163/4/6 1152/4/6 1151/4/6
f 1163/6/6 1151/6/6 1140/6/6
f 1164/5/6 1154/5/6 1153/5/6
f 1164/4/6 1152/4/6 1163/4/6
f 1164/5/6 1153/5/6 1152/5/6
f 1165/5/6 1159/5/6 1158/5/6
f 1165/5/6 1158/5/6 1157/5/6
f 1166/6/6 1161/6/6 1160/6/6
f 1166/5/6 1159/5/6 1165/5/6
f 1166/6/6 1160/6/6 1159/6/6
f 1166/6/6 1162/6/6 1161/6/6
f 1167/5/6 1149/5/6 1137/5/6
f 1168/4/6 1150/4/6 1149/4/6
f 1168/5/6 1149/5/6 1167/5/6
f 1169/5/6 1108/5/6 1142/5/6
f 1169/6/6 1155/6/6 1108/6/6
f 1170/6/6 1155/6/6 1169/6/6
f 1171/5/6 1156/5/6 1155/5/6
f 1171/6/6 1155/6/6 1170/6/6
f 1172/6/6 1157/6/6 1156/6/6
f 1172/5/6 1156/5/6 1171/5/6
f 1173/6/6 1157/6/6 1172/6/6
f 1174/5/6 1165/5/6 1157/5/6
f 1174/6/6 1157/6/6 1173/6/6
f 1175/5/6 1167/5/6 1137/5/6
f 1176/4/6 1168/4/6 1167/4/6
f 1176/5/6 1167/5/6 1175/5/6
f 1177/6/6 1163/6/6 1140/6/6
f 1178/5/6 1164/5/6 1163/5/6
f 1178/6/6 1163/6/6 1177/6/6
f 1179/4/6 1074/4/6 1036/4/6
f 1179/5/6 1141/5/6 1074/5/6
f 1180/4/6 1142/4/6 1141/4/6
f 1180/5/6 1141/5/6 1179/5/6
f 1181/6/6 1173/6/6 1172/6/6
f 1181/5/6 1170/5/6 1169/5/6
f 1181/6/6 1171/6/6 1170/6/6
f 1181/6/6 1172/6/6 1171/6/6
f 1182/6/6 1173/6/6 1181/6/6
f 1183/4/6 1176/4/6 1175/4/6
f 1183/5/6 1175/5/6 1137/5/6
f 1184/4/6 1168/4/6 1176/4/6
f 1184/4/6 1176/4/6 1183/4/6
f 1185/5/6 1140/5/6 1150/5/6
f 1185/4/6 1168/4/6 1184/4/6
f 1185/4/6 1150/4/6 1168/4/6
f 1186/5/6 1140/5/6 1185/5/6
f 1187/6/6 1173/6/6 1182/6/6
f 1187/5/6 1182/5/6 1181/5/6
f 1188/5/6 1174/5/6 1173/5/6
f 1188/6/6 1173/6/6 1187/6/6
f 1189/5/6 1165/5/6 1174/5/6
f 1189/5/6 1174/5/6 1188/5/6
f 1189/6/6 1166/6/6 1165/6/6
f 1190/6/6 1162/6/6 1166/6/6
f 1190/6/6 1166/6/6 1189/6/6
f 1191/5/6 1140/5/6 1186/5/6
f 1191/6/6 1177/6/6 1140/6/6
f 1192/5/6 1178/5/6 1177/5/6
f 1192/6/6 1177/6/6 1191/6/6
f 1193/5/6 1154/5/6 1164/5/6
f 1193/5/6 1178/5/6 1192/5/6
f 1193/5/6 1164/5/6 1178/5/6
f 1193/4/6 1119/4/6 1154/4/6
f 1194/5/6 1188/5/6 1187/5/6
f 1194/5/6 1181/5/6 1169/5/6
f 1194/5/6 1187/5/6 1181/5/6
f 1194/5/6 1189/5/6 1188/5/6
f 1194/5/6 1190/5/6 1189/5/6
f 1194/4/6 1142/4/6 1180/4/6
f 1194/4/6 1180/4/6 1179/4/6
f 1194/5/6 1169/5/6 1142/5/6
f 1195/5/6 1190/5/6 1194/5/6
f 1196/6/6 1137/6/6 1148/6/6
f 1196/6/6 1148/6/6 1162/6/6
f 1196/6/6 1162/6/6 1190/6/6
f 1197/5/6 1184/5/6 1183/5/6
f 1197/6/6 1137/6/6 1196/6/6
f 1197/5/6 1183/5/6 1137/5/6
f 1198/6/6 1196/6/6 1190/6/6
f 1198/5/6 1190/5/6 1195/5/6
f 1199/5/6 1197/5/6 1196/5/6
f 1199/6/6 1196/6/6 1198/6/6
f 1200/5/6 1197/5/6 1199/5/6
f 1201/5/6 1184/5/6 1197/5/6
f 1201/5/6 1197/5/6 1200/5/6
f 1202/5/6 1192/5/6 1191/5/6
f 1202/4/6 1185/4/6 1184/4/6
f 1202/5/6 1191/5/6 1186/5/6
f 1202/4/6 1186/4/6 1185/4/6
f 1203/4/6 1193/4/6 1192/4/6
f 1203/5/6 1192/5/6 1202/5/6
f 1204/5/6 1200/5/6 1199/5/6
f 1204/5/6 1199/5/6 1198/5/6
f 1204/5/6 1198/5/6 1195/5/6
f 1204/4/6 1195/4/6 1194/4/6
f 1205/5/6 1200/5/6 1204/5/6
f 1206/5/6 1184/5/6 1201/5/6
f 1206/4/6 1201/4/6 1200/4/6
f 1207/4/6 1202/4/6 1184/4/6
f 1207/5/6 1184/5/6 1206/5/6
f 1207/4/6 1203/4/6 1202/4/6
f 1208/4/6 1179/4/6 1036/4/6
f 1208/4/6 1205/4/6 1204/4/6
f 1208/4/6 1204/4/6 1194/4/6
f 1208/4/6 1194/4/6 1179/4/6
f 1209/5/6 1200/5/6 1205/5/6
f 1209/4/6 1205/4/6 1208/4/6
f 1210/4/6 1206/4/6 1200/4/6
f 1210/5/6 1200/5/6 1209/5/6
f 1210/4/6 1207/4/6 1206/4/6
f 1211/4/6 1193/4/6 1203/4/6
f 1211/4/6 1207/4/6 1210/4/6
f 1211/4/6 1039/4/6 1073/4/6
f 1211/4/6 1073/4/6 1119/4/6
f 1211/4/6 1203/4/6 1207/4/6
f 1211/4/6 1119/4/6 1193/4/6
f 1214/8/6 1213/8/6 1212/8/6
f 1215/8/6 1213/8/6 1214/8/6
f 1216/8/6 1214/8/6 1212/8/6
f 1217/8/6 1214/8/6 1216/8/6
f 1218/8/6 1213/8/6 1215/8/6
f 1219/8/6 1213/8/6 1218/8/6
f 1220/8/6 1218/8/6 1215/8/6
f 1220/9/6 1219/9/6 1218/9/6
f 1221/8/6 1213/8/6 1219/8/6
f 1221/9/6 1219/9/6 1220/9/6
f 1222/8/6 1221/8/6 1220/8/6
f 1222/8/6 1213/8/6 1221/8/6
f 1223/8/6 1213/8/6 1222/8/6
f 1224/8/6 1222/8/6 1220/8/6
f 1224/9/6 1223/9/6 1222/9/6
f 1225/8/6 1213/8/6 1223/8/6
f 1225/9/6 1223/9/6 1224/9/6
f 1226/8/6 1224/8/6 1220/8/6
f 1226/8/6 1225/8/6 1224/8/6
f 1227/8/6 1225/8/6 1226/8/6
f 1228/8/6 1226/8/6 1220/8/6
f 1228/9/6 1227/9/6 1226/9/6
f 1229/8/6 1225/8/6 1227/8/6
f 1229/9/6 1227/9/6 1228/9/6
f 1230/8/6 1213/8/6 1225/8/6
f 1230/8/6 1225/8/6 1229/8/6
f 1231/8/6 1213/8/6 1230/8/6
f 1232/8/6 1220/8/6 1215/8/6
f 1232/8/6 1229/8/6 1228/8/6
f 1232/8/6 1228/8/6 1220/8/6
f 1232/8/6 1230/8/6 1229/8/6
f 1233/8/6 1230/8/6 1232/8/6
f 1234/8/6 1230/8/6 1233/8/6
f 1235/8/6 1230/8/6 1234/8/6
f 1236/8/6 1230/8/6 1235/8/6
f 1237/8/6 1230/8/6 1236/8/6
f 1238/9/6 1231/9/6 1230/9/6
f 1238/8/6 1230/8/6 1237/8/6
f 1239/8/6 1213/8/6 1231/8/6
f 1239/9/6 1231/9/6 1238/9/6
f 1240/8/6 1213/8/6 1239/8/6
f 1241/8/6 1213/8/6 1240/8/6
f 1242/8/6 1232/8/6 1215/8/6
f 1242/9/6 1233/9/6 1232/9/6
f 1243/8/6 1234/8/6 1233/8/6
f 1243/9/6 1233/9/6 1242/9/6
f 1244/9/6 1235/9/6 1234/9/6
f 1244/8/6 1234/8/6 1243/8/6
f 1245/8/6 1236/8/6 1235/8/6
f 1245/9/6 1235/9/6 1244/9/6
f 1246/9/6 1237/9/6 1236/9/6
f 1246/8/6 1236/8/6 1245/8/6
f 1247/8/6 1238/8/6 1237/8/6
f 1247/9/6 1237/9/6 1246/9/6
f 1247/8/6 1239/8/6 1238/8/6
f 1247/8/6 1240/8/6 1239/8/6
f 1248/9/6 1241/9/6 1240/9/6
f 1248/8/6 1240/8/6 1247/8/6
f 1249/8/6 1213/8/6 1241/8/6
f 1249/9/6 1241/9/6 1248/9/6
f 1250/8/6 1246/8/6 1245/8/6
f 1250/8/6 1245/8/6 1244/8/6
f 1250/8/6 1249/8/6 1248/8/6
f 1250/8/6 1244/8/6 1243/8/6
f 1250/8/6 1243/8/6 1242/8/6
f 1250/8/6 1248/8/6 1247/8/6
f 1250/8/6 1247/8/6 1246/8/6
f 1251/8/6 1249/8/6 1250/8/6
f 1252/8/6 1249/8/6 1251/8/6
f 1253/8/6 1249/8/6 1252/8/6
f 1254/8/6 1249/8/6 1253/8/6
f 1255/8/6 1249/8/6 1254/8/6
f 1256/8/6 1250/8/6 1242/8/6
f 1257/8/6 1250/8/6 1256/8/6
f 1258/9/6 1251/9/6 1250/9/6
f 1258/8/6 1250/8/6 1257/8/6
f 1259/8/6 1252/8/6 1251/8/6
f 1259/9/6 1251/9/6 1258/9/6
f 1260/9/6 1253/9/6 1252/9/6
f 1260/8/6 1252/8/6 1259/8/6
f 1261/8/6 1254/8/6 1253/8/6
f 1261/9/6 1253/9/6 1260/9/6
f 1262/9/6 1255/9/6 1254/9/6
f 1262/8/6 1254/8/6 1261/8/6
f 1263/8/6 1249/8/6 1255/8/6
f 1263/9/6 1255/9/6 1262/9/6
f 1264/8/6 1213/8/6 1249/8/6
f 1264/8/6 1249/8/6 1263/8/6
f 1265/8/6 1213/8/6 1264/8/6
f 1266/8/6 1242/8/6 1215/8/6
f 1266/8/6 1256/8/6 1242/8/6
f 1267/8/6 1256/8/6 1266/8/6
f 1268/9/6 1257/9/6 1256/9/6
f 1268/8/6 1256/8/6 1267/8/6
f 1269/8/6 1263/8/6 1262/8/6
f 1269/9/6 1257/9/6 1268/9/6
f 1269/8/6 1262/8/6 1261/8/6
f 1269/8/6 1258/8/6 1257/8/6
f 1269/8/6 1264/8/6 1263/8/6
f 1269/8/6 1259/8/6 1258/8/6
f 1269/8/6 1261/8/6 1260/8/6
f 1269/8/6 1260/8/6 1259/8/6
f 1270/9/6 1265/9/6 1264/9/6
f 1270/8/6 1264/8/6 1269/8/6
f 1271/8/6 1213/8/6 1265/8/6
f 1271/9/6 1265/9/6 1270/9/6
f 1272/8/6 1216/8/6 1212/8/6
f 1273/8/6 1214/8/6 1217/8/6
f 1274/8/6 1266/8/6 1215/8/6
f 1274/9/6 1267/9/6 1266/9/6
f 1275/8/6 1268/8/6 1267/8/6
f 1275/9/6 1267/9/6 1274/9/6
f 1275/8/6 1270/8/6 1269/8/6
f 1275/8/6 1269/8/6 1268/8/6
f 1275/8/6 1271/8/6 1270/8/6
f 1276/8/6 1275/8/6 1274/8/6
f 1276/8/6 1271/8/6 1275/8/6
f 1277/8/6 1271/8/6 1276/8/6
f 1278/8/6 1271/8/6 1277/8/6
f 1279/8/6 1271/8/6 1278/8/6
f 1280/8/6 1271/8/6 1279/8/6
f 1281/8/6 1271/8/6 1280/8/6
f 1282/8/6 1276/8/6 1274/8/6
f 1282/9/6 1277/9/6 1276/9/6
f 1283/8/6 1278/8/6 1277/8/6
f 1283/9/6 1277/9/6 1282/9/6
f 1284/8/6 1278/8/6 1283/8/6
f 1285/8/6 1278/8/6 1284/8/6
f 1286/9/6 1281/9/6 1280/9/6
f 1286/8/6 1280/8/6 1279/8/6
f 1287/8/6 1271/8/6 1281/8/6
f 1287/9/6 1281/9/6 1286/9/6
f 1288/8/6 1272/8/6 1212/8/6
f 1288/8/6 1273/8/6 1272/8/6
f 1289/8/6 1214/8/6 1273/8/6
f 1289/8/6 1273/8/6 1288/8/6
f 1290/9/6 1285/9/6 1284/9/6
f 1290/8/6 1283/8/6 1282/8/6
f 1290/8/6 1284/8/6 1283/8/6
f 1291/8/6 1278/8/6 1285/8/6
f 1291/9/6 1285/9/6 1290/9/6
f 1292/9/6 1279/9/6 1278/9/6
f 1292/8/6 1278/8/6 1291/8/6
f 1293/8/6 1287/8/6 1286/8/6
f 1293/9/6 1279/9/6 1292/9/6
f 1293/8/6 1286/8/6 1279/8/6
f 1294/8/6 1292/8/6 1291/8/6
f 1294/8/6 1287/8/6 1293/8/6
f 1294/8/6 1293/8/6 1292/8/6
f 1294/8/6 1291/8/6 1290/8/6
f 1295/8/6 1287/8/6 1294/8/6
f 1296/8/6 1287/8/6 1295/8/6
f 1297/8/6 1287/8/6 1296/8/6
f 1298/8/6 1290/8/6 1282/8/6
f 1298/8/6 1294/8/6 1290/8/6
f 1299/8/6 1294/8/6 1298/8/6
f 1300/8/6 1294/8/6 1299/8/6
f 1301/8/6 1294/8/6 1300/8/6
f 1302/9/6 1295/9/6 1294/9/6
f 1302/8/6 1294/8/6 1301/8/6
f 1303/8/6 1296/8/6 1295/8/6
f 1303/9/6 1295/9/6 1302/9/6
f 1304/9/6 1297/9/6 1296/9/6
f 1304/8/6 1296/8/6 1303/8/6
f 1305/8/6 1287/8/6 1297/8/6
f 1305/9/6 1297/9/6 1304/9/6
f 1306/8/6 1271/8/6 1287/8/6
f 1306/8/6 1287/8/6 1305/8/6
f 1307/8/6 1271/8/6 1306/8/6
f 1308/8/6 1298/8/6 1282/8/6
f 1308/9/6 1299/9/6 1298/9/6
f 1309/8/6 1300/8/6 1299/8/6
f 1309/9/6 1299/9/6 1308/9/6
f 1310/9/6 1301/9/6 1300/9/6
f 1310/8/6 1300/8/6 1309/8/6
f 1311/9/6 1301/9/6 1310/9/6
f 1312/8/6 1305/8/6 1304/8/6
f 1312/8/6 1304/8/6 1303/8/6
f 1312/8/6 1303/8/6 1302/8/6
f 1312/8/6 1302/8/6 1301/8/6
f 1312/8/6 1306/8/6 1305/8/6
f 1313/8/6 1306/8/6 1312/8/6
f 1314/9/6 1307/9/6 1306/9/6
f 1314/8/6 1306/8/6 1313/8/6
f 1315/8/6 1271/8/6 1307/8/6
f 1315/9/6 1307/9/6 1314/9/6
f 1316/9/6 1301/9/6 1311/9/6
f 1316/8/6 1311/8/6 1310/8/6
f 1316/8/6 1310/8/6 1309/8/6
f 1316/8/6 1309/8/6 1308/8/6
f 1317/8/6 1312/8/6 1301/8/6
f 1317/9/6 1301/9/6 1316/9/6
f 1318/9/6 1313/9/6 1312/9/6
f 1318/8/6 1312/8/6 1317/8/6
f 1319/8/6 1315/8/6 1314/8/6
f 1319/9/6 1313/9/6 1318/9/6
f 1319/8/6 1314/8/6 1313/8/6
f 1320/8/6 1318/8/6 1317/8/6
f 1320/8/6 1317/8/6 1316/8/6
f 1320/8/6 1319/8/6 1318/8/6
f 1321/8/6 1319/8/6 1320/8/6
f 1322/8/6 1319/8/6 1321/8/6
f 1323/8/6 1319/8/6 1322/8/6
f 1324/8/6 1315/8/6 1319/8/6
f 1324/8/6 1319/8/6 1323/8/6
f 1325/8/6 1271/8/6 1315/8/6
f 1325/8/6 1315/8/6 1324/8/6
f 1326/8/6 1316/8/6 1308/8/6
f 1326/8/6 1320/8/6 1316/8/6
f 1327/8/6 1320/8/6 1326/8/6
f 1328/8/6 1320/8/6 1327/8/6
f 1329/8/6 1320/8/6 1328/8/6
f 1330/9/6 1321/9/6 1320/9/6
f 1330/8/6 1320/8/6 1329/8/6
f 1331/8/6 1322/8/6 1321/8/6
f 1331/9/6 1321/9/6 1330/9/6
f 1332/9/6 1323/9/6 1322/9/6
f 1332/8/6 1322/8/6 1331/8/6
f 1333/8/6 1324/8/6 1323/8/6
f 1333/9/6 1323/9/6 1332/9/6
f 1334/9/6 1325/9/6 1324/9/6
f 1334/8/6 1324/8/6 1333/8/6
f 1335/8/6 1271/8/6 1325/8/6
f 1335/9/6 1325/9/6 1334/9/6
f 1336/8/6 1308/8/6 1282/8/6
f 1336/8/6 1326/8/6 1308/8/6
f 1337/8/6 1326/8/6 1336/8/6
f 1338/9/6 1327/9/6 1326/9/6
f 1338/8/6 1326/8/6 1337/8/6
f 1339/8/6 1328/8/6 1327/8/6
f 1339/9/6 1327/9/6 1338/9/6
f 1340/9/6 1329/9/6 1328/9/6
f 1340/8/6 1328/8/6 1339/8/6
f 1341/8/6 1332/8/6 1331/8/6
f 1341/9/6 1329/9/6 1340/9/6
f 1341/8/6 1331/8/6 1330/8/6
f 1341/8/6 1334/8/6 1333/8/6
f 1341/8/6 1333/8/6 1332/8/6
f 1341/8/6 1330/8/6 1329/8/6
f 1341/8/6 1335/8/6 1334/8/6
f 1342/8/6 1335/8/6 1341/8/6
f 1343/8/6 1335/8/6 1342/8/6
f 1344/8/6 1340/8/6 1339/8/6
f 1344/8/6 1338/8/6 1337/8/6
f 1344/9/6 1343/9/6 1342/9/6
f 1344/8/6 1342/8/6 1341/8/6
f 1344/8/6 1341/8/6 1340/8/6
f 1344/8/6 1339/8/6 1338/8/6
f 1345/8/6 1335/8/6 1343/8/6
f 1345/9/6 1343/9/6 1344/9/6
f 1346/8/6 1344/8/6 1337/8/6
f 1346/8/6 1345/8/6 1344/8/6
f 1347/8/6 1345/8/6 1346/8/6
f 1348/8/6 1335/8/6 1345/8/6
f 1348/8/6 1345/8/6 1347/8/6
f 1349/8/6 1335/8/6 1348/8/6
f 1350/8/6 1336/8/6 1282/8/6
f 1350/9/6 1337/9/6 1336/9/6
f 1351/8/6 1346/8/6 1337/8/6
f 1351/9/6 1337/9/6 1350/9/6
f 1352/8/6 1346/8/6 1351/8/6
f 1353/8/6 1346/8/6 1352/8/6
f 1354/9/6 1347/9/6 1346/9/6
f 1354/8/6 1346/8/6 1353/8/6
f 1355/8/6 1348/8/6 1347/8/6
f 1355/9/6 1347/9/6 1354/9/6
f 1356/8/6 1348/8/6 1355/8/6
f 1357/8/6 1348/8/6 1356/8/6
f 1358/9/6 1349/9/6 1348/9/6
f 1358/8/6 1348/8/6 1357/8/6
f 1359/8/6 1335/8/6 1349/8/6
f 1359/9/6 1349/9/6 1358/9/6
f 1360/9/6 1353/9/6 1352/9/6
f 1360/8/6 1351/8/6 1350/8/6
f 1360/8/6 1352/8/6 1351/8/6
f 1361/8/6 1354/8/6 1353/8/6
f 1361/9/6 1353/9/6 1360/9/6
f 1361/8/6 1356/8/6 1355/8/6
f 1361/8/6 1355/8/6 1354/8/6
f 1362/8/6 1356/8/6 1361/8/6
f 1363/8/6 1356/8/6 1362/8/6
f 1364/9/6 1357/9/6 1356/9/6
f 1364/8/6 1356/8/6 1363/8/6
f 1365/8/6 1358/8/6 1357/8/6
f 1365/9/6 1357/9/6 1364/9/6
f 1365/8/6 1359/8/6 1358/8/6
f 1366/8/6 1362/8/6 1361/8/6
f 1366/8/6 1361/8/6 1360/8/6
f 1367/8/6 1362/8/6 1366/8/6
f 1368/9/6 1363/9/6 1362/9/6
f 1368/8/6 1362/8/6 1367/8/6
f 1369/8/6 1364/8/6 1363/8/6
f 1369/9/6 1363/9/6 1368/9/6
f 1369/8/6 1365/8/6 1364/8/6
f 1370/8/6 1335/8/6 1359/8/6
f 1370/8/6 1365/8/6 1369/8/6
f 1370/8/6 1359/8/6 1365/8/6
f 1371/8/6 1335/8/6 1370/8/6
f 1372/8/6 1366/8/6 1360/8/6
f 1373/8/6 1366/8/6 1372/8/6
f 1374/8/6 1369/8/6 1368/8/6
f 1374/8/6 1368/8/6 1367/8/6
f 1374/8/6 1370/8/6 1369/8/6
f 1375/8/6 1370/8/6 1374/8/6
f 1376/9/6 1371/9/6 1370/9/6
f 1376/8/6 1370/8/6 1375/8/6
f 1377/8/6 1335/8/6 1371/8/6
f 1377/9/6 1371/9/6 1376/9/6
f 1378/8/6 1288/8/6 1212/8/6
f 1379/8/6 1214/8/6 1289/8/6
f 1380/9/6 1373/9/6 1372/9/6
f 1380/8/6 1372/8/6 1360/8/6
f 1381/8/6 1366/8/6 1373/8/6
f 1381/9/6 1373/9/6 1380/9/6
f 1382/8/6 1366/8/6 1381/8/6
f 1383/8/6 1366/8/6 1382/8/6
f 1384/9/6 1367/9/6 1366/9/6
f 1384/8/6 1366/8/6 1383/8/6
f 1385/8/6 1374/8/6 1367/8/6
f 1385/9/6 1367/9/6 1384/9/6
f 1386/9/6 1375/9/6 1374/9/6
f 1386/8/6 1374/8/6 1385/8/6
f 1387/8/6 1376/8/6 1375/8/6
f 1387/9/6 1375/9/6 1386/9/6
f 1387/8/6 1377/8/6 1376/8/6
f 1388/8/6 1380/8/6 1360/8/6
f 1388/8/6 1360/8/6 1350/8/6
f 1388/8/6 1382/8/6 1381/8/6
f 1388/8/6 1381/8/6 1380/8/6
f 1389/8/6 1382/8/6 1388/8/6
f 1390/9/6 1383/9/6 1382/9/6
f 1390/8/6 1382/8/6 1389/8/6
f 1391/8/6 1387/8/6 1386/8/6
f 1391/9/6 1383/9/6 1390/9/6
f 1391/8/6 1386/8/6 1385/8/6
f 1391/8/6 1385/8/6 1384/8/6
f 1391/8/6 1384/8/6 1383/8/6
f 1392/8/6 1387/8/6 1391/8/6
f 1393/8/6 1387/8/6 1392/8/6
f 1394/8/6 1390/8/6 1389/8/6
f 1394/8/6 1391/8/6 1390/8/6
f 1394/9/6 1393/9/6 1392/9/6
f 1394/8/6 1392/8/6 1391/8/6
f 1395/8/6 1387/8/6 1393/8/6
f 1395/9/6 1393/9/6 1394/9/6
f 1396/8/6 1378/8/6 1212/8/6
f 1396/8/6 1379/8/6 1378/8/6
f 1397/8/6 1214/8/6 1379/8/6
f 1397/8/6 1379/8/6 1396/8/6
f 1398/9/6 1389/9/6 1388/9/6
f 1398/8/6 1388/8/6 1350/8/6
f 1399/8/6 1395/8/6 1394/8/6
f 1399/9/6 1389/9/6 1398/9/6
f 1399/8/6 1394/8/6 1389/8/6
f 1400/8/6 1399/8/6 1398/8/6
f 1400/8/6 1395/8/6 1399/8/6
f 1401/8/6 1395/8/6 1400/8/6
f 1402/8/6 1395/8/6 1401/8/6
f 1403/8/6 1395/8/6 1402/8/6
f 1404/8/6 1400/8/6 1398/8/6
f 1404/9/6 1401/9/6 1400/9/6
f 1405/8/6 1402/8/6 1401/8/6
f 1405/9/6 1401/9/6 1404/9/6
f 1406/9/6 1403/9/6 1402/9/6
f 1406/8/6 1402/8/6 1405/8/6
f 1407/8/6 1395/8/6 1403/8/6
f 1407/9/6 1403/9/6 1406/9/6
f 1408/8/6 1377/8/6 1387/8/6
f 1408/8/6 1395/8/6 1407/8/6
f 1408/8/6 1407/8/6 1406/8/6
f 1408/8/6 1387/8/6 1395/8/6
f 1408/8/6 1405/8/6 1404/8/6
f 1408/8/6 1406/8/6 1405/8/6
f 1409/8/6 1377/8/6 1408/8/6
f 1410/8/6 1335/8/6 1377/8/6
f 1410/8/6 1377/8/6 1409/8/6
f 1410/8/6 1271/8/6 1335/8/6
f 1411/8/6 1213/8/6 1271/8/6
f 1411/8/6 1271/8/6 1410/8/6
f 1412/8/6 1404/8/6 1398/8/6
f 1412/8/6 1408/8/6 1404/8/6
f 1413/8/6 1408/8/6 1412/8/6
f 1414/8/6 1408/8/6 1413/8/6
f 1415/8/6 1408/8/6 1414/8/6
f 1416/9/6 1409/9/6 1408/9/6
f 1416/8/6 1408/8/6 1415/8/6
f 1417/8/6 1410/8/6 1409/8/6
f 1417/9/6 1409/9/6 1416/9/6
f 1418/9/6 1411/9/6 1410/9/6
f 1418/8/6 1410/8/6 1417/8/6
f 1419/8/6 1213/8/6 1411/8/6
f 1419/9/6 1411/9/6 1418/9/6
f 1420/8/6 1398/8/6 1350/8/6
f 1420/8/6 1412/8/6 1398/8/6
f 1421/8/6 1412/8/6 1420/8/6
f 1422/9/6 1413/9/6 1412/9/6
f 1422/8/6 1412/8/6 1421/8/6
f 1423/8/6 1414/8/6 1413/8/6
f 1423/9/6 1413/9/6 1422/9/6
f 1424/9/6 1415/9/6 1414/9/6
f 1424/8/6 1414/8/6 1423/8/6
f 1425/8/6 1418/8/6 1417/8/6
f 1425/9/6 1415/9/6 1424/9/6
f 1425/8/6 1416/8/6 1415/8/6
f 1425/8/6 1417/8/6 1416/8/6
f 1425/8/6 1419/8/6 1418/8/6
f 1426/8/6 1420/8/6 1350/8/6
f 1426/9/6 1421/9/6 1420/9/6
f 1427/8/6 1424/8/6 1423/8/6
f 1427/9/6 1421/9/6 1426/9/6
f 1427/8/6 1423/8/6 1422/8/6
f 1427/8/6 1425/8/6 1424/8/6
f 1427/8/6 1422/8/6 1421/8/6
f 1428/8/6 1426/8/6 1350/8/6
f 1428/8/6 1282/8/6 1274/8/6
f 1428/8/6 1427/8/6 1426/8/6
f 1428/8/6 1350/8/6 1282/8/6
f 1429/8/6 1427/8/6 1428/8/6
f 1430/8/6 1425/8/6 1427/8/6
f 1430/8/6 1427/8/6 1429/8/6
f 1431/8/6 1425/8/6 1430/8/6
f 1432/9/6 1429/9/6 1428/9/6
f 1432/8/6 1428/8/6 1274/8/6
f 1433/8/6 1430/8/6 1429/8/6
f 1433/9/6 1429/9/6 1432/9/6
f 1434/9/6 1431/9/6 1430/9/6
f 1434/8/6 1430/8/6 1433/8/6
f 1435/8/6 1425/8/6 1431/8/6
f 1435/9/6 1431/9/6 1434/9/6
f 1436/8/6 1434/8/6 1433/8/6
f 1436/8/6 1425/8/6 1435/8/6
f 1436/8/6 1435/8/6 1434/8/6
f 1436/8/6 1433/8/6 1432/8/6
f 1437/8/6 1425/8/6 1436/8/6
f 1438/8/6 1396/8/6 1212/8/6
f 1439/8/6 1214/8/6 1397/8/6
f 1440/8/6 1436/8/6 1432/8/6
f 1440/9/6 1437/9/6 1436/9/6
f 1441/8/6 1425/8/6 1437/8/6
f 1441/9/6 1437/9/6 1440/9/6
f 1442/8/6 1425/8/6 1441/8/6
f 1443/8/6 1425/8/6 1442/8/6
f 1444/8/6 1440/8/6 1432/8/6
f 1444/8/6 1441/8/6 1440/8/6
f 1444/8/6 1442/8/6 1441/8/6
f 1445/8/6 1442/8/6 1444/8/6
f 1446/9/6 1443/9/6 1442/9/6
f 1446/8/6 1442/8/6 1445/8/6
f 1447/8/6 1425/8/6 1443/8/6
f 1447/9/6 1443/9/6 1446/9/6
f 1448/8/6 1419/8/6 1425/8/6
f 1448/8/6 1425/8/6 1447/8/6
f 1449/8/6 1419/8/6 1448/8/6
f 1450/8/6 1419/8/6 1449/8/6
f 1451/8/6 1419/8/6 1450/8/6
f 1452/8/6 1438/8/6 1212/8/6
f 1452/8/6 1439/8/6 1438/8/6
f 1453/8/6 1214/8/6 1439/8/6
f 1453/8/6 1439/8/6 1452/8/6
f 1454/9/6 1445/9/6 1444/9/6
f 1454/8/6 1444/8/6 1432/8/6
f 1455/8/6 1447/8/6 1446/8/6
f 1455/9/6 1445/9/6 1454/9/6
f 1455/8/6 1446/8/6 1445/8/6
f 1455/8/6 1448/8/6 1447/8/6
f 1456/9/6 1449/9/6 1448/9/6
f 1456/8/6 1448/8/6 1455/8/6
f 1457/8/6 1450/8/6 1449/8/6
f 1457/9/6 1449/9/6 1456/9/6
f 1458/9/6 1451/9/6 1450/9/6
f 1458/8/6 1450/8/6 1457/8/6
f 1459/8/6 1419/8/6 1451/8/6
f 1459/9/6 1451/9/6 1458/9/6
f 1460/8/6 1456/8/6 1455/8/6
f 1460/8/6 1458/8/6 1457/8/6
f 1460/8/6 1459/8/6 1458/8/6
f 1460/8/6 1455/8/6 1454/8/6
f 1460/8/6 1457/8/6 1456/8/6
f 1461/8/6 1459/8/6 1460/8/6
f 1462/8/6 1460/8/6 1454/8/6
f 1462/9/6 1461/9/6 1460/9/6
f 1463/8/6 1459/8/6 1461/8/6
f 1463/9/6 1461/9/6 1462/9/6
f 1464/8/6 1463/8/6 1462/8/6
f 1464/8/6 1459/8/6 1463/8/6
f 1465/8/6 1459/8/6 1464/8/6
f 1466/8/6 1464/8/6 1462/8/6
f 1466/9/6 1465/9/6 1464/9/6
f 1467/8/6 1459/8/6 1465/8/6
f 1467/9/6 1465/9/6 1466/9/6
f 1468/8/6 1459/8/6 1467/8/6
f 1469/8/6 1459/8/6 1468/8/6
f 1470/8/6 1467/8/6 1466/8/6
f 1470/8/6 1468/8/6 1467/8/6
f 1470/9/6 1469/9/6 1468/9/6
f 1471/8/6 1459/8/6 1469/8/6
f 1471/9/6 1469/9/6 1470/9/6
f 1472/8/6 1454/8/6 1432/8/6
f 1472/8/6 1462/8/6 1454/8/6
f 1472/8/6 1471/8/6 1470/8/6
f 1472/8/6 1470/8/6 1466/8/6
f 1472/8/6 1466/8/6 1462/8/6
f 1473/8/6 1471/8/6 1472/8/6
f 1474/8/6 1471/8/6 1473/8/6
f 1475/8/6 1471/8/6 1474/8/6
f 1476/8/6 1472/8/6 1432/8/6
f 1476/9/6 1473/9/6 1472/9/6
f 1477/8/6 1474/8/6 1473/8/6
f 1477/9/6 1473/9/6 1476/9/6
f 1478/8/6 1474/8/6 1477/8/6
f 1479/8/6 1474/8/6 1478/8/6
f 1480/8/6 1477/8/6 1476/8/6
f 1480/8/6 1478/8/6 1477/8/6
f 1480/9/6 1479/9/6 1478/9/6
f 1481/8/6 1474/8/6 1479/8/6
f 1481/9/6 1479/9/6 1480/9/6
f 1482/9/6 1475/9/6 1474/9/6
f 1482/8/6 1474/8/6 1481/8/6
f 1483/8/6 1471/8/6 1475/8/6
f 1483/9/6 1475/9/6 1482/9/6
f 1484/8/6 1459/8/6 1471/8/6
f 1484/8/6 1471/8/6 1483/8/6
f 1485/8/6 1459/8/6 1484/8/6
f 1486/8/6 1483/8/6 1482/8/6
f 1486/8/6 1482/8/6 1481/8/6
f 1486/9/6 1485/9/6 1484/9/6
f 1486/8/6 1484/8/6 1483/8/6
f 1486/8/6 1481/8/6 1480/8/6
f 1487/8/6 1459/8/6 1485/8/6
f 1487/9/6 1485/9/6 1486/9/6
f 1488/8/6 1419/8/6 1459/8/6
f 1488/8/6 1459/8/6 1487/8/6
f 1488/8/6 1487/8/6 1486/8/6
f 1489/8/6 1419/8/6 1488/8/6
f 1490/8/6 1486/8/6 1480/8/6
f 1490/8/6 1480/8/6 1476/8/6
f 1490/8/6 1488/8/6 1486/8/6
f 1491/8/6 1488/8/6 1490/8/6
f 1492/8/6 1488/8/6 1491/8/6
f 1493/8/6 1488/8/6 1492/8/6
f 1494/9/6 1489/9/6 1488/9/6
f 1494/8/6 1488/8/6 1493/8/6
f 1495/8/6 1419/8/6 1489/8/6
f 1495/9/6 1489/9/6 1494/9/6
f 1496/8/6 1490/8/6 1476/8/6
f 1496/9/6 1491/9/6 1490/9/6
f 1497/8/6 1492/8/6 1491/8/6
f 1497/9/6 1491/9/6 1496/9/6
f 1498/8/6 1494/8/6 1493/8/6
f 1498/8/6 1495/8/6 1494/8/6
f 1499/8/6 1495/8/6 1498/8/6
f 1500/8/6 1492/8/6 1497/8/6
f 1500/8/6 1497/8/6 1496/8/6
f 1501/8/6 1492/8/6 1500/8/6
f 1502/8/6 1492/8/6 1501/8/6
f 1503/8/6 1492/8/6 1502/8/6
f 1504/9/6 1493/9/6 1492/9/6
f 1504/8/6 1492/8/6 1503/8/6
f 1505/8/6 1498/8/6 1493/8/6
f 1505/9/6 1493/9/6 1504/9/6
f 1506/9/6 1499/9/6 1498/9/6
f 1506/8/6 1498/8/6 1505/8/6
f 1507/8/6 1495/8/6 1499/8/6
f 1507/9/6 1499/9/6 1506/9/6
f 1508/8/6 1495/8/6 1507/8/6
f 1509/8/6 1495/8/6 1508/8/6
f 1510/8/6 1500/8/6 1496/8/6
f 1510/9/6 1501/9/6 1500/9/6
f 1511/8/6 1502/8/6 1501/8/6
f 1511/9/6 1501/9/6 1510/9/6
f 1512/9/6 1503/9/6 1502/9/6
f 1512/8/6 1502/8/6 1511/8/6
f 1513/8/6 1506/8/6 1505/8/6
f 1513/9/6 1503/9/6 1512/9/6
f 1513/8/6 1505/8/6 1504/8/6
f 1513/8/6 1508/8/6 1507/8/6
f 1513/8/6 1507/8/6 1506/8/6
f 1513/8/6 1504/8/6 1503/8/6
f 1514/9/6 1509/9/6 1508/9/6
f 1514/8/6 1508/8/6 1513/8/6
f 1515/8/6 1495/8/6 1509/8/6
f 1515/9/6 1509/9/6 1514/9/6
f 1516/8/6 1452/8/6 1212/8/6
f 1517/8/6 1214/8/6 1453/8/6
f 1518/8/6 1512/8/6 1511/8/6
f 1518/8/6 1511/8/6 1510/8/6
f 1518/8/6 1510/8/6 1496/8/6
f 1518/8/6 1513/8/6 1512/8/6
f 1518/8/6 1515/8/6 1514/8/6
f 1518/8/6 1514/8/6 1513/8/6
f 1519/8/6 1515/8/6 1518/8/6
f 1520/8/6 1515/8/6 1519/8/6
f 1521/8/6 1515/8/6 1520/8/6
f 1522/8/6 1518/8/6 1496/8/6
f 1522/9/6 1519/9/6 1518/9/6
f 1523/8/6 1520/8/6 1519/8/6
f 1523/9/6 1519/9/6 1522/9/6
f 1524/8/6 1520/8/6 1523/8/6
f 1525/8/6 1520/8/6 1524/8/6
f 1526/8/6 1515/8/6 1521/8/6
f 1527/8/6 1515/8/6 1526/8/6
f 1528/8/6 1520/8/6 1525/8/6
f 1528/9/6 1521/9/6 1520/9/6
f 1529/8/6 1526/8/6 1521/8/6
f 1529/9/6 1521/9/6 1528/9/6
f 1530/9/6 1527/9/6 1526/9/6
f 1530/8/6 1526/8/6 1529/8/6
f 1531/8/6 1515/8/6 1527/8/6
f 1531/9/6 1527/9/6 1530/9/6
f 1532/8/6 1517/8/6 1516/8/6
f 1532/8/6 1516/8/6 1212/8/6
f 1533/8/6 1214/8/6 1517/8/6
f 1533/8/6 1517/8/6 1532/8/6
f 1534/8/6 1531/8/6 1530/8/6
f 1534/8/6 1530/8/6 1529/8/6
f 1534/8/6 1529/8/6 1528/8/6
f 1534/8/6 1528/8/6 1525/8/6
f 1535/8/6 1531/8/6 1534/8/6
f 1536/8/6 1531/8/6 1535/8/6
f 1537/8/6 1531/8/6 1536/8/6
f 1538/9/6 1525/9/6 1524/9/6
f 1538/8/6 1523/8/6 1522/8/6
f 1538/8/6 1524/8/6 1523/8/6
f 1539/8/6 1534/8/6 1525/8/6
f 1539/9/6 1525/9/6 1538/9/6
f 1540/9/6 1535/9/6 1534/9/6
f 1540/8/6 1534/8/6 1539/8/6
f 1541/8/6 1536/8/6 1535/8/6
f 1541/9/6 1535/9/6 1540/9/6
f 1542/9/6 1537/9/6 1536/9/6
f 1542/8/6 1536/8/6 1541/8/6
f 1543/8/6 1531/8/6 1537/8/6
f 1543/9/6 1537/9/6 1542/9/6
f 1544/8/6 1515/8/6 1531/8/6
f 1544/8/6 1531/8/6 1543/8/6
f 1544/8/6 1495/8/6 1515/8/6
f 1545/8/6 1495/8/6 1544/8/6
f 1546/8/6 1432/8/6 1274/8/6
f 1546/8/6 1543/8/6 1542/8/6
f 1546/8/6 1274/8/6 1215/8/6
f 1546/8/6 1544/8/6 1543/8/6
f 1546/8/6 1539/8/6 1538/8/6
f 1546/8/6 1540/8/6 1539/8/6
f 1546/8/6 1522/8/6 1496/8/6
f 1546/8/6 1541/8/6 1540/8/6
f 1546/8/6 1542/8/6 1541/8/6
f 1546/8/6 1496/8/6 1476/8/6
f 1546/8/6 1476/8/6 1432/8/6
f 1546/8/6 1538/8/6 1522/8/6
f 1547/8/6 1544/8/6 1546/8/6
f 1548/8/6 1544/8/6 1547/8/6
f 1549/8/6 1544/8/6 1548/8/6
f 1550/9/6 1545/9/6 1544/9/6
f 1550/8/6 1544/8/6 1549/8/6
f 1551/8/6 1495/8/6 1545/8/6
f 1551/9/6 1545/9/6 1550/9/6
f 1552/8/6 1546/8/6 1215/8/6
f 1552/9/6 1547/9/6 1546/9/6
f 1553/8/6 1548/8/6 1547/8/6
f 1553/9/6 1547/9/6 1552/9/6
f 1554/8/6 1548/8/6 1553/8/6
f 1555/8/6 1548/8/6 1554/8/6
f 1556/9/6 1549/9/6 1548/9/6
f 1556/8/6 1548/8/6 1555/8/6
f 1557/8/6 1550/8/6 1549/8/6
f 1557/9/6 1549/9/6 1556/9/6
f 1557/8/6 1551/8/6 1550/8/6
f 1558/9/6 1555/9/6 1554/9/6
f 1558/8/6 1554/8/6 1553/8/6
f 1558/8/6 1553/8/6 1552/8/6
f 1559/8/6 1556/8/6 1555/8/6
f 1559/9/6 1555/9/6 1558/9/6
f 1559/8/6 1557/8/6 1556/8/6
f 1560/8/6 1558/8/6 1552/8/6
f 1560/8/6 1559/8/6 1558/8/6
f 1561/8/6 1559/8/6 1560/8/6
f 1562/8/6 1560/8/6 1552/8/6
f 1562/9/6 1561/9/6 1560/9/6
f 1563/8/6 1559/8/6 1561/8/6
f 1563/9/6 1561/9/6 1562/9/6
f 1564/8/6 1557/8/6 1559/8/6
f 1564/8/6 1559/8/6 1563/8/6
f 1565/8/6 1557/8/6 1564/8/6
f 1566/8/6 1563/8/6 1562/8/6
f 1566/8/6 1564/8/6 1563/8/6
f 1566/9/6 1565/9/6 1564/9/6
f 1567/8/6 1557/8/6 1565/8/6
f 1567/9/6 1565/9/6 1566/9/6
f 1568/8/6 1551/8/6 1557/8/6
f 1568/8/6 1557/8/6 1567/8/6
f 1568/8/6 1567/8/6 1566/8/6
f 1569/8/6 1495/8/6 1551/8/6
f 1569/8/6 1551/8/6 1568/8/6
f 1570/8/6 1568/8/6 1566/8/6
f 1570/9/6 1569/9/6 1568/9/6
f 1571/8/6 1495/8/6 1569/8/6
f 1571/9/6 1569/9/6 1570/9/6
f 1572/8/6 1570/8/6 1566/8/6
f 1572/8/6 1571/8/6 1570/8/6
f 1573/8/6 1571/8/6 1572/8/6
f 1574/8/6 1495/8/6 1571/8/6
f 1574/8/6 1571/8/6 1573/8/6
f 1575/8/6 1495/8/6 1574/8/6
f 1576/8/6 1566/8/6 1562/8/6
f 1576/8/6 1572/8/6 1566/8/6
f 1577/8/6 1572/8/6 1576/8/6
f 1578/9/6 1573/9/6 1572/9/6
f 1578/8/6 1572/8/6 1577/8/6
f 1579/8/6 1574/8/6 1573/8/6
f 1579/9/6 1573/9/6 1578/9/6
f 1580/9/6 1575/9/6 1574/9/6
f 1580/8/6 1574/8/6 1579/8/6
f 1581/8/6 1495/8/6 1575/8/6
f 1581/9/6 1575/9/6 1580/9/6
f 1582/8/6 1580/8/6 1579/8/6
f 1582/8/6 1579/8/6 1578/8/6
f 1582/8/6 1581/8/6 1580/8/6
f 1582/8/6 1578/8/6 1577/8/6
f 1583/8/6 1581/8/6 1582/8/6
f 1584/8/6 1581/8/6 1583/8/6
f 1585/8/6 1581/8/6 1584/8/6
f 1586/8/6 1562/8/6 1552/8/6
f 1586/8/6 1552/8/6 1215/8/6
f 1586/8/6 1576/8/6 1562/8/6
f 1587/8/6 1576/8/6 1586/8/6
f 1588/9/6 1577/9/6 1576/9/6
f 1588/8/6 1576/8/6 1587/8/6
f 1589/8/6 1582/8/6 1577/8/6
f 1589/9/6 1577/9/6 1588/9/6
f 1590/8/6 1582/8/6 1589/8/6
f 1591/8/6 1582/8/6 1590/8/6
f 1592/9/6 1583/9/6 1582/9/6
f 1592/8/6 1582/8/6 1591/8/6
f 1593/8/6 1584/8/6 1583/8/6
f 1593/9/6 1583/9/6 1592/9/6
f 1594/9/6 1585/9/6 1584/9/6
f 1594/8/6 1584/8/6 1593/8/6
f 1595/8/6 1581/8/6 1585/8/6
f 1595/9/6 1585/9/6 1594/9/6
f 1596/8/6 1532/8/6 1212/8/6
f 1597/8/6 1214/8/6 1533/8/6
f 1598/9/6 1587/9/6 1586/9/6
f 1598/8/6 1586/8/6 1215/8/6
f 1599/8/6 1588/8/6 1587/8/6
f 1599/9/6 1587/9/6 1598/9/6
f 1599/8/6 1589/8/6 1588/8/6
f 1599/8/6 1590/8/6 1589/8/6
f 1600/9/6 1591/9/6 1590/9/6
f 1600/8/6 1590/8/6 1599/8/6
f 1601/8/6 1594/8/6 1593/8/6
f 1601/9/6 1591/9/6 1600/9/6
f 1601/8/6 1593/8/6 1592/8/6
f 1601/8/6 1595/8/6 1594/8/6
f 1601/8/6 1592/8/6 1591/8/6
f 1602/8/6 1595/8/6 1601/8/6
f 1603/8/6 1595/8/6 1602/8/6
f 1604/8/6 1581/8/6 1595/8/6
f 1604/8/6 1595/8/6 1603/8/6
f 1605/8/6 1581/8/6 1604/8/6
f 1606/8/6 1600/8/6 1599/8/6
f 1606/9/6 1603/9/6 1602/9/6
f 1606/8/6 1599/8/6 1598/8/6
f 1606/8/6 1601/8/6 1600/8/6
f 1606/8/6 1602/8/6 1601/8/6
f 1607/8/6 1604/8/6 1603/8/6
f 1607/9/6 1603/9/6 1606/9/6
f 1608/9/6 1605/9/6 1604/9/6
f 1608/8/6 1604/8/6 1607/8/6
f 1609/8/6 1581/8/6 1605/8/6
f 1609/9/6 1605/9/6 1608/9/6
f 1610/8/6 1608/8/6 1607/8/6
f 1610/8/6 1607/8/6 1606/8/6
f 1610/8/6 1609/8/6 1608/8/6
f 1610/8/6 1606/8/6 1598/8/6
f 1611/8/6 1609/8/6 1610/8/6
f 1612/8/6 1609/8/6 1611/8/6
f 1613/8/6 1609/8/6 1612/8/6
f 1614/8/6 1596/8/6 1212/8/6
f 1614/8/6 1597/8/6 1596/8/6
f 1615/8/6 1214/8/6 1597/8/6
f 1615/8/6 1597/8/6 1614/8/6
f 1616/9/6 1613/9/6 1612/9/6
f 1616/8/6 1612/8/6 1611/8/6
f 1617/8/6 1609/8/6 1613/8/6
f 1617/9/6 1613/9/6 1616/9/6
f 1618/8/6 1610/8/6 1598/8/6
f 1618/9/6 1611/9/6 1610/9/6
f 1619/8/6 1616/8/6 1611/8/6
f 1619/9/6 1611/9/6 1618/9/6
f 1619/8/6 1617/8/6 1616/8/6
f 1620/8/6 1581/8/6 1609/8/6
f 1620/8/6 1617/8/6 1619/8/6
f 1620/8/6 1619/8/6 1618/8/6
f 1620/8/6 1609/8/6 1617/8/6
f 1621/8/6 1581/8/6 1620/8/6
f 1622/8/6 1620/8/6 1618/8/6
f 1623/8/6 1620/8/6 1622/8/6
f 1624/9/6 1621/9/6 1620/9/6
f 1624/8/6 1620/8/6 1623/8/6
f 1625/8/6 1581/8/6 1621/8/6
f 1625/9/6 1621/9/6 1624/9/6
f 1626/9/6 1623/9/6 1622/9/6
f 1626/8/6 1622/8/6 1618/8/6
f 1627/8/6 1624/8/6 1623/8/6
f 1627/9/6 1623/9/6 1626/9/6
f 1627/8/6 1625/8/6 1624/8/6
f 1628/8/6 1618/8/6 1598/8/6
f 1628/8/6 1626/8/6 1618/8/6
f 1628/8/6 1627/8/6 1626/8/6
f 1629/8/6 1627/8/6 1628/8/6
f 1630/8/6 1625/8/6 1627/8/6
f 1630/8/6 1627/8/6 1629/8/6
f 1631/8/6 1625/8/6 1630/8/6
f 1632/9/6 1629/9/6 1628/9/6
f 1632/8/6 1628/8/6 1598/8/6
f 1633/8/6 1630/8/6 1629/8/6
f 1633/9/6 1629/9/6 1632/9/6
f 1634/8/6 1630/8/6 1633/8/6
f 1635/9/6 1631/9/6 1630/9/6
f 1635/8/6 1630/8/6 1634/8/6
f 1636/8/6 1625/8/6 1631/8/6
f 1637/8/6 1625/8/6 1636/8/6
f 1638/8/6 1634/8/6 1633/8/6
f 1638/8/6 1633/8/6 1632/8/6
f 1639/8/6 1634/8/6 1638/8/6
f 1640/9/6 1635/9/6 1634/9/6
f 1640/8/6 1634/8/6 1639/8/6
f 1641/9/6 1631/9/6 1635/9/6
f 1641/9/6 1635/9/6 1640/9/6
f 1641/8/6 1636/8/6 1631/8/6
f 1642/9/6 1637/9/6 1636/9/6
f 1642/8/6 1636/8/6 1641/8/6
f 1643/8/6 1625/8/6 1637/8/6
f 1643/9/6 1637/9/6 1642/9/6
f 1644/8/6 1598/8/6 1215/8/6
f 1644/8/6 1632/8/6 1598/8/6
f 1644/8/6 1638/8/6 1632/8/6
f 1645/8/6 1638/8/6 1644/8/6
f 1646/9/6 1639/9/6 1638/9/6
f 1646/8/6 1638/8/6 1645/8/6
f 1647/8/6 1640/8/6 1639/8/6
f 1647/9/6 1639/9/6 1646/9/6
f 1647/8/6 1642/8/6 1641/8/6
f 1647/8/6 1643/8/6 1642/8/6
f 1647/8/6 1641/8/6 1640/8/6
f 1648/8/6 1644/8/6 1215/8/6
f 1648/9/6 1645/9/6 1644/9/6
f 1649/8/6 1646/8/6 1645/8/6
f 1649/9/6 1645/9/6 1648/9/6
f 1649/8/6 1647/8/6 1646/8/6
f 1650/8/6 1647/8/6 1649/8/6
f 1651/8/6 1647/8/6 1650/8/6
f 1652/8/6 1649/8/6 1648/8/6
f 1652/8/6 1650/8/6 1649/8/6
f 1652/9/6 1651/9/6 1650/9/6
f 1653/8/6 1647/8/6 1651/8/6
f 1653/9/6 1651/9/6 1652/9/6
f 1654/8/6 1614/8/6 1212/8/6
f 1655/8/6 1214/8/6 1615/8/6
f 1656/8/6 1647/8/6 1653/8/6
f 1656/8/6 1653/8/6 1652/8/6
f 1657/8/6 1647/8/6 1656/8/6
f 1658/8/6 1655/8/6 1654/8/6
f 1658/8/6 1654/8/6 1212/8/6
f 1659/8/6 1214/8/6 1655/8/6
f 1659/8/6 1655/8/6 1658/8/6
f 1660/8/6 1648/8/6 1215/8/6
f 1660/8/6 1652/8/6 1648/8/6
f 1660/8/6 1656/8/6 1652/8/6
f 1661/9/6 1657/9/6 1656/9/6
f 1661/8/6 1656/8/6 1660/8/6
f 1662/8/6 1647/8/6 1657/8/6
f 1662/9/6 1657/9/6 1661/9/6
f 1663/8/6 1495/8/6 1581/8/6
f 1663/8/6 1647/8/6 1662/8/6
f 1663/8/6 1419/8/6 1495/8/6
f 1663/8/6 1213/8/6 1419/8/6
f 1663/8/6 1625/8/6 1643/8/6
f 1663/8/6 1643/8/6 1647/8/6
f 1663/8/6 1581/8/6 1625/8/6
f 1666/2/6 1665/2/6 1664/2/6
f 1667/2/6 1665/2/6 1666/2/6
f 1668/2/6 1666/2/6 1664/2/6
f 1669/2/6 1665/2/6 1667/2/6
f 1670/2/6 1668/2/6 1664/2/6
f 1670/2/6 1669/2/6 1668/2/6
f 1671/2/6 1665/2/6 1669/2/6
f 1671/2/6 1669/2/6 1670/2/6
f 1674/2/6 1673/2/6 1672/2/6
f 1675/2/6 1673/2/6 1674/2/6
f 1676/2/6 1674/2/6 1672/2/6
f 1677/2/6 1673/2/6 1675/2/6
f 1678/2/6 1676/2/6 1672/2/6
f 1678/2/6 1677/2/6 1676/2/6
f 1679/2/6 1673/2/6 1677/2/6
f 1679/2/6 1677/2/6 1678/2/6
f 1682/2/6 1681/2/6 1680/2/6
f 1683/2/6 1681/2/6 1682/2/6
f 1684/2/6 1682/2/6 1680/2/6
f 1685/2/6 1681/2/6 1683/2/6
f 1686/2/6 1684/2/6 1680/2/6
f 1686/2/6 1685/2/6 1684/2/6
f 1687/2/6 1681/2/6 1685/2/6
f 1687/2/6 1685/2/6 1686/2/6
f 1690/3/6 1689/3/6 1688/3/6
f 1691/3/6 1689/3/6 1690/3/6
f 1692/3/6 1690/3/6 1688/3/6
f 1693/9/6 1691/9/6 1690/9/6
f 1693/3/6 1690/3/6 1692/3/6
f 1694/3/6 1689/3/6 1691/3/6
f 1694/9/6 1691/9/6 1693/9/6
f 1695/3/6 1689/3/6 1694/3/6
f 1698/3/6 1697/3/6 1696/3/6
f 1699/3/6 1697/3/6 1698/3/6
f 1702/2/6 1701/2/6 1700/2/6
f 1703/2/6 1701/2/6 1702/2/6
f 1704/2/6 1702/2/6 1700/2/6
f 1705/2/6 1701/2/6 1703/2/6
f 1706/2/6 1704/2/6 1700/2/6
f 1706/2/6 1705/2/6 1704/2/6
f 1707/2/6 1701/2/6 1705/2/6
f 1707/2/6 1705/2/6 1706/2/6
f 1710/2/6 1709/2/6 1708/2/6
f 1711/2/6 1709/2/6 1710/2/6
f 1712/2/6 1710/2/6 1708/2/6
f 1713/2/6 1709/2/6 1711/2/6
f 1714/2/6 1712/2/6 1708/2/6
f 1714/2/6 1713/2/6 1712/2/6
f 1715/2/6 1709/2/6 1713/2/6
f 1715/2/6 1713/2/6 1714/2/6
f 1718/2/6 1717/2/6 1716/2/6
f 1719/2/6 1717/2/6 1718/2/6
f 1720/2/6 1718/2/6 1716/2/6
f 1721/2/6 1717/2/6 1719/2/6
f 1722/2/6 1720/2/6 1716/2/6
f 1722/2/6 1721/2/6 1720/2/6
f 1723/2/6 1717/2/6 1721/2/6
f 1723/2/6 1721/2/6 1722/2/6
f 1726/2/6 1725/2/6 1724/2/6
f 1727/2/6 1725/2/6 1726/2/6
f 1728/2/6 1726/2/6 1724/2/6
f 1729/2/6 1725/2/6 1727/2/6
f 1730/2/6 1728/2/6 1724/2/6
f 1730/2/6 1729/2/6 1728/2/6
f 1731/2/6 1725/2/6 1729/2/6
f 1731/2/6 1729/2/6 1730/2/6
f 1734/2/6 1733/2/6 1732/2/6
f 1735/2/6 1733/2/6 1734/2/6
f 1736/2/6 1734/2/6 1732/2/6
f 1737/2/6 1733/2/6 1735/2/6
f 1738/2/6 1736/2/6 1732/2/6
f 1738/2/6 1737/2/6 1736/2/6
f 1739/2/6 1733/2/6 1737/2/6
f 1739/2/6 1737/2/6 1738/2/6
f 1742/2/6 1741/2/6 1740/2/6
f 1743/2/6 1741/2/6 1742/2/6
f 1744/2/6 1742/2/6 1740/2/6
f 1745/2/6 1741/2/6 1743/2/6
f 1746/2/6 1744/2/6 1740/2/6
f 1746/2/6 1745/2/6 1744/2/6
f 1747/2/6 1741/2/6 1745/2/6
f 1747/2/6 1745/2/6 1746/2/6
f 1750/4/6 1749/4/6 1748/4/6
f 1751/4/6 1749/4/6 1750/4/6
f 1754/4/6 1753/4/6 1752/4/6
f 1755/4/6 1753/4/6 1754/4/6
f 1756/4/6 1750/4/6 1748/4/6
f 1757/4/6 1754/4/6 1752/4/6
f 1758/4/6 1756/4/6 1748/4/6
f 1758/4/6 1757/4/6 1756/4/6
f 1759/4/6 1754/4/6 1757/4/6
f 1759/4/6 1757/4/6 1758/4/6
f 1762/4/6 1761/4/6 1760/4/6
f 1763/4/6 1761/4/6 1762/4/6
f 1764/4/6 1762/4/6 1760/4/6
f 1765/4/6 1762/4/6 1764/4/6
f 1766/4/6 1761/4/6 1763/4/6
f 1767/4/6 1761/4/6 1766/4/6
f 1770/7/6 1769/7/6 1768/7/6
f 1771/7/6 1769/7/6 1770/7/6
f 1774/7/6 1773/7/6 1772/7/6
f 1775/7/6 1773/7/6 1774/7/6
f 1778/7/6 1777/7/6 1776/7/6
f 1779/7/6 1777/7/6 1778/7/6
f 1782/7/6 1781/7/6 1780/7/6
f 1783/7/6 1781/7/6 1782/7/6
f 1786/7/6 1785/7/6 1784/7/6
f 1787/7/6 1785/7/6 1786/7/6
f 1790/7/6 1789/7/6 1788/7/6
f 1791/7/6 1789/7/6 1790/7/6
f 1794/7/6 1793/7/6 1792/7/6
f 1795/7/6 1793/7/6 1794/7/6
f 1798/7/6 1797/7/6 1796/7/6
f 1799/7/6 1797/7/6 1798/7/6
f 1802/7/6 1801/7/6 1800/7/6
f 1803/7/6 1801/7/6 1802/7/6
f 1806/4/6 1805/4/6 1804/4/6
f 1807/4/6 1805/4/6 1806/4/6
f 1810/4/6 1809/4/6 1808/4/6
f 1811/4/6 1809/4/6 1810/4/6
f 1812/4/6 1806/4/6 1804/4/6
f 1813/4/6 1810/4/6 1808/4/6
f 1814/4/6 1812/4/6 1804/4/6
f 1814/4/6 1813/4/6 1812/4/6
f 1815/4/6 1810/4/6 1813/4/6
f 1815/4/6 1813/4/6 1814/4/6
f 1818/4/6 1817/4/6 1816/4/6
f 1819/4/6 1817/4/6 1818/4/6
f 1820/4/6 1818/4/6 1816/4/6
f 1821/4/6 1818/4/6 1820/4/6
f 1822/4/6 1817/4/6 1819/4/6
f 1823/4/6 1817/4/6 1822/4/6
f 1826/4/6 1825/4/6 1824/4/6
f 1827/4/6 1825/4/6 1826/4/6
f 1830/4/6 1829/4/6 1828/4/6
f 1831/4/6 1829/4/6 1830/4/6
f 1832/4/6 1826/4/6 1824/4/6
f 1833/4/6 1830/4/6 1828/4/6
f 1834/4/6 1832/4/6 1824/4/6
f 1834/4/6 1833/4/6 1832/4/6
f 1835/4/6 1830/4/6 1833/4/6
f 1835/4/6 1833/4/6 1834/4/6
f 1838/4/6 1837/4/6 1836/4/6
f 1839/4/6 1837/4/6 1838/4/6
f 1840/4/6 1838/4/6 1836/4/6
f 1841/4/6 1838/4/6 1840/4/6
f 1842/4/6 1837/4/6 1839/4/6
f 1843/4/6 1837/4/6 1842/4/6
f 1846/4/6 1845/4/6 1844/4/6
f 1847/4/6 1845/4/6 1846/4/6
f 1850/4/6 1849/4/6 1848/4/6
f 1851/4/6 1849/4/6 1850/4/6
f 1852/4/6 1846/4/6 1844/4/6
f 1853/4/6 1850/4/6 1848/4/6
f 1854/4/6 1852/4/6 1844/4/6
f 1854/4/6 1853/4/6 1852/4/6
f 1855/4/6 1850/4/6 1853/4/6
f 1855/4/6 1853/4/6 1854/4/6
f 1858/4/6 1857/4/6 1856/4/6
f 1859/4/6 1857/4/6 1858/4/6
f 1860/4/6 1858/4/6 1856/4/6
f 1861/4/6 1858/4/6 1860/4/6
f 1862/4/6 1857/4/6 1859/4/6
f 1863/4/6 1857/4/6 1862/4/6
f 1866/4/6 1865/4/6 1864/4/6
f 1867/4/6 1865/4/6 1866/4/6
f 1870/4/6 1869/4/6 1868/4/6
f 1871/4/6 1869/4/6 1870/4/6
f 1872/4/6 1866/4/6 1864/4/6
f 1873/4/6 1870/4/6 1868/4/6
f 1874/4/6 1872/4/6 1864/4/6
f 1874/4/6 1873/4/6 1872/4/6
f 1875/4/6 1870/4/6 1873/4/6
f 1875/4/6 1873/4/6 1874/4/6
f 1878/4/6 1877/4/6 1876/4/6
f 1879/4/6 1877/4/6 1878/4/6
f 1880/4/6 1878/4/6 1876/4/6
f 1881/4/6 1878/4/6 1880/4/6
f 1882/4/6 1877/4/6 1879/4/6
f 1883/4/6 1877/4/6 1882/4/6
f 1886/4/6 1885/4/6 1884/4/6
f 1887/4/6 1885/4/6 1886/4/6
f 1888/4/6 1886/4/6 1884/4/6
f 1889/4/6 1886/4/6 1888/4/6
f 1892/4/6 1891/4/6 1890/4/6
f 1893/4/6 1891/4/6 1892/4/6
