# MagicaVoxel @ Ephtracy

# group
o 

# material
mtllib Map-0.mtl
usemtl palette

# normals
vn 1 0 0
vn -1 0 0
vn 0 0 -1
vn 0 0 1
vn 0 -1 0
vn 0 1 0

# texcoords
vt 0.00195312 0.5
vt 0.0292969 0.5

# verts
v 0 -4 0
v 0 -4 24
v 0 -2.5 0
v 0 -2.5 0.6
v 0 -2.4 0.6
v 0 -2.4 0.9
v 0 -2.3 0.9
v 0 -2.3 1.3
v 0 -2.1 1.3
v 0 -2.1 1.5
v 0 -2 1.5
v 0 -2 1.6
v 0 -1.9 1.6
v 0 -1.9 1.7
v 0 -1.7 1.7
v 0 -1.7 1.8
v 0 -1.5 1.8
v 0 -1.5 1.9
v 0 -1.5 2.6
v 0 -1.5 3.2
v 0 -1.4 1.9
v 0 -1.4 2
v 0 -1.2 2
v 0 -1.2 2.1
v 0 -1 2.1
v 0 -1 2.2
v 0 -0.8 2.2
v 0 -0.8 2.3
v 0 -0.6 2.3
v 0 -0.6 2.5
v 0 -0.4 2.5
v 0 -0.4 2.6
v 0 0 2.6
v 0 0 3.2
v 0 0 24
v -12 -4 0
v -12 -4 24
v -12 -2.5 0
v -12 -2.5 0.6
v -12 -2.4 0.6
v -12 -2.4 0.9
v -12 -2.3 0.9
v -12 -2.3 1.3
v -12 -2.1 1.3
v -12 -2.1 1.5
v -12 -2 1.5
v -12 -2 1.6
v -12 -1.9 1.6
v -12 -1.9 1.7
v -12 -1.7 1.7
v -12 -1.7 1.8
v -12 -1.5 1.8
v -12 -1.5 1.9
v -12 -1.5 2.6
v -12 -1.5 3.2
v -12 -1.4 1.9
v -12 -1.4 2
v -12 -1.2 2
v -12 -1.2 2.1
v -12 -1 2.1
v -12 -1 2.2
v -12 -0.8 2.2
v -12 -0.8 2.3
v -12 -0.6 2.3
v -12 -0.6 2.5
v -12 -0.4 2.5
v -12 -0.4 2.6
v -12 0 2.6
v -12 0 3.2
v -12 0 24
v 0 -4 0
v 0 -2.5 0
v -12 -4 0
v -12 -2.5 0
v 0 -2.5 0.6
v 0 -2.4 0.6
v -12 -2.5 0.6
v -12 -2.4 0.6
v 0 -2.4 0.9
v 0 -2.3 0.9
v -12 -2.4 0.9
v -12 -2.3 0.9
v 0 -2.3 1.3
v 0 -2.1 1.3
v -12 -2.3 1.3
v -12 -2.1 1.3
v 0 -2.1 1.5
v 0 -2 1.5
v -12 -2.1 1.5
v -12 -2 1.5
v 0 -2 1.6
v 0 -1.9 1.6
v -12 -2 1.6
v -12 -1.9 1.6
v 0 -1.9 1.7
v 0 -1.7 1.7
v -12 -1.9 1.7
v -12 -1.7 1.7
v 0 -1.7 1.8
v 0 -1.5 1.8
v -12 -1.7 1.8
v -12 -1.5 1.8
v 0 -1.5 1.9
v 0 -1.4 1.9
v -12 -1.5 1.9
v -12 -1.4 1.9
v 0 -1.4 2
v 0 -1.2 2
v -12 -1.4 2
v -12 -1.2 2
v 0 -1.2 2.1
v 0 -1 2.1
v -12 -1.2 2.1
v -12 -1 2.1
v 0 -1 2.2
v 0 -0.8 2.2
v -12 -1 2.2
v -12 -0.8 2.2
v 0 -0.8 2.3
v 0 -0.6 2.3
v -12 -0.8 2.3
v -12 -0.6 2.3
v 0 -0.6 2.5
v 0 -0.4 2.5
v -12 -0.6 2.5
v -12 -0.4 2.5
v 0 -0.4 2.6
v 0 0 2.6
v -12 -0.4 2.6
v -12 0 2.6
v 0 -4 24
v 0 0 24
v -12 -4 24
v -12 0 24
v 0 -4 0
v -12 -4 0
v 0 -4 24
v -12 -4 24
v 0 -2.5 0
v -12 -2.5 0
v 0 -2.5 0.6
v -12 -2.5 0.6
v 0 -2.4 0.6
v -12 -2.4 0.6
v 0 -2.4 0.9
v -12 -2.4 0.9
v 0 -2.3 0.9
v -12 -2.3 0.9
v 0 -2.3 1.3
v -12 -2.3 1.3
v 0 -2.1 1.3
v -12 -2.1 1.3
v 0 -2.1 1.5
v -12 -2.1 1.5
v 0 -2 1.5
v -12 -2 1.5
v 0 -2 1.6
v -12 -2 1.6
v 0 -1.9 1.6
v -12 -1.9 1.6
v 0 -1.9 1.7
v -12 -1.9 1.7
v 0 -1.7 1.7
v -12 -1.7 1.7
v 0 -1.7 1.8
v -12 -1.7 1.8
v 0 -1.5 1.8
v -12 -1.5 1.8
v 0 -1.5 1.9
v -12 -1.5 1.9
v 0 -1.4 1.9
v -12 -1.4 1.9
v 0 -1.4 2
v -12 -1.4 2
v 0 -1.2 2
v -12 -1.2 2
v 0 -1.2 2.1
v -12 -1.2 2.1
v 0 -1 2.1
v -12 -1 2.1
v 0 -1 2.2
v -12 -1 2.2
v 0 -0.8 2.2
v -12 -0.8 2.2
v 0 -0.8 2.3
v -12 -0.8 2.3
v 0 -0.6 2.3
v -12 -0.6 2.3
v 0 -0.6 2.5
v -12 -0.6 2.5
v 0 -0.4 2.5
v -12 -0.4 2.5
v 0 -0.4 2.6
v -12 -0.4 2.6
v 0 0 2.6
v -12 0 2.6
v 0 0 3.2
v -12 0 3.2
v 0 0 24
v -12 0 24

# faces
f 3/2/1 2/2/1 1/2/1
f 4/2/1 2/2/1 3/2/1
f 5/2/1 2/2/1 4/2/1
f 6/2/1 2/2/1 5/2/1
f 7/2/1 2/2/1 6/2/1
f 8/2/1 2/2/1 7/2/1
f 9/2/1 2/2/1 8/2/1
f 10/2/1 2/2/1 9/2/1
f 11/2/1 2/2/1 10/2/1
f 12/2/1 2/2/1 11/2/1
f 13/2/1 2/2/1 12/2/1
f 14/2/1 2/2/1 13/2/1
f 15/2/1 2/2/1 14/2/1
f 16/2/1 2/2/1 15/2/1
f 17/2/1 2/2/1 16/2/1
f 18/2/1 2/2/1 17/2/1
f 19/2/1 2/2/1 18/2/1
f 20/2/1 2/2/1 19/2/1
f 21/2/1 19/2/1 18/2/1
f 22/2/1 19/2/1 21/2/1
f 23/2/1 19/2/1 22/2/1
f 24/2/1 19/2/1 23/2/1
f 25/2/1 19/2/1 24/2/1
f 26/2/1 19/2/1 25/2/1
f 27/2/1 19/2/1 26/2/1
f 28/2/1 19/2/1 27/2/1
f 29/2/1 19/2/1 28/2/1
f 30/2/1 19/2/1 29/2/1
f 31/2/1 19/2/1 30/2/1
f 32/1/1 20/1/1 19/1/1
f 32/2/1 19/2/1 31/2/1
f 33/1/1 20/1/1 32/1/1
f 34/2/1 2/2/1 20/2/1
f 34/1/1 20/1/1 33/1/1
f 35/2/1 2/2/1 34/2/1
f 36/2/2 37/2/2 38/2/2
f 38/2/2 37/2/2 39/2/2
f 39/2/2 37/2/2 40/2/2
f 40/2/2 37/2/2 41/2/2
f 41/2/2 37/2/2 42/2/2
f 42/2/2 37/2/2 43/2/2
f 43/2/2 37/2/2 44/2/2
f 44/2/2 37/2/2 45/2/2
f 45/2/2 37/2/2 46/2/2
f 46/2/2 37/2/2 47/2/2
f 47/2/2 37/2/2 48/2/2
f 48/2/2 37/2/2 49/2/2
f 49/2/2 37/2/2 50/2/2
f 50/2/2 37/2/2 51/2/2
f 51/2/2 37/2/2 52/2/2
f 52/2/2 37/2/2 53/2/2
f 53/2/2 37/2/2 54/2/2
f 54/2/2 37/2/2 55/2/2
f 53/2/2 54/2/2 56/2/2
f 56/2/2 54/2/2 57/2/2
f 57/2/2 54/2/2 58/2/2
f 58/2/2 54/2/2 59/2/2
f 59/2/2 54/2/2 60/2/2
f 60/2/2 54/2/2 61/2/2
f 61/2/2 54/2/2 62/2/2
f 62/2/2 54/2/2 63/2/2
f 63/2/2 54/2/2 64/2/2
f 64/2/2 54/2/2 65/2/2
f 65/2/2 54/2/2 66/2/2
f 54/1/2 55/1/2 67/1/2
f 66/2/2 54/2/2 67/2/2
f 67/1/2 55/1/2 68/1/2
f 55/2/2 37/2/2 69/2/2
f 68/1/2 55/1/2 69/1/2
f 69/2/2 37/2/2 70/2/2
f 73/2/3 72/2/3 71/2/3
f 74/2/3 72/2/3 73/2/3
f 77/2/3 76/2/3 75/2/3
f 78/2/3 76/2/3 77/2/3
f 81/2/3 80/2/3 79/2/3
f 82/2/3 80/2/3 81/2/3
f 85/2/3 84/2/3 83/2/3
f 86/2/3 84/2/3 85/2/3
f 89/2/3 88/2/3 87/2/3
f 90/2/3 88/2/3 89/2/3
f 93/2/3 92/2/3 91/2/3
f 94/2/3 92/2/3 93/2/3
f 97/2/3 96/2/3 95/2/3
f 98/2/3 96/2/3 97/2/3
f 101/2/3 100/2/3 99/2/3
f 102/2/3 100/2/3 101/2/3
f 105/2/3 104/2/3 103/2/3
f 106/2/3 104/2/3 105/2/3
f 109/2/3 108/2/3 107/2/3
f 110/2/3 108/2/3 109/2/3
f 113/2/3 112/2/3 111/2/3
f 114/2/3 112/2/3 113/2/3
f 117/2/3 116/2/3 115/2/3
f 118/2/3 116/2/3 117/2/3
f 121/2/3 120/2/3 119/2/3
f 122/2/3 120/2/3 121/2/3
f 125/2/3 124/2/3 123/2/3
f 126/2/3 124/2/3 125/2/3
f 129/1/3 128/1/3 127/1/3
f 130/1/3 128/1/3 129/1/3
f 131/2/4 132/2/4 133/2/4
f 133/2/4 132/2/4 134/2/4
f 137/2/5 136/2/5 135/2/5
f 138/2/5 136/2/5 137/2/5
f 139/2/6 140/2/6 141/2/6
f 141/2/6 140/2/6 142/2/6
f 143/2/6 144/2/6 145/2/6
f 145/2/6 144/2/6 146/2/6
f 147/2/6 148/2/6 149/2/6
f 149/2/6 148/2/6 150/2/6
f 151/2/6 152/2/6 153/2/6
f 153/2/6 152/2/6 154/2/6
f 155/2/6 156/2/6 157/2/6
f 157/2/6 156/2/6 158/2/6
f 159/2/6 160/2/6 161/2/6
f 161/2/6 160/2/6 162/2/6
f 163/2/6 164/2/6 165/2/6
f 165/2/6 164/2/6 166/2/6
f 167/2/6 168/2/6 169/2/6
f 169/2/6 168/2/6 170/2/6
f 171/2/6 172/2/6 173/2/6
f 173/2/6 172/2/6 174/2/6
f 175/2/6 176/2/6 177/2/6
f 177/2/6 176/2/6 178/2/6
f 179/2/6 180/2/6 181/2/6
f 181/2/6 180/2/6 182/2/6
f 183/2/6 184/2/6 185/2/6
f 185/2/6 184/2/6 186/2/6
f 187/2/6 188/2/6 189/2/6
f 189/2/6 188/2/6 190/2/6
f 191/2/6 192/2/6 193/2/6
f 193/2/6 192/2/6 194/2/6
f 195/1/6 196/1/6 197/1/6
f 197/1/6 196/1/6 198/1/6
f 197/2/6 198/2/6 199/2/6
f 199/2/6 198/2/6 200/2/6
