# MagicaVoxel @ Ephtracy

# group
o 

# material
mtllib Map-9.mtl
usemtl palette

# normals
vn -1 0 0
vn 1 0 0
vn 0 0 -1
vn 0 0 1
vn 0 -1 0
vn 0 1 0

# texcoords
vt 0.00195312 0.5
vt 0.0605469 0.5
vt 0.0957031 0.5
vt 0.158203 0.5
vt 0.162109 0.5
vt 0.166016 0.5
vt 0.189453 0.5
vt 0.193359 0.5
vt 0.197266 0.5

# verts
v 12 0 3.4
v 12 0 10
v 12 0 12.5
v 12 0 24
v 12 0.1 3.4
v 12 0.1 3.6
v 12 0.2 3.6
v 12 0.2 9.8
v 12 0.2 10
v 12 0.2 12.5
v 12 0.2 12.7
v 12 0.2 24
v 12 0.3 9.8
v 12 0.3 10
v 12 0.3 12.5
v 12 0.3 12.7
v 12.2 0.2 4.4
v 12.2 0.2 6
v 12.2 0.2 6.3
v 12.2 0.2 7.9
v 12.2 0.2 8.2
v 12.2 0.2 9.3
v 12.2 0.2 13.2
v 12.2 0.2 14.3
v 12.2 0.2 14.6
v 12.2 0.2 16.2
v 12.2 0.2 16.5
v 12.2 0.2 18.1
v 12.2 0.2 18.4
v 12.2 0.2 20
v 12.2 0.2 20.3
v 12.2 0.2 21.9
v 12.2 0.2 22.2
v 12.2 0.2 23.8
v 12.2 0.3 4.4
v 12.2 0.3 6
v 12.2 0.3 6.3
v 12.2 0.3 7.9
v 12.2 0.3 8.2
v 12.2 0.3 9.3
v 12.2 0.3 13.2
v 12.2 0.3 14.3
v 12.2 0.3 14.6
v 12.2 0.3 16.2
v 12.2 0.3 16.5
v 12.2 0.3 18.1
v 12.2 0.3 18.4
v 12.2 0.3 20
v 12.2 0.3 20.3
v 12.2 0.3 21.9
v 12.2 0.3 22.2
v 12.2 0.3 23.8
v 12.3 0.3 4.5
v 12.3 0.3 5.9
v 12.3 0.3 6.4
v 12.3 0.3 7.8
v 12.3 0.3 8.3
v 12.3 0.3 9.2
v 12.3 0.3 13.3
v 12.3 0.3 14.2
v 12.3 0.3 14.7
v 12.3 0.3 16.1
v 12.3 0.3 16.6
v 12.3 0.3 18
v 12.3 0.3 18.5
v 12.3 0.3 19.9
v 12.3 0.3 20.4
v 12.3 0.3 21.8
v 12.3 0.3 22.3
v 12.3 0.3 23.7
v 12.3 1.2 4.5
v 12.3 1.2 5.9
v 12.3 1.2 6.4
v 12.3 1.2 7.8
v 12.3 1.2 8.3
v 12.3 1.2 9.2
v 12.3 1.2 13.3
v 12.3 1.2 14.2
v 12.3 1.2 14.7
v 12.3 1.2 16.1
v 12.3 1.2 16.6
v 12.3 1.2 18
v 12.3 1.2 18.5
v 12.3 1.2 19.9
v 12.3 1.2 20.4
v 12.3 1.2 21.8
v 12.3 1.2 22.3
v 12.3 1.2 23.7
v 13.1 2.7 4
v 13.1 2.7 9.7
v 13.1 2.7 12.8
v 13.1 2.7 24
v 13.1 2.9 4
v 13.1 2.9 9.7
v 13.1 2.9 12.8
v 13.1 2.9 24
v 13.2 0.2 4.1
v 13.2 0.2 9.6
v 13.2 0.2 12.9
v 13.2 0.2 24
v 13.2 0.5 4.1
v 13.2 0.5 9.6
v 13.2 0.5 12.9
v 13.2 0.5 24
v 13.2 2.9 4.1
v 13.2 2.9 9.6
v 13.2 2.9 12.9
v 13.2 2.9 24
v 13.2 3 4.1
v 13.2 3 9.6
v 13.2 3 12.9
v 13.2 3 24
v 13.3 0.5 4.2
v 13.3 0.5 9.5
v 13.3 0.5 13
v 13.3 0.5 24
v 13.3 2.8 4.2
v 13.3 2.8 9.5
v 13.3 2.8 13
v 13.3 2.8 24
v 13.3 3 4.2
v 13.3 3 9.5
v 13.3 3 13
v 13.3 3 24
v 13.3 3.1 4.2
v 13.3 3.1 9.5
v 13.3 3.1 13
v 13.3 3.1 24
v 13.4 3.1 4.3
v 13.4 3.1 9.4
v 13.4 3.1 13.1
v 13.4 3.1 24
v 13.4 3.2 4.3
v 13.4 3.2 9.4
v 13.4 3.2 13.1
v 13.4 3.2 24
v 13.5 3.2 4.4
v 13.5 3.2 9.3
v 13.5 3.2 13.2
v 13.5 3.2 24
v 13.5 3.3 4.4
v 13.5 3.3 9.3
v 13.5 3.3 13.2
v 13.5 3.3 24
v 14.5 2.7 5.3
v 14.5 2.7 5.4
v 14.5 2.7 5.5
v 14.5 2.7 9.6
v 14.5 2.7 12.9
v 14.5 2.7 24
v 14.5 2.8 5.3
v 14.5 2.8 5.4
v 14.5 2.8 5.5
v 14.5 2.8 9.6
v 14.5 2.8 12.9
v 14.5 2.8 24
v 12.9 0.3 4.5
v 12.9 0.3 5.9
v 12.9 0.3 6.4
v 12.9 0.3 7.8
v 12.9 0.3 8.3
v 12.9 0.3 9.2
v 12.9 0.3 13.3
v 12.9 0.3 14.2
v 12.9 0.3 14.7
v 12.9 0.3 16.1
v 12.9 0.3 16.6
v 12.9 0.3 18
v 12.9 0.3 18.5
v 12.9 0.3 19.9
v 12.9 0.3 20.4
v 12.9 0.3 21.8
v 12.9 0.3 22.3
v 12.9 0.3 23.7
v 12.9 1.2 4.5
v 12.9 1.2 5.9
v 12.9 1.2 6.4
v 12.9 1.2 7.8
v 12.9 1.2 8.3
v 12.9 1.2 9.2
v 12.9 1.2 13.3
v 12.9 1.2 14.2
v 12.9 1.2 14.7
v 12.9 1.2 16.1
v 12.9 1.2 16.6
v 12.9 1.2 18
v 12.9 1.2 18.5
v 12.9 1.2 19.9
v 12.9 1.2 20.4
v 12.9 1.2 21.8
v 12.9 1.2 22.3
v 12.9 1.2 23.7
v 13 0.2 4.4
v 13 0.2 6
v 13 0.2 6.3
v 13 0.2 7.9
v 13 0.2 8.2
v 13 0.2 9.3
v 13 0.2 13.2
v 13 0.2 14.3
v 13 0.2 14.6
v 13 0.2 16.2
v 13 0.2 16.5
v 13 0.2 18.1
v 13 0.2 18.4
v 13 0.2 20
v 13 0.2 20.3
v 13 0.2 21.9
v 13 0.2 22.2
v 13 0.2 23.8
v 13 0.3 4.4
v 13 0.3 6
v 13 0.3 6.3
v 13 0.3 7.9
v 13 0.3 8.2
v 13 0.3 9.3
v 13 0.3 13.2
v 13 0.3 14.3
v 13 0.3 14.6
v 13 0.3 16.2
v 13 0.3 16.5
v 13 0.3 18.1
v 13 0.3 18.4
v 13 0.3 20
v 13 0.3 20.3
v 13 0.3 21.9
v 13 0.3 22.2
v 13 0.3 23.8
v 13.2 2.7 4.1
v 13.2 2.7 9.6
v 13.2 2.7 12.9
v 13.2 2.7 24
v 13.2 2.8 4.1
v 13.2 2.8 9.6
v 13.2 2.8 12.9
v 13.2 2.8 24
v 14.2 3.2 5.1
v 14.2 3.2 9.3
v 14.2 3.2 13.2
v 14.2 3.2 24
v 14.2 3.3 5.1
v 14.2 3.3 9.3
v 14.2 3.3 13.2
v 14.2 3.3 24
v 14.3 3.1 5.2
v 14.3 3.1 9.4
v 14.3 3.1 13.1
v 14.3 3.1 24
v 14.3 3.2 5.2
v 14.3 3.2 9.4
v 14.3 3.2 13.1
v 14.3 3.2 24
v 14.4 0.5 5.3
v 14.4 0.5 9.5
v 14.4 0.5 13
v 14.4 0.5 24
v 14.4 2.7 5.4
v 14.4 2.7 5.5
v 14.4 2.8 5.3
v 14.4 2.8 5.4
v 14.4 2.8 5.5
v 14.4 2.8 9.5
v 14.4 2.8 13
v 14.4 2.8 24
v 14.4 3 5.3
v 14.4 3 9.5
v 14.4 3 13
v 14.4 3 24
v 14.4 3.1 5.3
v 14.4 3.1 9.5
v 14.4 3.1 13
v 14.4 3.1 24
v 14.5 0.2 5.4
v 14.5 0.2 9.6
v 14.5 0.2 12.9
v 14.5 0.2 24
v 14.5 0.5 5.4
v 14.5 0.5 9.6
v 14.5 0.5 12.9
v 14.5 0.5 24
v 14.5 2.9 5.4
v 14.5 2.9 9.6
v 14.5 2.9 12.9
v 14.5 2.9 24
v 14.5 3 5.4
v 14.5 3 9.6
v 14.5 3 12.9
v 14.5 3 24
v 14.6 2.7 5.3
v 14.6 2.7 5.4
v 14.6 2.7 5.5
v 14.6 2.7 9.7
v 14.6 2.7 12.8
v 14.6 2.7 24
v 14.6 2.8 5.3
v 14.6 2.8 5.4
v 14.6 2.9 5.5
v 14.6 2.9 9.7
v 14.6 2.9 12.8
v 14.6 2.9 24
v 24 0 3.4
v 24 0 24
v 24 0.1 3.4
v 24 0.1 3.6
v 24 0.1 10
v 24 0.1 12.5
v 24 0.2 3.6
v 24 0.2 4.1
v 24 0.2 5.4
v 24 0.2 9.8
v 24 0.2 10
v 24 0.2 12.5
v 24 0.2 12.7
v 24 0.2 24
v 24 0.3 9.8
v 24 0.3 10
v 24 0.3 12.5
v 24 0.3 12.7
v 24 0.5 4.1
v 24 0.5 4.2
v 24 0.5 5.3
v 24 0.5 5.4
v 24 2.7 4
v 24 2.7 4.1
v 24 2.7 5.4
v 24 2.7 5.5
v 24 2.8 4.1
v 24 2.8 4.2
v 24 2.8 5.3
v 24 2.8 5.4
v 24 2.9 4
v 24 2.9 4.1
v 24 2.9 5.4
v 24 2.9 5.5
v 24 3 4.1
v 24 3 4.2
v 24 3 5.3
v 24 3 5.4
v 24 3.1 4.2
v 24 3.1 4.3
v 24 3.1 5.2
v 24 3.1 5.3
v 24 3.2 4.3
v 24 3.2 4.4
v 24 3.2 5.1
v 24 3.2 5.2
v 24 3.3 4.4
v 24 3.3 5.1
v 12 0 3.4
v 12 0.1 3.4
v 24 0 3.4
v 24 0.1 3.4
v 12 0.1 3.6
v 12 0.2 3.6
v 24 0.1 3.6
v 24 0.2 3.6
v 13.1 2.7 4
v 13.1 2.9 4
v 24 2.7 4
v 24 2.9 4
v 13.2 0.2 4.1
v 13.2 0.5 4.1
v 13.2 2.9 4.1
v 13.2 3 4.1
v 24 0.2 4.1
v 24 0.5 4.1
v 24 2.9 4.1
v 24 3 4.1
v 13.3 0.5 4.2
v 13.3 2.8 4.2
v 13.3 3 4.2
v 13.3 3.1 4.2
v 24 0.5 4.2
v 24 2.8 4.2
v 24 3 4.2
v 24 3.1 4.2
v 13.4 3.1 4.3
v 13.4 3.2 4.3
v 24 3.1 4.3
v 24 3.2 4.3
v 12.2 0.2 4.4
v 12.2 0.3 4.4
v 13 0.2 4.4
v 13 0.3 4.4
v 13.5 3.2 4.4
v 13.5 3.3 4.4
v 24 3.2 4.4
v 24 3.3 4.4
v 12.3 0.3 4.5
v 12.3 1.2 4.5
v 12.9 0.3 4.5
v 12.9 1.2 4.5
v 14.4 2.7 5.4
v 14.4 2.8 5.4
v 14.5 2.7 5.4
v 14.5 2.8 5.4
v 14.6 2.7 5.4
v 14.6 2.8 5.4
v 24 2.7 5.4
v 24 2.8 5.4
v 12.2 0.2 6.3
v 12.2 0.3 6.3
v 13 0.2 6.3
v 13 0.3 6.3
v 12.3 0.3 6.4
v 12.3 1.2 6.4
v 12.9 0.3 6.4
v 12.9 1.2 6.4
v 12.2 0.2 8.2
v 12.2 0.3 8.2
v 13 0.2 8.2
v 13 0.3 8.2
v 12.3 0.3 8.3
v 12.3 1.2 8.3
v 12.9 0.3 8.3
v 12.9 1.2 8.3
v 13.2 2.7 9.6
v 13.2 2.8 9.6
v 14.5 2.7 9.6
v 14.5 2.8 9.6
v 12 0.2 9.8
v 12 0.3 9.8
v 24 0.2 9.8
v 24 0.3 9.8
v 12 0.2 12.5
v 12 0.3 12.5
v 14.6 0.2 12.5
v 15.5 0.2 12.5
v 21.8 0.2 12.5
v 22.9 0.2 12.5
v 24 0.2 12.5
v 24 0.3 12.5
v 13.1 2.7 12.8
v 13.1 2.9 12.8
v 14.6 2.7 12.8
v 14.6 2.9 12.8
v 13.2 0.2 12.9
v 13.2 0.5 12.9
v 13.2 2.9 12.9
v 13.2 3 12.9
v 14.5 0.2 12.9
v 14.5 0.5 12.9
v 14.5 2.9 12.9
v 14.5 3 12.9
v 13.3 0.5 13
v 13.3 2.8 13
v 13.3 3 13
v 13.3 3.1 13
v 14.4 0.5 13
v 14.4 2.8 13
v 14.4 3 13
v 14.4 3.1 13
v 13.4 3.1 13.1
v 13.4 3.2 13.1
v 14.3 3.1 13.1
v 14.3 3.2 13.1
v 12.2 0.2 13.2
v 12.2 0.3 13.2
v 13 0.2 13.2
v 13 0.3 13.2
v 13.5 3.2 13.2
v 13.5 3.3 13.2
v 14.2 3.2 13.2
v 14.2 3.3 13.2
v 12.3 0.3 13.3
v 12.3 1.2 13.3
v 12.9 0.3 13.3
v 12.9 1.2 13.3
v 12.2 0.2 14.6
v 12.2 0.3 14.6
v 13 0.2 14.6
v 13 0.3 14.6
v 12.3 0.3 14.7
v 12.3 1.2 14.7
v 12.9 0.3 14.7
v 12.9 1.2 14.7
v 12.2 0.2 16.5
v 12.2 0.3 16.5
v 13 0.2 16.5
v 13 0.3 16.5
v 12.3 0.3 16.6
v 12.3 1.2 16.6
v 12.9 0.3 16.6
v 12.9 1.2 16.6
v 12.2 0.2 18.4
v 12.2 0.3 18.4
v 13 0.2 18.4
v 13 0.3 18.4
v 12.3 0.3 18.5
v 12.3 1.2 18.5
v 12.9 0.3 18.5
v 12.9 1.2 18.5
v 12.2 0.2 20.3
v 12.2 0.3 20.3
v 13 0.2 20.3
v 13 0.3 20.3
v 12.3 0.3 20.4
v 12.3 1.2 20.4
v 12.9 0.3 20.4
v 12.9 1.2 20.4
v 12.2 0.2 22.2
v 12.2 0.3 22.2
v 13 0.2 22.2
v 13 0.3 22.2
v 12.3 0.3 22.3
v 12.3 1.2 22.3
v 12.9 0.3 22.3
v 12.9 1.2 22.3
v 13.2 2.7 4.1
v 13.2 2.8 4.1
v 24 2.7 4.1
v 24 2.8 4.1
v 14.2 3.2 5.1
v 14.2 3.3 5.1
v 24 3.2 5.1
v 24 3.3 5.1
v 14.3 3.1 5.2
v 14.3 3.2 5.2
v 24 3.1 5.2
v 24 3.2 5.2
v 14.4 0.5 5.3
v 14.4 2.8 5.3
v 14.4 3 5.3
v 14.4 3.1 5.3
v 14.5 2.7 5.3
v 14.5 2.8 5.3
v 14.6 2.7 5.3
v 14.6 2.8 5.3
v 24 0.5 5.3
v 24 2.8 5.3
v 24 3 5.3
v 24 3.1 5.3
v 14.5 0.2 5.4
v 14.5 0.5 5.4
v 14.5 2.9 5.4
v 14.5 3 5.4
v 24 0.2 5.4
v 24 0.5 5.4
v 24 2.9 5.4
v 24 3 5.4
v 14.4 2.7 5.5
v 14.4 2.8 5.5
v 14.5 2.7 5.5
v 14.5 2.8 5.5
v 14.6 2.7 5.5
v 14.6 2.9 5.5
v 24 2.7 5.5
v 24 2.9 5.5
v 12.3 0.3 5.9
v 12.3 1.2 5.9
v 12.9 0.3 5.9
v 12.9 1.2 5.9
v 12.2 0.2 6
v 12.2 0.3 6
v 13 0.2 6
v 13 0.3 6
v 12.3 0.3 7.8
v 12.3 1.2 7.8
v 12.9 0.3 7.8
v 12.9 1.2 7.8
v 12.2 0.2 7.9
v 12.2 0.3 7.9
v 13 0.2 7.9
v 13 0.3 7.9
v 12.3 0.3 9.2
v 12.3 1.2 9.2
v 12.9 0.3 9.2
v 12.9 1.2 9.2
v 12.2 0.2 9.3
v 12.2 0.3 9.3
v 13 0.2 9.3
v 13 0.3 9.3
v 13.5 3.2 9.3
v 13.5 3.3 9.3
v 14.2 3.2 9.3
v 14.2 3.3 9.3
v 13.4 3.1 9.4
v 13.4 3.2 9.4
v 14.3 3.1 9.4
v 14.3 3.2 9.4
v 13.3 0.5 9.5
v 13.3 2.8 9.5
v 13.3 3 9.5
v 13.3 3.1 9.5
v 14.4 0.5 9.5
v 14.4 2.8 9.5
v 14.4 3 9.5
v 14.4 3.1 9.5
v 13.2 0.2 9.6
v 13.2 0.5 9.6
v 13.2 2.9 9.6
v 13.2 3 9.6
v 14.5 0.2 9.6
v 14.5 0.5 9.6
v 14.5 2.9 9.6
v 14.5 3 9.6
v 13.1 2.7 9.7
v 13.1 2.9 9.7
v 14.6 2.7 9.7
v 14.6 2.9 9.7
v 12 0.2 10
v 12 0.3 10
v 14.4 0.2 10
v 15.3 0.2 10
v 24 0.2 10
v 24 0.3 10
v 12 0.2 12.7
v 12 0.3 12.7
v 24 0.2 12.7
v 24 0.3 12.7
v 13.2 2.7 12.9
v 13.2 2.8 12.9
v 14.5 2.7 12.9
v 14.5 2.8 12.9
v 12.3 0.3 14.2
v 12.3 1.2 14.2
v 12.9 0.3 14.2
v 12.9 1.2 14.2
v 12.2 0.2 14.3
v 12.2 0.3 14.3
v 13 0.2 14.3
v 13 0.3 14.3
v 12.3 0.3 16.1
v 12.3 1.2 16.1
v 12.9 0.3 16.1
v 12.9 1.2 16.1
v 12.2 0.2 16.2
v 12.2 0.3 16.2
v 13 0.2 16.2
v 13 0.3 16.2
v 12.3 0.3 18
v 12.3 1.2 18
v 12.9 0.3 18
v 12.9 1.2 18
v 12.2 0.2 18.1
v 12.2 0.3 18.1
v 13 0.2 18.1
v 13 0.3 18.1
v 12.3 0.3 19.9
v 12.3 1.2 19.9
v 12.9 0.3 19.9
v 12.9 1.2 19.9
v 12.2 0.2 20
v 12.2 0.3 20
v 13 0.2 20
v 13 0.3 20
v 12.3 0.3 21.8
v 12.3 1.2 21.8
v 12.9 0.3 21.8
v 12.9 1.2 21.8
v 12.2 0.2 21.9
v 12.2 0.3 21.9
v 13 0.2 21.9
v 13 0.3 21.9
v 12.3 0.3 23.7
v 12.3 1.2 23.7
v 12.9 0.3 23.7
v 12.9 1.2 23.7
v 12.2 0.2 23.8
v 12.2 0.3 23.8
v 13 0.2 23.8
v 13 0.3 23.8
v 12 0 24
v 12 0.2 24
v 13.1 2.7 24
v 13.1 2.9 24
v 13.2 0.1 24
v 13.2 0.2 24
v 13.2 0.5 24
v 13.2 2.7 24
v 13.2 2.8 24
v 13.2 2.9 24
v 13.2 3 24
v 13.3 0.1 24
v 13.3 0.2 24
v 13.3 0.5 24
v 13.3 2.8 24
v 13.3 3 24
v 13.3 3.1 24
v 13.4 3.1 24
v 13.4 3.2 24
v 13.5 3.2 24
v 13.5 3.3 24
v 14.2 3.2 24
v 14.2 3.3 24
v 14.3 3.1 24
v 14.3 3.2 24
v 14.4 0.5 24
v 14.4 2.8 24
v 14.4 3 24
v 14.4 3.1 24
v 14.5 0.2 24
v 14.5 0.5 24
v 14.5 2.7 24
v 14.5 2.8 24
v 14.5 2.9 24
v 14.5 3 24
v 14.6 2.7 24
v 14.6 2.9 24
v 24 0 24
v 24 0.2 24
v 12 0 3.4
v 24 0 3.4
v 12 0 10
v 13.3 0 10
v 12 0 12.5
v 13.3 0 12.5
v 12 0 24
v 24 0 24
v 13.1 2.7 4
v 24 2.7 4
v 13.2 2.7 4.1
v 24 2.7 4.1
v 14.5 2.7 5.3
v 14.6 2.7 5.3
v 14.4 2.7 5.4
v 14.5 2.7 5.4
v 14.6 2.7 5.4
v 24 2.7 5.4
v 14.4 2.7 5.5
v 14.5 2.7 5.5
v 14.6 2.7 5.5
v 24 2.7 5.5
v 13.2 2.7 9.6
v 14.5 2.7 9.6
v 13.1 2.7 9.7
v 14.6 2.7 9.7
v 13.1 2.7 12.8
v 14.6 2.7 12.8
v 13.2 2.7 12.9
v 14.5 2.7 12.9
v 13.1 2.7 24
v 13.2 2.7 24
v 14.5 2.7 24
v 14.6 2.7 24
v 13.2 2.8 4.1
v 24 2.8 4.1
v 13.3 2.8 4.2
v 24 2.8 4.2
v 14.4 2.8 5.3
v 14.5 2.8 5.3
v 14.6 2.8 5.3
v 24 2.8 5.3
v 14.4 2.8 5.4
v 14.5 2.8 5.4
v 14.6 2.8 5.4
v 24 2.8 5.4
v 14.4 2.8 5.5
v 14.5 2.8 5.5
v 13.3 2.8 9.5
v 14.4 2.8 9.5
v 13.2 2.8 9.6
v 14.5 2.8 9.6
v 13.2 2.8 12.9
v 14.5 2.8 12.9
v 13.3 2.8 13
v 14.4 2.8 13
v 13.2 2.8 24
v 13.3 2.8 24
v 14.4 2.8 24
v 14.5 2.8 24
v 12 0.1 3.4
v 24 0.1 3.4
v 12 0.1 3.6
v 24 0.1 3.6
v 12 0.2 3.6
v 24 0.2 3.6
v 13.2 0.2 4.1
v 24 0.2 4.1
v 12.2 0.2 4.4
v 13 0.2 4.4
v 14.5 0.2 5.4
v 24 0.2 5.4
v 12.2 0.2 6
v 13 0.2 6
v 12.2 0.2 6.3
v 13 0.2 6.3
v 21.8 0.2 6.5
v 22 0.2 6.5
v 22.7 0.2 6.5
v 22.9 0.2 6.5
v 23 0.2 6.5
v 23.2 0.2 6.5
v 17.7 0.2 6.6
v 17.8 0.2 6.6
v 21.8 0.2 6.6
v 22 0.2 6.6
v 22.1 0.2 6.6
v 22.2 0.2 6.6
v 22.3 0.2 6.6
v 22.6 0.2 6.6
v 22.7 0.2 6.6
v 22.9 0.2 6.6
v 23 0.2 6.6
v 23.2 0.2 6.6
v 22.1 0.2 6.7
v 22.2 0.2 6.7
v 22.3 0.2 6.7
v 22.6 0.2 6.7
v 15.7 0.2 6.8
v 16.2 0.2 6.8
v 17.7 0.2 6.8
v 17.8 0.2 6.8
v 19 0.2 6.8
v 19.1 0.2 6.8
v 16.1 0.2 6.9
v 16.2 0.2 6.9
v 17.8 0.2 6.9
v 18 0.2 6.9
v 18.5 0.2 6.9
v 18.6 0.2 6.9
v 21.3 0.2 6.9
v 21.5 0.2 6.9
v 18.5 0.2 7
v 18.6 0.2 7
v 19 0.2 7
v 19.1 0.2 7
v 20.8 0.2 7
v 21 0.2 7
v 21.5 0.2 7
v 21.7 0.2 7
v 18.4 0.2 7.1
v 18.8 0.2 7.1
v 20.8 0.2 7.1
v 21 0.2 7.1
v 21.3 0.2 7.1
v 21.4 0.2 7.1
v 21.7 0.2 7.1
v 22 0.2 7.1
v 18 0.2 7.2
v 18.1 0.2 7.2
v 20.9 0.2 7.2
v 21 0.2 7.2
v 21.4 0.2 7.2
v 21.7 0.2 7.2
v 22 0.2 7.2
v 22.2 0.2 7.2
v 15.8 0.2 7.3
v 16.1 0.2 7.3
v 20.9 0.2 7.3
v 21 0.2 7.3
v 21.7 0.2 7.3
v 22.2 0.2 7.3
v 17.8 0.2 7.4
v 17.9 0.2 7.4
v 22.3 0.2 7.4
v 22.6 0.2 7.4
v 15.6 0.2 7.5
v 15.7 0.2 7.5
v 15.8 0.2 7.5
v 18.1 0.2 7.5
v 18.4 0.2 7.5
v 21 0.2 7.5
v 21.1 0.2 7.5
v 22.3 0.2 7.5
v 22.6 0.2 7.5
v 22.7 0.2 7.5
v 22.9 0.2 7.5
v 17.9 0.2 7.6
v 18.1 0.2 7.6
v 21.1 0.2 7.6
v 21.3 0.2 7.6
v 22.7 0.2 7.6
v 22.9 0.2 7.6
v 23.2 0.2 7.6
v 15.6 0.2 7.7
v 15.7 0.2 7.7
v 15.8 0.2 7.7
v 18.5 0.2 7.7
v 18.8 0.2 7.7
v 22.9 0.2 7.8
v 23.2 0.2 7.8
v 12.2 0.2 7.9
v 13 0.2 7.9
v 18.1 0.2 7.9
v 18.5 0.2 7.9
v 18.6 0.2 8
v 19 0.2 8
v 15.5 0.2 8.1
v 15.6 0.2 8.1
v 17.9 0.2 8.1
v 18 0.2 8.1
v 21 0.2 8.1
v 21.3 0.2 8.1
v 12.2 0.2 8.2
v 13 0.2 8.2
v 17.7 0.2 8.3
v 17.9 0.2 8.3
v 18.6 0.2 8.3
v 19 0.2 8.3
v 21.4 0.2 8.4
v 21.6 0.2 8.4
v 17.7 0.2 8.5
v 17.8 0.2 8.5
v 17.9 0.2 8.5
v 18 0.2 8.5
v 19.4 0.2 8.5
v 19.8 0.2 8.5
v 21.4 0.2 8.5
v 21.5 0.2 8.5
v 21.6 0.2 8.5
v 21.7 0.2 8.5
v 15.7 0.2 8.6
v 15.8 0.2 8.6
v 17.7 0.2 8.6
v 17.8 0.2 8.6
v 17.9 0.2 8.6
v 19.4 0.2 8.6
v 19.8 0.2 8.6
v 21.5 0.2 8.6
v 21.7 0.2 8.6
v 17.7 0.2 8.7
v 17.8 0.2 8.7
v 20.2 0.2 8.7
v 20.4 0.2 8.7
v 22.1 0.2 8.7
v 22.2 0.2 8.7
v 15.6 0.2 8.8
v 15.7 0.2 8.8
v 17.7 0.2 8.8
v 17.8 0.2 8.8
v 20.2 0.2 8.8
v 20.4 0.2 8.8
v 22.1 0.2 8.8
v 22.2 0.2 8.8
v 15.6 0.2 9
v 15.7 0.2 9
v 17.7 0.2 9
v 17.8 0.2 9
v 15.5 0.2 9.1
v 15.6 0.2 9.1
v 12.2 0.2 9.3
v 13 0.2 9.3
v 15.5 0.2 9.4
v 15.6 0.2 9.4
v 15.5 0.2 9.5
v 15.6 0.2 9.5
v 13.2 0.2 9.6
v 14.5 0.2 9.6
v 12 0.2 9.8
v 24 0.2 9.8
v 12 0.2 10
v 14.4 0.2 10
v 15.3 0.2 10
v 24 0.2 10
v 15.5 0.2 10.1
v 15.6 0.2 10.1
v 13.9 0.2 10.2
v 14.4 0.2 10.2
v 14.9 0.2 10.2
v 15.3 0.2 10.2
v 15.5 0.2 10.2
v 15.6 0.2 10.2
v 15.7 0.2 10.2
v 22.3 0.2 10.2
v 23.1 0.2 10.2
v 13.8 0.2 10.3
v 13.9 0.2 10.3
v 22.2 0.2 10.3
v 22.3 0.2 10.3
v 23.1 0.2 10.3
v 23.3 0.2 10.3
v 13 0.2 10.4
v 13.8 0.2 10.4
v 14.7 0.2 10.4
v 14.9 0.2 10.4
v 15.6 0.2 10.4
v 15.7 0.2 10.4
v 15.2 0.2 10.5
v 15.5 0.2 10.5
v 19.6 0.2 10.5
v 20.2 0.2 10.5
v 21.7 0.2 10.5
v 22.2 0.2 10.5
v 14.2 0.2 10.6
v 14.6 0.2 10.6
v 15.2 0.2 10.6
v 15.6 0.2 10.6
v 16.4 0.2 10.6
v 16.6 0.2 10.6
v 20.2 0.2 10.6
v 21.1 0.2 10.6
v 12.8 0.2 10.7
v 13 0.2 10.7
v 13.2 0.2 10.7
v 13.3 0.2 10.7
v 21.4 0.2 10.7
v 21.7 0.2 10.7
v 22.5 0.2 10.7
v 23 0.2 10.7
v 23.3 0.2 10.7
v 23.6 0.2 10.7
v 13.3 0.2 10.8
v 13.5 0.2 10.8
v 13.6 0.2 10.8
v 14.2 0.2 10.8
v 14.6 0.2 10.8
v 14.7 0.2 10.8
v 16.6 0.2 10.8
v 17.1 0.2 10.8
v 23.3 0.2 10.8
v 23.6 0.2 10.8
v 13.2 0.2 10.9
v 13.5 0.2 10.9
v 13.6 0.2 10.9
v 16.4 0.2 10.9
v 17 0.2 10.9
v 17.8 0.2 10.9
v 18.6 0.2 10.9
v 19.9 0.2 10.9
v 20.8 0.2 10.9
v 23.3 0.2 10.9
v 23.6 0.2 10.9
v 13.2 0.2 11
v 13.5 0.2 11
v 18.7 0.2 11
v 19.6 0.2 11
v 21.1 0.2 11
v 21.2 0.2 11
v 22 0.2 11
v 22.5 0.2 11
v 23 0.2 11
v 23.2 0.2 11
v 12.5 0.2 11.1
v 12.6 0.2 11.1
v 17.1 0.2 11.1
v 17.4 0.2 11.1
v 17.6 0.2 11.1
v 17.8 0.2 11.1
v 21.2 0.2 11.1
v 21.4 0.2 11.1
v 12.5 0.2 11.2
v 12.6 0.2 11.2
v 17.4 0.2 11.2
v 17.6 0.2 11.2
v 19.4 0.2 11.2
v 19.9 0.2 11.2
v 20.7 0.2 11.2
v 20.8 0.2 11.2
v 21.9 0.2 11.2
v 22 0.2 11.2
v 18.3 0.2 11.3
v 18.4 0.2 11.3
v 18.6 0.2 11.3
v 18.7 0.2 11.3
v 19.2 0.2 11.3
v 19.4 0.2 11.3
v 20.7 0.2 11.3
v 21.4 0.2 11.3
v 21.7 0.2 11.3
v 21.9 0.2 11.3
v 12.7 0.2 11.4
v 12.8 0.2 11.4
v 13.2 0.2 11.4
v 13.5 0.2 11.4
v 17 0.2 11.4
v 17.5 0.2 11.4
v 21.6 0.2 11.4
v 21.7 0.2 11.4
v 23.2 0.2 11.4
v 23.3 0.2 11.4
v 13 0.2 11.5
v 13.5 0.2 11.5
v 13.8 0.2 11.5
v 13.9 0.2 11.5
v 14 0.2 11.5
v 14.3 0.2 11.5
v 15.9 0.2 11.5
v 16.3 0.2 11.5
v 17.5 0.2 11.5
v 18.3 0.2 11.5
v 18.4 0.2 11.5
v 18.9 0.2 11.5
v 19.2 0.2 11.5
v 21.4 0.2 11.5
v 21.6 0.2 11.5
v 15.4 0.2 11.6
v 15.9 0.2 11.6
v 16.3 0.2 11.6
v 16.5 0.2 11.6
v 18.3 0.2 11.6
v 18.9 0.2 11.6
v 23.3 0.2 11.6
v 23.6 0.2 11.6
v 23.9 0.2 11.6
v 13.9 0.2 11.7
v 14 0.2 11.7
v 18.3 0.2 11.7
v 18.4 0.2 11.7
v 15.3 0.2 11.8
v 15.4 0.2 11.8
v 16.5 0.2 11.8
v 17.3 0.2 11.8
v 18.3 0.2 11.8
v 18.4 0.2 11.8
v 21.4 0.2 11.8
v 21.5 0.2 11.8
v 12.7 0.2 11.9
v 12.8 0.2 11.9
v 13 0.2 11.9
v 13.8 0.2 11.9
v 14.3 0.2 11.9
v 15.3 0.2 11.9
v 17.3 0.2 11.9
v 18.3 0.2 11.9
v 19 0.2 11.9
v 19.1 0.2 11.9
v 23.2 0.2 11.9
v 23.6 0.2 11.9
v 15.9 0.2 12
v 16.7 0.2 12
v 20.6 0.2 12
v 21.1 0.2 12
v 21.3 0.2 12
v 21.4 0.2 12
v 22.3 0.2 12
v 23.2 0.2 12
v 23.5 0.2 12
v 23.9 0.2 12
v 15.6 0.2 12.1
v 15.9 0.2 12.1
v 18.3 0.2 12.1
v 19 0.2 12.1
v 19.1 0.2 12.1
v 20.6 0.2 12.1
v 21.3 0.2 12.1
v 21.4 0.2 12.1
v 21.5 0.2 12.1
v 22.3 0.2 12.1
v 12.8 0.2 12.2
v 13 0.2 12.2
v 13.6 0.2 12.2
v 14.2 0.2 12.2
v 16.7 0.2 12.2
v 17 0.2 12.2
v 20.1 0.2 12.2
v 21.1 0.2 12.2
v 22.9 0.2 12.2
v 23.5 0.2 12.2
v 13 0.2 12.3
v 13.6 0.2 12.3
v 17 0.2 12.3
v 18.2 0.2 12.3
v 14.2 0.2 12.4
v 14.6 0.2 12.4
v 15.5 0.2 12.4
v 15.6 0.2 12.4
v 18.2 0.2 12.4
v 20.1 0.2 12.4
v 21.4 0.2 12.4
v 21.8 0.2 12.4
v 12 0.2 12.5
v 14.6 0.2 12.5
v 15.5 0.2 12.5
v 21.8 0.2 12.5
v 22.9 0.2 12.5
v 24 0.2 12.5
v 12 0.2 12.7
v 24 0.2 12.7
v 13.2 0.2 12.9
v 14.5 0.2 12.9
v 12.2 0.2 13.2
v 13 0.2 13.2
v 16.1 0.2 13.5
v 17.4 0.2 13.5
v 17.3 0.2 13.6
v 17.4 0.2 13.6
v 15.4 0.2 13.7
v 15.6 0.2 13.7
v 17 0.2 13.7
v 17.3 0.2 13.7
v 16.1 0.2 13.8
v 16.5 0.2 13.8
v 16.7 0.2 13.8
v 17 0.2 13.8
v 19.8 0.2 13.8
v 19.9 0.2 13.8
v 16 0.2 13.9
v 16.2 0.2 13.9
v 16.5 0.2 13.9
v 16.7 0.2 13.9
v 19.5 0.2 13.9
v 19.7 0.2 13.9
v 19.8 0.2 13.9
v 19.9 0.2 13.9
v 15.4 0.2 14.1
v 15.6 0.2 14.1
v 16 0.2 14.1
v 16.2 0.2 14.1
v 19.1 0.2 14.1
v 19.4 0.2 14.1
v 19.5 0.2 14.1
v 19.7 0.2 14.1
v 15.6 0.2 14.2
v 15.9 0.2 14.2
v 12.2 0.2 14.3
v 13 0.2 14.3
v 15.6 0.2 14.3
v 15.9 0.2 14.3
v 19.1 0.2 14.3
v 19.4 0.2 14.3
v 15.7 0.2 14.4
v 15.8 0.2 14.4
v 18.7 0.2 14.4
v 19 0.2 14.4
v 21.6 0.2 14.4
v 21.8 0.2 14.4
v 16.8 0.2 14.5
v 16.9 0.2 14.5
v 21.6 0.2 14.5
v 21.7 0.2 14.5
v 12.2 0.2 14.6
v 13 0.2 14.6
v 15.7 0.2 14.6
v 15.8 0.2 14.6
v 16.8 0.2 14.6
v 16.9 0.2 14.6
v 21.1 0.2 14.6
v 21.6 0.2 14.6
v 21.7 0.2 14.6
v 21.8 0.2 14.6
v 18.7 0.2 14.7
v 19 0.2 14.7
v 21.6 0.2 14.7
v 21.8 0.2 14.7
v 15.5 0.2 14.8
v 15.7 0.2 14.8
v 18.6 0.2 14.8
v 18.7 0.2 14.8
v 21.4 0.2 14.8
v 21.6 0.2 14.8
v 18.4 0.2 14.9
v 18.5 0.2 14.9
v 18.6 0.2 14.9
v 18.7 0.2 14.9
v 20.9 0.2 14.9
v 21.1 0.2 14.9
v 21.4 0.2 14.9
v 21.6 0.2 14.9
v 21.8 0.2 14.9
v 15.4 0.2 15
v 15.5 0.2 15
v 18.4 0.2 15
v 18.5 0.2 15
v 20.8 0.2 15
v 20.9 0.2 15
v 21.1 0.2 15
v 21.8 0.2 15
v 22 0.2 15
v 15.5 0.2 15.1
v 15.7 0.2 15.1
v 20.5 0.2 15.1
v 20.8 0.2 15.1
v 20.5 0.2 15.3
v 20.7 0.2 15.3
v 21.8 0.2 15.3
v 22 0.2 15.3
v 20.2 0.2 15.4
v 20.4 0.2 15.4
v 20.7 0.2 15.4
v 20.9 0.2 15.4
v 15.4 0.2 15.5
v 15.5 0.2 15.5
v 20.4 0.2 15.5
v 20.6 0.2 15.5
v 15.5 0.2 15.6
v 15.6 0.2 15.6
v 20.2 0.2 15.6
v 20.4 0.2 15.6
v 22.1 0.2 15.6
v 22.2 0.2 15.6
v 20.1 0.2 15.7
v 20.4 0.2 15.7
v 20.6 0.2 15.7
v 22.1 0.2 15.8
v 22.2 0.2 15.8
v 20 0.2 15.9
v 20.1 0.2 15.9
v 20.2 0.2 15.9
v 20.4 0.2 15.9
v 15.4 0.2 16
v 15.5 0.2 16
v 22.3 0.2 16
v 22.5 0.2 16
v 20.1 0.2 16.1
v 20.2 0.2 16.1
v 12.2 0.2 16.2
v 13 0.2 16.2
v 20 0.2 16.2
v 20.1 0.2 16.2
v 20 0.2 16.4
v 20.1 0.2 16.4
v 22.3 0.2 16.4
v 22.5 0.2 16.4
v 12.2 0.2 16.5
v 13 0.2 16.5
v 15.4 0.2 16.5
v 15.6 0.2 16.5
v 17.6 0.2 16.5
v 17.7 0.2 16.5
v 22.7 0.2 16.6
v 23 0.2 16.6
v 17.4 0.2 16.7
v 17.5 0.2 16.7
v 17.6 0.2 16.7
v 17.7 0.2 16.7
v 20 0.2 16.7
v 20.1 0.2 16.7
v 15.5 0.2 16.8
v 15.6 0.2 16.8
v 17.4 0.2 16.8
v 17.5 0.2 16.8
v 15.5 0.2 16.9
v 15.6 0.2 16.9
v 22.5 0.2 16.9
v 22.7 0.2 16.9
v 22.9 0.2 17
v 23 0.2 17
v 17.2 0.2 17.1
v 17.4 0.2 17.1
v 21.4 0.2 17.1
v 21.5 0.2 17.1
v 21.4 0.2 17.2
v 21.5 0.2 17.2
v 21.2 0.2 17.3
v 21.5 0.2 17.3
v 22.5 0.2 17.4
v 22.9 0.2 17.4
v 23.3 0.2 17.4
v 23.5 0.2 17.4
v 17.2 0.2 17.5
v 17.3 0.2 17.5
v 17.4 0.2 17.5
v 17.6 0.2 17.5
v 23.2 0.2 17.5
v 23.3 0.2 17.5
v 17.1 0.2 17.6
v 17.3 0.2 17.6
v 17.5 0.2 17.7
v 17.6 0.2 17.7
v 23.2 0.2 17.7
v 23.5 0.2 17.7
v 17.1 0.2 17.8
v 17.5 0.2 17.8
v 17.6 0.2 17.8
v 17.8 0.2 17.8
v 17.6 0.2 18
v 17.8 0.2 18
v 12.2 0.2 18.1
v 13 0.2 18.1
v 17.8 0.2 18.2
v 18.5 0.2 18.2
v 21.2 0.2 18.2
v 21.5 0.2 18.2
v 12.2 0.2 18.4
v 13 0.2 18.4
v 18.1 0.2 18.4
v 18.5 0.2 18.4
v 17.8 0.2 18.5
v 18.1 0.2 18.5
v 18.8 0.2 18.5
v 19.1 0.2 18.5
v 21.2 0.2 18.5
v 21.3 0.2 18.5
v 18.3 0.2 18.6
v 18.7 0.2 18.6
v 18.8 0.2 18.6
v 19.1 0.2 18.6
v 21.2 0.2 18.6
v 21.3 0.2 18.6
v 19.3 0.2 18.7
v 19.5 0.2 18.7
v 22.4 0.2 18.7
v 22.7 0.2 18.7
v 18.3 0.2 18.8
v 18.7 0.2 18.8
v 19.2 0.2 18.8
v 19.3 0.2 18.8
v 19.5 0.2 18.8
v 19.6 0.2 18.8
v 19.2 0.2 18.9
v 19.6 0.2 18.9
v 22.4 0.2 18.9
v 22.7 0.2 18.9
v 22 0.2 19.2
v 22.2 0.2 19.2
v 22.3 0.2 19.2
v 22.4 0.2 19.2
v 16 0.2 19.4
v 16.1 0.2 19.4
v 22.3 0.2 19.4
v 22.4 0.2 19.4
v 15.9 0.2 19.6
v 16 0.2 19.6
v 16.1 0.2 19.6
v 16.2 0.2 19.6
v 22 0.2 19.6
v 22.2 0.2 19.6
v 16.1 0.2 19.7
v 16.2 0.2 19.7
v 21.8 0.2 19.7
v 22.1 0.2 19.7
v 22 0.2 19.8
v 22.1 0.2 19.8
v 15.8 0.2 19.9
v 15.9 0.2 19.9
v 16 0.2 19.9
v 12.2 0.2 20
v 13 0.2 20
v 16.2 0.2 20
v 16.4 0.2 20
v 21.8 0.2 20.1
v 22 0.2 20.1
v 12.2 0.2 20.3
v 13 0.2 20.3
v 15.8 0.2 20.3
v 15.9 0.2 20.3
v 21.7 0.2 20.4
v 21.9 0.2 20.4
v 19.8 0.2 20.5
v 20 0.2 20.5
v 15.9 0.2 20.6
v 16 0.2 20.6
v 19.9 0.2 20.6
v 20 0.2 20.6
v 19.8 0.2 20.7
v 19.9 0.2 20.7
v 15.8 0.2 20.9
v 15.9 0.2 20.9
v 16 0.2 20.9
v 19.6 0.2 21
v 19.7 0.2 21
v 21.7 0.2 21
v 21.8 0.2 21
v 15.9 0.2 21.1
v 16 0.2 21.1
v 16.2 0.2 21.2
v 16.4 0.2 21.2
v 15.8 0.2 21.3
v 16 0.2 21.3
v 19.4 0.2 21.3
v 19.6 0.2 21.3
v 19.7 0.2 21.3
v 21.8 0.2 21.3
v 21.9 0.2 21.3
v 15.9 0.2 21.4
v 16.1 0.2 21.4
v 21.7 0.2 21.4
v 21.8 0.2 21.4
v 21.7 0.2 21.5
v 21.8 0.2 21.5
v 19.4 0.2 21.6
v 19.6 0.2 21.6
v 15.8 0.2 21.7
v 15.9 0.2 21.7
v 16 0.2 21.7
v 16.1 0.2 21.7
v 19.3 0.2 21.7
v 19.4 0.2 21.7
v 21.8 0.2 21.8
v 21.9 0.2 21.8
v 12.2 0.2 21.9
v 13 0.2 21.9
v 15.8 0.2 21.9
v 15.9 0.2 21.9
v 16 0.2 21.9
v 16.4 0.2 21.9
v 16.1 0.2 22
v 16.3 0.2 22
v 19.3 0.2 22
v 19.4 0.2 22
v 16.5 0.2 22.1
v 16.8 0.2 22.1
v 19.3 0.2 22.1
v 19.4 0.2 22.1
v 21.9 0.2 22.1
v 22 0.2 22.1
v 12.2 0.2 22.2
v 13 0.2 22.2
v 16.5 0.2 22.2
v 16.8 0.2 22.2
v 17 0.2 22.2
v 21.8 0.2 22.2
v 21.9 0.2 22.2
v 16.3 0.2 22.3
v 16.4 0.2 22.3
v 16.7 0.2 22.3
v 16.8 0.2 22.3
v 17 0.2 22.3
v 17.2 0.2 22.3
v 21.9 0.2 22.3
v 22 0.2 22.3
v 22.1 0.2 22.3
v 15.9 0.2 22.4
v 16.1 0.2 22.4
v 19.3 0.2 22.4
v 19.4 0.2 22.4
v 22 0.2 22.4
v 22.1 0.2 22.4
v 16.7 0.2 22.5
v 17.2 0.2 22.5
v 19.2 0.2 22.5
v 19.4 0.2 22.5
v 19.4 0.2 22.8
v 19.5 0.2 22.8
v 19.2 0.2 23
v 19.5 0.2 23
v 12.2 0.2 23.8
v 13 0.2 23.8
v 12 0.2 24
v 13.2 0.2 24
v 14.5 0.2 24
v 24 0.2 24
v 12.2 0.3 4.4
v 13 0.3 4.4
v 12.3 0.3 4.5
v 12.9 0.3 4.5
v 12.3 0.3 5.9
v 12.9 0.3 5.9
v 12.2 0.3 6
v 13 0.3 6
v 12.2 0.3 6.3
v 13 0.3 6.3
v 12.3 0.3 6.4
v 12.9 0.3 6.4
v 12.3 0.3 7.8
v 12.9 0.3 7.8
v 12.2 0.3 7.9
v 13 0.3 7.9
v 12.2 0.3 8.2
v 13 0.3 8.2
v 12.3 0.3 8.3
v 12.9 0.3 8.3
v 12.3 0.3 9.2
v 12.9 0.3 9.2
v 12.2 0.3 9.3
v 13 0.3 9.3
v 12 0.3 9.8
v 24 0.3 9.8
v 12 0.3 10
v 24 0.3 10
v 12 0.3 12.5
v 24 0.3 12.5
v 12 0.3 12.7
v 24 0.3 12.7
v 12.2 0.3 13.2
v 13 0.3 13.2
v 12.3 0.3 13.3
v 12.9 0.3 13.3
v 12.3 0.3 14.2
v 12.9 0.3 14.2
v 12.2 0.3 14.3
v 13 0.3 14.3
v 12.2 0.3 14.6
v 13 0.3 14.6
v 12.3 0.3 14.7
v 12.9 0.3 14.7
v 12.3 0.3 16.1
v 12.9 0.3 16.1
v 12.2 0.3 16.2
v 13 0.3 16.2
v 12.2 0.3 16.5
v 13 0.3 16.5
v 12.3 0.3 16.6
v 12.9 0.3 16.6
v 12.3 0.3 18
v 12.9 0.3 18
v 12.2 0.3 18.1
v 13 0.3 18.1
v 12.2 0.3 18.4
v 13 0.3 18.4
v 12.3 0.3 18.5
v 12.9 0.3 18.5
v 12.3 0.3 19.9
v 12.9 0.3 19.9
v 12.2 0.3 20
v 13 0.3 20
v 12.2 0.3 20.3
v 13 0.3 20.3
v 12.3 0.3 20.4
v 12.9 0.3 20.4
v 12.3 0.3 21.8
v 12.9 0.3 21.8
v 12.2 0.3 21.9
v 13 0.3 21.9
v 12.2 0.3 22.2
v 13 0.3 22.2
v 12.3 0.3 22.3
v 12.9 0.3 22.3
v 12.3 0.3 23.7
v 12.9 0.3 23.7
v 12.2 0.3 23.8
v 13 0.3 23.8
v 13.2 0.5 4.1
v 24 0.5 4.1
v 13.3 0.5 4.2
v 24 0.5 4.2
v 14.4 0.5 5.3
v 24 0.5 5.3
v 14.5 0.5 5.4
v 24 0.5 5.4
v 13.3 0.5 9.5
v 14.4 0.5 9.5
v 13.2 0.5 9.6
v 14.5 0.5 9.6
v 13.2 0.5 12.9
v 14.5 0.5 12.9
v 13.3 0.5 13
v 14.4 0.5 13
v 13.2 0.5 24
v 13.3 0.5 24
v 14.4 0.5 24
v 14.5 0.5 24
v 12.3 1.2 4.5
v 12.9 1.2 4.5
v 12.3 1.2 5.9
v 12.9 1.2 5.9
v 12.3 1.2 6.4
v 12.9 1.2 6.4
v 12.3 1.2 7.8
v 12.9 1.2 7.8
v 12.3 1.2 8.3
v 12.9 1.2 8.3
v 12.3 1.2 9.2
v 12.9 1.2 9.2
v 12.3 1.2 13.3
v 12.9 1.2 13.3
v 12.3 1.2 14.2
v 12.9 1.2 14.2
v 12.3 1.2 14.7
v 12.9 1.2 14.7
v 12.3 1.2 16.1
v 12.9 1.2 16.1
v 12.3 1.2 16.6
v 12.9 1.2 16.6
v 12.3 1.2 18
v 12.9 1.2 18
v 12.3 1.2 18.5
v 12.9 1.2 18.5
v 12.3 1.2 19.9
v 12.9 1.2 19.9
v 12.3 1.2 20.4
v 12.9 1.2 20.4
v 12.3 1.2 21.8
v 12.9 1.2 21.8
v 12.3 1.2 22.3
v 12.9 1.2 22.3
v 12.3 1.2 23.7
v 12.9 1.2 23.7
v 13.1 2.9 4
v 24 2.9 4
v 13.2 2.9 4.1
v 24 2.9 4.1
v 14.5 2.9 5.4
v 24 2.9 5.4
v 14.6 2.9 5.5
v 24 2.9 5.5
v 13.2 2.9 9.6
v 14.5 2.9 9.6
v 13.1 2.9 9.7
v 14.6 2.9 9.7
v 13.1 2.9 12.8
v 14.6 2.9 12.8
v 13.2 2.9 12.9
v 14.5 2.9 12.9
v 13.1 2.9 24
v 13.2 2.9 24
v 14.5 2.9 24
v 14.6 2.9 24
v 13.2 3 4.1
v 24 3 4.1
v 13.3 3 4.2
v 24 3 4.2
v 14.4 3 5.3
v 24 3 5.3
v 14.5 3 5.4
v 24 3 5.4
v 13.3 3 9.5
v 14.4 3 9.5
v 13.2 3 9.6
v 14.5 3 9.6
v 13.2 3 12.9
v 14.5 3 12.9
v 13.3 3 13
v 14.4 3 13
v 13.2 3 24
v 13.3 3 24
v 14.4 3 24
v 14.5 3 24
v 13.3 3.1 4.2
v 24 3.1 4.2
v 13.4 3.1 4.3
v 24 3.1 4.3
v 14.3 3.1 5.2
v 24 3.1 5.2
v 14.4 3.1 5.3
v 24 3.1 5.3
v 13.4 3.1 9.4
v 14.3 3.1 9.4
v 13.3 3.1 9.5
v 14.4 3.1 9.5
v 13.3 3.1 13
v 14.4 3.1 13
v 13.4 3.1 13.1
v 14.3 3.1 13.1
v 13.3 3.1 24
v 13.4 3.1 24
v 14.3 3.1 24
v 14.4 3.1 24
v 13.4 3.2 4.3
v 24 3.2 4.3
v 13.5 3.2 4.4
v 24 3.2 4.4
v 14.2 3.2 5.1
v 24 3.2 5.1
v 14.3 3.2 5.2
v 24 3.2 5.2
v 13.5 3.2 9.3
v 14.2 3.2 9.3
v 13.4 3.2 9.4
v 14.3 3.2 9.4
v 13.4 3.2 13.1
v 14.3 3.2 13.1
v 13.5 3.2 13.2
v 14.2 3.2 13.2
v 13.4 3.2 24
v 13.5 3.2 24
v 14.2 3.2 24
v 14.3 3.2 24
v 13.5 3.3 4.4
v 24 3.3 4.4
v 14.2 3.3 5.1
v 24 3.3 5.1
v 13.5 3.3 9.3
v 14.2 3.3 9.3
v 13.5 3.3 13.2
v 14.2 3.3 13.2
v 13.5 3.3 24
v 14.2 3.3 24

# faces
f 1/8/1 2/8/1 5/8/1
f 5/8/1 2/8/1 6/8/1
f 6/8/1 2/8/1 7/8/1
f 7/8/1 2/8/1 8/8/1
f 2/4/1 3/4/1 9/4/1
f 8/8/1 2/8/1 9/8/1
f 3/8/1 4/8/1 10/8/1
f 9/4/1 3/4/1 10/4/1
f 10/8/1 4/8/1 11/8/1
f 11/8/1 4/8/1 12/8/1
f 8/3/1 9/3/1 13/3/1
f 13/3/1 9/3/1 14/3/1
f 10/3/1 11/3/1 15/3/1
f 15/3/1 11/3/1 16/3/1
f 17/2/1 18/2/1 35/2/1
f 35/2/1 18/2/1 36/2/1
f 19/2/1 20/2/1 37/2/1
f 37/2/1 20/2/1 38/2/1
f 21/2/1 22/2/1 39/2/1
f 39/2/1 22/2/1 40/2/1
f 23/2/1 24/2/1 41/2/1
f 41/2/1 24/2/1 42/2/1
f 25/2/1 26/2/1 43/2/1
f 43/2/1 26/2/1 44/2/1
f 27/2/1 28/2/1 45/2/1
f 45/2/1 28/2/1 46/2/1
f 29/2/1 30/2/1 47/2/1
f 47/2/1 30/2/1 48/2/1
f 31/2/1 32/2/1 49/2/1
f 49/2/1 32/2/1 50/2/1
f 33/2/1 34/2/1 51/2/1
f 51/2/1 34/2/1 52/2/1
f 53/9/1 54/9/1 71/9/1
f 71/9/1 54/9/1 72/9/1
f 55/9/1 56/9/1 73/9/1
f 73/9/1 56/9/1 74/9/1
f 57/9/1 58/9/1 75/9/1
f 75/9/1 58/9/1 76/9/1
f 59/9/1 60/9/1 77/9/1
f 77/9/1 60/9/1 78/9/1
f 61/9/1 62/9/1 79/9/1
f 79/9/1 62/9/1 80/9/1
f 63/9/1 64/9/1 81/9/1
f 81/9/1 64/9/1 82/9/1
f 65/9/1 66/9/1 83/9/1
f 83/9/1 66/9/1 84/9/1
f 67/9/1 68/9/1 85/9/1
f 85/9/1 68/9/1 86/9/1
f 69/9/1 70/9/1 87/9/1
f 87/9/1 70/9/1 88/9/1
f 89/4/1 90/4/1 93/4/1
f 93/4/1 90/4/1 94/4/1
f 91/4/1 92/4/1 95/4/1
f 95/4/1 92/4/1 96/4/1
f 97/4/1 98/4/1 101/4/1
f 101/4/1 98/4/1 102/4/1
f 99/4/1 100/4/1 103/4/1
f 103/4/1 100/4/1 104/4/1
f 105/4/1 106/4/1 109/4/1
f 109/4/1 106/4/1 110/4/1
f 107/4/1 108/4/1 111/4/1
f 111/4/1 108/4/1 112/4/1
f 113/1/1 114/1/1 117/1/1
f 117/1/1 114/1/1 118/1/1
f 115/1/1 116/1/1 119/1/1
f 119/1/1 116/1/1 120/1/1
f 121/4/1 122/4/1 125/4/1
f 125/4/1 122/4/1 126/4/1
f 123/4/1 124/4/1 127/4/1
f 127/4/1 124/4/1 128/4/1
f 129/4/1 130/4/1 133/4/1
f 133/4/1 130/4/1 134/4/1
f 131/4/1 132/4/1 135/4/1
f 135/4/1 132/4/1 136/4/1
f 137/4/1 138/4/1 141/4/1
f 141/4/1 138/4/1 142/4/1
f 139/4/1 140/4/1 143/4/1
f 143/4/1 140/4/1 144/4/1
f 145/4/1 146/4/1 151/4/1
f 151/4/1 146/4/1 152/4/1
f 147/4/1 148/4/1 153/4/1
f 153/4/1 148/4/1 154/4/1
f 149/4/1 150/4/1 155/4/1
f 155/4/1 150/4/1 156/4/1
f 175/9/2 158/9/2 157/9/2
f 176/9/2 158/9/2 175/9/2
f 177/9/2 160/9/2 159/9/2
f 178/9/2 160/9/2 177/9/2
f 179/9/2 162/9/2 161/9/2
f 180/9/2 162/9/2 179/9/2
f 181/9/2 164/9/2 163/9/2
f 182/9/2 164/9/2 181/9/2
f 183/9/2 166/9/2 165/9/2
f 184/9/2 166/9/2 183/9/2
f 185/9/2 168/9/2 167/9/2
f 186/9/2 168/9/2 185/9/2
f 187/9/2 170/9/2 169/9/2
f 188/9/2 170/9/2 187/9/2
f 189/9/2 172/9/2 171/9/2
f 190/9/2 172/9/2 189/9/2
f 191/9/2 174/9/2 173/9/2
f 192/9/2 174/9/2 191/9/2
f 211/2/2 194/2/2 193/2/2
f 212/2/2 194/2/2 211/2/2
f 213/2/2 196/2/2 195/2/2
f 214/2/2 196/2/2 213/2/2
f 215/2/2 198/2/2 197/2/2
f 216/2/2 198/2/2 215/2/2
f 217/2/2 200/2/2 199/2/2
f 218/2/2 200/2/2 217/2/2
f 219/2/2 202/2/2 201/2/2
f 220/2/2 202/2/2 219/2/2
f 221/2/2 204/2/2 203/2/2
f 222/2/2 204/2/2 221/2/2
f 223/2/2 206/2/2 205/2/2
f 224/2/2 206/2/2 223/2/2
f 225/2/2 208/2/2 207/2/2
f 226/2/2 208/2/2 225/2/2
f 227/2/2 210/2/2 209/2/2
f 228/2/2 210/2/2 227/2/2
f 233/4/2 230/4/2 229/4/2
f 234/4/2 230/4/2 233/4/2
f 235/4/2 232/4/2 231/4/2
f 236/4/2 232/4/2 235/4/2
f 241/4/2 238/4/2 237/4/2
f 242/4/2 238/4/2 241/4/2
f 243/4/2 240/4/2 239/4/2
f 244/4/2 240/4/2 243/4/2
f 249/4/2 246/4/2 245/4/2
f 250/4/2 246/4/2 249/4/2
f 251/4/2 248/4/2 247/4/2
f 252/4/2 248/4/2 251/4/2
f 257/1/2 254/1/2 253/1/2
f 258/1/2 254/1/2 257/1/2
f 259/1/2 257/1/2 253/1/2
f 260/1/2 257/1/2 259/1/2
f 261/1/2 254/1/2 258/1/2
f 262/1/2 254/1/2 261/1/2
f 263/1/2 256/1/2 255/1/2
f 264/1/2 256/1/2 263/1/2
f 269/4/2 266/4/2 265/4/2
f 270/4/2 266/4/2 269/4/2
f 271/4/2 268/4/2 267/4/2
f 272/4/2 268/4/2 271/4/2
f 277/4/2 274/4/2 273/4/2
f 278/4/2 274/4/2 277/4/2
f 279/4/2 276/4/2 275/4/2
f 280/4/2 276/4/2 279/4/2
f 285/4/2 282/4/2 281/4/2
f 286/4/2 282/4/2 285/4/2
f 287/4/2 284/4/2 283/4/2
f 288/4/2 284/4/2 287/4/2
f 295/4/2 290/4/2 289/4/2
f 296/4/2 290/4/2 295/4/2
f 297/4/2 292/4/2 291/4/2
f 298/4/2 292/4/2 297/4/2
f 299/4/2 294/4/2 293/4/2
f 300/4/2 294/4/2 299/4/2
f 303/8/2 302/8/2 301/8/2
f 304/8/2 302/8/2 303/8/2
f 305/8/2 302/8/2 304/8/2
f 306/8/2 302/8/2 305/8/2
f 307/8/2 305/8/2 304/8/2
f 308/8/2 305/8/2 307/8/2
f 309/8/2 305/8/2 308/8/2
f 310/8/2 305/8/2 309/8/2
f 311/4/2 306/4/2 305/4/2
f 311/8/2 305/8/2 310/8/2
f 312/8/2 302/8/2 306/8/2
f 312/4/2 306/4/2 311/4/2
f 313/8/2 302/8/2 312/8/2
f 314/8/2 302/8/2 313/8/2
f 315/3/2 311/3/2 310/3/2
f 316/3/2 311/3/2 315/3/2
f 317/3/2 313/3/2 312/3/2
f 318/3/2 313/3/2 317/3/2
f 319/4/2 309/4/2 308/4/2
f 320/4/2 309/4/2 319/4/2
f 321/4/2 309/4/2 320/4/2
f 322/4/2 309/4/2 321/4/2
f 327/4/2 324/4/2 323/4/2
f 328/1/2 321/1/2 320/1/2
f 329/1/2 321/1/2 328/1/2
f 330/4/2 326/4/2 325/4/2
f 331/4/2 329/4/2 328/4/2
f 331/4/2 330/4/2 329/4/2
f 331/4/2 327/4/2 323/4/2
f 331/4/2 328/4/2 327/4/2
f 332/4/2 330/4/2 331/4/2
f 333/4/2 326/4/2 330/4/2
f 333/4/2 330/4/2 332/4/2
f 334/4/2 326/4/2 333/4/2
f 335/4/2 333/4/2 332/4/2
f 336/4/2 333/4/2 335/4/2
f 337/4/2 333/4/2 336/4/2
f 338/4/2 333/4/2 337/4/2
f 339/4/2 337/4/2 336/4/2
f 340/4/2 337/4/2 339/4/2
f 341/4/2 337/4/2 340/4/2
f 342/4/2 337/4/2 341/4/2
f 343/4/2 341/4/2 340/4/2
f 344/4/2 341/4/2 343/4/2
f 345/4/2 341/4/2 344/4/2
f 346/4/2 341/4/2 345/4/2
f 347/4/2 345/4/2 344/4/2
f 348/4/2 345/4/2 347/4/2
f 349/8/3 350/8/3 351/8/3
f 351/8/3 350/8/3 352/8/3
f 353/8/3 354/8/3 355/8/3
f 355/8/3 354/8/3 356/8/3
f 357/4/3 358/4/3 359/4/3
f 359/4/3 358/4/3 360/4/3
f 361/4/3 362/4/3 365/4/3
f 365/4/3 362/4/3 366/4/3
f 363/4/3 364/4/3 367/4/3
f 367/4/3 364/4/3 368/4/3
f 369/1/3 370/1/3 373/1/3
f 373/1/3 370/1/3 374/1/3
f 371/4/3 372/4/3 375/4/3
f 375/4/3 372/4/3 376/4/3
f 377/4/3 378/4/3 379/4/3
f 379/4/3 378/4/3 380/4/3
f 381/2/3 382/2/3 383/2/3
f 383/2/3 382/2/3 384/2/3
f 385/4/3 386/4/3 387/4/3
f 387/4/3 386/4/3 388/4/3
f 389/9/3 390/9/3 391/9/3
f 391/9/3 390/9/3 392/9/3
f 393/4/3 394/4/3 395/4/3
f 395/4/3 394/4/3 396/4/3
f 397/4/3 398/4/3 399/4/3
f 399/4/3 398/4/3 400/4/3
f 401/2/3 402/2/3 403/2/3
f 403/2/3 402/2/3 404/2/3
f 405/9/3 406/9/3 407/9/3
f 407/9/3 406/9/3 408/9/3
f 409/2/3 410/2/3 411/2/3
f 411/2/3 410/2/3 412/2/3
f 413/9/3 414/9/3 415/9/3
f 415/9/3 414/9/3 416/9/3
f 417/4/3 418/4/3 419/4/3
f 419/4/3 418/4/3 420/4/3
f 421/3/3 422/3/3 423/3/3
f 423/3/3 422/3/3 424/3/3
f 425/3/3 426/3/3 427/3/3
f 427/3/3 426/3/3 428/3/3
f 428/3/3 426/3/3 429/3/3
f 429/3/3 426/3/3 430/3/3
f 430/3/3 426/3/3 431/3/3
f 431/3/3 426/3/3 432/3/3
f 433/4/3 434/4/3 435/4/3
f 435/4/3 434/4/3 436/4/3
f 437/4/3 438/4/3 441/4/3
f 441/4/3 438/4/3 442/4/3
f 439/4/3 440/4/3 443/4/3
f 443/4/3 440/4/3 444/4/3
f 445/1/3 446/1/3 449/1/3
f 449/1/3 446/1/3 450/1/3
f 447/4/3 448/4/3 451/4/3
f 451/4/3 448/4/3 452/4/3
f 453/4/3 454/4/3 455/4/3
f 455/4/3 454/4/3 456/4/3
f 457/2/3 458/2/3 459/2/3
f 459/2/3 458/2/3 460/2/3
f 461/4/3 462/4/3 463/4/3
f 463/4/3 462/4/3 464/4/3
f 465/9/3 466/9/3 467/9/3
f 467/9/3 466/9/3 468/9/3
f 469/2/3 470/2/3 471/2/3
f 471/2/3 470/2/3 472/2/3
f 473/9/3 474/9/3 475/9/3
f 475/9/3 474/9/3 476/9/3
f 477/2/3 478/2/3 479/2/3
f 479/2/3 478/2/3 480/2/3
f 481/9/3 482/9/3 483/9/3
f 483/9/3 482/9/3 484/9/3
f 485/2/3 486/2/3 487/2/3
f 487/2/3 486/2/3 488/2/3
f 489/9/3 490/9/3 491/9/3
f 491/9/3 490/9/3 492/9/3
f 493/2/3 494/2/3 495/2/3
f 495/2/3 494/2/3 496/2/3
f 497/9/3 498/9/3 499/9/3
f 499/9/3 498/9/3 500/9/3
f 501/2/3 502/2/3 503/2/3
f 503/2/3 502/2/3 504/2/3
f 505/9/3 506/9/3 507/9/3
f 507/9/3 506/9/3 508/9/3
f 511/4/4 510/4/4 509/4/4
f 512/4/4 510/4/4 511/4/4
f 515/4/4 514/4/4 513/4/4
f 516/4/4 514/4/4 515/4/4
f 519/4/4 518/4/4 517/4/4
f 520/4/4 518/4/4 519/4/4
f 525/1/4 522/1/4 521/1/4
f 526/1/4 522/1/4 525/1/4
f 527/1/4 525/1/4 521/1/4
f 529/1/4 527/1/4 521/1/4
f 529/1/4 528/1/4 527/1/4
f 530/1/4 528/1/4 529/1/4
f 531/4/4 524/4/4 523/4/4
f 532/4/4 524/4/4 531/4/4
f 537/4/4 534/4/4 533/4/4
f 538/4/4 534/4/4 537/4/4
f 539/4/4 536/4/4 535/4/4
f 540/4/4 536/4/4 539/4/4
f 543/4/4 542/4/4 541/4/4
f 544/4/4 542/4/4 543/4/4
f 547/4/4 546/4/4 545/4/4
f 548/4/4 546/4/4 547/4/4
f 551/9/4 550/9/4 549/9/4
f 552/9/4 550/9/4 551/9/4
f 555/2/4 554/2/4 553/2/4
f 556/2/4 554/2/4 555/2/4
f 559/9/4 558/9/4 557/9/4
f 560/9/4 558/9/4 559/9/4
f 563/2/4 562/2/4 561/2/4
f 564/2/4 562/2/4 563/2/4
f 567/9/4 566/9/4 565/9/4
f 568/9/4 566/9/4 567/9/4
f 571/2/4 570/2/4 569/2/4
f 572/2/4 570/2/4 571/2/4
f 575/4/4 574/4/4 573/4/4
f 576/4/4 574/4/4 575/4/4
f 579/4/4 578/4/4 577/4/4
f 580/4/4 578/4/4 579/4/4
f 585/1/4 582/1/4 581/1/4
f 586/1/4 582/1/4 585/1/4
f 587/4/4 584/4/4 583/4/4
f 588/4/4 584/4/4 587/4/4
f 593/4/4 590/4/4 589/4/4
f 594/4/4 590/4/4 593/4/4
f 595/4/4 592/4/4 591/4/4
f 596/4/4 592/4/4 595/4/4
f 599/4/4 598/4/4 597/4/4
f 600/4/4 598/4/4 599/4/4
f 603/3/4 602/3/4 601/3/4
f 604/3/4 602/3/4 603/3/4
f 605/3/4 602/3/4 604/3/4
f 606/3/4 602/3/4 605/3/4
f 609/3/4 608/3/4 607/3/4
f 610/3/4 608/3/4 609/3/4
f 613/4/4 612/4/4 611/4/4
f 614/4/4 612/4/4 613/4/4
f 617/9/4 616/9/4 615/9/4
f 618/9/4 616/9/4 617/9/4
f 621/2/4 620/2/4 619/2/4
f 622/2/4 620/2/4 621/2/4
f 625/9/4 624/9/4 623/9/4
f 626/9/4 624/9/4 625/9/4
f 629/2/4 628/2/4 627/2/4
f 630/2/4 628/2/4 629/2/4
f 633/9/4 632/9/4 631/9/4
f 634/9/4 632/9/4 633/9/4
f 637/2/4 636/2/4 635/2/4
f 638/2/4 636/2/4 637/2/4
f 641/9/4 640/9/4 639/9/4
f 642/9/4 640/9/4 641/9/4
f 645/2/4 644/2/4 643/2/4
f 646/2/4 644/2/4 645/2/4
f 649/9/4 648/9/4 647/9/4
f 650/9/4 648/9/4 649/9/4
f 653/2/4 652/2/4 651/2/4
f 654/2/4 652/2/4 653/2/4
f 657/9/4 656/9/4 655/9/4
f 658/9/4 656/9/4 657/9/4
f 661/2/4 660/2/4 659/2/4
f 662/2/4 660/2/4 661/2/4
f 667/8/4 664/8/4 663/8/4
f 668/8/4 664/8/4 667/8/4
f 670/4/4 666/4/4 665/4/4
f 671/4/4 666/4/4 670/4/4
f 672/4/4 666/4/4 671/4/4
f 674/8/4 667/8/4 663/8/4
f 674/1/4 668/1/4 667/1/4
f 675/4/4 669/4/4 668/4/4
f 675/1/4 668/1/4 674/1/4
f 676/4/4 669/4/4 675/4/4
f 677/4/4 673/4/4 672/4/4
f 677/4/4 672/4/4 671/4/4
f 678/4/4 673/4/4 677/4/4
f 680/4/4 678/4/4 677/4/4
f 680/4/4 679/4/4 678/4/4
f 682/4/4 681/4/4 680/4/4
f 684/4/4 682/4/4 680/4/4
f 684/4/4 683/4/4 682/4/4
f 685/4/4 683/4/4 684/4/4
f 686/4/4 680/4/4 677/4/4
f 686/4/4 684/4/4 680/4/4
f 687/4/4 684/4/4 686/4/4
f 688/4/4 676/4/4 675/4/4
f 688/1/4 677/1/4 676/1/4
f 689/4/4 686/4/4 677/4/4
f 689/1/4 677/1/4 688/1/4
f 690/4/4 686/4/4 689/4/4
f 691/4/4 686/4/4 690/4/4
f 692/8/4 675/8/4 674/8/4
f 692/4/4 688/4/4 675/4/4
f 693/4/4 688/4/4 692/4/4
f 695/4/4 690/4/4 689/4/4
f 696/4/4 690/4/4 695/4/4
f 697/4/4 690/4/4 696/4/4
f 698/4/4 695/4/4 694/4/4
f 698/4/4 696/4/4 695/4/4
f 699/4/4 696/4/4 698/4/4
f 700/8/4 674/8/4 663/8/4
f 700/8/4 692/8/4 674/8/4
f 701/8/4 692/8/4 700/8/4
f 702/8/5 703/8/5 704/8/5
f 704/8/5 703/8/5 705/8/5
f 704/4/5 705/4/5 706/4/5
f 705/8/5 703/8/5 707/8/5
f 706/4/5 705/4/5 707/4/5
f 706/8/5 707/8/5 708/8/5
f 707/8/5 703/8/5 709/8/5
f 708/8/5 707/8/5 709/8/5
f 710/4/5 711/4/5 712/4/5
f 712/4/5 711/4/5 713/4/5
f 714/4/5 715/4/5 717/4/5
f 717/4/5 715/4/5 718/4/5
f 716/4/5 717/4/5 720/4/5
f 718/4/5 719/4/5 720/4/5
f 717/4/5 718/4/5 720/4/5
f 720/4/5 719/4/5 721/4/5
f 721/4/5 719/4/5 722/4/5
f 722/4/5 719/4/5 723/4/5
f 710/4/5 712/4/5 724/4/5
f 721/4/5 722/4/5 725/4/5
f 710/4/5 724/4/5 726/4/5
f 724/4/5 725/4/5 726/4/5
f 725/4/5 722/4/5 727/4/5
f 726/4/5 725/4/5 727/4/5
f 728/4/5 729/4/5 730/4/5
f 730/4/5 729/4/5 731/4/5
f 728/4/5 730/4/5 732/4/5
f 732/4/5 730/4/5 733/4/5
f 731/4/5 729/4/5 734/4/5
f 734/4/5 729/4/5 735/4/5
f 736/4/5 737/4/5 738/4/5
f 738/4/5 737/4/5 739/4/5
f 740/4/5 741/4/5 744/4/5
f 744/4/5 741/4/5 745/4/5
f 742/4/5 743/4/5 746/4/5
f 746/4/5 743/4/5 747/4/5
f 736/4/5 738/4/5 750/4/5
f 748/4/5 749/4/5 751/4/5
f 736/4/5 750/4/5 752/4/5
f 750/4/5 751/4/5 752/4/5
f 751/4/5 749/4/5 753/4/5
f 752/4/5 751/4/5 753/4/5
f 754/4/5 755/4/5 756/4/5
f 756/4/5 755/4/5 757/4/5
f 754/4/5 756/4/5 758/4/5
f 758/4/5 756/4/5 759/4/5
f 757/4/5 755/4/5 760/4/5
f 760/4/5 755/4/5 761/4/5
f 764/8/6 763/8/6 762/8/6
f 765/8/6 763/8/6 764/8/6
f 768/8/6 767/8/6 766/8/6
f 769/8/6 767/8/6 768/8/6
f 770/8/6 768/8/6 766/8/6
f 771/8/6 768/8/6 770/8/6
f 774/8/6 770/8/6 766/8/6
f 775/8/6 768/8/6 771/8/6
f 776/8/6 774/8/6 766/8/6
f 776/8/6 775/8/6 774/8/6
f 777/8/6 768/8/6 775/8/6
f 777/8/6 775/8/6 776/8/6
f 778/8/6 773/8/6 772/8/6
f 779/8/6 773/8/6 778/8/6
f 780/8/6 773/8/6 779/8/6
f 781/8/6 773/8/6 780/8/6
f 782/8/6 773/8/6 781/8/6
f 783/8/6 773/8/6 782/8/6
f 784/8/6 778/8/6 772/8/6
f 785/8/6 778/8/6 784/8/6
f 786/7/6 779/7/6 778/7/6
f 786/8/6 778/8/6 785/8/6
f 787/8/6 780/8/6 779/8/6
f 787/7/6 779/7/6 786/7/6
f 788/8/6 780/8/6 787/8/6
f 789/8/6 780/8/6 788/8/6
f 790/8/6 780/8/6 789/8/6
f 791/8/6 780/8/6 790/8/6
f 792/7/6 781/7/6 780/7/6
f 792/8/6 780/8/6 791/8/6
f 793/8/6 782/8/6 781/8/6
f 793/7/6 781/7/6 792/7/6
f 794/7/6 783/7/6 782/7/6
f 794/8/6 782/8/6 793/8/6
f 795/8/6 773/8/6 783/8/6
f 795/7/6 783/7/6 794/7/6
f 796/8/6 786/8/6 785/8/6
f 796/8/6 787/8/6 786/8/6
f 796/8/6 788/8/6 787/8/6
f 796/7/6 789/7/6 788/7/6
f 797/8/6 790/8/6 789/8/6
f 797/7/6 789/7/6 796/7/6
f 798/7/6 791/7/6 790/7/6
f 798/8/6 790/8/6 797/8/6
f 799/8/6 794/8/6 793/8/6
f 799/7/6 791/7/6 798/7/6
f 799/8/6 792/8/6 791/8/6
f 799/8/6 793/8/6 792/8/6
f 799/8/6 795/8/6 794/8/6
f 800/8/6 784/8/6 772/8/6
f 801/8/6 784/8/6 800/8/6
f 802/7/6 785/7/6 784/7/6
f 802/8/6 784/8/6 801/8/6
f 803/8/6 798/8/6 797/8/6
f 803/7/6 785/7/6 802/7/6
f 803/8/6 797/8/6 796/8/6
f 803/8/6 796/8/6 785/8/6
f 803/8/6 799/8/6 798/8/6
f 804/8/6 799/8/6 803/8/6
f 805/8/6 799/8/6 804/8/6
f 806/7/6 801/7/6 800/7/6
f 807/8/6 802/8/6 801/8/6
f 807/7/6 801/7/6 806/7/6
f 807/8/6 803/8/6 802/8/6
f 807/8/6 804/8/6 803/8/6
f 808/8/6 804/8/6 807/8/6
f 809/8/6 804/8/6 808/8/6
f 810/8/6 804/8/6 809/8/6
f 811/8/6 804/8/6 810/8/6
f 812/8/6 799/8/6 805/8/6
f 813/8/6 799/8/6 812/8/6
f 814/8/6 810/8/6 809/8/6
f 814/7/6 811/7/6 810/7/6
f 815/8/6 804/8/6 811/8/6
f 815/7/6 811/7/6 814/7/6
f 816/7/6 805/7/6 804/7/6
f 816/8/6 804/8/6 815/8/6
f 817/8/6 812/8/6 805/8/6
f 817/7/6 805/7/6 816/7/6
f 818/8/6 812/8/6 817/8/6
f 819/8/6 812/8/6 818/8/6
f 820/8/6 799/8/6 813/8/6
f 820/7/6 813/7/6 812/7/6
f 821/8/6 799/8/6 820/8/6
f 822/8/6 814/8/6 809/8/6
f 822/8/6 815/8/6 814/8/6
f 822/8/6 816/8/6 815/8/6
f 822/8/6 817/8/6 816/8/6
f 822/8/6 818/8/6 817/8/6
f 823/8/6 818/8/6 822/8/6
f 824/7/6 819/7/6 818/7/6
f 824/8/6 818/8/6 823/8/6
f 825/8/6 812/8/6 819/8/6
f 825/7/6 819/7/6 824/7/6
f 826/7/6 821/7/6 820/7/6
f 826/8/6 812/8/6 825/8/6
f 826/7/6 820/7/6 812/7/6
f 827/7/6 821/7/6 826/7/6
f 828/8/6 799/8/6 821/8/6
f 828/7/6 821/7/6 827/7/6
f 829/8/6 799/8/6 828/8/6
f 830/7/6 809/7/6 808/7/6
f 830/8/6 822/8/6 809/8/6
f 831/8/6 822/8/6 830/8/6
f 832/8/6 827/8/6 826/8/6
f 832/8/6 825/8/6 824/8/6
f 832/8/6 824/8/6 823/8/6
f 832/8/6 826/8/6 825/8/6
f 833/8/6 827/8/6 832/8/6
f 834/7/6 829/7/6 828/7/6
f 834/8/6 827/8/6 833/8/6
f 834/7/6 828/7/6 827/7/6
f 835/7/6 829/7/6 834/7/6
f 836/8/6 799/8/6 829/8/6
f 836/7/6 829/7/6 835/7/6
f 837/8/6 799/8/6 836/8/6
f 838/7/6 806/7/6 800/7/6
f 839/8/6 807/8/6 806/8/6
f 839/7/6 806/7/6 838/7/6
f 839/8/6 808/8/6 807/8/6
f 840/7/6 833/7/6 832/7/6
f 840/8/6 832/8/6 823/8/6
f 841/8/6 835/8/6 834/8/6
f 841/7/6 833/7/6 840/7/6
f 841/8/6 834/8/6 833/8/6
f 842/7/6 837/7/6 836/7/6
f 842/8/6 835/8/6 841/8/6
f 842/7/6 836/7/6 835/7/6
f 843/8/6 799/8/6 837/8/6
f 843/7/6 837/7/6 842/7/6
f 844/7/6 831/7/6 830/7/6
f 844/7/6 830/7/6 808/7/6
f 844/8/6 808/8/6 839/8/6
f 844/8/6 839/8/6 838/8/6
f 845/7/6 831/7/6 844/7/6
f 846/8/6 842/8/6 841/8/6
f 846/8/6 799/8/6 843/8/6
f 846/8/6 841/8/6 840/8/6
f 846/8/6 843/8/6 842/8/6
f 847/8/6 795/8/6 799/8/6
f 847/8/6 799/8/6 846/8/6
f 848/8/6 800/8/6 772/8/6
f 849/7/6 838/7/6 800/7/6
f 849/8/6 800/8/6 848/8/6
f 850/8/6 845/8/6 844/8/6
f 850/7/6 838/7/6 849/7/6
f 850/8/6 844/8/6 838/8/6
f 851/7/6 831/7/6 845/7/6
f 851/8/6 822/8/6 831/8/6
f 852/7/6 823/7/6 822/7/6
f 852/8/6 822/8/6 851/8/6
f 853/8/6 846/8/6 840/8/6
f 854/8/6 846/8/6 853/8/6
f 855/7/6 847/7/6 846/7/6
f 855/8/6 846/8/6 854/8/6
f 856/8/6 795/8/6 847/8/6
f 856/7/6 847/7/6 855/7/6
f 857/8/6 795/8/6 856/8/6
f 858/8/6 795/8/6 857/8/6
f 859/8/6 845/8/6 850/8/6
f 859/8/6 850/8/6 849/8/6
f 859/7/6 851/7/6 845/7/6
f 859/7/6 852/7/6 851/7/6
f 860/7/6 852/7/6 859/7/6
f 861/8/6 855/8/6 854/8/6
f 861/7/6 854/7/6 853/7/6
f 861/8/6 857/8/6 856/8/6
f 861/8/6 856/8/6 855/8/6
f 862/8/6 857/8/6 861/8/6
f 863/7/6 858/7/6 857/7/6
f 863/8/6 857/8/6 862/8/6
f 864/8/6 795/8/6 858/8/6
f 864/7/6 858/7/6 863/7/6
f 865/8/6 773/8/6 795/8/6
f 865/8/6 795/8/6 864/8/6
f 866/7/6 849/7/6 848/7/6
f 866/8/6 848/8/6 772/8/6
f 867/8/6 860/8/6 859/8/6
f 867/7/6 849/7/6 866/7/6
f 867/8/6 859/8/6 849/8/6
f 868/8/6 860/8/6 867/8/6
f 869/7/6 852/7/6 860/7/6
f 869/7/6 823/7/6 852/7/6
f 870/8/6 840/8/6 823/8/6
f 870/7/6 823/7/6 869/7/6
f 870/8/6 853/8/6 840/8/6
f 871/8/6 863/8/6 862/8/6
f 871/8/6 864/8/6 863/8/6
f 871/7/6 865/7/6 864/7/6
f 872/8/6 773/8/6 865/8/6
f 872/7/6 865/7/6 871/7/6
f 873/8/6 776/8/6 766/8/6
f 874/8/6 768/8/6 777/8/6
f 875/8/6 860/8/6 868/8/6
f 875/7/6 869/7/6 860/7/6
f 876/8/6 870/8/6 869/8/6
f 876/7/6 869/7/6 875/7/6
f 877/8/6 876/8/6 875/8/6
f 877/8/6 870/8/6 876/8/6
f 878/8/6 853/8/6 870/8/6
f 878/8/6 870/8/6 877/8/6
f 879/8/6 867/8/6 866/8/6
f 879/8/6 866/8/6 772/8/6
f 880/8/6 867/8/6 879/8/6
f 881/8/6 877/8/6 875/8/6
f 881/8/6 875/8/6 868/8/6
f 882/8/6 877/8/6 881/8/6
f 883/7/6 862/7/6 861/7/6
f 883/8/6 853/8/6 878/8/6
f 883/7/6 861/7/6 853/7/6
f 884/8/6 871/8/6 862/8/6
f 884/7/6 862/7/6 883/7/6
f 884/8/6 872/8/6 871/8/6
f 885/8/6 873/8/6 766/8/6
f 885/8/6 874/8/6 873/8/6
f 886/8/6 768/8/6 874/8/6
f 886/8/6 874/8/6 885/8/6
f 887/8/6 881/8/6 868/8/6
f 888/7/6 882/7/6 881/7/6
f 888/8/6 881/8/6 887/8/6
f 889/8/6 877/8/6 882/8/6
f 889/7/6 878/7/6 877/7/6
f 890/8/6 884/8/6 883/8/6
f 890/7/6 878/7/6 889/7/6
f 890/8/6 883/8/6 878/8/6
f 891/8/6 872/8/6 884/8/6
f 891/8/6 884/8/6 890/8/6
f 891/8/6 890/8/6 889/8/6
f 892/8/6 872/8/6 891/8/6
f 893/8/6 887/8/6 868/8/6
f 893/7/6 888/7/6 887/7/6
f 894/7/6 888/7/6 893/7/6
f 895/7/6 882/7/6 888/7/6
f 895/7/6 888/7/6 894/7/6
f 896/8/6 889/8/6 882/8/6
f 896/7/6 882/7/6 895/7/6
f 896/8/6 891/8/6 889/8/6
f 897/8/6 891/8/6 896/8/6
f 898/8/6 891/8/6 897/8/6
f 899/7/6 892/7/6 891/7/6
f 899/8/6 891/8/6 898/8/6
f 900/7/6 892/7/6 899/7/6
f 901/8/6 872/8/6 892/8/6
f 901/7/6 892/7/6 900/7/6
f 902/8/6 872/8/6 901/8/6
f 903/8/6 867/8/6 880/8/6
f 903/7/6 868/7/6 867/7/6
f 904/8/6 894/8/6 893/8/6
f 904/7/6 868/7/6 903/7/6
f 904/8/6 893/8/6 868/8/6
f 905/8/6 894/8/6 904/8/6
f 906/7/6 895/7/6 894/7/6
f 906/8/6 894/8/6 905/8/6
f 907/8/6 896/8/6 895/8/6
f 907/7/6 895/7/6 906/7/6
f 907/8/6 897/8/6 896/8/6
f 908/7/6 898/7/6 897/7/6
f 908/8/6 897/8/6 907/8/6
f 909/8/6 900/8/6 899/8/6
f 909/7/6 898/7/6 908/7/6
f 909/8/6 899/8/6 898/8/6
f 910/7/6 902/7/6 901/7/6
f 910/8/6 900/8/6 909/8/6
f 910/7/6 901/7/6 900/7/6
f 911/8/6 872/8/6 902/8/6
f 911/7/6 902/7/6 910/7/6
f 912/8/6 905/8/6 904/8/6
f 912/8/6 904/8/6 903/8/6
f 912/7/6 906/7/6 905/7/6
f 913/8/6 910/8/6 909/8/6
f 913/7/6 906/7/6 912/7/6
f 913/8/6 909/8/6 908/8/6
f 913/8/6 911/8/6 910/8/6
f 913/8/6 908/8/6 907/8/6
f 913/8/6 907/8/6 906/8/6
f 914/8/6 911/8/6 913/8/6
f 915/8/6 911/8/6 914/8/6
f 916/8/6 872/8/6 911/8/6
f 916/8/6 911/8/6 915/8/6
f 917/8/6 872/8/6 916/8/6
f 918/8/6 912/8/6 903/8/6
f 918/8/6 903/8/6 880/8/6
f 918/7/6 880/7/6 879/7/6
f 918/8/6 913/8/6 912/8/6
f 918/8/6 914/8/6 913/8/6
f 919/8/6 914/8/6 918/8/6
f 920/8/6 914/8/6 919/8/6
f 921/8/6 914/8/6 920/8/6
f 922/7/6 915/7/6 914/7/6
f 922/8/6 914/8/6 921/8/6
f 923/8/6 916/8/6 915/8/6
f 923/7/6 915/7/6 922/7/6
f 924/7/6 917/7/6 916/7/6
f 924/8/6 916/8/6 923/8/6
f 925/8/6 872/8/6 917/8/6
f 925/7/6 917/7/6 924/7/6
f 926/7/6 918/7/6 879/7/6
f 926/7/6 919/7/6 918/7/6
f 927/8/6 920/8/6 919/8/6
f 927/7/6 919/7/6 926/7/6
f 928/7/6 921/7/6 920/7/6
f 928/8/6 920/8/6 927/8/6
f 929/8/6 924/8/6 923/8/6
f 929/7/6 921/7/6 928/7/6
f 929/8/6 923/8/6 922/8/6
f 929/8/6 922/8/6 921/8/6
f 929/8/6 925/8/6 924/8/6
f 930/8/6 879/8/6 772/8/6
f 930/7/6 926/7/6 879/7/6
f 931/8/6 928/8/6 927/8/6
f 931/7/6 926/7/6 930/7/6
f 931/8/6 929/8/6 928/8/6
f 931/8/6 927/8/6 926/8/6
f 932/8/6 885/8/6 766/8/6
f 933/8/6 768/8/6 886/8/6
f 934/8/6 930/8/6 772/8/6
f 934/8/6 931/8/6 930/8/6
f 935/8/6 929/8/6 931/8/6
f 935/8/6 931/8/6 934/8/6
f 936/8/6 934/8/6 772/8/6
f 936/7/6 935/7/6 934/7/6
f 937/8/6 929/8/6 935/8/6
f 937/7/6 935/7/6 936/7/6
f 938/8/6 933/8/6 932/8/6
f 938/8/6 768/8/6 933/8/6
f 939/8/6 936/8/6 772/8/6
f 939/8/6 937/8/6 936/8/6
f 940/8/6 938/8/6 932/8/6
f 940/8/6 939/8/6 938/8/6
f 940/8/6 932/8/6 766/8/6
f 941/8/6 925/8/6 929/8/6
f 941/8/6 939/8/6 940/8/6
f 941/8/6 773/8/6 872/8/6
f 941/8/6 929/8/6 937/8/6
f 941/8/6 937/8/6 939/8/6
f 941/8/6 872/8/6 925/8/6
f 946/4/6 945/4/6 944/4/6
f 947/4/6 945/4/6 946/4/6
f 948/4/6 943/4/6 942/4/6
f 949/5/6 944/5/6 943/5/6
f 949/4/6 943/4/6 948/4/6
f 950/5/6 944/5/6 949/5/6
f 951/4/6 946/4/6 944/4/6
f 951/5/6 944/5/6 950/5/6
f 952/5/6 947/5/6 946/5/6
f 952/4/6 946/4/6 951/4/6
f 953/4/6 945/4/6 947/4/6
f 953/5/6 947/5/6 952/5/6
f 954/4/6 945/4/6 953/4/6
f 955/4/6 945/4/6 954/4/6
f 956/4/6 945/4/6 955/4/6
f 957/4/6 948/4/6 942/4/6
f 958/5/6 950/5/6 949/5/6
f 958/4/6 948/4/6 957/4/6
f 958/5/6 949/5/6 948/5/6
f 959/4/6 955/4/6 954/4/6
f 960/5/6 956/5/6 955/5/6
f 960/4/6 955/4/6 959/4/6
f 961/4/6 945/4/6 956/4/6
f 961/5/6 956/5/6 960/5/6
f 962/4/6 945/4/6 961/4/6
f 963/4/6 957/4/6 942/4/6
f 964/5/6 958/5/6 957/5/6
f 964/4/6 957/4/6 963/4/6
f 965/5/6 950/5/6 958/5/6
f 965/5/6 958/5/6 964/5/6
f 966/6/6 952/6/6 951/6/6
f 966/5/6 950/5/6 965/5/6
f 966/6/6 951/6/6 950/6/6
f 967/5/6 953/5/6 952/5/6
f 967/5/6 954/5/6 953/5/6
f 968/4/6 959/4/6 954/4/6
f 968/5/6 954/5/6 967/5/6
f 969/6/6 952/6/6 966/6/6
f 969/6/6 966/6/6 965/6/6
f 970/5/6 967/5/6 952/5/6
f 970/6/6 952/6/6 969/6/6
f 971/4/6 959/4/6 968/4/6
f 971/4/6 968/4/6 967/4/6
f 972/4/6 959/4/6 971/4/6
f 973/4/6 959/4/6 972/4/6
f 974/5/6 960/5/6 959/5/6
f 974/4/6 959/4/6 973/4/6
f 974/5/6 962/5/6 961/5/6
f 974/5/6 961/5/6 960/5/6
f 975/5/6 965/5/6 964/5/6
f 975/5/6 964/5/6 963/5/6
f 976/5/6 965/5/6 975/5/6
f 977/6/6 969/6/6 965/6/6
f 977/5/6 970/5/6 969/5/6
f 978/5/6 967/5/6 970/5/6
f 978/5/6 970/5/6 977/5/6
f 978/4/6 971/4/6 967/4/6
f 979/4/6 971/4/6 978/4/6
f 980/4/6 971/4/6 979/4/6
f 981/4/6 973/4/6 972/4/6
f 981/5/6 972/5/6 971/5/6
f 982/4/6 973/4/6 981/4/6
f 983/4/6 963/4/6 942/4/6
f 984/5/6 975/5/6 963/5/6
f 984/4/6 963/4/6 983/4/6
f 985/5/6 975/5/6 984/5/6
f 986/5/6 975/5/6 985/5/6
f 987/4/6 973/4/6 982/4/6
f 988/5/6 974/5/6 973/5/6
f 988/4/6 973/4/6 987/4/6
f 989/5/6 962/5/6 974/5/6
f 989/5/6 974/5/6 988/5/6
f 990/5/6 962/5/6 989/5/6
f 991/4/6 945/4/6 962/4/6
f 991/5/6 962/5/6 990/5/6
f 992/4/6 945/4/6 991/4/6
f 993/5/6 975/5/6 986/5/6
f 993/4/6 986/4/6 985/4/6
f 994/5/6 975/5/6 993/5/6
f 995/5/6 975/5/6 994/5/6
f 996/6/6 976/6/6 975/6/6
f 996/5/6 975/5/6 995/5/6
f 997/5/6 965/5/6 976/5/6
f 997/6/6 976/6/6 996/6/6
f 998/6/6 977/6/6 965/6/6
f 998/5/6 965/5/6 997/5/6
f 998/6/6 978/6/6 977/6/6
f 998/6/6 979/6/6 978/6/6
f 999/4/6 971/4/6 980/4/6
f 999/5/6 980/5/6 979/5/6
f 1000/4/6 971/4/6 999/4/6
f 1001/5/6 992/5/6 991/5/6
f 1001/5/6 991/5/6 990/5/6
f 1002/4/6 945/4/6 992/4/6
f 1002/5/6 992/5/6 1001/5/6
f 1003/4/6 994/4/6 993/4/6
f 1003/4/6 993/4/6 985/4/6
f 1003/5/6 984/5/6 983/5/6
f 1003/5/6 985/5/6 984/5/6
f 1004/5/6 995/5/6 994/5/6
f 1004/4/6 994/4/6 1003/4/6
f 1005/6/6 998/6/6 997/6/6
f 1005/5/6 995/5/6 1004/5/6
f 1005/6/6 996/6/6 995/6/6
f 1005/6/6 997/6/6 996/6/6
f 1006/6/6 979/6/6 998/6/6
f 1006/6/6 998/6/6 1005/6/6
f 1006/5/6 999/5/6 979/5/6
f 1006/5/6 1000/5/6 999/5/6
f 1007/5/6 1000/5/6 1006/5/6
f 1008/4/6 971/4/6 1000/4/6
f 1009/4/6 971/4/6 1008/4/6
f 1010/5/6 981/5/6 971/5/6
f 1010/5/6 982/5/6 981/5/6
f 1011/5/6 982/5/6 1010/5/6
f 1012/5/6 1001/5/6 990/5/6
f 1012/4/6 1002/4/6 1001/4/6
f 1013/4/6 945/4/6 1002/4/6
f 1013/4/6 1002/4/6 1012/4/6
f 1014/5/6 1004/5/6 1003/5/6
f 1014/5/6 1003/5/6 983/5/6
f 1015/6/6 1005/6/6 1004/6/6
f 1015/5/6 1004/5/6 1014/5/6
f 1015/6/6 1006/6/6 1005/6/6
f 1015/6/6 1007/6/6 1006/6/6
f 1016/4/6 971/4/6 1009/4/6
f 1017/5/6 1010/5/6 971/5/6
f 1017/4/6 971/4/6 1016/4/6
f 1018/4/6 987/4/6 982/4/6
f 1018/5/6 982/5/6 1011/5/6
f 1019/4/6 987/4/6 1018/4/6
f 1020/5/6 988/5/6 987/5/6
f 1020/5/6 989/5/6 988/5/6
f 1021/6/6 990/6/6 989/6/6
f 1021/5/6 989/5/6 1020/5/6
f 1022/5/6 1013/5/6 1012/5/6
f 1022/6/6 990/6/6 1021/6/6
f 1022/5/6 1012/5/6 990/5/6
f 1023/5/6 1013/5/6 1022/5/6
f 1024/4/6 983/4/6 942/4/6
f 1025/4/6 983/4/6 1024/4/6
f 1026/5/6 1000/5/6 1007/5/6
f 1026/4/6 1008/4/6 1000/4/6
f 1027/4/6 1008/4/6 1026/4/6
f 1028/4/6 1008/4/6 1027/4/6
f 1029/5/6 1009/5/6 1008/5/6
f 1029/4/6 1008/4/6 1028/4/6
f 1030/4/6 987/4/6 1019/4/6
f 1030/5/6 1019/5/6 1018/5/6
f 1031/5/6 1020/5/6 987/5/6
f 1031/4/6 987/4/6 1030/4/6
f 1032/5/6 1025/5/6 1024/5/6
f 1032/4/6 1024/4/6 942/4/6
f 1033/4/6 983/4/6 1025/4/6
f 1033/5/6 1025/5/6 1032/5/6
f 1034/4/6 1028/4/6 1027/4/6
f 1034/5/6 1027/5/6 1026/5/6
f 1035/5/6 1029/5/6 1028/5/6
f 1035/4/6 1028/4/6 1034/4/6
f 1036/5/6 1017/5/6 1016/5/6
f 1037/5/6 1010/5/6 1017/5/6
f 1037/5/6 1017/5/6 1036/5/6
f 1037/6/6 1011/6/6 1010/6/6
f 1038/6/6 1011/6/6 1037/6/6
f 1039/5/6 1030/5/6 1018/5/6
f 1039/6/6 1011/6/6 1038/6/6
f 1039/5/6 1018/5/6 1011/5/6
f 1039/5/6 1031/5/6 1030/5/6
f 1040/5/6 1020/5/6 1031/5/6
f 1040/5/6 1031/5/6 1039/5/6
f 1041/6/6 1021/6/6 1020/6/6
f 1041/5/6 1020/5/6 1040/5/6
f 1041/6/6 1022/6/6 1021/6/6
f 1041/6/6 1023/6/6 1022/6/6
f 1042/5/6 1009/5/6 1029/5/6
f 1042/5/6 1029/5/6 1035/5/6
f 1042/5/6 1035/5/6 1034/5/6
f 1043/5/6 1009/5/6 1042/5/6
f 1044/4/6 1016/4/6 1009/4/6
f 1044/5/6 1009/5/6 1043/5/6
f 1045/5/6 1036/5/6 1016/5/6
f 1045/4/6 1016/4/6 1044/4/6
f 1046/5/6 1036/5/6 1045/5/6
f 1047/6/6 1038/6/6 1037/6/6
f 1047/5/6 1036/5/6 1046/5/6
f 1047/6/6 1037/6/6 1036/6/6
f 1048/5/6 1040/5/6 1039/5/6
f 1048/6/6 1038/6/6 1047/6/6
f 1048/5/6 1039/5/6 1038/5/6
f 1049/5/6 1040/5/6 1048/5/6
f 1050/5/6 1040/5/6 1049/5/6
f 1051/6/6 1041/6/6 1040/6/6
f 1051/5/6 1040/5/6 1050/5/6
f 1052/4/6 1033/4/6 1032/4/6
f 1052/4/6 983/4/6 1033/4/6
f 1053/5/6 1014/5/6 983/5/6
f 1053/4/6 983/4/6 1052/4/6
f 1054/6/6 1015/6/6 1014/6/6
f 1054/5/6 1014/5/6 1053/5/6
f 1055/6/6 1007/6/6 1015/6/6
f 1055/6/6 1015/6/6 1054/6/6
f 1056/5/6 1034/5/6 1026/5/6
f 1056/6/6 1007/6/6 1055/6/6
f 1056/5/6 1042/5/6 1034/5/6
f 1056/5/6 1026/5/6 1007/5/6
f 1057/5/6 1042/5/6 1056/5/6
f 1058/5/6 1050/5/6 1049/5/6
f 1059/6/6 1051/6/6 1050/6/6
f 1059/5/6 1050/5/6 1058/5/6
f 1060/6/6 1023/6/6 1041/6/6
f 1060/6/6 1051/6/6 1059/6/6
f 1060/5/6 1013/5/6 1023/5/6
f 1060/6/6 1041/6/6 1051/6/6
f 1061/5/6 1013/5/6 1060/5/6
f 1062/5/6 1055/5/6 1054/5/6
f 1062/5/6 1054/5/6 1053/5/6
f 1062/5/6 1053/5/6 1052/5/6
f 1063/6/6 1057/6/6 1056/6/6
f 1063/5/6 1055/5/6 1062/5/6
f 1063/6/6 1056/6/6 1055/6/6
f 1064/6/6 1057/6/6 1063/6/6
f 1065/6/6 1057/6/6 1064/6/6
f 1066/6/6 1057/6/6 1065/6/6
f 1067/6/6 1057/6/6 1066/6/6
f 1068/6/6 1057/6/6 1067/6/6
f 1069/6/6 1057/6/6 1068/6/6
f 1070/5/6 1042/5/6 1057/5/6
f 1070/6/6 1057/6/6 1069/6/6
f 1071/4/6 1043/4/6 1042/4/6
f 1071/5/6 1042/5/6 1070/5/6
f 1072/5/6 1046/5/6 1045/5/6
f 1072/4/6 1043/4/6 1071/4/6
f 1072/5/6 1044/5/6 1043/5/6
f 1072/5/6 1045/5/6 1044/5/6
f 1073/5/6 1046/5/6 1072/5/6
f 1074/6/6 1047/6/6 1046/6/6
f 1074/5/6 1046/5/6 1073/5/6
f 1074/6/6 1048/6/6 1047/6/6
f 1074/6/6 1049/6/6 1048/6/6
f 1075/5/6 1058/5/6 1049/5/6
f 1075/6/6 1049/6/6 1074/6/6
f 1076/6/6 1059/6/6 1058/6/6
f 1076/5/6 1058/5/6 1075/5/6
f 1076/6/6 1061/6/6 1060/6/6
f 1076/6/6 1060/6/6 1059/6/6
f 1077/6/6 1068/6/6 1067/6/6
f 1078/5/6 1069/5/6 1068/5/6
f 1078/6/6 1068/6/6 1077/6/6
f 1079/6/6 1071/6/6 1070/6/6
f 1079/5/6 1069/5/6 1078/5/6
f 1079/6/6 1070/6/6 1069/6/6
f 1080/6/6 1071/6/6 1079/6/6
f 1081/5/6 1073/5/6 1072/5/6
f 1081/6/6 1071/6/6 1080/6/6
f 1081/5/6 1072/5/6 1071/5/6
f 1082/6/6 1075/6/6 1074/6/6
f 1082/5/6 1073/5/6 1081/5/6
f 1082/6/6 1074/6/6 1073/6/6
f 1082/6/6 1076/6/6 1075/6/6
f 1083/5/6 1013/5/6 1061/5/6
f 1083/6/6 1076/6/6 1082/6/6
f 1083/6/6 1061/6/6 1076/6/6
f 1084/4/6 945/4/6 1013/4/6
f 1084/5/6 1013/5/6 1083/5/6
f 1085/4/6 945/4/6 1084/4/6
f 1086/6/6 1066/6/6 1065/6/6
f 1086/5/6 1065/5/6 1064/5/6
f 1087/5/6 1067/5/6 1066/5/6
f 1087/6/6 1066/6/6 1086/6/6
f 1088/6/6 1081/6/6 1080/6/6
f 1088/6/6 1083/6/6 1082/6/6
f 1088/6/6 1082/6/6 1081/6/6
f 1088/6/6 1084/6/6 1083/6/6
f 1089/6/6 1084/6/6 1088/6/6
f 1090/6/6 1077/6/6 1067/6/6
f 1091/5/6 1078/5/6 1077/5/6
f 1091/6/6 1077/6/6 1090/6/6
f 1091/5/6 1080/5/6 1079/5/6
f 1091/5/6 1079/5/6 1078/5/6
f 1092/6/6 1088/6/6 1080/6/6
f 1092/5/6 1080/5/6 1091/5/6
f 1093/6/6 1088/6/6 1092/6/6
f 1094/5/6 1089/5/6 1088/5/6
f 1094/6/6 1088/6/6 1093/6/6
f 1095/6/6 1084/6/6 1089/6/6
f 1095/5/6 1089/5/6 1094/5/6
f 1096/6/6 1084/6/6 1095/6/6
f 1097/6/6 1084/6/6 1096/6/6
f 1098/4/6 1052/4/6 1032/4/6
f 1098/5/6 1062/5/6 1052/5/6
f 1099/5/6 1062/5/6 1098/5/6
f 1100/6/6 1064/6/6 1063/6/6
f 1100/5/6 1062/5/6 1099/5/6
f 1100/6/6 1063/6/6 1062/6/6
f 1101/5/6 1087/5/6 1086/5/6
f 1101/6/6 1064/6/6 1100/6/6
f 1101/5/6 1086/5/6 1064/5/6
f 1102/5/6 1067/5/6 1087/5/6
f 1102/5/6 1087/5/6 1101/5/6
f 1102/6/6 1090/6/6 1067/6/6
f 1103/5/6 1093/5/6 1092/5/6
f 1103/6/6 1090/6/6 1102/6/6
f 1103/5/6 1091/5/6 1090/5/6
f 1103/5/6 1092/5/6 1091/5/6
f 1104/6/6 1095/6/6 1094/6/6
f 1104/5/6 1093/5/6 1103/5/6
f 1104/6/6 1094/6/6 1093/6/6
f 1104/6/6 1096/6/6 1095/6/6
f 1105/6/6 1096/6/6 1104/6/6
f 1106/6/6 1096/6/6 1105/6/6
f 1107/6/6 1096/6/6 1106/6/6
f 1108/6/6 1084/6/6 1097/6/6
f 1109/5/6 1085/5/6 1084/5/6
f 1109/6/6 1084/6/6 1108/6/6
f 1110/5/6 1101/5/6 1100/5/6
f 1110/5/6 1103/5/6 1102/5/6
f 1110/5/6 1100/5/6 1099/5/6
f 1110/5/6 1102/5/6 1101/5/6
f 1110/5/6 1104/5/6 1103/5/6
f 1110/5/6 1105/5/6 1104/5/6
f 1111/5/6 1105/5/6 1110/5/6
f 1112/6/6 1096/6/6 1107/6/6
f 1113/6/6 1096/6/6 1112/6/6
f 1114/6/6 1096/6/6 1113/6/6
f 1115/5/6 1097/5/6 1096/5/6
f 1115/6/6 1096/6/6 1114/6/6
f 1116/6/6 1108/6/6 1097/6/6
f 1117/5/6 1109/5/6 1108/5/6
f 1117/6/6 1108/6/6 1116/6/6
f 1118/5/6 1109/5/6 1117/5/6
f 1119/5/6 1085/5/6 1109/5/6
f 1119/5/6 1109/5/6 1118/5/6
f 1119/4/6 945/4/6 1085/4/6
f 1120/5/6 1110/5/6 1099/5/6
f 1121/4/6 1111/4/6 1110/4/6
f 1121/5/6 1110/5/6 1120/5/6
f 1122/5/6 1105/5/6 1111/5/6
f 1122/6/6 1106/6/6 1105/6/6
f 1123/5/6 1107/5/6 1106/5/6
f 1123/6/6 1106/6/6 1122/6/6
f 1124/6/6 1112/6/6 1107/6/6
f 1124/5/6 1107/5/6 1123/5/6
f 1125/5/6 1113/5/6 1112/5/6
f 1125/6/6 1112/6/6 1124/6/6
f 1126/4/6 1114/4/6 1113/4/6
f 1126/5/6 1115/5/6 1114/5/6
f 1127/5/6 1097/5/6 1115/5/6
f 1127/5/6 1115/5/6 1126/5/6
f 1128/6/6 1116/6/6 1097/6/6
f 1128/5/6 1097/5/6 1127/5/6
f 1129/5/6 1118/5/6 1117/5/6
f 1129/6/6 1116/6/6 1128/6/6
f 1129/5/6 1117/5/6 1116/5/6
f 1130/4/6 1099/4/6 1098/4/6
f 1130/5/6 1120/5/6 1099/5/6
f 1131/5/6 1120/5/6 1130/5/6
f 1132/5/6 1120/5/6 1131/5/6
f 1133/5/6 1120/5/6 1132/5/6
f 1134/4/6 1111/4/6 1121/4/6
f 1134/5/6 1122/5/6 1111/5/6
f 1134/4/6 1121/4/6 1120/4/6
f 1134/5/6 1123/5/6 1122/5/6
f 1134/5/6 1124/5/6 1123/5/6
f 1134/5/6 1125/5/6 1124/5/6
f 1135/5/6 1125/5/6 1134/5/6
f 1136/5/6 1125/5/6 1135/5/6
f 1137/4/6 1127/4/6 1126/4/6
f 1137/5/6 1125/5/6 1136/5/6
f 1137/4/6 1126/4/6 1113/4/6
f 1137/5/6 1113/5/6 1125/5/6
f 1138/5/6 1128/5/6 1127/5/6
f 1138/5/6 1118/5/6 1129/5/6
f 1138/5/6 1129/5/6 1128/5/6
f 1139/4/6 1119/4/6 1118/4/6
f 1139/5/6 1118/5/6 1138/5/6
f 1140/5/6 1132/5/6 1131/5/6
f 1140/4/6 1131/4/6 1130/4/6
f 1141/4/6 1133/4/6 1132/4/6
f 1141/5/6 1132/5/6 1140/5/6
f 1142/5/6 1136/5/6 1135/5/6
f 1142/4/6 1135/4/6 1134/4/6
f 1143/5/6 1136/5/6 1142/5/6
f 1144/5/6 1120/5/6 1133/5/6
f 1144/4/6 1133/4/6 1141/4/6
f 1144/4/6 1141/4/6 1140/4/6
f 1145/5/6 1120/5/6 1144/5/6
f 1146/5/6 1120/5/6 1145/5/6
f 1147/4/6 1143/4/6 1142/4/6
f 1147/5/6 1120/5/6 1146/5/6
f 1147/4/6 1142/4/6 1134/4/6
f 1147/4/6 1134/4/6 1120/4/6
f 1148/5/6 1136/5/6 1143/5/6
f 1148/4/6 1143/4/6 1147/4/6
f 1149/4/6 1137/4/6 1136/4/6
f 1149/5/6 1136/5/6 1148/5/6
f 1150/4/6 1127/4/6 1137/4/6
f 1150/4/6 1137/4/6 1149/4/6
f 1150/5/6 1138/5/6 1127/5/6
f 1151/5/6 1138/5/6 1150/5/6
f 1152/4/6 1140/4/6 1130/4/6
f 1152/4/6 1032/4/6 942/4/6
f 1152/4/6 1145/4/6 1144/4/6
f 1152/4/6 1144/4/6 1140/4/6
f 1152/4/6 1130/4/6 1098/4/6
f 1152/4/6 1098/4/6 1032/4/6
f 1153/5/6 1146/5/6 1145/5/6
f 1153/4/6 1145/4/6 1152/4/6
f 1154/4/6 1149/4/6 1148/4/6
f 1154/5/6 1146/5/6 1153/5/6
f 1154/4/6 1147/4/6 1146/4/6
f 1154/4/6 1148/4/6 1147/4/6
f 1154/4/6 1150/4/6 1149/4/6
f 1154/4/6 1151/4/6 1150/4/6
f 1155/5/6 1138/5/6 1151/5/6
f 1155/4/6 1151/4/6 1154/4/6
f 1156/4/6 1139/4/6 1138/4/6
f 1156/5/6 1138/5/6 1155/5/6
f 1157/4/6 945/4/6 1119/4/6
f 1157/4/6 1139/4/6 1156/4/6
f 1157/4/6 1119/4/6 1139/4/6
f 1160/8/6 1159/8/6 1158/8/6
f 1161/8/6 1159/8/6 1160/8/6
f 1162/8/6 1160/8/6 1158/8/6
f 1163/8/6 1160/8/6 1162/8/6
f 1164/8/6 1159/8/6 1161/8/6
f 1165/8/6 1159/8/6 1164/8/6
f 1166/7/6 1165/7/6 1164/7/6
f 1167/8/6 1159/8/6 1165/8/6
f 1167/7/6 1165/7/6 1166/7/6
f 1168/8/6 1164/8/6 1161/8/6
f 1169/8/6 1164/8/6 1168/8/6
f 1170/7/6 1166/7/6 1164/7/6
f 1171/8/6 1167/8/6 1166/8/6
f 1171/7/6 1166/7/6 1170/7/6
f 1172/8/6 1164/8/6 1169/8/6
f 1172/7/6 1170/7/6 1164/7/6
f 1173/7/6 1170/7/6 1172/7/6
f 1174/7/6 1170/7/6 1173/7/6
f 1175/8/6 1171/8/6 1170/8/6
f 1175/7/6 1170/7/6 1174/7/6
f 1176/8/6 1159/8/6 1167/8/6
f 1176/8/6 1171/8/6 1175/8/6
f 1176/8/6 1167/8/6 1171/8/6
f 1177/8/6 1159/8/6 1176/8/6
f 1178/8/6 1173/8/6 1172/8/6
f 1178/8/6 1172/8/6 1169/8/6
f 1179/8/6 1173/8/6 1178/8/6
f 1180/7/6 1174/7/6 1173/7/6
f 1180/8/6 1173/8/6 1179/8/6
f 1181/8/6 1175/8/6 1174/8/6
f 1181/7/6 1174/7/6 1180/7/6
f 1181/8/6 1176/8/6 1175/8/6
f 1182/8/6 1176/8/6 1181/8/6
f 1183/8/6 1176/8/6 1182/8/6
f 1184/7/6 1177/7/6 1176/7/6
f 1184/8/6 1176/8/6 1183/8/6
f 1185/8/6 1159/8/6 1177/8/6
f 1185/7/6 1177/7/6 1184/7/6
f 1186/8/6 1168/8/6 1161/8/6
f 1186/7/6 1169/7/6 1168/7/6
f 1187/8/6 1178/8/6 1169/8/6
f 1187/7/6 1169/7/6 1186/7/6
f 1188/7/6 1179/7/6 1178/7/6
f 1188/8/6 1178/8/6 1187/8/6
f 1189/8/6 1180/8/6 1179/8/6
f 1189/7/6 1179/7/6 1188/7/6
f 1189/8/6 1181/8/6 1180/8/6
f 1189/8/6 1182/8/6 1181/8/6
f 1190/8/6 1182/8/6 1189/8/6
f 1191/8/6 1182/8/6 1190/8/6
f 1192/7/6 1183/7/6 1182/7/6
f 1192/8/6 1182/8/6 1191/8/6
f 1193/8/6 1184/8/6 1183/8/6
f 1193/7/6 1183/7/6 1192/7/6
f 1193/8/6 1185/8/6 1184/8/6
f 1194/8/6 1188/8/6 1187/8/6
f 1194/8/6 1187/8/6 1186/8/6
f 1194/8/6 1190/8/6 1189/8/6
f 1194/8/6 1189/8/6 1188/8/6
f 1195/8/6 1190/8/6 1194/8/6
f 1196/8/6 1162/8/6 1158/8/6
f 1197/8/6 1160/8/6 1163/8/6
f 1198/8/6 1194/8/6 1186/8/6
f 1198/7/6 1195/7/6 1194/7/6
f 1199/8/6 1190/8/6 1195/8/6
f 1199/7/6 1195/7/6 1198/7/6
f 1200/7/6 1191/7/6 1190/7/6
f 1200/8/6 1190/8/6 1199/8/6
f 1201/8/6 1192/8/6 1191/8/6
f 1201/7/6 1191/7/6 1200/7/6
f 1201/8/6 1193/8/6 1192/8/6
f 1202/8/6 1200/8/6 1199/8/6
f 1202/8/6 1199/8/6 1198/8/6
f 1202/8/6 1201/8/6 1200/8/6
f 1203/8/6 1201/8/6 1202/8/6
f 1204/8/6 1201/8/6 1203/8/6
f 1205/8/6 1201/8/6 1204/8/6
f 1206/8/6 1185/8/6 1193/8/6
f 1206/8/6 1201/8/6 1205/8/6
f 1206/8/6 1193/8/6 1201/8/6
f 1206/8/6 1159/8/6 1185/8/6
f 1207/8/6 1159/8/6 1206/8/6
f 1208/8/6 1204/8/6 1203/8/6
f 1209/8/6 1204/8/6 1208/8/6
f 1210/8/6 1206/8/6 1205/8/6
f 1210/7/6 1207/7/6 1206/7/6
f 1211/7/6 1207/7/6 1210/7/6
f 1212/8/6 1196/8/6 1158/8/6
f 1212/8/6 1197/8/6 1196/8/6
f 1213/8/6 1160/8/6 1197/8/6
f 1213/8/6 1197/8/6 1212/8/6
f 1214/7/6 1203/7/6 1202/7/6
f 1214/8/6 1202/8/6 1198/8/6
f 1215/8/6 1208/8/6 1203/8/6
f 1215/7/6 1203/7/6 1214/7/6
f 1216/7/6 1209/7/6 1208/7/6
f 1216/8/6 1208/8/6 1215/8/6
f 1217/8/6 1204/8/6 1209/8/6
f 1217/7/6 1209/7/6 1216/7/6
f 1218/8/6 1211/8/6 1210/8/6
f 1218/8/6 1210/8/6 1205/8/6
f 1219/8/6 1211/8/6 1218/8/6
f 1220/7/6 1207/7/6 1211/7/6
f 1220/8/6 1211/8/6 1219/8/6
f 1221/8/6 1159/8/6 1207/8/6
f 1221/7/6 1207/7/6 1220/7/6
f 1222/7/6 1205/7/6 1204/7/6
f 1222/8/6 1204/8/6 1217/8/6
f 1222/8/6 1216/8/6 1215/8/6
f 1222/8/6 1217/8/6 1216/8/6
f 1222/8/6 1215/8/6 1214/8/6
f 1223/8/6 1218/8/6 1205/8/6
f 1223/7/6 1205/7/6 1222/7/6
f 1224/7/6 1219/7/6 1218/7/6
f 1224/8/6 1220/8/6 1219/8/6
f 1224/8/6 1221/8/6 1220/8/6
f 1225/8/6 1159/8/6 1221/8/6
f 1225/8/6 1221/8/6 1224/8/6
f 1226/8/6 1198/8/6 1186/8/6
f 1226/8/6 1223/8/6 1222/8/6
f 1226/8/6 1214/8/6 1198/8/6
f 1226/8/6 1222/8/6 1214/8/6
f 1227/8/6 1223/8/6 1226/8/6
f 1228/8/6 1223/8/6 1227/8/6
f 1229/8/6 1223/8/6 1228/8/6
f 1230/7/6 1224/7/6 1218/7/6
f 1230/7/6 1225/7/6 1224/7/6
f 1231/7/6 1225/7/6 1230/7/6
f 1232/8/6 1228/8/6 1227/8/6
f 1233/8/6 1228/8/6 1232/8/6
f 1234/7/6 1229/7/6 1228/7/6
f 1234/8/6 1228/8/6 1233/8/6
f 1235/8/6 1223/8/6 1229/8/6
f 1235/7/6 1229/7/6 1234/7/6
f 1236/8/6 1218/8/6 1223/8/6
f 1236/8/6 1223/8/6 1235/8/6
f 1237/7/6 1230/7/6 1218/7/6
f 1237/8/6 1218/8/6 1236/8/6
f 1238/8/6 1231/8/6 1230/8/6
f 1238/7/6 1230/7/6 1237/7/6
f 1239/7/6 1225/7/6 1231/7/6
f 1239/8/6 1231/8/6 1238/8/6
f 1240/8/6 1159/8/6 1225/8/6
f 1240/7/6 1225/7/6 1239/7/6
f 1241/8/6 1186/8/6 1161/8/6
f 1241/8/6 1226/8/6 1186/8/6
f 1242/7/6 1227/7/6 1226/7/6
f 1242/8/6 1226/8/6 1241/8/6
f 1243/7/6 1233/7/6 1232/7/6
f 1243/8/6 1232/8/6 1227/8/6
f 1244/8/6 1235/8/6 1234/8/6
f 1244/7/6 1233/7/6 1243/7/6
f 1244/8/6 1234/8/6 1233/8/6
f 1244/8/6 1236/8/6 1235/8/6
f 1245/8/6 1236/8/6 1244/8/6
f 1246/7/6 1237/7/6 1236/7/6
f 1246/8/6 1236/8/6 1245/8/6
f 1247/8/6 1239/8/6 1238/8/6
f 1247/7/6 1237/7/6 1246/7/6
f 1247/8/6 1240/8/6 1239/8/6
f 1247/8/6 1238/8/6 1237/8/6
f 1248/8/6 1159/8/6 1240/8/6
f 1248/8/6 1240/8/6 1247/8/6
f 1249/8/6 1159/8/6 1248/8/6
f 1250/7/6 1242/7/6 1241/7/6
f 1250/7/6 1227/7/6 1242/7/6
f 1251/8/6 1243/8/6 1227/8/6
f 1251/7/6 1227/7/6 1250/7/6
f 1251/8/6 1244/8/6 1243/8/6
f 1251/8/6 1245/8/6 1244/8/6
f 1252/8/6 1245/8/6 1251/8/6
f 1253/7/6 1246/7/6 1245/7/6
f 1253/8/6 1245/8/6 1252/8/6
f 1254/8/6 1252/8/6 1251/8/6
f 1254/8/6 1251/8/6 1250/8/6
f 1254/7/6 1253/7/6 1252/7/6
f 1255/7/6 1253/7/6 1254/7/6
f 1256/7/6 1249/7/6 1248/7/6
f 1256/8/6 1247/8/6 1246/8/6
f 1256/8/6 1248/8/6 1247/8/6
f 1257/8/6 1159/8/6 1249/8/6
f 1257/7/6 1249/7/6 1256/7/6
f 1258/8/6 1255/8/6 1254/8/6
f 1258/8/6 1254/8/6 1250/8/6
f 1259/8/6 1255/8/6 1258/8/6
f 1260/7/6 1253/7/6 1255/7/6
f 1260/8/6 1255/8/6 1259/8/6
f 1261/7/6 1246/7/6 1253/7/6
f 1261/7/6 1253/7/6 1260/7/6
f 1261/8/6 1256/8/6 1246/8/6
f 1261/8/6 1257/8/6 1256/8/6
f 1262/7/6 1250/7/6 1241/7/6
f 1262/8/6 1241/8/6 1161/8/6
f 1263/8/6 1258/8/6 1250/8/6
f 1263/7/6 1250/7/6 1262/7/6
f 1264/8/6 1260/8/6 1259/8/6
f 1264/7/6 1259/7/6 1258/7/6
f 1264/8/6 1261/8/6 1260/8/6
f 1265/8/6 1261/8/6 1264/8/6
f 1266/8/6 1258/8/6 1263/8/6
f 1266/8/6 1263/8/6 1262/8/6
f 1267/8/6 1258/8/6 1266/8/6
f 1268/7/6 1265/7/6 1264/7/6
f 1268/8/6 1258/8/6 1267/8/6
f 1268/7/6 1264/7/6 1258/7/6
f 1269/7/6 1265/7/6 1268/7/6
f 1270/8/6 1257/8/6 1261/8/6
f 1270/8/6 1261/8/6 1265/8/6
f 1270/8/6 1159/8/6 1257/8/6
f 1271/8/6 1159/8/6 1270/8/6
f 1272/8/6 1269/8/6 1268/8/6
f 1272/8/6 1268/8/6 1267/8/6
f 1273/7/6 1265/7/6 1269/7/6
f 1273/8/6 1269/8/6 1272/8/6
f 1274/8/6 1270/8/6 1265/8/6
f 1274/7/6 1265/7/6 1273/7/6
f 1275/7/6 1271/7/6 1270/7/6
f 1275/8/6 1270/8/6 1274/8/6
f 1275/8/6 1274/8/6 1273/8/6
f 1276/8/6 1159/8/6 1271/8/6
f 1276/7/6 1271/7/6 1275/7/6
f 1277/8/6 1272/8/6 1267/8/6
f 1278/7/6 1273/7/6 1272/7/6
f 1278/8/6 1272/8/6 1277/8/6
f 1279/7/6 1273/7/6 1278/7/6
f 1280/8/6 1275/8/6 1273/8/6
f 1280/7/6 1273/7/6 1279/7/6
f 1280/8/6 1276/8/6 1275/8/6
f 1281/8/6 1262/8/6 1161/8/6
f 1281/8/6 1266/8/6 1262/8/6
f 1282/7/6 1267/7/6 1266/7/6
f 1282/8/6 1266/8/6 1281/8/6
f 1283/8/6 1159/8/6 1276/8/6
f 1283/8/6 1276/8/6 1280/8/6
f 1283/8/6 1280/8/6 1279/8/6
f 1284/8/6 1159/8/6 1283/8/6
f 1285/7/6 1279/7/6 1278/7/6
f 1285/7/6 1278/7/6 1277/7/6
f 1286/8/6 1283/8/6 1279/8/6
f 1286/7/6 1279/7/6 1285/7/6
f 1287/8/6 1212/8/6 1158/8/6
f 1288/8/6 1160/8/6 1213/8/6
f 1289/8/6 1277/8/6 1267/8/6
f 1289/7/6 1285/7/6 1277/7/6
f 1290/8/6 1286/8/6 1285/8/6
f 1290/7/6 1285/7/6 1289/7/6
f 1291/8/6 1289/8/6 1267/8/6
f 1291/8/6 1290/8/6 1289/8/6
f 1292/8/6 1286/8/6 1290/8/6
f 1292/8/6 1290/8/6 1291/8/6
f 1293/8/6 1283/8/6 1286/8/6
f 1293/8/6 1286/8/6 1292/8/6
f 1293/7/6 1284/7/6 1283/7/6
f 1294/8/6 1159/8/6 1284/8/6
f 1294/7/6 1284/7/6 1293/7/6
f 1295/8/6 1287/8/6 1158/8/6
f 1295/8/6 1288/8/6 1287/8/6
f 1296/8/6 1160/8/6 1288/8/6
f 1296/8/6 1288/8/6 1295/8/6
f 1297/7/6 1282/7/6 1281/7/6
f 1297/8/6 1281/8/6 1161/8/6
f 1298/7/6 1267/7/6 1282/7/6
f 1298/7/6 1282/7/6 1297/7/6
f 1298/8/6 1291/8/6 1267/8/6
f 1299/8/6 1291/8/6 1298/8/6
f 1300/8/6 1291/8/6 1299/8/6
f 1301/8/6 1293/8/6 1292/8/6
f 1301/8/6 1159/8/6 1294/8/6
f 1301/8/6 1294/8/6 1293/8/6
f 1302/8/6 1159/8/6 1301/8/6
f 1303/8/6 1299/8/6 1298/8/6
f 1303/8/6 1298/8/6 1297/8/6
f 1304/8/6 1299/8/6 1303/8/6
f 1305/7/6 1300/7/6 1299/7/6
f 1305/8/6 1299/8/6 1304/8/6
f 1306/8/6 1291/8/6 1300/8/6
f 1306/7/6 1300/7/6 1305/7/6
f 1307/7/6 1292/7/6 1291/7/6
f 1307/8/6 1291/8/6 1306/8/6
f 1308/8/6 1301/8/6 1292/8/6
f 1308/7/6 1292/7/6 1307/7/6
f 1309/8/6 1303/8/6 1297/8/6
f 1310/8/6 1303/8/6 1309/8/6
f 1311/7/6 1304/7/6 1303/7/6
f 1311/8/6 1303/8/6 1310/8/6
f 1312/8/6 1305/8/6 1304/8/6
f 1312/7/6 1304/7/6 1311/7/6
f 1312/8/6 1306/8/6 1305/8/6
f 1312/8/6 1307/8/6 1306/8/6
f 1312/8/6 1308/8/6 1307/8/6
f 1313/7/6 1310/7/6 1309/7/6
f 1313/8/6 1309/8/6 1297/8/6
f 1314/8/6 1311/8/6 1310/8/6
f 1314/7/6 1310/7/6 1313/7/6
f 1314/8/6 1312/8/6 1311/8/6
f 1315/8/6 1308/8/6 1312/8/6
f 1315/8/6 1312/8/6 1314/8/6
f 1315/8/6 1301/8/6 1308/8/6
f 1316/7/6 1302/7/6 1301/7/6
f 1316/8/6 1301/8/6 1315/8/6
f 1317/7/6 1316/7/6 1315/7/6
f 1317/7/6 1302/7/6 1316/7/6
f 1318/8/6 1159/8/6 1302/8/6
f 1318/7/6 1302/7/6 1317/7/6
f 1319/8/6 1314/8/6 1313/8/6
f 1319/8/6 1315/8/6 1314/8/6
f 1320/8/6 1315/8/6 1319/8/6
f 1321/8/6 1315/8/6 1320/8/6
f 1322/8/6 1315/8/6 1321/8/6
f 1323/8/6 1321/8/6 1320/8/6
f 1323/7/6 1322/7/6 1321/7/6
f 1324/8/6 1315/8/6 1322/8/6
f 1324/7/6 1322/7/6 1323/7/6
f 1325/8/6 1323/8/6 1320/8/6
f 1325/8/6 1324/8/6 1323/8/6
f 1326/8/6 1315/8/6 1324/8/6
f 1326/8/6 1324/8/6 1325/8/6
f 1327/7/6 1317/7/6 1315/7/6
f 1327/8/6 1315/8/6 1326/8/6
f 1328/8/6 1318/8/6 1317/8/6
f 1328/7/6 1317/7/6 1327/7/6
f 1329/8/6 1159/8/6 1318/8/6
f 1329/8/6 1318/8/6 1328/8/6
f 1330/8/6 1159/8/6 1329/8/6
f 1331/8/6 1319/8/6 1313/8/6
f 1331/7/6 1320/7/6 1319/7/6
f 1332/7/6 1320/7/6 1331/7/6
f 1333/8/6 1325/8/6 1320/8/6
f 1333/7/6 1320/7/6 1332/7/6
f 1334/8/6 1325/8/6 1333/8/6
f 1335/8/6 1328/8/6 1327/8/6
f 1335/8/6 1329/8/6 1328/8/6
f 1336/7/6 1330/7/6 1329/7/6
f 1336/8/6 1329/8/6 1335/8/6
f 1337/8/6 1332/8/6 1331/8/6
f 1337/8/6 1331/8/6 1313/8/6
f 1338/7/6 1334/7/6 1333/7/6
f 1338/8/6 1332/8/6 1337/8/6
f 1338/7/6 1333/7/6 1332/7/6
f 1339/7/6 1338/7/6 1337/7/6
f 1339/7/6 1334/7/6 1338/7/6
f 1340/8/6 1325/8/6 1334/8/6
f 1340/7/6 1334/7/6 1339/7/6
f 1341/8/6 1335/8/6 1327/8/6
f 1341/7/6 1336/7/6 1335/7/6
f 1342/8/6 1159/8/6 1330/8/6
f 1342/7/6 1336/7/6 1341/7/6
f 1342/7/6 1330/7/6 1336/7/6
f 1343/7/6 1339/7/6 1337/7/6
f 1343/8/6 1337/8/6 1313/8/6
f 1344/8/6 1340/8/6 1339/8/6
f 1344/7/6 1339/7/6 1343/7/6
f 1345/8/6 1325/8/6 1340/8/6
f 1345/8/6 1340/8/6 1344/8/6
f 1346/8/6 1325/8/6 1345/8/6
f 1347/8/6 1344/8/6 1343/8/6
f 1347/8/6 1345/8/6 1344/8/6
f 1347/7/6 1346/7/6 1345/7/6
f 1348/8/6 1325/8/6 1346/8/6
f 1348/7/6 1346/7/6 1347/7/6
f 1349/8/6 1295/8/6 1158/8/6
f 1350/8/6 1160/8/6 1296/8/6
f 1351/8/6 1325/8/6 1348/8/6
f 1351/8/6 1348/8/6 1347/8/6
f 1352/8/6 1325/8/6 1351/8/6
f 1353/7/6 1326/7/6 1325/7/6
f 1353/8/6 1325/8/6 1352/8/6
f 1354/8/6 1327/8/6 1326/8/6
f 1354/7/6 1326/7/6 1353/7/6
f 1354/8/6 1341/8/6 1327/8/6
f 1354/8/6 1342/8/6 1341/8/6
f 1355/8/6 1349/8/6 1158/8/6
f 1355/8/6 1350/8/6 1349/8/6
f 1356/8/6 1160/8/6 1350/8/6
f 1356/8/6 1350/8/6 1355/8/6
f 1357/7/6 1352/7/6 1351/7/6
f 1358/8/6 1353/8/6 1352/8/6
f 1358/7/6 1352/7/6 1357/7/6
f 1358/8/6 1354/8/6 1353/8/6
f 1359/7/6 1357/7/6 1351/7/6
f 1359/8/6 1351/8/6 1347/8/6
f 1360/8/6 1358/8/6 1357/8/6
f 1360/7/6 1357/7/6 1359/7/6
f 1361/8/6 1354/8/6 1358/8/6
f 1361/8/6 1358/8/6 1360/8/6
f 1362/8/6 1354/8/6 1361/8/6
f 1363/8/6 1354/8/6 1362/8/6
f 1364/8/6 1354/8/6 1363/8/6
f 1365/8/6 1360/8/6 1359/8/6
f 1365/8/6 1361/8/6 1360/8/6
f 1366/8/6 1361/8/6 1365/8/6
f 1367/7/6 1362/7/6 1361/7/6
f 1367/8/6 1361/8/6 1366/8/6
f 1368/8/6 1363/8/6 1362/8/6
f 1368/7/6 1362/7/6 1367/7/6
f 1369/7/6 1364/7/6 1363/7/6
f 1369/8/6 1363/8/6 1368/8/6
f 1370/8/6 1354/8/6 1364/8/6
f 1370/7/6 1364/7/6 1369/7/6
f 1371/8/6 1369/8/6 1368/8/6
f 1371/8/6 1368/8/6 1367/8/6
f 1371/8/6 1370/8/6 1369/8/6
f 1371/8/6 1367/8/6 1366/8/6
f 1372/8/6 1370/8/6 1371/8/6
f 1373/8/6 1342/8/6 1354/8/6
f 1373/8/6 1370/8/6 1372/8/6
f 1373/8/6 1354/8/6 1370/8/6
f 1374/8/6 1342/8/6 1373/8/6
f 1375/8/6 1365/8/6 1359/8/6
f 1375/7/6 1366/7/6 1365/7/6
f 1376/8/6 1371/8/6 1366/8/6
f 1376/7/6 1366/7/6 1375/7/6
f 1377/8/6 1371/8/6 1376/8/6
f 1378/7/6 1372/7/6 1371/7/6
f 1378/8/6 1371/8/6 1377/8/6
f 1379/8/6 1373/8/6 1372/8/6
f 1379/7/6 1372/7/6 1378/7/6
f 1380/8/6 1373/8/6 1379/8/6
f 1381/8/6 1377/8/6 1376/8/6
f 1381/7/6 1378/7/6 1377/7/6
f 1381/7/6 1380/7/6 1379/7/6
f 1381/7/6 1379/7/6 1378/7/6
f 1381/8/6 1376/8/6 1375/8/6
f 1382/8/6 1373/8/6 1380/8/6
f 1382/7/6 1380/7/6 1381/7/6
f 1383/7/6 1374/7/6 1373/7/6
f 1383/8/6 1373/8/6 1382/8/6
f 1384/8/6 1342/8/6 1374/8/6
f 1384/7/6 1374/7/6 1383/7/6
f 1385/8/6 1383/8/6 1382/8/6
f 1385/8/6 1382/8/6 1381/8/6
f 1385/8/6 1384/8/6 1383/8/6
f 1386/8/6 1384/8/6 1385/8/6
f 1387/8/6 1384/8/6 1386/8/6
f 1388/8/6 1384/8/6 1387/8/6
f 1389/8/6 1381/8/6 1375/8/6
f 1389/8/6 1375/8/6 1359/8/6
f 1389/8/6 1359/8/6 1347/8/6
f 1389/8/6 1347/8/6 1343/8/6
f 1389/8/6 1343/8/6 1313/8/6
f 1389/8/6 1385/8/6 1381/8/6
f 1390/8/6 1385/8/6 1389/8/6
f 1391/7/6 1388/7/6 1387/7/6
f 1391/8/6 1387/8/6 1386/8/6
f 1392/8/6 1384/8/6 1388/8/6
f 1392/7/6 1388/7/6 1391/7/6
f 1393/8/6 1389/8/6 1313/8/6
f 1394/7/6 1390/7/6 1389/7/6
f 1394/8/6 1389/8/6 1393/8/6
f 1395/8/6 1385/8/6 1390/8/6
f 1395/7/6 1390/7/6 1394/7/6
f 1396/8/6 1385/8/6 1395/8/6
f 1397/7/6 1386/7/6 1385/7/6
f 1397/8/6 1385/8/6 1396/8/6
f 1398/8/6 1391/8/6 1386/8/6
f 1398/7/6 1386/7/6 1397/7/6
f 1398/8/6 1392/8/6 1391/8/6
f 1399/7/6 1396/7/6 1395/7/6
f 1399/8/6 1395/8/6 1394/8/6
f 1400/8/6 1397/8/6 1396/8/6
f 1400/7/6 1396/7/6 1399/7/6
f 1400/8/6 1398/8/6 1397/8/6
f 1401/8/6 1398/8/6 1400/8/6
f 1402/8/6 1398/8/6 1401/8/6
f 1403/7/6 1402/7/6 1401/7/6
f 1404/8/6 1398/8/6 1402/8/6
f 1404/7/6 1402/7/6 1403/7/6
f 1405/8/6 1393/8/6 1313/8/6
f 1406/7/6 1394/7/6 1393/7/6
f 1406/8/6 1393/8/6 1405/8/6
f 1407/8/6 1399/8/6 1394/8/6
f 1407/7/6 1394/7/6 1406/7/6
f 1407/8/6 1400/8/6 1399/8/6
f 1407/8/6 1401/8/6 1400/8/6
f 1408/8/6 1355/8/6 1158/8/6
f 1409/8/6 1160/8/6 1356/8/6
f 1410/8/6 1401/8/6 1407/8/6
f 1410/8/6 1407/8/6 1406/8/6
f 1411/8/6 1401/8/6 1410/8/6
f 1412/7/6 1403/7/6 1401/7/6
f 1412/8/6 1401/8/6 1411/8/6
f 1413/8/6 1404/8/6 1403/8/6
f 1413/7/6 1403/7/6 1412/7/6
f 1414/8/6 1408/8/6 1158/8/6
f 1414/8/6 1409/8/6 1408/8/6
f 1415/8/6 1160/8/6 1409/8/6
f 1415/8/6 1409/8/6 1414/8/6
f 1416/7/6 1406/7/6 1405/7/6
f 1416/8/6 1405/8/6 1313/8/6
f 1417/8/6 1410/8/6 1406/8/6
f 1417/7/6 1406/7/6 1416/7/6
f 1418/8/6 1413/8/6 1412/8/6
f 1418/8/6 1412/8/6 1411/8/6
f 1419/8/6 1413/8/6 1418/8/6
f 1420/8/6 1418/8/6 1411/8/6
f 1421/8/6 1418/8/6 1420/8/6
f 1422/8/6 1410/8/6 1417/8/6
f 1422/8/6 1417/8/6 1416/8/6
f 1423/8/6 1410/8/6 1422/8/6
f 1424/7/6 1421/7/6 1420/7/6
f 1425/8/6 1418/8/6 1421/8/6
f 1425/7/6 1421/7/6 1424/7/6
f 1426/7/6 1424/7/6 1420/7/6
f 1426/8/6 1420/8/6 1411/8/6
f 1427/8/6 1425/8/6 1424/8/6
f 1427/7/6 1424/7/6 1426/7/6
f 1428/8/6 1416/8/6 1313/8/6
f 1428/8/6 1422/8/6 1416/8/6
f 1429/7/6 1423/7/6 1422/7/6
f 1429/8/6 1422/8/6 1428/8/6
f 1430/8/6 1410/8/6 1423/8/6
f 1430/7/6 1423/7/6 1429/7/6
f 1431/8/6 1426/8/6 1411/8/6
f 1431/8/6 1427/8/6 1426/8/6
f 1432/8/6 1427/8/6 1431/8/6
f 1433/8/6 1418/8/6 1425/8/6
f 1433/8/6 1427/8/6 1432/8/6
f 1433/8/6 1425/8/6 1427/8/6
f 1433/7/6 1419/7/6 1418/7/6
f 1434/7/6 1419/7/6 1433/7/6
f 1435/7/6 1429/7/6 1428/7/6
f 1435/8/6 1430/8/6 1429/8/6
f 1436/8/6 1410/8/6 1430/8/6
f 1436/8/6 1430/8/6 1435/8/6
f 1437/7/6 1411/7/6 1410/7/6
f 1437/8/6 1410/8/6 1436/8/6
f 1438/8/6 1431/8/6 1411/8/6
f 1438/7/6 1411/7/6 1437/7/6
f 1439/7/6 1436/7/6 1435/7/6
f 1439/8/6 1428/8/6 1313/8/6
f 1439/7/6 1435/7/6 1428/7/6
f 1440/8/6 1437/8/6 1436/8/6
f 1440/7/6 1436/7/6 1439/7/6
f 1440/8/6 1438/8/6 1437/8/6
f 1441/8/6 1431/8/6 1438/8/6
f 1441/8/6 1438/8/6 1440/8/6
f 1442/7/6 1432/7/6 1431/7/6
f 1442/8/6 1431/8/6 1441/8/6
f 1443/8/6 1434/8/6 1433/8/6
f 1443/7/6 1432/7/6 1442/7/6
f 1443/8/6 1433/8/6 1432/8/6
f 1444/7/6 1419/7/6 1434/7/6
f 1444/8/6 1434/8/6 1443/8/6
f 1445/8/6 1413/8/6 1419/8/6
f 1445/7/6 1419/7/6 1444/7/6
f 1446/8/6 1441/8/6 1440/8/6
f 1446/8/6 1440/8/6 1439/8/6
f 1447/8/6 1441/8/6 1446/8/6
f 1448/8/6 1443/8/6 1442/8/6
f 1448/8/6 1445/8/6 1444/8/6
f 1448/8/6 1444/8/6 1443/8/6
f 1449/8/6 1445/8/6 1448/8/6
f 1450/8/6 1448/8/6 1442/8/6
f 1450/7/6 1449/7/6 1448/7/6
f 1451/8/6 1445/8/6 1449/8/6
f 1451/7/6 1449/7/6 1450/7/6
f 1452/8/6 1441/8/6 1447/8/6
f 1452/7/6 1442/7/6 1441/7/6
f 1453/8/6 1451/8/6 1450/8/6
f 1453/7/6 1442/7/6 1452/7/6
f 1453/8/6 1450/8/6 1442/8/6
f 1454/8/6 1439/8/6 1313/8/6
f 1454/8/6 1446/8/6 1439/8/6
f 1455/7/6 1447/7/6 1446/7/6
f 1455/8/6 1446/8/6 1454/8/6
f 1456/7/6 1447/7/6 1455/7/6
f 1457/8/6 1453/8/6 1452/8/6
f 1457/7/6 1447/7/6 1456/7/6
f 1457/8/6 1452/8/6 1447/8/6
f 1458/8/6 1453/8/6 1457/8/6
f 1459/8/6 1453/8/6 1458/8/6
f 1460/8/6 1445/8/6 1451/8/6
f 1460/8/6 1453/8/6 1459/8/6
f 1460/8/6 1451/8/6 1453/8/6
f 1461/8/6 1413/8/6 1445/8/6
f 1461/8/6 1445/8/6 1460/8/6
f 1462/8/6 1414/8/6 1158/8/6
f 1463/8/6 1160/8/6 1415/8/6
f 1464/8/6 1454/8/6 1313/8/6
f 1464/7/6 1456/7/6 1455/7/6
f 1464/7/6 1455/7/6 1454/7/6
f 1465/7/6 1456/7/6 1464/7/6
f 1466/8/6 1458/8/6 1457/8/6
f 1466/7/6 1456/7/6 1465/7/6
f 1466/8/6 1457/8/6 1456/8/6
f 1467/8/6 1458/8/6 1466/8/6
f 1468/7/6 1466/7/6 1465/7/6
f 1468/7/6 1467/7/6 1466/7/6
f 1469/7/6 1467/7/6 1468/7/6
f 1470/7/6 1459/7/6 1458/7/6
f 1470/8/6 1458/8/6 1467/8/6
f 1471/8/6 1460/8/6 1459/8/6
f 1471/7/6 1459/7/6 1470/7/6
f 1472/8/6 1470/8/6 1467/8/6
f 1472/8/6 1471/8/6 1470/8/6
f 1473/8/6 1471/8/6 1472/8/6
f 1474/8/6 1471/8/6 1473/8/6
f 1475/8/6 1460/8/6 1471/8/6
f 1475/8/6 1471/8/6 1474/8/6
f 1476/8/6 1413/8/6 1461/8/6
f 1476/7/6 1461/7/6 1460/7/6
f 1477/8/6 1404/8/6 1413/8/6
f 1477/8/6 1413/8/6 1476/8/6
f 1478/8/6 1462/8/6 1158/8/6
f 1478/8/6 1463/8/6 1462/8/6
f 1479/8/6 1160/8/6 1463/8/6
f 1479/8/6 1463/8/6 1478/8/6
f 1480/8/6 1472/8/6 1467/8/6
f 1480/7/6 1473/7/6 1472/7/6
f 1481/8/6 1474/8/6 1473/8/6
f 1481/7/6 1473/7/6 1480/7/6
f 1482/8/6 1474/8/6 1481/8/6
f 1483/7/6 1476/7/6 1460/7/6
f 1483/7/6 1477/7/6 1476/7/6
f 1483/8/6 1460/8/6 1475/8/6
f 1484/7/6 1477/7/6 1483/7/6
f 1485/7/6 1467/7/6 1469/7/6
f 1485/8/6 1469/8/6 1468/8/6
f 1486/8/6 1480/8/6 1467/8/6
f 1486/7/6 1467/7/6 1485/7/6
f 1486/8/6 1481/8/6 1480/8/6
f 1487/8/6 1481/8/6 1486/8/6
f 1488/7/6 1482/7/6 1481/7/6
f 1488/8/6 1481/8/6 1487/8/6
f 1489/8/6 1474/8/6 1482/8/6
f 1489/7/6 1482/7/6 1488/7/6
f 1490/8/6 1474/8/6 1489/8/6
f 1491/7/6 1477/7/6 1484/7/6
f 1491/8/6 1484/8/6 1483/8/6
f 1492/8/6 1404/8/6 1477/8/6
f 1492/7/6 1477/7/6 1491/7/6
f 1493/8/6 1398/8/6 1404/8/6
f 1493/8/6 1404/8/6 1492/8/6
f 1494/8/6 1465/8/6 1464/8/6
f 1494/7/6 1468/7/6 1465/7/6
f 1495/8/6 1485/8/6 1468/8/6
f 1495/7/6 1468/7/6 1494/7/6
f 1495/8/6 1487/8/6 1486/8/6
f 1495/8/6 1486/8/6 1485/8/6
f 1496/8/6 1474/8/6 1490/8/6
f 1496/7/6 1475/7/6 1474/7/6
f 1497/8/6 1491/8/6 1483/8/6
f 1497/7/6 1475/7/6 1496/7/6
f 1497/8/6 1492/8/6 1491/8/6
f 1497/8/6 1483/8/6 1475/8/6
f 1498/7/6 1493/7/6 1492/7/6
f 1498/8/6 1492/8/6 1497/8/6
f 1499/8/6 1398/8/6 1493/8/6
f 1499/7/6 1493/7/6 1498/7/6
f 1500/7/6 1488/7/6 1487/7/6
f 1500/8/6 1487/8/6 1495/8/6
f 1500/7/6 1489/7/6 1488/7/6
f 1500/7/6 1490/7/6 1489/7/6
f 1500/8/6 1495/8/6 1494/8/6
f 1501/8/6 1496/8/6 1490/8/6
f 1501/7/6 1490/7/6 1500/7/6
f 1501/8/6 1499/8/6 1498/8/6
f 1501/8/6 1498/8/6 1497/8/6
f 1501/8/6 1497/8/6 1496/8/6
f 1502/8/6 1499/8/6 1501/8/6
f 1503/8/6 1499/8/6 1502/8/6
f 1504/7/6 1503/7/6 1502/7/6
f 1504/8/6 1499/8/6 1503/8/6
f 1505/8/6 1499/8/6 1504/8/6
f 1506/8/6 1501/8/6 1500/8/6
f 1506/8/6 1502/8/6 1501/8/6
f 1506/7/6 1505/7/6 1504/7/6
f 1506/7/6 1504/7/6 1502/7/6
f 1507/8/6 1499/8/6 1505/8/6
f 1507/7/6 1505/7/6 1506/7/6
f 1508/8/6 1478/8/6 1158/8/6
f 1509/8/6 1160/8/6 1479/8/6
f 1510/8/6 1508/8/6 1158/8/6
f 1510/8/6 1509/8/6 1508/8/6
f 1511/8/6 1160/8/6 1509/8/6
f 1511/8/6 1509/8/6 1510/8/6
f 1512/8/6 1297/8/6 1161/8/6
f 1512/8/6 1313/8/6 1297/8/6
f 1512/8/6 1500/8/6 1494/8/6
f 1512/8/6 1507/8/6 1506/8/6
f 1512/8/6 1506/8/6 1500/8/6
f 1512/8/6 1494/8/6 1464/8/6
f 1512/8/6 1464/8/6 1313/8/6
f 1513/8/6 1159/8/6 1342/8/6
f 1513/8/6 1507/8/6 1512/8/6
f 1513/8/6 1398/8/6 1499/8/6
f 1513/8/6 1384/8/6 1392/8/6
f 1513/8/6 1499/8/6 1507/8/6
f 1513/8/6 1342/8/6 1384/8/6
f 1513/8/6 1392/8/6 1398/8/6
f 1516/2/6 1515/2/6 1514/2/6
f 1517/2/6 1515/2/6 1516/2/6
f 1518/2/6 1516/2/6 1514/2/6
f 1519/2/6 1515/2/6 1517/2/6
f 1520/2/6 1518/2/6 1514/2/6
f 1520/2/6 1519/2/6 1518/2/6
f 1521/2/6 1515/2/6 1519/2/6
f 1521/2/6 1519/2/6 1520/2/6
f 1524/2/6 1523/2/6 1522/2/6
f 1525/2/6 1523/2/6 1524/2/6
f 1526/2/6 1524/2/6 1522/2/6
f 1527/2/6 1523/2/6 1525/2/6
f 1528/2/6 1526/2/6 1522/2/6
f 1528/2/6 1527/2/6 1526/2/6
f 1529/2/6 1523/2/6 1527/2/6
f 1529/2/6 1527/2/6 1528/2/6
f 1532/2/6 1531/2/6 1530/2/6
f 1533/2/6 1531/2/6 1532/2/6
f 1534/2/6 1532/2/6 1530/2/6
f 1535/2/6 1531/2/6 1533/2/6
f 1536/2/6 1534/2/6 1530/2/6
f 1536/2/6 1535/2/6 1534/2/6
f 1537/2/6 1531/2/6 1535/2/6
f 1537/2/6 1535/2/6 1536/2/6
f 1540/3/6 1539/3/6 1538/3/6
f 1541/3/6 1539/3/6 1540/3/6
f 1544/3/6 1543/3/6 1542/3/6
f 1545/3/6 1543/3/6 1544/3/6
f 1548/2/6 1547/2/6 1546/2/6
f 1549/2/6 1547/2/6 1548/2/6
f 1550/2/6 1548/2/6 1546/2/6
f 1551/2/6 1547/2/6 1549/2/6
f 1552/2/6 1550/2/6 1546/2/6
f 1552/2/6 1551/2/6 1550/2/6
f 1553/2/6 1547/2/6 1551/2/6
f 1553/2/6 1551/2/6 1552/2/6
f 1556/2/6 1555/2/6 1554/2/6
f 1557/2/6 1555/2/6 1556/2/6
f 1558/2/6 1556/2/6 1554/2/6
f 1559/2/6 1555/2/6 1557/2/6
f 1560/2/6 1558/2/6 1554/2/6
f 1560/2/6 1559/2/6 1558/2/6
f 1561/2/6 1555/2/6 1559/2/6
f 1561/2/6 1559/2/6 1560/2/6
f 1564/2/6 1563/2/6 1562/2/6
f 1565/2/6 1563/2/6 1564/2/6
f 1566/2/6 1564/2/6 1562/2/6
f 1567/2/6 1563/2/6 1565/2/6
f 1568/2/6 1566/2/6 1562/2/6
f 1568/2/6 1567/2/6 1566/2/6
f 1569/2/6 1563/2/6 1567/2/6
f 1569/2/6 1567/2/6 1568/2/6
f 1572/2/6 1571/2/6 1570/2/6
f 1573/2/6 1571/2/6 1572/2/6
f 1574/2/6 1572/2/6 1570/2/6
f 1575/2/6 1571/2/6 1573/2/6
f 1576/2/6 1574/2/6 1570/2/6
f 1576/2/6 1575/2/6 1574/2/6
f 1577/2/6 1571/2/6 1575/2/6
f 1577/2/6 1575/2/6 1576/2/6
f 1580/2/6 1579/2/6 1578/2/6
f 1581/2/6 1579/2/6 1580/2/6
f 1582/2/6 1580/2/6 1578/2/6
f 1583/2/6 1579/2/6 1581/2/6
f 1584/2/6 1582/2/6 1578/2/6
f 1584/2/6 1583/2/6 1582/2/6
f 1585/2/6 1579/2/6 1583/2/6
f 1585/2/6 1583/2/6 1584/2/6
f 1588/2/6 1587/2/6 1586/2/6
f 1589/2/6 1587/2/6 1588/2/6
f 1590/2/6 1588/2/6 1586/2/6
f 1591/2/6 1587/2/6 1589/2/6
f 1592/2/6 1590/2/6 1586/2/6
f 1592/2/6 1591/2/6 1590/2/6
f 1593/2/6 1587/2/6 1591/2/6
f 1593/2/6 1591/2/6 1592/2/6
f 1596/4/6 1595/4/6 1594/4/6
f 1597/4/6 1595/4/6 1596/4/6
f 1600/4/6 1599/4/6 1598/4/6
f 1601/4/6 1599/4/6 1600/4/6
f 1602/4/6 1596/4/6 1594/4/6
f 1603/4/6 1600/4/6 1598/4/6
f 1604/4/6 1602/4/6 1594/4/6
f 1604/4/6 1603/4/6 1602/4/6
f 1605/4/6 1600/4/6 1603/4/6
f 1605/4/6 1603/4/6 1604/4/6
f 1608/4/6 1607/4/6 1606/4/6
f 1609/4/6 1607/4/6 1608/4/6
f 1610/4/6 1608/4/6 1606/4/6
f 1611/4/6 1608/4/6 1610/4/6
f 1612/4/6 1607/4/6 1609/4/6
f 1613/4/6 1607/4/6 1612/4/6
f 1616/9/6 1615/9/6 1614/9/6
f 1617/9/6 1615/9/6 1616/9/6
f 1620/9/6 1619/9/6 1618/9/6
f 1621/9/6 1619/9/6 1620/9/6
f 1624/9/6 1623/9/6 1622/9/6
f 1625/9/6 1623/9/6 1624/9/6
f 1628/9/6 1627/9/6 1626/9/6
f 1629/9/6 1627/9/6 1628/9/6
f 1632/9/6 1631/9/6 1630/9/6
f 1633/9/6 1631/9/6 1632/9/6
f 1636/9/6 1635/9/6 1634/9/6
f 1637/9/6 1635/9/6 1636/9/6
f 1640/9/6 1639/9/6 1638/9/6
f 1641/9/6 1639/9/6 1640/9/6
f 1644/9/6 1643/9/6 1642/9/6
f 1645/9/6 1643/9/6 1644/9/6
f 1648/9/6 1647/9/6 1646/9/6
f 1649/9/6 1647/9/6 1648/9/6
f 1652/4/6 1651/4/6 1650/4/6
f 1653/4/6 1651/4/6 1652/4/6
f 1656/4/6 1655/4/6 1654/4/6
f 1657/4/6 1655/4/6 1656/4/6
f 1658/4/6 1652/4/6 1650/4/6
f 1659/4/6 1656/4/6 1654/4/6
f 1660/4/6 1658/4/6 1650/4/6
f 1660/4/6 1659/4/6 1658/4/6
f 1661/4/6 1656/4/6 1659/4/6
f 1661/4/6 1659/4/6 1660/4/6
f 1664/4/6 1663/4/6 1662/4/6
f 1665/4/6 1663/4/6 1664/4/6
f 1666/4/6 1664/4/6 1662/4/6
f 1667/4/6 1664/4/6 1666/4/6
f 1668/4/6 1663/4/6 1665/4/6
f 1669/4/6 1663/4/6 1668/4/6
f 1672/4/6 1671/4/6 1670/4/6
f 1673/4/6 1671/4/6 1672/4/6
f 1676/4/6 1675/4/6 1674/4/6
f 1677/4/6 1675/4/6 1676/4/6
f 1678/4/6 1672/4/6 1670/4/6
f 1679/4/6 1676/4/6 1674/4/6
f 1680/4/6 1678/4/6 1670/4/6
f 1680/4/6 1679/4/6 1678/4/6
f 1681/4/6 1676/4/6 1679/4/6
f 1681/4/6 1679/4/6 1680/4/6
f 1684/4/6 1683/4/6 1682/4/6
f 1685/4/6 1683/4/6 1684/4/6
f 1686/4/6 1684/4/6 1682/4/6
f 1687/4/6 1684/4/6 1686/4/6
f 1688/4/6 1683/4/6 1685/4/6
f 1689/4/6 1683/4/6 1688/4/6
f 1692/4/6 1691/4/6 1690/4/6
f 1693/4/6 1691/4/6 1692/4/6
f 1696/4/6 1695/4/6 1694/4/6
f 1697/4/6 1695/4/6 1696/4/6
f 1698/4/6 1692/4/6 1690/4/6
f 1699/4/6 1696/4/6 1694/4/6
f 1700/4/6 1698/4/6 1690/4/6
f 1700/4/6 1699/4/6 1698/4/6
f 1701/4/6 1696/4/6 1699/4/6
f 1701/4/6 1699/4/6 1700/4/6
f 1704/4/6 1703/4/6 1702/4/6
f 1705/4/6 1703/4/6 1704/4/6
f 1706/4/6 1704/4/6 1702/4/6
f 1707/4/6 1704/4/6 1706/4/6
f 1708/4/6 1703/4/6 1705/4/6
f 1709/4/6 1703/4/6 1708/4/6
f 1712/4/6 1711/4/6 1710/4/6
f 1713/4/6 1711/4/6 1712/4/6
f 1716/4/6 1715/4/6 1714/4/6
f 1717/4/6 1715/4/6 1716/4/6
f 1718/4/6 1712/4/6 1710/4/6
f 1719/4/6 1716/4/6 1714/4/6
f 1720/4/6 1718/4/6 1710/4/6
f 1720/4/6 1719/4/6 1718/4/6
f 1721/4/6 1716/4/6 1719/4/6
f 1721/4/6 1719/4/6 1720/4/6
f 1724/4/6 1723/4/6 1722/4/6
f 1725/4/6 1723/4/6 1724/4/6
f 1726/4/6 1724/4/6 1722/4/6
f 1727/4/6 1724/4/6 1726/4/6
f 1728/4/6 1723/4/6 1725/4/6
f 1729/4/6 1723/4/6 1728/4/6
f 1732/4/6 1731/4/6 1730/4/6
f 1733/4/6 1731/4/6 1732/4/6
f 1734/4/6 1732/4/6 1730/4/6
f 1735/4/6 1732/4/6 1734/4/6
f 1738/4/6 1737/4/6 1736/4/6
f 1739/4/6 1737/4/6 1738/4/6
