# MagicaVoxel @ Ephtracy

# group
o 

# material
mtllib Map-14.mtl
usemtl palette

# normals
vn 1 0 0
vn -1 0 0
vn 0 0 1
vn 0 0 -1
vn 0 -1 0
vn 0 1 0

# texcoords
vt 0.00195312 0.5
vt 0.0605469 0.5
vt 0.158203 0.5
vt 0.201172 0.5
vt 0.205078 0.5
vt 0.208984 0.5

# verts
v 0 0 -25.6
v 0 0 -36
v 0 0.1 -32.3
v 0 0.1 -32.6
v 0 0.2 -25.6
v 0 0.2 -25.8
v 0 0.2 -26.6
v 0 0.2 -26.8
v 0 0.2 -28.1
v 0 0.2 -32.3
v 0 0.2 -32.6
v 0 0.2 -36
v 0 0.3 -25.8
v 0 0.3 -25.9
v 0 0.3 -26.5
v 0 0.3 -26.6
v 0 0.5 -26.8
v 0 0.5 -26.9
v 0 0.5 -28
v 0 0.5 -28.1
v 0 1.2 -25.9
v 0 1.2 -26.5
v 0 2.7 -26.7
v 0 2.7 -26.8
v 0 2.7 -28.1
v 0 2.7 -28.2
v 0 2.8 -26.8
v 0 2.8 -26.9
v 0 2.8 -28
v 0 2.8 -28.1
v 0 2.9 -26.7
v 0 2.9 -26.8
v 0 2.9 -28.1
v 0 2.9 -28.2
v 0 3 -26.8
v 0 3 -26.9
v 0 3 -28
v 0 3 -28.1
v 0 3.1 -26.9
v 0 3.1 -27
v 0 3.1 -27.9
v 0 3.1 -28
v 0 3.2 -27
v 0 3.2 -27.1
v 0 3.2 -27.8
v 0 3.2 -27.9
v 0 3.3 -27.1
v 0 3.3 -27.8
v -1.9 0.2 -25.8
v -1.9 0.2 -26.6
v -1.9 0.3 -25.8
v -1.9 0.3 -26.6
v -2 0.3 -25.9
v -2 0.3 -26.5
v -2 1.2 -25.9
v -2 1.2 -26.5
v -3.8 0.2 -25.8
v -3.8 0.2 -26.6
v -3.8 0.3 -25.8
v -3.8 0.3 -26.6
v -3.9 0.3 -25.9
v -3.9 0.3 -26.5
v -3.9 1.2 -25.9
v -3.9 1.2 -26.5
v -5.7 0.2 -25.8
v -5.7 0.2 -26.6
v -5.7 0.3 -25.8
v -5.7 0.3 -26.6
v -5.8 0.3 -25.9
v -5.8 0.3 -26.5
v -5.8 1.2 -25.9
v -5.8 1.2 -26.5
v -7.6 0.2 -25.8
v -7.6 0.2 -26.6
v -7.6 0.3 -25.8
v -7.6 0.3 -26.6
v -7.7 0.3 -25.9
v -7.7 0.3 -26.5
v -7.7 1.2 -25.9
v -7.7 1.2 -26.5
v -9.5 0.2 -25.8
v -9.5 0.2 -26.6
v -9.5 0.3 -25.8
v -9.5 0.3 -26.6
v -9.6 0.3 -25.9
v -9.6 0.3 -26.5
v -9.6 1.2 -25.9
v -9.6 1.2 -26.5
v -11.4 0.2 -25.8
v -11.4 0.2 -26.6
v -11.4 0.3 -25.8
v -11.4 0.3 -26.6
v -11.5 0.3 -25.9
v -11.5 0.3 -26.5
v -11.5 1.2 -25.9
v -11.5 1.2 -26.5
v -12 0 -24
v -12 0 -25.6
v -12 0.2 -24
v -12 0.2 -25.6
v -12.2 0.2 -24.1
v -12.2 0.2 -25.8
v -12.2 0.3 -24.1
v -12.2 0.3 -25.8
v -12.3 0.3 -24.2
v -12.3 0.3 -25.9
v -12.3 1.2 -24.2
v -12.3 1.2 -25.9
v -13.1 2.7 -24
v -13.1 2.7 -26.7
v -13.1 2.7 -26.8
v -13.1 2.7 -26.9
v -13.1 2.8 -26.8
v -13.1 2.8 -26.9
v -13.1 2.9 -24
v -13.1 2.9 -26.7
v -13.2 0.2 -24
v -13.2 0.2 -26.8
v -13.2 0.5 -24
v -13.2 0.5 -26.8
v -13.2 2.9 -24
v -13.2 2.9 -26.8
v -13.2 3 -24
v -13.2 3 -26.8
v -13.3 0.5 -24
v -13.3 0.5 -26.9
v -13.3 2.7 -26.7
v -13.3 2.7 -26.8
v -13.3 2.8 -24
v -13.3 2.8 -26.7
v -13.3 2.8 -26.8
v -13.3 2.8 -26.9
v -13.3 3 -24
v -13.3 3 -26.9
v -13.3 3.1 -24
v -13.3 3.1 -26.9
v -13.4 3.1 -24
v -13.4 3.1 -27
v -13.4 3.2 -24
v -13.4 3.2 -27
v -13.5 3.2 -24
v -13.5 3.2 -27.1
v -13.5 3.3 -24
v -13.5 3.3 -27.1
v -14.5 2.7 -24
v -14.5 2.7 -28.1
v -14.5 2.8 -24
v -14.5 2.8 -28.1
v -1.5 0.3 -25.9
v -1.5 0.3 -26.5
v -1.5 1.2 -25.9
v -1.5 1.2 -26.5
v -1.6 0.2 -25.8
v -1.6 0.2 -26.6
v -1.6 0.3 -25.8
v -1.6 0.3 -26.6
v -3.4 0.3 -25.9
v -3.4 0.3 -26.5
v -3.4 1.2 -25.9
v -3.4 1.2 -26.5
v -3.5 0.2 -25.8
v -3.5 0.2 -26.6
v -3.5 0.3 -25.8
v -3.5 0.3 -26.6
v -5.3 0.3 -25.9
v -5.3 0.3 -26.5
v -5.3 1.2 -25.9
v -5.3 1.2 -26.5
v -5.4 0.2 -25.8
v -5.4 0.2 -26.6
v -5.4 0.3 -25.8
v -5.4 0.3 -26.6
v -7.2 0.3 -25.9
v -7.2 0.3 -26.5
v -7.2 1.2 -25.9
v -7.2 1.2 -26.5
v -7.3 0.2 -25.8
v -7.3 0.2 -26.6
v -7.3 0.3 -25.8
v -7.3 0.3 -26.6
v -9.1 0.3 -25.9
v -9.1 0.3 -26.5
v -9.1 1.2 -25.9
v -9.1 1.2 -26.5
v -9.2 0.2 -25.8
v -9.2 0.2 -26.6
v -9.2 0.3 -25.8
v -9.2 0.3 -26.6
v -11 0.3 -25.9
v -11 0.3 -26.5
v -11 1.2 -25.9
v -11 1.2 -26.5
v -11.1 0.2 -25.8
v -11.1 0.2 -26.6
v -11.1 0.3 -25.8
v -11.1 0.3 -26.6
v -12.9 0.3 -24.2
v -12.9 0.3 -26.5
v -12.9 1.2 -24.2
v -12.9 1.2 -26.5
v -13 0.2 -24.1
v -13 0.2 -26.6
v -13 0.3 -24.1
v -13 0.3 -26.6
v -13.2 2.7 -24
v -13.2 2.7 -26.7
v -13.2 2.7 -26.8
v -13.2 2.7 -26.9
v -13.2 2.8 -24
v -13.2 2.8 -26.7
v -13.2 2.8 -26.8
v -13.2 2.8 -26.9
v -14.2 3.2 -24
v -14.2 3.2 -27.8
v -14.2 3.3 -24
v -14.2 3.3 -27.8
v -14.3 3.1 -24
v -14.3 3.1 -27.9
v -14.3 3.2 -24
v -14.3 3.2 -27.9
v -14.4 0.5 -24
v -14.4 0.5 -28
v -14.4 2.8 -24
v -14.4 2.8 -28
v -14.4 3 -24
v -14.4 3 -28
v -14.4 3.1 -24
v -14.4 3.1 -28
v -14.5 0.2 -24
v -14.5 0.2 -28.1
v -14.5 0.5 -24
v -14.5 0.5 -28.1
v -14.5 2.9 -24
v -14.5 2.9 -28.1
v -14.5 3 -24
v -14.5 3 -28.1
v -14.6 2.7 -24
v -14.6 2.7 -28.2
v -14.6 2.9 -24
v -14.6 2.9 -28.2
v -24 0 -24
v -24 0 -36
v -24 0.2 -24
v -24 0.2 -36
v -12 0 -24
v -12 0.2 -24
v -13.1 2.7 -24
v -13.1 2.9 -24
v -13.2 0.2 -24
v -13.2 0.5 -24
v -13.2 2.7 -24
v -13.2 2.8 -24
v -13.2 2.9 -24
v -13.2 3 -24
v -13.3 0.5 -24
v -13.3 2.8 -24
v -13.3 3 -24
v -13.3 3.1 -24
v -13.4 3.1 -24
v -13.4 3.2 -24
v -13.5 3.2 -24
v -13.5 3.3 -24
v -14.2 3.2 -24
v -14.2 3.3 -24
v -14.3 3.1 -24
v -14.3 3.2 -24
v -14.4 0.5 -24
v -14.4 2.8 -24
v -14.4 3 -24
v -14.4 3.1 -24
v -14.5 0.2 -24
v -14.5 0.5 -24
v -14.5 2.7 -24
v -14.5 2.8 -24
v -14.5 2.9 -24
v -14.5 3 -24
v -14.6 2.7 -24
v -14.6 2.9 -24
v -24 0 -24
v -24 0.2 -24
v -12.2 0.2 -24.1
v -12.2 0.3 -24.1
v -13 0.2 -24.1
v -13 0.3 -24.1
v -12.3 0.3 -24.2
v -12.3 1.2 -24.2
v -12.9 0.3 -24.2
v -12.9 1.2 -24.2
v 0 0 -25.6
v 0 0.2 -25.6
v -12 0 -25.6
v -12 0.2 -25.6
v 0 0.2 -25.8
v 0 0.3 -25.8
v -1.6 0.2 -25.8
v -1.6 0.3 -25.8
v -1.9 0.2 -25.8
v -1.9 0.3 -25.8
v -3.5 0.2 -25.8
v -3.5 0.3 -25.8
v -3.8 0.2 -25.8
v -3.8 0.3 -25.8
v -5.4 0.2 -25.8
v -5.4 0.3 -25.8
v -5.7 0.2 -25.8
v -5.7 0.3 -25.8
v -7.3 0.2 -25.8
v -7.3 0.3 -25.8
v -7.6 0.2 -25.8
v -7.6 0.3 -25.8
v -9.2 0.2 -25.8
v -9.2 0.3 -25.8
v -9.5 0.2 -25.8
v -9.5 0.3 -25.8
v -11.1 0.2 -25.8
v -11.1 0.3 -25.8
v -11.4 0.2 -25.8
v -11.4 0.3 -25.8
v -12.2 0.2 -25.8
v -12.2 0.3 -25.8
v 0 0.3 -25.9
v 0 1.2 -25.9
v -1.5 0.3 -25.9
v -1.5 1.2 -25.9
v -2 0.3 -25.9
v -2 1.2 -25.9
v -3.4 0.3 -25.9
v -3.4 1.2 -25.9
v -3.9 0.3 -25.9
v -3.9 1.2 -25.9
v -5.3 0.3 -25.9
v -5.3 1.2 -25.9
v -5.8 0.3 -25.9
v -5.8 1.2 -25.9
v -7.2 0.3 -25.9
v -7.2 1.2 -25.9
v -7.7 0.3 -25.9
v -7.7 1.2 -25.9
v -9.1 0.3 -25.9
v -9.1 1.2 -25.9
v -9.6 0.3 -25.9
v -9.6 1.2 -25.9
v -11 0.3 -25.9
v -11 1.2 -25.9
v -11.5 0.3 -25.9
v -11.5 1.2 -25.9
v -12.3 0.3 -25.9
v -12.3 1.2 -25.9
v 0 2.7 -26.7
v 0 2.9 -26.7
v -13.1 2.7 -26.7
v -13.1 2.9 -26.7
v -13.2 2.7 -26.7
v -13.2 2.8 -26.7
v -13.3 2.7 -26.7
v -13.3 2.8 -26.7
v 0 0.2 -26.8
v 0 0.5 -26.8
v 0 2.9 -26.8
v 0 3 -26.8
v -13.2 0.2 -26.8
v -13.2 0.5 -26.8
v -13.2 2.9 -26.8
v -13.2 3 -26.8
v 0 0.5 -26.9
v 0 2.8 -26.9
v 0 3 -26.9
v 0 3.1 -26.9
v -13.1 2.7 -26.9
v -13.1 2.8 -26.9
v -13.2 2.7 -26.9
v -13.2 2.8 -26.9
v -13.3 0.5 -26.9
v -13.3 2.8 -26.9
v -13.3 3 -26.9
v -13.3 3.1 -26.9
v 0 3.1 -27
v 0 3.2 -27
v -13.4 3.1 -27
v -13.4 3.2 -27
v 0 3.2 -27.1
v 0 3.3 -27.1
v -13.5 3.2 -27.1
v -13.5 3.3 -27.1
v 0 2.7 -28.1
v 0 2.8 -28.1
v -14.5 2.7 -28.1
v -14.5 2.8 -28.1
v 0 0.3 -26.5
v 0 1.2 -26.5
v -1.5 0.3 -26.5
v -1.5 1.2 -26.5
v -2 0.3 -26.5
v -2 1.2 -26.5
v -3.4 0.3 -26.5
v -3.4 1.2 -26.5
v -3.9 0.3 -26.5
v -3.9 1.2 -26.5
v -5.3 0.3 -26.5
v -5.3 1.2 -26.5
v -5.8 0.3 -26.5
v -5.8 1.2 -26.5
v -7.2 0.3 -26.5
v -7.2 1.2 -26.5
v -7.7 0.3 -26.5
v -7.7 1.2 -26.5
v -9.1 0.3 -26.5
v -9.1 1.2 -26.5
v -9.6 0.3 -26.5
v -9.6 1.2 -26.5
v -11 0.3 -26.5
v -11 1.2 -26.5
v -11.5 0.3 -26.5
v -11.5 1.2 -26.5
v -12.9 0.3 -26.5
v -12.9 1.2 -26.5
v 0 0.2 -26.6
v 0 0.3 -26.6
v -1.6 0.2 -26.6
v -1.6 0.3 -26.6
v -1.9 0.2 -26.6
v -1.9 0.3 -26.6
v -3.5 0.2 -26.6
v -3.5 0.3 -26.6
v -3.8 0.2 -26.6
v -3.8 0.3 -26.6
v -5.4 0.2 -26.6
v -5.4 0.3 -26.6
v -5.7 0.2 -26.6
v -5.7 0.3 -26.6
v -7.3 0.2 -26.6
v -7.3 0.3 -26.6
v -7.6 0.2 -26.6
v -7.6 0.3 -26.6
v -9.2 0.2 -26.6
v -9.2 0.3 -26.6
v -9.5 0.2 -26.6
v -9.5 0.3 -26.6
v -11.1 0.2 -26.6
v -11.1 0.3 -26.6
v -11.4 0.2 -26.6
v -11.4 0.3 -26.6
v -13 0.2 -26.6
v -13 0.3 -26.6
v 0 2.7 -26.8
v 0 2.8 -26.8
v -13.1 2.7 -26.8
v -13.1 2.8 -26.8
v -13.2 2.7 -26.8
v -13.2 2.8 -26.8
v -13.3 2.7 -26.8
v -13.3 2.8 -26.8
v 0 3.2 -27.8
v 0 3.3 -27.8
v -14.2 3.2 -27.8
v -14.2 3.3 -27.8
v 0 3.1 -27.9
v 0 3.2 -27.9
v -14.3 3.1 -27.9
v -14.3 3.2 -27.9
v 0 0.5 -28
v 0 2.8 -28
v 0 3 -28
v 0 3.1 -28
v -5.2 0.9 -28
v -5.2 1 -28
v -5.3 0.9 -28
v -5.3 1 -28
v -14.4 0.5 -28
v -14.4 2.8 -28
v -14.4 3 -28
v -14.4 3.1 -28
v 0 0.2 -28.1
v 0 0.5 -28.1
v 0 2.9 -28.1
v 0 3 -28.1
v -14.5 0.2 -28.1
v -14.5 0.5 -28.1
v -14.5 2.9 -28.1
v -14.5 3 -28.1
v 0 2.7 -28.2
v 0 2.9 -28.2
v -14.6 2.7 -28.2
v -14.6 2.9 -28.2
v 0 0 -36
v 0 0.2 -36
v -24 0 -36
v -24 0.2 -36
v -12 0 -24
v -24 0 -24
v 0 0 -25.6
v -12 0 -25.6
v 0 0 -36
v -24 0 -36
v -13.1 2.7 -24
v -13.2 2.7 -24
v -14.5 2.7 -24
v -14.6 2.7 -24
v 0 2.7 -26.7
v -13.1 2.7 -26.7
v -13.2 2.7 -26.7
v -13.3 2.7 -26.7
v 0 2.7 -26.8
v -13.1 2.7 -26.8
v -13.2 2.7 -26.8
v -13.3 2.7 -26.8
v -13.1 2.7 -26.9
v -13.2 2.7 -26.9
v 0 2.7 -28.1
v -14.5 2.7 -28.1
v 0 2.7 -28.2
v -14.6 2.7 -28.2
v -13.2 2.8 -24
v -13.3 2.8 -24
v -14.4 2.8 -24
v -14.5 2.8 -24
v -13.2 2.8 -26.7
v -13.3 2.8 -26.7
v 0 2.8 -26.8
v -13.1 2.8 -26.8
v -13.2 2.8 -26.8
v -13.3 2.8 -26.8
v 0 2.8 -26.9
v -13.1 2.8 -26.9
v -13.2 2.8 -26.9
v -13.3 2.8 -26.9
v 0 2.8 -28
v -14.4 2.8 -28
v 0 2.8 -28.1
v -14.5 2.8 -28.1
v -12 0.2 -24
v -13.2 0.2 -24
v -14.5 0.2 -24
v -24 0.2 -24
v -12.2 0.2 -24.1
v -13 0.2 -24.1
v -17 0.2 -24.1
v -17.1 0.2 -24.1
v -17 0.2 -24.2
v -17.1 0.2 -24.2
v -17.3 0.2 -24.5
v -17.4 0.2 -24.5
v -18 0.2 -24.5
v -18.4 0.2 -24.5
v -18.5 0.2 -24.5
v -18.8 0.2 -24.5
v -17.3 0.2 -24.6
v -17.4 0.2 -24.6
v -18 0.2 -24.6
v -18.4 0.2 -24.6
v -20 0.2 -24.6
v -20.1 0.2 -24.6
v -22.5 0.2 -24.6
v -22.6 0.2 -24.6
v -18.5 0.2 -24.7
v -18.8 0.2 -24.7
v -22.5 0.2 -24.7
v -22.6 0.2 -24.7
v -20 0.2 -24.8
v -20.1 0.2 -24.8
v -19.1 0.2 -25
v -19.2 0.2 -25
v -16.6 0.2 -25.1
v -16.7 0.2 -25.1
v -19.1 0.2 -25.1
v -19.2 0.2 -25.1
v -16.6 0.2 -25.2
v -16.7 0.2 -25.2
v -15.2 0.2 -25.3
v -15.3 0.2 -25.3
v -17.4 0.2 -25.3
v -17.5 0.2 -25.3
v -15.2 0.2 -25.4
v -15.3 0.2 -25.4
v -15.9 0.2 -25.4
v -16 0.2 -25.4
v -17.4 0.2 -25.4
v -17.5 0.2 -25.4
v -15.9 0.2 -25.5
v -16 0.2 -25.5
v 0 0.2 -25.6
v -12 0.2 -25.6
v 0 0.2 -25.8
v -1.6 0.2 -25.8
v -1.9 0.2 -25.8
v -3.5 0.2 -25.8
v -3.8 0.2 -25.8
v -5.4 0.2 -25.8
v -5.7 0.2 -25.8
v -7.3 0.2 -25.8
v -7.6 0.2 -25.8
v -9.2 0.2 -25.8
v -9.5 0.2 -25.8
v -11.1 0.2 -25.8
v -11.4 0.2 -25.8
v -12.2 0.2 -25.8
v -17.2 0.2 -25.8
v -17.3 0.2 -25.8
v -16.1 0.2 -25.9
v -16.2 0.2 -25.9
v -17.2 0.2 -25.9
v -17.3 0.2 -25.9
v -16.1 0.2 -26
v -16.2 0.2 -26
v -18.6 0.2 -26
v -18.7 0.2 -26
v -17.1 0.2 -26.1
v -17.2 0.2 -26.1
v -18.6 0.2 -26.1
v -18.7 0.2 -26.1
v -21.1 0.2 -26.1
v -21.2 0.2 -26.1
v -22.4 0.2 -26.1
v -22.5 0.2 -26.1
v -17.1 0.2 -26.2
v -17.2 0.2 -26.2
v -20.3 0.2 -26.2
v -20.4 0.2 -26.2
v -21.1 0.2 -26.2
v -21.2 0.2 -26.2
v -21.9 0.2 -26.2
v -22 0.2 -26.2
v -22.4 0.2 -26.2
v -22.5 0.2 -26.2
v -15 0.2 -26.3
v -15.1 0.2 -26.3
v -20.3 0.2 -26.3
v -20.4 0.2 -26.3
v -21.1 0.2 -26.3
v -21.2 0.2 -26.3
v -21.9 0.2 -26.3
v -22 0.2 -26.3
v -15 0.2 -26.4
v -15.1 0.2 -26.4
v -21.1 0.2 -26.4
v -21.2 0.2 -26.4
v -15.6 0.2 -26.5
v -15.7 0.2 -26.5
v -20.2 0.2 -26.5
v -20.3 0.2 -26.5
v 0 0.2 -26.6
v -1.6 0.2 -26.6
v -1.9 0.2 -26.6
v -3.5 0.2 -26.6
v -3.8 0.2 -26.6
v -5.4 0.2 -26.6
v -5.7 0.2 -26.6
v -7.3 0.2 -26.6
v -7.6 0.2 -26.6
v -9.2 0.2 -26.6
v -9.5 0.2 -26.6
v -11.1 0.2 -26.6
v -11.4 0.2 -26.6
v -13 0.2 -26.6
v -15.6 0.2 -26.6
v -15.7 0.2 -26.6
v -20.2 0.2 -26.7
v -20.3 0.2 -26.7
v -21.7 0.2 -26.7
v -21.8 0.2 -26.7
v -22.8 0.2 -26.7
v -22.9 0.2 -26.7
v 0 0.2 -26.8
v -13.2 0.2 -26.8
v -15.9 0.2 -26.8
v -16 0.2 -26.8
v -21.7 0.2 -26.8
v -21.8 0.2 -26.8
v -22.8 0.2 -26.8
v -22.9 0.2 -26.8
v -15.9 0.2 -26.9
v -16 0.2 -26.9
v -18.4 0.2 -27
v -18.5 0.2 -27
v -18.4 0.2 -27.1
v -18.5 0.2 -27.1
v -21.2 0.2 -27.3
v -21.3 0.2 -27.3
v -21.2 0.2 -27.4
v -21.3 0.2 -27.4
v -15.6 0.2 -27.5
v -15.7 0.2 -27.5
v -15.6 0.2 -27.6
v -15.7 0.2 -27.6
v -15.3 0.2 -27.7
v -15.4 0.2 -27.7
v -15.3 0.2 -27.8
v -15.4 0.2 -27.8
v -15.6 0.2 -27.8
v -15.7 0.2 -27.8
v -16.1 0.2 -27.8
v -16.4 0.2 -27.8
v -16.9 0.2 -27.8
v -17 0.2 -27.8
v -20.2 0.2 -27.8
v -20.3 0.2 -27.8
v -22.6 0.2 -27.8
v -22.7 0.2 -27.8
v -15.6 0.2 -27.9
v -15.7 0.2 -27.9
v -16.1 0.2 -27.9
v -16.4 0.2 -27.9
v -16.9 0.2 -27.9
v -17 0.2 -27.9
v -17.4 0.2 -27.9
v -17.5 0.2 -27.9
v -20.2 0.2 -27.9
v -20.3 0.2 -27.9
v -22.6 0.2 -27.9
v -22.7 0.2 -27.9
v -17.4 0.2 -28
v -17.5 0.2 -28
v 0 0.2 -28.1
v -14.5 0.2 -28.1
v -15 0.2 -28.1
v -15.1 0.2 -28.1
v -15 0.2 -28.2
v -15.1 0.2 -28.2
v -16.9 0.2 -28.2
v -17 0.2 -28.2
v -17.9 0.2 -28.2
v -18 0.2 -28.2
v -3.1 0.2 -28.3
v -3.2 0.2 -28.3
v -16.9 0.2 -28.3
v -17 0.2 -28.3
v -17.9 0.2 -28.3
v -18 0.2 -28.3
v -5.5 0.2 -28.4
v -5.6 0.2 -28.4
v -16.4 0.2 -28.4
v -16.5 0.2 -28.4
v -5.5 0.2 -28.5
v -5.6 0.2 -28.5
v -16.4 0.2 -28.5
v -16.5 0.2 -28.5
v -23.4 0.2 -28.5
v -23.5 0.2 -28.5
v -0.7 0.2 -28.6
v -0.8 0.2 -28.6
v -3.1 0.2 -28.6
v -3.2 0.2 -28.6
v -23.4 0.2 -28.6
v -23.5 0.2 -28.6
v -0.7 0.2 -28.7
v -0.8 0.2 -28.7
v -4.6 0.2 -28.8
v -4.7 0.2 -28.8
v -14.7 0.2 -28.8
v -14.8 0.2 -28.8
v -18.3 0.2 -28.8
v -18.4 0.2 -28.8
v -4.6 0.2 -28.9
v -4.7 0.2 -28.9
v -12.4 0.2 -28.9
v -12.5 0.2 -28.9
v -14.7 0.2 -28.9
v -14.8 0.2 -28.9
v -18.3 0.2 -28.9
v -18.4 0.2 -28.9
v -9 0.2 -29
v -9.1 0.2 -29
v -12.4 0.2 -29
v -12.5 0.2 -29
v -20.1 0.2 -29
v -20.2 0.2 -29
v -9 0.2 -29.1
v -9.1 0.2 -29.1
v -20.1 0.2 -29.1
v -20.2 0.2 -29.1
v -10.1 0.2 -29.2
v -10.2 0.2 -29.2
v -13.8 0.2 -29.2
v -14 0.2 -29.2
v -1.7 0.2 -29.3
v -1.8 0.2 -29.3
v -10.1 0.2 -29.3
v -10.2 0.2 -29.3
v -11.1 0.2 -29.3
v -11.2 0.2 -29.3
v -22.5 0.2 -29.3
v -22.6 0.2 -29.3
v -1.7 0.2 -29.4
v -1.8 0.2 -29.4
v -2 0.2 -29.4
v -2.1 0.2 -29.4
v -7.3 0.2 -29.4
v -7.4 0.2 -29.4
v -11.1 0.2 -29.4
v -11.2 0.2 -29.4
v -15.3 0.2 -29.4
v -15.4 0.2 -29.4
v -22.5 0.2 -29.4
v -22.6 0.2 -29.4
v -2 0.2 -29.5
v -2.1 0.2 -29.5
v -6 0.2 -29.5
v -6.1 0.2 -29.5
v -7.2 0.2 -29.5
v -7.3 0.2 -29.5
v -17.2 0.2 -29.5
v -17.3 0.2 -29.5
v -19.9 0.2 -29.5
v -20 0.2 -29.5
v -6 0.2 -29.6
v -6.1 0.2 -29.6
v -7.2 0.2 -29.6
v -7.4 0.2 -29.6
v -11.5 0.2 -29.6
v -11.6 0.2 -29.6
v -13.8 0.2 -29.6
v -14 0.2 -29.6
v -15.3 0.2 -29.6
v -15.4 0.2 -29.6
v -17.2 0.2 -29.6
v -17.3 0.2 -29.6
v -19.9 0.2 -29.6
v -20 0.2 -29.6
v -3.3 0.2 -29.7
v -3.4 0.2 -29.7
v -11.5 0.2 -29.7
v -11.6 0.2 -29.7
v -19.7 0.2 -29.7
v -19.8 0.2 -29.7
v -3.3 0.2 -29.8
v -3.4 0.2 -29.8
v -9.7 0.2 -29.8
v -9.8 0.2 -29.8
v -11.6 0.2 -29.8
v -11.7 0.2 -29.8
v -16.3 0.2 -29.8
v -16.4 0.2 -29.8
v -19.7 0.2 -29.8
v -19.8 0.2 -29.8
v -3.8 0.2 -29.9
v -3.9 0.2 -29.9
v -9.7 0.2 -29.9
v -9.8 0.2 -29.9
v -10.7 0.2 -29.9
v -10.8 0.2 -29.9
v -11.6 0.2 -29.9
v -11.7 0.2 -29.9
v -16.3 0.2 -29.9
v -16.4 0.2 -29.9
v -3.8 0.2 -30
v -3.9 0.2 -30
v -4.3 0.2 -30
v -4.4 0.2 -30
v -10.7 0.2 -30
v -10.8 0.2 -30
v -3.8 0.2 -30.1
v -3.9 0.2 -30.1
v -13.4 0.2 -30.1
v -13.5 0.2 -30.1
v -14.7 0.2 -30.1
v -14.8 0.2 -30.1
v -15 0.2 -30.1
v -15.1 0.2 -30.1
v -3.8 0.2 -30.2
v -3.9 0.2 -30.2
v -4.3 0.2 -30.2
v -4.4 0.2 -30.2
v -5.6 0.2 -30.2
v -5.7 0.2 -30.2
v -13.4 0.2 -30.2
v -13.5 0.2 -30.2
v -14.7 0.2 -30.2
v -14.8 0.2 -30.2
v -15 0.2 -30.2
v -15.1 0.2 -30.2
v -1.8 0.2 -30.3
v -1.9 0.2 -30.3
v -5.6 0.2 -30.3
v -5.7 0.2 -30.3
v -1.2 0.2 -30.4
v -1.4 0.2 -30.4
v -1.8 0.2 -30.4
v -1.9 0.2 -30.4
v -6.5 0.2 -30.4
v -6.7 0.2 -30.4
v -8.4 0.2 -30.4
v -8.5 0.2 -30.4
v -10.8 0.2 -30.4
v -10.9 0.2 -30.4
v -16.6 0.2 -30.4
v -16.7 0.2 -30.4
v -1.3 0.2 -30.5
v -1.4 0.2 -30.5
v -6.5 0.2 -30.5
v -6.7 0.2 -30.5
v -7.8 0.2 -30.5
v -7.9 0.2 -30.5
v -8.4 0.2 -30.5
v -8.5 0.2 -30.5
v -10.8 0.2 -30.5
v -10.9 0.2 -30.5
v -12.4 0.2 -30.5
v -12.5 0.2 -30.5
v -16.7 0.2 -30.5
v -17 0.2 -30.5
v -17.9 0.2 -30.5
v -18 0.2 -30.5
v -18.7 0.2 -30.5
v -18.8 0.2 -30.5
v -21 0.2 -30.5
v -21.1 0.2 -30.5
v -1.2 0.2 -30.6
v -1.3 0.2 -30.6
v -12.4 0.2 -30.6
v -12.5 0.2 -30.6
v -16.6 0.2 -30.6
v -17 0.2 -30.6
v -17.9 0.2 -30.6
v -18 0.2 -30.6
v -18.7 0.2 -30.6
v -18.8 0.2 -30.6
v -21 0.2 -30.6
v -21.1 0.2 -30.6
v -6.5 0.2 -30.7
v -6.6 0.2 -30.7
v -7.8 0.2 -30.7
v -7.9 0.2 -30.7
v -8.1 0.2 -30.7
v -6.5 0.2 -30.8
v -6.6 0.2 -30.8
v -12.1 0.2 -30.8
v -12.2 0.2 -30.8
v -2.3 0.2 -30.9
v -2.4 0.2 -30.9
v -7.9 0.2 -30.9
v -8.1 0.2 -30.9
v -12.1 0.2 -30.9
v -12.2 0.2 -30.9
v -15.6 0.2 -30.9
v -15.7 0.2 -30.9
v -22.4 0.2 -30.9
v -22.5 0.2 -30.9
v -2.3 0.2 -31
v -2.4 0.2 -31
v -3.3 0.2 -31
v -3.4 0.2 -31
v -13 0.2 -31
v -13.1 0.2 -31
v -15.6 0.2 -31
v -15.7 0.2 -31
v -22.4 0.2 -31
v -22.5 0.2 -31
v -3.3 0.2 -31.1
v -3.4 0.2 -31.1
v -13 0.2 -31.1
v -13.1 0.2 -31.1
v -12.6 0.2 -31.2
v -12.7 0.2 -31.2
v -4.9 0.2 -31.3
v -5 0.2 -31.3
v -12.6 0.2 -31.3
v -12.7 0.2 -31.3
v -16.3 0.2 -31.3
v -16.4 0.2 -31.3
v -4.6 0.2 -31.4
v -4.7 0.2 -31.4
v -4.9 0.2 -31.4
v -5 0.2 -31.4
v -14.3 0.2 -31.4
v -14.5 0.2 -31.4
v -16.3 0.2 -31.4
v -16.4 0.2 -31.4
v -4.6 0.2 -31.5
v -4.7 0.2 -31.5
v -14.3 0.2 -31.5
v -14.5 0.2 -31.5
v -16.3 0.2 -31.5
v -16.4 0.2 -31.5
v -2.5 0.2 -31.6
v -2.6 0.2 -31.6
v -0.6 0.2 -31.7
v -0.7 0.2 -31.7
v -2.5 0.2 -31.7
v -2.6 0.2 -31.7
v -7.5 0.2 -31.7
v -7.6 0.2 -31.7
v -14.8 0.2 -31.7
v -14.9 0.2 -31.7
v -16.3 0.2 -31.7
v -16.4 0.2 -31.7
v -0.6 0.2 -31.8
v -0.7 0.2 -31.8
v -1.8 0.2 -31.8
v -1.9 0.2 -31.8
v -7.5 0.2 -31.8
v -7.6 0.2 -31.8
v -11.7 0.2 -31.8
v -11.8 0.2 -31.8
v -14.8 0.2 -31.8
v -14.9 0.2 -31.8
v -22.7 0.2 -31.8
v -22.8 0.2 -31.8
v -1.4 0.2 -31.9
v -1.5 0.2 -31.9
v -1.8 0.2 -31.9
v -1.9 0.2 -31.9
v -8.9 0.2 -31.9
v -9.1 0.2 -31.9
v -9.8 0.2 -31.9
v -9.9 0.2 -31.9
v -11.7 0.2 -31.9
v -11.8 0.2 -31.9
v -20.2 0.2 -31.9
v -20.3 0.2 -31.9
v -22.7 0.2 -31.9
v -22.8 0.2 -31.9
v -22.9 0.2 -31.9
v -1.4 0.2 -32
v -1.5 0.2 -32
v -2.4 0.2 -32
v -2.5 0.2 -32
v -4.6 0.2 -32
v -4.7 0.2 -32
v -8.5 0.2 -32
v -8.8 0.2 -32
v -9.8 0.2 -32
v -9.9 0.2 -32
v -15 0.2 -32
v -15.1 0.2 -32
v -20.2 0.2 -32
v -20.3 0.2 -32
v -22.8 0.2 -32
v -22.9 0.2 -32
v -23 0.2 -32
v -23.1 0.2 -32
v -2.4 0.2 -32.1
v -2.5 0.2 -32.1
v -4.6 0.2 -32.1
v -4.7 0.2 -32.1
v -7.3 0.2 -32.1
v -7.4 0.2 -32.1
v -8.9 0.2 -32.1
v -9.1 0.2 -32.1
v -11.3 0.2 -32.1
v -11.5 0.2 -32.1
v -15 0.2 -32.1
v -15.1 0.2 -32.1
v -19.3 0.2 -32.1
v -19.4 0.2 -32.1
v -23 0.2 -32.1
v -23.1 0.2 -32.1
v -3.4 0.2 -32.2
v -3.5 0.2 -32.2
v -3.7 0.2 -32.2
v -3.9 0.2 -32.2
v -7.3 0.2 -32.2
v -7.4 0.2 -32.2
v -8.5 0.2 -32.2
v -8.8 0.2 -32.2
v -15.7 0.2 -32.2
v -15.8 0.2 -32.2
v -16.1 0.2 -32.2
v -16.2 0.2 -32.2
v -18.1 0.2 -32.2
v -18.2 0.2 -32.2
v -19.3 0.2 -32.2
v -19.4 0.2 -32.2
v 0 0.2 -32.3
v -0.1 0.2 -32.3
v -1.3 0.2 -32.3
v -1.4 0.2 -32.3
v -3.4 0.2 -32.3
v -3.5 0.2 -32.3
v -3.7 0.2 -32.3
v -3.9 0.2 -32.3
v -11.3 0.2 -32.3
v -11.5 0.2 -32.3
v -15.7 0.2 -32.3
v -15.8 0.2 -32.3
v -16.1 0.2 -32.3
v -16.2 0.2 -32.3
v -18.1 0.2 -32.3
v -18.2 0.2 -32.3
v -20.7 0.2 -32.3
v -20.8 0.2 -32.3
v -20.9 0.2 -32.3
v -21 0.2 -32.3
v -1.3 0.2 -32.4
v -1.4 0.2 -32.4
v -8.5 0.2 -32.4
v -8.7 0.2 -32.4
v -11 0.2 -32.4
v -11.1 0.2 -32.4
v -19 0.2 -32.4
v -19.1 0.2 -32.4
v -20.7 0.2 -32.4
v -20.8 0.2 -32.4
v -21.7 0.2 -32.4
v -21.8 0.2 -32.4
v -7.3 0.2 -32.5
v -7.4 0.2 -32.5
v -8.5 0.2 -32.5
v -8.7 0.2 -32.5
v -9.8 0.2 -32.5
v -9.9 0.2 -32.5
v -10.8 0.2 -32.5
v -10.9 0.2 -32.5
v -11 0.2 -32.5
v -11.1 0.2 -32.5
v -13 0.2 -32.5
v -13.1 0.2 -32.5
v -14 0.2 -32.5
v -14.1 0.2 -32.5
v -18.7 0.2 -32.5
v -18.8 0.2 -32.5
v -19 0.2 -32.5
v -19.1 0.2 -32.5
v -21.7 0.2 -32.5
v -21.8 0.2 -32.5
v 0 0.2 -32.6
v -0.1 0.2 -32.6
v -2.5 0.2 -32.6
v -2.6 0.2 -32.6
v -4.2 0.2 -32.6
v -4.3 0.2 -32.6
v -6.4 0.2 -32.6
v -6.5 0.2 -32.6
v -7.3 0.2 -32.6
v -7.4 0.2 -32.6
v -9.8 0.2 -32.6
v -9.9 0.2 -32.6
v -10.8 0.2 -32.6
v -10.9 0.2 -32.6
v -11 0.2 -32.6
v -11.1 0.2 -32.6
v -14 0.2 -32.6
v -14.1 0.2 -32.6
v -15.4 0.2 -32.6
v -15.5 0.2 -32.6
v -18.7 0.2 -32.6
v -18.8 0.2 -32.6
v -20.9 0.2 -32.6
v -21 0.2 -32.6
v -2.5 0.2 -32.7
v -2.6 0.2 -32.7
v -4.2 0.2 -32.7
v -4.3 0.2 -32.7
v -6.4 0.2 -32.7
v -6.5 0.2 -32.7
v -11 0.2 -32.7
v -11.1 0.2 -32.7
v -12.1 0.2 -32.7
v -12.2 0.2 -32.7
v -15.4 0.2 -32.7
v -15.5 0.2 -32.7
v -7.3 0.2 -32.8
v -7.9 0.2 -32.8
v -12.1 0.2 -32.8
v -12.2 0.2 -32.8
v -13 0.2 -32.8
v -13.1 0.2 -32.8
v -9.1 0.2 -32.9
v -9.2 0.2 -32.9
v -13 0.2 -32.9
v -13.1 0.2 -32.9
v -15.4 0.2 -32.9
v -15.5 0.2 -32.9
v -3 0.2 -33
v -3.1 0.2 -33
v -6.4 0.2 -33
v -6.8 0.2 -33
v -9.1 0.2 -33
v -9.2 0.2 -33
v -15.4 0.2 -33
v -15.5 0.2 -33
v -3 0.2 -33.1
v -3.1 0.2 -33.1
v -6.4 0.2 -33.1
v -6.8 0.2 -33.1
v -13 0.2 -33.1
v -13.1 0.2 -33.1
v -16.8 0.2 -33.1
v -16.9 0.2 -33.1
v -3.2 0.2 -33.2
v -3.5 0.2 -33.2
v -4.6 0.2 -33.2
v -4.7 0.2 -33.2
v -7.3 0.2 -33.2
v -7.9 0.2 -33.2
v -9.5 0.2 -33.2
v -9.6 0.2 -33.2
v -13 0.2 -33.2
v -13.1 0.2 -33.2
v -14.2 0.2 -33.2
v -14.3 0.2 -33.2
v -16.8 0.2 -33.2
v -16.9 0.2 -33.2
v -17.2 0.2 -33.2
v -17.3 0.2 -33.2
v -18.7 0.2 -33.2
v -18.8 0.2 -33.2
v -4.6 0.2 -33.3
v -4.7 0.2 -33.3
v -9.5 0.2 -33.3
v -9.6 0.2 -33.3
v -14.2 0.2 -33.3
v -14.3 0.2 -33.3
v -14.7 0.2 -33.3
v -14.8 0.2 -33.3
v -17.2 0.2 -33.3
v -17.3 0.2 -33.3
v -18.7 0.2 -33.3
v -18.8 0.2 -33.3
v -5.3 0.2 -33.4
v -5.4 0.2 -33.4
v -8.5 0.2 -33.4
v -8.6 0.2 -33.4
v -13 0.2 -33.4
v -13.1 0.2 -33.4
v -14.7 0.2 -33.4
v -14.8 0.2 -33.4
v -15.7 0.2 -33.4
v -15.8 0.2 -33.4
v -3.2 0.2 -33.5
v -3.5 0.2 -33.5
v -5.3 0.2 -33.5
v -5.4 0.2 -33.5
v -8.3 0.2 -33.5
v -8.4 0.2 -33.5
v -8.5 0.2 -33.5
v -8.6 0.2 -33.5
v -12.9 0.2 -33.5
v -13 0.2 -33.5
v -15.7 0.2 -33.5
v -15.8 0.2 -33.5
v -19.9 0.2 -33.5
v -20 0.2 -33.5
v -3.2 0.2 -33.6
v -3.7 0.2 -33.6
v -4.3 0.2 -33.6
v -4.4 0.2 -33.6
v -8.3 0.2 -33.6
v -8.4 0.2 -33.6
v -10.9 0.2 -33.6
v -11 0.2 -33.6
v -12.9 0.2 -33.6
v -13 0.2 -33.6
v -19.3 0.2 -33.6
v -19.5 0.2 -33.6
v -19.9 0.2 -33.6
v -20 0.2 -33.6
v -20.1 0.2 -33.6
v -20.2 0.2 -33.6
v -4.3 0.2 -33.7
v -4.4 0.2 -33.7
v -10.9 0.2 -33.7
v -11 0.2 -33.7
v -11.5 0.2 -33.7
v -11.6 0.2 -33.7
v -20.1 0.2 -33.7
v -20.2 0.2 -33.7
v -22.6 0.2 -33.7
v -22.7 0.2 -33.7
v -23 0.2 -33.7
v -23.1 0.2 -33.7
v -3.2 0.2 -33.8
v -3.7 0.2 -33.8
v -11.5 0.2 -33.8
v -11.6 0.2 -33.8
v -19.3 0.2 -33.8
v -19.5 0.2 -33.8
v -22.6 0.2 -33.8
v -22.7 0.2 -33.8
v -23 0.2 -33.8
v -23.1 0.2 -33.8
v -4.6 0.2 -33.9
v -4.8 0.2 -33.9
v -6.9 0.2 -33.9
v -7 0.2 -33.9
v -10.1 0.2 -33.9
v -10.2 0.2 -33.9
v -14 0.2 -33.9
v -14.1 0.2 -33.9
v -17.3 0.2 -33.9
v -17.4 0.2 -33.9
v -18.8 0.2 -33.9
v -18.9 0.2 -33.9
v -4.6 0.2 -34
v -4.8 0.2 -34
v -5 0.2 -34
v -5.2 0.2 -34
v -6.9 0.2 -34
v -7 0.2 -34
v -10.1 0.2 -34
v -10.2 0.2 -34
v -12.9 0.2 -34
v -13 0.2 -34
v -14 0.2 -34
v -14.1 0.2 -34
v -16.6 0.2 -34
v -16.7 0.2 -34
v -17.3 0.2 -34
v -17.4 0.2 -34
v -18.8 0.2 -34
v -18.9 0.2 -34
v -5 0.2 -34.1
v -5.2 0.2 -34.1
v -10.1 0.2 -34.1
v -10.2 0.2 -34.1
v -11.8 0.2 -34.1
v -11.9 0.2 -34.1
v -12.9 0.2 -34.1
v -13 0.2 -34.1
v -16.6 0.2 -34.1
v -16.7 0.2 -34.1
v -17.5 0.2 -34.1
v -17.6 0.2 -34.1
v -10.1 0.2 -34.2
v -10.2 0.2 -34.2
v -11.8 0.2 -34.2
v -11.9 0.2 -34.2
v -14.8 0.2 -34.2
v -14.9 0.2 -34.2
v -17.5 0.2 -34.2
v -17.6 0.2 -34.2
v -19.6 0.2 -34.2
v -19.7 0.2 -34.2
v -20 0.2 -34.2
v -20.3 0.2 -34.2
v -14.8 0.2 -34.3
v -14.9 0.2 -34.3
v -19.6 0.2 -34.3
v -19.7 0.2 -34.3
v -1.2 0.2 -34.4
v -1.3 0.2 -34.4
v -10.3 0.2 -34.4
v -10.4 0.2 -34.4
v -10.7 0.2 -34.4
v -10.9 0.2 -34.4
v -13.5 0.2 -34.4
v -13.6 0.2 -34.4
v -20 0.2 -34.4
v -20.3 0.2 -34.4
v -1.7 0.2 -34.5
v -1.8 0.2 -34.5
v -10.3 0.2 -34.5
v -10.4 0.2 -34.5
v -10.7 0.2 -34.5
v -10.9 0.2 -34.5
v -13.5 0.2 -34.5
v -13.6 0.2 -34.5
v -14.3 0.2 -34.5
v -14.4 0.2 -34.5
v -16.2 0.2 -34.5
v -16.3 0.2 -34.5
v -22.1 0.2 -34.5
v -22.2 0.2 -34.5
v -1.2 0.2 -34.6
v -1.3 0.2 -34.6
v -1.7 0.2 -34.6
v -1.8 0.2 -34.6
v -14.3 0.2 -34.6
v -14.4 0.2 -34.6
v -16.2 0.2 -34.6
v -16.3 0.2 -34.6
v -21.4 0.2 -34.6
v -21.5 0.2 -34.6
v -22.1 0.2 -34.6
v -22.2 0.2 -34.6
v -1.3 0.2 -34.7
v -1.4 0.2 -34.7
v -12.2 0.2 -34.7
v -12.3 0.2 -34.7
v -21.4 0.2 -34.7
v -21.5 0.2 -34.7
v -1.3 0.2 -34.8
v -1.4 0.2 -34.8
v -12.2 0.2 -34.8
v -12.3 0.2 -34.8
v -15.4 0.2 -34.8
v -15.5 0.2 -34.8
v -8.1 0.2 -34.9
v -8.2 0.2 -34.9
v -8.7 0.2 -34.9
v -8.9 0.2 -34.9
v -15.4 0.2 -34.9
v -15.5 0.2 -34.9
v -8.1 0.2 -35
v -8.2 0.2 -35
v -8.7 0.2 -35
v -8.9 0.2 -35
v -10.3 0.2 -35
v -10.4 0.2 -35
v -12.7 0.2 -35
v -12.8 0.2 -35
v -16.7 0.2 -35
v -16.8 0.2 -35
v -22.9 0.2 -35
v -23 0.2 -35
v -10.3 0.2 -35.1
v -10.4 0.2 -35.1
v -12.7 0.2 -35.1
v -12.8 0.2 -35.1
v -13.4 0.2 -35.1
v -13.5 0.2 -35.1
v -16.7 0.2 -35.1
v -16.8 0.2 -35.1
v -11.6 0.2 -35.2
v -11.7 0.2 -35.2
v -13.4 0.2 -35.2
v -13.5 0.2 -35.2
v -22.9 0.2 -35.2
v -23 0.2 -35.2
v -10.9 0.2 -35.3
v -11 0.2 -35.3
v -11.6 0.2 -35.3
v -11.7 0.2 -35.3
v -18.2 0.2 -35.3
v -18.3 0.2 -35.3
v -10.9 0.2 -35.4
v -11 0.2 -35.4
v -18.2 0.2 -35.4
v -18.3 0.2 -35.4
v -20.4 0.2 -35.7
v -20.6 0.2 -35.7
v -5.1 0.2 -35.8
v -5.2 0.2 -35.8
v -20.4 0.2 -35.8
v -20.6 0.2 -35.8
v -5.1 0.2 -35.9
v -5.2 0.2 -35.9
v 0 0.2 -36
v -24 0.2 -36
v -12.2 0.3 -24.1
v -13 0.3 -24.1
v -12.3 0.3 -24.2
v -12.9 0.3 -24.2
v 0 0.3 -25.8
v -1.6 0.3 -25.8
v -1.9 0.3 -25.8
v -3.5 0.3 -25.8
v -3.8 0.3 -25.8
v -5.4 0.3 -25.8
v -5.7 0.3 -25.8
v -7.3 0.3 -25.8
v -7.6 0.3 -25.8
v -9.2 0.3 -25.8
v -9.5 0.3 -25.8
v -11.1 0.3 -25.8
v -11.4 0.3 -25.8
v -12.2 0.3 -25.8
v 0 0.3 -25.9
v -1.5 0.3 -25.9
v -2 0.3 -25.9
v -3.4 0.3 -25.9
v -3.9 0.3 -25.9
v -5.3 0.3 -25.9
v -5.8 0.3 -25.9
v -7.2 0.3 -25.9
v -7.7 0.3 -25.9
v -9.1 0.3 -25.9
v -9.6 0.3 -25.9
v -11 0.3 -25.9
v -11.5 0.3 -25.9
v -12.3 0.3 -25.9
v 0 0.3 -26.5
v -1.5 0.3 -26.5
v -2 0.3 -26.5
v -3.4 0.3 -26.5
v -3.9 0.3 -26.5
v -5.3 0.3 -26.5
v -5.8 0.3 -26.5
v -7.2 0.3 -26.5
v -7.7 0.3 -26.5
v -9.1 0.3 -26.5
v -9.6 0.3 -26.5
v -11 0.3 -26.5
v -11.5 0.3 -26.5
v -12.9 0.3 -26.5
v 0 0.3 -26.6
v -1.6 0.3 -26.6
v -1.9 0.3 -26.6
v -3.5 0.3 -26.6
v -3.8 0.3 -26.6
v -5.4 0.3 -26.6
v -5.7 0.3 -26.6
v -7.3 0.3 -26.6
v -7.6 0.3 -26.6
v -9.2 0.3 -26.6
v -9.5 0.3 -26.6
v -11.1 0.3 -26.6
v -11.4 0.3 -26.6
v -13 0.3 -26.6
v -13.2 0.5 -24
v -13.3 0.5 -24
v -14.4 0.5 -24
v -14.5 0.5 -24
v 0 0.5 -26.8
v -13.2 0.5 -26.8
v 0 0.5 -26.9
v -13.3 0.5 -26.9
v 0 0.5 -28
v -14.4 0.5 -28
v 0 0.5 -28.1
v -14.5 0.5 -28.1
v -12.3 1.2 -24.2
v -12.9 1.2 -24.2
v 0 1.2 -25.9
v -1.5 1.2 -25.9
v -2 1.2 -25.9
v -3.4 1.2 -25.9
v -3.9 1.2 -25.9
v -5.3 1.2 -25.9
v -5.8 1.2 -25.9
v -7.2 1.2 -25.9
v -7.7 1.2 -25.9
v -9.1 1.2 -25.9
v -9.6 1.2 -25.9
v -11 1.2 -25.9
v -11.5 1.2 -25.9
v -12.3 1.2 -25.9
v 0 1.2 -26.5
v -1.5 1.2 -26.5
v -2 1.2 -26.5
v -3.4 1.2 -26.5
v -3.9 1.2 -26.5
v -5.3 1.2 -26.5
v -5.8 1.2 -26.5
v -7.2 1.2 -26.5
v -7.7 1.2 -26.5
v -9.1 1.2 -26.5
v -9.6 1.2 -26.5
v -11 1.2 -26.5
v -11.5 1.2 -26.5
v -12.9 1.2 -26.5
v -13.1 2.9 -24
v -13.2 2.9 -24
v -14.5 2.9 -24
v -14.6 2.9 -24
v 0 2.9 -26.7
v -13.1 2.9 -26.7
v 0 2.9 -26.8
v -13.2 2.9 -26.8
v 0 2.9 -28.1
v -14.5 2.9 -28.1
v 0 2.9 -28.2
v -14.6 2.9 -28.2
v -13.2 3 -24
v -13.3 3 -24
v -14.4 3 -24
v -14.5 3 -24
v 0 3 -26.8
v -13.2 3 -26.8
v 0 3 -26.9
v -13.3 3 -26.9
v 0 3 -28
v -14.4 3 -28
v 0 3 -28.1
v -14.5 3 -28.1
v -13.3 3.1 -24
v -13.4 3.1 -24
v -14.3 3.1 -24
v -14.4 3.1 -24
v 0 3.1 -26.9
v -13.3 3.1 -26.9
v 0 3.1 -27
v -13.4 3.1 -27
v 0 3.1 -27.9
v -14.3 3.1 -27.9
v 0 3.1 -28
v -14.4 3.1 -28
v -13.4 3.2 -24
v -13.5 3.2 -24
v -14.2 3.2 -24
v -14.3 3.2 -24
v 0 3.2 -27
v -13.4 3.2 -27
v 0 3.2 -27.1
v -13.5 3.2 -27.1
v 0 3.2 -27.8
v -14.2 3.2 -27.8
v 0 3.2 -27.9
v -14.3 3.2 -27.9
v -13.5 3.3 -24
v -14.2 3.3 -24
v 0 3.3 -27.1
v -13.5 3.3 -27.1
v 0 3.3 -27.8
v -14.2 3.3 -27.8

# faces
f 1/5/1 2/5/1 3/5/1
f 3/5/1 2/5/1 4/5/1
f 1/5/1 3/5/1 5/5/1
f 5/5/1 3/5/1 6/5/1
f 6/5/1 3/5/1 7/5/1
f 7/5/1 3/5/1 8/5/1
f 8/5/1 3/5/1 9/5/1
f 3/6/1 4/6/1 10/6/1
f 9/5/1 3/5/1 10/5/1
f 4/5/1 2/5/1 11/5/1
f 10/6/1 4/6/1 11/6/1
f 11/5/1 2/5/1 12/5/1
f 6/2/1 7/2/1 13/2/1
f 13/2/1 7/2/1 14/2/1
f 14/2/1 7/2/1 15/2/1
f 15/2/1 7/2/1 16/2/1
f 8/3/1 9/3/1 17/3/1
f 17/3/1 9/3/1 18/3/1
f 18/3/1 9/3/1 19/3/1
f 19/3/1 9/3/1 20/3/1
f 14/4/1 15/4/1 21/4/1
f 21/4/1 15/4/1 22/4/1
f 23/3/1 24/3/1 27/3/1
f 18/1/1 19/1/1 28/1/1
f 28/1/1 19/1/1 29/1/1
f 25/3/1 26/3/1 30/3/1
f 28/3/1 29/3/1 31/3/1
f 29/3/1 30/3/1 31/3/1
f 23/3/1 27/3/1 31/3/1
f 27/3/1 28/3/1 31/3/1
f 31/3/1 30/3/1 32/3/1
f 30/3/1 26/3/1 33/3/1
f 32/3/1 30/3/1 33/3/1
f 33/3/1 26/3/1 34/3/1
f 32/3/1 33/3/1 35/3/1
f 35/3/1 33/3/1 36/3/1
f 36/3/1 33/3/1 37/3/1
f 37/3/1 33/3/1 38/3/1
f 36/3/1 37/3/1 39/3/1
f 39/3/1 37/3/1 40/3/1
f 40/3/1 37/3/1 41/3/1
f 41/3/1 37/3/1 42/3/1
f 40/3/1 41/3/1 43/3/1
f 43/3/1 41/3/1 44/3/1
f 44/3/1 41/3/1 45/3/1
f 45/3/1 41/3/1 46/3/1
f 44/3/1 45/3/1 47/3/1
f 47/3/1 45/3/1 48/3/1
f 49/2/1 50/2/1 51/2/1
f 51/2/1 50/2/1 52/2/1
f 53/4/1 54/4/1 55/4/1
f 55/4/1 54/4/1 56/4/1
f 57/2/1 58/2/1 59/2/1
f 59/2/1 58/2/1 60/2/1
f 61/4/1 62/4/1 63/4/1
f 63/4/1 62/4/1 64/4/1
f 65/2/1 66/2/1 67/2/1
f 67/2/1 66/2/1 68/2/1
f 69/4/1 70/4/1 71/4/1
f 71/4/1 70/4/1 72/4/1
f 73/2/1 74/2/1 75/2/1
f 75/2/1 74/2/1 76/2/1
f 77/4/1 78/4/1 79/4/1
f 79/4/1 78/4/1 80/4/1
f 81/2/1 82/2/1 83/2/1
f 83/2/1 82/2/1 84/2/1
f 85/4/1 86/4/1 87/4/1
f 87/4/1 86/4/1 88/4/1
f 89/2/1 90/2/1 91/2/1
f 91/2/1 90/2/1 92/2/1
f 93/4/1 94/4/1 95/4/1
f 95/4/1 94/4/1 96/4/1
f 97/5/1 98/5/1 99/5/1
f 99/5/1 98/5/1 100/5/1
f 101/2/1 102/2/1 103/2/1
f 103/2/1 102/2/1 104/2/1
f 105/4/1 106/4/1 107/4/1
f 107/4/1 106/4/1 108/4/1
f 111/3/1 112/3/1 113/3/1
f 113/3/1 112/3/1 114/3/1
f 109/3/1 110/3/1 115/3/1
f 115/3/1 110/3/1 116/3/1
f 117/3/1 118/3/1 119/3/1
f 119/3/1 118/3/1 120/3/1
f 121/3/1 122/3/1 123/3/1
f 123/3/1 122/3/1 124/3/1
f 125/1/1 126/1/1 127/1/1
f 127/1/1 126/1/1 128/1/1
f 125/1/1 127/1/1 129/1/1
f 129/1/1 127/1/1 130/1/1
f 128/1/1 126/1/1 131/1/1
f 131/1/1 126/1/1 132/1/1
f 133/3/1 134/3/1 135/3/1
f 135/3/1 134/3/1 136/3/1
f 137/3/1 138/3/1 139/3/1
f 139/3/1 138/3/1 140/3/1
f 141/3/1 142/3/1 143/3/1
f 143/3/1 142/3/1 144/3/1
f 145/3/1 146/3/1 147/3/1
f 147/3/1 146/3/1 148/3/1
f 151/4/2 150/4/2 149/4/2
f 152/4/2 150/4/2 151/4/2
f 155/2/2 154/2/2 153/2/2
f 156/2/2 154/2/2 155/2/2
f 159/4/2 158/4/2 157/4/2
f 160/4/2 158/4/2 159/4/2
f 163/2/2 162/2/2 161/2/2
f 164/2/2 162/2/2 163/2/2
f 167/4/2 166/4/2 165/4/2
f 168/4/2 166/4/2 167/4/2
f 171/2/2 170/2/2 169/2/2
f 172/2/2 170/2/2 171/2/2
f 175/4/2 174/4/2 173/4/2
f 176/4/2 174/4/2 175/4/2
f 179/2/2 178/2/2 177/2/2
f 180/2/2 178/2/2 179/2/2
f 183/4/2 182/4/2 181/4/2
f 184/4/2 182/4/2 183/4/2
f 187/2/2 186/2/2 185/2/2
f 188/2/2 186/2/2 187/2/2
f 191/4/2 190/4/2 189/4/2
f 192/4/2 190/4/2 191/4/2
f 195/2/2 194/2/2 193/2/2
f 196/2/2 194/2/2 195/2/2
f 199/4/2 198/4/2 197/4/2
f 200/4/2 198/4/2 199/4/2
f 203/2/2 202/2/2 201/2/2
f 204/2/2 202/2/2 203/2/2
f 209/3/2 206/3/2 205/3/2
f 210/3/2 206/3/2 209/3/2
f 211/3/2 208/3/2 207/3/2
f 212/3/2 208/3/2 211/3/2
f 215/3/2 214/3/2 213/3/2
f 216/3/2 214/3/2 215/3/2
f 219/3/2 218/3/2 217/3/2
f 220/3/2 218/3/2 219/3/2
f 223/1/2 222/1/2 221/1/2
f 224/1/2 222/1/2 223/1/2
f 227/3/2 226/3/2 225/3/2
f 228/3/2 226/3/2 227/3/2
f 231/3/2 230/3/2 229/3/2
f 232/3/2 230/3/2 231/3/2
f 235/3/2 234/3/2 233/3/2
f 236/3/2 234/3/2 235/3/2
f 239/3/2 238/3/2 237/3/2
f 240/3/2 238/3/2 239/3/2
f 243/5/2 242/5/2 241/5/2
f 244/5/2 242/5/2 243/5/2
f 245/5/3 246/5/3 249/5/3
f 247/3/3 248/3/3 251/3/3
f 251/3/3 248/3/3 252/3/3
f 252/3/3 248/3/3 253/3/3
f 249/3/3 250/3/3 255/3/3
f 253/3/3 254/3/3 256/3/3
f 252/3/3 253/3/3 256/3/3
f 256/3/3 254/3/3 257/3/3
f 256/3/3 257/3/3 259/3/3
f 257/3/3 258/3/3 259/3/3
f 259/3/3 260/3/3 261/3/3
f 259/3/3 261/3/3 263/3/3
f 261/3/3 262/3/3 263/3/3
f 263/3/3 262/3/3 264/3/3
f 256/3/3 259/3/3 265/3/3
f 259/3/3 263/3/3 265/3/3
f 265/3/3 263/3/3 266/3/3
f 249/3/3 255/3/3 267/3/3
f 255/1/3 256/1/3 267/1/3
f 256/3/3 265/3/3 268/3/3
f 267/1/3 256/1/3 268/1/3
f 268/3/3 265/3/3 269/3/3
f 269/3/3 265/3/3 270/3/3
f 245/5/3 249/5/3 271/5/3
f 249/3/3 267/3/3 271/3/3
f 271/3/3 267/3/3 272/3/3
f 268/3/3 269/3/3 274/3/3
f 274/3/3 269/3/3 275/3/3
f 275/3/3 269/3/3 276/3/3
f 273/3/3 274/3/3 277/3/3
f 274/3/3 275/3/3 277/3/3
f 277/3/3 275/3/3 278/3/3
f 245/5/3 271/5/3 279/5/3
f 279/5/3 271/5/3 280/5/3
f 281/2/3 282/2/3 283/2/3
f 283/2/3 282/2/3 284/2/3
f 285/4/3 286/4/3 287/4/3
f 287/4/3 286/4/3 288/4/3
f 289/5/3 290/5/3 291/5/3
f 291/5/3 290/5/3 292/5/3
f 293/2/3 294/2/3 295/2/3
f 295/2/3 294/2/3 296/2/3
f 297/2/3 298/2/3 299/2/3
f 299/2/3 298/2/3 300/2/3
f 301/2/3 302/2/3 303/2/3
f 303/2/3 302/2/3 304/2/3
f 305/2/3 306/2/3 307/2/3
f 307/2/3 306/2/3 308/2/3
f 309/2/3 310/2/3 311/2/3
f 311/2/3 310/2/3 312/2/3
f 313/2/3 314/2/3 315/2/3
f 315/2/3 314/2/3 316/2/3
f 317/2/3 318/2/3 319/2/3
f 319/2/3 318/2/3 320/2/3
f 321/4/3 322/4/3 323/4/3
f 323/4/3 322/4/3 324/4/3
f 325/4/3 326/4/3 327/4/3
f 327/4/3 326/4/3 328/4/3
f 329/4/3 330/4/3 331/4/3
f 331/4/3 330/4/3 332/4/3
f 333/4/3 334/4/3 335/4/3
f 335/4/3 334/4/3 336/4/3
f 337/4/3 338/4/3 339/4/3
f 339/4/3 338/4/3 340/4/3
f 341/4/3 342/4/3 343/4/3
f 343/4/3 342/4/3 344/4/3
f 345/4/3 346/4/3 347/4/3
f 347/4/3 346/4/3 348/4/3
f 349/3/3 350/3/3 351/3/3
f 351/3/3 350/3/3 352/3/3
f 353/3/3 354/3/3 355/3/3
f 355/3/3 354/3/3 356/3/3
f 357/3/3 358/3/3 361/3/3
f 361/3/3 358/3/3 362/3/3
f 359/3/3 360/3/3 363/3/3
f 363/3/3 360/3/3 364/3/3
f 365/1/3 366/1/3 369/1/3
f 369/1/3 366/1/3 370/1/3
f 365/1/3 369/1/3 371/1/3
f 365/1/3 371/1/3 373/1/3
f 371/1/3 372/1/3 373/1/3
f 373/1/3 372/1/3 374/1/3
f 367/3/3 368/3/3 375/3/3
f 375/3/3 368/3/3 376/3/3
f 377/3/3 378/3/3 379/3/3
f 379/3/3 378/3/3 380/3/3
f 381/3/3 382/3/3 383/3/3
f 383/3/3 382/3/3 384/3/3
f 385/3/3 386/3/3 387/3/3
f 387/3/3 386/3/3 388/3/3
f 391/4/4 390/4/4 389/4/4
f 392/4/4 390/4/4 391/4/4
f 395/4/4 394/4/4 393/4/4
f 396/4/4 394/4/4 395/4/4
f 399/4/4 398/4/4 397/4/4
f 400/4/4 398/4/4 399/4/4
f 403/4/4 402/4/4 401/4/4
f 404/4/4 402/4/4 403/4/4
f 407/4/4 406/4/4 405/4/4
f 408/4/4 406/4/4 407/4/4
f 411/4/4 410/4/4 409/4/4
f 412/4/4 410/4/4 411/4/4
f 415/4/4 414/4/4 413/4/4
f 416/4/4 414/4/4 415/4/4
f 419/2/4 418/2/4 417/2/4
f 420/2/4 418/2/4 419/2/4
f 423/2/4 422/2/4 421/2/4
f 424/2/4 422/2/4 423/2/4
f 427/2/4 426/2/4 425/2/4
f 428/2/4 426/2/4 427/2/4
f 431/2/4 430/2/4 429/2/4
f 432/2/4 430/2/4 431/2/4
f 435/2/4 434/2/4 433/2/4
f 436/2/4 434/2/4 435/2/4
f 439/2/4 438/2/4 437/2/4
f 440/2/4 438/2/4 439/2/4
f 443/2/4 442/2/4 441/2/4
f 444/2/4 442/2/4 443/2/4
f 447/3/4 446/3/4 445/3/4
f 448/3/4 446/3/4 447/3/4
f 451/3/4 450/3/4 449/3/4
f 452/3/4 450/3/4 451/3/4
f 455/3/4 454/3/4 453/3/4
f 456/3/4 454/3/4 455/3/4
f 459/3/4 458/3/4 457/3/4
f 460/3/4 458/3/4 459/3/4
f 465/1/4 462/1/4 461/1/4
f 466/1/4 462/1/4 465/1/4
f 467/1/4 465/1/4 461/1/4
f 467/6/4 466/6/4 465/6/4
f 468/1/4 462/1/4 466/1/4
f 468/6/4 466/6/4 467/6/4
f 469/1/4 467/1/4 461/1/4
f 469/1/4 468/1/4 467/1/4
f 470/1/4 462/1/4 468/1/4
f 470/1/4 468/1/4 469/1/4
f 471/3/4 464/3/4 463/3/4
f 472/3/4 464/3/4 471/3/4
f 477/3/4 474/3/4 473/3/4
f 478/3/4 474/3/4 477/3/4
f 479/3/4 476/3/4 475/3/4
f 480/3/4 476/3/4 479/3/4
f 483/3/4 482/3/4 481/3/4
f 484/3/4 482/3/4 483/3/4
f 487/5/4 486/5/4 485/5/4
f 488/5/4 486/5/4 487/5/4
f 489/5/5 490/5/5 492/5/5
f 491/5/5 492/5/5 493/5/5
f 492/5/5 490/5/5 494/5/5
f 493/5/5 492/5/5 494/5/5
f 495/3/5 496/3/5 500/3/5
f 500/3/5 496/3/5 501/3/5
f 499/3/5 500/3/5 503/3/5
f 501/3/5 502/3/5 503/3/5
f 500/3/5 501/3/5 503/3/5
f 503/3/5 502/3/5 504/3/5
f 504/3/5 502/3/5 505/3/5
f 505/3/5 502/3/5 506/3/5
f 504/3/5 505/3/5 507/3/5
f 507/3/5 505/3/5 508/3/5
f 497/3/5 498/3/5 510/3/5
f 509/3/5 510/3/5 511/3/5
f 510/3/5 498/3/5 512/3/5
f 511/3/5 510/3/5 512/3/5
f 513/3/5 514/3/5 517/3/5
f 517/3/5 514/3/5 518/3/5
f 519/3/5 520/3/5 523/3/5
f 523/3/5 520/3/5 524/3/5
f 521/3/5 522/3/5 525/3/5
f 525/3/5 522/3/5 526/3/5
f 515/3/5 516/3/5 528/3/5
f 527/3/5 528/3/5 529/3/5
f 528/3/5 516/3/5 530/3/5
f 529/3/5 528/3/5 530/3/5
f 535/5/6 532/5/6 531/5/6
f 536/5/6 532/5/6 535/5/6
f 537/5/6 534/5/6 533/5/6
f 538/5/6 534/5/6 537/5/6
f 539/5/6 537/5/6 533/5/6
f 539/6/6 538/6/6 537/6/6
f 540/5/6 534/5/6 538/5/6
f 540/6/6 538/6/6 539/6/6
f 541/5/6 540/5/6 539/5/6
f 541/5/6 534/5/6 540/5/6
f 542/5/6 534/5/6 541/5/6
f 543/5/6 534/5/6 542/5/6
f 544/5/6 534/5/6 543/5/6
f 545/5/6 534/5/6 544/5/6
f 546/5/6 534/5/6 545/5/6
f 547/5/6 541/5/6 539/5/6
f 547/6/6 542/6/6 541/6/6
f 548/5/6 543/5/6 542/5/6
f 548/6/6 542/6/6 547/6/6
f 549/6/6 544/6/6 543/6/6
f 549/5/6 543/5/6 548/5/6
f 550/5/6 545/5/6 544/5/6
f 550/6/6 544/6/6 549/6/6
f 551/5/6 534/5/6 546/5/6
f 552/5/6 534/5/6 551/5/6
f 553/5/6 534/5/6 552/5/6
f 554/5/6 534/5/6 553/5/6
f 555/5/6 545/5/6 550/5/6
f 555/6/6 546/6/6 545/6/6
f 555/5/6 548/5/6 547/5/6
f 555/5/6 549/5/6 548/5/6
f 555/5/6 550/5/6 549/5/6
f 556/5/6 551/5/6 546/5/6
f 556/6/6 546/6/6 555/6/6
f 557/6/6 554/6/6 553/6/6
f 557/5/6 553/5/6 552/5/6
f 558/5/6 534/5/6 554/5/6
f 558/6/6 554/6/6 557/6/6
f 559/5/6 551/5/6 556/5/6
f 559/5/6 556/5/6 555/5/6
f 559/6/6 552/6/6 551/6/6
f 560/5/6 557/5/6 552/5/6
f 560/6/6 552/6/6 559/6/6
f 560/5/6 558/5/6 557/5/6
f 561/5/6 559/5/6 555/5/6
f 561/5/6 560/5/6 559/5/6
f 562/5/6 560/5/6 561/5/6
f 563/5/6 539/5/6 533/5/6
f 563/5/6 547/5/6 539/5/6
f 563/5/6 555/5/6 547/5/6
f 563/5/6 561/5/6 555/5/6
f 564/5/6 561/5/6 563/5/6
f 565/6/6 562/6/6 561/6/6
f 565/5/6 561/5/6 564/5/6
f 566/5/6 560/5/6 562/5/6
f 566/6/6 562/6/6 565/6/6
f 567/6/6 564/6/6 563/6/6
f 567/5/6 563/5/6 533/5/6
f 568/5/6 565/5/6 564/5/6
f 568/6/6 564/6/6 567/6/6
f 568/5/6 566/5/6 565/5/6
f 569/5/6 567/5/6 533/5/6
f 569/5/6 568/5/6 567/5/6
f 570/5/6 568/5/6 569/5/6
f 571/5/6 566/5/6 568/5/6
f 571/5/6 568/5/6 570/5/6
f 572/5/6 566/5/6 571/5/6
f 573/6/6 570/6/6 569/6/6
f 573/5/6 569/5/6 533/5/6
f 574/5/6 571/5/6 570/5/6
f 574/6/6 570/6/6 573/6/6
f 575/5/6 571/5/6 574/5/6
f 576/5/6 571/5/6 575/5/6
f 577/6/6 572/6/6 571/6/6
f 577/5/6 571/5/6 576/5/6
f 578/5/6 566/5/6 572/5/6
f 578/6/6 572/6/6 577/6/6
f 579/6/6 576/6/6 575/6/6
f 579/5/6 574/5/6 573/5/6
f 579/5/6 575/5/6 574/5/6
f 580/5/6 577/5/6 576/5/6
f 580/6/6 576/6/6 579/6/6
f 580/5/6 578/5/6 577/5/6
f 582/5/6 535/5/6 531/5/6
f 583/5/6 582/5/6 581/5/6
f 584/5/6 582/5/6 583/5/6
f 585/5/6 582/5/6 584/5/6
f 586/5/6 582/5/6 585/5/6
f 587/5/6 582/5/6 586/5/6
f 588/5/6 582/5/6 587/5/6
f 589/5/6 582/5/6 588/5/6
f 590/5/6 582/5/6 589/5/6
f 591/5/6 582/5/6 590/5/6
f 592/5/6 582/5/6 591/5/6
f 593/5/6 582/5/6 592/5/6
f 594/5/6 582/5/6 593/5/6
f 595/5/6 582/5/6 594/5/6
f 596/5/6 535/5/6 582/5/6
f 596/5/6 582/5/6 595/5/6
f 597/5/6 578/5/6 580/5/6
f 597/5/6 580/5/6 579/5/6
f 598/5/6 578/5/6 597/5/6
f 599/5/6 597/5/6 579/5/6
f 600/5/6 597/5/6 599/5/6
f 601/6/6 598/6/6 597/6/6
f 601/5/6 597/5/6 600/5/6
f 602/5/6 578/5/6 598/5/6
f 602/6/6 598/6/6 601/6/6
f 603/6/6 600/6/6 599/6/6
f 603/5/6 599/5/6 579/5/6
f 604/5/6 601/5/6 600/5/6
f 604/6/6 600/6/6 603/6/6
f 604/5/6 602/5/6 601/5/6
f 605/5/6 566/5/6 578/5/6
f 605/5/6 602/5/6 604/5/6
f 605/5/6 578/5/6 602/5/6
f 606/5/6 566/5/6 605/5/6
f 607/5/6 604/5/6 603/5/6
f 607/5/6 605/5/6 604/5/6
f 608/5/6 605/5/6 607/5/6
f 609/6/6 606/6/6 605/6/6
f 609/5/6 605/5/6 608/5/6
f 610/5/6 566/5/6 606/5/6
f 610/6/6 606/6/6 609/6/6
f 611/5/6 558/5/6 560/5/6
f 611/5/6 566/5/6 610/5/6
f 611/5/6 560/5/6 566/5/6
f 612/5/6 558/5/6 611/5/6
f 613/5/6 558/5/6 612/5/6
f 614/5/6 558/5/6 613/5/6
f 615/5/6 607/5/6 603/5/6
f 615/6/6 608/6/6 607/6/6
f 616/5/6 610/5/6 609/5/6
f 616/6/6 608/6/6 615/6/6
f 616/5/6 609/5/6 608/5/6
f 616/5/6 611/5/6 610/5/6
f 617/5/6 611/5/6 616/5/6
f 618/5/6 611/5/6 617/5/6
f 619/6/6 612/6/6 611/6/6
f 619/5/6 611/5/6 618/5/6
f 620/5/6 613/5/6 612/5/6
f 620/6/6 612/6/6 619/6/6
f 621/5/6 613/5/6 620/5/6
f 622/5/6 613/5/6 621/5/6
f 623/6/6 614/6/6 613/6/6
f 623/5/6 613/5/6 622/5/6
f 624/5/6 558/5/6 614/5/6
f 624/6/6 614/6/6 623/6/6
f 625/5/6 603/5/6 579/5/6
f 625/5/6 579/5/6 573/5/6
f 625/5/6 615/5/6 603/5/6
f 625/5/6 573/5/6 533/5/6
f 625/5/6 616/5/6 615/5/6
f 625/5/6 617/5/6 616/5/6
f 626/5/6 617/5/6 625/5/6
f 627/6/6 618/6/6 617/6/6
f 627/5/6 617/5/6 626/5/6
f 628/5/6 621/5/6 620/5/6
f 628/6/6 618/6/6 627/6/6
f 628/5/6 619/5/6 618/5/6
f 628/5/6 620/5/6 619/5/6
f 629/5/6 621/5/6 628/5/6
f 630/5/6 621/5/6 629/5/6
f 631/6/6 622/6/6 621/6/6
f 631/5/6 621/5/6 630/5/6
f 632/5/6 624/5/6 623/5/6
f 632/6/6 622/6/6 631/6/6
f 632/5/6 623/5/6 622/5/6
f 633/5/6 625/5/6 533/5/6
f 633/6/6 626/6/6 625/6/6
f 634/5/6 627/5/6 626/5/6
f 634/6/6 626/6/6 633/6/6
f 634/5/6 629/5/6 628/5/6
f 634/5/6 628/5/6 627/5/6
f 635/6/6 630/6/6 629/6/6
f 635/5/6 629/5/6 634/5/6
f 636/5/6 631/5/6 630/5/6
f 636/6/6 630/6/6 635/6/6
f 636/5/6 632/5/6 631/5/6
f 637/5/6 635/5/6 634/5/6
f 637/5/6 634/5/6 633/5/6
f 637/5/6 636/5/6 635/5/6
f 638/5/6 636/5/6 637/5/6
f 639/5/6 636/5/6 638/5/6
f 640/5/6 636/5/6 639/5/6
f 642/5/6 585/5/6 584/5/6
f 643/5/6 585/5/6 642/5/6
f 644/5/6 587/5/6 586/5/6
f 645/5/6 587/5/6 644/5/6
f 646/5/6 589/5/6 588/5/6
f 647/5/6 589/5/6 646/5/6
f 648/5/6 591/5/6 590/5/6
f 649/5/6 591/5/6 648/5/6
f 650/5/6 593/5/6 592/5/6
f 651/5/6 593/5/6 650/5/6
f 652/5/6 595/5/6 594/5/6
f 653/5/6 595/5/6 652/5/6
f 654/5/6 532/5/6 536/5/6
f 655/5/6 637/5/6 633/5/6
f 655/6/6 638/6/6 637/6/6
f 656/5/6 639/5/6 638/5/6
f 656/6/6 638/6/6 655/6/6
f 657/6/6 640/6/6 639/6/6
f 657/5/6 639/5/6 656/5/6
f 657/5/6 656/5/6 655/5/6
f 658/5/6 636/5/6 640/5/6
f 658/6/6 640/6/6 657/6/6
f 659/5/6 632/5/6 636/5/6
f 659/5/6 636/5/6 658/5/6
f 660/5/6 632/5/6 659/5/6
f 661/5/6 558/5/6 624/5/6
f 661/5/6 632/5/6 660/5/6
f 661/5/6 534/5/6 558/5/6
f 661/5/6 624/5/6 632/5/6
f 662/5/6 534/5/6 661/5/6
f 663/5/6 653/5/6 652/5/6
f 663/5/6 647/5/6 646/5/6
f 663/5/6 652/5/6 651/5/6
f 663/5/6 643/5/6 642/5/6
f 663/5/6 645/5/6 644/5/6
f 663/5/6 650/5/6 649/5/6
f 663/5/6 651/5/6 650/5/6
f 663/5/6 648/5/6 647/5/6
f 663/5/6 649/5/6 648/5/6
f 663/5/6 646/5/6 645/5/6
f 663/5/6 654/5/6 653/5/6
f 663/5/6 644/5/6 643/5/6
f 663/5/6 642/5/6 641/5/6
f 664/5/6 532/5/6 654/5/6
f 664/5/6 654/5/6 663/5/6
f 665/5/6 658/5/6 657/5/6
f 665/5/6 659/5/6 658/5/6
f 665/5/6 657/5/6 655/5/6
f 666/5/6 659/5/6 665/5/6
f 667/6/6 660/6/6 659/6/6
f 667/5/6 659/5/6 666/5/6
f 668/5/6 661/5/6 660/5/6
f 668/6/6 660/6/6 667/6/6
f 669/6/6 662/6/6 661/6/6
f 669/5/6 661/5/6 668/5/6
f 670/5/6 534/5/6 662/5/6
f 670/6/6 662/6/6 669/6/6
f 671/6/6 666/6/6 665/6/6
f 671/5/6 665/5/6 655/5/6
f 672/5/6 669/5/6 668/5/6
f 672/6/6 666/6/6 671/6/6
f 672/5/6 670/5/6 669/5/6
f 672/5/6 668/5/6 667/5/6
f 672/5/6 667/5/6 666/5/6
f 673/5/6 672/5/6 671/5/6
f 673/5/6 670/5/6 672/5/6
f 674/5/6 670/5/6 673/5/6
f 675/5/6 673/5/6 671/5/6
f 675/6/6 674/6/6 673/6/6
f 676/5/6 670/5/6 674/5/6
f 676/6/6 674/6/6 675/6/6
f 677/5/6 676/5/6 675/5/6
f 677/5/6 670/5/6 676/5/6
f 678/5/6 670/5/6 677/5/6
f 679/5/6 677/5/6 675/5/6
f 679/6/6 678/6/6 677/6/6
f 680/5/6 670/5/6 678/5/6
f 680/6/6 678/6/6 679/6/6
f 681/5/6 671/5/6 655/5/6
f 681/5/6 655/5/6 633/5/6
f 681/5/6 680/5/6 679/5/6
f 681/5/6 679/5/6 675/5/6
f 681/5/6 675/5/6 671/5/6
f 682/5/6 680/5/6 681/5/6
f 683/5/6 681/5/6 633/5/6
f 683/6/6 682/6/6 681/6/6
f 684/5/6 680/5/6 682/5/6
f 684/6/6 682/6/6 683/6/6
f 685/5/6 683/5/6 633/5/6
f 685/5/6 684/5/6 683/5/6
f 686/5/6 684/5/6 685/5/6
f 687/5/6 685/5/6 633/5/6
f 687/6/6 686/6/6 685/6/6
f 688/5/6 684/5/6 686/5/6
f 688/6/6 686/6/6 687/6/6
f 689/5/6 684/5/6 688/5/6
f 690/5/6 680/5/6 684/5/6
f 690/5/6 684/5/6 689/5/6
f 691/5/6 680/5/6 690/5/6
f 692/5/6 680/5/6 691/5/6
f 693/5/6 680/5/6 692/5/6
f 694/5/6 680/5/6 693/5/6
f 695/5/6 680/5/6 694/5/6
f 696/5/6 680/5/6 695/5/6
f 697/5/6 670/5/6 680/5/6
f 697/5/6 680/5/6 696/5/6
f 698/5/6 670/5/6 697/5/6
f 699/5/6 689/5/6 688/5/6
f 699/5/6 688/5/6 687/5/6
f 699/6/6 690/6/6 689/6/6
f 700/5/6 691/5/6 690/5/6
f 700/6/6 690/6/6 699/6/6
f 701/6/6 692/6/6 691/6/6
f 701/5/6 691/5/6 700/5/6
f 702/5/6 693/5/6 692/5/6
f 702/6/6 692/6/6 701/6/6
f 703/6/6 694/6/6 693/6/6
f 703/5/6 693/5/6 702/5/6
f 704/5/6 695/5/6 694/5/6
f 704/6/6 694/6/6 703/6/6
f 705/5/6 695/5/6 704/5/6
f 706/5/6 695/5/6 705/5/6
f 707/6/6 696/6/6 695/6/6
f 707/5/6 695/5/6 706/5/6
f 708/5/6 697/5/6 696/5/6
f 708/6/6 696/6/6 707/6/6
f 709/6/6 698/6/6 697/6/6
f 709/5/6 697/5/6 708/5/6
f 710/5/6 670/5/6 698/5/6
f 710/6/6 698/6/6 709/6/6
f 711/6/6 706/6/6 705/6/6
f 711/5/6 700/5/6 699/5/6
f 711/5/6 701/5/6 700/5/6
f 711/5/6 705/5/6 704/5/6
f 711/5/6 704/5/6 703/5/6
f 711/5/6 703/5/6 702/5/6
f 711/5/6 702/5/6 701/5/6
f 712/5/6 709/5/6 708/5/6
f 712/6/6 706/6/6 711/6/6
f 712/5/6 708/5/6 707/5/6
f 712/5/6 710/5/6 709/5/6
f 712/5/6 707/5/6 706/5/6
f 714/5/6 633/5/6 533/5/6
f 714/5/6 711/5/6 699/5/6
f 714/5/6 712/5/6 711/5/6
f 714/5/6 699/5/6 687/5/6
f 714/5/6 687/5/6 633/5/6
f 715/5/6 712/5/6 714/5/6
f 716/5/6 712/5/6 715/5/6
f 717/5/6 714/5/6 713/5/6
f 717/5/6 715/5/6 714/5/6
f 717/6/6 716/6/6 715/6/6
f 718/5/6 712/5/6 716/5/6
f 718/6/6 716/6/6 717/6/6
f 719/5/6 712/5/6 718/5/6
f 720/5/6 712/5/6 719/5/6
f 721/5/6 710/5/6 712/5/6
f 721/5/6 712/5/6 720/5/6
f 722/5/6 710/5/6 721/5/6
f 723/5/6 717/5/6 713/5/6
f 723/5/6 718/5/6 717/5/6
f 723/5/6 719/5/6 718/5/6
f 724/5/6 719/5/6 723/5/6
f 725/6/6 720/6/6 719/6/6
f 725/5/6 719/5/6 724/5/6
f 726/5/6 721/5/6 720/5/6
f 726/6/6 720/6/6 725/6/6
f 727/6/6 722/6/6 721/6/6
f 727/5/6 721/5/6 726/5/6
f 728/5/6 710/5/6 722/5/6
f 728/6/6 722/6/6 727/6/6
f 729/5/6 727/5/6 726/5/6
f 729/5/6 726/5/6 725/5/6
f 729/5/6 728/5/6 727/5/6
f 729/5/6 725/5/6 724/5/6
f 730/5/6 728/5/6 729/5/6
f 731/5/6 728/5/6 730/5/6
f 732/5/6 728/5/6 731/5/6
f 733/5/6 729/5/6 724/5/6
f 733/6/6 730/6/6 729/6/6
f 734/5/6 731/5/6 730/5/6
f 734/6/6 730/6/6 733/6/6
f 735/6/6 732/6/6 731/6/6
f 735/5/6 731/5/6 734/5/6
f 736/5/6 728/5/6 732/5/6
f 736/6/6 732/6/6 735/6/6
f 737/5/6 670/5/6 710/5/6
f 737/5/6 728/5/6 736/5/6
f 737/5/6 534/5/6 670/5/6
f 737/5/6 710/5/6 728/5/6
f 738/5/6 534/5/6 737/5/6
f 739/5/6 723/5/6 713/5/6
f 740/5/6 723/5/6 739/5/6
f 741/6/6 724/6/6 723/6/6
f 741/5/6 723/5/6 740/5/6
f 742/5/6 736/5/6 735/5/6
f 742/6/6 724/6/6 741/6/6
f 742/5/6 733/5/6 724/5/6
f 742/5/6 734/5/6 733/5/6
f 742/5/6 735/5/6 734/5/6
f 742/5/6 737/5/6 736/5/6
f 743/6/6 738/6/6 737/6/6
f 743/5/6 737/5/6 742/5/6
f 744/5/6 534/5/6 738/5/6
f 744/6/6 738/6/6 743/6/6
f 745/5/6 739/5/6 713/5/6
f 745/6/6 740/6/6 739/6/6
f 746/5/6 741/5/6 740/5/6
f 746/6/6 740/6/6 745/6/6
f 746/5/6 744/5/6 743/5/6
f 746/5/6 743/5/6 742/5/6
f 746/5/6 742/5/6 741/5/6
f 747/5/6 746/5/6 745/5/6
f 747/5/6 744/5/6 746/5/6
f 748/5/6 744/5/6 747/5/6
f 749/5/6 744/5/6 748/5/6
f 750/5/6 744/5/6 749/5/6
f 751/5/6 744/5/6 750/5/6
f 752/5/6 744/5/6 751/5/6
f 753/5/6 747/5/6 745/5/6
f 753/6/6 748/6/6 747/6/6
f 754/5/6 749/5/6 748/5/6
f 754/6/6 748/6/6 753/6/6
f 755/5/6 749/5/6 754/5/6
f 756/5/6 749/5/6 755/5/6
f 757/6/6 750/6/6 749/6/6
f 757/5/6 749/5/6 756/5/6
f 758/5/6 751/5/6 750/5/6
f 758/6/6 750/6/6 757/6/6
f 759/6/6 752/6/6 751/6/6
f 759/5/6 751/5/6 758/5/6
f 760/5/6 744/5/6 752/5/6
f 760/6/6 752/6/6 759/6/6
f 761/5/6 754/5/6 753/5/6
f 761/5/6 755/5/6 754/5/6
f 762/5/6 755/5/6 761/5/6
f 763/6/6 756/6/6 755/6/6
f 763/5/6 755/5/6 762/5/6
f 764/5/6 759/5/6 758/5/6
f 764/6/6 756/6/6 763/6/6
f 764/5/6 758/5/6 757/5/6
f 764/5/6 757/5/6 756/5/6
f 764/5/6 760/5/6 759/5/6
f 765/5/6 744/5/6 760/5/6
f 765/5/6 760/5/6 764/5/6
f 766/5/6 744/5/6 765/5/6
f 767/5/6 761/5/6 753/5/6
f 767/6/6 762/6/6 761/6/6
f 768/5/6 763/5/6 762/5/6
f 768/6/6 762/6/6 767/6/6
f 768/5/6 764/5/6 763/5/6
f 768/5/6 765/5/6 764/5/6
f 769/6/6 766/6/6 765/6/6
f 769/5/6 765/5/6 768/5/6
f 770/5/6 744/5/6 766/5/6
f 770/6/6 766/6/6 769/6/6
f 771/5/6 769/5/6 768/5/6
f 771/5/6 768/5/6 767/5/6
f 771/5/6 770/5/6 769/5/6
f 772/5/6 770/5/6 771/5/6
f 773/5/6 770/5/6 772/5/6
f 774/5/6 770/5/6 773/5/6
f 775/5/6 767/5/6 753/5/6
f 775/5/6 753/5/6 745/5/6
f 775/5/6 771/5/6 767/5/6
f 776/5/6 771/5/6 775/5/6
f 777/6/6 772/6/6 771/6/6
f 777/5/6 771/5/6 776/5/6
f 778/5/6 773/5/6 772/5/6
f 778/6/6 772/6/6 777/6/6
f 779/5/6 773/5/6 778/5/6
f 780/5/6 773/5/6 779/5/6
f 781/5/6 770/5/6 774/5/6
f 781/5/6 744/5/6 770/5/6
f 782/5/6 744/5/6 781/5/6
f 783/6/6 776/6/6 775/6/6
f 783/5/6 775/5/6 745/5/6
f 784/5/6 777/5/6 776/5/6
f 784/6/6 776/6/6 783/6/6
f 784/5/6 778/5/6 777/5/6
f 784/5/6 779/5/6 778/5/6
f 785/5/6 779/5/6 784/5/6
f 786/5/6 779/5/6 785/5/6
f 787/5/6 779/5/6 786/5/6
f 788/5/6 779/5/6 787/5/6
f 789/6/6 780/6/6 779/6/6
f 789/5/6 779/5/6 788/5/6
f 790/5/6 773/5/6 780/5/6
f 790/6/6 780/6/6 789/6/6
f 791/5/6 781/5/6 774/5/6
f 792/5/6 781/5/6 791/5/6
f 793/6/6 782/6/6 781/6/6
f 793/5/6 781/5/6 792/5/6
f 794/5/6 744/5/6 782/5/6
f 794/6/6 782/6/6 793/6/6
f 795/5/6 784/5/6 783/5/6
f 795/5/6 785/5/6 784/5/6
f 795/6/6 786/6/6 785/6/6
f 796/5/6 787/5/6 786/5/6
f 796/6/6 786/6/6 795/6/6
f 797/5/6 787/5/6 796/5/6
f 798/5/6 787/5/6 797/5/6
f 799/5/6 787/5/6 798/5/6
f 800/6/6 788/6/6 787/6/6
f 800/5/6 787/5/6 799/5/6
f 801/5/6 793/5/6 792/5/6
f 801/5/6 794/5/6 793/5/6
f 802/5/6 794/5/6 801/5/6
f 803/5/6 794/5/6 802/5/6
f 804/5/6 794/5/6 803/5/6
f 805/5/6 796/5/6 795/5/6
f 805/5/6 797/5/6 796/5/6
f 805/6/6 798/6/6 797/6/6
f 806/5/6 799/5/6 798/5/6
f 806/6/6 798/6/6 805/6/6
f 807/6/6 800/6/6 799/6/6
f 807/5/6 799/5/6 806/5/6
f 808/5/6 789/5/6 788/5/6
f 808/6/6 800/6/6 807/6/6
f 808/6/6 788/6/6 800/6/6
f 808/5/6 790/5/6 789/5/6
f 809/5/6 773/5/6 790/5/6
f 809/5/6 790/5/6 808/5/6
f 810/5/6 773/5/6 809/5/6
f 811/6/6 774/6/6 773/6/6
f 811/5/6 773/5/6 810/5/6
f 812/5/6 791/5/6 774/5/6
f 812/6/6 774/6/6 811/6/6
f 813/6/6 792/6/6 791/6/6
f 813/5/6 791/5/6 812/5/6
f 814/5/6 801/5/6 792/5/6
f 814/6/6 792/6/6 813/6/6
f 815/6/6 802/6/6 801/6/6
f 815/5/6 801/5/6 814/5/6
f 816/5/6 803/5/6 802/5/6
f 816/6/6 802/6/6 815/6/6
f 817/6/6 804/6/6 803/6/6
f 817/5/6 803/5/6 816/5/6
f 818/5/6 794/5/6 804/5/6
f 818/6/6 804/6/6 817/6/6
f 819/5/6 807/5/6 806/5/6
f 819/5/6 805/5/6 795/5/6
f 819/5/6 808/5/6 807/5/6
f 819/5/6 809/5/6 808/5/6
f 819/5/6 806/5/6 805/5/6
f 820/5/6 809/5/6 819/5/6
f 821/6/6 810/6/6 809/6/6
f 821/5/6 809/5/6 820/5/6
f 822/5/6 818/5/6 817/5/6
f 822/6/6 810/6/6 821/6/6
f 822/5/6 814/5/6 813/5/6
f 822/5/6 812/5/6 811/5/6
f 822/5/6 817/5/6 816/5/6
f 822/5/6 813/5/6 812/5/6
f 822/5/6 815/5/6 814/5/6
f 822/5/6 811/5/6 810/5/6
f 822/5/6 816/5/6 815/5/6
f 823/5/6 818/5/6 822/5/6
f 824/5/6 818/5/6 823/5/6
f 825/6/6 820/6/6 819/6/6
f 825/5/6 819/5/6 795/5/6
f 826/5/6 821/5/6 820/5/6
f 826/6/6 820/6/6 825/6/6
f 826/5/6 822/5/6 821/5/6
f 826/5/6 823/5/6 822/5/6
f 827/5/6 823/5/6 826/5/6
f 828/5/6 823/5/6 827/5/6
f 829/5/6 823/5/6 828/5/6
f 830/5/6 823/5/6 829/5/6
f 831/5/6 823/5/6 830/5/6
f 832/5/6 823/5/6 831/5/6
f 833/6/6 824/6/6 823/6/6
f 833/5/6 823/5/6 832/5/6
f 834/5/6 818/5/6 824/5/6
f 834/6/6 824/6/6 833/6/6
f 835/5/6 826/5/6 825/5/6
f 835/5/6 827/5/6 826/5/6
f 836/5/6 827/5/6 835/5/6
f 837/6/6 828/6/6 827/6/6
f 837/5/6 827/5/6 836/5/6
f 838/5/6 829/5/6 828/5/6
f 838/6/6 828/6/6 837/6/6
f 839/5/6 829/5/6 838/5/6
f 840/5/6 829/5/6 839/5/6
f 841/6/6 830/6/6 829/6/6
f 841/5/6 829/5/6 840/5/6
f 842/5/6 831/5/6 830/5/6
f 842/6/6 830/6/6 841/6/6
f 843/6/6 832/6/6 831/6/6
f 843/5/6 831/5/6 842/5/6
f 844/5/6 833/5/6 832/5/6
f 844/6/6 832/6/6 843/6/6
f 844/5/6 834/5/6 833/5/6
f 845/6/6 836/6/6 835/6/6
f 845/5/6 835/5/6 825/5/6
f 846/5/6 839/5/6 838/5/6
f 846/6/6 836/6/6 845/6/6
f 846/5/6 837/5/6 836/5/6
f 846/5/6 838/5/6 837/5/6
f 847/5/6 839/5/6 846/5/6
f 848/5/6 839/5/6 847/5/6
f 849/6/6 840/6/6 839/6/6
f 849/5/6 839/5/6 848/5/6
f 850/5/6 843/5/6 842/5/6
f 850/6/6 840/6/6 849/6/6
f 850/5/6 842/5/6 841/5/6
f 850/5/6 844/5/6 843/5/6
f 850/5/6 841/5/6 840/5/6
f 851/5/6 847/5/6 846/5/6
f 851/5/6 845/5/6 825/5/6
f 851/5/6 846/5/6 845/5/6
f 852/5/6 847/5/6 851/5/6
f 853/5/6 849/5/6 848/5/6
f 853/5/6 844/5/6 850/5/6
f 853/5/6 850/5/6 849/5/6
f 854/5/6 844/5/6 853/5/6
f 855/5/6 844/5/6 854/5/6
f 856/5/6 844/5/6 855/5/6
f 857/5/6 844/5/6 856/5/6
f 858/5/6 844/5/6 857/5/6
f 859/6/6 852/6/6 851/6/6
f 859/5/6 851/5/6 825/5/6
f 860/5/6 847/5/6 852/5/6
f 860/6/6 852/6/6 859/6/6
f 861/6/6 848/6/6 847/6/6
f 861/5/6 847/5/6 860/5/6
f 862/5/6 853/5/6 848/5/6
f 862/6/6 848/6/6 861/6/6
f 863/5/6 853/5/6 862/5/6
f 864/5/6 853/5/6 863/5/6
f 865/6/6 854/6/6 853/6/6
f 865/5/6 853/5/6 864/5/6
f 866/5/6 855/5/6 854/5/6
f 866/6/6 854/6/6 865/6/6
f 867/6/6 856/6/6 855/6/6
f 867/5/6 855/5/6 866/5/6
f 868/5/6 857/5/6 856/5/6
f 868/6/6 856/6/6 867/6/6
f 869/6/6 858/6/6 857/6/6
f 869/5/6 857/5/6 868/5/6
f 870/5/6 844/5/6 858/5/6
f 870/6/6 858/6/6 869/6/6
f 871/5/6 825/5/6 795/5/6
f 871/5/6 859/5/6 825/5/6
f 871/5/6 795/5/6 783/5/6
f 871/5/6 863/5/6 862/5/6
f 871/5/6 862/5/6 861/5/6
f 871/5/6 860/5/6 859/5/6
f 871/5/6 861/5/6 860/5/6
f 872/5/6 863/5/6 871/5/6
f 873/6/6 864/6/6 863/6/6
f 873/5/6 863/5/6 872/5/6
f 874/5/6 870/5/6 869/5/6
f 874/6/6 864/6/6 873/6/6
f 874/5/6 869/5/6 868/5/6
f 874/5/6 867/5/6 866/5/6
f 874/5/6 868/5/6 867/5/6
f 874/5/6 865/5/6 864/5/6
f 874/5/6 866/5/6 865/5/6
f 875/5/6 783/5/6 745/5/6
f 875/5/6 871/5/6 783/5/6
f 876/5/6 871/5/6 875/5/6
f 877/6/6 872/6/6 871/6/6
f 877/5/6 871/5/6 876/5/6
f 878/5/6 873/5/6 872/5/6
f 878/6/6 872/6/6 877/6/6
f 878/5/6 874/5/6 873/5/6
f 879/5/6 870/5/6 874/5/6
f 879/5/6 874/5/6 878/5/6
f 880/5/6 870/5/6 879/5/6
f 881/5/6 870/5/6 880/5/6
f 882/5/6 870/5/6 881/5/6
f 883/5/6 870/5/6 882/5/6
f 884/5/6 870/5/6 883/5/6
f 885/5/6 844/5/6 870/5/6
f 885/5/6 870/5/6 884/5/6
f 885/5/6 834/5/6 844/5/6
f 886/5/6 834/5/6 885/5/6
f 887/6/6 876/6/6 875/6/6
f 888/5/6 877/5/6 876/5/6
f 888/6/6 876/6/6 887/6/6
f 888/5/6 878/5/6 877/5/6
f 888/5/6 879/5/6 878/5/6
f 889/6/6 880/6/6 879/6/6
f 889/5/6 879/5/6 888/5/6
f 890/5/6 881/5/6 880/5/6
f 890/6/6 880/6/6 889/6/6
f 891/5/6 881/5/6 890/5/6
f 892/5/6 881/5/6 891/5/6
f 893/6/6 882/6/6 881/6/6
f 893/5/6 881/5/6 892/5/6
f 894/5/6 883/5/6 882/5/6
f 894/6/6 882/6/6 893/6/6
f 895/6/6 884/6/6 883/6/6
f 895/5/6 883/5/6 894/5/6
f 896/5/6 885/5/6 884/5/6
f 896/6/6 884/6/6 895/6/6
f 897/5/6 885/5/6 896/5/6
f 898/5/6 885/5/6 897/5/6
f 899/6/6 886/6/6 885/6/6
f 899/5/6 834/5/6 886/5/6
f 900/5/6 834/5/6 899/5/6
f 901/5/6 834/5/6 900/5/6
f 902/5/6 834/5/6 901/5/6
f 903/5/6 834/5/6 902/5/6
f 904/5/6 834/5/6 903/5/6
f 905/5/6 794/5/6 818/5/6
f 905/5/6 834/5/6 904/5/6
f 905/5/6 818/5/6 834/5/6
f 906/5/6 794/5/6 905/5/6
f 907/6/6 887/6/6 875/6/6
f 907/5/6 875/5/6 745/5/6
f 908/5/6 888/5/6 887/5/6
f 908/6/6 887/6/6 907/6/6
f 908/5/6 889/5/6 888/5/6
f 908/5/6 890/5/6 889/5/6
f 908/5/6 891/5/6 890/5/6
f 909/5/6 894/5/6 893/5/6
f 909/6/6 898/6/6 897/6/6
f 909/5/6 893/5/6 892/5/6
f 909/5/6 895/5/6 894/5/6
f 909/5/6 896/5/6 895/5/6
f 909/5/6 897/5/6 896/5/6
f 910/5/6 885/5/6 898/5/6
f 910/6/6 898/6/6 909/6/6
f 911/6/6 900/6/6 899/6/6
f 911/5/6 885/5/6 910/5/6
f 911/6/6 899/6/6 885/6/6
f 912/5/6 901/5/6 900/5/6
f 912/6/6 900/6/6 911/6/6
f 913/6/6 902/6/6 901/6/6
f 913/5/6 901/5/6 912/5/6
f 914/5/6 903/5/6 902/5/6
f 914/6/6 902/6/6 913/6/6
f 915/6/6 904/6/6 903/6/6
f 915/5/6 903/5/6 914/5/6
f 916/5/6 905/5/6 904/5/6
f 916/6/6 904/6/6 915/6/6
f 917/6/6 906/6/6 905/6/6
f 917/5/6 905/5/6 916/5/6
f 918/5/6 794/5/6 906/5/6
f 918/6/6 906/6/6 917/6/6
f 919/5/6 891/5/6 908/5/6
f 919/5/6 908/5/6 907/5/6
f 920/5/6 891/5/6 919/5/6
f 921/6/6 892/6/6 891/6/6
f 921/5/6 891/5/6 920/5/6
f 922/5/6 914/5/6 913/5/6
f 922/6/6 892/6/6 921/6/6
f 922/5/6 917/5/6 916/5/6
f 922/5/6 909/5/6 892/5/6
f 922/5/6 912/5/6 911/5/6
f 922/5/6 916/5/6 915/5/6
f 922/5/6 915/5/6 914/5/6
f 922/5/6 918/5/6 917/5/6
f 922/5/6 911/5/6 910/5/6
f 922/5/6 910/5/6 909/5/6
f 922/5/6 913/5/6 912/5/6
f 923/5/6 918/5/6 922/5/6
f 924/5/6 919/5/6 907/5/6
f 924/6/6 920/6/6 919/6/6
f 925/5/6 921/5/6 920/5/6
f 925/6/6 920/6/6 924/6/6
f 925/5/6 922/5/6 921/5/6
f 926/5/6 918/5/6 923/5/6
f 927/5/6 918/5/6 926/5/6
f 928/5/6 924/5/6 907/5/6
f 928/5/6 925/5/6 924/5/6
f 929/5/6 925/5/6 928/5/6
f 930/5/6 922/5/6 925/5/6
f 930/5/6 925/5/6 929/5/6
f 930/6/6 923/6/6 922/6/6
f 931/5/6 926/5/6 923/5/6
f 931/6/6 923/6/6 930/6/6
f 932/6/6 927/6/6 926/6/6
f 932/5/6 926/5/6 931/5/6
f 933/5/6 918/5/6 927/5/6
f 933/6/6 927/6/6 932/6/6
f 934/5/6 918/5/6 933/5/6
f 935/5/6 918/5/6 934/5/6
f 936/5/6 794/5/6 918/5/6
f 936/5/6 918/5/6 935/5/6
f 937/5/6 794/5/6 936/5/6
f 938/6/6 929/6/6 928/6/6
f 938/5/6 928/5/6 907/5/6
f 939/5/6 932/5/6 931/5/6
f 939/6/6 929/6/6 938/6/6
f 939/5/6 931/5/6 930/5/6
f 939/5/6 930/5/6 929/5/6
f 939/5/6 934/5/6 933/5/6
f 939/5/6 933/5/6 932/5/6
f 940/5/6 934/5/6 939/5/6
f 941/5/6 934/5/6 940/5/6
f 942/5/6 934/5/6 941/5/6
f 943/5/6 934/5/6 942/5/6
f 944/6/6 935/6/6 934/6/6
f 944/5/6 934/5/6 943/5/6
f 945/5/6 936/5/6 935/5/6
f 945/6/6 935/6/6 944/6/6
f 946/6/6 937/6/6 936/6/6
f 946/5/6 936/5/6 945/5/6
f 947/5/6 794/5/6 937/5/6
f 947/6/6 937/6/6 946/6/6
f 948/5/6 939/5/6 938/5/6
f 948/5/6 940/5/6 939/5/6
f 948/6/6 941/6/6 940/6/6
f 949/5/6 942/5/6 941/5/6
f 949/6/6 941/6/6 948/6/6
f 950/6/6 943/6/6 942/6/6
f 950/5/6 942/5/6 949/5/6
f 951/5/6 946/5/6 945/5/6
f 951/6/6 943/6/6 950/6/6
f 951/5/6 945/5/6 944/5/6
f 951/5/6 944/5/6 943/5/6
f 951/5/6 947/5/6 946/5/6
f 952/5/6 949/5/6 948/5/6
f 952/5/6 950/5/6 949/5/6
f 952/5/6 951/5/6 950/5/6
f 953/5/6 951/5/6 952/5/6
f 954/5/6 952/5/6 948/5/6
f 955/5/6 952/5/6 954/5/6
f 956/6/6 953/6/6 952/6/6
f 956/5/6 952/5/6 955/5/6
f 957/5/6 951/5/6 953/5/6
f 957/6/6 953/6/6 956/6/6
f 958/5/6 947/5/6 951/5/6
f 958/5/6 951/5/6 957/5/6
f 959/5/6 947/5/6 958/5/6
f 960/5/6 954/5/6 948/5/6
f 961/5/6 954/5/6 960/5/6
f 962/6/6 955/6/6 954/6/6
f 962/5/6 954/5/6 961/5/6
f 963/5/6 957/5/6 956/5/6
f 963/6/6 955/6/6 962/6/6
f 963/5/6 956/5/6 955/5/6
f 963/5/6 958/5/6 957/5/6
f 964/5/6 958/5/6 963/5/6
f 965/5/6 958/5/6 964/5/6
f 966/6/6 959/6/6 958/6/6
f 966/5/6 958/5/6 965/5/6
f 967/5/6 947/5/6 959/5/6
f 967/6/6 959/6/6 966/6/6
f 968/5/6 960/5/6 948/5/6
f 968/6/6 961/6/6 960/6/6
f 969/5/6 962/5/6 961/5/6
f 969/6/6 961/6/6 968/6/6
f 969/5/6 963/5/6 962/5/6
f 969/5/6 964/5/6 963/5/6
f 970/6/6 965/6/6 964/6/6
f 970/5/6 964/5/6 969/5/6
f 971/5/6 967/5/6 966/5/6
f 971/6/6 965/6/6 970/6/6
f 971/5/6 966/5/6 965/5/6
f 972/5/6 967/5/6 971/5/6
f 973/5/6 947/5/6 967/5/6
f 973/5/6 967/5/6 972/5/6
f 974/5/6 968/5/6 948/5/6
f 974/5/6 948/5/6 938/5/6
f 974/5/6 972/5/6 971/5/6
f 974/5/6 971/5/6 970/5/6
f 974/5/6 969/5/6 968/5/6
f 974/5/6 970/5/6 969/5/6
f 975/5/6 972/5/6 974/5/6
f 976/5/6 745/5/6 713/5/6
f 976/5/6 938/5/6 907/5/6
f 976/5/6 907/5/6 745/5/6
f 976/5/6 974/5/6 938/5/6
f 977/5/6 974/5/6 976/5/6
f 978/6/6 975/6/6 974/6/6
f 978/5/6 974/5/6 977/5/6
f 979/5/6 972/5/6 975/5/6
f 979/6/6 975/6/6 978/6/6
f 980/5/6 972/5/6 979/5/6
f 981/5/6 972/5/6 980/5/6
f 982/5/6 972/5/6 981/5/6
f 983/5/6 972/5/6 982/5/6
f 984/6/6 973/6/6 972/6/6
f 984/5/6 972/5/6 983/5/6
f 985/5/6 947/5/6 973/5/6
f 985/6/6 973/6/6 984/6/6
f 986/6/6 977/6/6 976/6/6
f 986/5/6 976/5/6 713/5/6
f 987/5/6 978/5/6 977/5/6
f 987/6/6 977/6/6 986/6/6
f 987/5/6 979/5/6 978/5/6
f 987/5/6 980/5/6 979/5/6
f 988/5/6 980/5/6 987/5/6
f 989/5/6 980/5/6 988/5/6
f 990/6/6 981/6/6 980/6/6
f 990/5/6 980/5/6 989/5/6
f 991/5/6 982/5/6 981/5/6
f 991/6/6 981/6/6 990/6/6
f 992/5/6 982/5/6 991/5/6
f 993/5/6 982/5/6 992/5/6
f 994/6/6 983/6/6 982/6/6
f 994/5/6 982/5/6 993/5/6
f 995/5/6 984/5/6 983/5/6
f 995/6/6 983/6/6 994/6/6
f 995/5/6 985/5/6 984/5/6
f 996/5/6 947/5/6 985/5/6
f 996/5/6 985/5/6 995/5/6
f 996/5/6 794/5/6 947/5/6
f 996/5/6 744/5/6 794/5/6
f 997/5/6 744/5/6 996/5/6
f 998/5/6 988/5/6 987/5/6
f 998/5/6 987/5/6 986/5/6
f 999/5/6 988/5/6 998/5/6
f 1000/6/6 989/6/6 988/6/6
f 1000/5/6 988/5/6 999/5/6
f 1001/5/6 991/5/6 990/5/6
f 1001/6/6 989/6/6 1000/6/6
f 1001/5/6 992/5/6 991/5/6
f 1001/5/6 990/5/6 989/5/6
f 1002/5/6 992/5/6 1001/5/6
f 1003/5/6 992/5/6 1002/5/6
f 1004/5/6 992/5/6 1003/5/6
f 1005/5/6 992/5/6 1004/5/6
f 1006/6/6 993/6/6 992/6/6
f 1006/5/6 992/5/6 1005/5/6
f 1007/5/6 995/5/6 994/5/6
f 1007/6/6 993/6/6 1006/6/6
f 1007/5/6 994/5/6 993/5/6
f 1007/5/6 996/5/6 995/5/6
f 1008/5/6 996/5/6 1007/5/6
f 1009/5/6 996/5/6 1008/5/6
f 1010/6/6 997/6/6 996/6/6
f 1010/5/6 996/5/6 1009/5/6
f 1011/5/6 744/5/6 997/5/6
f 1011/6/6 997/6/6 1010/6/6
f 1012/5/6 744/5/6 1011/5/6
f 1013/5/6 998/5/6 986/5/6
f 1013/6/6 999/6/6 998/6/6
f 1014/5/6 1000/5/6 999/5/6
f 1014/6/6 999/6/6 1013/6/6
f 1014/5/6 1001/5/6 1000/5/6
f 1014/5/6 1002/5/6 1001/5/6
f 1015/5/6 1002/5/6 1014/5/6
f 1016/5/6 1002/5/6 1015/5/6
f 1017/5/6 1002/5/6 1016/5/6
f 1018/5/6 1002/5/6 1017/5/6
f 1019/5/6 1002/5/6 1018/5/6
f 1020/5/6 1002/5/6 1019/5/6
f 1021/5/6 1004/5/6 1003/5/6
f 1021/6/6 1005/6/6 1004/6/6
f 1022/5/6 1006/5/6 1005/5/6
f 1022/6/6 1005/6/6 1021/6/6
f 1022/5/6 1008/5/6 1007/5/6
f 1022/5/6 1007/5/6 1006/5/6
f 1023/5/6 1008/5/6 1022/5/6
f 1024/5/6 1008/5/6 1023/5/6
f 1025/6/6 1009/6/6 1008/6/6
f 1025/5/6 1008/5/6 1024/5/6
f 1026/5/6 1010/5/6 1009/5/6
f 1026/6/6 1009/6/6 1025/6/6
f 1026/5/6 1011/5/6 1010/5/6
f 1027/6/6 1012/6/6 1011/6/6
f 1027/5/6 1011/5/6 1026/5/6
f 1028/5/6 744/5/6 1012/5/6
f 1028/6/6 1012/6/6 1027/6/6
f 1029/5/6 744/5/6 1028/5/6
f 1030/5/6 744/5/6 1029/5/6
f 1031/5/6 1014/5/6 1013/5/6
f 1031/5/6 1015/5/6 1014/5/6
f 1031/6/6 1016/6/6 1015/6/6
f 1032/5/6 1017/5/6 1016/5/6
f 1032/6/6 1016/6/6 1031/6/6
f 1033/6/6 1018/6/6 1017/6/6
f 1033/5/6 1017/5/6 1032/5/6
f 1034/5/6 1019/5/6 1018/5/6
f 1034/6/6 1018/6/6 1033/6/6
f 1035/5/6 1019/5/6 1034/5/6
f 1036/5/6 1019/5/6 1035/5/6
f 1037/5/6 1002/5/6 1020/5/6
f 1037/6/6 1003/6/6 1002/6/6
f 1038/5/6 1021/5/6 1003/5/6
f 1038/6/6 1003/6/6 1037/6/6
f 1038/5/6 1023/5/6 1022/5/6
f 1038/5/6 1022/5/6 1021/5/6
f 1039/5/6 1023/5/6 1038/5/6
f 1040/5/6 1023/5/6 1039/5/6
f 1041/6/6 1024/6/6 1023/6/6
f 1041/5/6 1023/5/6 1040/5/6
f 1042/5/6 1025/5/6 1024/5/6
f 1042/6/6 1024/6/6 1041/6/6
f 1042/5/6 1027/5/6 1026/5/6
f 1042/5/6 1026/5/6 1025/5/6
f 1042/5/6 1029/5/6 1028/5/6
f 1042/5/6 1028/5/6 1027/5/6
f 1043/5/6 1029/5/6 1042/5/6
f 1044/5/6 1029/5/6 1043/5/6
f 1045/6/6 1030/6/6 1029/6/6
f 1045/5/6 1029/5/6 1044/5/6
f 1046/5/6 744/5/6 1030/5/6
f 1046/6/6 1030/6/6 1045/6/6
f 1047/5/6 1035/5/6 1034/5/6
f 1047/5/6 1033/5/6 1032/5/6
f 1047/5/6 1032/5/6 1031/5/6
f 1047/5/6 1034/5/6 1033/5/6
f 1048/5/6 1035/5/6 1047/5/6
f 1049/5/6 1035/5/6 1048/5/6
f 1050/5/6 1035/5/6 1049/5/6
f 1051/6/6 1036/6/6 1035/6/6
f 1051/5/6 1035/5/6 1050/5/6
f 1052/5/6 1019/5/6 1036/5/6
f 1052/6/6 1036/6/6 1051/6/6
f 1053/6/6 1020/6/6 1019/6/6
f 1053/5/6 1019/5/6 1052/5/6
f 1054/5/6 1037/5/6 1020/5/6
f 1054/6/6 1020/6/6 1053/6/6
f 1054/5/6 1039/5/6 1038/5/6
f 1054/5/6 1038/5/6 1037/5/6
f 1055/5/6 1041/5/6 1040/5/6
f 1055/5/6 1043/5/6 1042/5/6
f 1055/5/6 1042/5/6 1041/5/6
f 1056/5/6 1043/5/6 1055/5/6
f 1057/5/6 1043/5/6 1056/5/6
f 1058/5/6 1043/5/6 1057/5/6
f 1059/5/6 1043/5/6 1058/5/6
f 1060/5/6 1043/5/6 1059/5/6
f 1061/6/6 1044/6/6 1043/6/6
f 1061/5/6 1043/5/6 1060/5/6
f 1062/5/6 1046/5/6 1045/5/6
f 1062/6/6 1044/6/6 1061/6/6
f 1062/5/6 1045/5/6 1044/5/6
f 1063/5/6 986/5/6 713/5/6
f 1063/5/6 1013/5/6 986/5/6
f 1063/5/6 1047/5/6 1031/5/6
f 1063/5/6 1031/5/6 1013/5/6
f 1064/5/6 1047/5/6 1063/5/6
f 1065/5/6 1047/5/6 1064/5/6
f 1066/5/6 1047/5/6 1065/5/6
f 1067/6/6 1048/6/6 1047/6/6
f 1067/5/6 1047/5/6 1066/5/6
f 1068/5/6 1049/5/6 1048/5/6
f 1068/6/6 1048/6/6 1067/6/6
f 1069/6/6 1050/6/6 1049/6/6
f 1069/5/6 1049/5/6 1068/5/6
f 1070/5/6 1053/5/6 1052/5/6
f 1070/6/6 1050/6/6 1069/6/6
f 1070/5/6 1051/5/6 1050/5/6
f 1070/5/6 1052/5/6 1051/5/6
f 1070/5/6 1054/5/6 1053/5/6
f 1071/5/6 1039/5/6 1054/5/6
f 1071/5/6 1054/5/6 1070/5/6
f 1071/6/6 1040/6/6 1039/6/6
f 1072/5/6 1055/5/6 1040/5/6
f 1072/6/6 1040/6/6 1071/6/6
f 1073/6/6 1056/6/6 1055/6/6
f 1073/5/6 1055/5/6 1072/5/6
f 1074/5/6 1057/5/6 1056/5/6
f 1074/6/6 1056/6/6 1073/6/6
f 1075/6/6 1058/6/6 1057/6/6
f 1075/5/6 1057/5/6 1074/5/6
f 1076/5/6 1059/5/6 1058/5/6
f 1076/6/6 1058/6/6 1075/6/6
f 1077/6/6 1060/6/6 1059/6/6
f 1077/5/6 1059/5/6 1076/5/6
f 1078/5/6 1062/5/6 1061/5/6
f 1078/6/6 1060/6/6 1077/6/6
f 1078/5/6 1061/5/6 1060/5/6
f 1079/5/6 1046/5/6 1062/5/6
f 1079/5/6 1062/5/6 1078/5/6
f 1080/5/6 1046/5/6 1079/5/6
f 1081/5/6 1046/5/6 1080/5/6
f 1082/5/6 1046/5/6 1081/5/6
f 1083/5/6 1065/5/6 1064/5/6
f 1083/6/6 1066/6/6 1065/6/6
f 1084/5/6 1078/5/6 1077/5/6
f 1084/6/6 1066/6/6 1083/6/6
f 1084/5/6 1069/5/6 1068/5/6
f 1084/5/6 1077/5/6 1076/5/6
f 1084/5/6 1070/5/6 1069/5/6
f 1084/5/6 1079/5/6 1078/5/6
f 1084/5/6 1073/5/6 1072/5/6
f 1084/5/6 1074/5/6 1073/5/6
f 1084/5/6 1076/5/6 1075/5/6
f 1084/5/6 1075/5/6 1074/5/6
f 1084/5/6 1067/5/6 1066/5/6
f 1084/5/6 1071/5/6 1070/5/6
f 1084/5/6 1068/5/6 1067/5/6
f 1084/5/6 1072/5/6 1071/5/6
f 1085/5/6 1079/5/6 1084/5/6
f 1086/5/6 1079/5/6 1085/5/6
f 1087/5/6 1079/5/6 1086/5/6
f 1088/5/6 1079/5/6 1087/5/6
f 1089/5/6 1079/5/6 1088/5/6
f 1090/5/6 1079/5/6 1089/5/6
f 1091/6/6 1080/6/6 1079/6/6
f 1091/5/6 1079/5/6 1090/5/6
f 1092/5/6 1081/5/6 1080/5/6
f 1092/6/6 1080/6/6 1091/6/6
f 1093/5/6 1046/5/6 1082/5/6
f 1094/5/6 1046/5/6 1093/5/6
f 1095/5/6 1084/5/6 1083/5/6
f 1095/5/6 1085/5/6 1084/5/6
f 1096/5/6 1085/5/6 1095/5/6
f 1097/6/6 1086/6/6 1085/6/6
f 1097/5/6 1085/5/6 1096/5/6
f 1098/5/6 1087/5/6 1086/5/6
f 1098/6/6 1086/6/6 1097/6/6
f 1099/5/6 1087/5/6 1098/5/6
f 1100/5/6 1087/5/6 1099/5/6
f 1101/5/6 1087/5/6 1100/5/6
f 1102/5/6 1087/5/6 1101/5/6
f 1103/6/6 1088/6/6 1087/6/6
f 1103/5/6 1087/5/6 1102/5/6
f 1104/5/6 1089/5/6 1088/5/6
f 1104/6/6 1088/6/6 1103/6/6
f 1105/5/6 1089/5/6 1104/5/6
f 1106/5/6 1089/5/6 1105/5/6
f 1107/5/6 1089/5/6 1106/5/6
f 1108/5/6 1089/5/6 1107/5/6
f 1109/5/6 1089/5/6 1108/5/6
f 1110/5/6 1089/5/6 1109/5/6
f 1111/6/6 1090/6/6 1089/6/6
f 1111/5/6 1089/5/6 1110/5/6
f 1112/5/6 1091/5/6 1090/5/6
f 1112/6/6 1090/6/6 1111/6/6
f 1112/5/6 1092/5/6 1091/5/6
f 1113/6/6 1094/6/6 1093/6/6
f 1113/5/6 1093/5/6 1082/5/6
f 1114/5/6 1046/5/6 1094/5/6
f 1114/6/6 1094/6/6 1113/6/6
f 1115/6/6 1064/6/6 1063/6/6
f 1116/5/6 1083/5/6 1064/5/6
f 1116/6/6 1064/6/6 1115/6/6
f 1116/5/6 1095/5/6 1083/5/6
f 1117/5/6 1095/5/6 1116/5/6
f 1118/5/6 1095/5/6 1117/5/6
f 1119/5/6 1095/5/6 1118/5/6
f 1120/5/6 1095/5/6 1119/5/6
f 1121/5/6 1095/5/6 1120/5/6
f 1122/5/6 1095/5/6 1121/5/6
f 1123/6/6 1096/6/6 1095/6/6
f 1123/5/6 1095/5/6 1122/5/6
f 1124/5/6 1097/5/6 1096/5/6
f 1124/6/6 1096/6/6 1123/6/6
f 1124/5/6 1098/5/6 1097/5/6
f 1124/5/6 1099/5/6 1098/5/6
f 1125/6/6 1100/6/6 1099/6/6
f 1125/5/6 1099/5/6 1124/5/6
f 1126/5/6 1101/5/6 1100/5/6
f 1126/6/6 1100/6/6 1125/6/6
f 1127/6/6 1102/6/6 1101/6/6
f 1127/5/6 1101/5/6 1126/5/6
f 1128/5/6 1103/5/6 1102/5/6
f 1128/6/6 1102/6/6 1127/6/6
f 1128/5/6 1104/5/6 1103/5/6
f 1128/5/6 1105/5/6 1104/5/6
f 1129/5/6 1105/5/6 1128/5/6
f 1130/5/6 1105/5/6 1129/5/6
f 1131/5/6 1107/5/6 1106/5/6
f 1131/6/6 1108/6/6 1107/6/6
f 1132/5/6 1109/5/6 1108/5/6
f 1132/6/6 1108/6/6 1131/6/6
f 1133/5/6 1109/5/6 1132/5/6
f 1134/5/6 1109/5/6 1133/5/6
f 1135/6/6 1110/6/6 1109/6/6
f 1135/5/6 1109/5/6 1134/5/6
f 1136/5/6 1111/5/6 1110/5/6
f 1136/6/6 1110/6/6 1135/6/6
f 1136/5/6 1112/5/6 1111/5/6
f 1137/5/6 1081/5/6 1092/5/6
f 1137/5/6 1112/5/6 1136/5/6
f 1137/6/6 1082/6/6 1081/6/6
f 1137/5/6 1092/5/6 1112/5/6
f 1138/5/6 1113/5/6 1082/5/6
f 1138/6/6 1082/6/6 1137/6/6
f 1138/5/6 1114/5/6 1113/5/6
f 1139/6/6 1118/6/6 1117/6/6
f 1139/5/6 1116/5/6 1115/5/6
f 1139/5/6 1117/5/6 1116/5/6
f 1140/5/6 1119/5/6 1118/5/6
f 1140/6/6 1118/6/6 1139/6/6
f 1141/6/6 1120/6/6 1119/6/6
f 1141/5/6 1119/5/6 1140/5/6
f 1142/5/6 1121/5/6 1120/5/6
f 1142/6/6 1120/6/6 1141/6/6
f 1143/6/6 1122/6/6 1121/6/6
f 1143/5/6 1121/5/6 1142/5/6
f 1144/5/6 1129/5/6 1128/5/6
f 1144/6/6 1122/6/6 1143/6/6
f 1144/5/6 1123/5/6 1122/5/6
f 1144/5/6 1126/5/6 1125/5/6
f 1144/5/6 1127/5/6 1126/5/6
f 1144/5/6 1128/5/6 1127/5/6
f 1144/5/6 1124/5/6 1123/5/6
f 1144/5/6 1125/5/6 1124/5/6
f 1145/6/6 1130/6/6 1129/6/6
f 1145/5/6 1129/5/6 1144/5/6
f 1146/5/6 1105/5/6 1130/5/6
f 1146/6/6 1130/6/6 1145/6/6
f 1147/5/6 1105/5/6 1146/5/6
f 1148/5/6 1105/5/6 1147/5/6
f 1149/6/6 1134/6/6 1133/6/6
f 1149/5/6 1132/5/6 1131/5/6
f 1149/5/6 1133/5/6 1132/5/6
f 1150/5/6 1135/5/6 1134/5/6
f 1150/6/6 1134/6/6 1149/6/6
f 1150/5/6 1136/5/6 1135/5/6
f 1150/5/6 1137/5/6 1136/5/6
f 1150/5/6 1138/5/6 1137/5/6
f 1151/5/6 1146/5/6 1145/5/6
f 1151/5/6 1143/5/6 1142/5/6
f 1151/5/6 1142/5/6 1141/5/6
f 1151/5/6 1140/5/6 1139/5/6
f 1151/5/6 1141/5/6 1140/5/6
f 1151/5/6 1144/5/6 1143/5/6
f 1151/5/6 1147/5/6 1146/5/6
f 1151/5/6 1145/5/6 1144/5/6
f 1152/5/6 1147/5/6 1151/5/6
f 1153/6/6 1148/6/6 1147/6/6
f 1153/5/6 1147/5/6 1152/5/6
f 1154/5/6 1105/5/6 1148/5/6
f 1154/6/6 1148/6/6 1153/6/6
f 1155/6/6 1106/6/6 1105/6/6
f 1155/5/6 1105/5/6 1154/5/6
f 1156/5/6 1149/5/6 1131/5/6
f 1156/6/6 1106/6/6 1155/6/6
f 1156/5/6 1150/5/6 1149/5/6
f 1156/5/6 1131/5/6 1106/5/6
f 1157/5/6 1155/5/6 1154/5/6
f 1157/5/6 1153/5/6 1152/5/6
f 1157/5/6 1156/5/6 1155/5/6
f 1157/5/6 1154/5/6 1153/5/6
f 1158/5/6 1156/5/6 1157/5/6
f 1159/5/6 1156/5/6 1158/5/6
f 1160/5/6 1150/5/6 1156/5/6
f 1160/5/6 1156/5/6 1159/5/6
f 1161/5/6 1150/5/6 1160/5/6
f 1162/5/6 1138/5/6 1150/5/6
f 1162/5/6 1150/5/6 1161/5/6
f 1163/5/6 1151/5/6 1139/5/6
f 1164/5/6 1151/5/6 1163/5/6
f 1165/5/6 1151/5/6 1164/5/6
f 1166/5/6 1151/5/6 1165/5/6
f 1167/5/6 1157/5/6 1152/5/6
f 1167/6/6 1158/6/6 1157/6/6
f 1168/5/6 1159/5/6 1158/5/6
f 1168/6/6 1158/6/6 1167/6/6
f 1169/5/6 1161/5/6 1160/5/6
f 1169/6/6 1162/6/6 1161/6/6
f 1170/5/6 1138/5/6 1162/5/6
f 1170/6/6 1162/6/6 1169/6/6
f 1171/5/6 1163/5/6 1139/5/6
f 1171/6/6 1164/6/6 1163/6/6
f 1172/5/6 1165/5/6 1164/5/6
f 1172/6/6 1164/6/6 1171/6/6
f 1173/6/6 1166/6/6 1165/6/6
f 1173/5/6 1165/5/6 1172/5/6
f 1174/5/6 1151/5/6 1166/5/6
f 1174/6/6 1166/6/6 1173/6/6
f 1175/5/6 1159/5/6 1168/5/6
f 1175/6/6 1160/6/6 1159/6/6
f 1175/5/6 1168/5/6 1167/5/6
f 1176/5/6 1169/5/6 1160/5/6
f 1176/6/6 1160/6/6 1175/6/6
f 1176/5/6 1170/5/6 1169/5/6
f 1177/5/6 1138/5/6 1170/5/6
f 1177/5/6 1170/5/6 1176/5/6
f 1178/5/6 1138/5/6 1177/5/6
f 1179/5/6 1173/5/6 1172/5/6
f 1179/5/6 1172/5/6 1171/5/6
f 1179/5/6 1174/5/6 1173/5/6
f 1180/5/6 1174/5/6 1179/5/6
f 1181/5/6 1174/5/6 1180/5/6
f 1182/5/6 1174/5/6 1181/5/6
f 1183/5/6 1151/5/6 1174/5/6
f 1183/5/6 1174/5/6 1182/5/6
f 1183/6/6 1152/6/6 1151/6/6
f 1184/5/6 1167/5/6 1152/5/6
f 1184/6/6 1152/6/6 1183/6/6
f 1184/5/6 1175/5/6 1167/5/6
f 1184/5/6 1177/5/6 1176/5/6
f 1184/5/6 1176/5/6 1175/5/6
f 1185/5/6 1177/5/6 1184/5/6
f 1186/5/6 1177/5/6 1185/5/6
f 1187/5/6 1177/5/6 1186/5/6
f 1188/5/6 1177/5/6 1187/5/6
f 1189/5/6 1177/5/6 1188/5/6
f 1190/5/6 1177/5/6 1189/5/6
f 1191/6/6 1178/6/6 1177/6/6
f 1191/5/6 1177/5/6 1190/5/6
f 1192/5/6 1138/5/6 1178/5/6
f 1192/6/6 1178/6/6 1191/6/6
f 1193/5/6 1138/5/6 1192/5/6
f 1194/5/6 1138/5/6 1193/5/6
f 1195/5/6 1138/5/6 1194/5/6
f 1196/5/6 1138/5/6 1195/5/6
f 1197/6/6 1182/6/6 1181/6/6
f 1197/5/6 1181/5/6 1180/5/6
f 1198/5/6 1183/5/6 1182/5/6
f 1198/6/6 1182/6/6 1197/6/6
f 1198/5/6 1184/5/6 1183/5/6
f 1198/5/6 1185/5/6 1184/5/6
f 1199/6/6 1186/6/6 1185/6/6
f 1199/5/6 1185/5/6 1198/5/6
f 1200/5/6 1187/5/6 1186/5/6
f 1200/6/6 1186/6/6 1199/6/6
f 1201/6/6 1190/6/6 1189/6/6
f 1201/5/6 1189/5/6 1188/5/6
f 1202/5/6 1191/5/6 1190/5/6
f 1202/6/6 1190/6/6 1201/6/6
f 1202/5/6 1192/5/6 1191/5/6
f 1202/5/6 1193/5/6 1192/5/6
f 1203/5/6 1193/5/6 1202/5/6
f 1204/5/6 1193/5/6 1203/5/6
f 1205/6/6 1194/6/6 1193/6/6
f 1205/5/6 1193/5/6 1204/5/6
f 1206/5/6 1195/5/6 1194/5/6
f 1206/6/6 1194/6/6 1205/6/6
f 1207/6/6 1196/6/6 1195/6/6
f 1207/5/6 1195/5/6 1206/5/6
f 1208/5/6 1138/5/6 1196/5/6
f 1208/6/6 1196/6/6 1207/6/6
f 1209/5/6 1198/5/6 1197/5/6
f 1209/5/6 1199/5/6 1198/5/6
f 1209/5/6 1200/5/6 1199/5/6
f 1210/5/6 1200/5/6 1209/5/6
f 1211/5/6 1200/5/6 1210/5/6
f 1212/5/6 1200/5/6 1211/5/6
f 1213/5/6 1187/5/6 1200/5/6
f 1213/5/6 1200/5/6 1212/5/6
f 1213/6/6 1188/6/6 1187/6/6
f 1214/5/6 1201/5/6 1188/5/6
f 1214/6/6 1188/6/6 1213/6/6
f 1214/5/6 1203/5/6 1202/5/6
f 1214/5/6 1202/5/6 1201/5/6
f 1215/6/6 1204/6/6 1203/6/6
f 1215/5/6 1203/5/6 1214/5/6
f 1216/5/6 1207/5/6 1206/5/6
f 1216/6/6 1204/6/6 1215/6/6
f 1216/5/6 1206/5/6 1205/5/6
f 1216/5/6 1205/5/6 1204/5/6
f 1216/5/6 1208/5/6 1207/5/6
f 1217/5/6 1208/5/6 1216/5/6
f 1218/5/6 1208/5/6 1217/5/6
f 1219/6/6 1180/6/6 1179/6/6
f 1219/5/6 1179/5/6 1171/5/6
f 1220/5/6 1197/5/6 1180/5/6
f 1220/6/6 1180/6/6 1219/6/6
f 1220/5/6 1209/5/6 1197/5/6
f 1221/6/6 1210/6/6 1209/6/6
f 1221/5/6 1209/5/6 1220/5/6
f 1222/5/6 1211/5/6 1210/5/6
f 1222/6/6 1210/6/6 1221/6/6
f 1223/5/6 1211/5/6 1222/5/6
f 1224/5/6 1211/5/6 1223/5/6
f 1225/6/6 1212/6/6 1211/6/6
f 1225/5/6 1211/5/6 1224/5/6
f 1226/5/6 1215/5/6 1214/5/6
f 1226/6/6 1212/6/6 1225/6/6
f 1226/5/6 1217/5/6 1216/5/6
f 1226/5/6 1213/5/6 1212/5/6
f 1226/5/6 1214/5/6 1213/5/6
f 1226/5/6 1216/5/6 1215/5/6
f 1227/5/6 1217/5/6 1226/5/6
f 1228/5/6 1217/5/6 1227/5/6
f 1229/6/6 1218/6/6 1217/6/6
f 1229/5/6 1217/5/6 1228/5/6
f 1230/5/6 1208/5/6 1218/5/6
f 1230/6/6 1218/6/6 1229/6/6
f 1231/5/6 1138/5/6 1208/5/6
f 1231/5/6 1208/5/6 1230/5/6
f 1232/5/6 1138/5/6 1231/5/6
f 1233/5/6 1219/5/6 1171/5/6
f 1233/5/6 1223/5/6 1222/5/6
f 1233/5/6 1222/5/6 1221/5/6
f 1233/5/6 1220/5/6 1219/5/6
f 1233/5/6 1221/5/6 1220/5/6
f 1234/5/6 1223/5/6 1233/5/6
f 1235/5/6 1223/5/6 1234/5/6
f 1236/5/6 1223/5/6 1235/5/6
f 1237/6/6 1224/6/6 1223/6/6
f 1237/5/6 1223/5/6 1236/5/6
f 1238/5/6 1225/5/6 1224/5/6
f 1238/6/6 1224/6/6 1237/6/6
f 1238/5/6 1227/5/6 1226/5/6
f 1238/5/6 1226/5/6 1225/5/6
f 1239/5/6 1227/5/6 1238/5/6
f 1240/5/6 1227/5/6 1239/5/6
f 1241/6/6 1228/6/6 1227/6/6
f 1241/5/6 1227/5/6 1240/5/6
f 1242/5/6 1229/5/6 1228/5/6
f 1242/6/6 1228/6/6 1241/6/6
f 1242/5/6 1231/5/6 1230/5/6
f 1242/5/6 1230/5/6 1229/5/6
f 1243/5/6 1231/5/6 1242/5/6
f 1244/5/6 1231/5/6 1243/5/6
f 1245/6/6 1232/6/6 1231/6/6
f 1245/5/6 1231/5/6 1244/5/6
f 1246/5/6 1138/5/6 1232/5/6
f 1246/6/6 1232/6/6 1245/6/6
f 1247/5/6 1138/5/6 1246/5/6
f 1248/5/6 1138/5/6 1247/5/6
f 1249/6/6 1236/6/6 1235/6/6
f 1249/5/6 1235/5/6 1234/5/6
f 1250/5/6 1237/5/6 1236/5/6
f 1250/6/6 1236/6/6 1249/6/6
f 1250/5/6 1239/5/6 1238/5/6
f 1250/5/6 1238/5/6 1237/5/6
f 1251/6/6 1240/6/6 1239/6/6
f 1251/5/6 1239/5/6 1250/5/6
f 1252/5/6 1241/5/6 1240/5/6
f 1252/6/6 1240/6/6 1251/6/6
f 1252/5/6 1242/5/6 1241/5/6
f 1252/5/6 1243/5/6 1242/5/6
f 1253/5/6 1243/5/6 1252/5/6
f 1254/5/6 1243/5/6 1253/5/6
f 1255/5/6 1245/5/6 1244/5/6
f 1255/5/6 1247/5/6 1246/5/6
f 1255/6/6 1248/6/6 1247/6/6
f 1255/5/6 1246/5/6 1245/5/6
f 1256/5/6 1138/5/6 1248/5/6
f 1256/6/6 1248/6/6 1255/6/6
f 1257/5/6 1114/5/6 1138/5/6
f 1257/5/6 1138/5/6 1256/5/6
f 1257/5/6 1046/5/6 1114/5/6
f 1258/5/6 1046/5/6 1257/5/6
f 1259/5/6 1046/5/6 1258/5/6
f 1260/5/6 744/5/6 1046/5/6
f 1260/5/6 1046/5/6 1259/5/6
f 1261/5/6 1233/5/6 1171/5/6
f 1261/6/6 1234/6/6 1233/6/6
f 1262/5/6 1249/5/6 1234/5/6
f 1262/6/6 1234/6/6 1261/6/6
f 1262/5/6 1251/5/6 1250/5/6
f 1262/5/6 1250/5/6 1249/5/6
f 1262/5/6 1253/5/6 1252/5/6
f 1262/5/6 1252/5/6 1251/5/6
f 1263/6/6 1254/6/6 1253/6/6
f 1263/5/6 1253/5/6 1262/5/6
f 1264/5/6 1243/5/6 1254/5/6
f 1264/6/6 1254/6/6 1263/6/6
f 1265/6/6 1244/6/6 1243/6/6
f 1265/5/6 1243/5/6 1264/5/6
f 1266/5/6 1256/5/6 1255/5/6
f 1266/6/6 1244/6/6 1265/6/6
f 1266/5/6 1255/5/6 1244/5/6
f 1266/5/6 1257/5/6 1256/5/6
f 1267/6/6 1258/6/6 1257/6/6
f 1267/5/6 1257/5/6 1266/5/6
f 1268/5/6 1259/5/6 1258/5/6
f 1268/6/6 1258/6/6 1267/6/6
f 1269/6/6 1260/6/6 1259/6/6
f 1269/5/6 1259/5/6 1268/5/6
f 1270/5/6 744/5/6 1260/5/6
f 1270/6/6 1260/6/6 1269/6/6
f 1271/5/6 1263/5/6 1262/5/6
f 1271/5/6 1265/5/6 1264/5/6
f 1271/5/6 1270/5/6 1269/5/6
f 1271/5/6 1269/5/6 1268/5/6
f 1271/5/6 1268/5/6 1267/5/6
f 1271/5/6 1262/5/6 1261/5/6
f 1271/5/6 1266/5/6 1265/5/6
f 1271/5/6 1267/5/6 1266/5/6
f 1271/5/6 1264/5/6 1263/5/6
f 1272/5/6 1270/5/6 1271/5/6
f 1273/5/6 1270/5/6 1272/5/6
f 1274/5/6 1270/5/6 1273/5/6
f 1275/5/6 1270/5/6 1274/5/6
f 1276/5/6 1270/5/6 1275/5/6
f 1277/5/6 1270/5/6 1276/5/6
f 1278/5/6 1270/5/6 1277/5/6
f 1279/5/6 1270/5/6 1278/5/6
f 1280/5/6 1270/5/6 1279/5/6
f 1281/5/6 1270/5/6 1280/5/6
f 1282/5/6 1270/5/6 1281/5/6
f 1283/5/6 1271/5/6 1261/5/6
f 1283/6/6 1272/6/6 1271/6/6
f 1284/5/6 1273/5/6 1272/5/6
f 1284/6/6 1272/6/6 1283/6/6
f 1285/5/6 1273/5/6 1284/5/6
f 1286/5/6 1273/5/6 1285/5/6
f 1287/6/6 1274/6/6 1273/6/6
f 1287/5/6 1273/5/6 1286/5/6
f 1288/5/6 1275/5/6 1274/5/6
f 1288/6/6 1274/6/6 1287/6/6
f 1289/6/6 1276/6/6 1275/6/6
f 1289/5/6 1275/5/6 1288/5/6
f 1290/5/6 1277/5/6 1276/5/6
f 1290/6/6 1276/6/6 1289/6/6
f 1291/5/6 1277/5/6 1290/5/6
f 1292/5/6 1277/5/6 1291/5/6
f 1293/6/6 1278/6/6 1277/6/6
f 1293/5/6 1277/5/6 1292/5/6
f 1294/5/6 1279/5/6 1278/5/6
f 1294/6/6 1278/6/6 1293/6/6
f 1295/5/6 1279/5/6 1294/5/6
f 1296/5/6 1279/5/6 1295/5/6
f 1297/6/6 1280/6/6 1279/6/6
f 1297/5/6 1279/5/6 1296/5/6
f 1298/5/6 1281/5/6 1280/5/6
f 1298/6/6 1280/6/6 1297/6/6
f 1299/6/6 1282/6/6 1281/6/6
f 1299/5/6 1281/5/6 1298/5/6
f 1300/5/6 1270/5/6 1282/5/6
f 1300/6/6 1282/6/6 1299/6/6
f 1301/6/6 1286/6/6 1285/6/6
f 1301/5/6 1284/5/6 1283/5/6
f 1301/5/6 1285/5/6 1284/5/6
f 1302/5/6 1287/5/6 1286/5/6
f 1302/6/6 1286/6/6 1301/6/6
f 1302/5/6 1288/5/6 1287/5/6
f 1302/5/6 1289/5/6 1288/5/6
f 1302/5/6 1291/5/6 1290/5/6
f 1302/5/6 1290/5/6 1289/5/6
f 1303/5/6 1291/5/6 1302/5/6
f 1304/5/6 1291/5/6 1303/5/6
f 1305/5/6 1291/5/6 1304/5/6
f 1306/5/6 1291/5/6 1305/5/6
f 1307/6/6 1292/6/6 1291/6/6
f 1307/5/6 1291/5/6 1306/5/6
f 1308/5/6 1294/5/6 1293/5/6
f 1308/6/6 1292/6/6 1307/6/6
f 1308/5/6 1295/5/6 1294/5/6
f 1308/5/6 1293/5/6 1292/5/6
f 1309/6/6 1296/6/6 1295/6/6
f 1309/5/6 1295/5/6 1308/5/6
f 1310/5/6 1299/5/6 1298/5/6
f 1310/6/6 1296/6/6 1309/6/6
f 1310/5/6 1298/5/6 1297/5/6
f 1310/5/6 1297/5/6 1296/5/6
f 1310/5/6 1300/5/6 1299/5/6
f 1311/5/6 1300/5/6 1310/5/6
f 1312/5/6 1300/5/6 1311/5/6
f 1313/5/6 1303/5/6 1302/5/6
f 1313/6/6 1304/6/6 1303/6/6
f 1313/5/6 1302/5/6 1301/5/6
f 1314/5/6 1305/5/6 1304/5/6
f 1314/6/6 1304/6/6 1313/6/6
f 1315/6/6 1306/6/6 1305/6/6
f 1315/5/6 1305/5/6 1314/5/6
f 1316/5/6 1309/5/6 1308/5/6
f 1316/6/6 1306/6/6 1315/6/6
f 1316/5/6 1307/5/6 1306/5/6
f 1316/5/6 1310/5/6 1309/5/6
f 1316/5/6 1311/5/6 1310/5/6
f 1316/5/6 1308/5/6 1307/5/6
f 1317/5/6 1311/5/6 1316/5/6
f 1318/5/6 1311/5/6 1317/5/6
f 1319/6/6 1312/6/6 1311/6/6
f 1319/5/6 1311/5/6 1318/5/6
f 1320/5/6 1300/5/6 1312/5/6
f 1320/6/6 1312/6/6 1319/6/6
f 1321/5/6 1270/5/6 1300/5/6
f 1321/5/6 1300/5/6 1320/5/6
f 1322/5/6 1270/5/6 1321/5/6
f 1323/5/6 1270/5/6 1322/5/6
f 1324/5/6 1270/5/6 1323/5/6
f 1325/5/6 1315/5/6 1314/5/6
f 1325/6/6 1318/6/6 1317/6/6
f 1325/5/6 1314/5/6 1313/5/6
f 1325/5/6 1316/5/6 1315/5/6
f 1325/5/6 1317/5/6 1316/5/6
f 1326/5/6 1319/5/6 1318/5/6
f 1326/6/6 1318/6/6 1325/6/6
f 1326/5/6 1320/5/6 1319/5/6
f 1326/5/6 1321/5/6 1320/5/6
f 1327/6/6 1322/6/6 1321/6/6
f 1327/5/6 1321/5/6 1326/5/6
f 1328/5/6 1323/5/6 1322/5/6
f 1328/6/6 1322/6/6 1327/6/6
f 1329/5/6 1261/5/6 1171/5/6
f 1329/5/6 1171/5/6 1139/5/6
f 1329/5/6 1328/5/6 1327/5/6
f 1329/5/6 1327/5/6 1326/5/6
f 1329/5/6 1313/5/6 1301/5/6
f 1329/5/6 1139/5/6 1115/5/6
f 1329/5/6 1301/5/6 1283/5/6
f 1329/5/6 1326/5/6 1325/5/6
f 1329/5/6 1283/5/6 1261/5/6
f 1329/5/6 1325/5/6 1313/5/6
f 1330/5/6 1328/5/6 1329/5/6
f 1331/5/6 1328/5/6 1330/5/6
f 1332/5/6 1328/5/6 1331/5/6
f 1333/5/6 1328/5/6 1332/5/6
f 1334/5/6 1328/5/6 1333/5/6
f 1335/5/6 1328/5/6 1334/5/6
f 1336/5/6 1328/5/6 1335/5/6
f 1337/5/6 1323/5/6 1328/5/6
f 1337/5/6 1328/5/6 1336/5/6
f 1337/6/6 1324/6/6 1323/6/6
f 1338/5/6 1270/5/6 1324/5/6
f 1338/6/6 1324/6/6 1337/6/6
f 1339/5/6 1331/5/6 1330/5/6
f 1340/5/6 1331/5/6 1339/5/6
f 1341/6/6 1332/6/6 1331/6/6
f 1341/5/6 1331/5/6 1340/5/6
f 1342/5/6 1333/5/6 1332/5/6
f 1342/6/6 1332/6/6 1341/6/6
f 1343/6/6 1334/6/6 1333/6/6
f 1343/5/6 1333/5/6 1342/5/6
f 1344/5/6 1335/5/6 1334/5/6
f 1344/6/6 1334/6/6 1343/6/6
f 1345/6/6 1336/6/6 1335/6/6
f 1345/5/6 1335/5/6 1344/5/6
f 1346/5/6 1337/5/6 1336/5/6
f 1346/6/6 1336/6/6 1345/6/6
f 1346/5/6 1338/5/6 1337/5/6
f 1347/5/6 1338/5/6 1346/5/6
f 1348/5/6 1338/5/6 1347/5/6
f 1349/5/6 1338/5/6 1348/5/6
f 1350/5/6 1338/5/6 1349/5/6
f 1351/5/6 1270/5/6 1338/5/6
f 1351/5/6 1338/5/6 1350/5/6
f 1352/5/6 1270/5/6 1351/5/6
f 1353/5/6 1329/5/6 1115/5/6
f 1353/6/6 1330/6/6 1329/6/6
f 1354/5/6 1339/5/6 1330/5/6
f 1354/6/6 1330/6/6 1353/6/6
f 1355/6/6 1340/6/6 1339/6/6
f 1355/5/6 1339/5/6 1354/5/6
f 1356/5/6 1344/5/6 1343/5/6
f 1356/6/6 1340/6/6 1355/6/6
f 1356/5/6 1343/5/6 1342/5/6
f 1356/5/6 1345/5/6 1344/5/6
f 1356/5/6 1341/5/6 1340/5/6
f 1356/5/6 1342/5/6 1341/5/6
f 1356/5/6 1347/5/6 1346/5/6
f 1356/5/6 1346/5/6 1345/5/6
f 1357/6/6 1348/6/6 1347/6/6
f 1357/5/6 1347/5/6 1356/5/6
f 1358/5/6 1349/5/6 1348/5/6
f 1358/6/6 1348/6/6 1357/6/6
f 1359/6/6 1350/6/6 1349/6/6
f 1359/5/6 1349/5/6 1358/5/6
f 1360/5/6 1351/5/6 1350/5/6
f 1360/6/6 1350/6/6 1359/6/6
f 1361/5/6 1351/5/6 1360/5/6
f 1362/5/6 1351/5/6 1361/5/6
f 1363/6/6 1352/6/6 1351/6/6
f 1363/5/6 1351/5/6 1362/5/6
f 1364/5/6 1270/5/6 1352/5/6
f 1364/6/6 1352/6/6 1363/6/6
f 1365/5/6 1355/5/6 1354/5/6
f 1365/5/6 1359/5/6 1358/5/6
f 1365/5/6 1357/5/6 1356/5/6
f 1365/5/6 1361/5/6 1360/5/6
f 1365/5/6 1360/5/6 1359/5/6
f 1365/5/6 1358/5/6 1357/5/6
f 1365/5/6 1356/5/6 1355/5/6
f 1365/5/6 1354/5/6 1353/5/6
f 1366/5/6 1361/5/6 1365/5/6
f 1367/5/6 1361/5/6 1366/5/6
f 1368/5/6 1361/5/6 1367/5/6
f 1369/6/6 1362/6/6 1361/6/6
f 1369/5/6 1361/5/6 1368/5/6
f 1370/5/6 1364/5/6 1363/5/6
f 1370/6/6 1362/6/6 1369/6/6
f 1370/5/6 1363/5/6 1362/5/6
f 1371/5/6 1365/5/6 1353/5/6
f 1371/6/6 1366/6/6 1365/6/6
f 1372/5/6 1367/5/6 1366/5/6
f 1372/6/6 1366/6/6 1371/6/6
f 1373/6/6 1368/6/6 1367/6/6
f 1373/5/6 1367/5/6 1372/5/6
f 1374/5/6 1369/5/6 1368/5/6
f 1374/6/6 1368/6/6 1373/6/6
f 1374/5/6 1370/5/6 1369/5/6
f 1375/5/6 1370/5/6 1374/5/6
f 1376/5/6 1370/5/6 1375/5/6
f 1377/5/6 1373/5/6 1372/5/6
f 1377/5/6 1372/5/6 1371/5/6
f 1377/5/6 1374/5/6 1373/5/6
f 1377/5/6 1375/5/6 1374/5/6
f 1378/5/6 1375/5/6 1377/5/6
f 1379/5/6 1375/5/6 1378/5/6
f 1380/5/6 1375/5/6 1379/5/6
f 1381/6/6 1376/6/6 1375/6/6
f 1381/5/6 1375/5/6 1380/5/6
f 1382/5/6 1370/5/6 1376/5/6
f 1382/6/6 1376/6/6 1381/6/6
f 1383/5/6 1377/5/6 1371/5/6
f 1383/6/6 1378/6/6 1377/6/6
f 1384/5/6 1379/5/6 1378/5/6
f 1384/6/6 1378/6/6 1383/6/6
f 1385/6/6 1380/6/6 1379/6/6
f 1385/5/6 1379/5/6 1384/5/6
f 1386/5/6 1381/5/6 1380/5/6
f 1386/6/6 1380/6/6 1385/6/6
f 1386/5/6 1382/5/6 1381/5/6
f 1387/5/6 1382/5/6 1386/5/6
f 1388/5/6 1382/5/6 1387/5/6
f 1389/5/6 1382/5/6 1388/5/6
f 1390/5/6 1382/5/6 1389/5/6
f 1391/5/6 1370/5/6 1382/5/6
f 1391/5/6 1382/5/6 1390/5/6
f 1392/5/6 1370/5/6 1391/5/6
f 1393/5/6 1270/5/6 1364/5/6
f 1393/5/6 1370/5/6 1392/5/6
f 1393/5/6 1364/5/6 1370/5/6
f 1394/5/6 1270/5/6 1393/5/6
f 1395/5/6 1385/5/6 1384/5/6
f 1395/5/6 1384/5/6 1383/5/6
f 1395/5/6 1386/5/6 1385/5/6
f 1395/5/6 1387/5/6 1386/5/6
f 1395/6/6 1388/6/6 1387/6/6
f 1396/5/6 1389/5/6 1388/5/6
f 1396/6/6 1388/6/6 1395/6/6
f 1397/6/6 1390/6/6 1389/6/6
f 1397/5/6 1389/5/6 1396/5/6
f 1398/5/6 1391/5/6 1390/5/6
f 1398/6/6 1390/6/6 1397/6/6
f 1399/5/6 1391/5/6 1398/5/6
f 1400/5/6 1391/5/6 1399/5/6
f 1401/6/6 1392/6/6 1391/6/6
f 1401/5/6 1391/5/6 1400/5/6
f 1402/5/6 1393/5/6 1392/5/6
f 1402/6/6 1392/6/6 1401/6/6
f 1403/5/6 1397/5/6 1396/5/6
f 1403/5/6 1396/5/6 1395/5/6
f 1403/5/6 1398/5/6 1397/5/6
f 1403/5/6 1399/5/6 1398/5/6
f 1404/5/6 1399/5/6 1403/5/6
f 1405/6/6 1400/6/6 1399/6/6
f 1405/5/6 1399/5/6 1404/5/6
f 1406/5/6 1402/5/6 1401/5/6
f 1406/6/6 1400/6/6 1405/6/6
f 1406/5/6 1401/5/6 1400/5/6
f 1407/6/6 1394/6/6 1393/6/6
f 1407/5/6 1402/5/6 1406/5/6
f 1407/5/6 1393/5/6 1402/5/6
f 1408/5/6 1270/5/6 1394/5/6
f 1408/6/6 1394/6/6 1407/6/6
f 1409/5/6 1403/5/6 1395/5/6
f 1410/5/6 1403/5/6 1409/5/6
f 1411/6/6 1404/6/6 1403/6/6
f 1411/5/6 1403/5/6 1410/5/6
f 1412/5/6 1407/5/6 1406/5/6
f 1412/6/6 1404/6/6 1411/6/6
f 1412/5/6 1406/5/6 1405/5/6
f 1412/5/6 1405/5/6 1404/5/6
f 1412/5/6 1408/5/6 1407/5/6
f 1413/5/6 1408/5/6 1412/5/6
f 1414/5/6 1408/5/6 1413/5/6
f 1415/6/6 1410/6/6 1409/6/6
f 1415/5/6 1409/5/6 1395/5/6
f 1416/5/6 1411/5/6 1410/5/6
f 1416/6/6 1410/6/6 1415/6/6
f 1416/5/6 1412/5/6 1411/5/6
f 1416/5/6 1413/5/6 1412/5/6
f 1417/6/6 1414/6/6 1413/6/6
f 1417/5/6 1413/5/6 1416/5/6
f 1418/5/6 1408/5/6 1414/5/6
f 1418/6/6 1414/6/6 1417/6/6
f 1419/5/6 1417/5/6 1416/5/6
f 1419/5/6 1408/5/6 1418/5/6
f 1419/5/6 1418/5/6 1417/5/6
f 1419/5/6 1416/5/6 1415/5/6
f 1420/5/6 1408/5/6 1419/5/6
f 1421/5/6 1383/5/6 1371/5/6
f 1421/5/6 1415/5/6 1395/5/6
f 1421/5/6 1395/5/6 1383/5/6
f 1421/5/6 1419/5/6 1415/5/6
f 1422/5/6 1419/5/6 1421/5/6
f 1423/6/6 1420/6/6 1419/6/6
f 1423/5/6 1419/5/6 1422/5/6
f 1424/5/6 1408/5/6 1420/5/6
f 1424/6/6 1420/6/6 1423/6/6
f 1425/6/6 1422/6/6 1421/6/6
f 1425/5/6 1421/5/6 1371/5/6
f 1426/5/6 1423/5/6 1422/5/6
f 1426/6/6 1422/6/6 1425/6/6
f 1426/5/6 1424/5/6 1423/5/6
f 1427/5/6 1425/5/6 1371/5/6
f 1427/5/6 1353/5/6 1115/5/6
f 1427/5/6 1426/5/6 1425/5/6
f 1427/5/6 1371/5/6 1353/5/6
f 1428/5/6 534/5/6 744/5/6
f 1428/5/6 1426/5/6 1427/5/6
f 1428/5/6 744/5/6 1270/5/6
f 1428/5/6 1424/5/6 1426/5/6
f 1428/5/6 1270/5/6 1408/5/6
f 1428/5/6 1408/5/6 1424/5/6
f 1431/2/6 1430/2/6 1429/2/6
f 1432/2/6 1430/2/6 1431/2/6
f 1446/2/6 1431/2/6 1429/2/6
f 1447/2/6 1434/2/6 1433/2/6
f 1448/2/6 1434/2/6 1447/2/6
f 1449/2/6 1436/2/6 1435/2/6
f 1450/2/6 1436/2/6 1449/2/6
f 1451/2/6 1438/2/6 1437/2/6
f 1452/2/6 1438/2/6 1451/2/6
f 1453/2/6 1440/2/6 1439/2/6
f 1454/2/6 1440/2/6 1453/2/6
f 1455/2/6 1442/2/6 1441/2/6
f 1456/2/6 1442/2/6 1455/2/6
f 1457/2/6 1444/2/6 1443/2/6
f 1458/2/6 1444/2/6 1457/2/6
f 1459/2/6 1446/2/6 1445/2/6
f 1460/2/6 1431/2/6 1446/2/6
f 1460/2/6 1446/2/6 1459/2/6
f 1462/2/6 1434/2/6 1448/2/6
f 1463/2/6 1449/2/6 1435/2/6
f 1464/2/6 1436/2/6 1450/2/6
f 1465/2/6 1451/2/6 1437/2/6
f 1466/2/6 1438/2/6 1452/2/6
f 1467/2/6 1453/2/6 1439/2/6
f 1468/2/6 1440/2/6 1454/2/6
f 1469/2/6 1455/2/6 1441/2/6
f 1470/2/6 1442/2/6 1456/2/6
f 1471/2/6 1457/2/6 1443/2/6
f 1472/2/6 1444/2/6 1458/2/6
f 1473/2/6 1459/2/6 1445/2/6
f 1474/2/6 1430/2/6 1432/2/6
f 1475/2/6 1462/2/6 1461/2/6
f 1476/2/6 1434/2/6 1462/2/6
f 1476/2/6 1462/2/6 1475/2/6
f 1477/2/6 1463/2/6 1435/2/6
f 1477/2/6 1464/2/6 1463/2/6
f 1478/2/6 1436/2/6 1464/2/6
f 1478/2/6 1464/2/6 1477/2/6
f 1479/2/6 1466/2/6 1465/2/6
f 1479/2/6 1465/2/6 1437/2/6
f 1480/2/6 1438/2/6 1466/2/6
f 1480/2/6 1466/2/6 1479/2/6
f 1481/2/6 1467/2/6 1439/2/6
f 1481/2/6 1468/2/6 1467/2/6
f 1482/2/6 1440/2/6 1468/2/6
f 1482/2/6 1468/2/6 1481/2/6
f 1483/2/6 1469/2/6 1441/2/6
f 1483/2/6 1470/2/6 1469/2/6
f 1484/2/6 1442/2/6 1470/2/6
f 1484/2/6 1470/2/6 1483/2/6
f 1485/2/6 1471/2/6 1443/2/6
f 1485/2/6 1472/2/6 1471/2/6
f 1486/2/6 1444/2/6 1472/2/6
f 1486/2/6 1472/2/6 1485/2/6
f 1487/2/6 1473/2/6 1445/2/6
f 1487/2/6 1474/2/6 1473/2/6
f 1488/2/6 1430/2/6 1474/2/6
f 1488/2/6 1474/2/6 1487/2/6
f 1494/3/6 1490/3/6 1489/3/6
f 1495/3/6 1494/3/6 1493/3/6
f 1496/3/6 1490/3/6 1494/3/6
f 1496/3/6 1494/3/6 1495/3/6
f 1498/3/6 1492/3/6 1491/3/6
f 1499/3/6 1498/3/6 1497/3/6
f 1500/3/6 1492/3/6 1498/3/6
f 1500/3/6 1498/3/6 1499/3/6
f 1516/4/6 1502/4/6 1501/4/6
f 1517/4/6 1504/4/6 1503/4/6
f 1518/4/6 1504/4/6 1517/4/6
f 1519/4/6 1506/4/6 1505/4/6
f 1520/4/6 1506/4/6 1519/4/6
f 1521/4/6 1508/4/6 1507/4/6
f 1522/4/6 1508/4/6 1521/4/6
f 1523/4/6 1510/4/6 1509/4/6
f 1524/4/6 1510/4/6 1523/4/6
f 1525/4/6 1512/4/6 1511/4/6
f 1526/4/6 1512/4/6 1525/4/6
f 1527/4/6 1514/4/6 1513/4/6
f 1528/4/6 1514/4/6 1527/4/6
f 1529/4/6 1516/4/6 1515/4/6
f 1530/4/6 1502/4/6 1516/4/6
f 1530/4/6 1516/4/6 1529/4/6
f 1536/3/6 1532/3/6 1531/3/6
f 1537/3/6 1536/3/6 1535/3/6
f 1538/3/6 1532/3/6 1536/3/6
f 1538/3/6 1536/3/6 1537/3/6
f 1540/3/6 1534/3/6 1533/3/6
f 1541/3/6 1540/3/6 1539/3/6
f 1542/3/6 1534/3/6 1540/3/6
f 1542/3/6 1540/3/6 1541/3/6
f 1548/3/6 1544/3/6 1543/3/6
f 1549/3/6 1548/3/6 1547/3/6
f 1550/3/6 1544/3/6 1548/3/6
f 1550/3/6 1548/3/6 1549/3/6
f 1552/3/6 1546/3/6 1545/3/6
f 1553/3/6 1552/3/6 1551/3/6
f 1554/3/6 1546/3/6 1552/3/6
f 1554/3/6 1552/3/6 1553/3/6
f 1560/3/6 1556/3/6 1555/3/6
f 1561/3/6 1560/3/6 1559/3/6
f 1562/3/6 1556/3/6 1560/3/6
f 1562/3/6 1560/3/6 1561/3/6
f 1564/3/6 1558/3/6 1557/3/6
f 1565/3/6 1564/3/6 1563/3/6
f 1566/3/6 1558/3/6 1564/3/6
f 1566/3/6 1564/3/6 1565/3/6
f 1572/3/6 1568/3/6 1567/3/6
f 1573/3/6 1572/3/6 1571/3/6
f 1574/3/6 1568/3/6 1572/3/6
f 1574/3/6 1572/3/6 1573/3/6
f 1576/3/6 1570/3/6 1569/3/6
f 1577/3/6 1576/3/6 1575/3/6
f 1578/3/6 1570/3/6 1576/3/6
f 1578/3/6 1576/3/6 1577/3/6
f 1582/3/6 1580/3/6 1579/3/6
f 1583/3/6 1582/3/6 1581/3/6
f 1584/3/6 1580/3/6 1582/3/6
f 1584/3/6 1582/3/6 1583/3/6
