# MagicaVoxel @ Ephtracy

# group
o 

# material
mtllib Map-20.mtl
usemtl palette

# normals
vn -1 0 0
vn 1 0 0
vn 0 0 1
vn 0 0 -1
vn 0 -1 0
vn 0 1 0

# texcoords
vt 0.00195312 0.5
vt 0.0605469 0.5
vt 0.0957031 0.5
vt 0.158203 0.5
vt 0.162109 0.5
vt 0.166016 0.5
vt 0.201172 0.5
vt 0.205078 0.5
vt 0.208984 0.5

# verts
v 12 0 -3.4
v 12 0 -10
v 12 0 -12.5
v 12 0 -24
v 12 0.1 -3.4
v 12 0.1 -3.6
v 12 0.2 -3.6
v 12 0.2 -9.8
v 12 0.2 -10
v 12 0.2 -12.5
v 12 0.2 -12.7
v 12 0.2 -24
v 12 0.3 -9.8
v 12 0.3 -10
v 12 0.3 -12.5
v 12 0.3 -12.7
v 12.2 0.2 -4.4
v 12.2 0.2 -6
v 12.2 0.2 -6.3
v 12.2 0.2 -7.9
v 12.2 0.2 -8.2
v 12.2 0.2 -9.3
v 12.2 0.2 -13.2
v 12.2 0.2 -14.3
v 12.2 0.2 -14.6
v 12.2 0.2 -16.2
v 12.2 0.2 -16.5
v 12.2 0.2 -18.1
v 12.2 0.2 -18.4
v 12.2 0.2 -20
v 12.2 0.2 -20.3
v 12.2 0.2 -21.9
v 12.2 0.2 -22.2
v 12.2 0.2 -23.8
v 12.2 0.3 -4.4
v 12.2 0.3 -6
v 12.2 0.3 -6.3
v 12.2 0.3 -7.9
v 12.2 0.3 -8.2
v 12.2 0.3 -9.3
v 12.2 0.3 -13.2
v 12.2 0.3 -14.3
v 12.2 0.3 -14.6
v 12.2 0.3 -16.2
v 12.2 0.3 -16.5
v 12.2 0.3 -18.1
v 12.2 0.3 -18.4
v 12.2 0.3 -20
v 12.2 0.3 -20.3
v 12.2 0.3 -21.9
v 12.2 0.3 -22.2
v 12.2 0.3 -23.8
v 12.3 0.3 -4.5
v 12.3 0.3 -5.9
v 12.3 0.3 -6.4
v 12.3 0.3 -7.8
v 12.3 0.3 -8.3
v 12.3 0.3 -9.2
v 12.3 0.3 -13.3
v 12.3 0.3 -14.2
v 12.3 0.3 -14.7
v 12.3 0.3 -16.1
v 12.3 0.3 -16.6
v 12.3 0.3 -18
v 12.3 0.3 -18.5
v 12.3 0.3 -19.9
v 12.3 0.3 -20.4
v 12.3 0.3 -21.8
v 12.3 0.3 -22.3
v 12.3 0.3 -23.7
v 12.3 1.2 -4.5
v 12.3 1.2 -5.9
v 12.3 1.2 -6.4
v 12.3 1.2 -7.8
v 12.3 1.2 -8.3
v 12.3 1.2 -9.2
v 12.3 1.2 -13.3
v 12.3 1.2 -14.2
v 12.3 1.2 -14.7
v 12.3 1.2 -16.1
v 12.3 1.2 -16.6
v 12.3 1.2 -18
v 12.3 1.2 -18.5
v 12.3 1.2 -19.9
v 12.3 1.2 -20.4
v 12.3 1.2 -21.8
v 12.3 1.2 -22.3
v 12.3 1.2 -23.7
v 13.1 2.7 -4
v 13.1 2.7 -9.7
v 13.1 2.7 -12.8
v 13.1 2.7 -24
v 13.1 2.9 -4
v 13.1 2.9 -9.7
v 13.1 2.9 -12.8
v 13.1 2.9 -24
v 13.2 0.2 -4.1
v 13.2 0.2 -9.6
v 13.2 0.2 -12.9
v 13.2 0.2 -24
v 13.2 0.5 -4.1
v 13.2 0.5 -9.6
v 13.2 0.5 -12.9
v 13.2 0.5 -24
v 13.2 2.9 -4.1
v 13.2 2.9 -9.6
v 13.2 2.9 -12.9
v 13.2 2.9 -24
v 13.2 3 -4.1
v 13.2 3 -9.6
v 13.2 3 -12.9
v 13.2 3 -24
v 13.3 0.5 -4.2
v 13.3 0.5 -9.5
v 13.3 0.5 -13
v 13.3 0.5 -24
v 13.3 2.8 -4.2
v 13.3 2.8 -9.5
v 13.3 2.8 -13
v 13.3 2.8 -24
v 13.3 3 -4.2
v 13.3 3 -9.5
v 13.3 3 -13
v 13.3 3 -24
v 13.3 3.1 -4.2
v 13.3 3.1 -9.5
v 13.3 3.1 -13
v 13.3 3.1 -24
v 13.4 3.1 -4.3
v 13.4 3.1 -9.4
v 13.4 3.1 -13.1
v 13.4 3.1 -24
v 13.4 3.2 -4.3
v 13.4 3.2 -9.4
v 13.4 3.2 -13.1
v 13.4 3.2 -24
v 13.5 3.2 -4.4
v 13.5 3.2 -9.3
v 13.5 3.2 -13.2
v 13.5 3.2 -24
v 13.5 3.3 -4.4
v 13.5 3.3 -9.3
v 13.5 3.3 -13.2
v 13.5 3.3 -24
v 14.5 2.7 -5.3
v 14.5 2.7 -5.4
v 14.5 2.7 -5.5
v 14.5 2.7 -9.6
v 14.5 2.7 -12.9
v 14.5 2.7 -24
v 14.5 2.8 -5.3
v 14.5 2.8 -5.4
v 14.5 2.8 -5.5
v 14.5 2.8 -9.6
v 14.5 2.8 -12.9
v 14.5 2.8 -24
v 12.9 0.3 -4.5
v 12.9 0.3 -5.9
v 12.9 0.3 -6.4
v 12.9 0.3 -7.8
v 12.9 0.3 -8.3
v 12.9 0.3 -9.2
v 12.9 0.3 -13.3
v 12.9 0.3 -14.2
v 12.9 0.3 -14.7
v 12.9 0.3 -16.1
v 12.9 0.3 -16.6
v 12.9 0.3 -18
v 12.9 0.3 -18.5
v 12.9 0.3 -19.9
v 12.9 0.3 -20.4
v 12.9 0.3 -21.8
v 12.9 0.3 -22.3
v 12.9 0.3 -23.7
v 12.9 1.2 -4.5
v 12.9 1.2 -5.9
v 12.9 1.2 -6.4
v 12.9 1.2 -7.8
v 12.9 1.2 -8.3
v 12.9 1.2 -9.2
v 12.9 1.2 -13.3
v 12.9 1.2 -14.2
v 12.9 1.2 -14.7
v 12.9 1.2 -16.1
v 12.9 1.2 -16.6
v 12.9 1.2 -18
v 12.9 1.2 -18.5
v 12.9 1.2 -19.9
v 12.9 1.2 -20.4
v 12.9 1.2 -21.8
v 12.9 1.2 -22.3
v 12.9 1.2 -23.7
v 13 0.2 -4.4
v 13 0.2 -6
v 13 0.2 -6.3
v 13 0.2 -7.9
v 13 0.2 -8.2
v 13 0.2 -9.3
v 13 0.2 -13.2
v 13 0.2 -14.3
v 13 0.2 -14.6
v 13 0.2 -16.2
v 13 0.2 -16.5
v 13 0.2 -18.1
v 13 0.2 -18.4
v 13 0.2 -20
v 13 0.2 -20.3
v 13 0.2 -21.9
v 13 0.2 -22.2
v 13 0.2 -23.8
v 13 0.3 -4.4
v 13 0.3 -6
v 13 0.3 -6.3
v 13 0.3 -7.9
v 13 0.3 -8.2
v 13 0.3 -9.3
v 13 0.3 -13.2
v 13 0.3 -14.3
v 13 0.3 -14.6
v 13 0.3 -16.2
v 13 0.3 -16.5
v 13 0.3 -18.1
v 13 0.3 -18.4
v 13 0.3 -20
v 13 0.3 -20.3
v 13 0.3 -21.9
v 13 0.3 -22.2
v 13 0.3 -23.8
v 13.2 2.7 -4.1
v 13.2 2.7 -9.6
v 13.2 2.7 -12.9
v 13.2 2.7 -24
v 13.2 2.8 -4.1
v 13.2 2.8 -9.6
v 13.2 2.8 -12.9
v 13.2 2.8 -24
v 14.2 3.2 -5.1
v 14.2 3.2 -9.3
v 14.2 3.2 -13.2
v 14.2 3.2 -24
v 14.2 3.3 -5.1
v 14.2 3.3 -9.3
v 14.2 3.3 -13.2
v 14.2 3.3 -24
v 14.3 3.1 -5.2
v 14.3 3.1 -9.4
v 14.3 3.1 -13.1
v 14.3 3.1 -24
v 14.3 3.2 -5.2
v 14.3 3.2 -9.4
v 14.3 3.2 -13.1
v 14.3 3.2 -24
v 14.4 0.5 -5.3
v 14.4 0.5 -9.5
v 14.4 0.5 -13
v 14.4 0.5 -24
v 14.4 2.7 -5.4
v 14.4 2.7 -5.5
v 14.4 2.8 -5.3
v 14.4 2.8 -5.4
v 14.4 2.8 -5.5
v 14.4 2.8 -9.5
v 14.4 2.8 -13
v 14.4 2.8 -24
v 14.4 3 -5.3
v 14.4 3 -9.5
v 14.4 3 -13
v 14.4 3 -24
v 14.4 3.1 -5.3
v 14.4 3.1 -9.5
v 14.4 3.1 -13
v 14.4 3.1 -24
v 14.5 0.2 -5.4
v 14.5 0.2 -9.6
v 14.5 0.2 -12.9
v 14.5 0.2 -24
v 14.5 0.5 -5.4
v 14.5 0.5 -9.6
v 14.5 0.5 -12.9
v 14.5 0.5 -24
v 14.5 2.9 -5.4
v 14.5 2.9 -9.6
v 14.5 2.9 -12.9
v 14.5 2.9 -24
v 14.5 3 -5.4
v 14.5 3 -9.6
v 14.5 3 -12.9
v 14.5 3 -24
v 14.6 2.7 -5.3
v 14.6 2.7 -5.4
v 14.6 2.7 -5.5
v 14.6 2.7 -9.7
v 14.6 2.7 -12.8
v 14.6 2.7 -24
v 14.6 2.8 -5.3
v 14.6 2.8 -5.4
v 14.6 2.9 -5.5
v 14.6 2.9 -9.7
v 14.6 2.9 -12.8
v 14.6 2.9 -24
v 24 0 -3.4
v 24 0 -24
v 24 0.1 -3.4
v 24 0.1 -3.6
v 24 0.1 -10
v 24 0.1 -12.5
v 24 0.2 -3.6
v 24 0.2 -4.1
v 24 0.2 -5.4
v 24 0.2 -9.8
v 24 0.2 -10
v 24 0.2 -12.5
v 24 0.2 -12.7
v 24 0.2 -24
v 24 0.3 -9.8
v 24 0.3 -10
v 24 0.3 -12.5
v 24 0.3 -12.7
v 24 0.5 -4.1
v 24 0.5 -4.2
v 24 0.5 -5.3
v 24 0.5 -5.4
v 24 2.7 -4
v 24 2.7 -4.1
v 24 2.7 -5.4
v 24 2.7 -5.5
v 24 2.8 -4.1
v 24 2.8 -4.2
v 24 2.8 -5.3
v 24 2.8 -5.4
v 24 2.9 -4
v 24 2.9 -4.1
v 24 2.9 -5.4
v 24 2.9 -5.5
v 24 3 -4.1
v 24 3 -4.2
v 24 3 -5.3
v 24 3 -5.4
v 24 3.1 -4.2
v 24 3.1 -4.3
v 24 3.1 -5.2
v 24 3.1 -5.3
v 24 3.2 -4.3
v 24 3.2 -4.4
v 24 3.2 -5.1
v 24 3.2 -5.2
v 24 3.3 -4.4
v 24 3.3 -5.1
v 12 0 -3.4
v 12 0.1 -3.4
v 24 0 -3.4
v 24 0.1 -3.4
v 12 0.1 -3.6
v 12 0.2 -3.6
v 17.4 0.1 -3.6
v 17.4 0.2 -3.6
v 17.6 0.1 -3.6
v 17.6 0.2 -3.6
v 18.3 0.1 -3.6
v 18.3 0.2 -3.6
v 18.6 0.1 -3.6
v 18.6 0.2 -3.6
v 19 0.1 -3.6
v 19 0.2 -3.6
v 19.2 0.1 -3.6
v 19.2 0.2 -3.6
v 19.7 0.1 -3.6
v 19.7 0.2 -3.6
v 19.8 0.1 -3.6
v 19.8 0.2 -3.6
v 20.7 0.1 -3.6
v 20.9 0.1 -3.6
v 21.5 0.1 -3.6
v 21.8 0.1 -3.6
v 22.4 0.1 -3.6
v 22.4 0.2 -3.6
v 23.1 0.1 -3.6
v 23.1 0.2 -3.6
v 23.2 0.1 -3.6
v 23.3 0.1 -3.6
v 24 0.1 -3.6
v 24 0.2 -3.6
v 13.1 2.7 -4
v 13.1 2.9 -4
v 24 2.7 -4
v 24 2.9 -4
v 13.2 0.2 -4.1
v 13.2 0.5 -4.1
v 13.2 2.9 -4.1
v 13.2 3 -4.1
v 24 0.2 -4.1
v 24 0.5 -4.1
v 24 2.9 -4.1
v 24 3 -4.1
v 13.3 0.5 -4.2
v 13.3 2.8 -4.2
v 13.3 3 -4.2
v 13.3 3.1 -4.2
v 24 0.5 -4.2
v 24 2.8 -4.2
v 24 3 -4.2
v 24 3.1 -4.2
v 13.4 3.1 -4.3
v 13.4 3.2 -4.3
v 24 3.1 -4.3
v 24 3.2 -4.3
v 12.2 0.2 -4.4
v 12.2 0.3 -4.4
v 12.3 0.2 -4.4
v 13 0.2 -4.4
v 13 0.3 -4.4
v 13.5 3.2 -4.4
v 13.5 3.3 -4.4
v 24 3.2 -4.4
v 24 3.3 -4.4
v 12.3 0.3 -4.5
v 12.3 1.2 -4.5
v 12.9 0.3 -4.5
v 12.9 1.2 -4.5
v 14.4 2.7 -5.4
v 14.4 2.8 -5.4
v 14.5 2.7 -5.4
v 14.5 2.8 -5.4
v 14.6 2.7 -5.4
v 14.6 2.8 -5.4
v 24 2.7 -5.4
v 24 2.8 -5.4
v 12.2 0.2 -6.3
v 12.2 0.3 -6.3
v 13 0.2 -6.3
v 13 0.3 -6.3
v 12.3 0.3 -6.4
v 12.3 1.2 -6.4
v 12.9 0.3 -6.4
v 12.9 1.2 -6.4
v 12.2 0.2 -8.2
v 12.2 0.3 -8.2
v 13 0.2 -8.2
v 13 0.3 -8.2
v 12.3 0.3 -8.3
v 12.3 1.2 -8.3
v 12.9 0.3 -8.3
v 12.9 1.2 -8.3
v 13.2 2.7 -9.6
v 13.2 2.8 -9.6
v 14.5 2.7 -9.6
v 14.5 2.8 -9.6
v 12 0.2 -9.8
v 12 0.3 -9.8
v 24 0.2 -9.8
v 24 0.3 -9.8
v 12 0.2 -12.5
v 12 0.3 -12.5
v 14.6 0.2 -12.5
v 15.5 0.2 -12.5
v 21.8 0.2 -12.5
v 22.9 0.2 -12.5
v 24 0.2 -12.5
v 24 0.3 -12.5
v 13.1 2.7 -12.8
v 13.1 2.9 -12.8
v 14.6 2.7 -12.8
v 14.6 2.9 -12.8
v 13.2 0.2 -12.9
v 13.2 0.5 -12.9
v 13.2 2.9 -12.9
v 13.2 3 -12.9
v 14.5 0.2 -12.9
v 14.5 0.5 -12.9
v 14.5 2.9 -12.9
v 14.5 3 -12.9
v 13.3 0.5 -13
v 13.3 2.8 -13
v 13.3 3 -13
v 13.3 3.1 -13
v 14.4 0.5 -13
v 14.4 2.8 -13
v 14.4 3 -13
v 14.4 3.1 -13
v 13.4 3.1 -13.1
v 13.4 3.2 -13.1
v 14.3 3.1 -13.1
v 14.3 3.2 -13.1
v 12.2 0.2 -13.2
v 12.2 0.3 -13.2
v 13 0.2 -13.2
v 13 0.3 -13.2
v 13.5 3.2 -13.2
v 13.5 3.3 -13.2
v 14.2 3.2 -13.2
v 14.2 3.3 -13.2
v 12.3 0.3 -13.3
v 12.3 1.2 -13.3
v 12.9 0.3 -13.3
v 12.9 1.2 -13.3
v 12.2 0.2 -14.6
v 12.2 0.3 -14.6
v 13 0.2 -14.6
v 13 0.3 -14.6
v 12.3 0.3 -14.7
v 12.3 1.2 -14.7
v 12.9 0.3 -14.7
v 12.9 1.2 -14.7
v 12.2 0.2 -16.5
v 12.2 0.3 -16.5
v 13 0.2 -16.5
v 13 0.3 -16.5
v 12.3 0.3 -16.6
v 12.3 1.2 -16.6
v 12.9 0.3 -16.6
v 12.9 1.2 -16.6
v 12.2 0.2 -18.4
v 12.2 0.3 -18.4
v 13 0.2 -18.4
v 13 0.3 -18.4
v 12.3 0.3 -18.5
v 12.3 1.2 -18.5
v 12.9 0.3 -18.5
v 12.9 1.2 -18.5
v 12.2 0.2 -20.3
v 12.2 0.3 -20.3
v 13 0.2 -20.3
v 13 0.3 -20.3
v 12.3 0.3 -20.4
v 12.3 1.2 -20.4
v 12.9 0.3 -20.4
v 12.9 1.2 -20.4
v 12.2 0.2 -22.2
v 12.2 0.3 -22.2
v 13 0.2 -22.2
v 13 0.3 -22.2
v 12.3 0.3 -22.3
v 12.3 1.2 -22.3
v 12.9 0.3 -22.3
v 12.9 1.2 -22.3
v 13.2 2.7 -4.1
v 13.2 2.8 -4.1
v 24 2.7 -4.1
v 24 2.8 -4.1
v 14.2 3.2 -5.1
v 14.2 3.3 -5.1
v 24 3.2 -5.1
v 24 3.3 -5.1
v 14.3 3.1 -5.2
v 14.3 3.2 -5.2
v 24 3.1 -5.2
v 24 3.2 -5.2
v 14.4 0.5 -5.3
v 14.4 2.8 -5.3
v 14.4 3 -5.3
v 14.4 3.1 -5.3
v 14.5 2.7 -5.3
v 14.5 2.8 -5.3
v 14.6 2.7 -5.3
v 14.6 2.8 -5.3
v 24 0.5 -5.3
v 24 2.8 -5.3
v 24 3 -5.3
v 24 3.1 -5.3
v 14.5 0.2 -5.4
v 14.5 0.5 -5.4
v 14.5 2.9 -5.4
v 14.5 3 -5.4
v 24 0.2 -5.4
v 24 0.5 -5.4
v 24 2.9 -5.4
v 24 3 -5.4
v 14.4 2.7 -5.5
v 14.4 2.8 -5.5
v 14.5 2.7 -5.5
v 14.5 2.8 -5.5
v 14.6 2.7 -5.5
v 14.6 2.9 -5.5
v 24 2.7 -5.5
v 24 2.9 -5.5
v 12.3 0.3 -5.9
v 12.3 1.2 -5.9
v 12.9 0.3 -5.9
v 12.9 1.2 -5.9
v 12.2 0.2 -6
v 12.2 0.3 -6
v 13 0.2 -6
v 13 0.3 -6
v 12.3 0.3 -7.8
v 12.3 1.2 -7.8
v 12.9 0.3 -7.8
v 12.9 1.2 -7.8
v 12.2 0.2 -7.9
v 12.2 0.3 -7.9
v 13 0.2 -7.9
v 13 0.3 -7.9
v 12.3 0.3 -9.2
v 12.3 1.2 -9.2
v 12.9 0.3 -9.2
v 12.9 1.2 -9.2
v 12.2 0.2 -9.3
v 12.2 0.3 -9.3
v 13 0.2 -9.3
v 13 0.3 -9.3
v 13.5 3.2 -9.3
v 13.5 3.3 -9.3
v 14.2 3.2 -9.3
v 14.2 3.3 -9.3
v 13.4 3.1 -9.4
v 13.4 3.2 -9.4
v 14.3 3.1 -9.4
v 14.3 3.2 -9.4
v 13.3 0.5 -9.5
v 13.3 2.8 -9.5
v 13.3 3 -9.5
v 13.3 3.1 -9.5
v 14.4 0.5 -9.5
v 14.4 2.8 -9.5
v 14.4 3 -9.5
v 14.4 3.1 -9.5
v 13.2 0.2 -9.6
v 13.2 0.5 -9.6
v 13.2 2.9 -9.6
v 13.2 3 -9.6
v 14.5 0.2 -9.6
v 14.5 0.5 -9.6
v 14.5 2.9 -9.6
v 14.5 3 -9.6
v 13.1 2.7 -9.7
v 13.1 2.9 -9.7
v 14.6 2.7 -9.7
v 14.6 2.9 -9.7
v 12 0.2 -10
v 12 0.3 -10
v 14.4 0.2 -10
v 15.3 0.2 -10
v 24 0.2 -10
v 24 0.3 -10
v 12 0.2 -12.7
v 12 0.3 -12.7
v 24 0.2 -12.7
v 24 0.3 -12.7
v 13.2 2.7 -12.9
v 13.2 2.8 -12.9
v 14.5 2.7 -12.9
v 14.5 2.8 -12.9
v 12.3 0.3 -14.2
v 12.3 1.2 -14.2
v 12.9 0.3 -14.2
v 12.9 1.2 -14.2
v 12.2 0.2 -14.3
v 12.2 0.3 -14.3
v 13 0.2 -14.3
v 13 0.3 -14.3
v 12.3 0.3 -16.1
v 12.3 1.2 -16.1
v 12.9 0.3 -16.1
v 12.9 1.2 -16.1
v 12.2 0.2 -16.2
v 12.2 0.3 -16.2
v 13 0.2 -16.2
v 13 0.3 -16.2
v 12.3 0.3 -18
v 12.3 1.2 -18
v 12.9 0.3 -18
v 12.9 1.2 -18
v 12.2 0.2 -18.1
v 12.2 0.3 -18.1
v 13 0.2 -18.1
v 13 0.3 -18.1
v 12.3 0.3 -19.9
v 12.3 1.2 -19.9
v 12.9 0.3 -19.9
v 12.9 1.2 -19.9
v 12.2 0.2 -20
v 12.2 0.3 -20
v 13 0.2 -20
v 13 0.3 -20
v 12.3 0.3 -21.8
v 12.3 1.2 -21.8
v 12.9 0.3 -21.8
v 12.9 1.2 -21.8
v 12.2 0.2 -21.9
v 12.2 0.3 -21.9
v 13 0.2 -21.9
v 13 0.3 -21.9
v 12.3 0.3 -23.7
v 12.3 1.2 -23.7
v 12.9 0.3 -23.7
v 12.9 1.2 -23.7
v 12.2 0.2 -23.8
v 12.2 0.3 -23.8
v 13 0.2 -23.8
v 13 0.3 -23.8
v 12 0 -24
v 12 0.2 -24
v 13.1 2.7 -24
v 13.1 2.9 -24
v 13.2 0.1 -24
v 13.2 0.2 -24
v 13.2 0.5 -24
v 13.2 2.7 -24
v 13.2 2.8 -24
v 13.2 2.9 -24
v 13.2 3 -24
v 13.3 0.1 -24
v 13.3 0.2 -24
v 13.3 0.5 -24
v 13.3 2.8 -24
v 13.3 3 -24
v 13.3 3.1 -24
v 13.4 3.1 -24
v 13.4 3.2 -24
v 13.5 3.2 -24
v 13.5 3.3 -24
v 14.2 3.2 -24
v 14.2 3.3 -24
v 14.3 3.1 -24
v 14.3 3.2 -24
v 14.4 0.5 -24
v 14.4 2.8 -24
v 14.4 3 -24
v 14.4 3.1 -24
v 14.5 0.2 -24
v 14.5 0.5 -24
v 14.5 2.7 -24
v 14.5 2.8 -24
v 14.5 2.9 -24
v 14.5 3 -24
v 14.6 2.7 -24
v 14.6 2.9 -24
v 24 0 -24
v 24 0.2 -24
v 12 0 -3.4
v 24 0 -3.4
v 19.7 0 -3.5
v 19.8 0 -3.5
v 20.7 0 -3.5
v 20.9 0 -3.5
v 21.5 0 -3.5
v 21.8 0 -3.5
v 23.2 0 -3.5
v 23.3 0 -3.5
v 20.7 0 -3.6
v 20.9 0 -3.6
v 21.5 0 -3.6
v 21.8 0 -3.6
v 23.2 0 -3.6
v 23.3 0 -3.6
v 19.7 0 -3.7
v 19.8 0 -3.7
v 12 0 -10
v 13.3 0 -10
v 12 0 -12.5
v 13.3 0 -12.5
v 12 0 -24
v 24 0 -24
v 13.1 2.7 -4
v 24 2.7 -4
v 13.2 2.7 -4.1
v 24 2.7 -4.1
v 14.5 2.7 -5.3
v 14.6 2.7 -5.3
v 14.4 2.7 -5.4
v 14.5 2.7 -5.4
v 14.6 2.7 -5.4
v 24 2.7 -5.4
v 14.4 2.7 -5.5
v 14.5 2.7 -5.5
v 14.6 2.7 -5.5
v 24 2.7 -5.5
v 13.2 2.7 -9.6
v 14.5 2.7 -9.6
v 13.1 2.7 -9.7
v 14.6 2.7 -9.7
v 13.1 2.7 -12.8
v 14.6 2.7 -12.8
v 13.2 2.7 -12.9
v 14.5 2.7 -12.9
v 13.1 2.7 -24
v 13.2 2.7 -24
v 14.5 2.7 -24
v 14.6 2.7 -24
v 13.2 2.8 -4.1
v 24 2.8 -4.1
v 13.3 2.8 -4.2
v 24 2.8 -4.2
v 14.4 2.8 -5.3
v 14.5 2.8 -5.3
v 14.6 2.8 -5.3
v 24 2.8 -5.3
v 14.4 2.8 -5.4
v 14.5 2.8 -5.4
v 14.6 2.8 -5.4
v 24 2.8 -5.4
v 14.4 2.8 -5.5
v 14.5 2.8 -5.5
v 13.3 2.8 -9.5
v 14.4 2.8 -9.5
v 13.2 2.8 -9.6
v 14.5 2.8 -9.6
v 13.2 2.8 -12.9
v 14.5 2.8 -12.9
v 13.3 2.8 -13
v 14.4 2.8 -13
v 13.2 2.8 -24
v 13.3 2.8 -24
v 14.4 2.8 -24
v 14.5 2.8 -24
v 12 0.1 -3.4
v 24 0.1 -3.4
v 19.7 0.1 -3.5
v 19.8 0.1 -3.5
v 20.7 0.1 -3.5
v 20.9 0.1 -3.5
v 21.5 0.1 -3.5
v 21.8 0.1 -3.5
v 23.2 0.1 -3.5
v 23.3 0.1 -3.5
v 12 0.1 -3.6
v 17.4 0.1 -3.6
v 17.6 0.1 -3.6
v 18.3 0.1 -3.6
v 18.6 0.1 -3.6
v 19 0.1 -3.6
v 19.2 0.1 -3.6
v 19.7 0.1 -3.6
v 19.8 0.1 -3.6
v 20.7 0.1 -3.6
v 20.9 0.1 -3.6
v 21.5 0.1 -3.6
v 21.8 0.1 -3.6
v 22.4 0.1 -3.6
v 23.1 0.1 -3.6
v 23.2 0.1 -3.6
v 23.3 0.1 -3.6
v 24 0.1 -3.6
v 12 0.2 -3.6
v 17.4 0.2 -3.6
v 17.6 0.2 -3.6
v 18.3 0.2 -3.6
v 18.6 0.2 -3.6
v 19 0.2 -3.6
v 19.2 0.2 -3.6
v 19.7 0.2 -3.6
v 19.8 0.2 -3.6
v 22.4 0.2 -3.6
v 23.1 0.2 -3.6
v 24 0.2 -3.6
v 14.6 0.2 -3.7
v 14.7 0.2 -3.7
v 15.2 0.2 -3.7
v 15.4 0.2 -3.7
v 15.9 0.2 -3.7
v 16 0.2 -3.7
v 16.6 0.2 -3.7
v 16.9 0.2 -3.7
v 17.4 0.2 -3.7
v 17.6 0.2 -3.7
v 18.1 0.2 -3.7
v 18.2 0.2 -3.7
v 18.3 0.2 -3.7
v 18.6 0.2 -3.7
v 19 0.2 -3.7
v 19.2 0.2 -3.7
v 19.7 0.2 -3.7
v 19.8 0.2 -3.7
v 12.7 0.2 -3.8
v 12.8 0.2 -3.8
v 13.6 0.2 -3.8
v 14.1 0.2 -3.8
v 14.6 0.2 -3.8
v 14.7 0.2 -3.8
v 15.2 0.2 -3.8
v 15.4 0.2 -3.8
v 15.9 0.2 -3.8
v 16 0.2 -3.8
v 16.6 0.2 -3.8
v 16.9 0.2 -3.8
v 18.1 0.2 -3.8
v 18.2 0.2 -3.8
v 22.4 0.2 -3.8
v 23.1 0.2 -3.8
v 23.3 0.2 -3.8
v 23.4 0.2 -3.8
v 12.7 0.2 -3.9
v 12.8 0.2 -3.9
v 13.6 0.2 -3.9
v 14.1 0.2 -3.9
v 23.3 0.2 -3.9
v 23.4 0.2 -3.9
v 13.2 0.2 -4.1
v 24 0.2 -4.1
v 12.3 0.2 -4.2
v 12.4 0.2 -4.2
v 12.2 0.2 -4.3
v 12.3 0.2 -4.3
v 12.4 0.2 -4.3
v 12.2 0.2 -4.4
v 12.3 0.2 -4.4
v 13 0.2 -4.4
v 14.5 0.2 -5.4
v 24 0.2 -5.4
v 17.6 0.2 -5.7
v 17.7 0.2 -5.7
v 17.6 0.2 -5.8
v 17.7 0.2 -5.8
v 21 0.2 -5.9
v 21.1 0.2 -5.9
v 12.2 0.2 -6
v 13 0.2 -6
v 15.5 0.2 -6
v 15.6 0.2 -6
v 21 0.2 -6
v 21.1 0.2 -6
v 15.5 0.2 -6.2
v 15.6 0.2 -6.2
v 12.2 0.2 -6.3
v 13 0.2 -6.3
v 19.4 0.2 -6.3
v 19.7 0.2 -6.3
v 15.8 0.2 -6.4
v 15.9 0.2 -6.4
v 19.4 0.2 -6.4
v 19.7 0.2 -6.4
v 15.8 0.2 -6.5
v 15.9 0.2 -6.5
v 22.2 0.2 -6.6
v 22.6 0.2 -6.6
v 22.6 0.2 -6.7
v 22.9 0.2 -6.7
v 17.8 0.2 -6.8
v 17.9 0.2 -6.8
v 17.8 0.2 -6.9
v 17.9 0.2 -6.9
v 19.1 0.2 -6.9
v 19.2 0.2 -6.9
v 19.1 0.2 -7
v 19.2 0.2 -7
v 22.2 0.2 -7
v 22.9 0.2 -7
v 16.2 0.2 -7.1
v 16.3 0.2 -7.1
v 17.1 0.2 -7.1
v 17.2 0.2 -7.1
v 22.9 0.2 -7.1
v 23.1 0.2 -7.1
v 16.2 0.2 -7.2
v 16.3 0.2 -7.2
v 17.1 0.2 -7.2
v 17.2 0.2 -7.2
v 20 0.2 -7.2
v 20.2 0.2 -7.2
v 21.6 0.2 -7.2
v 22.1 0.2 -7.2
v 22.9 0.2 -7.2
v 23.1 0.2 -7.2
v 15.5 0.2 -7.3
v 15.6 0.2 -7.3
v 20 0.2 -7.3
v 20.2 0.2 -7.3
v 22.7 0.2 -7.3
v 22.8 0.2 -7.3
v 23 0.2 -7.3
v 23.1 0.2 -7.3
v 15.4 0.2 -7.4
v 15.5 0.2 -7.4
v 19.1 0.2 -7.4
v 19.2 0.2 -7.4
v 20.2 0.2 -7.4
v 20.3 0.2 -7.4
v 22.7 0.2 -7.4
v 22.8 0.2 -7.4
v 23 0.2 -7.4
v 23.1 0.2 -7.4
v 19.1 0.2 -7.5
v 19.2 0.2 -7.5
v 20.2 0.2 -7.5
v 20.3 0.2 -7.5
v 20.8 0.2 -7.5
v 20.9 0.2 -7.5
v 21.6 0.2 -7.5
v 22.1 0.2 -7.5
v 20.8 0.2 -7.6
v 20.9 0.2 -7.6
v 18 0.2 -7.7
v 18.1 0.2 -7.7
v 21.2 0.2 -7.7
v 21.3 0.2 -7.7
v 18 0.2 -7.8
v 18.1 0.2 -7.8
v 12.2 0.2 -7.9
v 13 0.2 -7.9
v 21.2 0.2 -7.9
v 21.3 0.2 -7.9
v 15.4 0.2 -8
v 15.6 0.2 -8
v 18.3 0.2 -8
v 18.4 0.2 -8
v 15.6 0.2 -8.1
v 15.7 0.2 -8.1
v 12.2 0.2 -8.2
v 13 0.2 -8.2
v 15.6 0.2 -8.2
v 15.7 0.2 -8.2
v 16.9 0.2 -8.2
v 17 0.2 -8.2
v 18.3 0.2 -8.2
v 18.4 0.2 -8.2
v 21.2 0.2 -8.2
v 21.4 0.2 -8.2
v 22.3 0.2 -8.2
v 22.4 0.2 -8.2
v 16.9 0.2 -8.3
v 17 0.2 -8.3
v 21.2 0.2 -8.3
v 21.4 0.2 -8.3
v 22.3 0.2 -8.4
v 22.4 0.2 -8.4
v 16.9 0.2 -8.6
v 17.1 0.2 -8.6
v 15.9 0.2 -8.7
v 16.1 0.2 -8.7
v 16.9 0.2 -8.7
v 17.1 0.2 -8.7
v 18.9 0.2 -8.7
v 19.2 0.2 -8.7
v 15.9 0.2 -8.8
v 16.1 0.2 -8.8
v 18.9 0.2 -8.8
v 19.2 0.2 -8.8
v 21.6 0.2 -9.1
v 21.7 0.2 -9.1
v 21.6 0.2 -9.2
v 21.7 0.2 -9.2
v 12.2 0.2 -9.3
v 13 0.2 -9.3
v 13.2 0.2 -9.6
v 14.5 0.2 -9.6
v 12 0.2 -9.8
v 24 0.2 -9.8
v 12 0.2 -10
v 14.4 0.2 -10
v 15.3 0.2 -10
v 24 0.2 -10
v 15.5 0.2 -10.1
v 15.6 0.2 -10.1
v 13.9 0.2 -10.2
v 14.4 0.2 -10.2
v 14.9 0.2 -10.2
v 15.3 0.2 -10.2
v 15.5 0.2 -10.2
v 15.6 0.2 -10.2
v 15.7 0.2 -10.2
v 22.3 0.2 -10.2
v 23.1 0.2 -10.2
v 13.8 0.2 -10.3
v 13.9 0.2 -10.3
v 22.2 0.2 -10.3
v 22.3 0.2 -10.3
v 23.1 0.2 -10.3
v 23.3 0.2 -10.3
v 13 0.2 -10.4
v 13.8 0.2 -10.4
v 14.7 0.2 -10.4
v 14.9 0.2 -10.4
v 15.6 0.2 -10.4
v 15.7 0.2 -10.4
v 15.2 0.2 -10.5
v 15.5 0.2 -10.5
v 19.6 0.2 -10.5
v 20.2 0.2 -10.5
v 21.7 0.2 -10.5
v 22.2 0.2 -10.5
v 14.2 0.2 -10.6
v 14.6 0.2 -10.6
v 15.2 0.2 -10.6
v 15.6 0.2 -10.6
v 16.4 0.2 -10.6
v 16.6 0.2 -10.6
v 20.2 0.2 -10.6
v 21.1 0.2 -10.6
v 12.8 0.2 -10.7
v 13 0.2 -10.7
v 13.2 0.2 -10.7
v 13.3 0.2 -10.7
v 21.4 0.2 -10.7
v 21.7 0.2 -10.7
v 22.5 0.2 -10.7
v 23 0.2 -10.7
v 23.3 0.2 -10.7
v 23.6 0.2 -10.7
v 13.3 0.2 -10.8
v 13.5 0.2 -10.8
v 13.6 0.2 -10.8
v 14.2 0.2 -10.8
v 14.6 0.2 -10.8
v 14.7 0.2 -10.8
v 16.6 0.2 -10.8
v 17.1 0.2 -10.8
v 23.3 0.2 -10.8
v 23.6 0.2 -10.8
v 13.2 0.2 -10.9
v 13.5 0.2 -10.9
v 13.6 0.2 -10.9
v 16.4 0.2 -10.9
v 17 0.2 -10.9
v 17.8 0.2 -10.9
v 18.6 0.2 -10.9
v 19.9 0.2 -10.9
v 20.8 0.2 -10.9
v 23.3 0.2 -10.9
v 23.6 0.2 -10.9
v 13.2 0.2 -11
v 13.5 0.2 -11
v 18.7 0.2 -11
v 19.6 0.2 -11
v 21.1 0.2 -11
v 21.2 0.2 -11
v 22 0.2 -11
v 22.5 0.2 -11
v 23 0.2 -11
v 23.2 0.2 -11
v 12.5 0.2 -11.1
v 12.6 0.2 -11.1
v 17.1 0.2 -11.1
v 17.4 0.2 -11.1
v 17.6 0.2 -11.1
v 17.8 0.2 -11.1
v 21.2 0.2 -11.1
v 21.4 0.2 -11.1
v 12.5 0.2 -11.2
v 12.6 0.2 -11.2
v 17.4 0.2 -11.2
v 17.6 0.2 -11.2
v 19.4 0.2 -11.2
v 19.9 0.2 -11.2
v 20.7 0.2 -11.2
v 20.8 0.2 -11.2
v 21.9 0.2 -11.2
v 22 0.2 -11.2
v 18.3 0.2 -11.3
v 18.4 0.2 -11.3
v 18.6 0.2 -11.3
v 18.7 0.2 -11.3
v 19.2 0.2 -11.3
v 19.4 0.2 -11.3
v 20.7 0.2 -11.3
v 21.4 0.2 -11.3
v 21.7 0.2 -11.3
v 21.9 0.2 -11.3
v 12.7 0.2 -11.4
v 12.8 0.2 -11.4
v 13.2 0.2 -11.4
v 13.5 0.2 -11.4
v 17 0.2 -11.4
v 17.5 0.2 -11.4
v 21.6 0.2 -11.4
v 21.7 0.2 -11.4
v 23.2 0.2 -11.4
v 23.3 0.2 -11.4
v 13 0.2 -11.5
v 13.5 0.2 -11.5
v 13.8 0.2 -11.5
v 13.9 0.2 -11.5
v 14 0.2 -11.5
v 14.3 0.2 -11.5
v 15.9 0.2 -11.5
v 16.3 0.2 -11.5
v 17.5 0.2 -11.5
v 18.3 0.2 -11.5
v 18.4 0.2 -11.5
v 18.9 0.2 -11.5
v 19.2 0.2 -11.5
v 21.4 0.2 -11.5
v 21.6 0.2 -11.5
v 15.4 0.2 -11.6
v 15.9 0.2 -11.6
v 16.3 0.2 -11.6
v 16.5 0.2 -11.6
v 18.3 0.2 -11.6
v 18.9 0.2 -11.6
v 23.3 0.2 -11.6
v 23.6 0.2 -11.6
v 23.9 0.2 -11.6
v 13.9 0.2 -11.7
v 14 0.2 -11.7
v 18.3 0.2 -11.7
v 18.4 0.2 -11.7
v 15.3 0.2 -11.8
v 15.4 0.2 -11.8
v 16.5 0.2 -11.8
v 17.3 0.2 -11.8
v 18.3 0.2 -11.8
v 18.4 0.2 -11.8
v 21.4 0.2 -11.8
v 21.5 0.2 -11.8
v 12.7 0.2 -11.9
v 12.8 0.2 -11.9
v 13 0.2 -11.9
v 13.8 0.2 -11.9
v 14.3 0.2 -11.9
v 15.3 0.2 -11.9
v 17.3 0.2 -11.9
v 18.3 0.2 -11.9
v 19 0.2 -11.9
v 19.1 0.2 -11.9
v 23.2 0.2 -11.9
v 23.6 0.2 -11.9
v 15.9 0.2 -12
v 16.7 0.2 -12
v 20.6 0.2 -12
v 21.1 0.2 -12
v 21.3 0.2 -12
v 21.4 0.2 -12
v 22.3 0.2 -12
v 23.2 0.2 -12
v 23.5 0.2 -12
v 23.9 0.2 -12
v 15.6 0.2 -12.1
v 15.9 0.2 -12.1
v 18.3 0.2 -12.1
v 19 0.2 -12.1
v 19.1 0.2 -12.1
v 20.6 0.2 -12.1
v 21.3 0.2 -12.1
v 21.4 0.2 -12.1
v 21.5 0.2 -12.1
v 22.3 0.2 -12.1
v 12.8 0.2 -12.2
v 13 0.2 -12.2
v 13.6 0.2 -12.2
v 14.2 0.2 -12.2
v 16.7 0.2 -12.2
v 17 0.2 -12.2
v 20.1 0.2 -12.2
v 21.1 0.2 -12.2
v 22.9 0.2 -12.2
v 23.5 0.2 -12.2
v 13 0.2 -12.3
v 13.6 0.2 -12.3
v 17 0.2 -12.3
v 18.2 0.2 -12.3
v 14.2 0.2 -12.4
v 14.6 0.2 -12.4
v 15.5 0.2 -12.4
v 15.6 0.2 -12.4
v 18.2 0.2 -12.4
v 20.1 0.2 -12.4
v 21.4 0.2 -12.4
v 21.8 0.2 -12.4
v 12 0.2 -12.5
v 14.6 0.2 -12.5
v 15.5 0.2 -12.5
v 21.8 0.2 -12.5
v 22.9 0.2 -12.5
v 24 0.2 -12.5
v 12 0.2 -12.7
v 24 0.2 -12.7
v 13.2 0.2 -12.9
v 14.5 0.2 -12.9
v 12.2 0.2 -13.2
v 13 0.2 -13.2
v 16.6 0.2 -13.2
v 16.7 0.2 -13.2
v 16.6 0.2 -13.3
v 16.7 0.2 -13.3
v 17.9 0.2 -13.8
v 18 0.2 -13.8
v 17.9 0.2 -13.9
v 18 0.2 -13.9
v 12.2 0.2 -14.3
v 13 0.2 -14.3
v 16.5 0.2 -14.4
v 16.6 0.2 -14.4
v 16.5 0.2 -14.5
v 16.6 0.2 -14.5
v 16.7 0.2 -14.5
v 17.3 0.2 -14.5
v 17.5 0.2 -14.5
v 12.2 0.2 -14.6
v 13 0.2 -14.6
v 17.3 0.2 -14.6
v 17.5 0.2 -14.6
v 18.6 0.2 -14.6
v 18.7 0.2 -14.6
v 18.6 0.2 -14.8
v 18.7 0.2 -14.8
v 22.7 0.2 -14.8
v 22.8 0.2 -14.8
v 22.7 0.2 -14.9
v 22.8 0.2 -14.9
v 22.5 0.2 -15.7
v 22.6 0.2 -15.7
v 22.5 0.2 -15.8
v 22.6 0.2 -15.8
v 17.7 0.2 -15.9
v 17.8 0.2 -15.9
v 16.6 0.2 -16
v 16.7 0.2 -16
v 17.7 0.2 -16
v 17.8 0.2 -16
v 12.2 0.2 -16.2
v 13 0.2 -16.2
v 16.6 0.2 -16.2
v 16.7 0.2 -16.2
v 16.6 0.2 -16.3
v 16.7 0.2 -16.3
v 22.4 0.2 -16.3
v 22.5 0.2 -16.3
v 16.8 0.2 -16.4
v 16.9 0.2 -16.4
v 22.4 0.2 -16.4
v 22.5 0.2 -16.4
v 12.2 0.2 -16.5
v 13 0.2 -16.5
v 16.8 0.2 -16.5
v 16.9 0.2 -16.5
v 18.9 0.2 -16.5
v 19 0.2 -16.5
v 22.4 0.2 -16.5
v 22.5 0.2 -16.5
v 18.9 0.2 -16.6
v 19 0.2 -16.6
v 22.4 0.2 -16.7
v 22.5 0.2 -16.7
v 20 0.2 -16.8
v 20.1 0.2 -16.8
v 20 0.2 -16.9
v 20.1 0.2 -16.9
v 22.4 0.2 -17.3
v 22.5 0.2 -17.3
v 22.4 0.2 -17.4
v 22.5 0.2 -17.4
v 16.6 0.2 -17.5
v 16.7 0.2 -17.5
v 16.4 0.2 -17.6
v 16.5 0.2 -17.6
v 16.6 0.2 -17.6
v 16.7 0.2 -17.6
v 20.1 0.2 -17.6
v 20.3 0.2 -17.6
v 16.4 0.2 -17.7
v 16.5 0.2 -17.7
v 20.1 0.2 -17.8
v 20.3 0.2 -17.8
v 21.7 0.2 -17.8
v 21.8 0.2 -17.8
v 21.7 0.2 -17.9
v 21.8 0.2 -17.9
v 12.2 0.2 -18.1
v 13 0.2 -18.1
v 12.2 0.2 -18.4
v 13 0.2 -18.4
v 21.4 0.2 -18.6
v 21.5 0.2 -18.6
v 16.8 0.2 -18.7
v 16.9 0.2 -18.7
v 21.4 0.2 -18.7
v 21.5 0.2 -18.7
v 16.8 0.2 -18.8
v 16.9 0.2 -18.8
v 16.7 0.2 -19
v 16.9 0.2 -19
v 18 0.2 -19
v 18.1 0.2 -19
v 20.4 0.2 -19
v 20.6 0.2 -19
v 18 0.2 -19.1
v 18.1 0.2 -19.1
v 19.3 0.2 -19.1
v 19.4 0.2 -19.1
v 20.2 0.2 -19.1
v 20.3 0.2 -19.1
v 19.3 0.2 -19.2
v 19.4 0.2 -19.2
v 20.2 0.2 -19.2
v 20.3 0.2 -19.2
v 20.4 0.2 -19.2
v 20.6 0.2 -19.2
v 21.5 0.2 -19.2
v 21.6 0.2 -19.2
v 22.4 0.2 -19.2
v 22.5 0.2 -19.2
v 16.7 0.2 -19.3
v 16.9 0.2 -19.3
v 21.5 0.2 -19.3
v 21.6 0.2 -19.3
v 22.4 0.2 -19.3
v 22.5 0.2 -19.3
v 22.9 0.2 -19.3
v 23 0.2 -19.3
v 16.4 0.2 -19.4
v 16.5 0.2 -19.4
v 22.9 0.2 -19.4
v 23 0.2 -19.4
v 16.4 0.2 -19.5
v 16.5 0.2 -19.5
v 20.2 0.2 -19.5
v 20.3 0.2 -19.5
v 23 0.2 -19.5
v 23.1 0.2 -19.5
v 19.6 0.2 -19.6
v 19.7 0.2 -19.6
v 23 0.2 -19.6
v 23.1 0.2 -19.6
v 19.6 0.2 -19.7
v 19.7 0.2 -19.7
v 20.2 0.2 -19.9
v 20.3 0.2 -19.9
v 12.2 0.2 -20
v 13 0.2 -20
v 22.7 0.2 -20.1
v 22.8 0.2 -20.1
v 22.7 0.2 -20.2
v 22.8 0.2 -20.2
v 12.2 0.2 -20.3
v 13 0.2 -20.3
v 19.2 0.2 -20.3
v 19.3 0.2 -20.3
v 19.7 0.2 -20.3
v 19.8 0.2 -20.3
v 19.2 0.2 -20.4
v 19.3 0.2 -20.4
v 19.7 0.2 -20.4
v 19.8 0.2 -20.4
v 20.5 0.2 -20.6
v 20.6 0.2 -20.6
v 20.7 0.2 -20.6
v 20.9 0.2 -20.6
v 21.3 0.2 -20.6
v 21.4 0.2 -20.6
v 22.1 0.2 -20.6
v 22.4 0.2 -20.6
v 18.3 0.2 -20.7
v 18.4 0.2 -20.7
v 20.5 0.2 -20.7
v 20.6 0.2 -20.7
v 20.7 0.2 -20.7
v 20.9 0.2 -20.7
v 21.3 0.2 -20.7
v 21.4 0.2 -20.7
v 22.1 0.2 -20.7
v 22.4 0.2 -20.7
v 18.3 0.2 -20.8
v 18.4 0.2 -20.8
v 19.6 0.2 -20.9
v 19.8 0.2 -20.9
v 17.3 0.2 -21
v 17.4 0.2 -21
v 16.6 0.2 -21.1
v 16.7 0.2 -21.1
v 17.3 0.2 -21.1
v 17.4 0.2 -21.1
v 19.6 0.2 -21.1
v 19.8 0.2 -21.1
v 16.6 0.2 -21.2
v 16.7 0.2 -21.2
v 21.6 0.2 -21.4
v 21.7 0.2 -21.4
v 21.6 0.2 -21.5
v 21.7 0.2 -21.5
v 22.5 0.2 -21.6
v 22.6 0.2 -21.6
v 20.2 0.2 -21.7
v 20.3 0.2 -21.7
v 22.5 0.2 -21.7
v 22.6 0.2 -21.7
v 20.2 0.2 -21.8
v 20.3 0.2 -21.8
v 12.2 0.2 -21.9
v 13 0.2 -21.9
v 16.4 0.2 -21.9
v 16.5 0.2 -21.9
v 16.4 0.2 -22.1
v 16.5 0.2 -22.1
v 12.2 0.2 -22.2
v 13 0.2 -22.2
v 20.5 0.2 -22.2
v 20.6 0.2 -22.2
v 16.4 0.2 -22.3
v 16.5 0.2 -22.3
v 20.5 0.2 -22.3
v 20.6 0.2 -22.3
v 16.4 0.2 -22.4
v 16.5 0.2 -22.4
v 17 0.2 -23.3
v 17.1 0.2 -23.3
v 21.6 0.2 -23.3
v 21.7 0.2 -23.3
v 17 0.2 -23.4
v 17.1 0.2 -23.4
v 21.6 0.2 -23.4
v 21.7 0.2 -23.4
v 12.2 0.2 -23.8
v 13 0.2 -23.8
v 12 0.2 -24
v 13.2 0.2 -24
v 14.5 0.2 -24
v 24 0.2 -24
v 12.2 0.3 -4.4
v 13 0.3 -4.4
v 12.3 0.3 -4.5
v 12.9 0.3 -4.5
v 12.3 0.3 -5.9
v 12.9 0.3 -5.9
v 12.2 0.3 -6
v 13 0.3 -6
v 12.2 0.3 -6.3
v 13 0.3 -6.3
v 12.3 0.3 -6.4
v 12.9 0.3 -6.4
v 12.3 0.3 -7.8
v 12.9 0.3 -7.8
v 12.2 0.3 -7.9
v 13 0.3 -7.9
v 12.2 0.3 -8.2
v 13 0.3 -8.2
v 12.3 0.3 -8.3
v 12.9 0.3 -8.3
v 12.3 0.3 -9.2
v 12.9 0.3 -9.2
v 12.2 0.3 -9.3
v 13 0.3 -9.3
v 12 0.3 -9.8
v 24 0.3 -9.8
v 12 0.3 -10
v 24 0.3 -10
v 12 0.3 -12.5
v 24 0.3 -12.5
v 12 0.3 -12.7
v 24 0.3 -12.7
v 12.2 0.3 -13.2
v 13 0.3 -13.2
v 12.3 0.3 -13.3
v 12.9 0.3 -13.3
v 12.3 0.3 -14.2
v 12.9 0.3 -14.2
v 12.2 0.3 -14.3
v 13 0.3 -14.3
v 12.2 0.3 -14.6
v 13 0.3 -14.6
v 12.3 0.3 -14.7
v 12.9 0.3 -14.7
v 12.3 0.3 -16.1
v 12.9 0.3 -16.1
v 12.2 0.3 -16.2
v 13 0.3 -16.2
v 12.2 0.3 -16.5
v 13 0.3 -16.5
v 12.3 0.3 -16.6
v 12.9 0.3 -16.6
v 12.3 0.3 -18
v 12.9 0.3 -18
v 12.2 0.3 -18.1
v 13 0.3 -18.1
v 12.2 0.3 -18.4
v 13 0.3 -18.4
v 12.3 0.3 -18.5
v 12.9 0.3 -18.5
v 12.3 0.3 -19.9
v 12.9 0.3 -19.9
v 12.2 0.3 -20
v 13 0.3 -20
v 12.2 0.3 -20.3
v 13 0.3 -20.3
v 12.3 0.3 -20.4
v 12.9 0.3 -20.4
v 12.3 0.3 -21.8
v 12.9 0.3 -21.8
v 12.2 0.3 -21.9
v 13 0.3 -21.9
v 12.2 0.3 -22.2
v 13 0.3 -22.2
v 12.3 0.3 -22.3
v 12.9 0.3 -22.3
v 12.3 0.3 -23.7
v 12.9 0.3 -23.7
v 12.2 0.3 -23.8
v 13 0.3 -23.8
v 13.2 0.5 -4.1
v 24 0.5 -4.1
v 13.3 0.5 -4.2
v 24 0.5 -4.2
v 14.4 0.5 -5.3
v 24 0.5 -5.3
v 14.5 0.5 -5.4
v 24 0.5 -5.4
v 13.3 0.5 -9.5
v 14.4 0.5 -9.5
v 13.2 0.5 -9.6
v 14.5 0.5 -9.6
v 13.2 0.5 -12.9
v 14.5 0.5 -12.9
v 13.3 0.5 -13
v 14.4 0.5 -13
v 13.2 0.5 -24
v 13.3 0.5 -24
v 14.4 0.5 -24
v 14.5 0.5 -24
v 12.3 1.2 -4.5
v 12.9 1.2 -4.5
v 12.3 1.2 -5.9
v 12.9 1.2 -5.9
v 12.3 1.2 -6.4
v 12.9 1.2 -6.4
v 12.3 1.2 -7.8
v 12.9 1.2 -7.8
v 12.3 1.2 -8.3
v 12.9 1.2 -8.3
v 12.3 1.2 -9.2
v 12.9 1.2 -9.2
v 12.3 1.2 -13.3
v 12.9 1.2 -13.3
v 12.3 1.2 -14.2
v 12.9 1.2 -14.2
v 12.3 1.2 -14.7
v 12.9 1.2 -14.7
v 12.3 1.2 -16.1
v 12.9 1.2 -16.1
v 12.3 1.2 -16.6
v 12.9 1.2 -16.6
v 12.3 1.2 -18
v 12.9 1.2 -18
v 12.3 1.2 -18.5
v 12.9 1.2 -18.5
v 12.3 1.2 -19.9
v 12.9 1.2 -19.9
v 12.3 1.2 -20.4
v 12.9 1.2 -20.4
v 12.3 1.2 -21.8
v 12.9 1.2 -21.8
v 12.3 1.2 -22.3
v 12.9 1.2 -22.3
v 12.3 1.2 -23.7
v 12.9 1.2 -23.7
v 13.1 2.9 -4
v 24 2.9 -4
v 13.2 2.9 -4.1
v 24 2.9 -4.1
v 14.5 2.9 -5.4
v 24 2.9 -5.4
v 14.6 2.9 -5.5
v 24 2.9 -5.5
v 13.2 2.9 -9.6
v 14.5 2.9 -9.6
v 13.1 2.9 -9.7
v 14.6 2.9 -9.7
v 13.1 2.9 -12.8
v 14.6 2.9 -12.8
v 13.2 2.9 -12.9
v 14.5 2.9 -12.9
v 13.1 2.9 -24
v 13.2 2.9 -24
v 14.5 2.9 -24
v 14.6 2.9 -24
v 13.2 3 -4.1
v 24 3 -4.1
v 13.3 3 -4.2
v 24 3 -4.2
v 14.4 3 -5.3
v 24 3 -5.3
v 14.5 3 -5.4
v 24 3 -5.4
v 13.3 3 -9.5
v 14.4 3 -9.5
v 13.2 3 -9.6
v 14.5 3 -9.6
v 13.2 3 -12.9
v 14.5 3 -12.9
v 13.3 3 -13
v 14.4 3 -13
v 13.2 3 -24
v 13.3 3 -24
v 14.4 3 -24
v 14.5 3 -24
v 13.3 3.1 -4.2
v 24 3.1 -4.2
v 13.4 3.1 -4.3
v 24 3.1 -4.3
v 14.3 3.1 -5.2
v 24 3.1 -5.2
v 14.4 3.1 -5.3
v 24 3.1 -5.3
v 13.4 3.1 -9.4
v 14.3 3.1 -9.4
v 13.3 3.1 -9.5
v 14.4 3.1 -9.5
v 13.3 3.1 -13
v 14.4 3.1 -13
v 13.4 3.1 -13.1
v 14.3 3.1 -13.1
v 13.3 3.1 -24
v 13.4 3.1 -24
v 14.3 3.1 -24
v 14.4 3.1 -24
v 13.4 3.2 -4.3
v 24 3.2 -4.3
v 13.5 3.2 -4.4
v 24 3.2 -4.4
v 14.2 3.2 -5.1
v 24 3.2 -5.1
v 14.3 3.2 -5.2
v 24 3.2 -5.2
v 13.5 3.2 -9.3
v 14.2 3.2 -9.3
v 13.4 3.2 -9.4
v 14.3 3.2 -9.4
v 13.4 3.2 -13.1
v 14.3 3.2 -13.1
v 13.5 3.2 -13.2
v 14.2 3.2 -13.2
v 13.4 3.2 -24
v 13.5 3.2 -24
v 14.2 3.2 -24
v 14.3 3.2 -24
v 13.5 3.3 -4.4
v 24 3.3 -4.4
v 14.2 3.3 -5.1
v 24 3.3 -5.1
v 13.5 3.3 -9.3
v 14.2 3.3 -9.3
v 13.5 3.3 -13.2
v 14.2 3.3 -13.2
v 13.5 3.3 -24
v 14.2 3.3 -24

# faces
f 5/8/1 2/8/1 1/8/1
f 6/8/1 2/8/1 5/8/1
f 7/8/1 2/8/1 6/8/1
f 8/8/1 2/8/1 7/8/1
f 9/4/1 3/4/1 2/4/1
f 9/8/1 2/8/1 8/8/1
f 10/8/1 4/8/1 3/8/1
f 10/4/1 3/4/1 9/4/1
f 11/8/1 4/8/1 10/8/1
f 12/8/1 4/8/1 11/8/1
f 13/3/1 9/3/1 8/3/1
f 14/3/1 9/3/1 13/3/1
f 15/3/1 11/3/1 10/3/1
f 16/3/1 11/3/1 15/3/1
f 35/2/1 18/2/1 17/2/1
f 36/2/1 18/2/1 35/2/1
f 37/2/1 20/2/1 19/2/1
f 38/2/1 20/2/1 37/2/1
f 39/2/1 22/2/1 21/2/1
f 40/2/1 22/2/1 39/2/1
f 41/2/1 24/2/1 23/2/1
f 42/2/1 24/2/1 41/2/1
f 43/2/1 26/2/1 25/2/1
f 44/2/1 26/2/1 43/2/1
f 45/2/1 28/2/1 27/2/1
f 46/2/1 28/2/1 45/2/1
f 47/2/1 30/2/1 29/2/1
f 48/2/1 30/2/1 47/2/1
f 49/2/1 32/2/1 31/2/1
f 50/2/1 32/2/1 49/2/1
f 51/2/1 34/2/1 33/2/1
f 52/2/1 34/2/1 51/2/1
f 71/7/1 54/7/1 53/7/1
f 72/7/1 54/7/1 71/7/1
f 73/7/1 56/7/1 55/7/1
f 74/7/1 56/7/1 73/7/1
f 75/7/1 58/7/1 57/7/1
f 76/7/1 58/7/1 75/7/1
f 77/7/1 60/7/1 59/7/1
f 78/7/1 60/7/1 77/7/1
f 79/7/1 62/7/1 61/7/1
f 80/7/1 62/7/1 79/7/1
f 81/7/1 64/7/1 63/7/1
f 82/7/1 64/7/1 81/7/1
f 83/7/1 66/7/1 65/7/1
f 84/7/1 66/7/1 83/7/1
f 85/7/1 68/7/1 67/7/1
f 86/7/1 68/7/1 85/7/1
f 87/7/1 70/7/1 69/7/1
f 88/7/1 70/7/1 87/7/1
f 93/4/1 90/4/1 89/4/1
f 94/4/1 90/4/1 93/4/1
f 95/4/1 92/4/1 91/4/1
f 96/4/1 92/4/1 95/4/1
f 101/4/1 98/4/1 97/4/1
f 102/4/1 98/4/1 101/4/1
f 103/4/1 100/4/1 99/4/1
f 104/4/1 100/4/1 103/4/1
f 109/4/1 106/4/1 105/4/1
f 110/4/1 106/4/1 109/4/1
f 111/4/1 108/4/1 107/4/1
f 112/4/1 108/4/1 111/4/1
f 117/1/1 114/1/1 113/1/1
f 118/1/1 114/1/1 117/1/1
f 119/1/1 116/1/1 115/1/1
f 120/1/1 116/1/1 119/1/1
f 125/4/1 122/4/1 121/4/1
f 126/4/1 122/4/1 125/4/1
f 127/4/1 124/4/1 123/4/1
f 128/4/1 124/4/1 127/4/1
f 133/4/1 130/4/1 129/4/1
f 134/4/1 130/4/1 133/4/1
f 135/4/1 132/4/1 131/4/1
f 136/4/1 132/4/1 135/4/1
f 141/4/1 138/4/1 137/4/1
f 142/4/1 138/4/1 141/4/1
f 143/4/1 140/4/1 139/4/1
f 144/4/1 140/4/1 143/4/1
f 151/4/1 146/4/1 145/4/1
f 152/4/1 146/4/1 151/4/1
f 153/4/1 148/4/1 147/4/1
f 154/4/1 148/4/1 153/4/1
f 155/4/1 150/4/1 149/4/1
f 156/4/1 150/4/1 155/4/1
f 157/7/2 158/7/2 175/7/2
f 175/7/2 158/7/2 176/7/2
f 159/7/2 160/7/2 177/7/2
f 177/7/2 160/7/2 178/7/2
f 161/7/2 162/7/2 179/7/2
f 179/7/2 162/7/2 180/7/2
f 163/7/2 164/7/2 181/7/2
f 181/7/2 164/7/2 182/7/2
f 165/7/2 166/7/2 183/7/2
f 183/7/2 166/7/2 184/7/2
f 167/7/2 168/7/2 185/7/2
f 185/7/2 168/7/2 186/7/2
f 169/7/2 170/7/2 187/7/2
f 187/7/2 170/7/2 188/7/2
f 171/7/2 172/7/2 189/7/2
f 189/7/2 172/7/2 190/7/2
f 173/7/2 174/7/2 191/7/2
f 191/7/2 174/7/2 192/7/2
f 193/2/2 194/2/2 211/2/2
f 211/2/2 194/2/2 212/2/2
f 195/2/2 196/2/2 213/2/2
f 213/2/2 196/2/2 214/2/2
f 197/2/2 198/2/2 215/2/2
f 215/2/2 198/2/2 216/2/2
f 199/2/2 200/2/2 217/2/2
f 217/2/2 200/2/2 218/2/2
f 201/2/2 202/2/2 219/2/2
f 219/2/2 202/2/2 220/2/2
f 203/2/2 204/2/2 221/2/2
f 221/2/2 204/2/2 222/2/2
f 205/2/2 206/2/2 223/2/2
f 223/2/2 206/2/2 224/2/2
f 207/2/2 208/2/2 225/2/2
f 225/2/2 208/2/2 226/2/2
f 209/2/2 210/2/2 227/2/2
f 227/2/2 210/2/2 228/2/2
f 229/4/2 230/4/2 233/4/2
f 233/4/2 230/4/2 234/4/2
f 231/4/2 232/4/2 235/4/2
f 235/4/2 232/4/2 236/4/2
f 237/4/2 238/4/2 241/4/2
f 241/4/2 238/4/2 242/4/2
f 239/4/2 240/4/2 243/4/2
f 243/4/2 240/4/2 244/4/2
f 245/4/2 246/4/2 249/4/2
f 249/4/2 246/4/2 250/4/2
f 247/4/2 248/4/2 251/4/2
f 251/4/2 248/4/2 252/4/2
f 253/1/2 254/1/2 257/1/2
f 257/1/2 254/1/2 258/1/2
f 253/1/2 257/1/2 259/1/2
f 259/1/2 257/1/2 260/1/2
f 258/1/2 254/1/2 261/1/2
f 261/1/2 254/1/2 262/1/2
f 255/1/2 256/1/2 263/1/2
f 263/1/2 256/1/2 264/1/2
f 265/4/2 266/4/2 269/4/2
f 269/4/2 266/4/2 270/4/2
f 267/4/2 268/4/2 271/4/2
f 271/4/2 268/4/2 272/4/2
f 273/4/2 274/4/2 277/4/2
f 277/4/2 274/4/2 278/4/2
f 275/4/2 276/4/2 279/4/2
f 279/4/2 276/4/2 280/4/2
f 281/4/2 282/4/2 285/4/2
f 285/4/2 282/4/2 286/4/2
f 283/4/2 284/4/2 287/4/2
f 287/4/2 284/4/2 288/4/2
f 289/4/2 290/4/2 295/4/2
f 295/4/2 290/4/2 296/4/2
f 291/4/2 292/4/2 297/4/2
f 297/4/2 292/4/2 298/4/2
f 293/4/2 294/4/2 299/4/2
f 299/4/2 294/4/2 300/4/2
f 301/8/2 302/8/2 303/8/2
f 303/8/2 302/8/2 304/8/2
f 304/8/2 302/8/2 305/8/2
f 305/8/2 302/8/2 306/8/2
f 304/8/2 305/8/2 307/8/2
f 307/8/2 305/8/2 308/8/2
f 308/8/2 305/8/2 309/8/2
f 309/8/2 305/8/2 310/8/2
f 305/4/2 306/4/2 311/4/2
f 310/8/2 305/8/2 311/8/2
f 306/8/2 302/8/2 312/8/2
f 311/4/2 306/4/2 312/4/2
f 312/8/2 302/8/2 313/8/2
f 313/8/2 302/8/2 314/8/2
f 310/3/2 311/3/2 315/3/2
f 315/3/2 311/3/2 316/3/2
f 312/3/2 313/3/2 317/3/2
f 317/3/2 313/3/2 318/3/2
f 308/4/2 309/4/2 319/4/2
f 319/4/2 309/4/2 320/4/2
f 320/4/2 309/4/2 321/4/2
f 321/4/2 309/4/2 322/4/2
f 323/4/2 324/4/2 327/4/2
f 320/1/2 321/1/2 328/1/2
f 328/1/2 321/1/2 329/1/2
f 325/4/2 326/4/2 330/4/2
f 328/4/2 329/4/2 331/4/2
f 329/4/2 330/4/2 331/4/2
f 323/4/2 327/4/2 331/4/2
f 327/4/2 328/4/2 331/4/2
f 331/4/2 330/4/2 332/4/2
f 330/4/2 326/4/2 333/4/2
f 332/4/2 330/4/2 333/4/2
f 333/4/2 326/4/2 334/4/2
f 332/4/2 333/4/2 335/4/2
f 335/4/2 333/4/2 336/4/2
f 336/4/2 333/4/2 337/4/2
f 337/4/2 333/4/2 338/4/2
f 336/4/2 337/4/2 339/4/2
f 339/4/2 337/4/2 340/4/2
f 340/4/2 337/4/2 341/4/2
f 341/4/2 337/4/2 342/4/2
f 340/4/2 341/4/2 343/4/2
f 343/4/2 341/4/2 344/4/2
f 344/4/2 341/4/2 345/4/2
f 345/4/2 341/4/2 346/4/2
f 344/4/2 345/4/2 347/4/2
f 347/4/2 345/4/2 348/4/2
f 351/8/3 350/8/3 349/8/3
f 352/8/3 350/8/3 351/8/3
f 355/8/3 354/8/3 353/8/3
f 356/8/3 354/8/3 355/8/3
f 357/9/3 356/9/3 355/9/3
f 358/9/3 356/9/3 357/9/3
f 359/8/3 358/8/3 357/8/3
f 360/8/3 358/8/3 359/8/3
f 361/9/3 360/9/3 359/9/3
f 362/9/3 360/9/3 361/9/3
f 363/8/3 362/8/3 361/8/3
f 364/8/3 362/8/3 363/8/3
f 365/9/3 364/9/3 363/9/3
f 366/9/3 364/9/3 365/9/3
f 367/8/3 366/8/3 365/8/3
f 368/8/3 366/8/3 367/8/3
f 369/9/3 368/9/3 367/9/3
f 370/9/3 368/9/3 369/9/3
f 371/8/3 370/8/3 369/8/3
f 372/8/3 370/8/3 371/8/3
f 373/8/3 370/8/3 372/8/3
f 374/8/3 370/8/3 373/8/3
f 375/8/3 370/8/3 374/8/3
f 376/8/3 370/8/3 375/8/3
f 377/9/3 376/9/3 375/9/3
f 378/9/3 376/9/3 377/9/3
f 379/8/3 378/8/3 377/8/3
f 380/8/3 378/8/3 379/8/3
f 381/8/3 378/8/3 380/8/3
f 382/8/3 378/8/3 381/8/3
f 385/4/3 384/4/3 383/4/3
f 386/4/3 384/4/3 385/4/3
f 391/4/3 388/4/3 387/4/3
f 392/4/3 388/4/3 391/4/3
f 393/4/3 390/4/3 389/4/3
f 394/4/3 390/4/3 393/4/3
f 399/1/3 396/1/3 395/1/3
f 400/1/3 396/1/3 399/1/3
f 401/4/3 398/4/3 397/4/3
f 402/4/3 398/4/3 401/4/3
f 405/4/3 404/4/3 403/4/3
f 406/4/3 404/4/3 405/4/3
f 409/2/3 408/2/3 407/2/3
f 410/2/3 408/2/3 409/2/3
f 411/2/3 408/2/3 410/2/3
f 414/4/3 413/4/3 412/4/3
f 415/4/3 413/4/3 414/4/3
f 418/7/3 417/7/3 416/7/3
f 419/7/3 417/7/3 418/7/3
f 422/4/3 421/4/3 420/4/3
f 423/4/3 421/4/3 422/4/3
f 426/4/3 425/4/3 424/4/3
f 427/4/3 425/4/3 426/4/3
f 430/2/3 429/2/3 428/2/3
f 431/2/3 429/2/3 430/2/3
f 434/7/3 433/7/3 432/7/3
f 435/7/3 433/7/3 434/7/3
f 438/2/3 437/2/3 436/2/3
f 439/2/3 437/2/3 438/2/3
f 442/7/3 441/7/3 440/7/3
f 443/7/3 441/7/3 442/7/3
f 446/4/3 445/4/3 444/4/3
f 447/4/3 445/4/3 446/4/3
f 450/3/3 449/3/3 448/3/3
f 451/3/3 449/3/3 450/3/3
f 454/3/3 453/3/3 452/3/3
f 455/3/3 453/3/3 454/3/3
f 456/3/3 453/3/3 455/3/3
f 457/3/3 453/3/3 456/3/3
f 458/3/3 453/3/3 457/3/3
f 459/3/3 453/3/3 458/3/3
f 462/4/3 461/4/3 460/4/3
f 463/4/3 461/4/3 462/4/3
f 468/4/3 465/4/3 464/4/3
f 469/4/3 465/4/3 468/4/3
f 470/4/3 467/4/3 466/4/3
f 471/4/3 467/4/3 470/4/3
f 476/1/3 473/1/3 472/1/3
f 477/1/3 473/1/3 476/1/3
f 478/4/3 475/4/3 474/4/3
f 479/4/3 475/4/3 478/4/3
f 482/4/3 481/4/3 480/4/3
f 483/4/3 481/4/3 482/4/3
f 486/2/3 485/2/3 484/2/3
f 487/2/3 485/2/3 486/2/3
f 490/4/3 489/4/3 488/4/3
f 491/4/3 489/4/3 490/4/3
f 494/7/3 493/7/3 492/7/3
f 495/7/3 493/7/3 494/7/3
f 498/2/3 497/2/3 496/2/3
f 499/2/3 497/2/3 498/2/3
f 502/7/3 501/7/3 500/7/3
f 503/7/3 501/7/3 502/7/3
f 506/2/3 505/2/3 504/2/3
f 507/2/3 505/2/3 506/2/3
f 510/7/3 509/7/3 508/7/3
f 511/7/3 509/7/3 510/7/3
f 514/2/3 513/2/3 512/2/3
f 515/2/3 513/2/3 514/2/3
f 518/7/3 517/7/3 516/7/3
f 519/7/3 517/7/3 518/7/3
f 522/2/3 521/2/3 520/2/3
f 523/2/3 521/2/3 522/2/3
f 526/7/3 525/7/3 524/7/3
f 527/7/3 525/7/3 526/7/3
f 530/2/3 529/2/3 528/2/3
f 531/2/3 529/2/3 530/2/3
f 534/7/3 533/7/3 532/7/3
f 535/7/3 533/7/3 534/7/3
f 536/4/4 537/4/4 538/4/4
f 538/4/4 537/4/4 539/4/4
f 540/4/4 541/4/4 542/4/4
f 542/4/4 541/4/4 543/4/4
f 544/4/4 545/4/4 546/4/4
f 546/4/4 545/4/4 547/4/4
f 548/1/4 549/1/4 552/1/4
f 552/1/4 549/1/4 553/1/4
f 548/1/4 552/1/4 554/1/4
f 548/1/4 554/1/4 556/1/4
f 554/1/4 555/1/4 556/1/4
f 556/1/4 555/1/4 557/1/4
f 550/4/4 551/4/4 558/4/4
f 558/4/4 551/4/4 559/4/4
f 560/4/4 561/4/4 564/4/4
f 564/4/4 561/4/4 565/4/4
f 562/4/4 563/4/4 566/4/4
f 566/4/4 563/4/4 567/4/4
f 568/4/4 569/4/4 570/4/4
f 570/4/4 569/4/4 571/4/4
f 572/4/4 573/4/4 574/4/4
f 574/4/4 573/4/4 575/4/4
f 576/7/4 577/7/4 578/7/4
f 578/7/4 577/7/4 579/7/4
f 580/2/4 581/2/4 582/2/4
f 582/2/4 581/2/4 583/2/4
f 584/7/4 585/7/4 586/7/4
f 586/7/4 585/7/4 587/7/4
f 588/2/4 589/2/4 590/2/4
f 590/2/4 589/2/4 591/2/4
f 592/7/4 593/7/4 594/7/4
f 594/7/4 593/7/4 595/7/4
f 596/2/4 597/2/4 598/2/4
f 598/2/4 597/2/4 599/2/4
f 600/4/4 601/4/4 602/4/4
f 602/4/4 601/4/4 603/4/4
f 604/4/4 605/4/4 606/4/4
f 606/4/4 605/4/4 607/4/4
f 608/1/4 609/1/4 612/1/4
f 612/1/4 609/1/4 613/1/4
f 610/4/4 611/4/4 614/4/4
f 614/4/4 611/4/4 615/4/4
f 616/4/4 617/4/4 620/4/4
f 620/4/4 617/4/4 621/4/4
f 618/4/4 619/4/4 622/4/4
f 622/4/4 619/4/4 623/4/4
f 624/4/4 625/4/4 626/4/4
f 626/4/4 625/4/4 627/4/4
f 628/3/4 629/3/4 630/3/4
f 630/3/4 629/3/4 631/3/4
f 631/3/4 629/3/4 632/3/4
f 632/3/4 629/3/4 633/3/4
f 634/3/4 635/3/4 636/3/4
f 636/3/4 635/3/4 637/3/4
f 638/4/4 639/4/4 640/4/4
f 640/4/4 639/4/4 641/4/4
f 642/7/4 643/7/4 644/7/4
f 644/7/4 643/7/4 645/7/4
f 646/2/4 647/2/4 648/2/4
f 648/2/4 647/2/4 649/2/4
f 650/7/4 651/7/4 652/7/4
f 652/7/4 651/7/4 653/7/4
f 654/2/4 655/2/4 656/2/4
f 656/2/4 655/2/4 657/2/4
f 658/7/4 659/7/4 660/7/4
f 660/7/4 659/7/4 661/7/4
f 662/2/4 663/2/4 664/2/4
f 664/2/4 663/2/4 665/2/4
f 666/7/4 667/7/4 668/7/4
f 668/7/4 667/7/4 669/7/4
f 670/2/4 671/2/4 672/2/4
f 672/2/4 671/2/4 673/2/4
f 674/7/4 675/7/4 676/7/4
f 676/7/4 675/7/4 677/7/4
f 678/2/4 679/2/4 680/2/4
f 680/2/4 679/2/4 681/2/4
f 682/7/4 683/7/4 684/7/4
f 684/7/4 683/7/4 685/7/4
f 686/2/4 687/2/4 688/2/4
f 688/2/4 687/2/4 689/2/4
f 690/8/4 691/8/4 694/8/4
f 694/8/4 691/8/4 695/8/4
f 692/4/4 693/4/4 697/4/4
f 697/4/4 693/4/4 698/4/4
f 698/4/4 693/4/4 699/4/4
f 690/8/4 694/8/4 701/8/4
f 694/1/4 695/1/4 701/1/4
f 695/4/4 696/4/4 702/4/4
f 701/1/4 695/1/4 702/1/4
f 702/4/4 696/4/4 703/4/4
f 699/4/4 700/4/4 704/4/4
f 698/4/4 699/4/4 704/4/4
f 704/4/4 700/4/4 705/4/4
f 704/4/4 705/4/4 707/4/4
f 705/4/4 706/4/4 707/4/4
f 707/4/4 708/4/4 709/4/4
f 707/4/4 709/4/4 711/4/4
f 709/4/4 710/4/4 711/4/4
f 711/4/4 710/4/4 712/4/4
f 704/4/4 707/4/4 713/4/4
f 707/4/4 711/4/4 713/4/4
f 713/4/4 711/4/4 714/4/4
f 702/4/4 703/4/4 715/4/4
f 703/1/4 704/1/4 715/1/4
f 704/4/4 713/4/4 716/4/4
f 715/1/4 704/1/4 716/1/4
f 716/4/4 713/4/4 717/4/4
f 717/4/4 713/4/4 718/4/4
f 701/8/4 702/8/4 719/8/4
f 702/4/4 715/4/4 719/4/4
f 719/4/4 715/4/4 720/4/4
f 716/4/4 717/4/4 722/4/4
f 722/4/4 717/4/4 723/4/4
f 723/4/4 717/4/4 724/4/4
f 721/4/4 722/4/4 725/4/4
f 722/4/4 723/4/4 725/4/4
f 725/4/4 723/4/4 726/4/4
f 690/8/4 701/8/4 727/8/4
f 701/8/4 719/8/4 727/8/4
f 727/8/4 719/8/4 728/8/4
f 731/8/5 730/8/5 729/8/5
f 732/8/5 730/8/5 731/8/5
f 733/8/5 730/8/5 732/8/5
f 734/8/5 730/8/5 733/8/5
f 735/8/5 730/8/5 734/8/5
f 736/8/5 730/8/5 735/8/5
f 737/8/5 730/8/5 736/8/5
f 738/8/5 730/8/5 737/8/5
f 739/8/5 733/8/5 732/8/5
f 739/9/5 734/9/5 733/9/5
f 740/8/5 735/8/5 734/8/5
f 740/9/5 734/9/5 739/9/5
f 741/9/5 736/9/5 735/9/5
f 741/8/5 735/8/5 740/8/5
f 742/8/5 737/8/5 736/8/5
f 742/9/5 736/9/5 741/9/5
f 743/9/5 738/9/5 737/9/5
f 743/8/5 737/8/5 742/8/5
f 744/8/5 730/8/5 738/8/5
f 744/9/5 738/9/5 743/9/5
f 745/8/5 731/8/5 729/8/5
f 745/9/5 732/9/5 731/9/5
f 746/8/5 744/8/5 743/8/5
f 746/9/5 732/9/5 745/9/5
f 746/8/5 743/8/5 742/8/5
f 746/8/5 741/8/5 740/8/5
f 746/8/5 740/8/5 739/8/5
f 746/8/5 739/8/5 732/8/5
f 746/8/5 742/8/5 741/8/5
f 747/8/5 745/8/5 729/8/5
f 747/8/5 746/8/5 745/8/5
f 748/8/5 746/8/5 747/8/5
f 749/4/5 748/4/5 747/4/5
f 750/8/5 746/8/5 748/8/5
f 750/4/5 748/4/5 749/4/5
f 751/8/5 750/8/5 749/8/5
f 752/8/5 730/8/5 744/8/5
f 752/8/5 750/8/5 751/8/5
f 752/8/5 744/8/5 746/8/5
f 752/8/5 746/8/5 750/8/5
f 755/4/5 754/4/5 753/4/5
f 756/4/5 754/4/5 755/4/5
f 760/4/5 758/4/5 757/4/5
f 761/4/5 758/4/5 760/4/5
f 763/4/5 760/4/5 759/4/5
f 763/4/5 762/4/5 761/4/5
f 763/4/5 761/4/5 760/4/5
f 764/4/5 762/4/5 763/4/5
f 765/4/5 762/4/5 764/4/5
f 766/4/5 762/4/5 765/4/5
f 767/4/5 755/4/5 753/4/5
f 768/4/5 765/4/5 764/4/5
f 769/4/5 767/4/5 753/4/5
f 769/4/5 768/4/5 767/4/5
f 770/4/5 765/4/5 768/4/5
f 770/4/5 768/4/5 769/4/5
f 773/4/5 772/4/5 771/4/5
f 774/4/5 772/4/5 773/4/5
f 775/4/5 773/4/5 771/4/5
f 776/4/5 773/4/5 775/4/5
f 777/4/5 772/4/5 774/4/5
f 778/4/5 772/4/5 777/4/5
f 781/4/5 780/4/5 779/4/5
f 782/4/5 780/4/5 781/4/5
f 787/4/5 784/4/5 783/4/5
f 788/4/5 784/4/5 787/4/5
f 789/4/5 786/4/5 785/4/5
f 790/4/5 786/4/5 789/4/5
f 793/4/5 781/4/5 779/4/5
f 794/4/5 792/4/5 791/4/5
f 795/4/5 793/4/5 779/4/5
f 795/4/5 794/4/5 793/4/5
f 796/4/5 792/4/5 794/4/5
f 796/4/5 794/4/5 795/4/5
f 799/4/5 798/4/5 797/4/5
f 800/4/5 798/4/5 799/4/5
f 801/4/5 799/4/5 797/4/5
f 802/4/5 799/4/5 801/4/5
f 803/4/5 798/4/5 800/4/5
f 804/4/5 798/4/5 803/4/5
f 805/8/6 806/8/6 807/8/6
f 807/8/6 806/8/6 808/8/6
f 808/8/6 806/8/6 809/8/6
f 809/8/6 806/8/6 810/8/6
f 810/8/6 806/8/6 811/8/6
f 811/8/6 806/8/6 812/8/6
f 812/8/6 806/8/6 813/8/6
f 813/8/6 806/8/6 814/8/6
f 805/8/6 807/8/6 815/8/6
f 815/8/6 807/8/6 816/8/6
f 816/8/6 807/8/6 817/8/6
f 817/8/6 807/8/6 818/8/6
f 818/8/6 807/8/6 819/8/6
f 819/8/6 807/8/6 820/8/6
f 820/8/6 807/8/6 821/8/6
f 807/9/6 808/9/6 822/9/6
f 821/8/6 807/8/6 822/8/6
f 808/8/6 809/8/6 823/8/6
f 822/9/6 808/9/6 823/9/6
f 809/9/6 810/9/6 824/9/6
f 823/8/6 809/8/6 824/8/6
f 810/8/6 811/8/6 825/8/6
f 824/9/6 810/9/6 825/9/6
f 811/9/6 812/9/6 826/9/6
f 825/8/6 811/8/6 826/8/6
f 812/8/6 813/8/6 827/8/6
f 826/9/6 812/9/6 827/9/6
f 827/8/6 813/8/6 828/8/6
f 828/8/6 813/8/6 829/8/6
f 813/9/6 814/9/6 830/9/6
f 829/8/6 813/8/6 830/8/6
f 814/8/6 806/8/6 831/8/6
f 830/9/6 814/9/6 831/9/6
f 831/8/6 806/8/6 832/8/6
f 833/8/6 834/8/6 845/8/6
f 845/8/6 834/8/6 846/8/6
f 846/8/6 834/8/6 847/8/6
f 847/8/6 834/8/6 848/8/6
f 848/8/6 834/8/6 849/8/6
f 849/8/6 834/8/6 850/8/6
f 850/8/6 834/8/6 851/8/6
f 851/8/6 834/8/6 852/8/6
f 834/9/6 835/9/6 853/9/6
f 852/8/6 834/8/6 853/8/6
f 835/8/6 836/8/6 854/8/6
f 853/9/6 835/9/6 854/9/6
f 854/8/6 836/8/6 855/8/6
f 855/8/6 836/8/6 856/8/6
f 836/9/6 837/9/6 857/9/6
f 856/8/6 836/8/6 857/8/6
f 837/8/6 838/8/6 858/8/6
f 857/9/6 837/9/6 858/9/6
f 838/9/6 839/9/6 859/9/6
f 858/8/6 838/8/6 859/8/6
f 839/8/6 840/8/6 860/8/6
f 859/9/6 839/9/6 860/9/6
f 840/9/6 841/9/6 861/9/6
f 860/8/6 840/8/6 861/8/6
f 841/8/6 842/8/6 862/8/6
f 861/9/6 841/9/6 862/9/6
f 833/8/6 845/8/6 863/8/6
f 863/8/6 845/8/6 864/8/6
f 864/8/6 845/8/6 865/8/6
f 865/8/6 845/8/6 866/8/6
f 845/9/6 846/9/6 867/9/6
f 866/8/6 845/8/6 867/8/6
f 846/8/6 847/8/6 868/8/6
f 867/9/6 846/9/6 868/9/6
f 847/9/6 848/9/6 869/9/6
f 868/8/6 847/8/6 869/8/6
f 848/8/6 849/8/6 870/8/6
f 869/9/6 848/9/6 870/9/6
f 849/9/6 850/9/6 871/9/6
f 870/8/6 849/8/6 871/8/6
f 850/8/6 851/8/6 872/8/6
f 871/9/6 850/9/6 872/9/6
f 851/9/6 852/9/6 873/9/6
f 872/8/6 851/8/6 873/8/6
f 852/8/6 853/8/6 874/8/6
f 873/9/6 852/9/6 874/9/6
f 853/8/6 854/8/6 874/8/6
f 854/8/6 855/8/6 874/8/6
f 855/9/6 856/9/6 875/9/6
f 874/8/6 855/8/6 875/8/6
f 856/8/6 857/8/6 876/8/6
f 875/9/6 856/9/6 876/9/6
f 857/8/6 858/8/6 876/8/6
f 858/8/6 859/8/6 876/8/6
f 861/8/6 862/8/6 876/8/6
f 859/8/6 860/8/6 876/8/6
f 860/8/6 861/8/6 876/8/6
f 842/9/6 843/9/6 877/9/6
f 876/8/6 862/8/6 877/8/6
f 862/8/6 842/8/6 877/8/6
f 843/8/6 844/8/6 878/8/6
f 877/9/6 843/9/6 878/9/6
f 878/8/6 844/8/6 879/8/6
f 879/8/6 844/8/6 880/8/6
f 833/8/6 863/8/6 881/8/6
f 863/9/6 864/9/6 881/9/6
f 864/8/6 865/8/6 882/8/6
f 881/9/6 864/9/6 882/9/6
f 865/9/6 866/9/6 883/9/6
f 882/8/6 865/8/6 883/8/6
f 876/8/6 877/8/6 884/8/6
f 883/9/6 866/9/6 884/9/6
f 871/8/6 872/8/6 884/8/6
f 878/8/6 879/8/6 884/8/6
f 877/8/6 878/8/6 884/8/6
f 868/8/6 869/8/6 884/8/6
f 867/8/6 868/8/6 884/8/6
f 866/8/6 867/8/6 884/8/6
f 872/8/6 873/8/6 884/8/6
f 869/8/6 870/8/6 884/8/6
f 875/8/6 876/8/6 884/8/6
f 870/8/6 871/8/6 884/8/6
f 873/8/6 874/8/6 884/8/6
f 874/8/6 875/8/6 884/8/6
f 879/9/6 880/9/6 885/9/6
f 884/8/6 879/8/6 885/8/6
f 880/8/6 844/8/6 886/8/6
f 885/9/6 880/9/6 886/9/6
f 882/8/6 883/8/6 887/8/6
f 881/8/6 882/8/6 887/8/6
f 885/8/6 886/8/6 887/8/6
f 884/8/6 885/8/6 887/8/6
f 883/8/6 884/8/6 887/8/6
f 886/8/6 844/8/6 888/8/6
f 887/8/6 886/8/6 888/8/6
f 881/8/6 887/8/6 889/8/6
f 833/8/6 881/8/6 889/8/6
f 889/8/6 887/8/6 890/8/6
f 833/8/6 889/8/6 891/8/6
f 889/9/6 890/9/6 892/9/6
f 891/8/6 889/8/6 892/8/6
f 890/8/6 887/8/6 893/8/6
f 892/9/6 890/9/6 893/9/6
f 891/9/6 892/9/6 894/9/6
f 833/8/6 891/8/6 894/8/6
f 892/8/6 893/8/6 895/8/6
f 894/9/6 892/9/6 895/9/6
f 893/8/6 887/8/6 896/8/6
f 895/8/6 893/8/6 896/8/6
f 897/8/6 898/8/6 899/8/6
f 899/8/6 898/8/6 900/8/6
f 897/8/6 899/8/6 901/8/6
f 899/9/6 900/9/6 901/9/6
f 900/8/6 898/8/6 902/8/6
f 901/9/6 900/9/6 902/9/6
f 901/8/6 902/8/6 903/8/6
f 902/8/6 898/8/6 903/8/6
f 903/8/6 898/8/6 904/8/6
f 833/8/6 894/8/6 905/8/6
f 896/8/6 887/8/6 906/8/6
f 897/8/6 901/8/6 907/8/6
f 901/8/6 903/8/6 907/8/6
f 907/8/6 903/8/6 908/8/6
f 903/9/6 904/9/6 909/9/6
f 908/8/6 903/8/6 909/8/6
f 904/8/6 898/8/6 910/8/6
f 909/9/6 904/9/6 910/9/6
f 907/9/6 908/9/6 911/9/6
f 897/8/6 907/8/6 911/8/6
f 908/8/6 909/8/6 912/8/6
f 911/9/6 908/9/6 912/9/6
f 909/8/6 910/8/6 912/8/6
f 833/8/6 905/8/6 913/8/6
f 905/8/6 906/8/6 913/8/6
f 906/8/6 887/8/6 914/8/6
f 913/8/6 906/8/6 914/8/6
f 912/8/6 910/8/6 915/8/6
f 911/8/6 912/8/6 915/8/6
f 915/8/6 910/8/6 916/8/6
f 911/8/6 915/8/6 917/8/6
f 917/8/6 915/8/6 918/8/6
f 915/9/6 916/9/6 919/9/6
f 918/8/6 915/8/6 919/8/6
f 916/8/6 910/8/6 920/8/6
f 919/9/6 916/9/6 920/9/6
f 917/9/6 918/9/6 921/9/6
f 911/8/6 917/8/6 921/8/6
f 918/8/6 919/8/6 922/8/6
f 921/9/6 918/9/6 922/9/6
f 919/8/6 920/8/6 922/8/6
f 910/8/6 898/8/6 923/8/6
f 922/8/6 920/8/6 923/8/6
f 921/8/6 922/8/6 923/8/6
f 920/8/6 910/8/6 923/8/6
f 923/8/6 898/8/6 924/8/6
f 923/9/6 924/9/6 925/9/6
f 924/8/6 898/8/6 925/8/6
f 925/8/6 898/8/6 926/8/6
f 921/8/6 923/8/6 927/8/6
f 927/8/6 923/8/6 928/8/6
f 921/8/6 927/8/6 929/8/6
f 927/9/6 928/9/6 929/9/6
f 928/8/6 923/8/6 930/8/6
f 929/9/6 928/9/6 930/9/6
f 930/8/6 923/8/6 931/8/6
f 931/8/6 923/8/6 932/8/6
f 929/8/6 930/8/6 933/8/6
f 930/8/6 931/8/6 933/8/6
f 931/9/6 932/9/6 933/9/6
f 932/8/6 923/8/6 934/8/6
f 933/9/6 932/9/6 934/9/6
f 923/9/6 925/9/6 935/9/6
f 934/8/6 923/8/6 935/8/6
f 925/9/6 926/9/6 935/9/6
f 926/8/6 898/8/6 936/8/6
f 935/9/6 926/9/6 936/9/6
f 934/8/6 935/8/6 937/8/6
f 933/8/6 934/8/6 937/8/6
f 935/8/6 936/8/6 937/8/6
f 921/8/6 929/8/6 937/8/6
f 929/8/6 933/8/6 937/8/6
f 937/8/6 936/8/6 938/8/6
f 938/8/6 936/8/6 939/8/6
f 939/8/6 936/8/6 940/8/6
f 936/8/6 898/8/6 941/8/6
f 940/8/6 936/8/6 941/8/6
f 941/8/6 898/8/6 942/8/6
f 921/8/6 937/8/6 943/8/6
f 937/9/6 938/9/6 943/9/6
f 938/8/6 939/8/6 944/8/6
f 943/9/6 938/9/6 944/9/6
f 939/9/6 940/9/6 945/9/6
f 944/8/6 939/8/6 945/8/6
f 940/8/6 941/8/6 946/8/6
f 945/9/6 940/9/6 946/9/6
f 946/8/6 941/8/6 947/8/6
f 947/8/6 941/8/6 948/8/6
f 948/8/6 941/8/6 949/8/6
f 949/8/6 941/8/6 950/8/6
f 941/9/6 942/9/6 951/9/6
f 950/8/6 941/8/6 951/8/6
f 942/8/6 898/8/6 952/8/6
f 951/9/6 942/9/6 952/9/6
f 897/8/6 911/8/6 953/8/6
f 911/8/6 921/8/6 953/8/6
f 943/8/6 944/8/6 953/8/6
f 921/8/6 943/8/6 953/8/6
f 944/8/6 945/8/6 953/8/6
f 946/8/6 947/8/6 953/8/6
f 945/8/6 946/8/6 953/8/6
f 953/8/6 947/8/6 954/8/6
f 947/9/6 948/9/6 955/9/6
f 954/8/6 947/8/6 955/8/6
f 948/8/6 949/8/6 956/8/6
f 955/9/6 948/9/6 956/9/6
f 951/8/6 952/8/6 957/8/6
f 950/8/6 951/8/6 957/8/6
f 957/8/6 952/8/6 958/8/6
f 958/8/6 952/8/6 959/8/6
f 952/8/6 898/8/6 960/8/6
f 959/8/6 952/8/6 960/8/6
f 897/8/6 953/8/6 961/8/6
f 953/9/6 954/9/6 962/9/6
f 961/8/6 953/8/6 962/8/6
f 954/8/6 955/8/6 963/8/6
f 955/8/6 956/8/6 963/8/6
f 963/8/6 956/8/6 964/8/6
f 956/8/6 949/8/6 965/8/6
f 964/8/6 956/8/6 965/8/6
f 965/8/6 949/8/6 966/8/6
f 950/8/6 957/8/6 967/8/6
f 957/9/6 958/9/6 967/9/6
f 958/8/6 959/8/6 968/8/6
f 967/9/6 958/9/6 968/9/6
f 959/9/6 960/9/6 969/9/6
f 968/8/6 959/8/6 969/8/6
f 960/8/6 898/8/6 970/8/6
f 969/9/6 960/9/6 970/9/6
f 963/9/6 964/9/6 971/9/6
f 954/8/6 963/8/6 971/8/6
f 964/8/6 965/8/6 972/8/6
f 971/9/6 964/9/6 972/9/6
f 965/9/6 966/9/6 973/9/6
f 972/8/6 965/8/6 973/8/6
f 966/8/6 949/8/6 974/8/6
f 973/9/6 966/9/6 974/9/6
f 974/8/6 949/8/6 975/8/6
f 975/8/6 949/8/6 976/8/6
f 949/9/6 950/9/6 977/9/6
f 976/8/6 949/8/6 977/8/6
f 950/8/6 967/8/6 978/8/6
f 977/9/6 950/9/6 978/9/6
f 968/8/6 969/8/6 978/8/6
f 967/8/6 968/8/6 978/8/6
f 969/8/6 970/8/6 978/8/6
f 975/9/6 976/9/6 979/9/6
f 974/8/6 975/8/6 979/8/6
f 972/8/6 973/8/6 979/8/6
f 971/8/6 972/8/6 979/8/6
f 973/8/6 974/8/6 979/8/6
f 976/8/6 977/8/6 980/8/6
f 979/9/6 976/9/6 980/9/6
f 977/8/6 978/8/6 980/8/6
f 971/8/6 979/8/6 981/8/6
f 954/8/6 971/8/6 981/8/6
f 979/8/6 980/8/6 981/8/6
f 981/8/6 980/8/6 982/8/6
f 980/8/6 978/8/6 983/8/6
f 982/8/6 980/8/6 983/8/6
f 983/8/6 978/8/6 984/8/6
f 981/9/6 982/9/6 985/9/6
f 954/8/6 981/8/6 985/8/6
f 982/8/6 983/8/6 986/8/6
f 985/9/6 982/9/6 986/9/6
f 833/8/6 913/8/6 987/8/6
f 914/8/6 887/8/6 988/8/6
f 986/8/6 983/8/6 989/8/6
f 983/9/6 984/9/6 989/9/6
f 985/8/6 986/8/6 989/8/6
f 984/8/6 978/8/6 990/8/6
f 989/9/6 984/9/6 990/9/6
f 961/9/6 962/9/6 991/9/6
f 897/8/6 961/8/6 991/8/6
f 985/8/6 989/8/6 992/8/6
f 991/9/6 962/9/6 992/9/6
f 962/9/6 954/9/6 992/9/6
f 989/8/6 990/8/6 992/8/6
f 954/8/6 985/8/6 992/8/6
f 992/8/6 990/8/6 993/8/6
f 993/8/6 990/8/6 994/8/6
f 991/8/6 992/8/6 995/8/6
f 992/8/6 993/8/6 995/8/6
f 995/8/6 993/8/6 996/8/6
f 833/8/6 987/8/6 997/8/6
f 987/8/6 988/8/6 997/8/6
f 988/8/6 887/8/6 998/8/6
f 997/8/6 988/8/6 998/8/6
f 995/9/6 996/9/6 999/9/6
f 991/8/6 995/8/6 999/8/6
f 996/8/6 993/8/6 1000/8/6
f 999/9/6 996/9/6 1000/9/6
f 1000/8/6 993/8/6 1001/8/6
f 1001/8/6 993/8/6 1002/8/6
f 993/9/6 994/9/6 1003/9/6
f 1002/8/6 993/8/6 1003/8/6
f 994/8/6 990/8/6 1004/8/6
f 1003/9/6 994/9/6 1004/9/6
f 1004/8/6 990/8/6 1005/8/6
f 990/8/6 978/8/6 1006/8/6
f 1005/8/6 990/8/6 1006/8/6
f 978/8/6 970/8/6 1007/8/6
f 1006/8/6 978/8/6 1007/8/6
f 1007/8/6 970/8/6 1008/8/6
f 1001/9/6 1002/9/6 1009/9/6
f 999/8/6 1000/8/6 1009/8/6
f 1000/8/6 1001/8/6 1009/8/6
f 1004/8/6 1005/8/6 1010/8/6
f 1009/9/6 1002/9/6 1010/9/6
f 1002/8/6 1003/8/6 1010/8/6
f 1003/8/6 1004/8/6 1010/8/6
f 1005/9/6 1006/9/6 1011/9/6
f 1010/8/6 1005/8/6 1011/8/6
f 1006/8/6 1007/8/6 1012/8/6
f 1011/9/6 1006/9/6 1012/9/6
f 1009/8/6 1010/8/6 1013/8/6
f 1012/8/6 1007/8/6 1013/8/6
f 1011/8/6 1012/8/6 1013/8/6
f 1007/9/6 1008/9/6 1013/9/6
f 1010/8/6 1011/8/6 1013/8/6
f 1008/8/6 970/8/6 1014/8/6
f 1013/9/6 1008/9/6 1014/9/6
f 999/8/6 1009/8/6 1015/8/6
f 1009/8/6 1013/8/6 1015/8/6
f 1013/8/6 1014/8/6 1015/8/6
f 1015/8/6 1014/8/6 1016/8/6
f 999/8/6 1015/8/6 1017/8/6
f 1017/8/6 1015/8/6 1018/8/6
f 1015/9/6 1016/9/6 1019/9/6
f 1018/8/6 1015/8/6 1019/8/6
f 1016/8/6 1014/8/6 1020/8/6
f 1019/9/6 1016/9/6 1020/9/6
f 1020/8/6 1014/8/6 1021/8/6
f 1021/8/6 1014/8/6 1022/8/6
f 1017/9/6 1018/9/6 1023/9/6
f 999/8/6 1017/8/6 1023/8/6
f 1018/8/6 1019/8/6 1024/8/6
f 1023/9/6 1018/9/6 1024/9/6
f 1019/8/6 1020/8/6 1024/8/6
f 1020/8/6 1021/8/6 1024/8/6
f 1021/9/6 1022/9/6 1025/9/6
f 1024/8/6 1021/8/6 1025/8/6
f 1022/8/6 1014/8/6 1026/8/6
f 1025/9/6 1022/9/6 1026/9/6
f 1024/8/6 1025/8/6 1027/8/6
f 1026/8/6 1014/8/6 1027/8/6
f 1025/8/6 1026/8/6 1027/8/6
f 1023/8/6 1024/8/6 1027/8/6
f 1027/8/6 1014/8/6 1028/8/6
f 1023/8/6 1027/8/6 1029/8/6
f 1027/9/6 1028/9/6 1029/9/6
f 1028/8/6 1014/8/6 1030/8/6
f 1029/9/6 1028/9/6 1030/9/6
f 833/8/6 997/8/6 1031/8/6
f 998/8/6 887/8/6 1032/8/6
f 1032/8/6 887/8/6 1033/8/6
f 1031/8/6 1032/8/6 1033/8/6
f 991/8/6 999/8/6 1034/8/6
f 897/8/6 991/8/6 1034/8/6
f 999/8/6 1023/8/6 1034/8/6
f 1029/8/6 1030/8/6 1034/8/6
f 1023/8/6 1029/8/6 1034/8/6
f 1031/8/6 1033/8/6 1035/8/6
f 1033/8/6 1034/8/6 1035/8/6
f 833/8/6 1031/8/6 1035/8/6
f 1034/8/6 1030/8/6 1036/8/6
f 1035/8/6 1034/8/6 1036/8/6
f 970/8/6 898/8/6 1036/8/6
f 1030/8/6 1014/8/6 1036/8/6
f 1014/8/6 970/8/6 1036/8/6
f 1039/4/6 1040/4/6 1041/4/6
f 1041/4/6 1040/4/6 1042/4/6
f 1037/4/6 1038/4/6 1043/4/6
f 1038/5/6 1039/5/6 1044/5/6
f 1043/4/6 1038/4/6 1044/4/6
f 1044/5/6 1039/5/6 1045/5/6
f 1039/4/6 1041/4/6 1046/4/6
f 1045/5/6 1039/5/6 1046/5/6
f 1041/5/6 1042/5/6 1047/5/6
f 1046/4/6 1041/4/6 1047/4/6
f 1042/4/6 1040/4/6 1048/4/6
f 1047/5/6 1042/5/6 1048/5/6
f 1048/4/6 1040/4/6 1049/4/6
f 1049/4/6 1040/4/6 1050/4/6
f 1050/4/6 1040/4/6 1051/4/6
f 1037/4/6 1043/4/6 1052/4/6
f 1044/5/6 1045/5/6 1053/5/6
f 1052/4/6 1043/4/6 1053/4/6
f 1043/5/6 1044/5/6 1053/5/6
f 1049/4/6 1050/4/6 1054/4/6
f 1050/5/6 1051/5/6 1055/5/6
f 1054/4/6 1050/4/6 1055/4/6
f 1051/4/6 1040/4/6 1056/4/6
f 1055/5/6 1051/5/6 1056/5/6
f 1056/4/6 1040/4/6 1057/4/6
f 1037/4/6 1052/4/6 1058/4/6
f 1052/5/6 1053/5/6 1059/5/6
f 1058/4/6 1052/4/6 1059/4/6
f 1053/5/6 1045/5/6 1060/5/6
f 1059/5/6 1053/5/6 1060/5/6
f 1046/6/6 1047/6/6 1061/6/6
f 1060/5/6 1045/5/6 1061/5/6
f 1045/6/6 1046/6/6 1061/6/6
f 1047/5/6 1048/5/6 1062/5/6
f 1048/5/6 1049/5/6 1062/5/6
f 1049/4/6 1054/4/6 1063/4/6
f 1062/5/6 1049/5/6 1063/5/6
f 1061/6/6 1047/6/6 1064/6/6
f 1060/6/6 1061/6/6 1064/6/6
f 1047/5/6 1062/5/6 1065/5/6
f 1064/6/6 1047/6/6 1065/6/6
f 1063/4/6 1054/4/6 1066/4/6
f 1062/4/6 1063/4/6 1066/4/6
f 1066/4/6 1054/4/6 1067/4/6
f 1067/4/6 1054/4/6 1068/4/6
f 1054/5/6 1055/5/6 1069/5/6
f 1068/4/6 1054/4/6 1069/4/6
f 1056/5/6 1057/5/6 1069/5/6
f 1055/5/6 1056/5/6 1069/5/6
f 1059/5/6 1060/5/6 1070/5/6
f 1058/5/6 1059/5/6 1070/5/6
f 1070/5/6 1060/5/6 1071/5/6
f 1060/6/6 1064/6/6 1072/6/6
f 1064/5/6 1065/5/6 1072/5/6
f 1065/5/6 1062/5/6 1073/5/6
f 1072/5/6 1065/5/6 1073/5/6
f 1062/4/6 1066/4/6 1073/4/6
f 1073/4/6 1066/4/6 1074/4/6
f 1074/4/6 1066/4/6 1075/4/6
f 1067/4/6 1068/4/6 1076/4/6
f 1066/5/6 1067/5/6 1076/5/6
f 1076/4/6 1068/4/6 1077/4/6
f 1037/4/6 1058/4/6 1078/4/6
f 1058/5/6 1070/5/6 1079/5/6
f 1078/4/6 1058/4/6 1079/4/6
f 1079/5/6 1070/5/6 1080/5/6
f 1080/5/6 1070/5/6 1081/5/6
f 1077/4/6 1068/4/6 1082/4/6
f 1068/5/6 1069/5/6 1083/5/6
f 1082/4/6 1068/4/6 1083/4/6
f 1069/5/6 1057/5/6 1084/5/6
f 1083/5/6 1069/5/6 1084/5/6
f 1084/5/6 1057/5/6 1085/5/6
f 1057/4/6 1040/4/6 1086/4/6
f 1085/5/6 1057/5/6 1086/5/6
f 1086/4/6 1040/4/6 1087/4/6
f 1081/5/6 1070/5/6 1088/5/6
f 1080/4/6 1081/4/6 1088/4/6
f 1088/5/6 1070/5/6 1089/5/6
f 1089/5/6 1070/5/6 1090/5/6
f 1070/6/6 1071/6/6 1091/6/6
f 1090/5/6 1070/5/6 1091/5/6
f 1071/5/6 1060/5/6 1092/5/6
f 1091/6/6 1071/6/6 1092/6/6
f 1060/6/6 1072/6/6 1093/6/6
f 1092/5/6 1060/5/6 1093/5/6
f 1072/6/6 1073/6/6 1093/6/6
f 1073/6/6 1074/6/6 1093/6/6
f 1075/4/6 1066/4/6 1094/4/6
f 1074/5/6 1075/5/6 1094/5/6
f 1094/4/6 1066/4/6 1095/4/6
f 1086/5/6 1087/5/6 1096/5/6
f 1085/5/6 1086/5/6 1096/5/6
f 1087/4/6 1040/4/6 1097/4/6
f 1096/5/6 1087/5/6 1097/5/6
f 1088/4/6 1089/4/6 1098/4/6
f 1080/4/6 1088/4/6 1098/4/6
f 1078/5/6 1079/5/6 1098/5/6
f 1079/5/6 1080/5/6 1098/5/6
f 1089/5/6 1090/5/6 1099/5/6
f 1098/4/6 1089/4/6 1099/4/6
f 1092/6/6 1093/6/6 1100/6/6
f 1099/5/6 1090/5/6 1100/5/6
f 1090/6/6 1091/6/6 1100/6/6
f 1091/6/6 1092/6/6 1100/6/6
f 1093/6/6 1074/6/6 1101/6/6
f 1100/6/6 1093/6/6 1101/6/6
f 1074/5/6 1094/5/6 1101/5/6
f 1094/5/6 1095/5/6 1101/5/6
f 1101/5/6 1095/5/6 1102/5/6
f 1095/4/6 1066/4/6 1103/4/6
f 1103/4/6 1066/4/6 1104/4/6
f 1066/5/6 1076/5/6 1105/5/6
f 1076/5/6 1077/5/6 1105/5/6
f 1105/5/6 1077/5/6 1106/5/6
f 1085/5/6 1096/5/6 1107/5/6
f 1096/4/6 1097/4/6 1107/4/6
f 1097/4/6 1040/4/6 1108/4/6
f 1107/4/6 1097/4/6 1108/4/6
f 1098/5/6 1099/5/6 1109/5/6
f 1078/5/6 1098/5/6 1109/5/6
f 1099/6/6 1100/6/6 1110/6/6
f 1109/5/6 1099/5/6 1110/5/6
f 1100/6/6 1101/6/6 1110/6/6
f 1101/6/6 1102/6/6 1110/6/6
f 1104/4/6 1066/4/6 1111/4/6
f 1066/5/6 1105/5/6 1112/5/6
f 1111/4/6 1066/4/6 1112/4/6
f 1077/4/6 1082/4/6 1113/4/6
f 1106/5/6 1077/5/6 1113/5/6
f 1113/4/6 1082/4/6 1114/4/6
f 1082/5/6 1083/5/6 1115/5/6
f 1083/5/6 1084/5/6 1115/5/6
f 1084/6/6 1085/6/6 1116/6/6
f 1115/5/6 1084/5/6 1116/5/6
f 1107/5/6 1108/5/6 1117/5/6
f 1116/6/6 1085/6/6 1117/6/6
f 1085/5/6 1107/5/6 1117/5/6
f 1117/5/6 1108/5/6 1118/5/6
f 1037/4/6 1078/4/6 1119/4/6
f 1119/4/6 1078/4/6 1120/4/6
f 1102/5/6 1095/5/6 1121/5/6
f 1095/4/6 1103/4/6 1121/4/6
f 1121/4/6 1103/4/6 1122/4/6
f 1122/4/6 1103/4/6 1123/4/6
f 1103/5/6 1104/5/6 1124/5/6
f 1123/4/6 1103/4/6 1124/4/6
f 1114/4/6 1082/4/6 1125/4/6
f 1113/5/6 1114/5/6 1125/5/6
f 1082/5/6 1115/5/6 1126/5/6
f 1125/4/6 1082/4/6 1126/4/6
f 1119/5/6 1120/5/6 1127/5/6
f 1037/4/6 1119/4/6 1127/4/6
f 1120/4/6 1078/4/6 1128/4/6
f 1127/5/6 1120/5/6 1128/5/6
f 1122/4/6 1123/4/6 1129/4/6
f 1121/5/6 1122/5/6 1129/5/6
f 1123/5/6 1124/5/6 1130/5/6
f 1129/4/6 1123/4/6 1130/4/6
f 1111/5/6 1112/5/6 1131/5/6
f 1112/5/6 1105/5/6 1132/5/6
f 1131/5/6 1112/5/6 1132/5/6
f 1105/6/6 1106/6/6 1132/6/6
f 1132/6/6 1106/6/6 1133/6/6
f 1113/5/6 1125/5/6 1134/5/6
f 1133/6/6 1106/6/6 1134/6/6
f 1106/5/6 1113/5/6 1134/5/6
f 1125/5/6 1126/5/6 1134/5/6
f 1126/5/6 1115/5/6 1135/5/6
f 1134/5/6 1126/5/6 1135/5/6
f 1115/6/6 1116/6/6 1136/6/6
f 1135/5/6 1115/5/6 1136/5/6
f 1116/6/6 1117/6/6 1136/6/6
f 1117/6/6 1118/6/6 1136/6/6
f 1124/5/6 1104/5/6 1137/5/6
f 1130/5/6 1124/5/6 1137/5/6
f 1129/5/6 1130/5/6 1137/5/6
f 1137/5/6 1104/5/6 1138/5/6
f 1104/4/6 1111/4/6 1139/4/6
f 1138/5/6 1104/5/6 1139/5/6
f 1111/5/6 1131/5/6 1140/5/6
f 1139/4/6 1111/4/6 1140/4/6
f 1140/5/6 1131/5/6 1141/5/6
f 1132/6/6 1133/6/6 1142/6/6
f 1141/5/6 1131/5/6 1142/5/6
f 1131/6/6 1132/6/6 1142/6/6
f 1134/5/6 1135/5/6 1143/5/6
f 1142/6/6 1133/6/6 1143/6/6
f 1133/5/6 1134/5/6 1143/5/6
f 1143/5/6 1135/5/6 1144/5/6
f 1144/5/6 1135/5/6 1145/5/6
f 1135/6/6 1136/6/6 1146/6/6
f 1145/5/6 1135/5/6 1146/5/6
f 1127/4/6 1128/4/6 1147/4/6
f 1128/4/6 1078/4/6 1147/4/6
f 1078/5/6 1109/5/6 1148/5/6
f 1147/4/6 1078/4/6 1148/4/6
f 1109/6/6 1110/6/6 1149/6/6
f 1148/5/6 1109/5/6 1149/5/6
f 1110/6/6 1102/6/6 1150/6/6
f 1149/6/6 1110/6/6 1150/6/6
f 1121/5/6 1129/5/6 1151/5/6
f 1150/6/6 1102/6/6 1151/6/6
f 1129/5/6 1137/5/6 1151/5/6
f 1102/5/6 1121/5/6 1151/5/6
f 1151/5/6 1137/5/6 1152/5/6
f 1144/5/6 1145/5/6 1153/5/6
f 1145/6/6 1146/6/6 1154/6/6
f 1153/5/6 1145/5/6 1154/5/6
f 1136/6/6 1118/6/6 1155/6/6
f 1154/6/6 1146/6/6 1155/6/6
f 1118/5/6 1108/5/6 1155/5/6
f 1146/6/6 1136/6/6 1155/6/6
f 1155/5/6 1108/5/6 1156/5/6
f 1149/5/6 1150/5/6 1157/5/6
f 1148/5/6 1149/5/6 1157/5/6
f 1147/5/6 1148/5/6 1157/5/6
f 1151/6/6 1152/6/6 1158/6/6
f 1157/5/6 1150/5/6 1158/5/6
f 1150/6/6 1151/6/6 1158/6/6
f 1158/6/6 1152/6/6 1159/6/6
f 1159/6/6 1152/6/6 1160/6/6
f 1160/6/6 1152/6/6 1161/6/6
f 1161/6/6 1152/6/6 1162/6/6
f 1162/6/6 1152/6/6 1163/6/6
f 1163/6/6 1152/6/6 1164/6/6
f 1152/5/6 1137/5/6 1165/5/6
f 1164/6/6 1152/6/6 1165/6/6
f 1137/4/6 1138/4/6 1166/4/6
f 1165/5/6 1137/5/6 1166/5/6
f 1140/5/6 1141/5/6 1167/5/6
f 1166/4/6 1138/4/6 1167/4/6
f 1138/5/6 1139/5/6 1167/5/6
f 1139/5/6 1140/5/6 1167/5/6
f 1167/5/6 1141/5/6 1168/5/6
f 1141/6/6 1142/6/6 1169/6/6
f 1168/5/6 1141/5/6 1169/5/6
f 1142/6/6 1143/6/6 1169/6/6
f 1143/6/6 1144/6/6 1169/6/6
f 1144/5/6 1153/5/6 1170/5/6
f 1169/6/6 1144/6/6 1170/6/6
f 1153/6/6 1154/6/6 1171/6/6
f 1170/5/6 1153/5/6 1171/5/6
f 1155/6/6 1156/6/6 1171/6/6
f 1154/6/6 1155/6/6 1171/6/6
f 1162/6/6 1163/6/6 1172/6/6
f 1163/5/6 1164/5/6 1173/5/6
f 1172/6/6 1163/6/6 1173/6/6
f 1165/6/6 1166/6/6 1174/6/6
f 1173/5/6 1164/5/6 1174/5/6
f 1164/6/6 1165/6/6 1174/6/6
f 1174/6/6 1166/6/6 1175/6/6
f 1167/5/6 1168/5/6 1176/5/6
f 1175/6/6 1166/6/6 1176/6/6
f 1166/5/6 1167/5/6 1176/5/6
f 1169/6/6 1170/6/6 1177/6/6
f 1176/5/6 1168/5/6 1177/5/6
f 1168/6/6 1169/6/6 1177/6/6
f 1170/6/6 1171/6/6 1177/6/6
f 1156/5/6 1108/5/6 1178/5/6
f 1177/6/6 1171/6/6 1178/6/6
f 1171/6/6 1156/6/6 1178/6/6
f 1108/4/6 1040/4/6 1179/4/6
f 1178/5/6 1108/5/6 1179/5/6
f 1179/4/6 1040/4/6 1180/4/6
f 1160/6/6 1161/6/6 1181/6/6
f 1159/5/6 1160/5/6 1181/5/6
f 1161/5/6 1162/5/6 1182/5/6
f 1181/6/6 1161/6/6 1182/6/6
f 1175/6/6 1176/6/6 1183/6/6
f 1177/6/6 1178/6/6 1183/6/6
f 1176/6/6 1177/6/6 1183/6/6
f 1178/6/6 1179/6/6 1183/6/6
f 1183/6/6 1179/6/6 1184/6/6
f 1162/6/6 1172/6/6 1185/6/6
f 1172/5/6 1173/5/6 1186/5/6
f 1185/6/6 1172/6/6 1186/6/6
f 1174/5/6 1175/5/6 1186/5/6
f 1173/5/6 1174/5/6 1186/5/6
f 1175/6/6 1183/6/6 1187/6/6
f 1186/5/6 1175/5/6 1187/5/6
f 1187/6/6 1183/6/6 1188/6/6
f 1183/5/6 1184/5/6 1189/5/6
f 1188/6/6 1183/6/6 1189/6/6
f 1184/6/6 1179/6/6 1190/6/6
f 1189/5/6 1184/5/6 1190/5/6
f 1190/6/6 1179/6/6 1191/6/6
f 1191/6/6 1179/6/6 1192/6/6
f 1127/4/6 1147/4/6 1193/4/6
f 1147/5/6 1157/5/6 1193/5/6
f 1193/5/6 1157/5/6 1194/5/6
f 1158/6/6 1159/6/6 1195/6/6
f 1194/5/6 1157/5/6 1195/5/6
f 1157/6/6 1158/6/6 1195/6/6
f 1181/5/6 1182/5/6 1196/5/6
f 1195/6/6 1159/6/6 1196/6/6
f 1159/5/6 1181/5/6 1196/5/6
f 1182/5/6 1162/5/6 1197/5/6
f 1196/5/6 1182/5/6 1197/5/6
f 1162/6/6 1185/6/6 1197/6/6
f 1187/5/6 1188/5/6 1198/5/6
f 1197/6/6 1185/6/6 1198/6/6
f 1185/5/6 1186/5/6 1198/5/6
f 1186/5/6 1187/5/6 1198/5/6
f 1189/6/6 1190/6/6 1199/6/6
f 1198/5/6 1188/5/6 1199/5/6
f 1188/6/6 1189/6/6 1199/6/6
f 1190/6/6 1191/6/6 1199/6/6
f 1199/6/6 1191/6/6 1200/6/6
f 1200/6/6 1191/6/6 1201/6/6
f 1201/6/6 1191/6/6 1202/6/6
f 1192/6/6 1179/6/6 1203/6/6
f 1179/5/6 1180/5/6 1204/5/6
f 1203/6/6 1179/6/6 1204/6/6
f 1195/5/6 1196/5/6 1205/5/6
f 1197/5/6 1198/5/6 1205/5/6
f 1194/5/6 1195/5/6 1205/5/6
f 1196/5/6 1197/5/6 1205/5/6
f 1198/5/6 1199/5/6 1205/5/6
f 1199/5/6 1200/5/6 1205/5/6
f 1205/5/6 1200/5/6 1206/5/6
f 1202/6/6 1191/6/6 1207/6/6
f 1207/6/6 1191/6/6 1208/6/6
f 1208/6/6 1191/6/6 1209/6/6
f 1191/5/6 1192/5/6 1210/5/6
f 1209/6/6 1191/6/6 1210/6/6
f 1192/6/6 1203/6/6 1211/6/6
f 1203/5/6 1204/5/6 1212/5/6
f 1211/6/6 1203/6/6 1212/6/6
f 1212/5/6 1204/5/6 1213/5/6
f 1204/5/6 1180/5/6 1214/5/6
f 1213/5/6 1204/5/6 1214/5/6
f 1180/4/6 1040/4/6 1214/4/6
f 1194/5/6 1205/5/6 1215/5/6
f 1205/4/6 1206/4/6 1216/4/6
f 1215/5/6 1205/5/6 1216/5/6
f 1206/5/6 1200/5/6 1217/5/6
f 1200/6/6 1201/6/6 1217/6/6
f 1201/5/6 1202/5/6 1218/5/6
f 1217/6/6 1201/6/6 1218/6/6
f 1202/6/6 1207/6/6 1219/6/6
f 1218/5/6 1202/5/6 1219/5/6
f 1207/5/6 1208/5/6 1220/5/6
f 1219/6/6 1207/6/6 1220/6/6
f 1208/4/6 1209/4/6 1221/4/6
f 1209/5/6 1210/5/6 1221/5/6
f 1210/5/6 1192/5/6 1222/5/6
f 1221/5/6 1210/5/6 1222/5/6
f 1192/6/6 1211/6/6 1223/6/6
f 1222/5/6 1192/5/6 1223/5/6
f 1212/5/6 1213/5/6 1224/5/6
f 1223/6/6 1211/6/6 1224/6/6
f 1211/5/6 1212/5/6 1224/5/6
f 1193/4/6 1194/4/6 1225/4/6
f 1194/5/6 1215/5/6 1225/5/6
f 1225/5/6 1215/5/6 1226/5/6
f 1226/5/6 1215/5/6 1227/5/6
f 1227/5/6 1215/5/6 1228/5/6
f 1216/4/6 1206/4/6 1229/4/6
f 1206/5/6 1217/5/6 1229/5/6
f 1215/4/6 1216/4/6 1229/4/6
f 1217/5/6 1218/5/6 1229/5/6
f 1218/5/6 1219/5/6 1229/5/6
f 1219/5/6 1220/5/6 1229/5/6
f 1229/5/6 1220/5/6 1230/5/6
f 1230/5/6 1220/5/6 1231/5/6
f 1221/4/6 1222/4/6 1232/4/6
f 1231/5/6 1220/5/6 1232/5/6
f 1208/4/6 1221/4/6 1232/4/6
f 1220/5/6 1208/5/6 1232/5/6
f 1222/5/6 1223/5/6 1233/5/6
f 1224/5/6 1213/5/6 1233/5/6
f 1223/5/6 1224/5/6 1233/5/6
f 1213/4/6 1214/4/6 1234/4/6
f 1233/5/6 1213/5/6 1234/5/6
f 1226/5/6 1227/5/6 1235/5/6
f 1225/4/6 1226/4/6 1235/4/6
f 1227/4/6 1228/4/6 1236/4/6
f 1235/5/6 1227/5/6 1236/5/6
f 1230/5/6 1231/5/6 1237/5/6
f 1229/4/6 1230/4/6 1237/4/6
f 1237/5/6 1231/5/6 1238/5/6
f 1228/5/6 1215/5/6 1239/5/6
f 1236/4/6 1228/4/6 1239/4/6
f 1235/4/6 1236/4/6 1239/4/6
f 1239/5/6 1215/5/6 1240/5/6
f 1240/5/6 1215/5/6 1241/5/6
f 1237/4/6 1238/4/6 1242/4/6
f 1241/5/6 1215/5/6 1242/5/6
f 1229/4/6 1237/4/6 1242/4/6
f 1215/4/6 1229/4/6 1242/4/6
f 1238/5/6 1231/5/6 1243/5/6
f 1242/4/6 1238/4/6 1243/4/6
f 1231/4/6 1232/4/6 1244/4/6
f 1243/5/6 1231/5/6 1244/5/6
f 1232/4/6 1222/4/6 1245/4/6
f 1244/4/6 1232/4/6 1245/4/6
f 1222/5/6 1233/5/6 1245/5/6
f 1245/5/6 1233/5/6 1246/5/6
f 1225/4/6 1235/4/6 1247/4/6
f 1037/4/6 1127/4/6 1247/4/6
f 1239/4/6 1240/4/6 1247/4/6
f 1235/4/6 1239/4/6 1247/4/6
f 1193/4/6 1225/4/6 1247/4/6
f 1127/4/6 1193/4/6 1247/4/6
f 1240/5/6 1241/5/6 1248/5/6
f 1247/4/6 1240/4/6 1248/4/6
f 1243/4/6 1244/4/6 1249/4/6
f 1248/5/6 1241/5/6 1249/5/6
f 1241/4/6 1242/4/6 1249/4/6
f 1242/4/6 1243/4/6 1249/4/6
f 1244/4/6 1245/4/6 1249/4/6
f 1245/4/6 1246/4/6 1249/4/6
f 1246/5/6 1233/5/6 1250/5/6
f 1249/4/6 1246/4/6 1250/4/6
f 1233/4/6 1234/4/6 1251/4/6
f 1250/5/6 1233/5/6 1251/5/6
f 1214/4/6 1040/4/6 1252/4/6
f 1251/4/6 1234/4/6 1252/4/6
f 1234/4/6 1214/4/6 1252/4/6
f 1253/8/6 1254/8/6 1255/8/6
f 1255/8/6 1254/8/6 1256/8/6
f 1253/8/6 1255/8/6 1257/8/6
f 1257/8/6 1255/8/6 1258/8/6
f 1256/8/6 1254/8/6 1259/8/6
f 1259/8/6 1254/8/6 1260/8/6
f 1256/8/6 1259/8/6 1261/8/6
f 1259/9/6 1260/9/6 1261/9/6
f 1260/8/6 1254/8/6 1262/8/6
f 1261/9/6 1260/9/6 1262/9/6
f 1261/8/6 1262/8/6 1263/8/6
f 1262/8/6 1254/8/6 1263/8/6
f 1263/8/6 1254/8/6 1264/8/6
f 1261/8/6 1263/8/6 1265/8/6
f 1263/9/6 1264/9/6 1265/9/6
f 1264/8/6 1254/8/6 1266/8/6
f 1265/9/6 1264/9/6 1266/9/6
f 1253/8/6 1257/8/6 1267/8/6
f 1258/8/6 1255/8/6 1268/8/6
f 1256/8/6 1261/8/6 1269/8/6
f 1261/8/6 1265/8/6 1269/8/6
f 1265/8/6 1266/8/6 1269/8/6
f 1269/8/6 1266/8/6 1270/8/6
f 1256/8/6 1269/8/6 1271/8/6
f 1269/9/6 1270/9/6 1271/9/6
f 1270/8/6 1266/8/6 1272/8/6
f 1271/9/6 1270/9/6 1272/9/6
f 1272/8/6 1266/8/6 1273/8/6
f 1273/8/6 1266/8/6 1274/8/6
f 1274/8/6 1266/8/6 1275/8/6
f 1253/8/6 1267/8/6 1276/8/6
f 1267/8/6 1268/8/6 1276/8/6
f 1268/8/6 1255/8/6 1277/8/6
f 1276/8/6 1268/8/6 1277/8/6
f 1274/9/6 1275/9/6 1278/9/6
f 1273/8/6 1274/8/6 1278/8/6
f 1275/8/6 1266/8/6 1279/8/6
f 1278/9/6 1275/9/6 1279/9/6
f 1266/8/6 1254/8/6 1280/8/6
f 1279/8/6 1266/8/6 1280/8/6
f 1280/8/6 1254/8/6 1281/8/6
f 1278/8/6 1279/8/6 1282/8/6
f 1280/9/6 1281/9/6 1282/9/6
f 1279/8/6 1280/8/6 1282/8/6
f 1281/8/6 1254/8/6 1283/8/6
f 1282/9/6 1281/9/6 1283/9/6
f 1283/8/6 1254/8/6 1284/8/6
f 1284/8/6 1254/8/6 1285/8/6
f 1282/8/6 1283/8/6 1286/8/6
f 1283/8/6 1284/8/6 1286/8/6
f 1284/9/6 1285/9/6 1286/9/6
f 1285/8/6 1254/8/6 1287/8/6
f 1286/9/6 1285/9/6 1287/9/6
f 1282/8/6 1286/8/6 1288/8/6
f 1286/8/6 1287/8/6 1288/8/6
f 1288/8/6 1287/8/6 1289/8/6
f 1282/8/6 1288/8/6 1290/8/6
f 1288/9/6 1289/9/6 1290/9/6
f 1289/8/6 1287/8/6 1291/8/6
f 1290/9/6 1289/9/6 1291/9/6
f 1278/8/6 1282/8/6 1292/8/6
f 1282/8/6 1290/8/6 1292/8/6
f 1290/8/6 1291/8/6 1292/8/6
f 1292/8/6 1291/8/6 1293/8/6
f 1271/8/6 1272/8/6 1294/8/6
f 1272/9/6 1273/9/6 1294/9/6
f 1273/8/6 1278/8/6 1295/8/6
f 1294/9/6 1273/9/6 1295/9/6
f 1278/8/6 1292/8/6 1295/8/6
f 1292/9/6 1293/9/6 1296/9/6
f 1295/8/6 1292/8/6 1296/8/6
f 1293/8/6 1291/8/6 1297/8/6
f 1296/9/6 1293/9/6 1297/9/6
f 1253/8/6 1276/8/6 1298/8/6
f 1277/8/6 1255/8/6 1299/8/6
f 1271/8/6 1294/8/6 1300/8/6
f 1295/8/6 1296/8/6 1300/8/6
f 1294/8/6 1295/8/6 1300/8/6
f 1296/8/6 1297/8/6 1300/8/6
f 1300/8/6 1297/8/6 1301/8/6
f 1271/8/6 1300/8/6 1302/8/6
f 1300/9/6 1301/9/6 1302/9/6
f 1301/8/6 1297/8/6 1303/8/6
f 1302/9/6 1301/9/6 1303/9/6
f 1297/8/6 1291/8/6 1304/8/6
f 1303/8/6 1297/8/6 1304/8/6
f 1304/8/6 1291/8/6 1305/8/6
f 1302/8/6 1303/8/6 1306/8/6
f 1303/8/6 1304/8/6 1306/8/6
f 1306/8/6 1304/8/6 1307/8/6
f 1304/9/6 1305/9/6 1308/9/6
f 1307/8/6 1304/8/6 1308/8/6
f 1305/8/6 1291/8/6 1309/8/6
f 1308/9/6 1305/9/6 1309/9/6
f 1298/8/6 1299/8/6 1310/8/6
f 1253/8/6 1298/8/6 1310/8/6
f 1299/8/6 1255/8/6 1311/8/6
f 1310/8/6 1299/8/6 1311/8/6
f 1306/9/6 1307/9/6 1312/9/6
f 1302/8/6 1306/8/6 1312/8/6
f 1308/8/6 1309/8/6 1313/8/6
f 1312/9/6 1307/9/6 1313/9/6
f 1307/8/6 1308/8/6 1313/8/6
f 1313/8/6 1309/8/6 1314/8/6
f 1314/8/6 1309/8/6 1315/8/6
f 1315/8/6 1309/8/6 1316/8/6
f 1309/8/6 1291/8/6 1317/8/6
f 1316/8/6 1309/8/6 1317/8/6
f 1312/8/6 1313/8/6 1318/8/6
f 1313/8/6 1314/8/6 1318/8/6
f 1314/9/6 1315/9/6 1318/9/6
f 1315/8/6 1316/8/6 1319/8/6
f 1318/9/6 1315/9/6 1319/9/6
f 1316/9/6 1317/9/6 1320/9/6
f 1319/8/6 1316/8/6 1320/8/6
f 1318/8/6 1319/8/6 1320/8/6
f 1317/8/6 1291/8/6 1321/8/6
f 1320/9/6 1317/9/6 1321/9/6
f 1318/8/6 1320/8/6 1322/8/6
f 1320/8/6 1321/8/6 1322/8/6
f 1322/8/6 1321/8/6 1323/8/6
f 1318/8/6 1322/8/6 1324/8/6
f 1322/9/6 1323/9/6 1324/9/6
f 1323/8/6 1321/8/6 1325/8/6
f 1324/9/6 1323/9/6 1325/9/6
f 1324/8/6 1325/8/6 1326/8/6
f 1325/8/6 1321/8/6 1326/8/6
f 1321/8/6 1291/8/6 1327/8/6
f 1326/8/6 1321/8/6 1327/8/6
f 1324/8/6 1326/8/6 1328/8/6
f 1326/9/6 1327/9/6 1328/9/6
f 1327/8/6 1291/8/6 1329/8/6
f 1328/9/6 1327/9/6 1329/9/6
f 1312/8/6 1318/8/6 1330/8/6
f 1302/8/6 1312/8/6 1330/8/6
f 1328/8/6 1329/8/6 1330/8/6
f 1318/8/6 1324/8/6 1330/8/6
f 1324/8/6 1328/8/6 1330/8/6
f 1271/8/6 1302/8/6 1330/8/6
f 1330/8/6 1329/8/6 1331/8/6
f 1256/8/6 1271/8/6 1332/8/6
f 1271/8/6 1330/8/6 1332/8/6
f 1332/8/6 1330/8/6 1333/8/6
f 1330/9/6 1331/9/6 1334/9/6
f 1333/8/6 1330/8/6 1334/8/6
f 1331/8/6 1329/8/6 1335/8/6
f 1334/9/6 1331/9/6 1335/9/6
f 1335/8/6 1329/8/6 1336/8/6
f 1336/8/6 1329/8/6 1337/8/6
f 1332/9/6 1333/9/6 1338/9/6
f 1256/8/6 1332/8/6 1338/8/6
f 1333/8/6 1334/8/6 1339/8/6
f 1338/9/6 1333/9/6 1339/9/6
f 1334/8/6 1335/8/6 1339/8/6
f 1335/8/6 1336/8/6 1339/8/6
f 1336/9/6 1337/9/6 1340/9/6
f 1339/8/6 1336/8/6 1340/8/6
f 1338/8/6 1339/8/6 1340/8/6
f 1337/8/6 1329/8/6 1341/8/6
f 1340/9/6 1337/9/6 1341/9/6
f 1341/8/6 1329/8/6 1342/8/6
f 1342/8/6 1329/8/6 1343/8/6
f 1340/8/6 1341/8/6 1344/8/6
f 1341/8/6 1342/8/6 1344/8/6
f 1342/9/6 1343/9/6 1344/9/6
f 1343/8/6 1329/8/6 1345/8/6
f 1344/9/6 1343/9/6 1345/9/6
f 1253/8/6 1310/8/6 1346/8/6
f 1311/8/6 1255/8/6 1347/8/6
f 1253/8/6 1346/8/6 1348/8/6
f 1346/8/6 1347/8/6 1348/8/6
f 1347/8/6 1255/8/6 1349/8/6
f 1348/8/6 1347/8/6 1349/8/6
f 1340/8/6 1344/8/6 1350/8/6
f 1344/8/6 1345/8/6 1350/8/6
f 1350/8/6 1345/8/6 1351/8/6
f 1338/8/6 1340/8/6 1352/8/6
f 1340/8/6 1350/8/6 1352/8/6
f 1352/8/6 1350/8/6 1353/8/6
f 1350/9/6 1351/9/6 1354/9/6
f 1353/8/6 1350/8/6 1354/8/6
f 1351/8/6 1345/8/6 1355/8/6
f 1354/9/6 1351/9/6 1355/9/6
f 1352/9/6 1353/9/6 1356/9/6
f 1338/8/6 1352/8/6 1356/8/6
f 1353/8/6 1354/8/6 1357/8/6
f 1356/9/6 1353/9/6 1357/9/6
f 1354/8/6 1355/8/6 1357/8/6
f 1338/8/6 1356/8/6 1358/8/6
f 1356/8/6 1357/8/6 1358/8/6
f 1357/8/6 1355/8/6 1359/8/6
f 1358/8/6 1357/8/6 1359/8/6
f 1359/8/6 1355/8/6 1360/8/6
f 1360/8/6 1355/8/6 1361/8/6
f 1361/8/6 1355/8/6 1362/8/6
f 1362/8/6 1355/8/6 1363/8/6
f 1359/8/6 1360/8/6 1364/8/6
f 1360/9/6 1361/9/6 1364/9/6
f 1361/8/6 1362/8/6 1365/8/6
f 1364/9/6 1361/9/6 1365/9/6
f 1365/8/6 1362/8/6 1366/8/6
f 1366/8/6 1362/8/6 1367/8/6
f 1367/8/6 1362/8/6 1368/8/6
f 1368/8/6 1362/8/6 1369/8/6
f 1364/8/6 1365/8/6 1370/8/6
f 1365/8/6 1366/8/6 1370/8/6
f 1366/9/6 1367/9/6 1370/9/6
f 1367/8/6 1368/8/6 1371/8/6
f 1370/9/6 1367/9/6 1371/9/6
f 1368/9/6 1369/9/6 1372/9/6
f 1371/8/6 1368/8/6 1372/8/6
f 1369/8/6 1362/8/6 1373/8/6
f 1372/9/6 1369/9/6 1373/9/6
f 1362/9/6 1363/9/6 1374/9/6
f 1373/8/6 1362/8/6 1374/8/6
f 1363/8/6 1355/8/6 1375/8/6
f 1374/9/6 1363/9/6 1375/9/6
f 1355/8/6 1345/8/6 1376/8/6
f 1375/8/6 1355/8/6 1376/8/6
f 1376/8/6 1345/8/6 1377/8/6
f 1345/8/6 1329/8/6 1378/8/6
f 1377/8/6 1345/8/6 1378/8/6
f 1329/8/6 1291/8/6 1379/8/6
f 1378/8/6 1329/8/6 1379/8/6
f 1338/8/6 1358/8/6 1380/8/6
f 1358/9/6 1359/9/6 1380/9/6
f 1374/8/6 1375/8/6 1381/8/6
f 1380/9/6 1359/9/6 1381/9/6
f 1373/8/6 1374/8/6 1381/8/6
f 1375/8/6 1376/8/6 1381/8/6
f 1364/8/6 1370/8/6 1381/8/6
f 1370/8/6 1371/8/6 1381/8/6
f 1371/8/6 1372/8/6 1381/8/6
f 1359/8/6 1364/8/6 1381/8/6
f 1372/8/6 1373/8/6 1381/8/6
f 1376/9/6 1377/9/6 1382/9/6
f 1381/8/6 1376/8/6 1382/8/6
f 1377/8/6 1378/8/6 1383/8/6
f 1382/9/6 1377/9/6 1383/9/6
f 1378/9/6 1379/9/6 1384/9/6
f 1383/8/6 1378/8/6 1384/8/6
f 1379/8/6 1291/8/6 1385/8/6
f 1384/9/6 1379/9/6 1385/9/6
f 1291/8/6 1287/8/6 1386/8/6
f 1385/8/6 1291/8/6 1386/8/6
f 1287/8/6 1254/8/6 1386/8/6
f 1386/8/6 1254/8/6 1387/8/6
f 1381/8/6 1382/8/6 1388/8/6
f 1384/8/6 1385/8/6 1388/8/6
f 1382/8/6 1383/8/6 1388/8/6
f 1385/8/6 1386/8/6 1388/8/6
f 1338/8/6 1380/8/6 1388/8/6
f 1256/8/6 1338/8/6 1388/8/6
f 1380/8/6 1381/8/6 1388/8/6
f 1383/8/6 1384/8/6 1388/8/6
f 1388/8/6 1386/8/6 1389/8/6
f 1386/9/6 1387/9/6 1390/9/6
f 1389/8/6 1386/8/6 1390/8/6
f 1387/8/6 1254/8/6 1391/8/6
f 1390/9/6 1387/9/6 1391/9/6
f 1388/9/6 1389/9/6 1392/9/6
f 1256/8/6 1388/8/6 1392/8/6
f 1389/8/6 1390/8/6 1393/8/6
f 1392/9/6 1389/9/6 1393/9/6
f 1390/8/6 1391/8/6 1393/8/6
f 1393/8/6 1391/8/6 1394/8/6
f 1394/8/6 1391/8/6 1395/8/6
f 1391/8/6 1254/8/6 1396/8/6
f 1395/8/6 1391/8/6 1396/8/6
f 1396/8/6 1254/8/6 1397/8/6
f 1392/8/6 1393/8/6 1398/8/6
f 1393/8/6 1394/8/6 1398/8/6
f 1398/8/6 1394/8/6 1399/8/6
f 1396/9/6 1397/9/6 1400/9/6
f 1395/8/6 1396/8/6 1400/8/6
f 1397/8/6 1254/8/6 1401/8/6
f 1400/9/6 1397/9/6 1401/9/6
f 1398/9/6 1399/9/6 1402/9/6
f 1392/8/6 1398/8/6 1402/8/6
f 1399/8/6 1394/8/6 1403/8/6
f 1402/9/6 1399/9/6 1403/9/6
f 1394/9/6 1395/9/6 1404/9/6
f 1403/8/6 1394/8/6 1404/8/6
f 1402/8/6 1403/8/6 1404/8/6
f 1400/8/6 1401/8/6 1405/8/6
f 1404/9/6 1395/9/6 1405/9/6
f 1395/8/6 1400/8/6 1405/8/6
f 1253/8/6 1348/8/6 1406/8/6
f 1349/8/6 1255/8/6 1407/8/6
f 1405/8/6 1401/8/6 1408/8/6
f 1404/8/6 1405/8/6 1408/8/6
f 1408/8/6 1401/8/6 1409/8/6
f 1404/8/6 1408/8/6 1410/8/6
f 1408/9/6 1409/9/6 1410/9/6
f 1409/8/6 1401/8/6 1411/8/6
f 1410/9/6 1409/9/6 1411/9/6
f 1406/8/6 1407/8/6 1412/8/6
f 1253/8/6 1406/8/6 1412/8/6
f 1407/8/6 1255/8/6 1413/8/6
f 1412/8/6 1407/8/6 1413/8/6
f 1402/8/6 1404/8/6 1414/8/6
f 1410/8/6 1411/8/6 1414/8/6
f 1392/8/6 1402/8/6 1414/8/6
f 1404/8/6 1410/8/6 1414/8/6
f 1414/8/6 1411/8/6 1415/8/6
f 1415/8/6 1411/8/6 1416/8/6
f 1416/8/6 1411/8/6 1417/8/6
f 1392/8/6 1414/8/6 1418/8/6
f 1414/9/6 1415/9/6 1418/9/6
f 1415/8/6 1416/8/6 1419/8/6
f 1418/9/6 1415/9/6 1419/9/6
f 1416/9/6 1417/9/6 1420/9/6
f 1419/8/6 1416/8/6 1420/8/6
f 1417/8/6 1411/8/6 1421/8/6
f 1420/9/6 1417/9/6 1421/9/6
f 1419/8/6 1420/8/6 1422/8/6
f 1421/8/6 1411/8/6 1422/8/6
f 1420/8/6 1421/8/6 1422/8/6
f 1418/8/6 1419/8/6 1422/8/6
f 1422/8/6 1411/8/6 1423/8/6
f 1423/8/6 1411/8/6 1424/8/6
f 1424/8/6 1411/8/6 1425/8/6
f 1425/8/6 1411/8/6 1426/8/6
f 1426/8/6 1411/8/6 1427/8/6
f 1427/8/6 1411/8/6 1428/8/6
f 1428/8/6 1411/8/6 1429/8/6
f 1392/8/6 1418/8/6 1430/8/6
f 1418/8/6 1422/8/6 1430/8/6
f 1430/8/6 1422/8/6 1431/8/6
f 1422/9/6 1423/9/6 1432/9/6
f 1431/8/6 1422/8/6 1432/8/6
f 1423/8/6 1424/8/6 1433/8/6
f 1432/9/6 1423/9/6 1433/9/6
f 1424/9/6 1425/9/6 1434/9/6
f 1433/8/6 1424/8/6 1434/8/6
f 1425/8/6 1426/8/6 1435/8/6
f 1434/9/6 1425/9/6 1435/9/6
f 1426/9/6 1427/9/6 1436/9/6
f 1435/8/6 1426/8/6 1436/8/6
f 1427/8/6 1428/8/6 1437/8/6
f 1436/9/6 1427/9/6 1437/9/6
f 1428/9/6 1429/9/6 1438/9/6
f 1437/8/6 1428/8/6 1438/8/6
f 1429/8/6 1411/8/6 1439/8/6
f 1438/9/6 1429/9/6 1439/9/6
f 1430/9/6 1431/9/6 1440/9/6
f 1392/8/6 1430/8/6 1440/8/6
f 1437/8/6 1438/8/6 1441/8/6
f 1440/9/6 1431/9/6 1441/9/6
f 1436/8/6 1437/8/6 1441/8/6
f 1438/8/6 1439/8/6 1441/8/6
f 1435/8/6 1436/8/6 1441/8/6
f 1434/8/6 1435/8/6 1441/8/6
f 1433/8/6 1434/8/6 1441/8/6
f 1432/8/6 1433/8/6 1441/8/6
f 1431/8/6 1432/8/6 1441/8/6
f 1440/8/6 1441/8/6 1442/8/6
f 1441/8/6 1439/8/6 1442/8/6
f 1442/8/6 1439/8/6 1443/8/6
f 1392/8/6 1440/8/6 1444/8/6
f 1440/8/6 1442/8/6 1444/8/6
f 1444/8/6 1442/8/6 1445/8/6
f 1392/8/6 1444/8/6 1446/8/6
f 1446/8/6 1444/8/6 1447/8/6
f 1444/9/6 1445/9/6 1448/9/6
f 1447/8/6 1444/8/6 1448/8/6
f 1445/8/6 1442/8/6 1449/8/6
f 1448/9/6 1445/9/6 1449/9/6
f 1442/9/6 1443/9/6 1450/9/6
f 1449/8/6 1442/8/6 1450/8/6
f 1443/8/6 1439/8/6 1451/8/6
f 1450/9/6 1443/9/6 1451/9/6
f 1446/9/6 1447/9/6 1452/9/6
f 1392/8/6 1446/8/6 1452/8/6
f 1449/8/6 1450/8/6 1453/8/6
f 1452/9/6 1447/9/6 1453/9/6
f 1448/8/6 1449/8/6 1453/8/6
f 1450/8/6 1451/8/6 1453/8/6
f 1447/8/6 1448/8/6 1453/8/6
f 1451/8/6 1439/8/6 1454/8/6
f 1453/8/6 1451/8/6 1454/8/6
f 1452/8/6 1453/8/6 1454/8/6
f 1454/8/6 1439/8/6 1455/8/6
f 1452/8/6 1454/8/6 1456/8/6
f 1454/9/6 1455/9/6 1456/9/6
f 1455/8/6 1439/8/6 1457/8/6
f 1456/9/6 1455/9/6 1457/9/6
f 1439/8/6 1411/8/6 1458/8/6
f 1457/8/6 1439/8/6 1458/8/6
f 1456/8/6 1457/8/6 1458/8/6
f 1458/8/6 1411/8/6 1459/8/6
f 1452/8/6 1456/8/6 1460/8/6
f 1456/8/6 1458/8/6 1460/8/6
f 1460/8/6 1458/8/6 1461/8/6
f 1458/9/6 1459/9/6 1462/9/6
f 1461/8/6 1458/8/6 1462/8/6
f 1459/8/6 1411/8/6 1463/8/6
f 1462/9/6 1459/9/6 1463/9/6
f 1460/9/6 1461/9/6 1464/9/6
f 1452/8/6 1460/8/6 1464/8/6
f 1461/8/6 1462/8/6 1465/8/6
f 1464/9/6 1461/9/6 1465/9/6
f 1462/8/6 1463/8/6 1465/8/6
f 1253/8/6 1412/8/6 1466/8/6
f 1413/8/6 1255/8/6 1467/8/6
f 1256/8/6 1392/8/6 1468/8/6
f 1392/8/6 1452/8/6 1468/8/6
f 1452/8/6 1464/8/6 1468/8/6
f 1464/8/6 1465/8/6 1468/8/6
f 1468/8/6 1465/8/6 1469/8/6
f 1256/8/6 1468/8/6 1470/8/6
f 1468/9/6 1469/9/6 1470/9/6
f 1469/8/6 1465/8/6 1471/8/6
f 1470/9/6 1469/9/6 1471/9/6
f 1466/8/6 1467/8/6 1472/8/6
f 1253/8/6 1466/8/6 1472/8/6
f 1467/8/6 1255/8/6 1473/8/6
f 1472/8/6 1467/8/6 1473/8/6
f 1471/8/6 1465/8/6 1474/8/6
f 1470/8/6 1471/8/6 1474/8/6
f 1465/8/6 1463/8/6 1474/8/6
f 1474/8/6 1463/8/6 1475/8/6
f 1256/8/6 1470/8/6 1476/8/6
f 1470/8/6 1474/8/6 1476/8/6
f 1476/8/6 1474/8/6 1477/8/6
f 1474/9/6 1475/9/6 1478/9/6
f 1477/8/6 1474/8/6 1478/8/6
f 1475/8/6 1463/8/6 1479/8/6
f 1478/9/6 1475/9/6 1479/9/6
f 1476/9/6 1477/9/6 1480/9/6
f 1256/8/6 1476/8/6 1480/8/6
f 1477/8/6 1478/8/6 1481/8/6
f 1480/9/6 1477/9/6 1481/9/6
f 1478/8/6 1479/8/6 1481/8/6
f 1480/8/6 1481/8/6 1482/8/6
f 1481/8/6 1479/8/6 1482/8/6
f 1482/8/6 1479/8/6 1483/8/6
f 1479/8/6 1463/8/6 1484/8/6
f 1483/8/6 1479/8/6 1484/8/6
f 1484/8/6 1463/8/6 1485/8/6
f 1482/9/6 1483/9/6 1486/9/6
f 1480/8/6 1482/8/6 1486/8/6
f 1483/8/6 1484/8/6 1487/8/6
f 1486/9/6 1483/9/6 1487/9/6
f 1484/9/6 1485/9/6 1488/9/6
f 1487/8/6 1484/8/6 1488/8/6
f 1485/8/6 1463/8/6 1489/8/6
f 1488/9/6 1485/9/6 1489/9/6
f 1253/8/6 1472/8/6 1490/8/6
f 1473/8/6 1255/8/6 1491/8/6
f 1253/8/6 1490/8/6 1492/8/6
f 1490/8/6 1491/8/6 1492/8/6
f 1491/8/6 1255/8/6 1493/8/6
f 1492/8/6 1491/8/6 1493/8/6
f 1256/8/6 1480/8/6 1494/8/6
f 1487/8/6 1488/8/6 1494/8/6
f 1486/8/6 1487/8/6 1494/8/6
f 1488/8/6 1489/8/6 1494/8/6
f 1480/8/6 1486/8/6 1494/8/6
f 1411/8/6 1401/8/6 1495/8/6
f 1494/8/6 1489/8/6 1495/8/6
f 1489/8/6 1463/8/6 1495/8/6
f 1463/8/6 1411/8/6 1495/8/6
f 1401/8/6 1254/8/6 1495/8/6
f 1496/2/6 1497/2/6 1498/2/6
f 1498/2/6 1497/2/6 1499/2/6
f 1496/2/6 1498/2/6 1500/2/6
f 1499/2/6 1497/2/6 1501/2/6
f 1496/2/6 1500/2/6 1502/2/6
f 1500/2/6 1501/2/6 1502/2/6
f 1501/2/6 1497/2/6 1503/2/6
f 1502/2/6 1501/2/6 1503/2/6
f 1504/2/6 1505/2/6 1506/2/6
f 1506/2/6 1505/2/6 1507/2/6
f 1504/2/6 1506/2/6 1508/2/6
f 1507/2/6 1505/2/6 1509/2/6
f 1504/2/6 1508/2/6 1510/2/6
f 1508/2/6 1509/2/6 1510/2/6
f 1509/2/6 1505/2/6 1511/2/6
f 1510/2/6 1509/2/6 1511/2/6
f 1512/2/6 1513/2/6 1514/2/6
f 1514/2/6 1513/2/6 1515/2/6
f 1512/2/6 1514/2/6 1516/2/6
f 1515/2/6 1513/2/6 1517/2/6
f 1512/2/6 1516/2/6 1518/2/6
f 1516/2/6 1517/2/6 1518/2/6
f 1517/2/6 1513/2/6 1519/2/6
f 1518/2/6 1517/2/6 1519/2/6
f 1520/3/6 1521/3/6 1522/3/6
f 1522/3/6 1521/3/6 1523/3/6
f 1524/3/6 1525/3/6 1526/3/6
f 1526/3/6 1525/3/6 1527/3/6
f 1528/2/6 1529/2/6 1530/2/6
f 1530/2/6 1529/2/6 1531/2/6
f 1528/2/6 1530/2/6 1532/2/6
f 1531/2/6 1529/2/6 1533/2/6
f 1528/2/6 1532/2/6 1534/2/6
f 1532/2/6 1533/2/6 1534/2/6
f 1533/2/6 1529/2/6 1535/2/6
f 1534/2/6 1533/2/6 1535/2/6
f 1536/2/6 1537/2/6 1538/2/6
f 1538/2/6 1537/2/6 1539/2/6
f 1536/2/6 1538/2/6 1540/2/6
f 1539/2/6 1537/2/6 1541/2/6
f 1536/2/6 1540/2/6 1542/2/6
f 1540/2/6 1541/2/6 1542/2/6
f 1541/2/6 1537/2/6 1543/2/6
f 1542/2/6 1541/2/6 1543/2/6
f 1544/2/6 1545/2/6 1546/2/6
f 1546/2/6 1545/2/6 1547/2/6
f 1544/2/6 1546/2/6 1548/2/6
f 1547/2/6 1545/2/6 1549/2/6
f 1544/2/6 1548/2/6 1550/2/6
f 1548/2/6 1549/2/6 1550/2/6
f 1549/2/6 1545/2/6 1551/2/6
f 1550/2/6 1549/2/6 1551/2/6
f 1552/2/6 1553/2/6 1554/2/6
f 1554/2/6 1553/2/6 1555/2/6
f 1552/2/6 1554/2/6 1556/2/6
f 1555/2/6 1553/2/6 1557/2/6
f 1552/2/6 1556/2/6 1558/2/6
f 1556/2/6 1557/2/6 1558/2/6
f 1557/2/6 1553/2/6 1559/2/6
f 1558/2/6 1557/2/6 1559/2/6
f 1560/2/6 1561/2/6 1562/2/6
f 1562/2/6 1561/2/6 1563/2/6
f 1560/2/6 1562/2/6 1564/2/6
f 1563/2/6 1561/2/6 1565/2/6
f 1560/2/6 1564/2/6 1566/2/6
f 1564/2/6 1565/2/6 1566/2/6
f 1565/2/6 1561/2/6 1567/2/6
f 1566/2/6 1565/2/6 1567/2/6
f 1568/2/6 1569/2/6 1570/2/6
f 1570/2/6 1569/2/6 1571/2/6
f 1568/2/6 1570/2/6 1572/2/6
f 1571/2/6 1569/2/6 1573/2/6
f 1568/2/6 1572/2/6 1574/2/6
f 1572/2/6 1573/2/6 1574/2/6
f 1573/2/6 1569/2/6 1575/2/6
f 1574/2/6 1573/2/6 1575/2/6
f 1576/4/6 1577/4/6 1578/4/6
f 1578/4/6 1577/4/6 1579/4/6
f 1580/4/6 1581/4/6 1582/4/6
f 1582/4/6 1581/4/6 1583/4/6
f 1576/4/6 1578/4/6 1584/4/6
f 1580/4/6 1582/4/6 1585/4/6
f 1576/4/6 1584/4/6 1586/4/6
f 1584/4/6 1585/4/6 1586/4/6
f 1585/4/6 1582/4/6 1587/4/6
f 1586/4/6 1585/4/6 1587/4/6
f 1588/4/6 1589/4/6 1590/4/6
f 1590/4/6 1589/4/6 1591/4/6
f 1588/4/6 1590/4/6 1592/4/6
f 1592/4/6 1590/4/6 1593/4/6
f 1591/4/6 1589/4/6 1594/4/6
f 1594/4/6 1589/4/6 1595/4/6
f 1596/7/6 1597/7/6 1598/7/6
f 1598/7/6 1597/7/6 1599/7/6
f 1600/7/6 1601/7/6 1602/7/6
f 1602/7/6 1601/7/6 1603/7/6
f 1604/7/6 1605/7/6 1606/7/6
f 1606/7/6 1605/7/6 1607/7/6
f 1608/7/6 1609/7/6 1610/7/6
f 1610/7/6 1609/7/6 1611/7/6
f 1612/7/6 1613/7/6 1614/7/6
f 1614/7/6 1613/7/6 1615/7/6
f 1616/7/6 1617/7/6 1618/7/6
f 1618/7/6 1617/7/6 1619/7/6
f 1620/7/6 1621/7/6 1622/7/6
f 1622/7/6 1621/7/6 1623/7/6
f 1624/7/6 1625/7/6 1626/7/6
f 1626/7/6 1625/7/6 1627/7/6
f 1628/7/6 1629/7/6 1630/7/6
f 1630/7/6 1629/7/6 1631/7/6
f 1632/4/6 1633/4/6 1634/4/6
f 1634/4/6 1633/4/6 1635/4/6
f 1636/4/6 1637/4/6 1638/4/6
f 1638/4/6 1637/4/6 1639/4/6
f 1632/4/6 1634/4/6 1640/4/6
f 1636/4/6 1638/4/6 1641/4/6
f 1632/4/6 1640/4/6 1642/4/6
f 1640/4/6 1641/4/6 1642/4/6
f 1641/4/6 1638/4/6 1643/4/6
f 1642/4/6 1641/4/6 1643/4/6
f 1644/4/6 1645/4/6 1646/4/6
f 1646/4/6 1645/4/6 1647/4/6
f 1644/4/6 1646/4/6 1648/4/6
f 1648/4/6 1646/4/6 1649/4/6
f 1647/4/6 1645/4/6 1650/4/6
f 1650/4/6 1645/4/6 1651/4/6
f 1652/4/6 1653/4/6 1654/4/6
f 1654/4/6 1653/4/6 1655/4/6
f 1656/4/6 1657/4/6 1658/4/6
f 1658/4/6 1657/4/6 1659/4/6
f 1652/4/6 1654/4/6 1660/4/6
f 1656/4/6 1658/4/6 1661/4/6
f 1652/4/6 1660/4/6 1662/4/6
f 1660/4/6 1661/4/6 1662/4/6
f 1661/4/6 1658/4/6 1663/4/6
f 1662/4/6 1661/4/6 1663/4/6
f 1664/4/6 1665/4/6 1666/4/6
f 1666/4/6 1665/4/6 1667/4/6
f 1664/4/6 1666/4/6 1668/4/6
f 1668/4/6 1666/4/6 1669/4/6
f 1667/4/6 1665/4/6 1670/4/6
f 1670/4/6 1665/4/6 1671/4/6
f 1672/4/6 1673/4/6 1674/4/6
f 1674/4/6 1673/4/6 1675/4/6
f 1676/4/6 1677/4/6 1678/4/6
f 1678/4/6 1677/4/6 1679/4/6
f 1672/4/6 1674/4/6 1680/4/6
f 1676/4/6 1678/4/6 1681/4/6
f 1672/4/6 1680/4/6 1682/4/6
f 1680/4/6 1681/4/6 1682/4/6
f 1681/4/6 1678/4/6 1683/4/6
f 1682/4/6 1681/4/6 1683/4/6
f 1684/4/6 1685/4/6 1686/4/6
f 1686/4/6 1685/4/6 1687/4/6
f 1684/4/6 1686/4/6 1688/4/6
f 1688/4/6 1686/4/6 1689/4/6
f 1687/4/6 1685/4/6 1690/4/6
f 1690/4/6 1685/4/6 1691/4/6
f 1692/4/6 1693/4/6 1694/4/6
f 1694/4/6 1693/4/6 1695/4/6
f 1696/4/6 1697/4/6 1698/4/6
f 1698/4/6 1697/4/6 1699/4/6
f 1692/4/6 1694/4/6 1700/4/6
f 1696/4/6 1698/4/6 1701/4/6
f 1692/4/6 1700/4/6 1702/4/6
f 1700/4/6 1701/4/6 1702/4/6
f 1701/4/6 1698/4/6 1703/4/6
f 1702/4/6 1701/4/6 1703/4/6
f 1704/4/6 1705/4/6 1706/4/6
f 1706/4/6 1705/4/6 1707/4/6
f 1704/4/6 1706/4/6 1708/4/6
f 1708/4/6 1706/4/6 1709/4/6
f 1707/4/6 1705/4/6 1710/4/6
f 1710/4/6 1705/4/6 1711/4/6
f 1712/4/6 1713/4/6 1714/4/6
f 1714/4/6 1713/4/6 1715/4/6
f 1712/4/6 1714/4/6 1716/4/6
f 1716/4/6 1714/4/6 1717/4/6
f 1718/4/6 1719/4/6 1720/4/6
f 1720/4/6 1719/4/6 1721/4/6
