# MagicaVoxel @ Ephtracy

# group
o 

# material
mtllib Main.mtl
usemtl palette

# normals
vn -1 0 0
vn 1 0 0
vn 0 0 1
vn 0 0 -1
vn 0 -1 0
vn 0 1 0

# texcoords
vt 0.0761719 0.5
vt 0.0957031 0.5
vt 0.154297 0.5
vt 0.158203 0.5
vt 0.162109 0.5
vt 0.166016 0.5
vt 0.169922 0.5
vt 0.173828 0.5
vt 0.177734 0.5
vt 0.181641 0.5

# verts
v -2 0 2
v -2 0 -2
v -2 0.1 1.2
v -2 0.1 1
v -2 0.1 0.9
v -2 0.1 0.7
v -2 0.1 0.4
v -2 0.1 -0.6
v -2 0.1 -1.4
v -2 0.1 -1.6
v -2 0.2 2
v -2 0.2 1.2
v -2 0.2 1
v -2 0.2 0.9
v -2 0.2 0.7
v -2 0.2 0.4
v -2 0.2 -0.6
v -2 0.2 -1.4
v -2 0.2 -1.6
v -2 0.2 -2
v -1.9 0.2 1.9
v -1.9 0.2 1.2
v -1.9 0.2 1
v -1.9 0.2 0.9
v -1.9 0.2 0.7
v -1.9 0.2 0.4
v -1.9 0.2 -0.6
v -1.9 0.2 -1.4
v -1.9 0.2 -1.6
v -1.9 0.2 -1.9
v -1.9 0.3 1.9
v -1.9 0.3 1.2
v -1.9 0.3 0.7
v -1.9 0.3 0.4
v -1.9 0.3 -0.6
v -1.9 0.3 -1.4
v -1.9 0.3 -1.6
v -1.9 0.3 -1.9
v -1.5 0.3 1.4
v -1.5 0.3 1.1
v -1.5 0.3 0.5
v -1.5 0.3 -0.5
v -1.5 0.3 -1.2
v -1.5 0.6 1.4
v -1.5 0.6 -1.2
v -1.4 0.6 1.3
v -1.4 0.6 -1.1
v -1.4 0.7 1.3
v -1.4 0.7 -1.1
v -1.4 3.5 1.3
v -1.4 3.5 -1.1
v -1.4 3.7 1.3
v -1.4 3.7 -1.1
v -1.3 0.7 1.2
v -1.3 0.7 1.1
v -1.3 0.7 0.9
v -1.3 0.7 0.8
v -1.3 0.7 0.6
v -1.3 0.7 0.5
v -1.3 0.7 0.3
v -1.3 0.7 0.2
v -1.3 0.7 -2.38419e-07
v -1.3 0.7 -0.1
v -1.3 0.7 -0.3
v -1.3 0.7 -0.4
v -1.3 0.7 -0.6
v -1.3 0.7 -0.7
v -1.3 0.7 -0.9
v -1.3 0.7 -1
v -1.3 3.4 1.1
v -1.3 3.4 0.9
v -1.3 3.4 0.8
v -1.3 3.4 0.6
v -1.3 3.4 0.5
v -1.3 3.4 0.3
v -1.3 3.4 0.2
v -1.3 3.4 -2.38419e-07
v -1.3 3.4 -0.1
v -1.3 3.4 -0.3
v -1.3 3.4 -0.4
v -1.3 3.4 -0.6
v -1.3 3.4 -0.7
v -1.3 3.4 -0.9
v -1.3 3.5 1.2
v -1.3 3.5 -1
v -1.2 0.7 1.1
v -1.2 0.7 0.9
v -1.2 0.7 0.8
v -1.2 0.7 0.6
v -1.2 0.7 0.5
v -1.2 0.7 0.3
v -1.2 0.7 0.2
v -1.2 0.7 -2.38419e-07
v -1.2 0.7 -0.1
v -1.2 0.7 -0.3
v -1.2 0.7 -0.4
v -1.2 0.7 -0.6
v -1.2 0.7 -0.7
v -1.2 0.7 -0.9
v -1.2 3.4 1.1
v -1.2 3.4 0.9
v -1.2 3.4 0.8
v -1.2 3.4 0.6
v -1.2 3.4 0.5
v -1.2 3.4 0.3
v -1.2 3.4 0.2
v -1.2 3.4 -2.38419e-07
v -1.2 3.4 -0.1
v -1.2 3.4 -0.3
v -1.2 3.4 -0.4
v -1.2 3.4 -0.6
v -1.2 3.4 -0.7
v -1.2 3.4 -0.9
v -1.1 3.6 -0.4
v -1.1 3.6 -0.9
v -1.1 4 -0.4
v -1.1 4 -0.9
v -1 0.7 1.2
v -1 0.7 1.1
v -1 0.7 -0.9
v -1 0.7 -1
v -1 3.4 1.2
v -1 3.4 1.1
v -1 3.4 -0.9
v -1 3.4 -1
v -0.8 0.7 1.2
v -0.8 0.7 1.1
v -0.8 3.4 1.2
v -0.8 3.4 1.1
v -0.8 3.6 -0.4
v -0.8 3.6 -0.5
v -0.8 3.6 -0.6
v -0.8 3.6 -0.8
v -0.8 3.9 -0.4
v -0.8 3.9 -0.5
v -0.8 3.9 -0.6
v -0.8 3.9 -0.8
v -0.7 0.7 -0.9
v -0.7 0.7 -1
v -0.7 3.4 -0.9
v -0.7 3.4 -1
v -0.5 0.7 1.2
v -0.5 0.7 1.1
v -0.5 3.4 1.2
v -0.5 3.4 1.1
v -0.4 0.7 -0.9
v -0.4 0.7 -1
v -0.4 3.4 -0.9
v -0.4 3.4 -1
v -0.4 3.6 1.2
v -0.4 3.6 0.9
v -0.4 3.7 1.2
v -0.4 3.7 0.9
v -0.3 1.3 1.3
v -0.3 1.3 1.2
v -0.3 1.4 1.3
v -0.3 1.4 1.2
v -0.3 1.4 1.1
v -0.3 1.4 0.9
v -0.3 1.5 1.1
v -0.3 1.5 0.9
v -0.2 1.4 1.2
v -0.2 1.4 1.1
v -0.2 1.5 1.2
v -0.2 1.5 1.1
v -0.2 1.6 0.9
v -0.2 1.6 0.8
v -0.2 3.4 0.9
v -0.2 3.4 0.8
v -0.0999999 0.7 -0.9
v -0.0999999 0.7 -1
v -0.0999999 3.4 -0.9
v -0.0999999 3.4 -1
v 0.1 1.6 0.9
v 0.1 1.6 0.8
v 0.1 3.4 0.9
v 0.1 3.4 0.8
v 0.1 3.6 0.0999999
v 0.1 3.6 -0.3
v 0.1 3.6 -0.4
v 0.1 3.6 -0.8
v 0.1 3.7 0.0999999
v 0.1 3.7 -0.3
v 0.1 3.7 -0.4
v 0.1 3.7 -0.8
v 0.2 0.6 0.9
v 0.2 0.6 0.8
v 0.2 1.1 0.9
v 0.2 1.1 0.8
v 0.2 1.2 1
v 0.2 1.2 0.9
v 0.2 1.3 1
v 0.2 1.3 0.9
v 0.3 0.3 1.4
v 0.3 0.3 1.3
v 0.3 0.4 1.3
v 0.3 0.4 1.2
v 0.3 0.5 1.2
v 0.3 0.5 1.1
v 0.3 0.6 1.4
v 0.3 0.6 1.3
v 0.3 0.6 1.1
v 0.3 0.6 0.9
v 0.3 0.7 1.3
v 0.3 0.7 0.9
v 0.3 0.7 -0.9
v 0.3 0.7 -1
v 0.3 1.1 1
v 0.3 1.1 0.9
v 0.3 1.2 1.1
v 0.3 1.2 1
v 0.3 1.2 0.9
v 0.3 1.3 1.1
v 0.3 1.3 1
v 0.3 1.6 0.9
v 0.3 1.6 0.8
v 0.3 3.4 0.9
v 0.3 3.4 0.8
v 0.3 3.4 -0.9
v 0.3 3.4 -1
v 0.3 3.5 1.3
v 0.3 3.5 1
v 0.3 3.7 1.3
v 0.3 3.7 1
v 0.4 0.3 -1.2
v 0.4 0.3 -1.4
v 0.4 0.5 -1.2
v 0.4 0.5 -1.4
v 0.4 0.6 -1.2
v 0.4 0.6 -1.4
v 0.4 0.7 1.2
v 0.4 0.7 0.9
v 0.4 1.1 1
v 0.4 1.1 0.9
v 0.4 1.2 1.1
v 0.4 1.2 1
v 0.4 1.3 1.2
v 0.4 1.3 1.1
v 0.4 1.4 1.2
v 0.4 1.4 0.9
v 0.4 3.5 1.2
v 0.4 3.5 0.9
v 0.6 0.7 -0.9
v 0.6 0.7 -1
v 0.6 3.4 -0.9
v 0.6 3.4 -1
v 0.6 3.6 0.0999999
v 0.6 3.6 -0.3
v 0.6 3.6 -0.4
v 0.6 3.6 -0.8
v 0.6 3.7 0.0999999
v 0.6 3.7 -0.3
v 0.6 3.7 -0.4
v 0.6 3.7 -0.8
v 0.7 0.7 1.2
v 0.7 0.7 1.1
v 0.7 3.4 1.2
v 0.7 3.4 1.1
v 0.9 0.3 -1.2
v 0.9 0.3 -1.4
v 0.9 0.5 -1.2
v 0.9 0.5 -1.4
v 0.9 0.6 -1.2
v 0.9 0.6 -1.4
v 0.9 0.7 1.2
v 0.9 0.7 1.1
v 0.9 0.7 -0.9
v 0.9 0.7 -1
v 0.9 3.4 1.2
v 0.9 3.4 1.1
v 0.9 3.4 -0.9
v 0.9 3.4 -1
v 1.2 0.7 1.2
v 1.2 0.7 1.1
v 1.2 0.7 -0.9
v 1.2 0.7 -1
v 1.2 3.4 1.2
v 1.2 3.4 1.1
v 1.2 3.4 -0.9
v 1.2 3.4 -1
v 1.3 3.6 1.2
v 1.3 3.6 -1
v 1.3 3.7 1.2
v 1.3 3.7 -1
v -1.3 3.6 1.2
v -1.3 3.6 -1
v -1.3 3.7 1.2
v -1.3 3.7 -1
v -1.2 0.7 1.2
v -1.2 0.7 1.1
v -1.2 0.7 -0.9
v -1.2 0.7 -1
v -1.2 3.4 1.2
v -1.2 3.4 1.1
v -1.2 3.4 -0.9
v -1.2 3.4 -1
v -1 3.6 -0.4
v -1 3.6 -0.5
v -1 3.6 -0.6
v -1 3.6 -0.8
v -1 3.9 -0.4
v -1 3.9 -0.5
v -1 3.9 -0.6
v -1 3.9 -0.8
v -0.9 0.7 1.2
v -0.9 0.7 1.1
v -0.9 0.7 -0.9
v -0.9 0.7 -1
v -0.9 3.4 1.2
v -0.9 3.4 1.1
v -0.9 3.4 -0.9
v -0.9 3.4 -1
v -0.7 0.7 1.2
v -0.7 0.7 1.1
v -0.7 3.4 1.2
v -0.7 3.4 1.1
v -0.7 3.6 -0.4
v -0.7 3.6 -0.9
v -0.7 4 -0.4
v -0.7 4 -0.9
v -0.6 0.7 -0.9
v -0.6 0.7 -1
v -0.6 3.4 -0.9
v -0.6 3.4 -1
v -0.4 0.7 1.2
v -0.4 0.7 0.9
v -0.4 1.1 1
v -0.4 1.1 0.9
v -0.4 1.2 1.1
v -0.4 1.2 1
v -0.4 1.3 1.2
v -0.4 1.3 1.1
v -0.4 1.4 1.2
v -0.4 1.4 0.9
v -0.4 3.5 1.2
v -0.4 3.5 0.9
v -0.3 0.3 1.4
v -0.3 0.3 1.3
v -0.3 0.4 1.3
v -0.3 0.4 1.2
v -0.3 0.5 1.2
v -0.3 0.5 1.1
v -0.3 0.6 1.4
v -0.3 0.6 1.3
v -0.3 0.6 1.1
v -0.3 0.6 0.9
v -0.3 0.7 1.3
v -0.3 0.7 0.9
v -0.3 0.7 -0.9
v -0.3 0.7 -1
v -0.3 1.1 1
v -0.3 1.1 0.9
v -0.3 1.2 1.1
v -0.3 1.2 1
v -0.3 1.2 0.9
v -0.3 1.3 1.1
v -0.3 1.3 1
v -0.3 1.6 0.9
v -0.3 1.6 0.8
v -0.3 3.4 0.9
v -0.3 3.4 0.8
v -0.3 3.4 -0.9
v -0.3 3.4 -1
v -0.3 3.5 1.3
v -0.3 3.5 1
v -0.3 3.7 1.3
v -0.3 3.7 1
v -0.2 0.6 0.9
v -0.2 0.6 0.8
v -0.2 1.1 0.9
v -0.2 1.1 0.8
v -0.2 1.2 1
v -0.2 1.2 0.9
v -0.2 1.3 1
v -0.2 1.3 0.9
v -0.0999999 1.6 0.9
v -0.0999999 1.6 0.8
v -0.0999999 3.4 0.9
v -0.0999999 3.4 0.8
v 0.1 0.7 -0.9
v 0.1 0.7 -1
v 0.1 3.4 -0.9
v 0.1 3.4 -1
v 0.2 1.4 1.2
v 0.2 1.4 1.1
v 0.2 1.5 1.2
v 0.2 1.5 1.1
v 0.2 1.6 0.9
v 0.2 1.6 0.8
v 0.2 3.4 0.9
v 0.2 3.4 0.8
v 0.3 1.3 1.3
v 0.3 1.3 1.2
v 0.3 1.4 1.3
v 0.3 1.4 1.2
v 0.3 1.4 1.1
v 0.3 1.4 0.9
v 0.3 1.5 1.1
v 0.3 1.5 0.9
v 0.4 0.7 -0.9
v 0.4 0.7 -1
v 0.4 3.4 -0.9
v 0.4 3.4 -1
v 0.4 3.6 1.2
v 0.4 3.6 0.9
v 0.4 3.7 1.2
v 0.4 3.7 0.9
v 0.5 0.7 1.2
v 0.5 0.7 1.1
v 0.5 3.4 1.2
v 0.5 3.4 1.1
v 0.5 3.6 0.0999999
v 0.5 3.6 -0.3
v 0.5 3.6 -0.4
v 0.5 3.6 -0.8
v 0.5 3.7 0.0999999
v 0.5 3.7 -0.3
v 0.5 3.7 -0.4
v 0.5 3.7 -0.8
v 0.7 0.7 -0.9
v 0.7 0.7 -1
v 0.7 3.4 -0.9
v 0.7 3.4 -1
v 0.8 0.3 -1.2
v 0.8 0.3 -1.4
v 0.8 0.5 -1.2
v 0.8 0.5 -1.4
v 0.8 0.6 -1.2
v 0.8 0.6 -1.4
v 0.8 0.7 1.2
v 0.8 0.7 1.1
v 0.8 3.4 1.2
v 0.8 3.4 1.1
v 1 0.7 1.2
v 1 0.7 1.1
v 1 0.7 -0.9
v 1 0.7 -1
v 1 3.4 1.2
v 1 3.4 1.1
v 1 3.4 -0.9
v 1 3.4 -1
v 1 3.6 0.0999999
v 1 3.6 -0.3
v 1 3.6 -0.4
v 1 3.6 -0.8
v 1 3.7 0.0999999
v 1 3.7 -0.3
v 1 3.7 -0.4
v 1 3.7 -0.8
v 1.2 0.7 1.1
v 1.2 0.7 0.9
v 1.2 0.7 0.8
v 1.2 0.7 0.6
v 1.2 0.7 0.5
v 1.2 0.7 0.3
v 1.2 0.7 0.2
v 1.2 0.7 -2.38419e-07
v 1.2 0.7 -0.1
v 1.2 0.7 -0.3
v 1.2 0.7 -0.4
v 1.2 0.7 -0.6
v 1.2 0.7 -0.7
v 1.2 0.7 -0.9
v 1.2 3.4 1.1
v 1.2 3.4 0.9
v 1.2 3.4 0.8
v 1.2 3.4 0.6
v 1.2 3.4 0.5
v 1.2 3.4 0.3
v 1.2 3.4 0.2
v 1.2 3.4 -2.38419e-07
v 1.2 3.4 -0.1
v 1.2 3.4 -0.3
v 1.2 3.4 -0.4
v 1.2 3.4 -0.6
v 1.2 3.4 -0.7
v 1.2 3.4 -0.9
v 1.3 0.3 -1.2
v 1.3 0.3 -1.4
v 1.3 0.5 -1.2
v 1.3 0.5 -1.4
v 1.3 0.6 -1.2
v 1.3 0.6 -1.4
v 1.3 0.7 1.2
v 1.3 0.7 1.1
v 1.3 0.7 0.9
v 1.3 0.7 0.8
v 1.3 0.7 0.6
v 1.3 0.7 0.5
v 1.3 0.7 0.3
v 1.3 0.7 0.2
v 1.3 0.7 -2.38419e-07
v 1.3 0.7 -0.1
v 1.3 0.7 -0.3
v 1.3 0.7 -0.4
v 1.3 0.7 -0.6
v 1.3 0.7 -0.7
v 1.3 0.7 -0.9
v 1.3 0.7 -1
v 1.3 3.4 1.1
v 1.3 3.4 0.9
v 1.3 3.4 0.8
v 1.3 3.4 0.6
v 1.3 3.4 0.5
v 1.3 3.4 0.3
v 1.3 3.4 0.2
v 1.3 3.4 -2.38419e-07
v 1.3 3.4 -0.1
v 1.3 3.4 -0.3
v 1.3 3.4 -0.4
v 1.3 3.4 -0.6
v 1.3 3.4 -0.7
v 1.3 3.4 -0.9
v 1.3 3.5 1.2
v 1.3 3.5 -1
v 1.4 0.6 1.3
v 1.4 0.6 -1.1
v 1.4 0.7 1.3
v 1.4 0.7 -1.1
v 1.4 3.5 1.3
v 1.4 3.5 -1.1
v 1.4 3.7 1.3
v 1.4 3.7 -1.1
v 1.5 0.3 1.4
v 1.5 0.3 0.2
v 1.5 0.3 0.0999999
v 1.5 0.3 -0.1
v 1.5 0.3 -0.5
v 1.5 0.3 -1.1
v 1.5 0.3 -1.2
v 1.5 0.6 1.4
v 1.5 0.6 -1.2
v 1.9 0.2 1.9
v 1.9 0.2 1.8
v 1.9 0.2 1.5
v 1.9 0.2 0.5
v 1.9 0.2 0.0999999
v 1.9 0.2 -0.1
v 1.9 0.2 -1.3
v 1.9 0.2 -1.4
v 1.9 0.2 -1.5
v 1.9 0.2 -1.6
v 1.9 0.2 -1.9
v 1.9 0.3 1.9
v 1.9 0.3 1.5
v 1.9 0.3 0.5
v 1.9 0.3 0.0999999
v 1.9 0.3 -0.1
v 1.9 0.3 -1.3
v 1.9 0.3 -1.6
v 1.9 0.3 -1.9
v 2 0 2
v 2 0 -2
v 2 0.1 1.8
v 2 0.1 0.0999999
v 2 0.1 -0.1
v 2 0.1 -1.4
v 2 0.1 -1.5
v 2 0.1 -1.6
v 2 0.2 2
v 2 0.2 1.8
v 2 0.2 0.0999999
v 2 0.2 -0.1
v 2 0.2 -1.4
v 2 0.2 -1.5
v 2 0.2 -1.6
v 2 0.2 -2
v -2 0 2
v -2 0.2 2
v 1.1 0.1 2
v 1.1 0.2 2
v 1.9 0.1 2
v 1.9 0.2 2
v 2 0 2
v 2 0.2 2
v -1.9 0.2 1.9
v -1.9 0.3 1.9
v -1.2 0.2 1.9
v -1.2 0.3 1.9
v -0.7 0.2 1.9
v -0.7 0.3 1.9
v 1.1 0.2 1.9
v 1.1 0.3 1.9
v 1.9 0.2 1.9
v 1.9 0.3 1.9
v -1.5 0.3 1.4
v -1.5 0.6 1.4
v -1.2 0.3 1.4
v -1 0.3 1.4
v -0.4 0.3 1.4
v -0.3 0.3 1.4
v -0.3 0.6 1.4
v 0.3 0.3 1.4
v 0.3 0.6 1.4
v 0.7 0.3 1.4
v 1.2 0.3 1.4
v 1.5 0.3 1.4
v 1.5 0.6 1.4
v -1.4 0.6 1.3
v -1.4 0.7 1.3
v -1.4 3.5 1.3
v -1.4 3.7 1.3
v -0.3 0.3 1.3
v -0.3 0.4 1.3
v -0.3 0.6 1.3
v -0.3 0.7 1.3
v -0.3 1.3 1.3
v -0.3 1.4 1.3
v -0.3 3.5 1.3
v -0.3 3.7 1.3
v 0.3 0.3 1.3
v 0.3 0.4 1.3
v 0.3 0.6 1.3
v 0.3 0.7 1.3
v 0.3 1.3 1.3
v 0.3 1.4 1.3
v 0.3 3.5 1.3
v 0.3 3.7 1.3
v 1.4 0.6 1.3
v 1.4 0.7 1.3
v 1.4 3.5 1.3
v 1.4 3.7 1.3
v -1.3 0.7 1.2
v -1.3 3.5 1.2
v -1.2 0.7 1.2
v -1.2 3.4 1.2
v -1 0.7 1.2
v -1 3.4 1.2
v -0.9 0.7 1.2
v -0.9 3.4 1.2
v -0.8 0.7 1.2
v -0.8 3.4 1.2
v -0.7 0.7 1.2
v -0.7 3.4 1.2
v -0.5 0.7 1.2
v -0.5 3.4 1.2
v -0.4 0.7 1.2
v -0.4 1.3 1.2
v -0.4 1.4 1.2
v -0.4 3.5 1.2
v -0.3 0.4 1.2
v -0.3 0.5 1.2
v -0.3 1.3 1.2
v -0.3 1.4 1.2
v -0.2 1.4 1.2
v -0.2 1.5 1.2
v 0.2 1.4 1.2
v 0.2 1.5 1.2
v 0.3 0.4 1.2
v 0.3 0.5 1.2
v 0.3 1.3 1.2
v 0.3 1.4 1.2
v 0.4 0.7 1.2
v 0.4 1.3 1.2
v 0.4 1.4 1.2
v 0.4 3.5 1.2
v 0.5 0.7 1.2
v 0.5 3.4 1.2
v 0.7 0.7 1.2
v 0.7 3.4 1.2
v 0.8 0.7 1.2
v 0.8 3.4 1.2
v 0.9 0.7 1.2
v 0.9 3.4 1.2
v 1 0.7 1.2
v 1 3.4 1.2
v 1.2 0.7 1.2
v 1.2 3.4 1.2
v 1.3 0.7 1.2
v 1.3 3.5 1.2
v -1.2 0.7 1.1
v -1.2 3.4 1.1
v -1 0.7 1.1
v -1 3.4 1.1
v -0.9 0.7 1.1
v -0.9 3.4 1.1
v -0.8 0.7 1.1
v -0.8 3.4 1.1
v -0.7 0.7 1.1
v -0.7 3.4 1.1
v -0.5 0.7 1.1
v -0.5 3.4 1.1
v -0.4 1.2 1.1
v -0.4 1.3 1.1
v -0.3 0.5 1.1
v -0.3 0.6 1.1
v -0.3 1.2 1.1
v -0.3 1.3 1.1
v -0.3 1.4 1.1
v -0.3 1.5 1.1
v -0.2 1.4 1.1
v -0.2 1.5 1.1
v 0.2 1.4 1.1
v 0.2 1.5 1.1
v 0.3 0.5 1.1
v 0.3 0.6 1.1
v 0.3 1.2 1.1
v 0.3 1.3 1.1
v 0.3 1.4 1.1
v 0.3 1.5 1.1
v 0.4 1.2 1.1
v 0.4 1.3 1.1
v 0.5 0.7 1.1
v 0.5 3.4 1.1
v 0.7 0.7 1.1
v 0.7 3.4 1.1
v 0.8 0.7 1.1
v 0.8 3.4 1.1
v 0.9 0.7 1.1
v 0.9 3.4 1.1
v 1 0.7 1.1
v 1 3.4 1.1
v 1.2 0.7 1.1
v 1.2 3.4 1.1
v -0.4 1.1 1
v -0.4 1.2 1
v -0.3 1.1 1
v -0.3 1.2 1
v -0.3 1.3 1
v -0.3 3.5 1
v -0.3 3.7 1
v -0.2 1.2 1
v -0.2 1.3 1
v 0.2 1.2 1
v 0.2 1.3 1
v 0.3 1.1 1
v 0.3 1.2 1
v 0.3 1.3 1
v 0.3 3.5 1
v 0.3 3.7 1
v 0.4 1.1 1
v 0.4 1.2 1
v -1.3 0.7 0.9
v -1.3 3.4 0.9
v -1.2 0.7 0.9
v -1.2 3.4 0.9
v -0.4 0.7 0.9
v -0.4 1.1 0.9
v -0.4 1.4 0.9
v -0.4 3.5 0.9
v -0.3 0.6 0.9
v -0.3 0.7 0.9
v -0.3 1.1 0.9
v -0.3 1.2 0.9
v -0.3 1.4 0.9
v -0.3 1.5 0.9
v -0.3 1.6 0.9
v -0.3 3.4 0.9
v -0.2 0.6 0.9
v -0.2 1.1 0.9
v -0.2 1.2 0.9
v -0.2 1.3 0.9
v -0.2 1.6 0.9
v -0.2 3.4 0.9
v -0.0999999 1.6 0.9
v -0.0999999 3.4 0.9
v 0.1 1.6 0.9
v 0.1 3.4 0.9
v 0.2 0.6 0.9
v 0.2 1.1 0.9
v 0.2 1.2 0.9
v 0.2 1.3 0.9
v 0.2 1.6 0.9
v 0.2 3.4 0.9
v 0.3 0.6 0.9
v 0.3 0.7 0.9
v 0.3 1.1 0.9
v 0.3 1.2 0.9
v 0.3 1.4 0.9
v 0.3 1.5 0.9
v 0.3 1.6 0.9
v 0.3 3.4 0.9
v 0.4 0.7 0.9
v 0.4 1.1 0.9
v 0.4 1.4 0.9
v 0.4 3.5 0.9
v 1.2 0.7 0.9
v 1.2 3.4 0.9
v 1.3 0.7 0.9
v 1.3 3.4 0.9
v -0.3 1.6 0.8
v -0.3 3.4 0.8
v -0.2 0.6 0.8
v -0.2 1.1 0.8
v -0.2 1.6 0.8
v -0.2 3.4 0.8
v -0.0999999 1.6 0.8
v -0.0999999 3.4 0.8
v 0.1 1.6 0.8
v 0.1 3.4 0.8
v 0.2 0.6 0.8
v 0.2 1.1 0.8
v 0.2 1.6 0.8
v 0.2 3.4 0.8
v 0.3 1.6 0.8
v 0.3 3.4 0.8
v -1.3 0.7 0.6
v -1.3 3.4 0.6
v -1.2 0.7 0.6
v -1.2 3.4 0.6
v 1.2 0.7 0.6
v 1.2 3.4 0.6
v 1.3 0.7 0.6
v 1.3 3.4 0.6
v -1.3 0.7 0.3
v -1.3 3.4 0.3
v -1.2 0.7 0.3
v -1.2 3.4 0.3
v 1.2 0.7 0.3
v 1.2 3.4 0.3
v 1.3 0.7 0.3
v 1.3 3.4 0.3
v 0.1 3.6 0.0999999
v 0.1 3.7 0.0999999
v 0.5 3.6 0.0999999
v 0.5 3.7 0.0999999
v 0.6 3.6 0.0999999
v 0.6 3.7 0.0999999
v 1 3.6 0.0999999
v 1 3.7 0.0999999
v -1.3 0.7 -2.38419e-07
v -1.3 3.4 -2.38419e-07
v -1.2 0.7 -2.38419e-07
v -1.2 3.4 -2.38419e-07
v 1.2 0.7 -2.38419e-07
v 1.2 3.4 -2.38419e-07
v 1.3 0.7 -2.38419e-07
v 1.3 3.4 -2.38419e-07
v -1.3 0.7 -0.3
v -1.3 3.4 -0.3
v -1.2 0.7 -0.3
v -1.2 3.4 -0.3
v 1.2 0.7 -0.3
v 1.2 3.4 -0.3
v 1.3 0.7 -0.3
v 1.3 3.4 -0.3
v -1.1 3.6 -0.4
v -1.1 4 -0.4
v -1 3.6 -0.4
v -1 3.9 -0.4
v -0.8 3.6 -0.4
v -0.8 3.9 -0.4
v -0.7 3.6 -0.4
v -0.7 4 -0.4
v 0.1 3.6 -0.4
v 0.1 3.7 -0.4
v 0.5 3.6 -0.4
v 0.5 3.7 -0.4
v 0.6 3.6 -0.4
v 0.6 3.7 -0.4
v 1 3.6 -0.4
v 1 3.7 -0.4
v -1 3.6 -0.5
v -1 3.9 -0.5
v -0.8 3.6 -0.5
v -0.8 3.9 -0.5
v -1.3 0.7 -0.6
v -1.3 3.4 -0.6
v -1.2 0.7 -0.6
v -1.2 3.4 -0.6
v 1.2 0.7 -0.6
v 1.2 3.4 -0.6
v 1.3 0.7 -0.6
v 1.3 3.4 -0.6
v -1 3.6 -0.8
v -1 3.9 -0.8
v -0.8 3.6 -0.8
v -0.8 3.9 -0.8
v -1.3 0.7 -0.9
v -1.3 3.4 -0.9
v -1.2 0.7 -0.9
v -1.2 3.4 -0.9
v 1.2 0.7 -0.9
v 1.2 3.4 -0.9
v 1.3 0.7 -0.9
v 1.3 3.4 -0.9
v -1.3 3.6 -1
v -1.3 3.7 -1
v 1.3 3.6 -1
v 1.3 3.7 -1
v -1.3 3.6 1.2
v -1.3 3.7 1.2
v -0.4 3.6 1.2
v -0.4 3.7 1.2
v 0.4 3.6 1.2
v 0.4 3.7 1.2
v 1.3 3.6 1.2
v 1.3 3.7 1.2
v -1.3 0.7 1.1
v -1.3 3.4 1.1
v -1.2 0.7 1.1
v -1.2 3.4 1.1
v 1.2 0.7 1.1
v 1.2 3.4 1.1
v 1.3 0.7 1.1
v 1.3 3.4 1.1
v -0.4 3.6 0.9
v -0.4 3.7 0.9
v 0.4 3.6 0.9
v 0.4 3.7 0.9
v -1.3 0.7 0.8
v -1.3 3.4 0.8
v -1.2 0.7 0.8
v -1.2 3.4 0.8
v 1.2 0.7 0.8
v 1.2 3.4 0.8
v 1.3 0.7 0.8
v 1.3 3.4 0.8
v -1.3 0.7 0.5
v -1.3 3.4 0.5
v -1.2 0.7 0.5
v -1.2 3.4 0.5
v 1.2 0.7 0.5
v 1.2 3.4 0.5
v 1.3 0.7 0.5
v 1.3 3.4 0.5
v -1.3 0.7 0.2
v -1.3 3.4 0.2
v -1.2 0.7 0.2
v -1.2 3.4 0.2
v 1.2 0.7 0.2
v 1.2 3.4 0.2
v 1.3 0.7 0.2
v 1.3 3.4 0.2
v -1.3 0.7 -0.1
v -1.3 3.4 -0.1
v -1.2 0.7 -0.1
v -1.2 3.4 -0.1
v 1.2 0.7 -0.1
v 1.2 3.4 -0.1
v 1.3 0.7 -0.1
v 1.3 3.4 -0.1
v 0.1 3.6 -0.3
v 0.1 3.7 -0.3
v 0.5 3.6 -0.3
v 0.5 3.7 -0.3
v 0.6 3.6 -0.3
v 0.6 3.7 -0.3
v 1 3.6 -0.3
v 1 3.7 -0.3
v -1.3 0.7 -0.4
v -1.3 3.4 -0.4
v -1.2 0.7 -0.4
v -1.2 3.4 -0.4
v 1.2 0.7 -0.4
v 1.2 3.4 -0.4
v 1.3 0.7 -0.4
v 1.3 3.4 -0.4
v -1 3.6 -0.6
v -1 3.9 -0.6
v -0.8 3.6 -0.6
v -0.8 3.9 -0.6
v -1.3 0.7 -0.7
v -1.3 3.4 -0.7
v -1.2 0.7 -0.7
v -1.2 3.4 -0.7
v 1.2 0.7 -0.7
v 1.2 3.4 -0.7
v 1.3 0.7 -0.7
v 1.3 3.4 -0.7
v 0.1 3.6 -0.8
v 0.1 3.7 -0.8
v 0.5 3.6 -0.8
v 0.5 3.7 -0.8
v 0.6 3.6 -0.8
v 0.6 3.7 -0.8
v 1 3.6 -0.8
v 1 3.7 -0.8
v -1.2 0.7 -0.9
v -1.2 3.4 -0.9
v -1.1 3.6 -0.9
v -1.1 4 -0.9
v -1 0.7 -0.9
v -1 3.4 -0.9
v -0.9 0.7 -0.9
v -0.9 3.4 -0.9
v -0.7 0.7 -0.9
v -0.7 3.4 -0.9
v -0.7 3.6 -0.9
v -0.7 4 -0.9
v -0.6 0.7 -0.9
v -0.6 3.4 -0.9
v -0.4 0.7 -0.9
v -0.4 3.4 -0.9
v -0.3 0.7 -0.9
v -0.3 3.4 -0.9
v -0.0999999 0.7 -0.9
v -0.0999999 3.4 -0.9
v 0.1 0.7 -0.9
v 0.1 3.4 -0.9
v 0.3 0.7 -0.9
v 0.3 3.4 -0.9
v 0.4 0.7 -0.9
v 0.4 3.4 -0.9
v 0.6 0.7 -0.9
v 0.6 3.4 -0.9
v 0.7 0.7 -0.9
v 0.7 3.4 -0.9
v 0.9 0.7 -0.9
v 0.9 3.4 -0.9
v 1 0.7 -0.9
v 1 3.4 -0.9
v 1.2 0.7 -0.9
v 1.2 3.4 -0.9
v -1.3 0.7 -1
v -1.3 3.5 -1
v -1.2 0.7 -1
v -1.2 3.4 -1
v -1 0.7 -1
v -1 3.4 -1
v -0.9 0.7 -1
v -0.9 3.4 -1
v -0.7 0.7 -1
v -0.7 3.4 -1
v -0.6 0.7 -1
v -0.6 3.4 -1
v -0.4 0.7 -1
v -0.4 3.4 -1
v -0.3 0.7 -1
v -0.3 3.4 -1
v -0.0999999 0.7 -1
v -0.0999999 3.4 -1
v 0.1 0.7 -1
v 0.1 3.4 -1
v 0.3 0.7 -1
v 0.3 3.4 -1
v 0.4 0.7 -1
v 0.4 3.4 -1
v 0.6 0.7 -1
v 0.6 3.4 -1
v 0.7 0.7 -1
v 0.7 3.4 -1
v 0.9 0.7 -1
v 0.9 3.4 -1
v 1 0.7 -1
v 1 3.4 -1
v 1.2 0.7 -1
v 1.2 3.4 -1
v 1.3 0.7 -1
v 1.3 3.5 -1
v -1.4 0.6 -1.1
v -1.4 0.7 -1.1
v -1.4 3.5 -1.1
v -1.4 3.7 -1.1
v 1.4 0.6 -1.1
v 1.4 0.7 -1.1
v 1.4 3.5 -1.1
v 1.4 3.7 -1.1
v -1.5 0.3 -1.2
v -1.5 0.6 -1.2
v -0.9 0.3 -1.2
v -0.6 0.3 -1.2
v 0.4 0.3 -1.2
v 0.4 0.5 -1.2
v 0.4 0.6 -1.2
v 0.8 0.3 -1.2
v 0.8 0.5 -1.2
v 0.8 0.6 -1.2
v 0.9 0.3 -1.2
v 0.9 0.5 -1.2
v 0.9 0.6 -1.2
v 1.3 0.3 -1.2
v 1.3 0.5 -1.2
v 1.3 0.6 -1.2
v 1.4 0.3 -1.2
v 1.5 0.3 -1.2
v 1.5 0.6 -1.2
v 0.4 0.3 -1.4
v 0.4 0.5 -1.4
v 0.4 0.6 -1.4
v 0.8 0.3 -1.4
v 0.8 0.5 -1.4
v 0.8 0.6 -1.4
v 0.9 0.3 -1.4
v 0.9 0.5 -1.4
v 0.9 0.6 -1.4
v 1.3 0.3 -1.4
v 1.3 0.5 -1.4
v 1.3 0.6 -1.4
v -1.9 0.2 -1.9
v -1.9 0.3 -1.9
v -1.6 0.2 -1.9
v -1.6 0.3 -1.9
v 1 0.2 -1.9
v 1 0.3 -1.9
v 1.2 0.2 -1.9
v 1.2 0.3 -1.9
v 1.4 0.2 -1.9
v 1.4 0.3 -1.9
v 1.9 0.2 -1.9
v 1.9 0.3 -1.9
v -2 0 -2
v -2 0.2 -2
v -1.6 0.1 -2
v -1.6 0.2 -2
v 1.4 0.1 -2
v 1.4 0.2 -2
v 2 0 -2
v 2 0.2 -2
v -2 0 2
v 2 0 2
v -2 0 -2
v 2 0 -2
v -0.4 1.1 1
v -0.3 1.1 1
v 0.3 1.1 1
v 0.4 1.1 1
v -0.4 1.1 0.9
v -0.3 1.1 0.9
v -0.2 1.1 0.9
v 0.2 1.1 0.9
v 0.3 1.1 0.9
v 0.4 1.1 0.9
v -0.2 1.1 0.8
v 0.2 1.1 0.8
v -0.4 1.2 1.1
v -0.3 1.2 1.1
v 0.3 1.2 1.1
v 0.4 1.2 1.1
v -0.4 1.2 1
v -0.3 1.2 1
v -0.2 1.2 1
v 0.2 1.2 1
v 0.3 1.2 1
v 0.4 1.2 1
v -0.3 1.2 0.9
v -0.2 1.2 0.9
v 0.2 1.2 0.9
v 0.3 1.2 0.9
v -0.3 1.3 1.3
v 0.3 1.3 1.3
v -0.4 1.3 1.2
v -0.3 1.3 1.2
v 0.3 1.3 1.2
v 0.4 1.3 1.2
v -0.4 1.3 1.1
v -0.3 1.3 1.1
v 0.3 1.3 1.1
v 0.4 1.3 1.1
v -0.3 1.3 1
v -0.2 1.3 1
v 0.2 1.3 1
v 0.3 1.3 1
v -0.2 1.3 0.9
v 0.2 1.3 0.9
v -1.2 3.4 1.2
v -1 3.4 1.2
v -0.9 3.4 1.2
v -0.8 3.4 1.2
v -0.7 3.4 1.2
v -0.5 3.4 1.2
v 0.5 3.4 1.2
v 0.7 3.4 1.2
v 0.8 3.4 1.2
v 0.9 3.4 1.2
v 1 3.4 1.2
v 1.2 3.4 1.2
v -1.3 3.4 1.1
v -1.2 3.4 1.1
v -1 3.4 1.1
v -0.9 3.4 1.1
v -0.8 3.4 1.1
v -0.7 3.4 1.1
v -0.5 3.4 1.1
v 0.5 3.4 1.1
v 0.7 3.4 1.1
v 0.8 3.4 1.1
v 0.9 3.4 1.1
v 1 3.4 1.1
v 1.2 3.4 1.1
v 1.3 3.4 1.1
v -1.3 3.4 0.9
v -1.2 3.4 0.9
v -0.3 3.4 0.9
v -0.2 3.4 0.9
v -0.0999999 3.4 0.9
v 0.1 3.4 0.9
v 0.2 3.4 0.9
v 0.3 3.4 0.9
v 1.2 3.4 0.9
v 1.3 3.4 0.9
v -1.3 3.4 0.8
v -1.2 3.4 0.8
v -0.3 3.4 0.8
v -0.2 3.4 0.8
v -0.0999999 3.4 0.8
v 0.1 3.4 0.8
v 0.2 3.4 0.8
v 0.3 3.4 0.8
v 1.2 3.4 0.8
v 1.3 3.4 0.8
v -1.3 3.4 0.6
v -1.2 3.4 0.6
v 1.2 3.4 0.6
v 1.3 3.4 0.6
v -1.3 3.4 0.5
v -1.2 3.4 0.5
v 1.2 3.4 0.5
v 1.3 3.4 0.5
v -1.3 3.4 0.3
v -1.2 3.4 0.3
v 1.2 3.4 0.3
v 1.3 3.4 0.3
v -1.3 3.4 0.2
v -1.2 3.4 0.2
v 1.2 3.4 0.2
v 1.3 3.4 0.2
v -1.3 3.4 -2.38419e-07
v -1.2 3.4 -2.38419e-07
v 1.2 3.4 -2.38419e-07
v 1.3 3.4 -2.38419e-07
v -1.3 3.4 -0.1
v -1.2 3.4 -0.1
v 1.2 3.4 -0.1
v 1.3 3.4 -0.1
v -1.3 3.4 -0.3
v -1.2 3.4 -0.3
v 1.2 3.4 -0.3
v 1.3 3.4 -0.3
v -1.3 3.4 -0.4
v -1.2 3.4 -0.4
v 1.2 3.4 -0.4
v 1.3 3.4 -0.4
v -1.3 3.4 -0.6
v -1.2 3.4 -0.6
v 1.2 3.4 -0.6
v 1.3 3.4 -0.6
v -1.3 3.4 -0.7
v -1.2 3.4 -0.7
v 1.2 3.4 -0.7
v 1.3 3.4 -0.7
v -1.3 3.4 -0.9
v -1.2 3.4 -0.9
v -1 3.4 -0.9
v -0.9 3.4 -0.9
v -0.7 3.4 -0.9
v -0.6 3.4 -0.9
v -0.4 3.4 -0.9
v -0.3 3.4 -0.9
v -0.0999999 3.4 -0.9
v 0.1 3.4 -0.9
v 0.3 3.4 -0.9
v 0.4 3.4 -0.9
v 0.6 3.4 -0.9
v 0.7 3.4 -0.9
v 0.9 3.4 -0.9
v 1 3.4 -0.9
v 1.2 3.4 -0.9
v 1.3 3.4 -0.9
v -1.2 3.4 -1
v -1 3.4 -1
v -0.9 3.4 -1
v -0.7 3.4 -1
v -0.6 3.4 -1
v -0.4 3.4 -1
v -0.3 3.4 -1
v -0.0999999 3.4 -1
v 0.1 3.4 -1
v 0.3 3.4 -1
v 0.4 3.4 -1
v 0.6 3.4 -1
v 0.7 3.4 -1
v 0.9 3.4 -1
v 1 3.4 -1
v 1.2 3.4 -1
v -1.4 3.5 1.3
v -0.3 3.5 1.3
v 0.3 3.5 1.3
v 1.4 3.5 1.3
v -1.3 3.5 1.2
v -0.4 3.5 1.2
v 0.4 3.5 1.2
v 1.3 3.5 1.2
v -0.3 3.5 1
v 0.3 3.5 1
v -0.4 3.5 0.9
v 0.4 3.5 0.9
v -1.3 3.5 -1
v 1.3 3.5 -1
v -1.4 3.5 -1.1
v 1.4 3.5 -1.1
v -1 3.9 -0.4
v -0.8 3.9 -0.4
v -1 3.9 -0.5
v -0.8 3.9 -0.5
v -1 3.9 -0.6
v -0.8 3.9 -0.6
v -1 3.9 -0.8
v -0.8 3.9 -0.8
v -2 0.2 2
v 1.1 0.2 2
v 1.9 0.2 2
v 2 0.2 2
v -1.9 0.2 1.9
v -1.2 0.2 1.9
v -0.7 0.2 1.9
v 1.1 0.2 1.9
v 1.9 0.2 1.9
v 1.9 0.2 1.8
v 2 0.2 1.8
v 1.9 0.2 1.5
v -2 0.2 1.2
v -1.9 0.2 1.2
v -2 0.2 1
v -1.9 0.2 1
v -2 0.2 0.9
v -1.9 0.2 0.9
v -2 0.2 0.7
v -1.9 0.2 0.7
v 1.9 0.2 0.5
v -2 0.2 0.4
v -1.9 0.2 0.4
v 1.9 0.2 0.0999999
v 2 0.2 0.0999999
v 1.9 0.2 -0.1
v 2 0.2 -0.1
v -2 0.2 -0.6
v -1.9 0.2 -0.6
v 1.9 0.2 -1.3
v -2 0.2 -1.4
v -1.9 0.2 -1.4
v 1.9 0.2 -1.4
v 2 0.2 -1.4
v 1.9 0.2 -1.5
v 2 0.2 -1.5
v -2 0.2 -1.6
v -1.9 0.2 -1.6
v 1.9 0.2 -1.6
v 2 0.2 -1.6
v -1.9 0.2 -1.9
v -1.6 0.2 -1.9
v 1 0.2 -1.9
v 1.2 0.2 -1.9
v 1.4 0.2 -1.9
v 1.9 0.2 -1.9
v -2 0.2 -2
v -1.6 0.2 -2
v 1.4 0.2 -2
v 2 0.2 -2
v -1.9 0.3 1.9
v -1.2 0.3 1.9
v -0.7 0.3 1.9
v 1.1 0.3 1.9
v 1.9 0.3 1.9
v -1 0.3 1.8
v -0.7 0.3 1.8
v -0.4 0.3 1.8
v 1.1 0.3 1.8
v 1.2 0.3 1.6
v 1.7 0.3 1.6
v 0.7 0.3 1.5
v 1.2 0.3 1.5
v 1.7 0.3 1.5
v 1.9 0.3 1.5
v -1.8 0.3 1.4
v -1.5 0.3 1.4
v -1.2 0.3 1.4
v -1 0.3 1.4
v -0.4 0.3 1.4
v -0.3 0.3 1.4
v 0.3 0.3 1.4
v 0.7 0.3 1.4
v 1.2 0.3 1.4
v 1.5 0.3 1.4
v -0.3 0.3 1.3
v 0.3 0.3 1.3
v -1.9 0.3 1.2
v -1.8 0.3 1.2
v -1.8 0.3 1.1
v -1.5 0.3 1.1
v -1.9 0.3 0.7
v -1.8 0.3 0.7
v -1.7 0.3 0.5
v -1.5 0.3 0.5
v 1.7 0.3 0.5
v 1.9 0.3 0.5
v -1.9 0.3 0.4
v -1.8 0.3 0.4
v 1.5 0.3 0.2
v 1.7 0.3 0.2
v 1.5 0.3 0.0999999
v 1.9 0.3 0.0999999
v 1.5 0.3 -0.1
v 1.9 0.3 -0.1
v -1.7 0.3 -0.5
v -1.5 0.3 -0.5
v 1.5 0.3 -0.5
v 1.8 0.3 -0.5
v -1.9 0.3 -0.6
v -1.7 0.3 -0.6
v 1.5 0.3 -1.1
v 1.8 0.3 -1.1
v -1.5 0.3 -1.2
v -0.9 0.3 -1.2
v -0.6 0.3 -1.2
v 0.4 0.3 -1.2
v 0.8 0.3 -1.2
v 0.9 0.3 -1.2
v 1.3 0.3 -1.2
v 1.4 0.3 -1.2
v 1.5 0.3 -1.2
v 1.4 0.3 -1.3
v 1.9 0.3 -1.3
v -1.9 0.3 -1.4
v -1.7 0.3 -1.4
v -0.7 0.3 -1.4
v -0.6 0.3 -1.4
v 0.4 0.3 -1.4
v 0.8 0.3 -1.4
v 0.9 0.3 -1.4
v 1.3 0.3 -1.4
v -1.7 0.3 -1.5
v -1.1 0.3 -1.5
v -1.9 0.3 -1.6
v -1.6 0.3 -1.6
v -1.1 0.3 -1.6
v -0.9 0.3 -1.6
v -0.0999999 0.3 -1.6
v 0.3 0.3 -1.6
v 1.3 0.3 -1.6
v 1.4 0.3 -1.6
v 1.9 0.3 -1.6
v -0.7 0.3 -1.7
v -0.0999999 0.3 -1.7
v 0.3 0.3 -1.7
v 0.9 0.3 -1.7
v 1 0.3 -1.7
v 1.2 0.3 -1.7
v -1.9 0.3 -1.9
v -1.6 0.3 -1.9
v 1 0.3 -1.9
v 1.2 0.3 -1.9
v 1.4 0.3 -1.9
v 1.9 0.3 -1.9
v -0.3 0.4 1.3
v 0.3 0.4 1.3
v -0.3 0.4 1.2
v 0.3 0.4 1.2
v -0.3 0.5 1.2
v 0.3 0.5 1.2
v -0.3 0.5 1.1
v 0.3 0.5 1.1
v -1.5 0.6 1.4
v -0.3 0.6 1.4
v 0.3 0.6 1.4
v 1.5 0.6 1.4
v -1.4 0.6 1.3
v -0.3 0.6 1.3
v 0.3 0.6 1.3
v 1.4 0.6 1.3
v -0.3 0.6 1.1
v 0.3 0.6 1.1
v -0.3 0.6 0.9
v -0.2 0.6 0.9
v 0.2 0.6 0.9
v 0.3 0.6 0.9
v -0.2 0.6 0.8
v 0.2 0.6 0.8
v -1.4 0.6 -1.1
v 1.4 0.6 -1.1
v -1.5 0.6 -1.2
v 0.4 0.6 -1.2
v 0.8 0.6 -1.2
v 0.9 0.6 -1.2
v 1.3 0.6 -1.2
v 1.5 0.6 -1.2
v 0.4 0.6 -1.4
v 0.8 0.6 -1.4
v 0.9 0.6 -1.4
v 1.3 0.6 -1.4
v -1.4 0.7 1.3
v -0.3 0.7 1.3
v 0.3 0.7 1.3
v 1.4 0.7 1.3
v -1.3 0.7 1.2
v -1.2 0.7 1.2
v -1 0.7 1.2
v -0.9 0.7 1.2
v -0.8 0.7 1.2
v -0.7 0.7 1.2
v -0.5 0.7 1.2
v -0.4 0.7 1.2
v 0.4 0.7 1.2
v 0.5 0.7 1.2
v 0.7 0.7 1.2
v 0.8 0.7 1.2
v 0.9 0.7 1.2
v 1 0.7 1.2
v 1.2 0.7 1.2
v 1.3 0.7 1.2
v -1.3 0.7 1.1
v -1.2 0.7 1.1
v -1 0.7 1.1
v -0.9 0.7 1.1
v -0.8 0.7 1.1
v -0.7 0.7 1.1
v -0.5 0.7 1.1
v 0.5 0.7 1.1
v 0.7 0.7 1.1
v 0.8 0.7 1.1
v 0.9 0.7 1.1
v 1 0.7 1.1
v 1.2 0.7 1.1
v 1.3 0.7 1.1
v -1.3 0.7 0.9
v -1.2 0.7 0.9
v -0.4 0.7 0.9
v -0.3 0.7 0.9
v 0.3 0.7 0.9
v 0.4 0.7 0.9
v 1.2 0.7 0.9
v 1.3 0.7 0.9
v -1.3 0.7 0.8
v -1.2 0.7 0.8
v 1.2 0.7 0.8
v 1.3 0.7 0.8
v -1.3 0.7 0.6
v -1.2 0.7 0.6
v 1.2 0.7 0.6
v 1.3 0.7 0.6
v -1.3 0.7 0.5
v -1.2 0.7 0.5
v 1.2 0.7 0.5
v 1.3 0.7 0.5
v -1.3 0.7 0.3
v -1.2 0.7 0.3
v 1.2 0.7 0.3
v 1.3 0.7 0.3
v -1.3 0.7 0.2
v -1.2 0.7 0.2
v 1.2 0.7 0.2
v 1.3 0.7 0.2
v -1.3 0.7 -2.38419e-07
v -1.2 0.7 -2.38419e-07
v 1.2 0.7 -2.38419e-07
v 1.3 0.7 -2.38419e-07
v -1.3 0.7 -0.1
v -1.2 0.7 -0.1
v 1.2 0.7 -0.1
v 1.3 0.7 -0.1
v -1.3 0.7 -0.3
v -1.2 0.7 -0.3
v 1.2 0.7 -0.3
v 1.3 0.7 -0.3
v -1.3 0.7 -0.4
v -1.2 0.7 -0.4
v 1.2 0.7 -0.4
v 1.3 0.7 -0.4
v -1.3 0.7 -0.6
v -1.2 0.7 -0.6
v 1.2 0.7 -0.6
v 1.3 0.7 -0.6
v -1.3 0.7 -0.7
v -1.2 0.7 -0.7
v 1.2 0.7 -0.7
v 1.3 0.7 -0.7
v -1.3 0.7 -0.9
v -1.2 0.7 -0.9
v -1 0.7 -0.9
v -0.9 0.7 -0.9
v -0.7 0.7 -0.9
v -0.6 0.7 -0.9
v -0.4 0.7 -0.9
v -0.3 0.7 -0.9
v -0.0999999 0.7 -0.9
v 0.1 0.7 -0.9
v 0.3 0.7 -0.9
v 0.4 0.7 -0.9
v 0.6 0.7 -0.9
v 0.7 0.7 -0.9
v 0.9 0.7 -0.9
v 1 0.7 -0.9
v 1.2 0.7 -0.9
v 1.3 0.7 -0.9
v -1.3 0.7 -1
v -1.2 0.7 -1
v -1 0.7 -1
v -0.9 0.7 -1
v -0.7 0.7 -1
v -0.6 0.7 -1
v -0.4 0.7 -1
v -0.3 0.7 -1
v -0.0999999 0.7 -1
v 0.1 0.7 -1
v 0.3 0.7 -1
v 0.4 0.7 -1
v 0.6 0.7 -1
v 0.7 0.7 -1
v 0.9 0.7 -1
v 1 0.7 -1
v 1.2 0.7 -1
v 1.3 0.7 -1
v -1.4 0.7 -1.1
v 1.4 0.7 -1.1
v -0.3 1.4 1.3
v 0.3 1.4 1.3
v -0.4 1.4 1.2
v -0.3 1.4 1.2
v -0.2 1.4 1.2
v 0.2 1.4 1.2
v 0.3 1.4 1.2
v 0.4 1.4 1.2
v -0.3 1.4 1.1
v -0.2 1.4 1.1
v 0.2 1.4 1.1
v 0.3 1.4 1.1
v -0.4 1.4 0.9
v -0.3 1.4 0.9
v 0.3 1.4 0.9
v 0.4 1.4 0.9
v -0.2 1.5 1.2
v 0.2 1.5 1.2
v -0.3 1.5 1.1
v -0.2 1.5 1.1
v 0.2 1.5 1.1
v 0.3 1.5 1.1
v -0.3 1.5 0.9
v 0.3 1.5 0.9
v -0.3 1.6 0.9
v -0.2 1.6 0.9
v -0.0999999 1.6 0.9
v 0.1 1.6 0.9
v 0.2 1.6 0.9
v 0.3 1.6 0.9
v -0.3 1.6 0.8
v -0.2 1.6 0.8
v -0.0999999 1.6 0.8
v 0.1 1.6 0.8
v 0.2 1.6 0.8
v 0.3 1.6 0.8
v -1.3 3.6 1.2
v -0.4 3.6 1.2
v 0.4 3.6 1.2
v 1.3 3.6 1.2
v -0.4 3.6 0.9
v 0.4 3.6 0.9
v 0.1 3.6 0.0999999
v 0.5 3.6 0.0999999
v 0.6 3.6 0.0999999
v 1 3.6 0.0999999
v 0.1 3.6 -0.3
v 0.5 3.6 -0.3
v 0.6 3.6 -0.3
v 1 3.6 -0.3
v -1.1 3.6 -0.4
v -1 3.6 -0.4
v -0.8 3.6 -0.4
v -0.7 3.6 -0.4
v 0.1 3.6 -0.4
v 0.5 3.6 -0.4
v 0.6 3.6 -0.4
v 1 3.6 -0.4
v -1 3.6 -0.5
v -0.8 3.6 -0.5
v -1 3.6 -0.6
v -0.8 3.6 -0.6
v -1 3.6 -0.8
v -0.8 3.6 -0.8
v 0.1 3.6 -0.8
v 0.5 3.6 -0.8
v 0.6 3.6 -0.8
v 1 3.6 -0.8
v -1.1 3.6 -0.9
v -0.7 3.6 -0.9
v -1.3 3.6 -1
v 1.3 3.6 -1
v -1.4 3.7 1.3
v -0.3 3.7 1.3
v 0.3 3.7 1.3
v 1.4 3.7 1.3
v -1.3 3.7 1.2
v -0.4 3.7 1.2
v 0.4 3.7 1.2
v 1.3 3.7 1.2
v -0.3 3.7 1
v 0.3 3.7 1
v -0.4 3.7 0.9
v 0.4 3.7 0.9
v 0.1 3.7 0.0999999
v 0.5 3.7 0.0999999
v 0.6 3.7 0.0999999
v 1 3.7 0.0999999
v 0.1 3.7 -0.3
v 0.5 3.7 -0.3
v 0.6 3.7 -0.3
v 1 3.7 -0.3
v 0.1 3.7 -0.4
v 0.5 3.7 -0.4
v 0.6 3.7 -0.4
v 1 3.7 -0.4
v 0.1 3.7 -0.8
v 0.5 3.7 -0.8
v 0.6 3.7 -0.8
v 1 3.7 -0.8
v -1.3 3.7 -1
v 1.3 3.7 -1
v -1.4 3.7 -1.1
v 1.4 3.7 -1.1
v -1.1 4 -0.4
v -0.7 4 -0.4
v -1.1 4 -0.9
v -0.7 4 -0.9

# faces
f 3/4/1 2/4/1 1/4/1
f 4/4/1 2/4/1 3/4/1
f 5/4/1 2/4/1 4/4/1
f 6/4/1 2/4/1 5/4/1
f 7/4/1 2/4/1 6/4/1
f 8/4/1 2/4/1 7/4/1
f 9/4/1 2/4/1 8/4/1
f 10/4/1 2/4/1 9/4/1
f 11/4/1 3/4/1 1/4/1
f 12/5/1 4/5/1 3/5/1
f 12/4/1 3/4/1 11/4/1
f 13/6/1 5/6/1 4/6/1
f 13/5/1 4/5/1 12/5/1
f 14/5/1 6/5/1 5/5/1
f 14/6/1 5/6/1 13/6/1
f 15/4/1 7/4/1 6/4/1
f 15/5/1 6/5/1 14/5/1
f 16/5/1 8/5/1 7/5/1
f 16/4/1 7/4/1 15/4/1
f 17/4/1 9/4/1 8/4/1
f 17/5/1 8/5/1 16/5/1
f 18/5/1 10/5/1 9/5/1
f 18/4/1 9/4/1 17/4/1
f 19/4/1 2/4/1 10/4/1
f 19/5/1 10/5/1 18/5/1
f 20/4/1 2/4/1 19/4/1
f 31/4/1 22/4/1 21/4/1
f 32/5/1 23/5/1 22/5/1
f 32/4/1 22/4/1 31/4/1
f 32/5/1 24/5/1 23/5/1
f 32/5/1 25/5/1 24/5/1
f 33/4/1 26/4/1 25/4/1
f 33/5/1 25/5/1 32/5/1
f 34/6/1 27/6/1 26/6/1
f 34/4/1 26/4/1 33/4/1
f 35/4/1 28/4/1 27/4/1
f 35/6/1 27/6/1 34/6/1
f 36/5/1 29/5/1 28/5/1
f 36/4/1 28/4/1 35/4/1
f 37/4/1 30/4/1 29/4/1
f 37/5/1 29/5/1 36/5/1
f 38/4/1 30/4/1 37/4/1
f 44/5/1 40/5/1 39/5/1
f 44/5/1 43/5/1 42/5/1
f 44/5/1 42/5/1 41/5/1
f 44/5/1 41/5/1 40/5/1
f 45/5/1 43/5/1 44/5/1
f 48/7/1 47/7/1 46/7/1
f 49/7/1 47/7/1 48/7/1
f 52/8/1 51/8/1 50/8/1
f 53/8/1 51/8/1 52/8/1
f 70/10/1 55/10/1 54/10/1
f 71/10/1 57/10/1 56/10/1
f 72/10/1 57/10/1 71/10/1
f 73/10/1 59/10/1 58/10/1
f 74/10/1 59/10/1 73/10/1
f 75/10/1 61/10/1 60/10/1
f 76/10/1 61/10/1 75/10/1
f 77/10/1 63/10/1 62/10/1
f 78/10/1 63/10/1 77/10/1
f 79/10/1 65/10/1 64/10/1
f 80/10/1 65/10/1 79/10/1
f 81/10/1 67/10/1 66/10/1
f 82/10/1 67/10/1 81/10/1
f 83/10/1 69/10/1 68/10/1
f 84/10/1 82/10/1 81/10/1
f 84/10/1 83/10/1 82/10/1
f 84/10/1 70/10/1 54/10/1
f 84/10/1 72/10/1 71/10/1
f 84/10/1 81/10/1 80/10/1
f 84/10/1 74/10/1 73/10/1
f 84/10/1 79/10/1 78/10/1
f 84/10/1 76/10/1 75/10/1
f 84/10/1 77/10/1 76/10/1
f 84/10/1 78/10/1 77/10/1
f 84/10/1 75/10/1 74/10/1
f 84/10/1 80/10/1 79/10/1
f 84/10/1 73/10/1 72/10/1
f 84/10/1 71/10/1 70/10/1
f 85/10/1 69/10/1 83/10/1
f 85/10/1 83/10/1 84/10/1
f 100/10/1 87/10/1 86/10/1
f 101/10/1 87/10/1 100/10/1
f 102/10/1 89/10/1 88/10/1
f 103/10/1 89/10/1 102/10/1
f 104/10/1 91/10/1 90/10/1
f 105/10/1 91/10/1 104/10/1
f 106/10/1 93/10/1 92/10/1
f 107/10/1 93/10/1 106/10/1
f 108/10/1 95/10/1 94/10/1
f 109/10/1 95/10/1 108/10/1
f 110/10/1 97/10/1 96/10/1
f 111/10/1 97/10/1 110/10/1
f 112/10/1 99/10/1 98/10/1
f 113/10/1 99/10/1 112/10/1
f 116/8/1 115/8/1 114/8/1
f 117/8/1 115/8/1 116/8/1
f 122/10/1 119/10/1 118/10/1
f 123/10/1 119/10/1 122/10/1
f 124/10/1 121/10/1 120/10/1
f 125/10/1 121/10/1 124/10/1
f 128/10/1 127/10/1 126/10/1
f 129/10/1 127/10/1 128/10/1
f 134/8/1 131/8/1 130/8/1
f 135/8/1 131/8/1 134/8/1
f 136/8/1 133/8/1 132/8/1
f 137/8/1 133/8/1 136/8/1
f 140/10/1 139/10/1 138/10/1
f 141/10/1 139/10/1 140/10/1
f 144/10/1 143/10/1 142/10/1
f 145/10/1 143/10/1 144/10/1
f 148/10/1 147/10/1 146/10/1
f 149/10/1 147/10/1 148/10/1
f 152/8/1 151/8/1 150/8/1
f 153/8/1 151/8/1 152/8/1
f 156/9/1 155/9/1 154/9/1
f 157/9/1 155/9/1 156/9/1
f 160/9/1 159/9/1 158/9/1
f 161/9/1 159/9/1 160/9/1
f 164/9/1 163/9/1 162/9/1
f 165/9/1 163/9/1 164/9/1
f 168/10/1 167/10/1 166/10/1
f 169/10/1 167/10/1 168/10/1
f 172/10/1 171/10/1 170/10/1
f 173/10/1 171/10/1 172/10/1
f 176/10/1 175/10/1 174/10/1
f 177/10/1 175/10/1 176/10/1
f 182/4/1 179/4/1 178/4/1
f 183/4/1 179/4/1 182/4/1
f 184/4/1 181/4/1 180/4/1
f 185/4/1 181/4/1 184/4/1
f 188/8/1 187/8/1 186/8/1
f 189/8/1 187/8/1 188/8/1
f 192/9/1 191/9/1 190/9/1
f 193/9/1 191/9/1 192/9/1
f 196/5/1 195/5/1 194/5/1
f 198/5/1 197/5/1 196/5/1
f 200/5/1 196/5/1 194/5/1
f 200/5/1 199/5/1 198/5/1
f 200/5/1 198/5/1 196/5/1
f 201/5/1 199/5/1 200/5/1
f 202/5/1 199/5/1 201/5/1
f 204/7/1 203/7/1 202/7/1
f 204/7/1 202/7/1 201/7/1
f 205/7/1 203/7/1 204/7/1
f 211/9/1 209/9/1 208/9/1
f 212/9/1 209/9/1 211/9/1
f 213/9/1 211/9/1 210/9/1
f 214/9/1 211/9/1 213/9/1
f 217/10/1 216/10/1 215/10/1
f 218/10/1 216/10/1 217/10/1
f 219/10/1 207/10/1 206/10/1
f 220/10/1 207/10/1 219/10/1
f 223/8/1 222/8/1 221/8/1
f 224/8/1 222/8/1 223/8/1
f 227/1/1 226/1/1 225/1/1
f 228/1/1 226/1/1 227/1/1
f 229/2/1 228/2/1 227/2/1
f 230/2/1 228/2/1 229/2/1
f 233/10/1 232/10/1 231/10/1
f 234/10/1 232/10/1 233/10/1
f 235/10/1 233/10/1 231/10/1
f 236/10/1 233/10/1 235/10/1
f 237/10/1 235/10/1 231/10/1
f 238/10/1 235/10/1 237/10/1
f 241/10/1 240/10/1 239/10/1
f 242/10/1 240/10/1 241/10/1
f 245/10/1 244/10/1 243/10/1
f 246/10/1 244/10/1 245/10/1
f 251/4/1 248/4/1 247/4/1
f 252/4/1 248/4/1 251/4/1
f 253/4/1 250/4/1 249/4/1
f 254/4/1 250/4/1 253/4/1
f 257/10/1 256/10/1 255/10/1
f 258/10/1 256/10/1 257/10/1
f 261/1/1 260/1/1 259/1/1
f 262/1/1 260/1/1 261/1/1
f 263/2/1 262/2/1 261/2/1
f 264/2/1 262/2/1 263/2/1
f 269/10/1 266/10/1 265/10/1
f 270/10/1 266/10/1 269/10/1
f 271/10/1 268/10/1 267/10/1
f 272/10/1 268/10/1 271/10/1
f 277/10/1 274/10/1 273/10/1
f 278/10/1 274/10/1 277/10/1
f 279/10/1 276/10/1 275/10/1
f 280/10/1 276/10/1 279/10/1
f 283/8/1 282/8/1 281/8/1
f 284/8/1 282/8/1 283/8/1
f 285/8/2 286/8/2 287/8/2
f 287/8/2 286/8/2 288/8/2
f 289/10/2 290/10/2 293/10/2
f 293/10/2 290/10/2 294/10/2
f 291/10/2 292/10/2 295/10/2
f 295/10/2 292/10/2 296/10/2
f 297/8/2 298/8/2 301/8/2
f 301/8/2 298/8/2 302/8/2
f 299/8/2 300/8/2 303/8/2
f 303/8/2 300/8/2 304/8/2
f 305/10/2 306/10/2 309/10/2
f 309/10/2 306/10/2 310/10/2
f 307/10/2 308/10/2 311/10/2
f 311/10/2 308/10/2 312/10/2
f 313/10/2 314/10/2 315/10/2
f 315/10/2 314/10/2 316/10/2
f 317/8/2 318/8/2 319/8/2
f 319/8/2 318/8/2 320/8/2
f 321/10/2 322/10/2 323/10/2
f 323/10/2 322/10/2 324/10/2
f 325/10/2 326/10/2 327/10/2
f 327/10/2 326/10/2 328/10/2
f 325/10/2 327/10/2 329/10/2
f 329/10/2 327/10/2 330/10/2
f 325/10/2 329/10/2 331/10/2
f 331/10/2 329/10/2 332/10/2
f 333/10/2 334/10/2 335/10/2
f 335/10/2 334/10/2 336/10/2
f 337/5/2 338/5/2 339/5/2
f 339/5/2 340/5/2 341/5/2
f 337/5/2 339/5/2 343/5/2
f 341/5/2 342/5/2 343/5/2
f 339/5/2 341/5/2 343/5/2
f 343/5/2 342/5/2 344/5/2
f 344/5/2 342/5/2 345/5/2
f 345/7/2 346/7/2 347/7/2
f 344/7/2 345/7/2 347/7/2
f 347/7/2 346/7/2 348/7/2
f 351/9/2 352/9/2 354/9/2
f 354/9/2 352/9/2 355/9/2
f 353/9/2 354/9/2 356/9/2
f 356/9/2 354/9/2 357/9/2
f 358/10/2 359/10/2 360/10/2
f 360/10/2 359/10/2 361/10/2
f 349/10/2 350/10/2 362/10/2
f 362/10/2 350/10/2 363/10/2
f 364/8/2 365/8/2 366/8/2
f 366/8/2 365/8/2 367/8/2
f 368/8/2 369/8/2 370/8/2
f 370/8/2 369/8/2 371/8/2
f 372/9/2 373/9/2 374/9/2
f 374/9/2 373/9/2 375/9/2
f 376/10/2 377/10/2 378/10/2
f 378/10/2 377/10/2 379/10/2
f 380/10/2 381/10/2 382/10/2
f 382/10/2 381/10/2 383/10/2
f 384/9/2 385/9/2 386/9/2
f 386/9/2 385/9/2 387/9/2
f 388/10/2 389/10/2 390/10/2
f 390/10/2 389/10/2 391/10/2
f 392/9/2 393/9/2 394/9/2
f 394/9/2 393/9/2 395/9/2
f 396/9/2 397/9/2 398/9/2
f 398/9/2 397/9/2 399/9/2
f 400/10/2 401/10/2 402/10/2
f 402/10/2 401/10/2 403/10/2
f 404/8/2 405/8/2 406/8/2
f 406/8/2 405/8/2 407/8/2
f 408/10/2 409/10/2 410/10/2
f 410/10/2 409/10/2 411/10/2
f 412/4/2 413/4/2 416/4/2
f 416/4/2 413/4/2 417/4/2
f 414/4/2 415/4/2 418/4/2
f 418/4/2 415/4/2 419/4/2
f 420/10/2 421/10/2 422/10/2
f 422/10/2 421/10/2 423/10/2
f 424/1/2 425/1/2 426/1/2
f 426/1/2 425/1/2 427/1/2
f 426/2/2 427/2/2 428/2/2
f 428/2/2 427/2/2 429/2/2
f 430/10/2 431/10/2 432/10/2
f 432/10/2 431/10/2 433/10/2
f 434/10/2 435/10/2 438/10/2
f 438/10/2 435/10/2 439/10/2
f 436/10/2 437/10/2 440/10/2
f 440/10/2 437/10/2 441/10/2
f 442/4/2 443/4/2 446/4/2
f 446/4/2 443/4/2 447/4/2
f 444/4/2 445/4/2 448/4/2
f 448/4/2 445/4/2 449/4/2
f 450/10/2 451/10/2 464/10/2
f 464/10/2 451/10/2 465/10/2
f 452/10/2 453/10/2 466/10/2
f 466/10/2 453/10/2 467/10/2
f 454/10/2 455/10/2 468/10/2
f 468/10/2 455/10/2 469/10/2
f 456/10/2 457/10/2 470/10/2
f 470/10/2 457/10/2 471/10/2
f 458/10/2 459/10/2 472/10/2
f 472/10/2 459/10/2 473/10/2
f 460/10/2 461/10/2 474/10/2
f 474/10/2 461/10/2 475/10/2
f 462/10/2 463/10/2 476/10/2
f 476/10/2 463/10/2 477/10/2
f 478/1/2 479/1/2 480/1/2
f 480/1/2 479/1/2 481/1/2
f 480/2/2 481/2/2 482/2/2
f 482/2/2 481/2/2 483/2/2
f 484/10/2 485/10/2 500/10/2
f 486/10/2 487/10/2 501/10/2
f 501/10/2 487/10/2 502/10/2
f 488/10/2 489/10/2 503/10/2
f 503/10/2 489/10/2 504/10/2
f 490/10/2 491/10/2 505/10/2
f 505/10/2 491/10/2 506/10/2
f 492/10/2 493/10/2 507/10/2
f 507/10/2 493/10/2 508/10/2
f 494/10/2 495/10/2 509/10/2
f 509/10/2 495/10/2 510/10/2
f 496/10/2 497/10/2 511/10/2
f 511/10/2 497/10/2 512/10/2
f 498/10/2 499/10/2 513/10/2
f 511/10/2 512/10/2 514/10/2
f 512/10/2 513/10/2 514/10/2
f 484/10/2 500/10/2 514/10/2
f 501/10/2 502/10/2 514/10/2
f 510/10/2 511/10/2 514/10/2
f 503/10/2 504/10/2 514/10/2
f 508/10/2 509/10/2 514/10/2
f 505/10/2 506/10/2 514/10/2
f 506/10/2 507/10/2 514/10/2
f 507/10/2 508/10/2 514/10/2
f 504/10/2 505/10/2 514/10/2
f 509/10/2 510/10/2 514/10/2
f 502/10/2 503/10/2 514/10/2
f 500/10/2 501/10/2 514/10/2
f 513/10/2 499/10/2 515/10/2
f 514/10/2 513/10/2 515/10/2
f 516/7/2 517/7/2 518/7/2
f 518/7/2 517/7/2 519/7/2
f 520/8/2 521/8/2 522/8/2
f 522/8/2 521/8/2 523/8/2
f 524/5/2 525/5/2 531/5/2
f 529/5/2 530/5/2 531/5/2
f 528/5/2 529/5/2 531/5/2
f 527/5/2 528/5/2 531/5/2
f 526/5/2 527/5/2 531/5/2
f 525/5/2 526/5/2 531/5/2
f 531/5/2 530/5/2 532/5/2
f 533/5/2 534/5/2 544/5/2
f 534/5/2 535/5/2 544/5/2
f 535/6/2 536/6/2 545/6/2
f 544/5/2 535/5/2 545/5/2
f 536/5/2 537/5/2 546/5/2
f 545/6/2 536/6/2 546/6/2
f 537/4/2 538/4/2 547/4/2
f 546/5/2 537/5/2 547/5/2
f 538/5/2 539/5/2 548/5/2
f 547/4/2 538/4/2 548/4/2
f 541/6/2 542/6/2 549/6/2
f 548/5/2 539/5/2 549/5/2
f 539/6/2 540/6/2 549/6/2
f 540/6/2 541/6/2 549/6/2
f 542/4/2 543/4/2 550/4/2
f 549/6/2 542/6/2 550/6/2
f 550/4/2 543/4/2 551/4/2
f 552/4/2 553/4/2 554/4/2
f 554/4/2 553/4/2 555/4/2
f 555/4/2 553/4/2 556/4/2
f 556/4/2 553/4/2 557/4/2
f 557/4/2 553/4/2 558/4/2
f 558/4/2 553/4/2 559/4/2
f 552/4/2 554/4/2 560/4/2
f 554/5/2 555/5/2 561/5/2
f 560/4/2 554/4/2 561/4/2
f 555/4/2 556/4/2 562/4/2
f 561/5/2 555/5/2 562/5/2
f 556/5/2 557/5/2 563/5/2
f 562/4/2 556/4/2 563/4/2
f 557/6/2 558/6/2 564/6/2
f 563/5/2 557/5/2 564/5/2
f 558/5/2 559/5/2 565/5/2
f 564/6/2 558/6/2 565/6/2
f 559/4/2 553/4/2 566/4/2
f 565/5/2 559/5/2 566/5/2
f 566/4/2 553/4/2 567/4/2
f 570/4/3 569/4/3 568/4/3
f 571/4/3 569/4/3 570/4/3
f 572/4/3 570/4/3 568/4/3
f 572/5/3 571/5/3 570/5/3
f 573/5/3 571/5/3 572/5/3
f 574/4/3 572/4/3 568/4/3
f 574/4/3 573/4/3 572/4/3
f 575/4/3 573/4/3 574/4/3
f 578/4/3 577/4/3 576/4/3
f 579/4/3 577/4/3 578/4/3
f 580/5/3 579/5/3 578/5/3
f 581/5/3 579/5/3 580/5/3
f 582/4/3 581/4/3 580/4/3
f 583/4/3 581/4/3 582/4/3
f 584/5/3 583/5/3 582/5/3
f 585/5/3 583/5/3 584/5/3
f 588/5/3 587/5/3 586/5/3
f 589/5/3 587/5/3 588/5/3
f 590/5/3 587/5/3 589/5/3
f 591/5/3 587/5/3 590/5/3
f 592/5/3 587/5/3 591/5/3
f 595/5/3 594/5/3 593/5/3
f 596/5/3 594/5/3 595/5/3
f 597/5/3 594/5/3 596/5/3
f 598/5/3 594/5/3 597/5/3
f 605/7/3 600/7/3 599/7/3
f 606/7/3 600/7/3 605/7/3
f 609/8/3 602/8/3 601/8/3
f 610/8/3 602/8/3 609/8/3
f 611/5/3 604/5/3 603/5/3
f 612/5/3 604/5/3 611/5/3
f 615/9/3 608/9/3 607/9/3
f 616/9/3 608/9/3 615/9/3
f 619/7/3 614/7/3 613/7/3
f 620/7/3 614/7/3 619/7/3
f 621/8/3 618/8/3 617/8/3
f 622/8/3 618/8/3 621/8/3
f 625/10/3 624/10/3 623/10/3
f 626/10/3 624/10/3 625/10/3
f 628/10/3 624/10/3 626/10/3
f 629/10/3 628/10/3 627/10/3
f 630/10/3 624/10/3 628/10/3
f 630/10/3 628/10/3 629/10/3
f 632/10/3 624/10/3 630/10/3
f 633/10/3 632/10/3 631/10/3
f 634/10/3 624/10/3 632/10/3
f 634/10/3 632/10/3 633/10/3
f 636/10/3 624/10/3 634/10/3
f 637/10/3 636/10/3 635/10/3
f 638/10/3 636/10/3 637/10/3
f 639/10/3 636/10/3 638/10/3
f 640/10/3 624/10/3 636/10/3
f 640/10/3 636/10/3 639/10/3
f 643/9/3 639/9/3 638/9/3
f 644/9/3 639/9/3 643/9/3
f 647/9/3 646/9/3 645/9/3
f 648/9/3 646/9/3 647/9/3
f 649/5/3 642/5/3 641/5/3
f 650/5/3 642/5/3 649/5/3
f 654/9/3 652/9/3 651/9/3
f 655/9/3 652/9/3 654/9/3
f 657/10/3 655/10/3 654/10/3
f 657/10/3 656/10/3 655/10/3
f 657/10/3 654/10/3 653/10/3
f 658/10/3 656/10/3 657/10/3
f 660/10/3 656/10/3 658/10/3
f 661/10/3 660/10/3 659/10/3
f 662/10/3 656/10/3 660/10/3
f 662/10/3 660/10/3 661/10/3
f 664/10/3 656/10/3 662/10/3
f 665/10/3 664/10/3 663/10/3
f 666/10/3 656/10/3 664/10/3
f 666/10/3 664/10/3 665/10/3
f 668/10/3 656/10/3 666/10/3
f 669/10/3 668/10/3 667/10/3
f 670/10/3 656/10/3 668/10/3
f 670/10/3 668/10/3 669/10/3
f 673/10/3 672/10/3 671/10/3
f 674/10/3 672/10/3 673/10/3
f 677/10/3 676/10/3 675/10/3
f 678/10/3 676/10/3 677/10/3
f 681/10/3 680/10/3 679/10/3
f 682/10/3 680/10/3 681/10/3
f 687/9/3 684/9/3 683/9/3
f 688/9/3 684/9/3 687/9/3
f 691/9/3 690/9/3 689/9/3
f 692/9/3 690/9/3 691/9/3
f 695/5/3 686/5/3 685/5/3
f 696/5/3 686/5/3 695/5/3
f 699/9/3 694/9/3 693/9/3
f 700/9/3 694/9/3 699/9/3
f 701/9/3 698/9/3 697/9/3
f 702/9/3 698/9/3 701/9/3
f 705/10/3 704/10/3 703/10/3
f 706/10/3 704/10/3 705/10/3
f 709/10/3 708/10/3 707/10/3
f 710/10/3 708/10/3 709/10/3
f 713/10/3 712/10/3 711/10/3
f 714/10/3 712/10/3 713/10/3
f 717/9/3 716/9/3 715/9/3
f 718/9/3 716/9/3 717/9/3
f 722/9/3 719/9/3 718/9/3
f 723/9/3 719/9/3 722/9/3
f 727/9/3 725/9/3 724/9/3
f 728/9/3 725/9/3 727/9/3
f 729/8/3 721/8/3 720/8/3
f 730/8/3 721/8/3 729/8/3
f 731/9/3 727/9/3 726/9/3
f 732/9/3 727/9/3 731/9/3
f 735/10/3 734/10/3 733/10/3
f 736/10/3 734/10/3 735/10/3
f 742/10/3 738/10/3 737/10/3
f 743/10/3 738/10/3 742/10/3
f 745/10/3 740/10/3 739/10/3
f 746/10/3 740/10/3 745/10/3
f 747/10/3 740/10/3 746/10/3
f 748/10/3 740/10/3 747/10/3
f 749/8/3 744/8/3 743/8/3
f 749/8/3 742/8/3 741/8/3
f 749/8/3 743/8/3 742/8/3
f 750/8/3 744/8/3 749/8/3
f 751/8/3 744/8/3 750/8/3
f 753/10/3 747/10/3 746/10/3
f 754/10/3 740/10/3 748/10/3
f 755/10/3 753/10/3 746/10/3
f 755/10/3 754/10/3 753/10/3
f 756/10/3 740/10/3 754/10/3
f 756/10/3 754/10/3 755/10/3
f 757/10/3 755/10/3 746/10/3
f 758/10/3 740/10/3 756/10/3
f 760/8/3 751/8/3 750/8/3
f 761/10/3 752/10/3 751/10/3
f 761/8/3 751/8/3 760/8/3
f 762/10/3 752/10/3 761/10/3
f 763/10/3 757/10/3 746/10/3
f 763/10/3 758/10/3 757/10/3
f 764/10/3 740/10/3 758/10/3
f 764/10/3 758/10/3 763/10/3
f 765/8/3 760/8/3 759/8/3
f 765/8/3 761/8/3 760/8/3
f 766/8/3 761/8/3 765/8/3
f 767/8/3 761/8/3 766/8/3
f 768/8/3 761/8/3 767/8/3
f 770/10/3 763/10/3 746/10/3
f 771/10/3 763/10/3 770/10/3
f 772/10/3 740/10/3 764/10/3
f 773/10/3 767/10/3 766/10/3
f 774/10/3 767/10/3 773/10/3
f 775/10/3 771/10/3 770/10/3
f 775/10/3 772/10/3 771/10/3
f 775/10/3 770/10/3 769/10/3
f 776/10/3 740/10/3 772/10/3
f 776/10/3 772/10/3 775/10/3
f 779/10/3 778/10/3 777/10/3
f 780/10/3 778/10/3 779/10/3
f 785/10/3 782/10/3 781/10/3
f 786/10/3 782/10/3 785/10/3
f 789/10/3 788/10/3 787/10/3
f 790/10/3 788/10/3 789/10/3
f 791/3/3 784/3/3 783/3/3
f 792/3/3 784/3/3 791/3/3
f 795/10/3 794/10/3 793/10/3
f 796/10/3 794/10/3 795/10/3
f 799/10/3 798/10/3 797/10/3
f 800/10/3 798/10/3 799/10/3
f 803/10/3 802/10/3 801/10/3
f 804/10/3 802/10/3 803/10/3
f 807/10/3 806/10/3 805/10/3
f 808/10/3 806/10/3 807/10/3
f 811/10/3 810/10/3 809/10/3
f 812/10/3 810/10/3 811/10/3
f 815/4/3 814/4/3 813/4/3
f 816/4/3 814/4/3 815/4/3
f 819/4/3 818/4/3 817/4/3
f 820/4/3 818/4/3 819/4/3
f 823/10/3 822/10/3 821/10/3
f 824/10/3 822/10/3 823/10/3
f 827/10/3 826/10/3 825/10/3
f 828/10/3 826/10/3 827/10/3
f 831/10/3 830/10/3 829/10/3
f 832/10/3 830/10/3 831/10/3
f 835/10/3 834/10/3 833/10/3
f 836/10/3 834/10/3 835/10/3
f 839/8/3 838/8/3 837/8/3
f 840/8/3 838/8/3 839/8/3
f 842/8/3 838/8/3 840/8/3
f 843/8/3 842/8/3 841/8/3
f 844/8/3 838/8/3 842/8/3
f 844/8/3 842/8/3 843/8/3
f 847/4/3 846/4/3 845/4/3
f 848/4/3 846/4/3 847/4/3
f 851/4/3 850/4/3 849/4/3
f 852/4/3 850/4/3 851/4/3
f 855/2/3 854/2/3 853/2/3
f 856/2/3 854/2/3 855/2/3
f 859/10/3 858/10/3 857/10/3
f 860/10/3 858/10/3 859/10/3
f 863/10/3 862/10/3 861/10/3
f 864/10/3 862/10/3 863/10/3
f 867/8/3 866/8/3 865/8/3
f 868/8/3 866/8/3 867/8/3
f 871/10/3 870/10/3 869/10/3
f 872/10/3 870/10/3 871/10/3
f 875/10/3 874/10/3 873/10/3
f 876/10/3 874/10/3 875/10/3
f 879/8/3 878/8/3 877/8/3
f 880/8/3 878/8/3 879/8/3
f 881/8/4 882/8/4 883/8/4
f 883/8/4 882/8/4 884/8/4
f 885/8/4 886/8/4 887/8/4
f 887/8/4 886/8/4 888/8/4
f 889/10/4 890/10/4 891/10/4
f 891/10/4 890/10/4 892/10/4
f 893/10/4 894/10/4 895/10/4
f 895/10/4 894/10/4 896/10/4
f 897/8/4 898/8/4 899/8/4
f 899/8/4 898/8/4 900/8/4
f 901/10/4 902/10/4 903/10/4
f 903/10/4 902/10/4 904/10/4
f 905/10/4 906/10/4 907/10/4
f 907/10/4 906/10/4 908/10/4
f 909/10/4 910/10/4 911/10/4
f 911/10/4 910/10/4 912/10/4
f 913/10/4 914/10/4 915/10/4
f 915/10/4 914/10/4 916/10/4
f 917/10/4 918/10/4 919/10/4
f 919/10/4 918/10/4 920/10/4
f 921/10/4 922/10/4 923/10/4
f 923/10/4 922/10/4 924/10/4
f 925/10/4 926/10/4 927/10/4
f 927/10/4 926/10/4 928/10/4
f 929/10/4 930/10/4 931/10/4
f 931/10/4 930/10/4 932/10/4
f 933/4/4 934/4/4 935/4/4
f 935/4/4 934/4/4 936/4/4
f 937/4/4 938/4/4 939/4/4
f 939/4/4 938/4/4 940/4/4
f 941/10/4 942/10/4 943/10/4
f 943/10/4 942/10/4 944/10/4
f 945/10/4 946/10/4 947/10/4
f 947/10/4 946/10/4 948/10/4
f 949/2/4 950/2/4 951/2/4
f 951/2/4 950/2/4 952/2/4
f 953/10/4 954/10/4 955/10/4
f 955/10/4 954/10/4 956/10/4
f 957/10/4 958/10/4 959/10/4
f 959/10/4 958/10/4 960/10/4
f 961/4/4 962/4/4 963/4/4
f 963/4/4 962/4/4 964/4/4
f 965/4/4 966/4/4 967/4/4
f 967/4/4 966/4/4 968/4/4
f 969/10/4 970/10/4 973/10/4
f 973/10/4 970/10/4 974/10/4
f 975/10/4 976/10/4 977/10/4
f 977/10/4 976/10/4 978/10/4
f 971/8/4 972/8/4 979/8/4
f 979/8/4 972/8/4 980/8/4
f 981/10/4 982/10/4 983/10/4
f 983/10/4 982/10/4 984/10/4
f 985/10/4 986/10/4 987/10/4
f 987/10/4 986/10/4 988/10/4
f 989/10/4 990/10/4 991/10/4
f 991/10/4 990/10/4 992/10/4
f 993/10/4 994/10/4 995/10/4
f 995/10/4 994/10/4 996/10/4
f 997/10/4 998/10/4 999/10/4
f 999/10/4 998/10/4 1000/10/4
f 1001/10/4 1002/10/4 1003/10/4
f 1003/10/4 1002/10/4 1004/10/4
f 1005/10/4 1006/10/4 1007/10/4
f 1007/10/4 1006/10/4 1008/10/4
f 1008/10/4 1006/10/4 1010/10/4
f 1009/10/4 1010/10/4 1011/10/4
f 1010/10/4 1006/10/4 1012/10/4
f 1011/10/4 1010/10/4 1012/10/4
f 1012/10/4 1006/10/4 1014/10/4
f 1013/10/4 1014/10/4 1015/10/4
f 1014/10/4 1006/10/4 1016/10/4
f 1015/10/4 1014/10/4 1016/10/4
f 1016/10/4 1006/10/4 1018/10/4
f 1017/10/4 1018/10/4 1019/10/4
f 1018/10/4 1006/10/4 1020/10/4
f 1019/10/4 1018/10/4 1020/10/4
f 1020/10/4 1006/10/4 1022/10/4
f 1021/10/4 1022/10/4 1023/10/4
f 1022/10/4 1006/10/4 1024/10/4
f 1023/10/4 1022/10/4 1024/10/4
f 1024/10/4 1006/10/4 1026/10/4
f 1025/10/4 1026/10/4 1027/10/4
f 1026/10/4 1006/10/4 1028/10/4
f 1027/10/4 1026/10/4 1028/10/4
f 1028/10/4 1006/10/4 1030/10/4
f 1029/10/4 1030/10/4 1031/10/4
f 1030/10/4 1006/10/4 1032/10/4
f 1031/10/4 1030/10/4 1032/10/4
f 1032/10/4 1006/10/4 1034/10/4
f 1033/10/4 1034/10/4 1035/10/4
f 1034/10/4 1006/10/4 1036/10/4
f 1035/10/4 1034/10/4 1036/10/4
f 1036/10/4 1006/10/4 1038/10/4
f 1037/10/4 1038/10/4 1039/10/4
f 1038/10/4 1006/10/4 1040/10/4
f 1039/10/4 1038/10/4 1040/10/4
f 1041/7/4 1042/7/4 1045/7/4
f 1045/7/4 1042/7/4 1046/7/4
f 1043/8/4 1044/8/4 1047/8/4
f 1047/8/4 1044/8/4 1048/8/4
f 1049/5/4 1050/5/4 1051/5/4
f 1051/5/4 1050/5/4 1052/5/4
f 1052/5/4 1050/5/4 1053/5/4
f 1053/5/4 1050/5/4 1054/5/4
f 1054/5/4 1050/5/4 1055/5/4
f 1056/5/4 1057/5/4 1059/5/4
f 1057/5/4 1058/5/4 1059/5/4
f 1059/5/4 1058/5/4 1060/5/4
f 1060/5/4 1058/5/4 1061/5/4
f 1062/5/4 1063/5/4 1065/5/4
f 1063/5/4 1064/5/4 1065/5/4
f 1065/5/4 1064/5/4 1066/5/4
f 1066/5/4 1064/5/4 1067/5/4
f 1068/1/4 1069/1/4 1071/1/4
f 1069/2/4 1070/2/4 1072/2/4
f 1071/1/4 1069/1/4 1072/1/4
f 1072/2/4 1070/2/4 1073/2/4
f 1074/1/4 1075/1/4 1077/1/4
f 1075/2/4 1076/2/4 1078/2/4
f 1077/1/4 1075/1/4 1078/1/4
f 1078/2/4 1076/2/4 1079/2/4
f 1080/4/4 1081/4/4 1082/4/4
f 1082/4/4 1081/4/4 1083/4/4
f 1082/5/4 1083/5/4 1084/5/4
f 1084/5/4 1083/5/4 1085/5/4
f 1084/6/4 1085/6/4 1086/6/4
f 1086/6/4 1085/6/4 1087/6/4
f 1086/5/4 1087/5/4 1088/5/4
f 1088/5/4 1087/5/4 1089/5/4
f 1088/4/4 1089/4/4 1090/4/4
f 1090/4/4 1089/4/4 1091/4/4
f 1092/4/4 1093/4/4 1094/4/4
f 1094/4/4 1093/4/4 1095/4/4
f 1092/4/4 1094/4/4 1096/4/4
f 1094/5/4 1095/5/4 1096/5/4
f 1096/5/4 1095/5/4 1097/5/4
f 1092/4/4 1096/4/4 1098/4/4
f 1096/4/4 1097/4/4 1098/4/4
f 1098/4/4 1097/4/4 1099/4/4
f 1102/4/5 1101/4/5 1100/4/5
f 1103/4/5 1101/4/5 1102/4/5
f 1108/9/5 1105/9/5 1104/9/5
f 1109/9/5 1105/9/5 1108/9/5
f 1112/9/5 1107/9/5 1106/9/5
f 1113/9/5 1107/9/5 1112/9/5
f 1114/8/5 1111/8/5 1110/8/5
f 1115/8/5 1111/8/5 1114/8/5
f 1120/9/5 1117/9/5 1116/9/5
f 1121/9/5 1117/9/5 1120/9/5
f 1124/9/5 1119/9/5 1118/9/5
f 1125/9/5 1119/9/5 1124/9/5
f 1126/9/5 1122/9/5 1121/9/5
f 1127/9/5 1122/9/5 1126/9/5
f 1128/9/5 1124/9/5 1123/9/5
f 1129/9/5 1124/9/5 1128/9/5
f 1133/9/5 1131/9/5 1130/9/5
f 1134/9/5 1131/9/5 1133/9/5
f 1136/9/5 1133/9/5 1132/9/5
f 1136/9/5 1135/9/5 1134/9/5
f 1136/9/5 1134/9/5 1133/9/5
f 1137/9/5 1135/9/5 1136/9/5
f 1138/9/5 1135/9/5 1137/9/5
f 1139/9/5 1135/9/5 1138/9/5
f 1140/9/5 1138/9/5 1137/9/5
f 1141/9/5 1138/9/5 1140/9/5
f 1142/9/5 1138/9/5 1141/9/5
f 1143/9/5 1138/9/5 1142/9/5
f 1144/9/5 1142/9/5 1141/9/5
f 1145/9/5 1142/9/5 1144/9/5
f 1159/10/5 1147/10/5 1146/10/5
f 1160/10/5 1147/10/5 1159/10/5
f 1161/10/5 1149/10/5 1148/10/5
f 1162/10/5 1149/10/5 1161/10/5
f 1163/10/5 1151/10/5 1150/10/5
f 1164/10/5 1151/10/5 1163/10/5
f 1165/10/5 1153/10/5 1152/10/5
f 1166/10/5 1153/10/5 1165/10/5
f 1167/10/5 1155/10/5 1154/10/5
f 1168/10/5 1155/10/5 1167/10/5
f 1169/10/5 1157/10/5 1156/10/5
f 1170/10/5 1157/10/5 1169/10/5
f 1172/10/5 1159/10/5 1158/10/5
f 1173/10/5 1159/10/5 1172/10/5
f 1180/10/5 1171/10/5 1170/10/5
f 1181/10/5 1171/10/5 1180/10/5
f 1184/10/5 1175/10/5 1174/10/5
f 1185/10/5 1175/10/5 1184/10/5
f 1186/10/5 1177/10/5 1176/10/5
f 1187/10/5 1177/10/5 1186/10/5
f 1188/10/5 1179/10/5 1178/10/5
f 1189/10/5 1179/10/5 1188/10/5
f 1192/10/5 1183/10/5 1182/10/5
f 1193/10/5 1183/10/5 1192/10/5
f 1194/10/5 1191/10/5 1190/10/5
f 1195/10/5 1191/10/5 1194/10/5
f 1200/10/5 1197/10/5 1196/10/5
f 1201/10/5 1197/10/5 1200/10/5
f 1202/10/5 1199/10/5 1198/10/5
f 1203/10/5 1199/10/5 1202/10/5
f 1208/10/5 1205/10/5 1204/10/5
f 1209/10/5 1205/10/5 1208/10/5
f 1210/10/5 1207/10/5 1206/10/5
f 1211/10/5 1207/10/5 1210/10/5
f 1216/10/5 1213/10/5 1212/10/5
f 1217/10/5 1213/10/5 1216/10/5
f 1218/10/5 1215/10/5 1214/10/5
f 1219/10/5 1215/10/5 1218/10/5
f 1224/10/5 1221/10/5 1220/10/5
f 1225/10/5 1221/10/5 1224/10/5
f 1226/10/5 1223/10/5 1222/10/5
f 1227/10/5 1223/10/5 1226/10/5
f 1232/10/5 1229/10/5 1228/10/5
f 1233/10/5 1229/10/5 1232/10/5
f 1248/10/5 1231/10/5 1230/10/5
f 1249/10/5 1231/10/5 1248/10/5
f 1250/10/5 1234/10/5 1233/10/5
f 1251/10/5 1234/10/5 1250/10/5
f 1252/10/5 1236/10/5 1235/10/5
f 1253/10/5 1236/10/5 1252/10/5
f 1254/10/5 1238/10/5 1237/10/5
f 1255/10/5 1238/10/5 1254/10/5
f 1256/10/5 1240/10/5 1239/10/5
f 1257/10/5 1240/10/5 1256/10/5
f 1258/10/5 1242/10/5 1241/10/5
f 1259/10/5 1242/10/5 1258/10/5
f 1260/10/5 1244/10/5 1243/10/5
f 1261/10/5 1244/10/5 1260/10/5
f 1262/10/5 1246/10/5 1245/10/5
f 1263/10/5 1246/10/5 1262/10/5
f 1264/10/5 1248/10/5 1247/10/5
f 1265/10/5 1248/10/5 1264/10/5
f 1270/8/5 1267/8/5 1266/8/5
f 1271/8/5 1267/8/5 1270/8/5
f 1272/8/5 1269/8/5 1268/8/5
f 1273/8/5 1269/8/5 1272/8/5
f 1274/8/5 1267/8/5 1271/8/5
f 1275/8/5 1272/8/5 1268/8/5
f 1276/8/5 1274/8/5 1271/8/5
f 1276/8/5 1275/8/5 1274/8/5
f 1277/8/5 1272/8/5 1275/8/5
f 1277/8/5 1275/8/5 1276/8/5
f 1278/8/5 1270/8/5 1266/8/5
f 1279/8/5 1269/8/5 1273/8/5
f 1280/8/5 1278/8/5 1266/8/5
f 1280/8/5 1279/8/5 1278/8/5
f 1281/8/5 1269/8/5 1279/8/5
f 1281/8/5 1279/8/5 1280/8/5
f 1284/8/5 1283/8/5 1282/8/5
f 1285/8/5 1283/8/5 1284/8/5
f 1288/8/5 1287/8/5 1286/8/5
f 1289/8/5 1287/8/5 1288/8/5
f 1290/4/6 1291/4/6 1294/4/6
f 1294/4/6 1291/4/6 1295/4/6
f 1295/4/6 1291/4/6 1296/4/6
f 1291/5/6 1292/5/6 1297/5/6
f 1296/4/6 1291/4/6 1297/4/6
f 1292/4/6 1293/4/6 1298/4/6
f 1297/5/6 1292/5/6 1298/5/6
f 1298/4/6 1293/4/6 1299/4/6
f 1299/4/6 1293/4/6 1300/4/6
f 1299/5/6 1300/5/6 1301/5/6
f 1290/4/6 1294/4/6 1302/4/6
f 1302/4/6 1294/4/6 1303/4/6
f 1302/5/6 1303/5/6 1304/5/6
f 1304/5/6 1303/5/6 1305/5/6
f 1304/6/6 1305/6/6 1306/6/6
f 1306/6/6 1305/6/6 1307/6/6
f 1306/5/6 1307/5/6 1308/5/6
f 1308/5/6 1307/5/6 1309/5/6
f 1301/5/6 1300/5/6 1310/5/6
f 1308/4/6 1309/4/6 1311/4/6
f 1311/4/6 1309/4/6 1312/4/6
f 1310/5/6 1300/5/6 1313/5/6
f 1313/5/6 1300/5/6 1314/5/6
f 1313/4/6 1314/4/6 1315/4/6
f 1315/4/6 1314/4/6 1316/4/6
f 1311/5/6 1312/5/6 1317/5/6
f 1317/5/6 1312/5/6 1318/5/6
f 1315/5/6 1316/5/6 1319/5/6
f 1317/4/6 1318/4/6 1320/4/6
f 1320/4/6 1318/4/6 1321/4/6
f 1319/5/6 1316/5/6 1322/5/6
f 1322/5/6 1316/5/6 1323/5/6
f 1322/6/6 1323/6/6 1324/6/6
f 1324/6/6 1323/6/6 1325/6/6
f 1320/5/6 1321/5/6 1326/5/6
f 1326/5/6 1321/5/6 1327/5/6
f 1324/5/6 1325/5/6 1328/5/6
f 1328/5/6 1325/5/6 1329/5/6
f 1326/4/6 1327/4/6 1330/4/6
f 1328/4/6 1329/4/6 1335/4/6
f 1326/4/6 1330/4/6 1336/4/6
f 1330/4/6 1331/4/6 1336/4/6
f 1333/5/6 1334/5/6 1337/5/6
f 1336/4/6 1331/4/6 1337/4/6
f 1331/5/6 1332/5/6 1337/5/6
f 1332/5/6 1333/5/6 1337/5/6
f 1334/4/6 1335/4/6 1338/4/6
f 1337/5/6 1334/5/6 1338/5/6
f 1335/4/6 1329/4/6 1339/4/6
f 1338/4/6 1335/4/6 1339/4/6
f 1341/5/6 1342/5/6 1345/5/6
f 1342/4/6 1343/4/6 1346/4/6
f 1345/5/6 1342/5/6 1346/5/6
f 1346/4/6 1343/4/6 1347/4/6
f 1343/5/6 1344/5/6 1348/5/6
f 1347/4/6 1343/4/6 1348/4/6
f 1347/5/6 1348/5/6 1349/5/6
f 1348/5/6 1344/5/6 1349/5/6
f 1349/5/6 1344/5/6 1350/5/6
f 1347/5/6 1349/5/6 1351/5/6
f 1349/7/6 1350/7/6 1352/7/6
f 1351/5/6 1349/5/6 1352/5/6
f 1350/5/6 1344/5/6 1353/5/6
f 1352/7/6 1350/7/6 1353/7/6
f 1353/5/6 1344/5/6 1354/5/6
f 1340/4/6 1341/4/6 1355/4/6
f 1355/4/6 1341/4/6 1356/4/6
f 1341/5/6 1345/5/6 1357/5/6
f 1356/4/6 1341/4/6 1357/4/6
f 1346/6/6 1347/6/6 1358/6/6
f 1357/5/6 1345/5/6 1358/5/6
f 1345/6/6 1346/6/6 1358/6/6
f 1347/5/6 1351/5/6 1359/5/6
f 1358/6/6 1347/6/6 1359/6/6
f 1359/5/6 1351/5/6 1360/5/6
f 1360/5/6 1351/5/6 1361/5/6
f 1351/6/6 1352/6/6 1362/6/6
f 1361/5/6 1351/5/6 1362/5/6
f 1352/7/6 1353/7/6 1363/7/6
f 1362/6/6 1352/6/6 1363/6/6
f 1363/7/6 1353/7/6 1364/7/6
f 1360/5/6 1361/5/6 1365/5/6
f 1365/5/6 1361/5/6 1366/5/6
f 1340/4/6 1355/4/6 1367/4/6
f 1355/5/6 1356/5/6 1368/5/6
f 1367/4/6 1355/4/6 1368/4/6
f 1367/5/6 1368/5/6 1369/5/6
f 1368/5/6 1356/5/6 1369/5/6
f 1369/5/6 1356/5/6 1370/5/6
f 1367/5/6 1369/5/6 1371/5/6
f 1369/6/6 1370/6/6 1372/6/6
f 1371/5/6 1369/5/6 1372/5/6
f 1372/6/6 1370/6/6 1373/6/6
f 1373/6/6 1370/6/6 1374/6/6
f 1364/7/6 1353/7/6 1375/7/6
f 1353/6/6 1354/6/6 1375/6/6
f 1375/6/6 1354/6/6 1376/6/6
f 1371/4/6 1372/4/6 1377/4/6
f 1372/6/6 1373/6/6 1378/6/6
f 1377/4/6 1372/4/6 1378/4/6
f 1364/7/6 1375/7/6 1379/7/6
f 1375/5/6 1376/5/6 1380/5/6
f 1379/7/6 1375/7/6 1380/7/6
f 1379/5/6 1380/5/6 1381/5/6
f 1380/5/6 1376/5/6 1382/5/6
f 1381/5/6 1380/5/6 1382/5/6
f 1381/4/6 1382/4/6 1383/4/6
f 1383/4/6 1382/4/6 1384/4/6
f 1373/7/6 1374/7/6 1385/7/6
f 1378/6/6 1373/6/6 1385/6/6
f 1377/6/6 1378/6/6 1385/6/6
f 1385/7/6 1374/7/6 1386/7/6
f 1383/5/6 1384/5/6 1387/5/6
f 1387/5/6 1384/5/6 1388/5/6
f 1385/6/6 1386/6/6 1389/6/6
f 1377/6/6 1385/6/6 1389/6/6
f 1389/6/6 1386/6/6 1390/6/6
f 1387/7/6 1388/7/6 1391/7/6
f 1388/5/6 1384/5/6 1392/5/6
f 1391/7/6 1388/7/6 1392/7/6
f 1390/6/6 1386/6/6 1393/6/6
f 1391/5/6 1392/5/6 1401/5/6
f 1399/6/6 1400/6/6 1402/6/6
f 1400/5/6 1401/5/6 1402/5/6
f 1392/5/6 1384/5/6 1403/5/6
f 1402/5/6 1401/5/6 1403/5/6
f 1401/5/6 1392/5/6 1403/5/6
f 1389/4/6 1390/4/6 1404/4/6
f 1390/6/6 1393/6/6 1405/6/6
f 1404/4/6 1390/4/6 1405/4/6
f 1393/6/6 1394/6/6 1405/6/6
f 1394/5/6 1395/5/6 1406/5/6
f 1395/6/6 1396/6/6 1407/6/6
f 1406/5/6 1395/5/6 1407/5/6
f 1407/6/6 1396/6/6 1408/6/6
f 1397/6/6 1398/6/6 1409/6/6
f 1409/6/6 1398/6/6 1410/6/6
f 1399/6/6 1402/6/6 1411/6/6
f 1402/6/6 1403/6/6 1411/6/6
f 1405/6/6 1394/6/6 1412/6/6
f 1404/5/6 1405/5/6 1412/5/6
f 1412/6/6 1394/6/6 1413/6/6
f 1404/5/6 1412/5/6 1414/5/6
f 1412/5/6 1413/5/6 1414/5/6
f 1414/5/6 1413/5/6 1415/5/6
f 1413/6/6 1394/6/6 1416/6/6
f 1415/5/6 1413/5/6 1416/5/6
f 1394/5/6 1406/5/6 1417/5/6
f 1416/6/6 1394/6/6 1417/6/6
f 1409/6/6 1410/6/6 1418/6/6
f 1408/6/6 1409/6/6 1418/6/6
f 1407/6/6 1408/6/6 1418/6/6
f 1406/6/6 1407/6/6 1418/6/6
f 1418/6/6 1410/6/6 1419/6/6
f 1410/5/6 1411/5/6 1420/5/6
f 1411/6/6 1403/6/6 1420/6/6
f 1420/6/6 1403/6/6 1421/6/6
f 1421/6/6 1403/6/6 1422/6/6
f 1417/5/6 1406/5/6 1423/5/6
f 1416/5/6 1417/5/6 1423/5/6
f 1415/5/6 1416/5/6 1423/5/6
f 1406/6/6 1418/6/6 1423/6/6
f 1418/5/6 1419/5/6 1424/5/6
f 1423/6/6 1418/6/6 1424/6/6
f 1419/6/6 1410/6/6 1425/6/6
f 1424/5/6 1419/5/6 1425/5/6
f 1420/5/6 1421/5/6 1426/5/6
f 1425/6/6 1410/6/6 1426/6/6
f 1410/5/6 1420/5/6 1426/5/6
f 1426/5/6 1421/5/6 1427/5/6
f 1427/5/6 1421/5/6 1428/5/6
f 1414/4/6 1415/4/6 1429/4/6
f 1423/5/6 1424/5/6 1430/5/6
f 1429/4/6 1415/4/6 1430/4/6
f 1424/5/6 1425/5/6 1430/5/6
f 1415/5/6 1423/5/6 1430/5/6
f 1426/5/6 1427/5/6 1430/5/6
f 1425/5/6 1426/5/6 1430/5/6
f 1427/6/6 1428/6/6 1431/6/6
f 1430/5/6 1427/5/6 1431/5/6
f 1428/5/6 1421/5/6 1432/5/6
f 1431/6/6 1428/6/6 1432/6/6
f 1421/4/6 1422/4/6 1433/4/6
f 1432/5/6 1421/5/6 1433/5/6
f 1433/4/6 1422/4/6 1434/4/6
f 1435/5/6 1436/5/6 1437/5/6
f 1437/5/6 1436/5/6 1438/5/6
f 1439/5/6 1440/5/6 1441/5/6
f 1441/5/6 1440/5/6 1442/5/6
f 1443/5/6 1444/5/6 1447/5/6
f 1447/5/6 1444/5/6 1448/5/6
f 1445/5/6 1446/5/6 1449/5/6
f 1449/5/6 1446/5/6 1450/5/6
f 1451/5/6 1452/5/6 1453/5/6
f 1453/5/6 1452/5/6 1454/5/6
f 1454/5/6 1452/5/6 1455/5/6
f 1455/5/6 1452/5/6 1456/5/6
f 1454/5/6 1455/5/6 1457/5/6
f 1457/5/6 1455/5/6 1458/5/6
f 1443/5/6 1447/5/6 1459/5/6
f 1450/5/6 1446/5/6 1460/5/6
f 1443/5/6 1459/5/6 1461/5/6
f 1459/5/6 1460/5/6 1461/5/6
f 1461/5/6 1460/5/6 1462/5/6
f 1462/5/6 1460/5/6 1463/5/6
f 1463/5/6 1460/5/6 1464/5/6
f 1464/5/6 1460/5/6 1465/5/6
f 1460/5/6 1446/5/6 1466/5/6
f 1465/5/6 1460/5/6 1466/5/6
f 1462/2/6 1463/2/6 1467/2/6
f 1467/2/6 1463/2/6 1468/2/6
f 1464/2/6 1465/2/6 1469/2/6
f 1469/2/6 1465/2/6 1470/2/6
f 1471/7/6 1472/7/6 1475/7/6
f 1475/7/6 1472/7/6 1476/7/6
f 1476/7/6 1472/7/6 1477/7/6
f 1477/7/6 1472/7/6 1478/7/6
f 1478/7/6 1472/7/6 1479/7/6
f 1479/7/6 1472/7/6 1480/7/6
f 1480/7/6 1472/7/6 1481/7/6
f 1481/7/6 1472/7/6 1482/7/6
f 1473/7/6 1474/7/6 1483/7/6
f 1483/7/6 1474/7/6 1484/7/6
f 1484/7/6 1474/7/6 1485/7/6
f 1485/7/6 1474/7/6 1486/7/6
f 1486/7/6 1474/7/6 1487/7/6
f 1487/7/6 1474/7/6 1488/7/6
f 1488/7/6 1474/7/6 1489/7/6
f 1489/7/6 1474/7/6 1490/7/6
f 1471/7/6 1475/7/6 1491/7/6
f 1476/7/6 1477/7/6 1492/7/6
f 1492/7/6 1477/7/6 1493/7/6
f 1478/7/6 1479/7/6 1494/7/6
f 1494/7/6 1479/7/6 1495/7/6
f 1480/7/6 1481/7/6 1496/7/6
f 1496/7/6 1481/7/6 1497/7/6
f 1484/7/6 1485/7/6 1498/7/6
f 1498/7/6 1485/7/6 1499/7/6
f 1486/7/6 1487/7/6 1500/7/6
f 1500/7/6 1487/7/6 1501/7/6
f 1488/7/6 1489/7/6 1502/7/6
f 1502/7/6 1489/7/6 1503/7/6
f 1490/7/6 1474/7/6 1504/7/6
f 1471/7/6 1491/7/6 1505/7/6
f 1491/7/6 1492/7/6 1505/7/6
f 1505/7/6 1492/7/6 1506/7/6
f 1482/7/6 1472/7/6 1507/7/6
f 1507/7/6 1472/7/6 1508/7/6
f 1473/7/6 1483/7/6 1509/7/6
f 1509/7/6 1483/7/6 1510/7/6
f 1503/7/6 1504/7/6 1511/7/6
f 1504/7/6 1474/7/6 1512/7/6
f 1511/7/6 1504/7/6 1512/7/6
f 1471/7/6 1505/7/6 1513/7/6
f 1512/7/6 1474/7/6 1516/7/6
f 1513/7/6 1514/7/6 1517/7/6
f 1471/7/6 1513/7/6 1517/7/6
f 1517/7/6 1514/7/6 1518/7/6
f 1515/7/6 1516/7/6 1519/7/6
f 1516/7/6 1474/7/6 1520/7/6
f 1519/7/6 1516/7/6 1520/7/6
f 1471/7/6 1517/7/6 1521/7/6
f 1520/7/6 1474/7/6 1524/7/6
f 1521/7/6 1522/7/6 1525/7/6
f 1471/7/6 1521/7/6 1525/7/6
f 1525/7/6 1522/7/6 1526/7/6
f 1523/7/6 1524/7/6 1527/7/6
f 1524/7/6 1474/7/6 1528/7/6
f 1527/7/6 1524/7/6 1528/7/6
f 1471/7/6 1525/7/6 1529/7/6
f 1528/7/6 1474/7/6 1532/7/6
f 1529/7/6 1530/7/6 1533/7/6
f 1471/7/6 1529/7/6 1533/7/6
f 1533/7/6 1530/7/6 1534/7/6
f 1531/7/6 1532/7/6 1535/7/6
f 1532/7/6 1474/7/6 1536/7/6
f 1535/7/6 1532/7/6 1536/7/6
f 1471/7/6 1533/7/6 1537/7/6
f 1536/7/6 1474/7/6 1540/7/6
f 1537/7/6 1538/7/6 1541/7/6
f 1471/7/6 1537/7/6 1541/7/6
f 1541/7/6 1538/7/6 1542/7/6
f 1539/7/6 1540/7/6 1543/7/6
f 1540/7/6 1474/7/6 1544/7/6
f 1543/7/6 1540/7/6 1544/7/6
f 1471/7/6 1541/7/6 1545/7/6
f 1544/7/6 1474/7/6 1548/7/6
f 1545/7/6 1546/7/6 1549/7/6
f 1471/7/6 1545/7/6 1549/7/6
f 1549/7/6 1546/7/6 1550/7/6
f 1547/7/6 1548/7/6 1551/7/6
f 1548/7/6 1474/7/6 1552/7/6
f 1551/7/6 1548/7/6 1552/7/6
f 1471/7/6 1549/7/6 1553/7/6
f 1552/7/6 1474/7/6 1556/7/6
f 1553/7/6 1554/7/6 1557/7/6
f 1471/7/6 1553/7/6 1557/7/6
f 1557/7/6 1554/7/6 1558/7/6
f 1555/7/6 1556/7/6 1573/7/6
f 1556/7/6 1474/7/6 1574/7/6
f 1573/7/6 1556/7/6 1574/7/6
f 1471/7/6 1557/7/6 1575/7/6
f 1558/7/6 1559/7/6 1576/7/6
f 1576/7/6 1559/7/6 1577/7/6
f 1560/7/6 1561/7/6 1578/7/6
f 1578/7/6 1561/7/6 1579/7/6
f 1562/7/6 1563/7/6 1580/7/6
f 1580/7/6 1563/7/6 1581/7/6
f 1564/7/6 1565/7/6 1582/7/6
f 1582/7/6 1565/7/6 1583/7/6
f 1566/7/6 1567/7/6 1584/7/6
f 1584/7/6 1567/7/6 1585/7/6
f 1568/7/6 1569/7/6 1586/7/6
f 1586/7/6 1569/7/6 1587/7/6
f 1570/7/6 1571/7/6 1588/7/6
f 1588/7/6 1571/7/6 1589/7/6
f 1572/7/6 1573/7/6 1590/7/6
f 1590/7/6 1573/7/6 1591/7/6
f 1574/7/6 1474/7/6 1592/7/6
f 1586/7/6 1587/7/6 1593/7/6
f 1591/7/6 1592/7/6 1593/7/6
f 1588/7/6 1589/7/6 1593/7/6
f 1590/7/6 1591/7/6 1593/7/6
f 1589/7/6 1590/7/6 1593/7/6
f 1471/7/6 1575/7/6 1593/7/6
f 1587/7/6 1588/7/6 1593/7/6
f 1576/7/6 1577/7/6 1593/7/6
f 1585/7/6 1586/7/6 1593/7/6
f 1578/7/6 1579/7/6 1593/7/6
f 1583/7/6 1584/7/6 1593/7/6
f 1580/7/6 1581/7/6 1593/7/6
f 1581/7/6 1582/7/6 1593/7/6
f 1582/7/6 1583/7/6 1593/7/6
f 1579/7/6 1580/7/6 1593/7/6
f 1584/7/6 1585/7/6 1593/7/6
f 1577/7/6 1578/7/6 1593/7/6
f 1575/7/6 1576/7/6 1593/7/6
f 1592/7/6 1474/7/6 1594/7/6
f 1593/7/6 1592/7/6 1594/7/6
f 1595/9/6 1596/9/6 1598/9/6
f 1598/9/6 1596/9/6 1599/9/6
f 1599/9/6 1596/9/6 1600/9/6
f 1600/9/6 1596/9/6 1601/9/6
f 1597/9/6 1598/9/6 1603/9/6
f 1598/9/6 1599/9/6 1603/9/6
f 1603/9/6 1599/9/6 1604/9/6
f 1601/9/6 1602/9/6 1605/9/6
f 1600/9/6 1601/9/6 1605/9/6
f 1605/9/6 1602/9/6 1606/9/6
f 1597/9/6 1603/9/6 1607/9/6
f 1607/9/6 1603/9/6 1608/9/6
f 1606/9/6 1602/9/6 1609/9/6
f 1609/9/6 1602/9/6 1610/9/6
f 1611/9/6 1612/9/6 1614/9/6
f 1614/9/6 1612/9/6 1615/9/6
f 1613/9/6 1614/9/6 1617/9/6
f 1615/9/6 1616/9/6 1617/9/6
f 1614/9/6 1615/9/6 1617/9/6
f 1617/9/6 1616/9/6 1618/9/6
f 1619/10/6 1620/10/6 1625/10/6
f 1625/10/6 1620/10/6 1626/10/6
f 1621/10/6 1622/10/6 1627/10/6
f 1627/10/6 1622/10/6 1628/10/6
f 1623/10/6 1624/10/6 1629/10/6
f 1629/10/6 1624/10/6 1630/10/6
f 1631/8/6 1632/8/6 1635/8/6
f 1633/8/6 1634/8/6 1636/8/6
f 1635/8/6 1636/8/6 1637/8/6
f 1636/8/6 1634/8/6 1638/8/6
f 1637/8/6 1636/8/6 1638/8/6
f 1638/8/6 1634/8/6 1639/8/6
f 1639/8/6 1634/8/6 1640/8/6
f 1635/8/6 1637/8/6 1641/8/6
f 1638/8/6 1639/8/6 1642/8/6
f 1642/8/6 1639/8/6 1643/8/6
f 1640/8/6 1634/8/6 1644/8/6
f 1631/8/6 1635/8/6 1645/8/6
f 1643/8/6 1644/8/6 1645/8/6
f 1642/8/6 1643/8/6 1645/8/6
f 1635/8/6 1641/8/6 1645/8/6
f 1641/8/6 1642/8/6 1645/8/6
f 1645/8/6 1644/8/6 1646/8/6
f 1646/8/6 1644/8/6 1647/8/6
f 1647/8/6 1644/8/6 1648/8/6
f 1648/8/6 1644/8/6 1649/8/6
f 1649/8/6 1644/8/6 1650/8/6
f 1650/8/6 1644/8/6 1651/8/6
f 1644/8/6 1634/8/6 1652/8/6
f 1651/8/6 1644/8/6 1652/8/6
f 1646/8/6 1647/8/6 1653/8/6
f 1653/8/6 1647/8/6 1654/8/6
f 1655/8/6 1656/8/6 1657/8/6
f 1657/8/6 1656/8/6 1658/8/6
f 1648/8/6 1649/8/6 1659/8/6
f 1650/8/6 1651/8/6 1660/8/6
f 1660/8/6 1651/8/6 1661/8/6
f 1652/8/6 1634/8/6 1662/8/6
f 1631/8/6 1645/8/6 1663/8/6
f 1648/8/6 1659/8/6 1664/8/6
f 1661/8/6 1662/8/6 1664/8/6
f 1660/8/6 1661/8/6 1664/8/6
f 1659/8/6 1660/8/6 1664/8/6
f 1631/8/6 1663/8/6 1665/8/6
f 1663/8/6 1664/8/6 1665/8/6
f 1664/8/6 1662/8/6 1666/8/6
f 1665/8/6 1664/8/6 1666/8/6
f 1662/8/6 1634/8/6 1666/8/6
f 1667/8/6 1668/8/6 1671/8/6
f 1671/8/6 1668/8/6 1672/8/6
f 1669/8/6 1670/8/6 1673/8/6
f 1673/8/6 1670/8/6 1674/8/6
f 1672/8/6 1668/8/6 1675/8/6
f 1669/8/6 1673/8/6 1676/8/6
f 1672/8/6 1675/8/6 1677/8/6
f 1675/8/6 1676/8/6 1677/8/6
f 1676/8/6 1673/8/6 1678/8/6
f 1677/8/6 1676/8/6 1678/8/6
f 1679/4/6 1680/4/6 1683/4/6
f 1683/4/6 1680/4/6 1684/4/6
f 1681/4/6 1682/4/6 1685/4/6
f 1685/4/6 1682/4/6 1686/4/6
f 1687/4/6 1688/4/6 1691/4/6
f 1691/4/6 1688/4/6 1692/4/6
f 1689/4/6 1690/4/6 1693/4/6
f 1693/4/6 1690/4/6 1694/4/6
f 1667/8/6 1671/8/6 1695/8/6
f 1674/8/6 1670/8/6 1696/8/6
f 1667/8/6 1695/8/6 1697/8/6
f 1695/8/6 1696/8/6 1697/8/6
f 1696/8/6 1670/8/6 1698/8/6
f 1697/8/6 1696/8/6 1698/8/6
f 1699/8/6 1700/8/6 1701/8/6
f 1701/8/6 1700/8/6 1702/8/6
